<?xml version="1.0" encoding="utf-8" standalone="no"?>
<!DOCTYPE svg PUBLIC "-//W3C//DTD SVG 1.1//EN"
  "http://www.w3.org/Graphics/SVG/1.1/DTD/svg11.dtd">
<!-- Created with matplotlib (https://matplotlib.org/) -->
<svg height="553.394375pt" version="1.1" viewBox="0 0 1410.180625 553.394375" width="1410.180625pt" xmlns="http://www.w3.org/2000/svg" xmlns:xlink="http://www.w3.org/1999/xlink">
 <defs>
  <style type="text/css">
*{stroke-linecap:butt;stroke-linejoin:round;}
  </style>
 </defs>
 <g id="figure_1">
  <g id="patch_1">
   <path d="M 0 553.394375 
L 1410.180625 553.394375 
L 1410.180625 0 
L 0 0 
z
" style="fill:#ffffff;"/>
  </g>
  <g id="axes_1">
   <g id="patch_2">
    <path d="M 63.780625 506.16 
L 1402.980625 506.16 
L 1402.980625 7.2 
L 63.780625 7.2 
z
" style="fill:#ffffff;"/>
   </g>
   <g id="matplotlib.axis_1">
    <g id="xtick_1">
     <g id="line2d_1">
      <defs>
       <path d="M 0 0 
L 0 3.5 
" id="m09767d5c07" style="stroke:#000000;stroke-width:0.8;"/>
      </defs>
      <g>
       <use style="stroke:#000000;stroke-width:0.8;" x="99.289716" xlink:href="#m09767d5c07" y="506.16"/>
      </g>
     </g>
     <g id="text_1">
      <!-- 0 -->
      <defs>
       <path d="M 31.78125 66.40625 
Q 24.171875 66.40625 20.328125 58.90625 
Q 16.5 51.421875 16.5 36.375 
Q 16.5 21.390625 20.328125 13.890625 
Q 24.171875 6.390625 31.78125 6.390625 
Q 39.453125 6.390625 43.28125 13.890625 
Q 47.125 21.390625 47.125 36.375 
Q 47.125 51.421875 43.28125 58.90625 
Q 39.453125 66.40625 31.78125 66.40625 
z
M 31.78125 74.21875 
Q 44.046875 74.21875 50.515625 64.515625 
Q 56.984375 54.828125 56.984375 36.375 
Q 56.984375 17.96875 50.515625 8.265625 
Q 44.046875 -1.421875 31.78125 -1.421875 
Q 19.53125 -1.421875 13.0625 8.265625 
Q 6.59375 17.96875 6.59375 36.375 
Q 6.59375 54.828125 13.0625 64.515625 
Q 19.53125 74.21875 31.78125 74.21875 
z
" id="DejaVuSans-48"/>
      </defs>
      <g transform="translate(95.472216 522.278125)scale(0.12 -0.12)">
       <use xlink:href="#DejaVuSans-48"/>
      </g>
     </g>
    </g>
    <g id="xtick_2">
     <g id="line2d_2">
      <g>
       <use style="stroke:#000000;stroke-width:0.8;" x="352.92608" xlink:href="#m09767d5c07" y="506.16"/>
      </g>
     </g>
     <g id="text_2">
      <!-- 10 -->
      <defs>
       <path d="M 12.40625 8.296875 
L 28.515625 8.296875 
L 28.515625 63.921875 
L 10.984375 60.40625 
L 10.984375 69.390625 
L 28.421875 72.90625 
L 38.28125 72.90625 
L 38.28125 8.296875 
L 54.390625 8.296875 
L 54.390625 0 
L 12.40625 0 
z
" id="DejaVuSans-49"/>
      </defs>
      <g transform="translate(345.29108 522.278125)scale(0.12 -0.12)">
       <use xlink:href="#DejaVuSans-49"/>
       <use x="63.623047" xlink:href="#DejaVuSans-48"/>
      </g>
     </g>
    </g>
    <g id="xtick_3">
     <g id="line2d_3">
      <g>
       <use style="stroke:#000000;stroke-width:0.8;" x="606.562443" xlink:href="#m09767d5c07" y="506.16"/>
      </g>
     </g>
     <g id="text_3">
      <!-- 20 -->
      <defs>
       <path d="M 19.1875 8.296875 
L 53.609375 8.296875 
L 53.609375 0 
L 7.328125 0 
L 7.328125 8.296875 
Q 12.9375 14.109375 22.625 23.890625 
Q 32.328125 33.6875 34.8125 36.53125 
Q 39.546875 41.84375 41.421875 45.53125 
Q 43.3125 49.21875 43.3125 52.78125 
Q 43.3125 58.59375 39.234375 62.25 
Q 35.15625 65.921875 28.609375 65.921875 
Q 23.96875 65.921875 18.8125 64.3125 
Q 13.671875 62.703125 7.8125 59.421875 
L 7.8125 69.390625 
Q 13.765625 71.78125 18.9375 73 
Q 24.125 74.21875 28.421875 74.21875 
Q 39.75 74.21875 46.484375 68.546875 
Q 53.21875 62.890625 53.21875 53.421875 
Q 53.21875 48.921875 51.53125 44.890625 
Q 49.859375 40.875 45.40625 35.40625 
Q 44.1875 33.984375 37.640625 27.21875 
Q 31.109375 20.453125 19.1875 8.296875 
z
" id="DejaVuSans-50"/>
      </defs>
      <g transform="translate(598.927443 522.278125)scale(0.12 -0.12)">
       <use xlink:href="#DejaVuSans-50"/>
       <use x="63.623047" xlink:href="#DejaVuSans-48"/>
      </g>
     </g>
    </g>
    <g id="xtick_4">
     <g id="line2d_4">
      <g>
       <use style="stroke:#000000;stroke-width:0.8;" x="860.198807" xlink:href="#m09767d5c07" y="506.16"/>
      </g>
     </g>
     <g id="text_4">
      <!-- 30 -->
      <defs>
       <path d="M 40.578125 39.3125 
Q 47.65625 37.796875 51.625 33 
Q 55.609375 28.21875 55.609375 21.1875 
Q 55.609375 10.40625 48.1875 4.484375 
Q 40.765625 -1.421875 27.09375 -1.421875 
Q 22.515625 -1.421875 17.65625 -0.515625 
Q 12.796875 0.390625 7.625 2.203125 
L 7.625 11.71875 
Q 11.71875 9.328125 16.59375 8.109375 
Q 21.484375 6.890625 26.8125 6.890625 
Q 36.078125 6.890625 40.9375 10.546875 
Q 45.796875 14.203125 45.796875 21.1875 
Q 45.796875 27.640625 41.28125 31.265625 
Q 36.765625 34.90625 28.71875 34.90625 
L 20.21875 34.90625 
L 20.21875 43.015625 
L 29.109375 43.015625 
Q 36.375 43.015625 40.234375 45.921875 
Q 44.09375 48.828125 44.09375 54.296875 
Q 44.09375 59.90625 40.109375 62.90625 
Q 36.140625 65.921875 28.71875 65.921875 
Q 24.65625 65.921875 20.015625 65.03125 
Q 15.375 64.15625 9.8125 62.3125 
L 9.8125 71.09375 
Q 15.4375 72.65625 20.34375 73.4375 
Q 25.25 74.21875 29.59375 74.21875 
Q 40.828125 74.21875 47.359375 69.109375 
Q 53.90625 64.015625 53.90625 55.328125 
Q 53.90625 49.265625 50.4375 45.09375 
Q 46.96875 40.921875 40.578125 39.3125 
z
" id="DejaVuSans-51"/>
      </defs>
      <g transform="translate(852.563807 522.278125)scale(0.12 -0.12)">
       <use xlink:href="#DejaVuSans-51"/>
       <use x="63.623047" xlink:href="#DejaVuSans-48"/>
      </g>
     </g>
    </g>
    <g id="xtick_5">
     <g id="line2d_5">
      <g>
       <use style="stroke:#000000;stroke-width:0.8;" x="1113.83517" xlink:href="#m09767d5c07" y="506.16"/>
      </g>
     </g>
     <g id="text_5">
      <!-- 40 -->
      <defs>
       <path d="M 37.796875 64.3125 
L 12.890625 25.390625 
L 37.796875 25.390625 
z
M 35.203125 72.90625 
L 47.609375 72.90625 
L 47.609375 25.390625 
L 58.015625 25.390625 
L 58.015625 17.1875 
L 47.609375 17.1875 
L 47.609375 0 
L 37.796875 0 
L 37.796875 17.1875 
L 4.890625 17.1875 
L 4.890625 26.703125 
z
" id="DejaVuSans-52"/>
      </defs>
      <g transform="translate(1106.20017 522.278125)scale(0.12 -0.12)">
       <use xlink:href="#DejaVuSans-52"/>
       <use x="63.623047" xlink:href="#DejaVuSans-48"/>
      </g>
     </g>
    </g>
    <g id="xtick_6">
     <g id="line2d_6">
      <g>
       <use style="stroke:#000000;stroke-width:0.8;" x="1367.471534" xlink:href="#m09767d5c07" y="506.16"/>
      </g>
     </g>
     <g id="text_6">
      <!-- 50 -->
      <defs>
       <path d="M 10.796875 72.90625 
L 49.515625 72.90625 
L 49.515625 64.59375 
L 19.828125 64.59375 
L 19.828125 46.734375 
Q 21.96875 47.46875 24.109375 47.828125 
Q 26.265625 48.1875 28.421875 48.1875 
Q 40.625 48.1875 47.75 41.5 
Q 54.890625 34.8125 54.890625 23.390625 
Q 54.890625 11.625 47.5625 5.09375 
Q 40.234375 -1.421875 26.90625 -1.421875 
Q 22.3125 -1.421875 17.546875 -0.640625 
Q 12.796875 0.140625 7.71875 1.703125 
L 7.71875 11.625 
Q 12.109375 9.234375 16.796875 8.0625 
Q 21.484375 6.890625 26.703125 6.890625 
Q 35.15625 6.890625 40.078125 11.328125 
Q 45.015625 15.765625 45.015625 23.390625 
Q 45.015625 31 40.078125 35.4375 
Q 35.15625 39.890625 26.703125 39.890625 
Q 22.75 39.890625 18.8125 39.015625 
Q 14.890625 38.140625 10.796875 36.28125 
z
" id="DejaVuSans-53"/>
      </defs>
      <g transform="translate(1359.836534 522.278125)scale(0.12 -0.12)">
       <use xlink:href="#DejaVuSans-53"/>
       <use x="63.623047" xlink:href="#DejaVuSans-48"/>
      </g>
     </g>
    </g>
    <g id="text_7">
     <!-- Size S -->
     <defs>
      <path d="M 53.515625 70.515625 
L 53.515625 60.890625 
Q 47.90625 63.578125 42.921875 64.890625 
Q 37.9375 66.21875 33.296875 66.21875 
Q 25.25 66.21875 20.875 63.09375 
Q 16.5 59.96875 16.5 54.203125 
Q 16.5 49.359375 19.40625 46.890625 
Q 22.3125 44.4375 30.421875 42.921875 
L 36.375 41.703125 
Q 47.40625 39.59375 52.65625 34.296875 
Q 57.90625 29 57.90625 20.125 
Q 57.90625 9.515625 50.796875 4.046875 
Q 43.703125 -1.421875 29.984375 -1.421875 
Q 24.8125 -1.421875 18.96875 -0.25 
Q 13.140625 0.921875 6.890625 3.21875 
L 6.890625 13.375 
Q 12.890625 10.015625 18.65625 8.296875 
Q 24.421875 6.59375 29.984375 6.59375 
Q 38.421875 6.59375 43.015625 9.90625 
Q 47.609375 13.234375 47.609375 19.390625 
Q 47.609375 24.75 44.3125 27.78125 
Q 41.015625 30.8125 33.5 32.328125 
L 27.484375 33.5 
Q 16.453125 35.6875 11.515625 40.375 
Q 6.59375 45.0625 6.59375 53.421875 
Q 6.59375 63.09375 13.40625 68.65625 
Q 20.21875 74.21875 32.171875 74.21875 
Q 37.3125 74.21875 42.625 73.28125 
Q 47.953125 72.359375 53.515625 70.515625 
z
" id="DejaVuSans-83"/>
      <path d="M 9.421875 54.6875 
L 18.40625 54.6875 
L 18.40625 0 
L 9.421875 0 
z
M 9.421875 75.984375 
L 18.40625 75.984375 
L 18.40625 64.59375 
L 9.421875 64.59375 
z
" id="DejaVuSans-105"/>
      <path d="M 5.515625 54.6875 
L 48.1875 54.6875 
L 48.1875 46.484375 
L 14.40625 7.171875 
L 48.1875 7.171875 
L 48.1875 0 
L 4.296875 0 
L 4.296875 8.203125 
L 38.09375 47.515625 
L 5.515625 47.515625 
z
" id="DejaVuSans-122"/>
      <path d="M 56.203125 29.59375 
L 56.203125 25.203125 
L 14.890625 25.203125 
Q 15.484375 15.921875 20.484375 11.0625 
Q 25.484375 6.203125 34.421875 6.203125 
Q 39.59375 6.203125 44.453125 7.46875 
Q 49.3125 8.734375 54.109375 11.28125 
L 54.109375 2.78125 
Q 49.265625 0.734375 44.1875 -0.34375 
Q 39.109375 -1.421875 33.890625 -1.421875 
Q 20.796875 -1.421875 13.15625 6.1875 
Q 5.515625 13.8125 5.515625 26.8125 
Q 5.515625 40.234375 12.765625 48.109375 
Q 20.015625 56 32.328125 56 
Q 43.359375 56 49.78125 48.890625 
Q 56.203125 41.796875 56.203125 29.59375 
z
M 47.21875 32.234375 
Q 47.125 39.59375 43.09375 43.984375 
Q 39.0625 48.390625 32.421875 48.390625 
Q 24.90625 48.390625 20.390625 44.140625 
Q 15.875 39.890625 15.1875 32.171875 
z
" id="DejaVuSans-101"/>
      <path id="DejaVuSans-32"/>
     </defs>
     <g transform="translate(706.331406 542.450938)scale(0.18 -0.18)">
      <use xlink:href="#DejaVuSans-83"/>
      <use x="63.476562" xlink:href="#DejaVuSans-105"/>
      <use x="91.259766" xlink:href="#DejaVuSans-122"/>
      <use x="143.75" xlink:href="#DejaVuSans-101"/>
      <use x="205.273438" xlink:href="#DejaVuSans-32"/>
      <use x="237.060547" xlink:href="#DejaVuSans-83"/>
     </g>
    </g>
   </g>
   <g id="matplotlib.axis_2">
    <g id="ytick_1">
     <g id="line2d_7">
      <path clip-path="url(#p96a05dbaf6)" d="M 63.780625 418.143612 
L 1402.980625 418.143612 
" style="fill:none;stroke:#b0b0b0;stroke-linecap:square;stroke-width:0.8;"/>
     </g>
     <g id="line2d_8">
      <defs>
       <path d="M 0 0 
L -3.5 0 
" id="mf748a57ad9" style="stroke:#000000;stroke-width:0.8;"/>
      </defs>
      <g>
       <use style="stroke:#000000;stroke-width:0.8;" x="63.780625" xlink:href="#mf748a57ad9" y="418.143612"/>
      </g>
     </g>
     <g id="text_8">
      <!-- $\mathdefault{10^{3}}$ -->
      <g transform="translate(28.620625 424.222362)scale(0.16 -0.16)">
       <use transform="translate(0 0.765625)" xlink:href="#DejaVuSans-49"/>
       <use transform="translate(63.623047 0.765625)" xlink:href="#DejaVuSans-48"/>
       <use transform="translate(128.203125 39.046875)scale(0.7)" xlink:href="#DejaVuSans-51"/>
      </g>
     </g>
    </g>
    <g id="ytick_2">
     <g id="line2d_9">
      <path clip-path="url(#p96a05dbaf6)" d="M 63.780625 314.790514 
L 1402.980625 314.790514 
" style="fill:none;stroke:#b0b0b0;stroke-linecap:square;stroke-width:0.8;"/>
     </g>
     <g id="line2d_10">
      <g>
       <use style="stroke:#000000;stroke-width:0.8;" x="63.780625" xlink:href="#mf748a57ad9" y="314.790514"/>
      </g>
     </g>
     <g id="text_9">
      <!-- $\mathdefault{10^{5}}$ -->
      <g transform="translate(28.620625 320.869264)scale(0.16 -0.16)">
       <use transform="translate(0 0.684375)" xlink:href="#DejaVuSans-49"/>
       <use transform="translate(63.623047 0.684375)" xlink:href="#DejaVuSans-48"/>
       <use transform="translate(128.203125 38.965625)scale(0.7)" xlink:href="#DejaVuSans-53"/>
      </g>
     </g>
    </g>
    <g id="ytick_3">
     <g id="line2d_11">
      <path clip-path="url(#p96a05dbaf6)" d="M 63.780625 211.437415 
L 1402.980625 211.437415 
" style="fill:none;stroke:#b0b0b0;stroke-linecap:square;stroke-width:0.8;"/>
     </g>
     <g id="line2d_12">
      <g>
       <use style="stroke:#000000;stroke-width:0.8;" x="63.780625" xlink:href="#mf748a57ad9" y="211.437415"/>
      </g>
     </g>
     <g id="text_10">
      <!-- $\mathdefault{10^{7}}$ -->
      <defs>
       <path d="M 8.203125 72.90625 
L 55.078125 72.90625 
L 55.078125 68.703125 
L 28.609375 0 
L 18.3125 0 
L 43.21875 64.59375 
L 8.203125 64.59375 
z
" id="DejaVuSans-55"/>
      </defs>
      <g transform="translate(28.620625 217.516165)scale(0.16 -0.16)">
       <use transform="translate(0 0.684375)" xlink:href="#DejaVuSans-49"/>
       <use transform="translate(63.623047 0.684375)" xlink:href="#DejaVuSans-48"/>
       <use transform="translate(128.203125 38.965625)scale(0.7)" xlink:href="#DejaVuSans-55"/>
      </g>
     </g>
    </g>
    <g id="ytick_4">
     <g id="line2d_13">
      <path clip-path="url(#p96a05dbaf6)" d="M 63.780625 108.084317 
L 1402.980625 108.084317 
" style="fill:none;stroke:#b0b0b0;stroke-linecap:square;stroke-width:0.8;"/>
     </g>
     <g id="line2d_14">
      <g>
       <use style="stroke:#000000;stroke-width:0.8;" x="63.780625" xlink:href="#mf748a57ad9" y="108.084317"/>
      </g>
     </g>
     <g id="text_11">
      <!-- $\mathdefault{10^{9}}$ -->
      <defs>
       <path d="M 10.984375 1.515625 
L 10.984375 10.5 
Q 14.703125 8.734375 18.5 7.8125 
Q 22.3125 6.890625 25.984375 6.890625 
Q 35.75 6.890625 40.890625 13.453125 
Q 46.046875 20.015625 46.78125 33.40625 
Q 43.953125 29.203125 39.59375 26.953125 
Q 35.25 24.703125 29.984375 24.703125 
Q 19.046875 24.703125 12.671875 31.3125 
Q 6.296875 37.9375 6.296875 49.421875 
Q 6.296875 60.640625 12.9375 67.421875 
Q 19.578125 74.21875 30.609375 74.21875 
Q 43.265625 74.21875 49.921875 64.515625 
Q 56.59375 54.828125 56.59375 36.375 
Q 56.59375 19.140625 48.40625 8.859375 
Q 40.234375 -1.421875 26.421875 -1.421875 
Q 22.703125 -1.421875 18.890625 -0.6875 
Q 15.09375 0.046875 10.984375 1.515625 
z
M 30.609375 32.421875 
Q 37.25 32.421875 41.125 36.953125 
Q 45.015625 41.5 45.015625 49.421875 
Q 45.015625 57.28125 41.125 61.84375 
Q 37.25 66.40625 30.609375 66.40625 
Q 23.96875 66.40625 20.09375 61.84375 
Q 16.21875 57.28125 16.21875 49.421875 
Q 16.21875 41.5 20.09375 36.953125 
Q 23.96875 32.421875 30.609375 32.421875 
z
" id="DejaVuSans-57"/>
      </defs>
      <g transform="translate(28.620625 114.163067)scale(0.16 -0.16)">
       <use transform="translate(0 0.765625)" xlink:href="#DejaVuSans-49"/>
       <use transform="translate(63.623047 0.765625)" xlink:href="#DejaVuSans-48"/>
       <use transform="translate(128.203125 39.046875)scale(0.7)" xlink:href="#DejaVuSans-57"/>
      </g>
     </g>
    </g>
    <g id="text_12">
     <!-- Minimum Time (ns) -->
     <defs>
      <path d="M 9.8125 72.90625 
L 24.515625 72.90625 
L 43.109375 23.296875 
L 61.8125 72.90625 
L 76.515625 72.90625 
L 76.515625 0 
L 66.890625 0 
L 66.890625 64.015625 
L 48.09375 14.015625 
L 38.1875 14.015625 
L 19.390625 64.015625 
L 19.390625 0 
L 9.8125 0 
z
" id="DejaVuSans-77"/>
      <path d="M 54.890625 33.015625 
L 54.890625 0 
L 45.90625 0 
L 45.90625 32.71875 
Q 45.90625 40.484375 42.875 44.328125 
Q 39.84375 48.1875 33.796875 48.1875 
Q 26.515625 48.1875 22.3125 43.546875 
Q 18.109375 38.921875 18.109375 30.90625 
L 18.109375 0 
L 9.078125 0 
L 9.078125 54.6875 
L 18.109375 54.6875 
L 18.109375 46.1875 
Q 21.34375 51.125 25.703125 53.5625 
Q 30.078125 56 35.796875 56 
Q 45.21875 56 50.046875 50.171875 
Q 54.890625 44.34375 54.890625 33.015625 
z
" id="DejaVuSans-110"/>
      <path d="M 52 44.1875 
Q 55.375 50.25 60.0625 53.125 
Q 64.75 56 71.09375 56 
Q 79.640625 56 84.28125 50.015625 
Q 88.921875 44.046875 88.921875 33.015625 
L 88.921875 0 
L 79.890625 0 
L 79.890625 32.71875 
Q 79.890625 40.578125 77.09375 44.375 
Q 74.3125 48.1875 68.609375 48.1875 
Q 61.625 48.1875 57.5625 43.546875 
Q 53.515625 38.921875 53.515625 30.90625 
L 53.515625 0 
L 44.484375 0 
L 44.484375 32.71875 
Q 44.484375 40.625 41.703125 44.40625 
Q 38.921875 48.1875 33.109375 48.1875 
Q 26.21875 48.1875 22.15625 43.53125 
Q 18.109375 38.875 18.109375 30.90625 
L 18.109375 0 
L 9.078125 0 
L 9.078125 54.6875 
L 18.109375 54.6875 
L 18.109375 46.1875 
Q 21.1875 51.21875 25.484375 53.609375 
Q 29.78125 56 35.6875 56 
Q 41.65625 56 45.828125 52.96875 
Q 50 49.953125 52 44.1875 
z
" id="DejaVuSans-109"/>
      <path d="M 8.5 21.578125 
L 8.5 54.6875 
L 17.484375 54.6875 
L 17.484375 21.921875 
Q 17.484375 14.15625 20.5 10.265625 
Q 23.53125 6.390625 29.59375 6.390625 
Q 36.859375 6.390625 41.078125 11.03125 
Q 45.3125 15.671875 45.3125 23.6875 
L 45.3125 54.6875 
L 54.296875 54.6875 
L 54.296875 0 
L 45.3125 0 
L 45.3125 8.40625 
Q 42.046875 3.421875 37.71875 1 
Q 33.40625 -1.421875 27.6875 -1.421875 
Q 18.265625 -1.421875 13.375 4.4375 
Q 8.5 10.296875 8.5 21.578125 
z
M 31.109375 56 
z
" id="DejaVuSans-117"/>
      <path d="M -0.296875 72.90625 
L 61.375 72.90625 
L 61.375 64.59375 
L 35.5 64.59375 
L 35.5 0 
L 25.59375 0 
L 25.59375 64.59375 
L -0.296875 64.59375 
z
" id="DejaVuSans-84"/>
      <path d="M 31 75.875 
Q 24.46875 64.65625 21.28125 53.65625 
Q 18.109375 42.671875 18.109375 31.390625 
Q 18.109375 20.125 21.3125 9.0625 
Q 24.515625 -2 31 -13.1875 
L 23.1875 -13.1875 
Q 15.875 -1.703125 12.234375 9.375 
Q 8.59375 20.453125 8.59375 31.390625 
Q 8.59375 42.28125 12.203125 53.3125 
Q 15.828125 64.359375 23.1875 75.875 
z
" id="DejaVuSans-40"/>
      <path d="M 44.28125 53.078125 
L 44.28125 44.578125 
Q 40.484375 46.53125 36.375 47.5 
Q 32.28125 48.484375 27.875 48.484375 
Q 21.1875 48.484375 17.84375 46.4375 
Q 14.5 44.390625 14.5 40.28125 
Q 14.5 37.15625 16.890625 35.375 
Q 19.28125 33.59375 26.515625 31.984375 
L 29.59375 31.296875 
Q 39.15625 29.25 43.1875 25.515625 
Q 47.21875 21.78125 47.21875 15.09375 
Q 47.21875 7.46875 41.1875 3.015625 
Q 35.15625 -1.421875 24.609375 -1.421875 
Q 20.21875 -1.421875 15.453125 -0.5625 
Q 10.6875 0.296875 5.421875 2 
L 5.421875 11.28125 
Q 10.40625 8.6875 15.234375 7.390625 
Q 20.0625 6.109375 24.8125 6.109375 
Q 31.15625 6.109375 34.5625 8.28125 
Q 37.984375 10.453125 37.984375 14.40625 
Q 37.984375 18.0625 35.515625 20.015625 
Q 33.0625 21.96875 24.703125 23.78125 
L 21.578125 24.515625 
Q 13.234375 26.265625 9.515625 29.90625 
Q 5.8125 33.546875 5.8125 39.890625 
Q 5.8125 47.609375 11.28125 51.796875 
Q 16.75 56 26.8125 56 
Q 31.78125 56 36.171875 55.265625 
Q 40.578125 54.546875 44.28125 53.078125 
z
" id="DejaVuSans-115"/>
      <path d="M 8.015625 75.875 
L 15.828125 75.875 
Q 23.140625 64.359375 26.78125 53.3125 
Q 30.421875 42.28125 30.421875 31.390625 
Q 30.421875 20.453125 26.78125 9.375 
Q 23.140625 -1.703125 15.828125 -13.1875 
L 8.015625 -13.1875 
Q 14.5 -2 17.703125 9.0625 
Q 20.90625 20.125 20.90625 31.390625 
Q 20.90625 42.671875 17.703125 53.65625 
Q 14.5 64.65625 8.015625 75.875 
z
" id="DejaVuSans-41"/>
     </defs>
     <g transform="translate(20.877188 343.819687)rotate(-90)scale(0.18 -0.18)">
      <use xlink:href="#DejaVuSans-77"/>
      <use x="86.279297" xlink:href="#DejaVuSans-105"/>
      <use x="114.0625" xlink:href="#DejaVuSans-110"/>
      <use x="177.441406" xlink:href="#DejaVuSans-105"/>
      <use x="205.224609" xlink:href="#DejaVuSans-109"/>
      <use x="302.636719" xlink:href="#DejaVuSans-117"/>
      <use x="366.015625" xlink:href="#DejaVuSans-109"/>
      <use x="463.427734" xlink:href="#DejaVuSans-32"/>
      <use x="495.214844" xlink:href="#DejaVuSans-84"/>
      <use x="556.251953" xlink:href="#DejaVuSans-105"/>
      <use x="584.035156" xlink:href="#DejaVuSans-109"/>
      <use x="681.447266" xlink:href="#DejaVuSans-101"/>
      <use x="742.970703" xlink:href="#DejaVuSans-32"/>
      <use x="774.757812" xlink:href="#DejaVuSans-40"/>
      <use x="813.771484" xlink:href="#DejaVuSans-110"/>
      <use x="877.150391" xlink:href="#DejaVuSans-115"/>
      <use x="929.25" xlink:href="#DejaVuSans-41"/>
     </g>
    </g>
   </g>
   <g id="line2d_15">
    <path clip-path="url(#p96a05dbaf6)" d="M 124.653352 459.210974 
L 200.744261 368.662523 
L 276.83517 298.292125 
L 352.92608 252.504777 
L 429.016989 217.482011 
L 505.107898 188.004305 
L 581.198807 160.293132 
L 657.289716 139.1967 
L 733.380625 119.7837 
L 809.471534 103.934134 
L 885.562443 90.677855 
L 961.653352 78.608169 
L 1037.744261 67.755559 
L 1113.83517 57.856195 
L 1189.92608 48.881437 
L 1266.016989 40.60744 
L 1342.107898 32.272088 
" style="fill:none;stroke:#ea0909;stroke-linecap:square;stroke-width:1.5;"/>
    <defs>
     <path d="M -3 3 
L 3 -3 
M -3 -3 
L 3 3 
" id="mc2bd17598f" style="stroke:#ea0909;"/>
    </defs>
    <g clip-path="url(#p96a05dbaf6)">
     <use style="fill:#ea0909;stroke:#ea0909;" x="124.653352" xlink:href="#mc2bd17598f" y="459.210974"/>
     <use style="fill:#ea0909;stroke:#ea0909;" x="200.744261" xlink:href="#mc2bd17598f" y="368.662523"/>
     <use style="fill:#ea0909;stroke:#ea0909;" x="276.83517" xlink:href="#mc2bd17598f" y="298.292125"/>
     <use style="fill:#ea0909;stroke:#ea0909;" x="352.92608" xlink:href="#mc2bd17598f" y="252.504777"/>
     <use style="fill:#ea0909;stroke:#ea0909;" x="429.016989" xlink:href="#mc2bd17598f" y="217.482011"/>
     <use style="fill:#ea0909;stroke:#ea0909;" x="505.107898" xlink:href="#mc2bd17598f" y="188.004305"/>
     <use style="fill:#ea0909;stroke:#ea0909;" x="581.198807" xlink:href="#mc2bd17598f" y="160.293132"/>
     <use style="fill:#ea0909;stroke:#ea0909;" x="657.289716" xlink:href="#mc2bd17598f" y="139.1967"/>
     <use style="fill:#ea0909;stroke:#ea0909;" x="733.380625" xlink:href="#mc2bd17598f" y="119.7837"/>
     <use style="fill:#ea0909;stroke:#ea0909;" x="809.471534" xlink:href="#mc2bd17598f" y="103.934134"/>
     <use style="fill:#ea0909;stroke:#ea0909;" x="885.562443" xlink:href="#mc2bd17598f" y="90.677855"/>
     <use style="fill:#ea0909;stroke:#ea0909;" x="961.653352" xlink:href="#mc2bd17598f" y="78.608169"/>
     <use style="fill:#ea0909;stroke:#ea0909;" x="1037.744261" xlink:href="#mc2bd17598f" y="67.755559"/>
     <use style="fill:#ea0909;stroke:#ea0909;" x="1113.83517" xlink:href="#mc2bd17598f" y="57.856195"/>
     <use style="fill:#ea0909;stroke:#ea0909;" x="1189.92608" xlink:href="#mc2bd17598f" y="48.881437"/>
     <use style="fill:#ea0909;stroke:#ea0909;" x="1266.016989" xlink:href="#mc2bd17598f" y="40.60744"/>
     <use style="fill:#ea0909;stroke:#ea0909;" x="1342.107898" xlink:href="#mc2bd17598f" y="32.272088"/>
    </g>
   </g>
   <g id="line2d_16">
    <path clip-path="url(#p96a05dbaf6)" d="M 124.653352 468.359606 
L 200.744261 441.339045 
L 276.83517 417.580889 
L 352.92608 397.579446 
L 429.016989 380.709864 
L 505.107898 366.366894 
L 581.198807 350.967601 
L 657.289716 339.346526 
L 733.380625 329.331577 
L 809.471534 321.779183 
L 885.562443 314.688542 
L 961.653352 309.189301 
L 1037.744261 304.079952 
L 1113.83517 299.173351 
L 1189.92608 295.076528 
L 1266.016989 290.6668 
L 1342.107898 286.753815 
" style="fill:none;stroke:#9a0707;stroke-linecap:square;stroke-width:1.5;"/>
    <defs>
     <path d="M -3 3 
L 3 -3 
M -3 -3 
L 3 3 
" id="m8894ba12ed" style="stroke:#9a0707;"/>
    </defs>
    <g clip-path="url(#p96a05dbaf6)">
     <use style="fill:#9a0707;stroke:#9a0707;" x="124.653352" xlink:href="#m8894ba12ed" y="468.359606"/>
     <use style="fill:#9a0707;stroke:#9a0707;" x="200.744261" xlink:href="#m8894ba12ed" y="441.339045"/>
     <use style="fill:#9a0707;stroke:#9a0707;" x="276.83517" xlink:href="#m8894ba12ed" y="417.580889"/>
     <use style="fill:#9a0707;stroke:#9a0707;" x="352.92608" xlink:href="#m8894ba12ed" y="397.579446"/>
     <use style="fill:#9a0707;stroke:#9a0707;" x="429.016989" xlink:href="#m8894ba12ed" y="380.709864"/>
     <use style="fill:#9a0707;stroke:#9a0707;" x="505.107898" xlink:href="#m8894ba12ed" y="366.366894"/>
     <use style="fill:#9a0707;stroke:#9a0707;" x="581.198807" xlink:href="#m8894ba12ed" y="350.967601"/>
     <use style="fill:#9a0707;stroke:#9a0707;" x="657.289716" xlink:href="#m8894ba12ed" y="339.346526"/>
     <use style="fill:#9a0707;stroke:#9a0707;" x="733.380625" xlink:href="#m8894ba12ed" y="329.331577"/>
     <use style="fill:#9a0707;stroke:#9a0707;" x="809.471534" xlink:href="#m8894ba12ed" y="321.779183"/>
     <use style="fill:#9a0707;stroke:#9a0707;" x="885.562443" xlink:href="#m8894ba12ed" y="314.688542"/>
     <use style="fill:#9a0707;stroke:#9a0707;" x="961.653352" xlink:href="#m8894ba12ed" y="309.189301"/>
     <use style="fill:#9a0707;stroke:#9a0707;" x="1037.744261" xlink:href="#m8894ba12ed" y="304.079952"/>
     <use style="fill:#9a0707;stroke:#9a0707;" x="1113.83517" xlink:href="#m8894ba12ed" y="299.173351"/>
     <use style="fill:#9a0707;stroke:#9a0707;" x="1189.92608" xlink:href="#m8894ba12ed" y="295.076528"/>
     <use style="fill:#9a0707;stroke:#9a0707;" x="1266.016989" xlink:href="#m8894ba12ed" y="290.6668"/>
     <use style="fill:#9a0707;stroke:#9a0707;" x="1342.107898" xlink:href="#m8894ba12ed" y="286.753815"/>
    </g>
   </g>
   <g id="line2d_17">
    <path clip-path="url(#p96a05dbaf6)" d="M 124.653352 477.90382 
L 200.744261 370.458908 
L 276.83517 296.769765 
L 352.92608 248.453004 
L 429.016989 213.088947 
L 505.107898 182.99633 
L 581.198807 156.705674 
L 657.289716 136.553314 
L 733.380625 118.078361 
L 809.471534 102.52217 
L 885.562443 89.575178 
L 961.653352 77.236489 
L 1037.744261 66.456617 
L 1113.83517 56.163632 
L 1189.92608 47.006105 
L 1266.016989 38.114873 
L 1342.107898 29.88 
" style="fill:none;stroke:#8fa4c3;stroke-linecap:square;stroke-width:1.5;"/>
    <defs>
     <path d="M -3 3 
L 3 -3 
M -3 -3 
L 3 3 
" id="md387a7f594" style="stroke:#8fa4c3;"/>
    </defs>
    <g clip-path="url(#p96a05dbaf6)">
     <use style="fill:#8fa4c3;stroke:#8fa4c3;" x="124.653352" xlink:href="#md387a7f594" y="477.90382"/>
     <use style="fill:#8fa4c3;stroke:#8fa4c3;" x="200.744261" xlink:href="#md387a7f594" y="370.458908"/>
     <use style="fill:#8fa4c3;stroke:#8fa4c3;" x="276.83517" xlink:href="#md387a7f594" y="296.769765"/>
     <use style="fill:#8fa4c3;stroke:#8fa4c3;" x="352.92608" xlink:href="#md387a7f594" y="248.453004"/>
     <use style="fill:#8fa4c3;stroke:#8fa4c3;" x="429.016989" xlink:href="#md387a7f594" y="213.088947"/>
     <use style="fill:#8fa4c3;stroke:#8fa4c3;" x="505.107898" xlink:href="#md387a7f594" y="182.99633"/>
     <use style="fill:#8fa4c3;stroke:#8fa4c3;" x="581.198807" xlink:href="#md387a7f594" y="156.705674"/>
     <use style="fill:#8fa4c3;stroke:#8fa4c3;" x="657.289716" xlink:href="#md387a7f594" y="136.553314"/>
     <use style="fill:#8fa4c3;stroke:#8fa4c3;" x="733.380625" xlink:href="#md387a7f594" y="118.078361"/>
     <use style="fill:#8fa4c3;stroke:#8fa4c3;" x="809.471534" xlink:href="#md387a7f594" y="102.52217"/>
     <use style="fill:#8fa4c3;stroke:#8fa4c3;" x="885.562443" xlink:href="#md387a7f594" y="89.575178"/>
     <use style="fill:#8fa4c3;stroke:#8fa4c3;" x="961.653352" xlink:href="#md387a7f594" y="77.236489"/>
     <use style="fill:#8fa4c3;stroke:#8fa4c3;" x="1037.744261" xlink:href="#md387a7f594" y="66.456617"/>
     <use style="fill:#8fa4c3;stroke:#8fa4c3;" x="1113.83517" xlink:href="#md387a7f594" y="56.163632"/>
     <use style="fill:#8fa4c3;stroke:#8fa4c3;" x="1189.92608" xlink:href="#md387a7f594" y="47.006105"/>
     <use style="fill:#8fa4c3;stroke:#8fa4c3;" x="1266.016989" xlink:href="#md387a7f594" y="38.114873"/>
     <use style="fill:#8fa4c3;stroke:#8fa4c3;" x="1342.107898" xlink:href="#md387a7f594" y="29.88"/>
    </g>
   </g>
   <g id="line2d_18">
    <path clip-path="url(#p96a05dbaf6)" d="M 124.653352 483.48 
L 200.744261 447.942605 
L 276.83517 417.580889 
L 352.92608 395.114888 
L 429.016989 378.463707 
L 505.107898 362.907516 
L 581.198807 349.894742 
L 657.289716 338.430364 
L 733.380625 329.033315 
L 809.471534 320.735142 
L 885.562443 314.22779 
L 961.653352 308.234143 
L 1037.744261 303.035911 
L 1113.83517 297.627558 
L 1189.92608 294.226347 
L 1266.016989 288.625135 
L 1342.107898 285.026591 
" style="fill:none;stroke:#283347;stroke-linecap:square;stroke-width:1.5;"/>
    <defs>
     <path d="M -3 3 
L 3 -3 
M -3 -3 
L 3 3 
" id="m66f3ab6d1d" style="stroke:#283347;"/>
    </defs>
    <g clip-path="url(#p96a05dbaf6)">
     <use style="fill:#283347;stroke:#283347;" x="124.653352" xlink:href="#m66f3ab6d1d" y="483.48"/>
     <use style="fill:#283347;stroke:#283347;" x="200.744261" xlink:href="#m66f3ab6d1d" y="447.942605"/>
     <use style="fill:#283347;stroke:#283347;" x="276.83517" xlink:href="#m66f3ab6d1d" y="417.580889"/>
     <use style="fill:#283347;stroke:#283347;" x="352.92608" xlink:href="#m66f3ab6d1d" y="395.114888"/>
     <use style="fill:#283347;stroke:#283347;" x="429.016989" xlink:href="#m66f3ab6d1d" y="378.463707"/>
     <use style="fill:#283347;stroke:#283347;" x="505.107898" xlink:href="#m66f3ab6d1d" y="362.907516"/>
     <use style="fill:#283347;stroke:#283347;" x="581.198807" xlink:href="#m66f3ab6d1d" y="349.894742"/>
     <use style="fill:#283347;stroke:#283347;" x="657.289716" xlink:href="#m66f3ab6d1d" y="338.430364"/>
     <use style="fill:#283347;stroke:#283347;" x="733.380625" xlink:href="#m66f3ab6d1d" y="329.033315"/>
     <use style="fill:#283347;stroke:#283347;" x="809.471534" xlink:href="#m66f3ab6d1d" y="320.735142"/>
     <use style="fill:#283347;stroke:#283347;" x="885.562443" xlink:href="#m66f3ab6d1d" y="314.22779"/>
     <use style="fill:#283347;stroke:#283347;" x="961.653352" xlink:href="#m66f3ab6d1d" y="308.234143"/>
     <use style="fill:#283347;stroke:#283347;" x="1037.744261" xlink:href="#m66f3ab6d1d" y="303.035911"/>
     <use style="fill:#283347;stroke:#283347;" x="1113.83517" xlink:href="#m66f3ab6d1d" y="297.627558"/>
     <use style="fill:#283347;stroke:#283347;" x="1189.92608" xlink:href="#m66f3ab6d1d" y="294.226347"/>
     <use style="fill:#283347;stroke:#283347;" x="1266.016989" xlink:href="#m66f3ab6d1d" y="288.625135"/>
     <use style="fill:#283347;stroke:#283347;" x="1342.107898" xlink:href="#m66f3ab6d1d" y="285.026591"/>
    </g>
   </g>
   <g id="patch_3">
    <path d="M 63.780625 506.16 
L 63.780625 7.2 
" style="fill:none;stroke:#000000;stroke-linecap:square;stroke-linejoin:miter;stroke-width:0.8;"/>
   </g>
   <g id="patch_4">
    <path d="M 1402.980625 506.16 
L 1402.980625 7.2 
" style="fill:none;stroke:#000000;stroke-linecap:square;stroke-linejoin:miter;stroke-width:0.8;"/>
   </g>
   <g id="patch_5">
    <path d="M 63.780625 506.16 
L 1402.980625 506.16 
" style="fill:none;stroke:#000000;stroke-linecap:square;stroke-linejoin:miter;stroke-width:0.8;"/>
   </g>
   <g id="patch_6">
    <path d="M 63.780625 7.2 
L 1402.980625 7.2 
" style="fill:none;stroke:#000000;stroke-linecap:square;stroke-linejoin:miter;stroke-width:0.8;"/>
   </g>
   <g id="legend_1">
    <g id="patch_7">
     <path d="M 72.180625 87.255 
L 296.794375 87.255 
Q 299.194375 87.255 299.194375 84.855 
L 299.194375 15.6 
Q 299.194375 13.2 296.794375 13.2 
L 72.180625 13.2 
Q 69.780625 13.2 69.780625 15.6 
L 69.780625 84.855 
Q 69.780625 87.255 72.180625 87.255 
z
" style="fill:#ffffff;opacity:0.8;stroke:#cccccc;stroke-linejoin:miter;"/>
    </g>
    <g id="line2d_19">
     <path d="M 74.580625 22.918125 
L 98.580625 22.918125 
" style="fill:none;stroke:#ea0909;stroke-linecap:square;stroke-width:1.5;"/>
    </g>
    <g id="line2d_20">
     <g>
      <use style="fill:#ea0909;stroke:#ea0909;" x="86.580625" xlink:href="#mc2bd17598f" y="22.918125"/>
     </g>
    </g>
    <g id="text_13">
     <!-- xarray, input / amax(input) -->
     <defs>
      <path d="M 54.890625 54.6875 
L 35.109375 28.078125 
L 55.90625 0 
L 45.3125 0 
L 29.390625 21.484375 
L 13.484375 0 
L 2.875 0 
L 24.125 28.609375 
L 4.6875 54.6875 
L 15.28125 54.6875 
L 29.78125 35.203125 
L 44.28125 54.6875 
z
" id="DejaVuSans-120"/>
      <path d="M 34.28125 27.484375 
Q 23.390625 27.484375 19.1875 25 
Q 14.984375 22.515625 14.984375 16.5 
Q 14.984375 11.71875 18.140625 8.90625 
Q 21.296875 6.109375 26.703125 6.109375 
Q 34.1875 6.109375 38.703125 11.40625 
Q 43.21875 16.703125 43.21875 25.484375 
L 43.21875 27.484375 
z
M 52.203125 31.203125 
L 52.203125 0 
L 43.21875 0 
L 43.21875 8.296875 
Q 40.140625 3.328125 35.546875 0.953125 
Q 30.953125 -1.421875 24.3125 -1.421875 
Q 15.921875 -1.421875 10.953125 3.296875 
Q 6 8.015625 6 15.921875 
Q 6 25.140625 12.171875 29.828125 
Q 18.359375 34.515625 30.609375 34.515625 
L 43.21875 34.515625 
L 43.21875 35.40625 
Q 43.21875 41.609375 39.140625 45 
Q 35.0625 48.390625 27.6875 48.390625 
Q 23 48.390625 18.546875 47.265625 
Q 14.109375 46.140625 10.015625 43.890625 
L 10.015625 52.203125 
Q 14.9375 54.109375 19.578125 55.046875 
Q 24.21875 56 28.609375 56 
Q 40.484375 56 46.34375 49.84375 
Q 52.203125 43.703125 52.203125 31.203125 
z
" id="DejaVuSans-97"/>
      <path d="M 41.109375 46.296875 
Q 39.59375 47.171875 37.8125 47.578125 
Q 36.03125 48 33.890625 48 
Q 26.265625 48 22.1875 43.046875 
Q 18.109375 38.09375 18.109375 28.8125 
L 18.109375 0 
L 9.078125 0 
L 9.078125 54.6875 
L 18.109375 54.6875 
L 18.109375 46.1875 
Q 20.953125 51.171875 25.484375 53.578125 
Q 30.03125 56 36.53125 56 
Q 37.453125 56 38.578125 55.875 
Q 39.703125 55.765625 41.0625 55.515625 
z
" id="DejaVuSans-114"/>
      <path d="M 32.171875 -5.078125 
Q 28.375 -14.84375 24.75 -17.8125 
Q 21.140625 -20.796875 15.09375 -20.796875 
L 7.90625 -20.796875 
L 7.90625 -13.28125 
L 13.1875 -13.28125 
Q 16.890625 -13.28125 18.9375 -11.515625 
Q 21 -9.765625 23.484375 -3.21875 
L 25.09375 0.875 
L 2.984375 54.6875 
L 12.5 54.6875 
L 29.59375 11.921875 
L 46.6875 54.6875 
L 56.203125 54.6875 
z
" id="DejaVuSans-121"/>
      <path d="M 11.71875 12.40625 
L 22.015625 12.40625 
L 22.015625 4 
L 14.015625 -11.625 
L 7.71875 -11.625 
L 11.71875 4 
z
" id="DejaVuSans-44"/>
      <path d="M 18.109375 8.203125 
L 18.109375 -20.796875 
L 9.078125 -20.796875 
L 9.078125 54.6875 
L 18.109375 54.6875 
L 18.109375 46.390625 
Q 20.953125 51.265625 25.265625 53.625 
Q 29.59375 56 35.59375 56 
Q 45.5625 56 51.78125 48.09375 
Q 58.015625 40.1875 58.015625 27.296875 
Q 58.015625 14.40625 51.78125 6.484375 
Q 45.5625 -1.421875 35.59375 -1.421875 
Q 29.59375 -1.421875 25.265625 0.953125 
Q 20.953125 3.328125 18.109375 8.203125 
z
M 48.6875 27.296875 
Q 48.6875 37.203125 44.609375 42.84375 
Q 40.53125 48.484375 33.40625 48.484375 
Q 26.265625 48.484375 22.1875 42.84375 
Q 18.109375 37.203125 18.109375 27.296875 
Q 18.109375 17.390625 22.1875 11.75 
Q 26.265625 6.109375 33.40625 6.109375 
Q 40.53125 6.109375 44.609375 11.75 
Q 48.6875 17.390625 48.6875 27.296875 
z
" id="DejaVuSans-112"/>
      <path d="M 18.3125 70.21875 
L 18.3125 54.6875 
L 36.8125 54.6875 
L 36.8125 47.703125 
L 18.3125 47.703125 
L 18.3125 18.015625 
Q 18.3125 11.328125 20.140625 9.421875 
Q 21.96875 7.515625 27.59375 7.515625 
L 36.8125 7.515625 
L 36.8125 0 
L 27.59375 0 
Q 17.1875 0 13.234375 3.875 
Q 9.28125 7.765625 9.28125 18.015625 
L 9.28125 47.703125 
L 2.6875 47.703125 
L 2.6875 54.6875 
L 9.28125 54.6875 
L 9.28125 70.21875 
z
" id="DejaVuSans-116"/>
      <path d="M 25.390625 72.90625 
L 33.6875 72.90625 
L 8.296875 -9.28125 
L 0 -9.28125 
z
" id="DejaVuSans-47"/>
     </defs>
     <g transform="translate(108.180625 27.118125)scale(0.12 -0.12)">
      <use xlink:href="#DejaVuSans-120"/>
      <use x="59.179688" xlink:href="#DejaVuSans-97"/>
      <use x="120.458984" xlink:href="#DejaVuSans-114"/>
      <use x="161.556641" xlink:href="#DejaVuSans-114"/>
      <use x="202.669922" xlink:href="#DejaVuSans-97"/>
      <use x="263.949219" xlink:href="#DejaVuSans-121"/>
      <use x="323.128906" xlink:href="#DejaVuSans-44"/>
      <use x="354.916016" xlink:href="#DejaVuSans-32"/>
      <use x="386.703125" xlink:href="#DejaVuSans-105"/>
      <use x="414.486328" xlink:href="#DejaVuSans-110"/>
      <use x="477.865234" xlink:href="#DejaVuSans-112"/>
      <use x="541.341797" xlink:href="#DejaVuSans-117"/>
      <use x="604.720703" xlink:href="#DejaVuSans-116"/>
      <use x="643.929688" xlink:href="#DejaVuSans-32"/>
      <use x="675.716797" xlink:href="#DejaVuSans-47"/>
      <use x="709.408203" xlink:href="#DejaVuSans-32"/>
      <use x="741.195312" xlink:href="#DejaVuSans-97"/>
      <use x="802.474609" xlink:href="#DejaVuSans-109"/>
      <use x="899.886719" xlink:href="#DejaVuSans-97"/>
      <use x="961.166016" xlink:href="#DejaVuSans-120"/>
      <use x="1020.345703" xlink:href="#DejaVuSans-40"/>
      <use x="1059.359375" xlink:href="#DejaVuSans-105"/>
      <use x="1087.142578" xlink:href="#DejaVuSans-110"/>
      <use x="1150.521484" xlink:href="#DejaVuSans-112"/>
      <use x="1213.998047" xlink:href="#DejaVuSans-117"/>
      <use x="1277.376953" xlink:href="#DejaVuSans-116"/>
      <use x="1316.585938" xlink:href="#DejaVuSans-41"/>
     </g>
    </g>
    <g id="line2d_21">
     <path d="M 74.580625 40.531875 
L 98.580625 40.531875 
" style="fill:none;stroke:#9a0707;stroke-linecap:square;stroke-width:1.5;"/>
    </g>
    <g id="line2d_22">
     <g>
      <use style="fill:#9a0707;stroke:#9a0707;" x="86.580625" xlink:href="#m8894ba12ed" y="40.531875"/>
     </g>
    </g>
    <g id="text_14">
     <!-- xarray, input / amax(input)[0] -->
     <defs>
      <path d="M 8.59375 75.984375 
L 29.296875 75.984375 
L 29.296875 69 
L 17.578125 69 
L 17.578125 -6.203125 
L 29.296875 -6.203125 
L 29.296875 -13.1875 
L 8.59375 -13.1875 
z
" id="DejaVuSans-91"/>
      <path d="M 30.421875 75.984375 
L 30.421875 -13.1875 
L 9.71875 -13.1875 
L 9.71875 -6.203125 
L 21.390625 -6.203125 
L 21.390625 69 
L 9.71875 69 
L 9.71875 75.984375 
z
" id="DejaVuSans-93"/>
     </defs>
     <g transform="translate(108.180625 44.731875)scale(0.12 -0.12)">
      <use xlink:href="#DejaVuSans-120"/>
      <use x="59.179688" xlink:href="#DejaVuSans-97"/>
      <use x="120.458984" xlink:href="#DejaVuSans-114"/>
      <use x="161.556641" xlink:href="#DejaVuSans-114"/>
      <use x="202.669922" xlink:href="#DejaVuSans-97"/>
      <use x="263.949219" xlink:href="#DejaVuSans-121"/>
      <use x="323.128906" xlink:href="#DejaVuSans-44"/>
      <use x="354.916016" xlink:href="#DejaVuSans-32"/>
      <use x="386.703125" xlink:href="#DejaVuSans-105"/>
      <use x="414.486328" xlink:href="#DejaVuSans-110"/>
      <use x="477.865234" xlink:href="#DejaVuSans-112"/>
      <use x="541.341797" xlink:href="#DejaVuSans-117"/>
      <use x="604.720703" xlink:href="#DejaVuSans-116"/>
      <use x="643.929688" xlink:href="#DejaVuSans-32"/>
      <use x="675.716797" xlink:href="#DejaVuSans-47"/>
      <use x="709.408203" xlink:href="#DejaVuSans-32"/>
      <use x="741.195312" xlink:href="#DejaVuSans-97"/>
      <use x="802.474609" xlink:href="#DejaVuSans-109"/>
      <use x="899.886719" xlink:href="#DejaVuSans-97"/>
      <use x="961.166016" xlink:href="#DejaVuSans-120"/>
      <use x="1020.345703" xlink:href="#DejaVuSans-40"/>
      <use x="1059.359375" xlink:href="#DejaVuSans-105"/>
      <use x="1087.142578" xlink:href="#DejaVuSans-110"/>
      <use x="1150.521484" xlink:href="#DejaVuSans-112"/>
      <use x="1213.998047" xlink:href="#DejaVuSans-117"/>
      <use x="1277.376953" xlink:href="#DejaVuSans-116"/>
      <use x="1316.585938" xlink:href="#DejaVuSans-41"/>
      <use x="1355.599609" xlink:href="#DejaVuSans-91"/>
      <use x="1394.613281" xlink:href="#DejaVuSans-48"/>
      <use x="1458.236328" xlink:href="#DejaVuSans-93"/>
     </g>
    </g>
    <g id="line2d_23">
     <path d="M 74.580625 58.145625 
L 98.580625 58.145625 
" style="fill:none;stroke:#8fa4c3;stroke-linecap:square;stroke-width:1.5;"/>
    </g>
    <g id="line2d_24">
     <g>
      <use style="fill:#8fa4c3;stroke:#8fa4c3;" x="86.580625" xlink:href="#md387a7f594" y="58.145625"/>
     </g>
    </g>
    <g id="text_15">
     <!-- xtensor, input / amax(input) -->
     <defs>
      <path d="M 30.609375 48.390625 
Q 23.390625 48.390625 19.1875 42.75 
Q 14.984375 37.109375 14.984375 27.296875 
Q 14.984375 17.484375 19.15625 11.84375 
Q 23.34375 6.203125 30.609375 6.203125 
Q 37.796875 6.203125 41.984375 11.859375 
Q 46.1875 17.53125 46.1875 27.296875 
Q 46.1875 37.015625 41.984375 42.703125 
Q 37.796875 48.390625 30.609375 48.390625 
z
M 30.609375 56 
Q 42.328125 56 49.015625 48.375 
Q 55.71875 40.765625 55.71875 27.296875 
Q 55.71875 13.875 49.015625 6.21875 
Q 42.328125 -1.421875 30.609375 -1.421875 
Q 18.84375 -1.421875 12.171875 6.21875 
Q 5.515625 13.875 5.515625 27.296875 
Q 5.515625 40.765625 12.171875 48.375 
Q 18.84375 56 30.609375 56 
z
" id="DejaVuSans-111"/>
     </defs>
     <g transform="translate(108.180625 62.345625)scale(0.12 -0.12)">
      <use xlink:href="#DejaVuSans-120"/>
      <use x="59.179688" xlink:href="#DejaVuSans-116"/>
      <use x="98.388672" xlink:href="#DejaVuSans-101"/>
      <use x="159.912109" xlink:href="#DejaVuSans-110"/>
      <use x="223.291016" xlink:href="#DejaVuSans-115"/>
      <use x="275.390625" xlink:href="#DejaVuSans-111"/>
      <use x="336.572266" xlink:href="#DejaVuSans-114"/>
      <use x="377.685547" xlink:href="#DejaVuSans-44"/>
      <use x="409.472656" xlink:href="#DejaVuSans-32"/>
      <use x="441.259766" xlink:href="#DejaVuSans-105"/>
      <use x="469.042969" xlink:href="#DejaVuSans-110"/>
      <use x="532.421875" xlink:href="#DejaVuSans-112"/>
      <use x="595.898438" xlink:href="#DejaVuSans-117"/>
      <use x="659.277344" xlink:href="#DejaVuSans-116"/>
      <use x="698.486328" xlink:href="#DejaVuSans-32"/>
      <use x="730.273438" xlink:href="#DejaVuSans-47"/>
      <use x="763.964844" xlink:href="#DejaVuSans-32"/>
      <use x="795.751953" xlink:href="#DejaVuSans-97"/>
      <use x="857.03125" xlink:href="#DejaVuSans-109"/>
      <use x="954.443359" xlink:href="#DejaVuSans-97"/>
      <use x="1015.722656" xlink:href="#DejaVuSans-120"/>
      <use x="1074.902344" xlink:href="#DejaVuSans-40"/>
      <use x="1113.916016" xlink:href="#DejaVuSans-105"/>
      <use x="1141.699219" xlink:href="#DejaVuSans-110"/>
      <use x="1205.078125" xlink:href="#DejaVuSans-112"/>
      <use x="1268.554688" xlink:href="#DejaVuSans-117"/>
      <use x="1331.933594" xlink:href="#DejaVuSans-116"/>
      <use x="1371.142578" xlink:href="#DejaVuSans-41"/>
     </g>
    </g>
    <g id="line2d_25">
     <path d="M 74.580625 75.759375 
L 98.580625 75.759375 
" style="fill:none;stroke:#283347;stroke-linecap:square;stroke-width:1.5;"/>
    </g>
    <g id="line2d_26">
     <g>
      <use style="fill:#283347;stroke:#283347;" x="86.580625" xlink:href="#m66f3ab6d1d" y="75.759375"/>
     </g>
    </g>
    <g id="text_16">
     <!-- xtensor, input / amax(input)[0] -->
     <g transform="translate(108.180625 79.959375)scale(0.12 -0.12)">
      <use xlink:href="#DejaVuSans-120"/>
      <use x="59.179688" xlink:href="#DejaVuSans-116"/>
      <use x="98.388672" xlink:href="#DejaVuSans-101"/>
      <use x="159.912109" xlink:href="#DejaVuSans-110"/>
      <use x="223.291016" xlink:href="#DejaVuSans-115"/>
      <use x="275.390625" xlink:href="#DejaVuSans-111"/>
      <use x="336.572266" xlink:href="#DejaVuSans-114"/>
      <use x="377.685547" xlink:href="#DejaVuSans-44"/>
      <use x="409.472656" xlink:href="#DejaVuSans-32"/>
      <use x="441.259766" xlink:href="#DejaVuSans-105"/>
      <use x="469.042969" xlink:href="#DejaVuSans-110"/>
      <use x="532.421875" xlink:href="#DejaVuSans-112"/>
      <use x="595.898438" xlink:href="#DejaVuSans-117"/>
      <use x="659.277344" xlink:href="#DejaVuSans-116"/>
      <use x="698.486328" xlink:href="#DejaVuSans-32"/>
      <use x="730.273438" xlink:href="#DejaVuSans-47"/>
      <use x="763.964844" xlink:href="#DejaVuSans-32"/>
      <use x="795.751953" xlink:href="#DejaVuSans-97"/>
      <use x="857.03125" xlink:href="#DejaVuSans-109"/>
      <use x="954.443359" xlink:href="#DejaVuSans-97"/>
      <use x="1015.722656" xlink:href="#DejaVuSans-120"/>
      <use x="1074.902344" xlink:href="#DejaVuSans-40"/>
      <use x="1113.916016" xlink:href="#DejaVuSans-105"/>
      <use x="1141.699219" xlink:href="#DejaVuSans-110"/>
      <use x="1205.078125" xlink:href="#DejaVuSans-112"/>
      <use x="1268.554688" xlink:href="#DejaVuSans-117"/>
      <use x="1331.933594" xlink:href="#DejaVuSans-116"/>
      <use x="1371.142578" xlink:href="#DejaVuSans-41"/>
      <use x="1410.15625" xlink:href="#DejaVuSans-91"/>
      <use x="1449.169922" xlink:href="#DejaVuSans-48"/>
      <use x="1512.792969" xlink:href="#DejaVuSans-93"/>
     </g>
    </g>
   </g>
  </g>
 </g>
 <defs>
  <clipPath id="p96a05dbaf6">
   <rect height="498.96" width="1339.2" x="63.780625" y="7.2"/>
  </clipPath>
 </defs>
</svg>
