<?xml version="1.0" encoding="utf-8" standalone="no"?>
<!DOCTYPE svg PUBLIC "-//W3C//DTD SVG 1.1//EN"
  "http://www.w3.org/Graphics/SVG/1.1/DTD/svg11.dtd">
<!-- Created with matplotlib (https://matplotlib.org/) -->
<svg height="553.394375pt" version="1.1" viewBox="0 0 1402.380625 553.394375" width="1402.380625pt" xmlns="http://www.w3.org/2000/svg" xmlns:xlink="http://www.w3.org/1999/xlink">
 <defs>
  <style type="text/css">
*{stroke-linecap:butt;stroke-linejoin:round;}
  </style>
 </defs>
 <g id="figure_1">
  <g id="patch_1">
   <path d="M 0 553.394375 
L 1402.380625 553.394375 
L 1402.380625 0 
L 0 0 
z
" style="fill:#ffffff;"/>
  </g>
  <g id="axes_1">
   <g id="patch_2">
    <path d="M 55.980625 506.16 
L 1395.180625 506.16 
L 1395.180625 7.2 
L 55.980625 7.2 
z
" style="fill:#ffffff;"/>
   </g>
   <g id="matplotlib.axis_1">
    <g id="xtick_1">
     <g id="line2d_1">
      <defs>
       <path d="M 0 0 
L 0 3.5 
" id="m2ad004edc7" style="stroke:#000000;stroke-width:0.8;"/>
      </defs>
      <g>
       <use style="stroke:#000000;stroke-width:0.8;" x="55.980625" xlink:href="#m2ad004edc7" y="506.16"/>
      </g>
     </g>
     <g id="text_1">
      <!-- 0 -->
      <defs>
       <path d="M 31.78125 66.40625 
Q 24.171875 66.40625 20.328125 58.90625 
Q 16.5 51.421875 16.5 36.375 
Q 16.5 21.390625 20.328125 13.890625 
Q 24.171875 6.390625 31.78125 6.390625 
Q 39.453125 6.390625 43.28125 13.890625 
Q 47.125 21.390625 47.125 36.375 
Q 47.125 51.421875 43.28125 58.90625 
Q 39.453125 66.40625 31.78125 66.40625 
z
M 31.78125 74.21875 
Q 44.046875 74.21875 50.515625 64.515625 
Q 56.984375 54.828125 56.984375 36.375 
Q 56.984375 17.96875 50.515625 8.265625 
Q 44.046875 -1.421875 31.78125 -1.421875 
Q 19.53125 -1.421875 13.0625 8.265625 
Q 6.59375 17.96875 6.59375 36.375 
Q 6.59375 54.828125 13.0625 64.515625 
Q 19.53125 74.21875 31.78125 74.21875 
z
" id="DejaVuSans-48"/>
      </defs>
      <g transform="translate(52.163125 522.278125)scale(0.12 -0.12)">
       <use xlink:href="#DejaVuSans-48"/>
      </g>
     </g>
    </g>
    <g id="xtick_2">
     <g id="line2d_2">
      <g>
       <use style="stroke:#000000;stroke-width:0.8;" x="299.471534" xlink:href="#m2ad004edc7" y="506.16"/>
      </g>
     </g>
     <g id="text_2">
      <!-- 200 -->
      <defs>
       <path d="M 19.1875 8.296875 
L 53.609375 8.296875 
L 53.609375 0 
L 7.328125 0 
L 7.328125 8.296875 
Q 12.9375 14.109375 22.625 23.890625 
Q 32.328125 33.6875 34.8125 36.53125 
Q 39.546875 41.84375 41.421875 45.53125 
Q 43.3125 49.21875 43.3125 52.78125 
Q 43.3125 58.59375 39.234375 62.25 
Q 35.15625 65.921875 28.609375 65.921875 
Q 23.96875 65.921875 18.8125 64.3125 
Q 13.671875 62.703125 7.8125 59.421875 
L 7.8125 69.390625 
Q 13.765625 71.78125 18.9375 73 
Q 24.125 74.21875 28.421875 74.21875 
Q 39.75 74.21875 46.484375 68.546875 
Q 53.21875 62.890625 53.21875 53.421875 
Q 53.21875 48.921875 51.53125 44.890625 
Q 49.859375 40.875 45.40625 35.40625 
Q 44.1875 33.984375 37.640625 27.21875 
Q 31.109375 20.453125 19.1875 8.296875 
z
" id="DejaVuSans-50"/>
      </defs>
      <g transform="translate(288.019034 522.278125)scale(0.12 -0.12)">
       <use xlink:href="#DejaVuSans-50"/>
       <use x="63.623047" xlink:href="#DejaVuSans-48"/>
       <use x="127.246094" xlink:href="#DejaVuSans-48"/>
      </g>
     </g>
    </g>
    <g id="xtick_3">
     <g id="line2d_3">
      <g>
       <use style="stroke:#000000;stroke-width:0.8;" x="542.962443" xlink:href="#m2ad004edc7" y="506.16"/>
      </g>
     </g>
     <g id="text_3">
      <!-- 400 -->
      <defs>
       <path d="M 37.796875 64.3125 
L 12.890625 25.390625 
L 37.796875 25.390625 
z
M 35.203125 72.90625 
L 47.609375 72.90625 
L 47.609375 25.390625 
L 58.015625 25.390625 
L 58.015625 17.1875 
L 47.609375 17.1875 
L 47.609375 0 
L 37.796875 0 
L 37.796875 17.1875 
L 4.890625 17.1875 
L 4.890625 26.703125 
z
" id="DejaVuSans-52"/>
      </defs>
      <g transform="translate(531.509943 522.278125)scale(0.12 -0.12)">
       <use xlink:href="#DejaVuSans-52"/>
       <use x="63.623047" xlink:href="#DejaVuSans-48"/>
       <use x="127.246094" xlink:href="#DejaVuSans-48"/>
      </g>
     </g>
    </g>
    <g id="xtick_4">
     <g id="line2d_4">
      <g>
       <use style="stroke:#000000;stroke-width:0.8;" x="786.453352" xlink:href="#m2ad004edc7" y="506.16"/>
      </g>
     </g>
     <g id="text_4">
      <!-- 600 -->
      <defs>
       <path d="M 33.015625 40.375 
Q 26.375 40.375 22.484375 35.828125 
Q 18.609375 31.296875 18.609375 23.390625 
Q 18.609375 15.53125 22.484375 10.953125 
Q 26.375 6.390625 33.015625 6.390625 
Q 39.65625 6.390625 43.53125 10.953125 
Q 47.40625 15.53125 47.40625 23.390625 
Q 47.40625 31.296875 43.53125 35.828125 
Q 39.65625 40.375 33.015625 40.375 
z
M 52.59375 71.296875 
L 52.59375 62.3125 
Q 48.875 64.0625 45.09375 64.984375 
Q 41.3125 65.921875 37.59375 65.921875 
Q 27.828125 65.921875 22.671875 59.328125 
Q 17.53125 52.734375 16.796875 39.40625 
Q 19.671875 43.65625 24.015625 45.921875 
Q 28.375 48.1875 33.59375 48.1875 
Q 44.578125 48.1875 50.953125 41.515625 
Q 57.328125 34.859375 57.328125 23.390625 
Q 57.328125 12.15625 50.6875 5.359375 
Q 44.046875 -1.421875 33.015625 -1.421875 
Q 20.359375 -1.421875 13.671875 8.265625 
Q 6.984375 17.96875 6.984375 36.375 
Q 6.984375 53.65625 15.1875 63.9375 
Q 23.390625 74.21875 37.203125 74.21875 
Q 40.921875 74.21875 44.703125 73.484375 
Q 48.484375 72.75 52.59375 71.296875 
z
" id="DejaVuSans-54"/>
      </defs>
      <g transform="translate(775.000852 522.278125)scale(0.12 -0.12)">
       <use xlink:href="#DejaVuSans-54"/>
       <use x="63.623047" xlink:href="#DejaVuSans-48"/>
       <use x="127.246094" xlink:href="#DejaVuSans-48"/>
      </g>
     </g>
    </g>
    <g id="xtick_5">
     <g id="line2d_5">
      <g>
       <use style="stroke:#000000;stroke-width:0.8;" x="1029.944261" xlink:href="#m2ad004edc7" y="506.16"/>
      </g>
     </g>
     <g id="text_5">
      <!-- 800 -->
      <defs>
       <path d="M 31.78125 34.625 
Q 24.75 34.625 20.71875 30.859375 
Q 16.703125 27.09375 16.703125 20.515625 
Q 16.703125 13.921875 20.71875 10.15625 
Q 24.75 6.390625 31.78125 6.390625 
Q 38.8125 6.390625 42.859375 10.171875 
Q 46.921875 13.96875 46.921875 20.515625 
Q 46.921875 27.09375 42.890625 30.859375 
Q 38.875 34.625 31.78125 34.625 
z
M 21.921875 38.8125 
Q 15.578125 40.375 12.03125 44.71875 
Q 8.5 49.078125 8.5 55.328125 
Q 8.5 64.0625 14.71875 69.140625 
Q 20.953125 74.21875 31.78125 74.21875 
Q 42.671875 74.21875 48.875 69.140625 
Q 55.078125 64.0625 55.078125 55.328125 
Q 55.078125 49.078125 51.53125 44.71875 
Q 48 40.375 41.703125 38.8125 
Q 48.828125 37.15625 52.796875 32.3125 
Q 56.78125 27.484375 56.78125 20.515625 
Q 56.78125 9.90625 50.3125 4.234375 
Q 43.84375 -1.421875 31.78125 -1.421875 
Q 19.734375 -1.421875 13.25 4.234375 
Q 6.78125 9.90625 6.78125 20.515625 
Q 6.78125 27.484375 10.78125 32.3125 
Q 14.796875 37.15625 21.921875 38.8125 
z
M 18.3125 54.390625 
Q 18.3125 48.734375 21.84375 45.5625 
Q 25.390625 42.390625 31.78125 42.390625 
Q 38.140625 42.390625 41.71875 45.5625 
Q 45.3125 48.734375 45.3125 54.390625 
Q 45.3125 60.0625 41.71875 63.234375 
Q 38.140625 66.40625 31.78125 66.40625 
Q 25.390625 66.40625 21.84375 63.234375 
Q 18.3125 60.0625 18.3125 54.390625 
z
" id="DejaVuSans-56"/>
      </defs>
      <g transform="translate(1018.491761 522.278125)scale(0.12 -0.12)">
       <use xlink:href="#DejaVuSans-56"/>
       <use x="63.623047" xlink:href="#DejaVuSans-48"/>
       <use x="127.246094" xlink:href="#DejaVuSans-48"/>
      </g>
     </g>
    </g>
    <g id="xtick_6">
     <g id="line2d_6">
      <g>
       <use style="stroke:#000000;stroke-width:0.8;" x="1273.43517" xlink:href="#m2ad004edc7" y="506.16"/>
      </g>
     </g>
     <g id="text_6">
      <!-- 1000 -->
      <defs>
       <path d="M 12.40625 8.296875 
L 28.515625 8.296875 
L 28.515625 63.921875 
L 10.984375 60.40625 
L 10.984375 69.390625 
L 28.421875 72.90625 
L 38.28125 72.90625 
L 38.28125 8.296875 
L 54.390625 8.296875 
L 54.390625 0 
L 12.40625 0 
z
" id="DejaVuSans-49"/>
      </defs>
      <g transform="translate(1258.16517 522.278125)scale(0.12 -0.12)">
       <use xlink:href="#DejaVuSans-49"/>
       <use x="63.623047" xlink:href="#DejaVuSans-48"/>
       <use x="127.246094" xlink:href="#DejaVuSans-48"/>
       <use x="190.869141" xlink:href="#DejaVuSans-48"/>
      </g>
     </g>
    </g>
    <g id="text_7">
     <!-- Size S -->
     <defs>
      <path d="M 53.515625 70.515625 
L 53.515625 60.890625 
Q 47.90625 63.578125 42.921875 64.890625 
Q 37.9375 66.21875 33.296875 66.21875 
Q 25.25 66.21875 20.875 63.09375 
Q 16.5 59.96875 16.5 54.203125 
Q 16.5 49.359375 19.40625 46.890625 
Q 22.3125 44.4375 30.421875 42.921875 
L 36.375 41.703125 
Q 47.40625 39.59375 52.65625 34.296875 
Q 57.90625 29 57.90625 20.125 
Q 57.90625 9.515625 50.796875 4.046875 
Q 43.703125 -1.421875 29.984375 -1.421875 
Q 24.8125 -1.421875 18.96875 -0.25 
Q 13.140625 0.921875 6.890625 3.21875 
L 6.890625 13.375 
Q 12.890625 10.015625 18.65625 8.296875 
Q 24.421875 6.59375 29.984375 6.59375 
Q 38.421875 6.59375 43.015625 9.90625 
Q 47.609375 13.234375 47.609375 19.390625 
Q 47.609375 24.75 44.3125 27.78125 
Q 41.015625 30.8125 33.5 32.328125 
L 27.484375 33.5 
Q 16.453125 35.6875 11.515625 40.375 
Q 6.59375 45.0625 6.59375 53.421875 
Q 6.59375 63.09375 13.40625 68.65625 
Q 20.21875 74.21875 32.171875 74.21875 
Q 37.3125 74.21875 42.625 73.28125 
Q 47.953125 72.359375 53.515625 70.515625 
z
" id="DejaVuSans-83"/>
      <path d="M 9.421875 54.6875 
L 18.40625 54.6875 
L 18.40625 0 
L 9.421875 0 
z
M 9.421875 75.984375 
L 18.40625 75.984375 
L 18.40625 64.59375 
L 9.421875 64.59375 
z
" id="DejaVuSans-105"/>
      <path d="M 5.515625 54.6875 
L 48.1875 54.6875 
L 48.1875 46.484375 
L 14.40625 7.171875 
L 48.1875 7.171875 
L 48.1875 0 
L 4.296875 0 
L 4.296875 8.203125 
L 38.09375 47.515625 
L 5.515625 47.515625 
z
" id="DejaVuSans-122"/>
      <path d="M 56.203125 29.59375 
L 56.203125 25.203125 
L 14.890625 25.203125 
Q 15.484375 15.921875 20.484375 11.0625 
Q 25.484375 6.203125 34.421875 6.203125 
Q 39.59375 6.203125 44.453125 7.46875 
Q 49.3125 8.734375 54.109375 11.28125 
L 54.109375 2.78125 
Q 49.265625 0.734375 44.1875 -0.34375 
Q 39.109375 -1.421875 33.890625 -1.421875 
Q 20.796875 -1.421875 13.15625 6.1875 
Q 5.515625 13.8125 5.515625 26.8125 
Q 5.515625 40.234375 12.765625 48.109375 
Q 20.015625 56 32.328125 56 
Q 43.359375 56 49.78125 48.890625 
Q 56.203125 41.796875 56.203125 29.59375 
z
M 47.21875 32.234375 
Q 47.125 39.59375 43.09375 43.984375 
Q 39.0625 48.390625 32.421875 48.390625 
Q 24.90625 48.390625 20.390625 44.140625 
Q 15.875 39.890625 15.1875 32.171875 
z
" id="DejaVuSans-101"/>
      <path id="DejaVuSans-32"/>
     </defs>
     <g transform="translate(698.531406 542.450938)scale(0.18 -0.18)">
      <use xlink:href="#DejaVuSans-83"/>
      <use x="63.476562" xlink:href="#DejaVuSans-105"/>
      <use x="91.259766" xlink:href="#DejaVuSans-122"/>
      <use x="143.75" xlink:href="#DejaVuSans-101"/>
      <use x="205.273438" xlink:href="#DejaVuSans-32"/>
      <use x="237.060547" xlink:href="#DejaVuSans-83"/>
     </g>
    </g>
   </g>
   <g id="matplotlib.axis_2">
    <g id="ytick_1">
     <g id="line2d_7">
      <path clip-path="url(#p7a0b11f0c9)" d="M 55.980625 483.498901 
L 1395.180625 483.498901 
" style="fill:none;stroke:#b0b0b0;stroke-linecap:square;stroke-width:0.8;"/>
     </g>
     <g id="line2d_8">
      <defs>
       <path d="M 0 0 
L -3.5 0 
" id="md96acefaee" style="stroke:#000000;stroke-width:0.8;"/>
      </defs>
      <g>
       <use style="stroke:#000000;stroke-width:0.8;" x="55.980625" xlink:href="#md96acefaee" y="483.498901"/>
      </g>
     </g>
     <g id="text_8">
      <!-- 0 -->
      <g transform="translate(38.800625 489.577651)scale(0.16 -0.16)">
       <use xlink:href="#DejaVuSans-48"/>
      </g>
     </g>
    </g>
    <g id="ytick_2">
     <g id="line2d_9">
      <path clip-path="url(#p7a0b11f0c9)" d="M 55.980625 386.726869 
L 1395.180625 386.726869 
" style="fill:none;stroke:#b0b0b0;stroke-linecap:square;stroke-width:0.8;"/>
     </g>
     <g id="line2d_10">
      <g>
       <use style="stroke:#000000;stroke-width:0.8;" x="55.980625" xlink:href="#md96acefaee" y="386.726869"/>
      </g>
     </g>
     <g id="text_9">
      <!-- 10 -->
      <g transform="translate(28.620625 392.805619)scale(0.16 -0.16)">
       <use xlink:href="#DejaVuSans-49"/>
       <use x="63.623047" xlink:href="#DejaVuSans-48"/>
      </g>
     </g>
    </g>
    <g id="ytick_3">
     <g id="line2d_11">
      <path clip-path="url(#p7a0b11f0c9)" d="M 55.980625 289.954836 
L 1395.180625 289.954836 
" style="fill:none;stroke:#b0b0b0;stroke-linecap:square;stroke-width:0.8;"/>
     </g>
     <g id="line2d_12">
      <g>
       <use style="stroke:#000000;stroke-width:0.8;" x="55.980625" xlink:href="#md96acefaee" y="289.954836"/>
      </g>
     </g>
     <g id="text_10">
      <!-- 20 -->
      <g transform="translate(28.620625 296.033586)scale(0.16 -0.16)">
       <use xlink:href="#DejaVuSans-50"/>
       <use x="63.623047" xlink:href="#DejaVuSans-48"/>
      </g>
     </g>
    </g>
    <g id="ytick_4">
     <g id="line2d_13">
      <path clip-path="url(#p7a0b11f0c9)" d="M 55.980625 193.182804 
L 1395.180625 193.182804 
" style="fill:none;stroke:#b0b0b0;stroke-linecap:square;stroke-width:0.8;"/>
     </g>
     <g id="line2d_14">
      <g>
       <use style="stroke:#000000;stroke-width:0.8;" x="55.980625" xlink:href="#md96acefaee" y="193.182804"/>
      </g>
     </g>
     <g id="text_11">
      <!-- 30 -->
      <defs>
       <path d="M 40.578125 39.3125 
Q 47.65625 37.796875 51.625 33 
Q 55.609375 28.21875 55.609375 21.1875 
Q 55.609375 10.40625 48.1875 4.484375 
Q 40.765625 -1.421875 27.09375 -1.421875 
Q 22.515625 -1.421875 17.65625 -0.515625 
Q 12.796875 0.390625 7.625 2.203125 
L 7.625 11.71875 
Q 11.71875 9.328125 16.59375 8.109375 
Q 21.484375 6.890625 26.8125 6.890625 
Q 36.078125 6.890625 40.9375 10.546875 
Q 45.796875 14.203125 45.796875 21.1875 
Q 45.796875 27.640625 41.28125 31.265625 
Q 36.765625 34.90625 28.71875 34.90625 
L 20.21875 34.90625 
L 20.21875 43.015625 
L 29.109375 43.015625 
Q 36.375 43.015625 40.234375 45.921875 
Q 44.09375 48.828125 44.09375 54.296875 
Q 44.09375 59.90625 40.109375 62.90625 
Q 36.140625 65.921875 28.71875 65.921875 
Q 24.65625 65.921875 20.015625 65.03125 
Q 15.375 64.15625 9.8125 62.3125 
L 9.8125 71.09375 
Q 15.4375 72.65625 20.34375 73.4375 
Q 25.25 74.21875 29.59375 74.21875 
Q 40.828125 74.21875 47.359375 69.109375 
Q 53.90625 64.015625 53.90625 55.328125 
Q 53.90625 49.265625 50.4375 45.09375 
Q 46.96875 40.921875 40.578125 39.3125 
z
" id="DejaVuSans-51"/>
      </defs>
      <g transform="translate(28.620625 199.261554)scale(0.16 -0.16)">
       <use xlink:href="#DejaVuSans-51"/>
       <use x="63.623047" xlink:href="#DejaVuSans-48"/>
      </g>
     </g>
    </g>
    <g id="ytick_5">
     <g id="line2d_15">
      <path clip-path="url(#p7a0b11f0c9)" d="M 55.980625 96.410772 
L 1395.180625 96.410772 
" style="fill:none;stroke:#b0b0b0;stroke-linecap:square;stroke-width:0.8;"/>
     </g>
     <g id="line2d_16">
      <g>
       <use style="stroke:#000000;stroke-width:0.8;" x="55.980625" xlink:href="#md96acefaee" y="96.410772"/>
      </g>
     </g>
     <g id="text_12">
      <!-- 40 -->
      <g transform="translate(28.620625 102.489522)scale(0.16 -0.16)">
       <use xlink:href="#DejaVuSans-52"/>
       <use x="63.623047" xlink:href="#DejaVuSans-48"/>
      </g>
     </g>
    </g>
    <g id="text_13">
     <!-- Minimum Time (ms) -->
     <defs>
      <path d="M 9.8125 72.90625 
L 24.515625 72.90625 
L 43.109375 23.296875 
L 61.8125 72.90625 
L 76.515625 72.90625 
L 76.515625 0 
L 66.890625 0 
L 66.890625 64.015625 
L 48.09375 14.015625 
L 38.1875 14.015625 
L 19.390625 64.015625 
L 19.390625 0 
L 9.8125 0 
z
" id="DejaVuSans-77"/>
      <path d="M 54.890625 33.015625 
L 54.890625 0 
L 45.90625 0 
L 45.90625 32.71875 
Q 45.90625 40.484375 42.875 44.328125 
Q 39.84375 48.1875 33.796875 48.1875 
Q 26.515625 48.1875 22.3125 43.546875 
Q 18.109375 38.921875 18.109375 30.90625 
L 18.109375 0 
L 9.078125 0 
L 9.078125 54.6875 
L 18.109375 54.6875 
L 18.109375 46.1875 
Q 21.34375 51.125 25.703125 53.5625 
Q 30.078125 56 35.796875 56 
Q 45.21875 56 50.046875 50.171875 
Q 54.890625 44.34375 54.890625 33.015625 
z
" id="DejaVuSans-110"/>
      <path d="M 52 44.1875 
Q 55.375 50.25 60.0625 53.125 
Q 64.75 56 71.09375 56 
Q 79.640625 56 84.28125 50.015625 
Q 88.921875 44.046875 88.921875 33.015625 
L 88.921875 0 
L 79.890625 0 
L 79.890625 32.71875 
Q 79.890625 40.578125 77.09375 44.375 
Q 74.3125 48.1875 68.609375 48.1875 
Q 61.625 48.1875 57.5625 43.546875 
Q 53.515625 38.921875 53.515625 30.90625 
L 53.515625 0 
L 44.484375 0 
L 44.484375 32.71875 
Q 44.484375 40.625 41.703125 44.40625 
Q 38.921875 48.1875 33.109375 48.1875 
Q 26.21875 48.1875 22.15625 43.53125 
Q 18.109375 38.875 18.109375 30.90625 
L 18.109375 0 
L 9.078125 0 
L 9.078125 54.6875 
L 18.109375 54.6875 
L 18.109375 46.1875 
Q 21.1875 51.21875 25.484375 53.609375 
Q 29.78125 56 35.6875 56 
Q 41.65625 56 45.828125 52.96875 
Q 50 49.953125 52 44.1875 
z
" id="DejaVuSans-109"/>
      <path d="M 8.5 21.578125 
L 8.5 54.6875 
L 17.484375 54.6875 
L 17.484375 21.921875 
Q 17.484375 14.15625 20.5 10.265625 
Q 23.53125 6.390625 29.59375 6.390625 
Q 36.859375 6.390625 41.078125 11.03125 
Q 45.3125 15.671875 45.3125 23.6875 
L 45.3125 54.6875 
L 54.296875 54.6875 
L 54.296875 0 
L 45.3125 0 
L 45.3125 8.40625 
Q 42.046875 3.421875 37.71875 1 
Q 33.40625 -1.421875 27.6875 -1.421875 
Q 18.265625 -1.421875 13.375 4.4375 
Q 8.5 10.296875 8.5 21.578125 
z
M 31.109375 56 
z
" id="DejaVuSans-117"/>
      <path d="M -0.296875 72.90625 
L 61.375 72.90625 
L 61.375 64.59375 
L 35.5 64.59375 
L 35.5 0 
L 25.59375 0 
L 25.59375 64.59375 
L -0.296875 64.59375 
z
" id="DejaVuSans-84"/>
      <path d="M 31 75.875 
Q 24.46875 64.65625 21.28125 53.65625 
Q 18.109375 42.671875 18.109375 31.390625 
Q 18.109375 20.125 21.3125 9.0625 
Q 24.515625 -2 31 -13.1875 
L 23.1875 -13.1875 
Q 15.875 -1.703125 12.234375 9.375 
Q 8.59375 20.453125 8.59375 31.390625 
Q 8.59375 42.28125 12.203125 53.3125 
Q 15.828125 64.359375 23.1875 75.875 
z
" id="DejaVuSans-40"/>
      <path d="M 44.28125 53.078125 
L 44.28125 44.578125 
Q 40.484375 46.53125 36.375 47.5 
Q 32.28125 48.484375 27.875 48.484375 
Q 21.1875 48.484375 17.84375 46.4375 
Q 14.5 44.390625 14.5 40.28125 
Q 14.5 37.15625 16.890625 35.375 
Q 19.28125 33.59375 26.515625 31.984375 
L 29.59375 31.296875 
Q 39.15625 29.25 43.1875 25.515625 
Q 47.21875 21.78125 47.21875 15.09375 
Q 47.21875 7.46875 41.1875 3.015625 
Q 35.15625 -1.421875 24.609375 -1.421875 
Q 20.21875 -1.421875 15.453125 -0.5625 
Q 10.6875 0.296875 5.421875 2 
L 5.421875 11.28125 
Q 10.40625 8.6875 15.234375 7.390625 
Q 20.0625 6.109375 24.8125 6.109375 
Q 31.15625 6.109375 34.5625 8.28125 
Q 37.984375 10.453125 37.984375 14.40625 
Q 37.984375 18.0625 35.515625 20.015625 
Q 33.0625 21.96875 24.703125 23.78125 
L 21.578125 24.515625 
Q 13.234375 26.265625 9.515625 29.90625 
Q 5.8125 33.546875 5.8125 39.890625 
Q 5.8125 47.609375 11.28125 51.796875 
Q 16.75 56 26.8125 56 
Q 31.78125 56 36.171875 55.265625 
Q 40.578125 54.546875 44.28125 53.078125 
z
" id="DejaVuSans-115"/>
      <path d="M 8.015625 75.875 
L 15.828125 75.875 
Q 23.140625 64.359375 26.78125 53.3125 
Q 30.421875 42.28125 30.421875 31.390625 
Q 30.421875 20.453125 26.78125 9.375 
Q 23.140625 -1.703125 15.828125 -13.1875 
L 8.015625 -13.1875 
Q 14.5 -2 17.703125 9.0625 
Q 20.90625 20.125 20.90625 31.390625 
Q 20.90625 42.671875 17.703125 53.65625 
Q 14.5 64.65625 8.015625 75.875 
z
" id="DejaVuSans-41"/>
     </defs>
     <g transform="translate(20.877188 346.8825)rotate(-90)scale(0.18 -0.18)">
      <use xlink:href="#DejaVuSans-77"/>
      <use x="86.279297" xlink:href="#DejaVuSans-105"/>
      <use x="114.0625" xlink:href="#DejaVuSans-110"/>
      <use x="177.441406" xlink:href="#DejaVuSans-105"/>
      <use x="205.224609" xlink:href="#DejaVuSans-109"/>
      <use x="302.636719" xlink:href="#DejaVuSans-117"/>
      <use x="366.015625" xlink:href="#DejaVuSans-109"/>
      <use x="463.427734" xlink:href="#DejaVuSans-32"/>
      <use x="495.214844" xlink:href="#DejaVuSans-84"/>
      <use x="556.251953" xlink:href="#DejaVuSans-105"/>
      <use x="584.035156" xlink:href="#DejaVuSans-109"/>
      <use x="681.447266" xlink:href="#DejaVuSans-101"/>
      <use x="742.970703" xlink:href="#DejaVuSans-32"/>
      <use x="774.757812" xlink:href="#DejaVuSans-40"/>
      <use x="813.771484" xlink:href="#DejaVuSans-109"/>
      <use x="911.183594" xlink:href="#DejaVuSans-115"/>
      <use x="963.283203" xlink:href="#DejaVuSans-41"/>
     </g>
    </g>
   </g>
   <g id="line2d_17">
    <path clip-path="url(#p7a0b11f0c9)" d="M 116.853352 483.380096 
L 238.598807 482.162226 
L 360.344261 477.693659 
L 482.089716 464.125594 
L 603.83517 445.486144 
L 725.580625 424.696451 
L 847.32608 390.759037 
L 969.071534 350.437357 
L 1090.816989 307.77266 
L 1212.562443 251.64924 
L 1334.307898 206.28735 
" style="fill:none;stroke:#ff0000;stroke-linecap:square;stroke-width:1.5;"/>
    <defs>
     <path d="M -3 3 
L 3 -3 
M -3 -3 
L 3 3 
" id="mbec464f610" style="stroke:#ff0000;"/>
    </defs>
    <g clip-path="url(#p7a0b11f0c9)">
     <use style="fill:#ff0000;stroke:#ff0000;" x="116.853352" xlink:href="#mbec464f610" y="483.380096"/>
     <use style="fill:#ff0000;stroke:#ff0000;" x="238.598807" xlink:href="#mbec464f610" y="482.162226"/>
     <use style="fill:#ff0000;stroke:#ff0000;" x="360.344261" xlink:href="#mbec464f610" y="477.693659"/>
     <use style="fill:#ff0000;stroke:#ff0000;" x="482.089716" xlink:href="#mbec464f610" y="464.125594"/>
     <use style="fill:#ff0000;stroke:#ff0000;" x="603.83517" xlink:href="#mbec464f610" y="445.486144"/>
     <use style="fill:#ff0000;stroke:#ff0000;" x="725.580625" xlink:href="#mbec464f610" y="424.696451"/>
     <use style="fill:#ff0000;stroke:#ff0000;" x="847.32608" xlink:href="#mbec464f610" y="390.759037"/>
     <use style="fill:#ff0000;stroke:#ff0000;" x="969.071534" xlink:href="#mbec464f610" y="350.437357"/>
     <use style="fill:#ff0000;stroke:#ff0000;" x="1090.816989" xlink:href="#mbec464f610" y="307.77266"/>
     <use style="fill:#ff0000;stroke:#ff0000;" x="1212.562443" xlink:href="#mbec464f610" y="251.64924"/>
     <use style="fill:#ff0000;stroke:#ff0000;" x="1334.307898" xlink:href="#mbec464f610" y="206.28735"/>
    </g>
   </g>
   <g id="line2d_18">
    <path clip-path="url(#p7a0b11f0c9)" d="M 116.853352 483.403722 
L 238.598807 482.364854 
L 360.344261 478.660299 
L 482.089716 467.523788 
L 603.83517 450.13413 
L 725.580625 436.246932 
L 847.32608 409.575821 
L 969.071534 381.907168 
L 1090.816989 344.389105 
L 1212.562443 307.77266 
L 1334.307898 266.139844 
" style="fill:none;stroke:#ffa500;stroke-linecap:square;stroke-width:1.5;"/>
    <defs>
     <path d="M -3 3 
L 3 -3 
M -3 -3 
L 3 3 
" id="m1c9931ab7c" style="stroke:#ffa500;"/>
    </defs>
    <g clip-path="url(#p7a0b11f0c9)">
     <use style="fill:#ffa500;stroke:#ffa500;" x="116.853352" xlink:href="#m1c9931ab7c" y="483.403722"/>
     <use style="fill:#ffa500;stroke:#ffa500;" x="238.598807" xlink:href="#m1c9931ab7c" y="482.364854"/>
     <use style="fill:#ffa500;stroke:#ffa500;" x="360.344261" xlink:href="#m1c9931ab7c" y="478.660299"/>
     <use style="fill:#ffa500;stroke:#ffa500;" x="482.089716" xlink:href="#m1c9931ab7c" y="467.523788"/>
     <use style="fill:#ffa500;stroke:#ffa500;" x="603.83517" xlink:href="#m1c9931ab7c" y="450.13413"/>
     <use style="fill:#ffa500;stroke:#ffa500;" x="725.580625" xlink:href="#m1c9931ab7c" y="436.246932"/>
     <use style="fill:#ffa500;stroke:#ffa500;" x="847.32608" xlink:href="#m1c9931ab7c" y="409.575821"/>
     <use style="fill:#ffa500;stroke:#ffa500;" x="969.071534" xlink:href="#m1c9931ab7c" y="381.907168"/>
     <use style="fill:#ffa500;stroke:#ffa500;" x="1090.816989" xlink:href="#m1c9931ab7c" y="344.389105"/>
     <use style="fill:#ffa500;stroke:#ffa500;" x="1212.562443" xlink:href="#m1c9931ab7c" y="307.77266"/>
     <use style="fill:#ffa500;stroke:#ffa500;" x="1334.307898" xlink:href="#m1c9931ab7c" y="266.139844"/>
    </g>
   </g>
   <g id="line2d_19">
    <path clip-path="url(#p7a0b11f0c9)" d="M 116.853352 483.347019 
L 238.598807 481.436598 
L 360.344261 476.242348 
L 482.089716 453.797663 
L 603.83517 421.396313 
L 725.580625 388.742953 
L 847.32608 339.012881 
L 969.071534 280.315435 
L 1090.816989 217.375812 
L 1212.562443 117.42049 
L 1334.307898 29.88 
" style="fill:none;stroke:#cccc00;stroke-linecap:square;stroke-width:1.5;"/>
    <defs>
     <path d="M -3 3 
L 3 -3 
M -3 -3 
L 3 3 
" id="m41755b49c1" style="stroke:#cccc00;"/>
    </defs>
    <g clip-path="url(#p7a0b11f0c9)">
     <use style="fill:#cccc00;stroke:#cccc00;" x="116.853352" xlink:href="#m41755b49c1" y="483.347019"/>
     <use style="fill:#cccc00;stroke:#cccc00;" x="238.598807" xlink:href="#m41755b49c1" y="481.436598"/>
     <use style="fill:#cccc00;stroke:#cccc00;" x="360.344261" xlink:href="#m41755b49c1" y="476.242348"/>
     <use style="fill:#cccc00;stroke:#cccc00;" x="482.089716" xlink:href="#m41755b49c1" y="453.797663"/>
     <use style="fill:#cccc00;stroke:#cccc00;" x="603.83517" xlink:href="#m41755b49c1" y="421.396313"/>
     <use style="fill:#cccc00;stroke:#cccc00;" x="725.580625" xlink:href="#m41755b49c1" y="388.742953"/>
     <use style="fill:#cccc00;stroke:#cccc00;" x="847.32608" xlink:href="#m41755b49c1" y="339.012881"/>
     <use style="fill:#cccc00;stroke:#cccc00;" x="969.071534" xlink:href="#m41755b49c1" y="280.315435"/>
     <use style="fill:#cccc00;stroke:#cccc00;" x="1090.816989" xlink:href="#m41755b49c1" y="217.375812"/>
     <use style="fill:#cccc00;stroke:#cccc00;" x="1212.562443" xlink:href="#m41755b49c1" y="117.42049"/>
     <use style="fill:#cccc00;stroke:#cccc00;" x="1334.307898" xlink:href="#m41755b49c1" y="29.88"/>
    </g>
   </g>
   <g id="line2d_20">
    <path clip-path="url(#p7a0b11f0c9)" d="M 116.853352 483.350395 
L 238.598807 481.568234 
L 360.344261 474.258516 
L 482.089716 455.147719 
L 603.83517 428.146594 
L 725.580625 398.823373 
L 847.32608 359.293726 
L 969.071534 299.599346 
L 1090.816989 240.488775 
L 1212.562443 166.6857 
L 1334.307898 83.24693 
" style="fill:none;stroke:#008000;stroke-linecap:square;stroke-width:1.5;"/>
    <defs>
     <path d="M -3 3 
L 3 -3 
M -3 -3 
L 3 3 
" id="mc8283b17a8" style="stroke:#008000;"/>
    </defs>
    <g clip-path="url(#p7a0b11f0c9)">
     <use style="fill:#008000;stroke:#008000;" x="116.853352" xlink:href="#mc8283b17a8" y="483.350395"/>
     <use style="fill:#008000;stroke:#008000;" x="238.598807" xlink:href="#mc8283b17a8" y="481.568234"/>
     <use style="fill:#008000;stroke:#008000;" x="360.344261" xlink:href="#mc8283b17a8" y="474.258516"/>
     <use style="fill:#008000;stroke:#008000;" x="482.089716" xlink:href="#mc8283b17a8" y="455.147719"/>
     <use style="fill:#008000;stroke:#008000;" x="603.83517" xlink:href="#mc8283b17a8" y="428.146594"/>
     <use style="fill:#008000;stroke:#008000;" x="725.580625" xlink:href="#mc8283b17a8" y="398.823373"/>
     <use style="fill:#008000;stroke:#008000;" x="847.32608" xlink:href="#mc8283b17a8" y="359.293726"/>
     <use style="fill:#008000;stroke:#008000;" x="969.071534" xlink:href="#mc8283b17a8" y="299.599346"/>
     <use style="fill:#008000;stroke:#008000;" x="1090.816989" xlink:href="#mc8283b17a8" y="240.488775"/>
     <use style="fill:#008000;stroke:#008000;" x="1212.562443" xlink:href="#mc8283b17a8" y="166.6857"/>
     <use style="fill:#008000;stroke:#008000;" x="1334.307898" xlink:href="#mc8283b17a8" y="83.24693"/>
    </g>
   </g>
   <g id="line2d_21">
    <path clip-path="url(#p7a0b11f0c9)" d="M 116.853352 483.4746 
L 238.598807 483.11279 
L 360.344261 481.828318 
L 482.089716 476.242348 
L 603.83517 457.152348 
L 725.580625 433.546819 
L 847.32608 396.135261 
L 969.071534 344.389105 
L 1090.816989 283.372915 
L 1212.562443 261.414647 
L 1334.307898 211.32756 
" style="fill:none;stroke:#0000ff;stroke-linecap:square;stroke-width:1.5;"/>
    <defs>
     <path d="M -3 3 
L 3 -3 
M -3 -3 
L 3 3 
" id="mcf2db41ace" style="stroke:#0000ff;"/>
    </defs>
    <g clip-path="url(#p7a0b11f0c9)">
     <use style="fill:#0000ff;stroke:#0000ff;" x="116.853352" xlink:href="#mcf2db41ace" y="483.4746"/>
     <use style="fill:#0000ff;stroke:#0000ff;" x="238.598807" xlink:href="#mcf2db41ace" y="483.11279"/>
     <use style="fill:#0000ff;stroke:#0000ff;" x="360.344261" xlink:href="#mcf2db41ace" y="481.828318"/>
     <use style="fill:#0000ff;stroke:#0000ff;" x="482.089716" xlink:href="#mcf2db41ace" y="476.242348"/>
     <use style="fill:#0000ff;stroke:#0000ff;" x="603.83517" xlink:href="#mcf2db41ace" y="457.152348"/>
     <use style="fill:#0000ff;stroke:#0000ff;" x="725.580625" xlink:href="#mcf2db41ace" y="433.546819"/>
     <use style="fill:#0000ff;stroke:#0000ff;" x="847.32608" xlink:href="#mcf2db41ace" y="396.135261"/>
     <use style="fill:#0000ff;stroke:#0000ff;" x="969.071534" xlink:href="#mcf2db41ace" y="344.389105"/>
     <use style="fill:#0000ff;stroke:#0000ff;" x="1090.816989" xlink:href="#mcf2db41ace" y="283.372915"/>
     <use style="fill:#0000ff;stroke:#0000ff;" x="1212.562443" xlink:href="#mcf2db41ace" y="261.414647"/>
     <use style="fill:#0000ff;stroke:#0000ff;" x="1334.307898" xlink:href="#mcf2db41ace" y="211.32756"/>
    </g>
   </g>
   <g id="line2d_22">
    <path clip-path="url(#p7a0b11f0c9)" d="M 116.853352 483.48 
L 238.598807 483.088831 
L 360.344261 480.002255 
L 482.089716 474.993546 
L 603.83517 464.282047 
L 725.580625 454.393463 
L 847.32608 439.08205 
L 969.071534 422.746369 
L 1090.816989 407.895751 
L 1212.562443 386.726869 
L 1334.307898 365.557987 
" style="fill:none;stroke:#4b0082;stroke-linecap:square;stroke-width:1.5;"/>
    <defs>
     <path d="M -3 3 
L 3 -3 
M -3 -3 
L 3 3 
" id="mb58e8cee9f" style="stroke:#4b0082;"/>
    </defs>
    <g clip-path="url(#p7a0b11f0c9)">
     <use style="fill:#4b0082;stroke:#4b0082;" x="116.853352" xlink:href="#mb58e8cee9f" y="483.48"/>
     <use style="fill:#4b0082;stroke:#4b0082;" x="238.598807" xlink:href="#mb58e8cee9f" y="483.088831"/>
     <use style="fill:#4b0082;stroke:#4b0082;" x="360.344261" xlink:href="#mb58e8cee9f" y="480.002255"/>
     <use style="fill:#4b0082;stroke:#4b0082;" x="482.089716" xlink:href="#mb58e8cee9f" y="474.993546"/>
     <use style="fill:#4b0082;stroke:#4b0082;" x="603.83517" xlink:href="#mb58e8cee9f" y="464.282047"/>
     <use style="fill:#4b0082;stroke:#4b0082;" x="725.580625" xlink:href="#mb58e8cee9f" y="454.393463"/>
     <use style="fill:#4b0082;stroke:#4b0082;" x="847.32608" xlink:href="#mb58e8cee9f" y="439.08205"/>
     <use style="fill:#4b0082;stroke:#4b0082;" x="969.071534" xlink:href="#mb58e8cee9f" y="422.746369"/>
     <use style="fill:#4b0082;stroke:#4b0082;" x="1090.816989" xlink:href="#mb58e8cee9f" y="407.895751"/>
     <use style="fill:#4b0082;stroke:#4b0082;" x="1212.562443" xlink:href="#mb58e8cee9f" y="386.726869"/>
     <use style="fill:#4b0082;stroke:#4b0082;" x="1334.307898" xlink:href="#mb58e8cee9f" y="365.557987"/>
    </g>
   </g>
   <g id="patch_3">
    <path d="M 55.980625 506.16 
L 55.980625 7.2 
" style="fill:none;stroke:#000000;stroke-linecap:square;stroke-linejoin:miter;stroke-width:0.8;"/>
   </g>
   <g id="patch_4">
    <path d="M 1395.180625 506.16 
L 1395.180625 7.2 
" style="fill:none;stroke:#000000;stroke-linecap:square;stroke-linejoin:miter;stroke-width:0.8;"/>
   </g>
   <g id="patch_5">
    <path d="M 55.980625 506.16 
L 1395.180625 506.16 
" style="fill:none;stroke:#000000;stroke-linecap:square;stroke-linejoin:miter;stroke-width:0.8;"/>
   </g>
   <g id="patch_6">
    <path d="M 55.980625 7.2 
L 1395.180625 7.2 
" style="fill:none;stroke:#000000;stroke-linecap:square;stroke-linejoin:miter;stroke-width:0.8;"/>
   </g>
   <g id="legend_1">
    <g id="patch_7">
     <path d="M 64.380625 123.15 
L 407.5 123.15 
Q 409.9 123.15 409.9 120.75 
L 409.9 15.6 
Q 409.9 13.2 407.5 13.2 
L 64.380625 13.2 
Q 61.980625 13.2 61.980625 15.6 
L 61.980625 120.75 
Q 61.980625 123.15 64.380625 123.15 
z
" style="fill:#ffffff;opacity:0.8;stroke:#cccccc;stroke-linejoin:miter;"/>
    </g>
    <g id="line2d_23">
     <path d="M 66.780625 22.918125 
L 90.780625 22.918125 
" style="fill:none;stroke:#ff0000;stroke-linecap:square;stroke-width:1.5;"/>
    </g>
    <g id="line2d_24">
     <g>
      <use style="fill:#ff0000;stroke:#ff0000;" x="78.780625" xlink:href="#mbec464f610" y="22.918125"/>
     </g>
    </g>
    <g id="text_14">
     <!-- assign operator -->
     <defs>
      <path d="M 34.28125 27.484375 
Q 23.390625 27.484375 19.1875 25 
Q 14.984375 22.515625 14.984375 16.5 
Q 14.984375 11.71875 18.140625 8.90625 
Q 21.296875 6.109375 26.703125 6.109375 
Q 34.1875 6.109375 38.703125 11.40625 
Q 43.21875 16.703125 43.21875 25.484375 
L 43.21875 27.484375 
z
M 52.203125 31.203125 
L 52.203125 0 
L 43.21875 0 
L 43.21875 8.296875 
Q 40.140625 3.328125 35.546875 0.953125 
Q 30.953125 -1.421875 24.3125 -1.421875 
Q 15.921875 -1.421875 10.953125 3.296875 
Q 6 8.015625 6 15.921875 
Q 6 25.140625 12.171875 29.828125 
Q 18.359375 34.515625 30.609375 34.515625 
L 43.21875 34.515625 
L 43.21875 35.40625 
Q 43.21875 41.609375 39.140625 45 
Q 35.0625 48.390625 27.6875 48.390625 
Q 23 48.390625 18.546875 47.265625 
Q 14.109375 46.140625 10.015625 43.890625 
L 10.015625 52.203125 
Q 14.9375 54.109375 19.578125 55.046875 
Q 24.21875 56 28.609375 56 
Q 40.484375 56 46.34375 49.84375 
Q 52.203125 43.703125 52.203125 31.203125 
z
" id="DejaVuSans-97"/>
      <path d="M 45.40625 27.984375 
Q 45.40625 37.75 41.375 43.109375 
Q 37.359375 48.484375 30.078125 48.484375 
Q 22.859375 48.484375 18.828125 43.109375 
Q 14.796875 37.75 14.796875 27.984375 
Q 14.796875 18.265625 18.828125 12.890625 
Q 22.859375 7.515625 30.078125 7.515625 
Q 37.359375 7.515625 41.375 12.890625 
Q 45.40625 18.265625 45.40625 27.984375 
z
M 54.390625 6.78125 
Q 54.390625 -7.171875 48.1875 -13.984375 
Q 42 -20.796875 29.203125 -20.796875 
Q 24.46875 -20.796875 20.265625 -20.09375 
Q 16.0625 -19.390625 12.109375 -17.921875 
L 12.109375 -9.1875 
Q 16.0625 -11.328125 19.921875 -12.34375 
Q 23.78125 -13.375 27.78125 -13.375 
Q 36.625 -13.375 41.015625 -8.765625 
Q 45.40625 -4.15625 45.40625 5.171875 
L 45.40625 9.625 
Q 42.625 4.78125 38.28125 2.390625 
Q 33.9375 0 27.875 0 
Q 17.828125 0 11.671875 7.65625 
Q 5.515625 15.328125 5.515625 27.984375 
Q 5.515625 40.671875 11.671875 48.328125 
Q 17.828125 56 27.875 56 
Q 33.9375 56 38.28125 53.609375 
Q 42.625 51.21875 45.40625 46.390625 
L 45.40625 54.6875 
L 54.390625 54.6875 
z
" id="DejaVuSans-103"/>
      <path d="M 30.609375 48.390625 
Q 23.390625 48.390625 19.1875 42.75 
Q 14.984375 37.109375 14.984375 27.296875 
Q 14.984375 17.484375 19.15625 11.84375 
Q 23.34375 6.203125 30.609375 6.203125 
Q 37.796875 6.203125 41.984375 11.859375 
Q 46.1875 17.53125 46.1875 27.296875 
Q 46.1875 37.015625 41.984375 42.703125 
Q 37.796875 48.390625 30.609375 48.390625 
z
M 30.609375 56 
Q 42.328125 56 49.015625 48.375 
Q 55.71875 40.765625 55.71875 27.296875 
Q 55.71875 13.875 49.015625 6.21875 
Q 42.328125 -1.421875 30.609375 -1.421875 
Q 18.84375 -1.421875 12.171875 6.21875 
Q 5.515625 13.875 5.515625 27.296875 
Q 5.515625 40.765625 12.171875 48.375 
Q 18.84375 56 30.609375 56 
z
" id="DejaVuSans-111"/>
      <path d="M 18.109375 8.203125 
L 18.109375 -20.796875 
L 9.078125 -20.796875 
L 9.078125 54.6875 
L 18.109375 54.6875 
L 18.109375 46.390625 
Q 20.953125 51.265625 25.265625 53.625 
Q 29.59375 56 35.59375 56 
Q 45.5625 56 51.78125 48.09375 
Q 58.015625 40.1875 58.015625 27.296875 
Q 58.015625 14.40625 51.78125 6.484375 
Q 45.5625 -1.421875 35.59375 -1.421875 
Q 29.59375 -1.421875 25.265625 0.953125 
Q 20.953125 3.328125 18.109375 8.203125 
z
M 48.6875 27.296875 
Q 48.6875 37.203125 44.609375 42.84375 
Q 40.53125 48.484375 33.40625 48.484375 
Q 26.265625 48.484375 22.1875 42.84375 
Q 18.109375 37.203125 18.109375 27.296875 
Q 18.109375 17.390625 22.1875 11.75 
Q 26.265625 6.109375 33.40625 6.109375 
Q 40.53125 6.109375 44.609375 11.75 
Q 48.6875 17.390625 48.6875 27.296875 
z
" id="DejaVuSans-112"/>
      <path d="M 41.109375 46.296875 
Q 39.59375 47.171875 37.8125 47.578125 
Q 36.03125 48 33.890625 48 
Q 26.265625 48 22.1875 43.046875 
Q 18.109375 38.09375 18.109375 28.8125 
L 18.109375 0 
L 9.078125 0 
L 9.078125 54.6875 
L 18.109375 54.6875 
L 18.109375 46.1875 
Q 20.953125 51.171875 25.484375 53.578125 
Q 30.03125 56 36.53125 56 
Q 37.453125 56 38.578125 55.875 
Q 39.703125 55.765625 41.0625 55.515625 
z
" id="DejaVuSans-114"/>
      <path d="M 18.3125 70.21875 
L 18.3125 54.6875 
L 36.8125 54.6875 
L 36.8125 47.703125 
L 18.3125 47.703125 
L 18.3125 18.015625 
Q 18.3125 11.328125 20.140625 9.421875 
Q 21.96875 7.515625 27.59375 7.515625 
L 36.8125 7.515625 
L 36.8125 0 
L 27.59375 0 
Q 17.1875 0 13.234375 3.875 
Q 9.28125 7.765625 9.28125 18.015625 
L 9.28125 47.703125 
L 2.6875 47.703125 
L 2.6875 54.6875 
L 9.28125 54.6875 
L 9.28125 70.21875 
z
" id="DejaVuSans-116"/>
     </defs>
     <g transform="translate(100.380625 27.118125)scale(0.12 -0.12)">
      <use xlink:href="#DejaVuSans-97"/>
      <use x="61.279297" xlink:href="#DejaVuSans-115"/>
      <use x="113.378906" xlink:href="#DejaVuSans-115"/>
      <use x="165.478516" xlink:href="#DejaVuSans-105"/>
      <use x="193.261719" xlink:href="#DejaVuSans-103"/>
      <use x="256.738281" xlink:href="#DejaVuSans-110"/>
      <use x="320.117188" xlink:href="#DejaVuSans-32"/>
      <use x="351.904297" xlink:href="#DejaVuSans-111"/>
      <use x="413.085938" xlink:href="#DejaVuSans-112"/>
      <use x="476.5625" xlink:href="#DejaVuSans-101"/>
      <use x="538.085938" xlink:href="#DejaVuSans-114"/>
      <use x="579.199219" xlink:href="#DejaVuSans-97"/>
      <use x="640.478516" xlink:href="#DejaVuSans-116"/>
      <use x="679.6875" xlink:href="#DejaVuSans-111"/>
      <use x="740.869141" xlink:href="#DejaVuSans-114"/>
     </g>
    </g>
    <g id="line2d_25">
     <path d="M 66.780625 40.531875 
L 90.780625 40.531875 
" style="fill:none;stroke:#ffa500;stroke-linecap:square;stroke-width:1.5;"/>
    </g>
    <g id="line2d_26">
     <g>
      <use style="fill:#ffa500;stroke:#ffa500;" x="78.780625" xlink:href="#m1c9931ab7c" y="40.531875"/>
     </g>
    </g>
    <g id="text_15">
     <!-- std::copy with iterators -->
     <defs>
      <path d="M 45.40625 46.390625 
L 45.40625 75.984375 
L 54.390625 75.984375 
L 54.390625 0 
L 45.40625 0 
L 45.40625 8.203125 
Q 42.578125 3.328125 38.25 0.953125 
Q 33.9375 -1.421875 27.875 -1.421875 
Q 17.96875 -1.421875 11.734375 6.484375 
Q 5.515625 14.40625 5.515625 27.296875 
Q 5.515625 40.1875 11.734375 48.09375 
Q 17.96875 56 27.875 56 
Q 33.9375 56 38.25 53.625 
Q 42.578125 51.265625 45.40625 46.390625 
z
M 14.796875 27.296875 
Q 14.796875 17.390625 18.875 11.75 
Q 22.953125 6.109375 30.078125 6.109375 
Q 37.203125 6.109375 41.296875 11.75 
Q 45.40625 17.390625 45.40625 27.296875 
Q 45.40625 37.203125 41.296875 42.84375 
Q 37.203125 48.484375 30.078125 48.484375 
Q 22.953125 48.484375 18.875 42.84375 
Q 14.796875 37.203125 14.796875 27.296875 
z
" id="DejaVuSans-100"/>
      <path d="M 11.71875 12.40625 
L 22.015625 12.40625 
L 22.015625 0 
L 11.71875 0 
z
M 11.71875 51.703125 
L 22.015625 51.703125 
L 22.015625 39.3125 
L 11.71875 39.3125 
z
" id="DejaVuSans-58"/>
      <path d="M 48.78125 52.59375 
L 48.78125 44.1875 
Q 44.96875 46.296875 41.140625 47.34375 
Q 37.3125 48.390625 33.40625 48.390625 
Q 24.65625 48.390625 19.8125 42.84375 
Q 14.984375 37.3125 14.984375 27.296875 
Q 14.984375 17.28125 19.8125 11.734375 
Q 24.65625 6.203125 33.40625 6.203125 
Q 37.3125 6.203125 41.140625 7.25 
Q 44.96875 8.296875 48.78125 10.40625 
L 48.78125 2.09375 
Q 45.015625 0.34375 40.984375 -0.53125 
Q 36.96875 -1.421875 32.421875 -1.421875 
Q 20.0625 -1.421875 12.78125 6.34375 
Q 5.515625 14.109375 5.515625 27.296875 
Q 5.515625 40.671875 12.859375 48.328125 
Q 20.21875 56 33.015625 56 
Q 37.15625 56 41.109375 55.140625 
Q 45.0625 54.296875 48.78125 52.59375 
z
" id="DejaVuSans-99"/>
      <path d="M 32.171875 -5.078125 
Q 28.375 -14.84375 24.75 -17.8125 
Q 21.140625 -20.796875 15.09375 -20.796875 
L 7.90625 -20.796875 
L 7.90625 -13.28125 
L 13.1875 -13.28125 
Q 16.890625 -13.28125 18.9375 -11.515625 
Q 21 -9.765625 23.484375 -3.21875 
L 25.09375 0.875 
L 2.984375 54.6875 
L 12.5 54.6875 
L 29.59375 11.921875 
L 46.6875 54.6875 
L 56.203125 54.6875 
z
" id="DejaVuSans-121"/>
      <path d="M 4.203125 54.6875 
L 13.1875 54.6875 
L 24.421875 12.015625 
L 35.59375 54.6875 
L 46.1875 54.6875 
L 57.421875 12.015625 
L 68.609375 54.6875 
L 77.59375 54.6875 
L 63.28125 0 
L 52.6875 0 
L 40.921875 44.828125 
L 29.109375 0 
L 18.5 0 
z
" id="DejaVuSans-119"/>
      <path d="M 54.890625 33.015625 
L 54.890625 0 
L 45.90625 0 
L 45.90625 32.71875 
Q 45.90625 40.484375 42.875 44.328125 
Q 39.84375 48.1875 33.796875 48.1875 
Q 26.515625 48.1875 22.3125 43.546875 
Q 18.109375 38.921875 18.109375 30.90625 
L 18.109375 0 
L 9.078125 0 
L 9.078125 75.984375 
L 18.109375 75.984375 
L 18.109375 46.1875 
Q 21.34375 51.125 25.703125 53.5625 
Q 30.078125 56 35.796875 56 
Q 45.21875 56 50.046875 50.171875 
Q 54.890625 44.34375 54.890625 33.015625 
z
" id="DejaVuSans-104"/>
     </defs>
     <g transform="translate(100.380625 44.731875)scale(0.12 -0.12)">
      <use xlink:href="#DejaVuSans-115"/>
      <use x="52.099609" xlink:href="#DejaVuSans-116"/>
      <use x="91.308594" xlink:href="#DejaVuSans-100"/>
      <use x="154.785156" xlink:href="#DejaVuSans-58"/>
      <use x="188.476562" xlink:href="#DejaVuSans-58"/>
      <use x="222.167969" xlink:href="#DejaVuSans-99"/>
      <use x="277.148438" xlink:href="#DejaVuSans-111"/>
      <use x="338.330078" xlink:href="#DejaVuSans-112"/>
      <use x="401.806641" xlink:href="#DejaVuSans-121"/>
      <use x="460.986328" xlink:href="#DejaVuSans-32"/>
      <use x="492.773438" xlink:href="#DejaVuSans-119"/>
      <use x="574.560547" xlink:href="#DejaVuSans-105"/>
      <use x="602.34375" xlink:href="#DejaVuSans-116"/>
      <use x="641.552734" xlink:href="#DejaVuSans-104"/>
      <use x="704.931641" xlink:href="#DejaVuSans-32"/>
      <use x="736.71875" xlink:href="#DejaVuSans-105"/>
      <use x="764.501953" xlink:href="#DejaVuSans-116"/>
      <use x="803.710938" xlink:href="#DejaVuSans-101"/>
      <use x="865.234375" xlink:href="#DejaVuSans-114"/>
      <use x="906.347656" xlink:href="#DejaVuSans-97"/>
      <use x="967.626953" xlink:href="#DejaVuSans-116"/>
      <use x="1006.835938" xlink:href="#DejaVuSans-111"/>
      <use x="1068.017578" xlink:href="#DejaVuSans-114"/>
      <use x="1109.130859" xlink:href="#DejaVuSans-115"/>
     </g>
    </g>
    <g id="line2d_27">
     <path d="M 66.780625 58.145625 
L 90.780625 58.145625 
" style="fill:none;stroke:#cccc00;stroke-linecap:square;stroke-width:1.5;"/>
    </g>
    <g id="line2d_28">
     <g>
      <use style="fill:#cccc00;stroke:#cccc00;" x="78.780625" xlink:href="#m41755b49c1" y="58.145625"/>
     </g>
    </g>
    <g id="text_16">
     <!-- copy to xstrided_view via operator() against cache -->
     <defs>
      <path d="M 54.890625 54.6875 
L 35.109375 28.078125 
L 55.90625 0 
L 45.3125 0 
L 29.390625 21.484375 
L 13.484375 0 
L 2.875 0 
L 24.125 28.609375 
L 4.6875 54.6875 
L 15.28125 54.6875 
L 29.78125 35.203125 
L 44.28125 54.6875 
z
" id="DejaVuSans-120"/>
      <path d="M 50.984375 -16.609375 
L 50.984375 -23.578125 
L -0.984375 -23.578125 
L -0.984375 -16.609375 
z
" id="DejaVuSans-95"/>
      <path d="M 2.984375 54.6875 
L 12.5 54.6875 
L 29.59375 8.796875 
L 46.6875 54.6875 
L 56.203125 54.6875 
L 35.6875 0 
L 23.484375 0 
z
" id="DejaVuSans-118"/>
     </defs>
     <g transform="translate(100.380625 62.345625)scale(0.12 -0.12)">
      <use xlink:href="#DejaVuSans-99"/>
      <use x="54.980469" xlink:href="#DejaVuSans-111"/>
      <use x="116.162109" xlink:href="#DejaVuSans-112"/>
      <use x="179.638672" xlink:href="#DejaVuSans-121"/>
      <use x="238.818359" xlink:href="#DejaVuSans-32"/>
      <use x="270.605469" xlink:href="#DejaVuSans-116"/>
      <use x="309.814453" xlink:href="#DejaVuSans-111"/>
      <use x="370.996094" xlink:href="#DejaVuSans-32"/>
      <use x="402.783203" xlink:href="#DejaVuSans-120"/>
      <use x="461.962891" xlink:href="#DejaVuSans-115"/>
      <use x="514.0625" xlink:href="#DejaVuSans-116"/>
      <use x="553.271484" xlink:href="#DejaVuSans-114"/>
      <use x="594.384766" xlink:href="#DejaVuSans-105"/>
      <use x="622.167969" xlink:href="#DejaVuSans-100"/>
      <use x="685.644531" xlink:href="#DejaVuSans-101"/>
      <use x="747.167969" xlink:href="#DejaVuSans-100"/>
      <use x="810.644531" xlink:href="#DejaVuSans-95"/>
      <use x="860.644531" xlink:href="#DejaVuSans-118"/>
      <use x="919.824219" xlink:href="#DejaVuSans-105"/>
      <use x="947.607422" xlink:href="#DejaVuSans-101"/>
      <use x="1009.130859" xlink:href="#DejaVuSans-119"/>
      <use x="1090.917969" xlink:href="#DejaVuSans-32"/>
      <use x="1122.705078" xlink:href="#DejaVuSans-118"/>
      <use x="1181.884766" xlink:href="#DejaVuSans-105"/>
      <use x="1209.667969" xlink:href="#DejaVuSans-97"/>
      <use x="1270.947266" xlink:href="#DejaVuSans-32"/>
      <use x="1302.734375" xlink:href="#DejaVuSans-111"/>
      <use x="1363.916016" xlink:href="#DejaVuSans-112"/>
      <use x="1427.392578" xlink:href="#DejaVuSans-101"/>
      <use x="1488.916016" xlink:href="#DejaVuSans-114"/>
      <use x="1530.029297" xlink:href="#DejaVuSans-97"/>
      <use x="1591.308594" xlink:href="#DejaVuSans-116"/>
      <use x="1630.517578" xlink:href="#DejaVuSans-111"/>
      <use x="1691.699219" xlink:href="#DejaVuSans-114"/>
      <use x="1732.8125" xlink:href="#DejaVuSans-40"/>
      <use x="1771.826172" xlink:href="#DejaVuSans-41"/>
      <use x="1810.839844" xlink:href="#DejaVuSans-32"/>
      <use x="1842.626953" xlink:href="#DejaVuSans-97"/>
      <use x="1903.90625" xlink:href="#DejaVuSans-103"/>
      <use x="1967.382812" xlink:href="#DejaVuSans-97"/>
      <use x="2028.662109" xlink:href="#DejaVuSans-105"/>
      <use x="2056.445312" xlink:href="#DejaVuSans-110"/>
      <use x="2119.824219" xlink:href="#DejaVuSans-115"/>
      <use x="2171.923828" xlink:href="#DejaVuSans-116"/>
      <use x="2211.132812" xlink:href="#DejaVuSans-32"/>
      <use x="2242.919922" xlink:href="#DejaVuSans-99"/>
      <use x="2297.900391" xlink:href="#DejaVuSans-97"/>
      <use x="2359.179688" xlink:href="#DejaVuSans-99"/>
      <use x="2414.160156" xlink:href="#DejaVuSans-104"/>
      <use x="2477.539062" xlink:href="#DejaVuSans-101"/>
     </g>
    </g>
    <g id="line2d_29">
     <path d="M 66.780625 76.093125 
L 90.780625 76.093125 
" style="fill:none;stroke:#008000;stroke-linecap:square;stroke-width:1.5;"/>
    </g>
    <g id="line2d_30">
     <g>
      <use style="fill:#008000;stroke:#008000;" x="78.780625" xlink:href="#mc8283b17a8" y="76.093125"/>
     </g>
    </g>
    <g id="text_17">
     <!-- copy to xstrided_view via operator() cache aligned -->
     <defs>
      <path d="M 9.421875 75.984375 
L 18.40625 75.984375 
L 18.40625 0 
L 9.421875 0 
z
" id="DejaVuSans-108"/>
     </defs>
     <g transform="translate(100.380625 80.293125)scale(0.12 -0.12)">
      <use xlink:href="#DejaVuSans-99"/>
      <use x="54.980469" xlink:href="#DejaVuSans-111"/>
      <use x="116.162109" xlink:href="#DejaVuSans-112"/>
      <use x="179.638672" xlink:href="#DejaVuSans-121"/>
      <use x="238.818359" xlink:href="#DejaVuSans-32"/>
      <use x="270.605469" xlink:href="#DejaVuSans-116"/>
      <use x="309.814453" xlink:href="#DejaVuSans-111"/>
      <use x="370.996094" xlink:href="#DejaVuSans-32"/>
      <use x="402.783203" xlink:href="#DejaVuSans-120"/>
      <use x="461.962891" xlink:href="#DejaVuSans-115"/>
      <use x="514.0625" xlink:href="#DejaVuSans-116"/>
      <use x="553.271484" xlink:href="#DejaVuSans-114"/>
      <use x="594.384766" xlink:href="#DejaVuSans-105"/>
      <use x="622.167969" xlink:href="#DejaVuSans-100"/>
      <use x="685.644531" xlink:href="#DejaVuSans-101"/>
      <use x="747.167969" xlink:href="#DejaVuSans-100"/>
      <use x="810.644531" xlink:href="#DejaVuSans-95"/>
      <use x="860.644531" xlink:href="#DejaVuSans-118"/>
      <use x="919.824219" xlink:href="#DejaVuSans-105"/>
      <use x="947.607422" xlink:href="#DejaVuSans-101"/>
      <use x="1009.130859" xlink:href="#DejaVuSans-119"/>
      <use x="1090.917969" xlink:href="#DejaVuSans-32"/>
      <use x="1122.705078" xlink:href="#DejaVuSans-118"/>
      <use x="1181.884766" xlink:href="#DejaVuSans-105"/>
      <use x="1209.667969" xlink:href="#DejaVuSans-97"/>
      <use x="1270.947266" xlink:href="#DejaVuSans-32"/>
      <use x="1302.734375" xlink:href="#DejaVuSans-111"/>
      <use x="1363.916016" xlink:href="#DejaVuSans-112"/>
      <use x="1427.392578" xlink:href="#DejaVuSans-101"/>
      <use x="1488.916016" xlink:href="#DejaVuSans-114"/>
      <use x="1530.029297" xlink:href="#DejaVuSans-97"/>
      <use x="1591.308594" xlink:href="#DejaVuSans-116"/>
      <use x="1630.517578" xlink:href="#DejaVuSans-111"/>
      <use x="1691.699219" xlink:href="#DejaVuSans-114"/>
      <use x="1732.8125" xlink:href="#DejaVuSans-40"/>
      <use x="1771.826172" xlink:href="#DejaVuSans-41"/>
      <use x="1810.839844" xlink:href="#DejaVuSans-32"/>
      <use x="1842.626953" xlink:href="#DejaVuSans-99"/>
      <use x="1897.607422" xlink:href="#DejaVuSans-97"/>
      <use x="1958.886719" xlink:href="#DejaVuSans-99"/>
      <use x="2013.867188" xlink:href="#DejaVuSans-104"/>
      <use x="2077.246094" xlink:href="#DejaVuSans-101"/>
      <use x="2138.769531" xlink:href="#DejaVuSans-32"/>
      <use x="2170.556641" xlink:href="#DejaVuSans-97"/>
      <use x="2231.835938" xlink:href="#DejaVuSans-108"/>
      <use x="2259.619141" xlink:href="#DejaVuSans-105"/>
      <use x="2287.402344" xlink:href="#DejaVuSans-103"/>
      <use x="2350.878906" xlink:href="#DejaVuSans-110"/>
      <use x="2414.257812" xlink:href="#DejaVuSans-101"/>
      <use x="2475.78125" xlink:href="#DejaVuSans-100"/>
     </g>
    </g>
    <g id="line2d_31">
     <path d="M 66.780625 94.040625 
L 90.780625 94.040625 
" style="fill:none;stroke:#0000ff;stroke-linecap:square;stroke-width:1.5;"/>
    </g>
    <g id="line2d_32">
     <g>
      <use style="fill:#0000ff;stroke:#0000ff;" x="78.780625" xlink:href="#mcf2db41ace" y="94.040625"/>
     </g>
    </g>
    <g id="text_18">
     <!-- raw data copy against cache -->
     <g transform="translate(100.380625 98.240625)scale(0.12 -0.12)">
      <use xlink:href="#DejaVuSans-114"/>
      <use x="41.113281" xlink:href="#DejaVuSans-97"/>
      <use x="102.392578" xlink:href="#DejaVuSans-119"/>
      <use x="184.179688" xlink:href="#DejaVuSans-32"/>
      <use x="215.966797" xlink:href="#DejaVuSans-100"/>
      <use x="279.443359" xlink:href="#DejaVuSans-97"/>
      <use x="340.722656" xlink:href="#DejaVuSans-116"/>
      <use x="379.931641" xlink:href="#DejaVuSans-97"/>
      <use x="441.210938" xlink:href="#DejaVuSans-32"/>
      <use x="472.998047" xlink:href="#DejaVuSans-99"/>
      <use x="527.978516" xlink:href="#DejaVuSans-111"/>
      <use x="589.160156" xlink:href="#DejaVuSans-112"/>
      <use x="652.636719" xlink:href="#DejaVuSans-121"/>
      <use x="711.816406" xlink:href="#DejaVuSans-32"/>
      <use x="743.603516" xlink:href="#DejaVuSans-97"/>
      <use x="804.882812" xlink:href="#DejaVuSans-103"/>
      <use x="868.359375" xlink:href="#DejaVuSans-97"/>
      <use x="929.638672" xlink:href="#DejaVuSans-105"/>
      <use x="957.421875" xlink:href="#DejaVuSans-110"/>
      <use x="1020.800781" xlink:href="#DejaVuSans-115"/>
      <use x="1072.900391" xlink:href="#DejaVuSans-116"/>
      <use x="1112.109375" xlink:href="#DejaVuSans-32"/>
      <use x="1143.896484" xlink:href="#DejaVuSans-99"/>
      <use x="1198.876953" xlink:href="#DejaVuSans-97"/>
      <use x="1260.15625" xlink:href="#DejaVuSans-99"/>
      <use x="1315.136719" xlink:href="#DejaVuSans-104"/>
      <use x="1378.515625" xlink:href="#DejaVuSans-101"/>
     </g>
    </g>
    <g id="line2d_33">
     <path d="M 66.780625 111.654375 
L 90.780625 111.654375 
" style="fill:none;stroke:#4b0082;stroke-linecap:square;stroke-width:1.5;"/>
    </g>
    <g id="line2d_34">
     <g>
      <use style="fill:#4b0082;stroke:#4b0082;" x="78.780625" xlink:href="#mb58e8cee9f" y="111.654375"/>
     </g>
    </g>
    <g id="text_19">
     <!-- raw data copy cache aligned -->
     <g transform="translate(100.380625 115.854375)scale(0.12 -0.12)">
      <use xlink:href="#DejaVuSans-114"/>
      <use x="41.113281" xlink:href="#DejaVuSans-97"/>
      <use x="102.392578" xlink:href="#DejaVuSans-119"/>
      <use x="184.179688" xlink:href="#DejaVuSans-32"/>
      <use x="215.966797" xlink:href="#DejaVuSans-100"/>
      <use x="279.443359" xlink:href="#DejaVuSans-97"/>
      <use x="340.722656" xlink:href="#DejaVuSans-116"/>
      <use x="379.931641" xlink:href="#DejaVuSans-97"/>
      <use x="441.210938" xlink:href="#DejaVuSans-32"/>
      <use x="472.998047" xlink:href="#DejaVuSans-99"/>
      <use x="527.978516" xlink:href="#DejaVuSans-111"/>
      <use x="589.160156" xlink:href="#DejaVuSans-112"/>
      <use x="652.636719" xlink:href="#DejaVuSans-121"/>
      <use x="711.816406" xlink:href="#DejaVuSans-32"/>
      <use x="743.603516" xlink:href="#DejaVuSans-99"/>
      <use x="798.583984" xlink:href="#DejaVuSans-97"/>
      <use x="859.863281" xlink:href="#DejaVuSans-99"/>
      <use x="914.84375" xlink:href="#DejaVuSans-104"/>
      <use x="978.222656" xlink:href="#DejaVuSans-101"/>
      <use x="1039.746094" xlink:href="#DejaVuSans-32"/>
      <use x="1071.533203" xlink:href="#DejaVuSans-97"/>
      <use x="1132.8125" xlink:href="#DejaVuSans-108"/>
      <use x="1160.595703" xlink:href="#DejaVuSans-105"/>
      <use x="1188.378906" xlink:href="#DejaVuSans-103"/>
      <use x="1251.855469" xlink:href="#DejaVuSans-110"/>
      <use x="1315.234375" xlink:href="#DejaVuSans-101"/>
      <use x="1376.757812" xlink:href="#DejaVuSans-100"/>
     </g>
    </g>
   </g>
  </g>
 </g>
 <defs>
  <clipPath id="p7a0b11f0c9">
   <rect height="498.96" width="1339.2" x="55.980625" y="7.2"/>
  </clipPath>
 </defs>
</svg>
