<?xml version="1.0" encoding="utf-8" standalone="no"?>
<!DOCTYPE svg PUBLIC "-//W3C//DTD SVG 1.1//EN"
  "http://www.w3.org/Graphics/SVG/1.1/DTD/svg11.dtd">
<!-- Created with matplotlib (https://matplotlib.org/) -->
<svg height="553.394375pt" version="1.1" viewBox="0 0 1402.380625 553.394375" width="1402.380625pt" xmlns="http://www.w3.org/2000/svg" xmlns:xlink="http://www.w3.org/1999/xlink">
 <defs>
  <style type="text/css">
*{stroke-linecap:butt;stroke-linejoin:round;}
  </style>
 </defs>
 <g id="figure_1">
  <g id="patch_1">
   <path d="M 0 553.394375 
L 1402.380625 553.394375 
L 1402.380625 0 
L 0 0 
z
" style="fill:#ffffff;"/>
  </g>
  <g id="axes_1">
   <g id="patch_2">
    <path d="M 55.980625 506.16 
L 1395.180625 506.16 
L 1395.180625 7.2 
L 55.980625 7.2 
z
" style="fill:#ffffff;"/>
   </g>
   <g id="matplotlib.axis_1">
    <g id="xtick_1">
     <g id="line2d_1">
      <defs>
       <path d="M 0 0 
L 0 3.5 
" id="m96e2ac3fb6" style="stroke:#000000;stroke-width:0.8;"/>
      </defs>
      <g>
       <use style="stroke:#000000;stroke-width:0.8;" x="55.980625" xlink:href="#m96e2ac3fb6" y="506.16"/>
      </g>
     </g>
     <g id="text_1">
      <!-- 0 -->
      <defs>
       <path d="M 31.78125 66.40625 
Q 24.171875 66.40625 20.328125 58.90625 
Q 16.5 51.421875 16.5 36.375 
Q 16.5 21.390625 20.328125 13.890625 
Q 24.171875 6.390625 31.78125 6.390625 
Q 39.453125 6.390625 43.28125 13.890625 
Q 47.125 21.390625 47.125 36.375 
Q 47.125 51.421875 43.28125 58.90625 
Q 39.453125 66.40625 31.78125 66.40625 
z
M 31.78125 74.21875 
Q 44.046875 74.21875 50.515625 64.515625 
Q 56.984375 54.828125 56.984375 36.375 
Q 56.984375 17.96875 50.515625 8.265625 
Q 44.046875 -1.421875 31.78125 -1.421875 
Q 19.53125 -1.421875 13.0625 8.265625 
Q 6.59375 17.96875 6.59375 36.375 
Q 6.59375 54.828125 13.0625 64.515625 
Q 19.53125 74.21875 31.78125 74.21875 
z
" id="DejaVuSans-48"/>
      </defs>
      <g transform="translate(52.163125 522.278125)scale(0.12 -0.12)">
       <use xlink:href="#DejaVuSans-48"/>
      </g>
     </g>
    </g>
    <g id="xtick_2">
     <g id="line2d_2">
      <g>
       <use style="stroke:#000000;stroke-width:0.8;" x="299.471534" xlink:href="#m96e2ac3fb6" y="506.16"/>
      </g>
     </g>
     <g id="text_2">
      <!-- 200 -->
      <defs>
       <path d="M 19.1875 8.296875 
L 53.609375 8.296875 
L 53.609375 0 
L 7.328125 0 
L 7.328125 8.296875 
Q 12.9375 14.109375 22.625 23.890625 
Q 32.328125 33.6875 34.8125 36.53125 
Q 39.546875 41.84375 41.421875 45.53125 
Q 43.3125 49.21875 43.3125 52.78125 
Q 43.3125 58.59375 39.234375 62.25 
Q 35.15625 65.921875 28.609375 65.921875 
Q 23.96875 65.921875 18.8125 64.3125 
Q 13.671875 62.703125 7.8125 59.421875 
L 7.8125 69.390625 
Q 13.765625 71.78125 18.9375 73 
Q 24.125 74.21875 28.421875 74.21875 
Q 39.75 74.21875 46.484375 68.546875 
Q 53.21875 62.890625 53.21875 53.421875 
Q 53.21875 48.921875 51.53125 44.890625 
Q 49.859375 40.875 45.40625 35.40625 
Q 44.1875 33.984375 37.640625 27.21875 
Q 31.109375 20.453125 19.1875 8.296875 
z
" id="DejaVuSans-50"/>
      </defs>
      <g transform="translate(288.019034 522.278125)scale(0.12 -0.12)">
       <use xlink:href="#DejaVuSans-50"/>
       <use x="63.623047" xlink:href="#DejaVuSans-48"/>
       <use x="127.246094" xlink:href="#DejaVuSans-48"/>
      </g>
     </g>
    </g>
    <g id="xtick_3">
     <g id="line2d_3">
      <g>
       <use style="stroke:#000000;stroke-width:0.8;" x="542.962443" xlink:href="#m96e2ac3fb6" y="506.16"/>
      </g>
     </g>
     <g id="text_3">
      <!-- 400 -->
      <defs>
       <path d="M 37.796875 64.3125 
L 12.890625 25.390625 
L 37.796875 25.390625 
z
M 35.203125 72.90625 
L 47.609375 72.90625 
L 47.609375 25.390625 
L 58.015625 25.390625 
L 58.015625 17.1875 
L 47.609375 17.1875 
L 47.609375 0 
L 37.796875 0 
L 37.796875 17.1875 
L 4.890625 17.1875 
L 4.890625 26.703125 
z
" id="DejaVuSans-52"/>
      </defs>
      <g transform="translate(531.509943 522.278125)scale(0.12 -0.12)">
       <use xlink:href="#DejaVuSans-52"/>
       <use x="63.623047" xlink:href="#DejaVuSans-48"/>
       <use x="127.246094" xlink:href="#DejaVuSans-48"/>
      </g>
     </g>
    </g>
    <g id="xtick_4">
     <g id="line2d_4">
      <g>
       <use style="stroke:#000000;stroke-width:0.8;" x="786.453352" xlink:href="#m96e2ac3fb6" y="506.16"/>
      </g>
     </g>
     <g id="text_4">
      <!-- 600 -->
      <defs>
       <path d="M 33.015625 40.375 
Q 26.375 40.375 22.484375 35.828125 
Q 18.609375 31.296875 18.609375 23.390625 
Q 18.609375 15.53125 22.484375 10.953125 
Q 26.375 6.390625 33.015625 6.390625 
Q 39.65625 6.390625 43.53125 10.953125 
Q 47.40625 15.53125 47.40625 23.390625 
Q 47.40625 31.296875 43.53125 35.828125 
Q 39.65625 40.375 33.015625 40.375 
z
M 52.59375 71.296875 
L 52.59375 62.3125 
Q 48.875 64.0625 45.09375 64.984375 
Q 41.3125 65.921875 37.59375 65.921875 
Q 27.828125 65.921875 22.671875 59.328125 
Q 17.53125 52.734375 16.796875 39.40625 
Q 19.671875 43.65625 24.015625 45.921875 
Q 28.375 48.1875 33.59375 48.1875 
Q 44.578125 48.1875 50.953125 41.515625 
Q 57.328125 34.859375 57.328125 23.390625 
Q 57.328125 12.15625 50.6875 5.359375 
Q 44.046875 -1.421875 33.015625 -1.421875 
Q 20.359375 -1.421875 13.671875 8.265625 
Q 6.984375 17.96875 6.984375 36.375 
Q 6.984375 53.65625 15.1875 63.9375 
Q 23.390625 74.21875 37.203125 74.21875 
Q 40.921875 74.21875 44.703125 73.484375 
Q 48.484375 72.75 52.59375 71.296875 
z
" id="DejaVuSans-54"/>
      </defs>
      <g transform="translate(775.000852 522.278125)scale(0.12 -0.12)">
       <use xlink:href="#DejaVuSans-54"/>
       <use x="63.623047" xlink:href="#DejaVuSans-48"/>
       <use x="127.246094" xlink:href="#DejaVuSans-48"/>
      </g>
     </g>
    </g>
    <g id="xtick_5">
     <g id="line2d_5">
      <g>
       <use style="stroke:#000000;stroke-width:0.8;" x="1029.944261" xlink:href="#m96e2ac3fb6" y="506.16"/>
      </g>
     </g>
     <g id="text_5">
      <!-- 800 -->
      <defs>
       <path d="M 31.78125 34.625 
Q 24.75 34.625 20.71875 30.859375 
Q 16.703125 27.09375 16.703125 20.515625 
Q 16.703125 13.921875 20.71875 10.15625 
Q 24.75 6.390625 31.78125 6.390625 
Q 38.8125 6.390625 42.859375 10.171875 
Q 46.921875 13.96875 46.921875 20.515625 
Q 46.921875 27.09375 42.890625 30.859375 
Q 38.875 34.625 31.78125 34.625 
z
M 21.921875 38.8125 
Q 15.578125 40.375 12.03125 44.71875 
Q 8.5 49.078125 8.5 55.328125 
Q 8.5 64.0625 14.71875 69.140625 
Q 20.953125 74.21875 31.78125 74.21875 
Q 42.671875 74.21875 48.875 69.140625 
Q 55.078125 64.0625 55.078125 55.328125 
Q 55.078125 49.078125 51.53125 44.71875 
Q 48 40.375 41.703125 38.8125 
Q 48.828125 37.15625 52.796875 32.3125 
Q 56.78125 27.484375 56.78125 20.515625 
Q 56.78125 9.90625 50.3125 4.234375 
Q 43.84375 -1.421875 31.78125 -1.421875 
Q 19.734375 -1.421875 13.25 4.234375 
Q 6.78125 9.90625 6.78125 20.515625 
Q 6.78125 27.484375 10.78125 32.3125 
Q 14.796875 37.15625 21.921875 38.8125 
z
M 18.3125 54.390625 
Q 18.3125 48.734375 21.84375 45.5625 
Q 25.390625 42.390625 31.78125 42.390625 
Q 38.140625 42.390625 41.71875 45.5625 
Q 45.3125 48.734375 45.3125 54.390625 
Q 45.3125 60.0625 41.71875 63.234375 
Q 38.140625 66.40625 31.78125 66.40625 
Q 25.390625 66.40625 21.84375 63.234375 
Q 18.3125 60.0625 18.3125 54.390625 
z
" id="DejaVuSans-56"/>
      </defs>
      <g transform="translate(1018.491761 522.278125)scale(0.12 -0.12)">
       <use xlink:href="#DejaVuSans-56"/>
       <use x="63.623047" xlink:href="#DejaVuSans-48"/>
       <use x="127.246094" xlink:href="#DejaVuSans-48"/>
      </g>
     </g>
    </g>
    <g id="xtick_6">
     <g id="line2d_6">
      <g>
       <use style="stroke:#000000;stroke-width:0.8;" x="1273.43517" xlink:href="#m96e2ac3fb6" y="506.16"/>
      </g>
     </g>
     <g id="text_6">
      <!-- 1000 -->
      <defs>
       <path d="M 12.40625 8.296875 
L 28.515625 8.296875 
L 28.515625 63.921875 
L 10.984375 60.40625 
L 10.984375 69.390625 
L 28.421875 72.90625 
L 38.28125 72.90625 
L 38.28125 8.296875 
L 54.390625 8.296875 
L 54.390625 0 
L 12.40625 0 
z
" id="DejaVuSans-49"/>
      </defs>
      <g transform="translate(1258.16517 522.278125)scale(0.12 -0.12)">
       <use xlink:href="#DejaVuSans-49"/>
       <use x="63.623047" xlink:href="#DejaVuSans-48"/>
       <use x="127.246094" xlink:href="#DejaVuSans-48"/>
       <use x="190.869141" xlink:href="#DejaVuSans-48"/>
      </g>
     </g>
    </g>
    <g id="text_7">
     <!-- Size S -->
     <defs>
      <path d="M 53.515625 70.515625 
L 53.515625 60.890625 
Q 47.90625 63.578125 42.921875 64.890625 
Q 37.9375 66.21875 33.296875 66.21875 
Q 25.25 66.21875 20.875 63.09375 
Q 16.5 59.96875 16.5 54.203125 
Q 16.5 49.359375 19.40625 46.890625 
Q 22.3125 44.4375 30.421875 42.921875 
L 36.375 41.703125 
Q 47.40625 39.59375 52.65625 34.296875 
Q 57.90625 29 57.90625 20.125 
Q 57.90625 9.515625 50.796875 4.046875 
Q 43.703125 -1.421875 29.984375 -1.421875 
Q 24.8125 -1.421875 18.96875 -0.25 
Q 13.140625 0.921875 6.890625 3.21875 
L 6.890625 13.375 
Q 12.890625 10.015625 18.65625 8.296875 
Q 24.421875 6.59375 29.984375 6.59375 
Q 38.421875 6.59375 43.015625 9.90625 
Q 47.609375 13.234375 47.609375 19.390625 
Q 47.609375 24.75 44.3125 27.78125 
Q 41.015625 30.8125 33.5 32.328125 
L 27.484375 33.5 
Q 16.453125 35.6875 11.515625 40.375 
Q 6.59375 45.0625 6.59375 53.421875 
Q 6.59375 63.09375 13.40625 68.65625 
Q 20.21875 74.21875 32.171875 74.21875 
Q 37.3125 74.21875 42.625 73.28125 
Q 47.953125 72.359375 53.515625 70.515625 
z
" id="DejaVuSans-83"/>
      <path d="M 9.421875 54.6875 
L 18.40625 54.6875 
L 18.40625 0 
L 9.421875 0 
z
M 9.421875 75.984375 
L 18.40625 75.984375 
L 18.40625 64.59375 
L 9.421875 64.59375 
z
" id="DejaVuSans-105"/>
      <path d="M 5.515625 54.6875 
L 48.1875 54.6875 
L 48.1875 46.484375 
L 14.40625 7.171875 
L 48.1875 7.171875 
L 48.1875 0 
L 4.296875 0 
L 4.296875 8.203125 
L 38.09375 47.515625 
L 5.515625 47.515625 
z
" id="DejaVuSans-122"/>
      <path d="M 56.203125 29.59375 
L 56.203125 25.203125 
L 14.890625 25.203125 
Q 15.484375 15.921875 20.484375 11.0625 
Q 25.484375 6.203125 34.421875 6.203125 
Q 39.59375 6.203125 44.453125 7.46875 
Q 49.3125 8.734375 54.109375 11.28125 
L 54.109375 2.78125 
Q 49.265625 0.734375 44.1875 -0.34375 
Q 39.109375 -1.421875 33.890625 -1.421875 
Q 20.796875 -1.421875 13.15625 6.1875 
Q 5.515625 13.8125 5.515625 26.8125 
Q 5.515625 40.234375 12.765625 48.109375 
Q 20.015625 56 32.328125 56 
Q 43.359375 56 49.78125 48.890625 
Q 56.203125 41.796875 56.203125 29.59375 
z
M 47.21875 32.234375 
Q 47.125 39.59375 43.09375 43.984375 
Q 39.0625 48.390625 32.421875 48.390625 
Q 24.90625 48.390625 20.390625 44.140625 
Q 15.875 39.890625 15.1875 32.171875 
z
" id="DejaVuSans-101"/>
      <path id="DejaVuSans-32"/>
     </defs>
     <g transform="translate(698.531406 542.450938)scale(0.18 -0.18)">
      <use xlink:href="#DejaVuSans-83"/>
      <use x="63.476562" xlink:href="#DejaVuSans-105"/>
      <use x="91.259766" xlink:href="#DejaVuSans-122"/>
      <use x="143.75" xlink:href="#DejaVuSans-101"/>
      <use x="205.273438" xlink:href="#DejaVuSans-32"/>
      <use x="237.060547" xlink:href="#DejaVuSans-83"/>
     </g>
    </g>
   </g>
   <g id="matplotlib.axis_2">
    <g id="ytick_1">
     <g id="line2d_7">
      <path clip-path="url(#p762f2b9e6f)" d="M 55.980625 483.496509 
L 1395.180625 483.496509 
" style="fill:none;stroke:#b0b0b0;stroke-linecap:square;stroke-width:0.8;"/>
     </g>
     <g id="line2d_8">
      <defs>
       <path d="M 0 0 
L -3.5 0 
" id="mf98b53a246" style="stroke:#000000;stroke-width:0.8;"/>
      </defs>
      <g>
       <use style="stroke:#000000;stroke-width:0.8;" x="55.980625" xlink:href="#mf98b53a246" y="483.496509"/>
      </g>
     </g>
     <g id="text_8">
      <!-- 0 -->
      <g transform="translate(38.800625 489.575259)scale(0.16 -0.16)">
       <use xlink:href="#DejaVuSans-48"/>
      </g>
     </g>
    </g>
    <g id="ytick_2">
     <g id="line2d_9">
      <path clip-path="url(#p762f2b9e6f)" d="M 55.980625 420.384647 
L 1395.180625 420.384647 
" style="fill:none;stroke:#b0b0b0;stroke-linecap:square;stroke-width:0.8;"/>
     </g>
     <g id="line2d_10">
      <g>
       <use style="stroke:#000000;stroke-width:0.8;" x="55.980625" xlink:href="#mf98b53a246" y="420.384647"/>
      </g>
     </g>
     <g id="text_9">
      <!-- 2 -->
      <g transform="translate(38.800625 426.463397)scale(0.16 -0.16)">
       <use xlink:href="#DejaVuSans-50"/>
      </g>
     </g>
    </g>
    <g id="ytick_3">
     <g id="line2d_11">
      <path clip-path="url(#p762f2b9e6f)" d="M 55.980625 357.272785 
L 1395.180625 357.272785 
" style="fill:none;stroke:#b0b0b0;stroke-linecap:square;stroke-width:0.8;"/>
     </g>
     <g id="line2d_12">
      <g>
       <use style="stroke:#000000;stroke-width:0.8;" x="55.980625" xlink:href="#mf98b53a246" y="357.272785"/>
      </g>
     </g>
     <g id="text_10">
      <!-- 4 -->
      <g transform="translate(38.800625 363.351535)scale(0.16 -0.16)">
       <use xlink:href="#DejaVuSans-52"/>
      </g>
     </g>
    </g>
    <g id="ytick_4">
     <g id="line2d_13">
      <path clip-path="url(#p762f2b9e6f)" d="M 55.980625 294.160922 
L 1395.180625 294.160922 
" style="fill:none;stroke:#b0b0b0;stroke-linecap:square;stroke-width:0.8;"/>
     </g>
     <g id="line2d_14">
      <g>
       <use style="stroke:#000000;stroke-width:0.8;" x="55.980625" xlink:href="#mf98b53a246" y="294.160922"/>
      </g>
     </g>
     <g id="text_11">
      <!-- 6 -->
      <g transform="translate(38.800625 300.239672)scale(0.16 -0.16)">
       <use xlink:href="#DejaVuSans-54"/>
      </g>
     </g>
    </g>
    <g id="ytick_5">
     <g id="line2d_15">
      <path clip-path="url(#p762f2b9e6f)" d="M 55.980625 231.04906 
L 1395.180625 231.04906 
" style="fill:none;stroke:#b0b0b0;stroke-linecap:square;stroke-width:0.8;"/>
     </g>
     <g id="line2d_16">
      <g>
       <use style="stroke:#000000;stroke-width:0.8;" x="55.980625" xlink:href="#mf98b53a246" y="231.04906"/>
      </g>
     </g>
     <g id="text_12">
      <!-- 8 -->
      <g transform="translate(38.800625 237.12781)scale(0.16 -0.16)">
       <use xlink:href="#DejaVuSans-56"/>
      </g>
     </g>
    </g>
    <g id="ytick_6">
     <g id="line2d_17">
      <path clip-path="url(#p762f2b9e6f)" d="M 55.980625 167.937198 
L 1395.180625 167.937198 
" style="fill:none;stroke:#b0b0b0;stroke-linecap:square;stroke-width:0.8;"/>
     </g>
     <g id="line2d_18">
      <g>
       <use style="stroke:#000000;stroke-width:0.8;" x="55.980625" xlink:href="#mf98b53a246" y="167.937198"/>
      </g>
     </g>
     <g id="text_13">
      <!-- 10 -->
      <g transform="translate(28.620625 174.015948)scale(0.16 -0.16)">
       <use xlink:href="#DejaVuSans-49"/>
       <use x="63.623047" xlink:href="#DejaVuSans-48"/>
      </g>
     </g>
    </g>
    <g id="ytick_7">
     <g id="line2d_19">
      <path clip-path="url(#p762f2b9e6f)" d="M 55.980625 104.825336 
L 1395.180625 104.825336 
" style="fill:none;stroke:#b0b0b0;stroke-linecap:square;stroke-width:0.8;"/>
     </g>
     <g id="line2d_20">
      <g>
       <use style="stroke:#000000;stroke-width:0.8;" x="55.980625" xlink:href="#mf98b53a246" y="104.825336"/>
      </g>
     </g>
     <g id="text_14">
      <!-- 12 -->
      <g transform="translate(28.620625 110.904086)scale(0.16 -0.16)">
       <use xlink:href="#DejaVuSans-49"/>
       <use x="63.623047" xlink:href="#DejaVuSans-50"/>
      </g>
     </g>
    </g>
    <g id="ytick_8">
     <g id="line2d_21">
      <path clip-path="url(#p762f2b9e6f)" d="M 55.980625 41.713474 
L 1395.180625 41.713474 
" style="fill:none;stroke:#b0b0b0;stroke-linecap:square;stroke-width:0.8;"/>
     </g>
     <g id="line2d_22">
      <g>
       <use style="stroke:#000000;stroke-width:0.8;" x="55.980625" xlink:href="#mf98b53a246" y="41.713474"/>
      </g>
     </g>
     <g id="text_15">
      <!-- 14 -->
      <g transform="translate(28.620625 47.792224)scale(0.16 -0.16)">
       <use xlink:href="#DejaVuSans-49"/>
       <use x="63.623047" xlink:href="#DejaVuSans-52"/>
      </g>
     </g>
    </g>
    <g id="text_16">
     <!-- Minimum Time (ms) -->
     <defs>
      <path d="M 9.8125 72.90625 
L 24.515625 72.90625 
L 43.109375 23.296875 
L 61.8125 72.90625 
L 76.515625 72.90625 
L 76.515625 0 
L 66.890625 0 
L 66.890625 64.015625 
L 48.09375 14.015625 
L 38.1875 14.015625 
L 19.390625 64.015625 
L 19.390625 0 
L 9.8125 0 
z
" id="DejaVuSans-77"/>
      <path d="M 54.890625 33.015625 
L 54.890625 0 
L 45.90625 0 
L 45.90625 32.71875 
Q 45.90625 40.484375 42.875 44.328125 
Q 39.84375 48.1875 33.796875 48.1875 
Q 26.515625 48.1875 22.3125 43.546875 
Q 18.109375 38.921875 18.109375 30.90625 
L 18.109375 0 
L 9.078125 0 
L 9.078125 54.6875 
L 18.109375 54.6875 
L 18.109375 46.1875 
Q 21.34375 51.125 25.703125 53.5625 
Q 30.078125 56 35.796875 56 
Q 45.21875 56 50.046875 50.171875 
Q 54.890625 44.34375 54.890625 33.015625 
z
" id="DejaVuSans-110"/>
      <path d="M 52 44.1875 
Q 55.375 50.25 60.0625 53.125 
Q 64.75 56 71.09375 56 
Q 79.640625 56 84.28125 50.015625 
Q 88.921875 44.046875 88.921875 33.015625 
L 88.921875 0 
L 79.890625 0 
L 79.890625 32.71875 
Q 79.890625 40.578125 77.09375 44.375 
Q 74.3125 48.1875 68.609375 48.1875 
Q 61.625 48.1875 57.5625 43.546875 
Q 53.515625 38.921875 53.515625 30.90625 
L 53.515625 0 
L 44.484375 0 
L 44.484375 32.71875 
Q 44.484375 40.625 41.703125 44.40625 
Q 38.921875 48.1875 33.109375 48.1875 
Q 26.21875 48.1875 22.15625 43.53125 
Q 18.109375 38.875 18.109375 30.90625 
L 18.109375 0 
L 9.078125 0 
L 9.078125 54.6875 
L 18.109375 54.6875 
L 18.109375 46.1875 
Q 21.1875 51.21875 25.484375 53.609375 
Q 29.78125 56 35.6875 56 
Q 41.65625 56 45.828125 52.96875 
Q 50 49.953125 52 44.1875 
z
" id="DejaVuSans-109"/>
      <path d="M 8.5 21.578125 
L 8.5 54.6875 
L 17.484375 54.6875 
L 17.484375 21.921875 
Q 17.484375 14.15625 20.5 10.265625 
Q 23.53125 6.390625 29.59375 6.390625 
Q 36.859375 6.390625 41.078125 11.03125 
Q 45.3125 15.671875 45.3125 23.6875 
L 45.3125 54.6875 
L 54.296875 54.6875 
L 54.296875 0 
L 45.3125 0 
L 45.3125 8.40625 
Q 42.046875 3.421875 37.71875 1 
Q 33.40625 -1.421875 27.6875 -1.421875 
Q 18.265625 -1.421875 13.375 4.4375 
Q 8.5 10.296875 8.5 21.578125 
z
M 31.109375 56 
z
" id="DejaVuSans-117"/>
      <path d="M -0.296875 72.90625 
L 61.375 72.90625 
L 61.375 64.59375 
L 35.5 64.59375 
L 35.5 0 
L 25.59375 0 
L 25.59375 64.59375 
L -0.296875 64.59375 
z
" id="DejaVuSans-84"/>
      <path d="M 31 75.875 
Q 24.46875 64.65625 21.28125 53.65625 
Q 18.109375 42.671875 18.109375 31.390625 
Q 18.109375 20.125 21.3125 9.0625 
Q 24.515625 -2 31 -13.1875 
L 23.1875 -13.1875 
Q 15.875 -1.703125 12.234375 9.375 
Q 8.59375 20.453125 8.59375 31.390625 
Q 8.59375 42.28125 12.203125 53.3125 
Q 15.828125 64.359375 23.1875 75.875 
z
" id="DejaVuSans-40"/>
      <path d="M 44.28125 53.078125 
L 44.28125 44.578125 
Q 40.484375 46.53125 36.375 47.5 
Q 32.28125 48.484375 27.875 48.484375 
Q 21.1875 48.484375 17.84375 46.4375 
Q 14.5 44.390625 14.5 40.28125 
Q 14.5 37.15625 16.890625 35.375 
Q 19.28125 33.59375 26.515625 31.984375 
L 29.59375 31.296875 
Q 39.15625 29.25 43.1875 25.515625 
Q 47.21875 21.78125 47.21875 15.09375 
Q 47.21875 7.46875 41.1875 3.015625 
Q 35.15625 -1.421875 24.609375 -1.421875 
Q 20.21875 -1.421875 15.453125 -0.5625 
Q 10.6875 0.296875 5.421875 2 
L 5.421875 11.28125 
Q 10.40625 8.6875 15.234375 7.390625 
Q 20.0625 6.109375 24.8125 6.109375 
Q 31.15625 6.109375 34.5625 8.28125 
Q 37.984375 10.453125 37.984375 14.40625 
Q 37.984375 18.0625 35.515625 20.015625 
Q 33.0625 21.96875 24.703125 23.78125 
L 21.578125 24.515625 
Q 13.234375 26.265625 9.515625 29.90625 
Q 5.8125 33.546875 5.8125 39.890625 
Q 5.8125 47.609375 11.28125 51.796875 
Q 16.75 56 26.8125 56 
Q 31.78125 56 36.171875 55.265625 
Q 40.578125 54.546875 44.28125 53.078125 
z
" id="DejaVuSans-115"/>
      <path d="M 8.015625 75.875 
L 15.828125 75.875 
Q 23.140625 64.359375 26.78125 53.3125 
Q 30.421875 42.28125 30.421875 31.390625 
Q 30.421875 20.453125 26.78125 9.375 
Q 23.140625 -1.703125 15.828125 -13.1875 
L 8.015625 -13.1875 
Q 14.5 -2 17.703125 9.0625 
Q 20.90625 20.125 20.90625 31.390625 
Q 20.90625 42.671875 17.703125 53.65625 
Q 14.5 64.65625 8.015625 75.875 
z
" id="DejaVuSans-41"/>
     </defs>
     <g transform="translate(20.877188 346.8825)rotate(-90)scale(0.18 -0.18)">
      <use xlink:href="#DejaVuSans-77"/>
      <use x="86.279297" xlink:href="#DejaVuSans-105"/>
      <use x="114.0625" xlink:href="#DejaVuSans-110"/>
      <use x="177.441406" xlink:href="#DejaVuSans-105"/>
      <use x="205.224609" xlink:href="#DejaVuSans-109"/>
      <use x="302.636719" xlink:href="#DejaVuSans-117"/>
      <use x="366.015625" xlink:href="#DejaVuSans-109"/>
      <use x="463.427734" xlink:href="#DejaVuSans-32"/>
      <use x="495.214844" xlink:href="#DejaVuSans-84"/>
      <use x="556.251953" xlink:href="#DejaVuSans-105"/>
      <use x="584.035156" xlink:href="#DejaVuSans-109"/>
      <use x="681.447266" xlink:href="#DejaVuSans-101"/>
      <use x="742.970703" xlink:href="#DejaVuSans-32"/>
      <use x="774.757812" xlink:href="#DejaVuSans-40"/>
      <use x="813.771484" xlink:href="#DejaVuSans-109"/>
      <use x="911.183594" xlink:href="#DejaVuSans-115"/>
      <use x="963.283203" xlink:href="#DejaVuSans-41"/>
     </g>
    </g>
   </g>
   <g id="line2d_23">
    <path clip-path="url(#p762f2b9e6f)" d="M 116.853352 483.478019 
L 238.598807 483.285197 
L 360.344261 482.863673 
L 482.089716 482.109835 
L 603.83517 481.471435 
L 725.580625 480.414875 
L 847.32608 478.940296 
L 969.071534 477.487054 
L 1090.816989 475.132074 
L 1212.562443 472.275566 
L 1334.307898 468.528573 
" style="fill:none;stroke:#9a0707;stroke-linecap:square;stroke-width:1.5;"/>
    <defs>
     <path d="M -3 3 
L 3 -3 
M -3 -3 
L 3 3 
" id="mb440220687" style="stroke:#9a0707;"/>
    </defs>
    <g clip-path="url(#p762f2b9e6f)">
     <use style="fill:#9a0707;stroke:#9a0707;" x="116.853352" xlink:href="#mb440220687" y="483.478019"/>
     <use style="fill:#9a0707;stroke:#9a0707;" x="238.598807" xlink:href="#mb440220687" y="483.285197"/>
     <use style="fill:#9a0707;stroke:#9a0707;" x="360.344261" xlink:href="#mb440220687" y="482.863673"/>
     <use style="fill:#9a0707;stroke:#9a0707;" x="482.089716" xlink:href="#mb440220687" y="482.109835"/>
     <use style="fill:#9a0707;stroke:#9a0707;" x="603.83517" xlink:href="#mb440220687" y="481.471435"/>
     <use style="fill:#9a0707;stroke:#9a0707;" x="725.580625" xlink:href="#mb440220687" y="480.414875"/>
     <use style="fill:#9a0707;stroke:#9a0707;" x="847.32608" xlink:href="#mb440220687" y="478.940296"/>
     <use style="fill:#9a0707;stroke:#9a0707;" x="969.071534" xlink:href="#mb440220687" y="477.487054"/>
     <use style="fill:#9a0707;stroke:#9a0707;" x="1090.816989" xlink:href="#mb440220687" y="475.132074"/>
     <use style="fill:#9a0707;stroke:#9a0707;" x="1212.562443" xlink:href="#mb440220687" y="472.275566"/>
     <use style="fill:#9a0707;stroke:#9a0707;" x="1334.307898" xlink:href="#mb440220687" y="468.528573"/>
    </g>
   </g>
   <g id="line2d_24">
    <path clip-path="url(#p762f2b9e6f)" d="M 116.853352 483.371043 
L 238.598807 481.977771 
L 360.344261 477.487054 
L 482.089716 462.585422 
L 603.83517 446.516902 
L 725.580625 420.430513 
L 847.32608 404.606681 
L 969.071534 369.035821 
L 1090.816989 299.420244 
L 1212.562443 113.700442 
L 1334.307898 29.88 
" style="fill:none;stroke:#ea0909;stroke-dasharray:1.5,2.475;stroke-dashoffset:0;stroke-width:1.5;"/>
    <defs>
     <path d="M -3 3 
L 3 -3 
M -3 -3 
L 3 3 
" id="md0fdb14dec" style="stroke:#ea0909;"/>
    </defs>
    <g clip-path="url(#p762f2b9e6f)">
     <use style="fill:#ea0909;stroke:#ea0909;" x="116.853352" xlink:href="#md0fdb14dec" y="483.371043"/>
     <use style="fill:#ea0909;stroke:#ea0909;" x="238.598807" xlink:href="#md0fdb14dec" y="481.977771"/>
     <use style="fill:#ea0909;stroke:#ea0909;" x="360.344261" xlink:href="#md0fdb14dec" y="477.487054"/>
     <use style="fill:#ea0909;stroke:#ea0909;" x="482.089716" xlink:href="#md0fdb14dec" y="462.585422"/>
     <use style="fill:#ea0909;stroke:#ea0909;" x="603.83517" xlink:href="#md0fdb14dec" y="446.516902"/>
     <use style="fill:#ea0909;stroke:#ea0909;" x="725.580625" xlink:href="#md0fdb14dec" y="420.430513"/>
     <use style="fill:#ea0909;stroke:#ea0909;" x="847.32608" xlink:href="#md0fdb14dec" y="404.606681"/>
     <use style="fill:#ea0909;stroke:#ea0909;" x="969.071534" xlink:href="#md0fdb14dec" y="369.035821"/>
     <use style="fill:#ea0909;stroke:#ea0909;" x="1090.816989" xlink:href="#md0fdb14dec" y="299.420244"/>
     <use style="fill:#ea0909;stroke:#ea0909;" x="1212.562443" xlink:href="#md0fdb14dec" y="113.700442"/>
     <use style="fill:#ea0909;stroke:#ea0909;" x="1334.307898" xlink:href="#md0fdb14dec" y="29.88"/>
    </g>
   </g>
   <g id="line2d_25">
    <path clip-path="url(#p762f2b9e6f)" d="M 116.853352 483.38645 
L 238.598807 482.263855 
L 360.344261 480.106711 
L 482.089716 476.716914 
L 603.83517 472.05044 
L 725.580625 466.995122 
L 847.32608 460.384255 
L 969.071534 451.771377 
L 1090.816989 443.893182 
L 1212.562443 432.869666 
L 1334.307898 420.430513 
" style="fill:none;stroke:#f26161;stroke-dasharray:5.55,2.4;stroke-dashoffset:0;stroke-width:1.5;"/>
    <defs>
     <path d="M -3 3 
L 3 -3 
M -3 -3 
L 3 3 
" id="m90d4c8daae" style="stroke:#f26161;"/>
    </defs>
    <g clip-path="url(#p762f2b9e6f)">
     <use style="fill:#f26161;stroke:#f26161;" x="116.853352" xlink:href="#m90d4c8daae" y="483.38645"/>
     <use style="fill:#f26161;stroke:#f26161;" x="238.598807" xlink:href="#m90d4c8daae" y="482.263855"/>
     <use style="fill:#f26161;stroke:#f26161;" x="360.344261" xlink:href="#m90d4c8daae" y="480.106711"/>
     <use style="fill:#f26161;stroke:#f26161;" x="482.089716" xlink:href="#m90d4c8daae" y="476.716914"/>
     <use style="fill:#f26161;stroke:#f26161;" x="603.83517" xlink:href="#m90d4c8daae" y="472.05044"/>
     <use style="fill:#f26161;stroke:#f26161;" x="725.580625" xlink:href="#m90d4c8daae" y="466.995122"/>
     <use style="fill:#f26161;stroke:#f26161;" x="847.32608" xlink:href="#m90d4c8daae" y="460.384255"/>
     <use style="fill:#f26161;stroke:#f26161;" x="969.071534" xlink:href="#m90d4c8daae" y="451.771377"/>
     <use style="fill:#f26161;stroke:#f26161;" x="1090.816989" xlink:href="#m90d4c8daae" y="443.893182"/>
     <use style="fill:#f26161;stroke:#f26161;" x="1212.562443" xlink:href="#m90d4c8daae" y="432.869666"/>
     <use style="fill:#f26161;stroke:#f26161;" x="1334.307898" xlink:href="#m90d4c8daae" y="420.430513"/>
    </g>
   </g>
   <g id="line2d_26">
    <path clip-path="url(#p762f2b9e6f)" d="M 116.853352 483.48 
L 238.598807 483.276392 
L 360.344261 482.849366 
L 482.089716 481.999715 
L 603.83517 481.383388 
L 725.580625 480.326545 
L 847.32608 479.138393 
L 969.071534 477.158279 
L 1090.816989 475.114465 
L 1212.562443 472.05044 
L 1334.307898 468.528573 
" style="fill:none;stroke:#1000ff;stroke-linecap:square;stroke-width:1.5;"/>
    <defs>
     <path d="M -3 3 
L 3 -3 
M -3 -3 
L 3 3 
" id="m4bc25b132c" style="stroke:#1000ff;"/>
    </defs>
    <g clip-path="url(#p762f2b9e6f)">
     <use style="fill:#1000ff;stroke:#1000ff;" x="116.853352" xlink:href="#m4bc25b132c" y="483.48"/>
     <use style="fill:#1000ff;stroke:#1000ff;" x="238.598807" xlink:href="#m4bc25b132c" y="483.276392"/>
     <use style="fill:#1000ff;stroke:#1000ff;" x="360.344261" xlink:href="#m4bc25b132c" y="482.849366"/>
     <use style="fill:#1000ff;stroke:#1000ff;" x="482.089716" xlink:href="#m4bc25b132c" y="481.999715"/>
     <use style="fill:#1000ff;stroke:#1000ff;" x="603.83517" xlink:href="#m4bc25b132c" y="481.383388"/>
     <use style="fill:#1000ff;stroke:#1000ff;" x="725.580625" xlink:href="#m4bc25b132c" y="480.326545"/>
     <use style="fill:#1000ff;stroke:#1000ff;" x="847.32608" xlink:href="#m4bc25b132c" y="479.138393"/>
     <use style="fill:#1000ff;stroke:#1000ff;" x="969.071534" xlink:href="#m4bc25b132c" y="477.158279"/>
     <use style="fill:#1000ff;stroke:#1000ff;" x="1090.816989" xlink:href="#m4bc25b132c" y="475.114465"/>
     <use style="fill:#1000ff;stroke:#1000ff;" x="1212.562443" xlink:href="#m4bc25b132c" y="472.05044"/>
     <use style="fill:#1000ff;stroke:#1000ff;" x="1334.307898" xlink:href="#m4bc25b132c" y="468.528573"/>
    </g>
   </g>
   <g id="line2d_27">
    <path clip-path="url(#p762f2b9e6f)" d="M 116.853352 483.459529 
L 238.598807 482.483972 
L 360.344261 478.874058 
L 482.089716 477.20089 
L 603.83517 473.37114 
L 725.580625 468.975289 
L 847.32608 463.245772 
L 969.071534 454.415138 
L 1090.816989 430.323218 
L 1212.562443 163.672883 
L 1334.307898 49.602457 
" style="fill:none;stroke:#007dff;stroke-dasharray:1.5,2.475;stroke-dashoffset:0;stroke-width:1.5;"/>
    <defs>
     <path d="M -3 3 
L 3 -3 
M -3 -3 
L 3 3 
" id="m05c38120ed" style="stroke:#007dff;"/>
    </defs>
    <g clip-path="url(#p762f2b9e6f)">
     <use style="fill:#007dff;stroke:#007dff;" x="116.853352" xlink:href="#m05c38120ed" y="483.459529"/>
     <use style="fill:#007dff;stroke:#007dff;" x="238.598807" xlink:href="#m05c38120ed" y="482.483972"/>
     <use style="fill:#007dff;stroke:#007dff;" x="360.344261" xlink:href="#m05c38120ed" y="478.874058"/>
     <use style="fill:#007dff;stroke:#007dff;" x="482.089716" xlink:href="#m05c38120ed" y="477.20089"/>
     <use style="fill:#007dff;stroke:#007dff;" x="603.83517" xlink:href="#m05c38120ed" y="473.37114"/>
     <use style="fill:#007dff;stroke:#007dff;" x="725.580625" xlink:href="#m05c38120ed" y="468.975289"/>
     <use style="fill:#007dff;stroke:#007dff;" x="847.32608" xlink:href="#m05c38120ed" y="463.245772"/>
     <use style="fill:#007dff;stroke:#007dff;" x="969.071534" xlink:href="#m05c38120ed" y="454.415138"/>
     <use style="fill:#007dff;stroke:#007dff;" x="1090.816989" xlink:href="#m05c38120ed" y="430.323218"/>
     <use style="fill:#007dff;stroke:#007dff;" x="1212.562443" xlink:href="#m05c38120ed" y="163.672883"/>
     <use style="fill:#007dff;stroke:#007dff;" x="1334.307898" xlink:href="#m05c38120ed" y="49.602457"/>
    </g>
   </g>
   <g id="line2d_28">
    <path clip-path="url(#p762f2b9e6f)" d="M 116.853352 483.46129 
L 238.598807 483.08049 
L 360.344261 482.307879 
L 482.089716 481.207295 
L 603.83517 479.798548 
L 725.580625 477.926561 
L 847.32608 475.572307 
L 969.071534 472.930907 
L 1090.816989 469.40904 
L 1212.562443 465.887172 
L 1334.307898 461.484838 
" style="fill:none;stroke:#00bbd1;stroke-dasharray:5.55,2.4;stroke-dashoffset:0;stroke-width:1.5;"/>
    <defs>
     <path d="M -3 3 
L 3 -3 
M -3 -3 
L 3 3 
" id="m91eef1c96d" style="stroke:#00bbd1;"/>
    </defs>
    <g clip-path="url(#p762f2b9e6f)">
     <use style="fill:#00bbd1;stroke:#00bbd1;" x="116.853352" xlink:href="#m91eef1c96d" y="483.46129"/>
     <use style="fill:#00bbd1;stroke:#00bbd1;" x="238.598807" xlink:href="#m91eef1c96d" y="483.08049"/>
     <use style="fill:#00bbd1;stroke:#00bbd1;" x="360.344261" xlink:href="#m91eef1c96d" y="482.307879"/>
     <use style="fill:#00bbd1;stroke:#00bbd1;" x="482.089716" xlink:href="#m91eef1c96d" y="481.207295"/>
     <use style="fill:#00bbd1;stroke:#00bbd1;" x="603.83517" xlink:href="#m91eef1c96d" y="479.798548"/>
     <use style="fill:#00bbd1;stroke:#00bbd1;" x="725.580625" xlink:href="#m91eef1c96d" y="477.926561"/>
     <use style="fill:#00bbd1;stroke:#00bbd1;" x="847.32608" xlink:href="#m91eef1c96d" y="475.572307"/>
     <use style="fill:#00bbd1;stroke:#00bbd1;" x="969.071534" xlink:href="#m91eef1c96d" y="472.930907"/>
     <use style="fill:#00bbd1;stroke:#00bbd1;" x="1090.816989" xlink:href="#m91eef1c96d" y="469.40904"/>
     <use style="fill:#00bbd1;stroke:#00bbd1;" x="1212.562443" xlink:href="#m91eef1c96d" y="465.887172"/>
     <use style="fill:#00bbd1;stroke:#00bbd1;" x="1334.307898" xlink:href="#m91eef1c96d" y="461.484838"/>
    </g>
   </g>
   <g id="patch_3">
    <path d="M 55.980625 506.16 
L 55.980625 7.2 
" style="fill:none;stroke:#000000;stroke-linecap:square;stroke-linejoin:miter;stroke-width:0.8;"/>
   </g>
   <g id="patch_4">
    <path d="M 1395.180625 506.16 
L 1395.180625 7.2 
" style="fill:none;stroke:#000000;stroke-linecap:square;stroke-linejoin:miter;stroke-width:0.8;"/>
   </g>
   <g id="patch_5">
    <path d="M 55.980625 506.16 
L 1395.180625 506.16 
" style="fill:none;stroke:#000000;stroke-linecap:square;stroke-linejoin:miter;stroke-width:0.8;"/>
   </g>
   <g id="patch_6">
    <path d="M 55.980625 7.2 
L 1395.180625 7.2 
" style="fill:none;stroke:#000000;stroke-linecap:square;stroke-linejoin:miter;stroke-width:0.8;"/>
   </g>
   <g id="legend_1">
    <g id="patch_7">
     <path d="M 64.380625 122.4825 
L 333.368125 122.4825 
Q 335.768125 122.4825 335.768125 120.0825 
L 335.768125 15.6 
Q 335.768125 13.2 333.368125 13.2 
L 64.380625 13.2 
Q 61.980625 13.2 61.980625 15.6 
L 61.980625 120.0825 
Q 61.980625 122.4825 64.380625 122.4825 
z
" style="fill:#ffffff;opacity:0.8;stroke:#cccccc;stroke-linejoin:miter;"/>
    </g>
    <g id="line2d_29">
     <path d="M 66.780625 22.918125 
L 90.780625 22.918125 
" style="fill:none;stroke:#9a0707;stroke-linecap:square;stroke-width:1.5;"/>
    </g>
    <g id="line2d_30">
     <g>
      <use style="fill:#9a0707;stroke:#9a0707;" x="78.780625" xlink:href="#mb440220687" y="22.918125"/>
     </g>
    </g>
    <g id="text_17">
     <!-- xt::xarray &amp; assign -->
     <defs>
      <path d="M 54.890625 54.6875 
L 35.109375 28.078125 
L 55.90625 0 
L 45.3125 0 
L 29.390625 21.484375 
L 13.484375 0 
L 2.875 0 
L 24.125 28.609375 
L 4.6875 54.6875 
L 15.28125 54.6875 
L 29.78125 35.203125 
L 44.28125 54.6875 
z
" id="DejaVuSans-120"/>
      <path d="M 18.3125 70.21875 
L 18.3125 54.6875 
L 36.8125 54.6875 
L 36.8125 47.703125 
L 18.3125 47.703125 
L 18.3125 18.015625 
Q 18.3125 11.328125 20.140625 9.421875 
Q 21.96875 7.515625 27.59375 7.515625 
L 36.8125 7.515625 
L 36.8125 0 
L 27.59375 0 
Q 17.1875 0 13.234375 3.875 
Q 9.28125 7.765625 9.28125 18.015625 
L 9.28125 47.703125 
L 2.6875 47.703125 
L 2.6875 54.6875 
L 9.28125 54.6875 
L 9.28125 70.21875 
z
" id="DejaVuSans-116"/>
      <path d="M 11.71875 12.40625 
L 22.015625 12.40625 
L 22.015625 0 
L 11.71875 0 
z
M 11.71875 51.703125 
L 22.015625 51.703125 
L 22.015625 39.3125 
L 11.71875 39.3125 
z
" id="DejaVuSans-58"/>
      <path d="M 34.28125 27.484375 
Q 23.390625 27.484375 19.1875 25 
Q 14.984375 22.515625 14.984375 16.5 
Q 14.984375 11.71875 18.140625 8.90625 
Q 21.296875 6.109375 26.703125 6.109375 
Q 34.1875 6.109375 38.703125 11.40625 
Q 43.21875 16.703125 43.21875 25.484375 
L 43.21875 27.484375 
z
M 52.203125 31.203125 
L 52.203125 0 
L 43.21875 0 
L 43.21875 8.296875 
Q 40.140625 3.328125 35.546875 0.953125 
Q 30.953125 -1.421875 24.3125 -1.421875 
Q 15.921875 -1.421875 10.953125 3.296875 
Q 6 8.015625 6 15.921875 
Q 6 25.140625 12.171875 29.828125 
Q 18.359375 34.515625 30.609375 34.515625 
L 43.21875 34.515625 
L 43.21875 35.40625 
Q 43.21875 41.609375 39.140625 45 
Q 35.0625 48.390625 27.6875 48.390625 
Q 23 48.390625 18.546875 47.265625 
Q 14.109375 46.140625 10.015625 43.890625 
L 10.015625 52.203125 
Q 14.9375 54.109375 19.578125 55.046875 
Q 24.21875 56 28.609375 56 
Q 40.484375 56 46.34375 49.84375 
Q 52.203125 43.703125 52.203125 31.203125 
z
" id="DejaVuSans-97"/>
      <path d="M 41.109375 46.296875 
Q 39.59375 47.171875 37.8125 47.578125 
Q 36.03125 48 33.890625 48 
Q 26.265625 48 22.1875 43.046875 
Q 18.109375 38.09375 18.109375 28.8125 
L 18.109375 0 
L 9.078125 0 
L 9.078125 54.6875 
L 18.109375 54.6875 
L 18.109375 46.1875 
Q 20.953125 51.171875 25.484375 53.578125 
Q 30.03125 56 36.53125 56 
Q 37.453125 56 38.578125 55.875 
Q 39.703125 55.765625 41.0625 55.515625 
z
" id="DejaVuSans-114"/>
      <path d="M 32.171875 -5.078125 
Q 28.375 -14.84375 24.75 -17.8125 
Q 21.140625 -20.796875 15.09375 -20.796875 
L 7.90625 -20.796875 
L 7.90625 -13.28125 
L 13.1875 -13.28125 
Q 16.890625 -13.28125 18.9375 -11.515625 
Q 21 -9.765625 23.484375 -3.21875 
L 25.09375 0.875 
L 2.984375 54.6875 
L 12.5 54.6875 
L 29.59375 11.921875 
L 46.6875 54.6875 
L 56.203125 54.6875 
z
" id="DejaVuSans-121"/>
      <path d="M 24.3125 39.203125 
Q 19.875 35.25 17.796875 31.3125 
Q 15.71875 27.390625 15.71875 23.09375 
Q 15.71875 15.96875 20.890625 11.234375 
Q 26.078125 6.5 33.890625 6.5 
Q 38.53125 6.5 42.578125 8.03125 
Q 46.625 9.578125 50.203125 12.703125 
z
M 31.203125 44.671875 
L 56 19.28125 
Q 58.890625 23.640625 60.5 28.59375 
Q 62.109375 33.546875 62.40625 39.109375 
L 71.484375 39.109375 
Q 70.90625 32.671875 68.359375 26.359375 
Q 65.828125 20.0625 61.28125 13.921875 
L 74.90625 0 
L 62.59375 0 
L 55.609375 7.171875 
Q 50.53125 2.828125 44.96875 0.703125 
Q 39.40625 -1.421875 33.015625 -1.421875 
Q 21.234375 -1.421875 13.765625 5.296875 
Q 6.296875 12.015625 6.296875 22.515625 
Q 6.296875 28.765625 9.5625 34.25 
Q 12.84375 39.75 19.390625 44.578125 
Q 17.046875 47.65625 15.8125 50.703125 
Q 14.59375 53.765625 14.59375 56.6875 
Q 14.59375 64.59375 20.015625 69.40625 
Q 25.4375 74.21875 34.421875 74.21875 
Q 38.484375 74.21875 42.5 73.34375 
Q 46.53125 72.46875 50.6875 70.703125 
L 50.6875 61.8125 
Q 46.4375 64.109375 42.578125 65.296875 
Q 38.71875 66.5 35.40625 66.5 
Q 30.28125 66.5 27.078125 63.78125 
Q 23.875 61.078125 23.875 56.78125 
Q 23.875 54.296875 25.3125 51.78125 
Q 26.765625 49.265625 31.203125 44.671875 
z
" id="DejaVuSans-38"/>
      <path d="M 45.40625 27.984375 
Q 45.40625 37.75 41.375 43.109375 
Q 37.359375 48.484375 30.078125 48.484375 
Q 22.859375 48.484375 18.828125 43.109375 
Q 14.796875 37.75 14.796875 27.984375 
Q 14.796875 18.265625 18.828125 12.890625 
Q 22.859375 7.515625 30.078125 7.515625 
Q 37.359375 7.515625 41.375 12.890625 
Q 45.40625 18.265625 45.40625 27.984375 
z
M 54.390625 6.78125 
Q 54.390625 -7.171875 48.1875 -13.984375 
Q 42 -20.796875 29.203125 -20.796875 
Q 24.46875 -20.796875 20.265625 -20.09375 
Q 16.0625 -19.390625 12.109375 -17.921875 
L 12.109375 -9.1875 
Q 16.0625 -11.328125 19.921875 -12.34375 
Q 23.78125 -13.375 27.78125 -13.375 
Q 36.625 -13.375 41.015625 -8.765625 
Q 45.40625 -4.15625 45.40625 5.171875 
L 45.40625 9.625 
Q 42.625 4.78125 38.28125 2.390625 
Q 33.9375 0 27.875 0 
Q 17.828125 0 11.671875 7.65625 
Q 5.515625 15.328125 5.515625 27.984375 
Q 5.515625 40.671875 11.671875 48.328125 
Q 17.828125 56 27.875 56 
Q 33.9375 56 38.28125 53.609375 
Q 42.625 51.21875 45.40625 46.390625 
L 45.40625 54.6875 
L 54.390625 54.6875 
z
" id="DejaVuSans-103"/>
     </defs>
     <g transform="translate(100.380625 27.118125)scale(0.12 -0.12)">
      <use xlink:href="#DejaVuSans-120"/>
      <use x="59.179688" xlink:href="#DejaVuSans-116"/>
      <use x="98.388672" xlink:href="#DejaVuSans-58"/>
      <use x="132.080078" xlink:href="#DejaVuSans-58"/>
      <use x="165.771484" xlink:href="#DejaVuSans-120"/>
      <use x="224.951172" xlink:href="#DejaVuSans-97"/>
      <use x="286.230469" xlink:href="#DejaVuSans-114"/>
      <use x="327.328125" xlink:href="#DejaVuSans-114"/>
      <use x="368.441406" xlink:href="#DejaVuSans-97"/>
      <use x="429.720703" xlink:href="#DejaVuSans-121"/>
      <use x="488.900391" xlink:href="#DejaVuSans-32"/>
      <use x="520.6875" xlink:href="#DejaVuSans-38"/>
      <use x="598.666016" xlink:href="#DejaVuSans-32"/>
      <use x="630.453125" xlink:href="#DejaVuSans-97"/>
      <use x="691.732422" xlink:href="#DejaVuSans-115"/>
      <use x="743.832031" xlink:href="#DejaVuSans-115"/>
      <use x="795.931641" xlink:href="#DejaVuSans-105"/>
      <use x="823.714844" xlink:href="#DejaVuSans-103"/>
      <use x="887.191406" xlink:href="#DejaVuSans-110"/>
     </g>
    </g>
    <g id="line2d_31">
     <path d="M 66.780625 40.531875 
L 90.780625 40.531875 
" style="fill:none;stroke:#ea0909;stroke-dasharray:1.5,2.475;stroke-dashoffset:0;stroke-width:1.5;"/>
    </g>
    <g id="line2d_32">
     <g>
      <use style="fill:#ea0909;stroke:#ea0909;" x="78.780625" xlink:href="#md0fdb14dec" y="40.531875"/>
     </g>
    </g>
    <g id="text_18">
     <!-- xt::xarray &amp; operator() against cache -->
     <defs>
      <path d="M 30.609375 48.390625 
Q 23.390625 48.390625 19.1875 42.75 
Q 14.984375 37.109375 14.984375 27.296875 
Q 14.984375 17.484375 19.15625 11.84375 
Q 23.34375 6.203125 30.609375 6.203125 
Q 37.796875 6.203125 41.984375 11.859375 
Q 46.1875 17.53125 46.1875 27.296875 
Q 46.1875 37.015625 41.984375 42.703125 
Q 37.796875 48.390625 30.609375 48.390625 
z
M 30.609375 56 
Q 42.328125 56 49.015625 48.375 
Q 55.71875 40.765625 55.71875 27.296875 
Q 55.71875 13.875 49.015625 6.21875 
Q 42.328125 -1.421875 30.609375 -1.421875 
Q 18.84375 -1.421875 12.171875 6.21875 
Q 5.515625 13.875 5.515625 27.296875 
Q 5.515625 40.765625 12.171875 48.375 
Q 18.84375 56 30.609375 56 
z
" id="DejaVuSans-111"/>
      <path d="M 18.109375 8.203125 
L 18.109375 -20.796875 
L 9.078125 -20.796875 
L 9.078125 54.6875 
L 18.109375 54.6875 
L 18.109375 46.390625 
Q 20.953125 51.265625 25.265625 53.625 
Q 29.59375 56 35.59375 56 
Q 45.5625 56 51.78125 48.09375 
Q 58.015625 40.1875 58.015625 27.296875 
Q 58.015625 14.40625 51.78125 6.484375 
Q 45.5625 -1.421875 35.59375 -1.421875 
Q 29.59375 -1.421875 25.265625 0.953125 
Q 20.953125 3.328125 18.109375 8.203125 
z
M 48.6875 27.296875 
Q 48.6875 37.203125 44.609375 42.84375 
Q 40.53125 48.484375 33.40625 48.484375 
Q 26.265625 48.484375 22.1875 42.84375 
Q 18.109375 37.203125 18.109375 27.296875 
Q 18.109375 17.390625 22.1875 11.75 
Q 26.265625 6.109375 33.40625 6.109375 
Q 40.53125 6.109375 44.609375 11.75 
Q 48.6875 17.390625 48.6875 27.296875 
z
" id="DejaVuSans-112"/>
      <path d="M 48.78125 52.59375 
L 48.78125 44.1875 
Q 44.96875 46.296875 41.140625 47.34375 
Q 37.3125 48.390625 33.40625 48.390625 
Q 24.65625 48.390625 19.8125 42.84375 
Q 14.984375 37.3125 14.984375 27.296875 
Q 14.984375 17.28125 19.8125 11.734375 
Q 24.65625 6.203125 33.40625 6.203125 
Q 37.3125 6.203125 41.140625 7.25 
Q 44.96875 8.296875 48.78125 10.40625 
L 48.78125 2.09375 
Q 45.015625 0.34375 40.984375 -0.53125 
Q 36.96875 -1.421875 32.421875 -1.421875 
Q 20.0625 -1.421875 12.78125 6.34375 
Q 5.515625 14.109375 5.515625 27.296875 
Q 5.515625 40.671875 12.859375 48.328125 
Q 20.21875 56 33.015625 56 
Q 37.15625 56 41.109375 55.140625 
Q 45.0625 54.296875 48.78125 52.59375 
z
" id="DejaVuSans-99"/>
      <path d="M 54.890625 33.015625 
L 54.890625 0 
L 45.90625 0 
L 45.90625 32.71875 
Q 45.90625 40.484375 42.875 44.328125 
Q 39.84375 48.1875 33.796875 48.1875 
Q 26.515625 48.1875 22.3125 43.546875 
Q 18.109375 38.921875 18.109375 30.90625 
L 18.109375 0 
L 9.078125 0 
L 9.078125 75.984375 
L 18.109375 75.984375 
L 18.109375 46.1875 
Q 21.34375 51.125 25.703125 53.5625 
Q 30.078125 56 35.796875 56 
Q 45.21875 56 50.046875 50.171875 
Q 54.890625 44.34375 54.890625 33.015625 
z
" id="DejaVuSans-104"/>
     </defs>
     <g transform="translate(100.380625 44.731875)scale(0.12 -0.12)">
      <use xlink:href="#DejaVuSans-120"/>
      <use x="59.179688" xlink:href="#DejaVuSans-116"/>
      <use x="98.388672" xlink:href="#DejaVuSans-58"/>
      <use x="132.080078" xlink:href="#DejaVuSans-58"/>
      <use x="165.771484" xlink:href="#DejaVuSans-120"/>
      <use x="224.951172" xlink:href="#DejaVuSans-97"/>
      <use x="286.230469" xlink:href="#DejaVuSans-114"/>
      <use x="327.328125" xlink:href="#DejaVuSans-114"/>
      <use x="368.441406" xlink:href="#DejaVuSans-97"/>
      <use x="429.720703" xlink:href="#DejaVuSans-121"/>
      <use x="488.900391" xlink:href="#DejaVuSans-32"/>
      <use x="520.6875" xlink:href="#DejaVuSans-38"/>
      <use x="598.666016" xlink:href="#DejaVuSans-32"/>
      <use x="630.453125" xlink:href="#DejaVuSans-111"/>
      <use x="691.634766" xlink:href="#DejaVuSans-112"/>
      <use x="755.111328" xlink:href="#DejaVuSans-101"/>
      <use x="816.634766" xlink:href="#DejaVuSans-114"/>
      <use x="857.748047" xlink:href="#DejaVuSans-97"/>
      <use x="919.027344" xlink:href="#DejaVuSans-116"/>
      <use x="958.236328" xlink:href="#DejaVuSans-111"/>
      <use x="1019.417969" xlink:href="#DejaVuSans-114"/>
      <use x="1060.53125" xlink:href="#DejaVuSans-40"/>
      <use x="1099.544922" xlink:href="#DejaVuSans-41"/>
      <use x="1138.558594" xlink:href="#DejaVuSans-32"/>
      <use x="1170.345703" xlink:href="#DejaVuSans-97"/>
      <use x="1231.625" xlink:href="#DejaVuSans-103"/>
      <use x="1295.101562" xlink:href="#DejaVuSans-97"/>
      <use x="1356.380859" xlink:href="#DejaVuSans-105"/>
      <use x="1384.164062" xlink:href="#DejaVuSans-110"/>
      <use x="1447.542969" xlink:href="#DejaVuSans-115"/>
      <use x="1499.642578" xlink:href="#DejaVuSans-116"/>
      <use x="1538.851562" xlink:href="#DejaVuSans-32"/>
      <use x="1570.638672" xlink:href="#DejaVuSans-99"/>
      <use x="1625.619141" xlink:href="#DejaVuSans-97"/>
      <use x="1686.898438" xlink:href="#DejaVuSans-99"/>
      <use x="1741.878906" xlink:href="#DejaVuSans-104"/>
      <use x="1805.257812" xlink:href="#DejaVuSans-101"/>
     </g>
    </g>
    <g id="line2d_33">
     <path d="M 66.780625 58.145625 
L 90.780625 58.145625 
" style="fill:none;stroke:#f26161;stroke-dasharray:5.55,2.4;stroke-dashoffset:0;stroke-width:1.5;"/>
    </g>
    <g id="line2d_34">
     <g>
      <use style="fill:#f26161;stroke:#f26161;" x="78.780625" xlink:href="#m90d4c8daae" y="58.145625"/>
     </g>
    </g>
    <g id="text_19">
     <!-- xt::xarray &amp; operator() cache aligned -->
     <defs>
      <path d="M 9.421875 75.984375 
L 18.40625 75.984375 
L 18.40625 0 
L 9.421875 0 
z
" id="DejaVuSans-108"/>
      <path d="M 45.40625 46.390625 
L 45.40625 75.984375 
L 54.390625 75.984375 
L 54.390625 0 
L 45.40625 0 
L 45.40625 8.203125 
Q 42.578125 3.328125 38.25 0.953125 
Q 33.9375 -1.421875 27.875 -1.421875 
Q 17.96875 -1.421875 11.734375 6.484375 
Q 5.515625 14.40625 5.515625 27.296875 
Q 5.515625 40.1875 11.734375 48.09375 
Q 17.96875 56 27.875 56 
Q 33.9375 56 38.25 53.625 
Q 42.578125 51.265625 45.40625 46.390625 
z
M 14.796875 27.296875 
Q 14.796875 17.390625 18.875 11.75 
Q 22.953125 6.109375 30.078125 6.109375 
Q 37.203125 6.109375 41.296875 11.75 
Q 45.40625 17.390625 45.40625 27.296875 
Q 45.40625 37.203125 41.296875 42.84375 
Q 37.203125 48.484375 30.078125 48.484375 
Q 22.953125 48.484375 18.875 42.84375 
Q 14.796875 37.203125 14.796875 27.296875 
z
" id="DejaVuSans-100"/>
     </defs>
     <g transform="translate(100.380625 62.345625)scale(0.12 -0.12)">
      <use xlink:href="#DejaVuSans-120"/>
      <use x="59.179688" xlink:href="#DejaVuSans-116"/>
      <use x="98.388672" xlink:href="#DejaVuSans-58"/>
      <use x="132.080078" xlink:href="#DejaVuSans-58"/>
      <use x="165.771484" xlink:href="#DejaVuSans-120"/>
      <use x="224.951172" xlink:href="#DejaVuSans-97"/>
      <use x="286.230469" xlink:href="#DejaVuSans-114"/>
      <use x="327.328125" xlink:href="#DejaVuSans-114"/>
      <use x="368.441406" xlink:href="#DejaVuSans-97"/>
      <use x="429.720703" xlink:href="#DejaVuSans-121"/>
      <use x="488.900391" xlink:href="#DejaVuSans-32"/>
      <use x="520.6875" xlink:href="#DejaVuSans-38"/>
      <use x="598.666016" xlink:href="#DejaVuSans-32"/>
      <use x="630.453125" xlink:href="#DejaVuSans-111"/>
      <use x="691.634766" xlink:href="#DejaVuSans-112"/>
      <use x="755.111328" xlink:href="#DejaVuSans-101"/>
      <use x="816.634766" xlink:href="#DejaVuSans-114"/>
      <use x="857.748047" xlink:href="#DejaVuSans-97"/>
      <use x="919.027344" xlink:href="#DejaVuSans-116"/>
      <use x="958.236328" xlink:href="#DejaVuSans-111"/>
      <use x="1019.417969" xlink:href="#DejaVuSans-114"/>
      <use x="1060.53125" xlink:href="#DejaVuSans-40"/>
      <use x="1099.544922" xlink:href="#DejaVuSans-41"/>
      <use x="1138.558594" xlink:href="#DejaVuSans-32"/>
      <use x="1170.345703" xlink:href="#DejaVuSans-99"/>
      <use x="1225.326172" xlink:href="#DejaVuSans-97"/>
      <use x="1286.605469" xlink:href="#DejaVuSans-99"/>
      <use x="1341.585938" xlink:href="#DejaVuSans-104"/>
      <use x="1404.964844" xlink:href="#DejaVuSans-101"/>
      <use x="1466.488281" xlink:href="#DejaVuSans-32"/>
      <use x="1498.275391" xlink:href="#DejaVuSans-97"/>
      <use x="1559.554688" xlink:href="#DejaVuSans-108"/>
      <use x="1587.337891" xlink:href="#DejaVuSans-105"/>
      <use x="1615.121094" xlink:href="#DejaVuSans-103"/>
      <use x="1678.597656" xlink:href="#DejaVuSans-110"/>
      <use x="1741.976562" xlink:href="#DejaVuSans-101"/>
      <use x="1803.5" xlink:href="#DejaVuSans-100"/>
     </g>
    </g>
    <g id="line2d_35">
     <path d="M 66.780625 75.759375 
L 90.780625 75.759375 
" style="fill:none;stroke:#1000ff;stroke-linecap:square;stroke-width:1.5;"/>
    </g>
    <g id="line2d_36">
     <g>
      <use style="fill:#1000ff;stroke:#1000ff;" x="78.780625" xlink:href="#m4bc25b132c" y="75.759375"/>
     </g>
    </g>
    <g id="text_20">
     <!-- xt::xtensor &amp; assign -->
     <g transform="translate(100.380625 79.959375)scale(0.12 -0.12)">
      <use xlink:href="#DejaVuSans-120"/>
      <use x="59.179688" xlink:href="#DejaVuSans-116"/>
      <use x="98.388672" xlink:href="#DejaVuSans-58"/>
      <use x="132.080078" xlink:href="#DejaVuSans-58"/>
      <use x="165.771484" xlink:href="#DejaVuSans-120"/>
      <use x="224.951172" xlink:href="#DejaVuSans-116"/>
      <use x="264.160156" xlink:href="#DejaVuSans-101"/>
      <use x="325.683594" xlink:href="#DejaVuSans-110"/>
      <use x="389.0625" xlink:href="#DejaVuSans-115"/>
      <use x="441.162109" xlink:href="#DejaVuSans-111"/>
      <use x="502.34375" xlink:href="#DejaVuSans-114"/>
      <use x="543.457031" xlink:href="#DejaVuSans-32"/>
      <use x="575.244141" xlink:href="#DejaVuSans-38"/>
      <use x="653.222656" xlink:href="#DejaVuSans-32"/>
      <use x="685.009766" xlink:href="#DejaVuSans-97"/>
      <use x="746.289062" xlink:href="#DejaVuSans-115"/>
      <use x="798.388672" xlink:href="#DejaVuSans-115"/>
      <use x="850.488281" xlink:href="#DejaVuSans-105"/>
      <use x="878.271484" xlink:href="#DejaVuSans-103"/>
      <use x="941.748047" xlink:href="#DejaVuSans-110"/>
     </g>
    </g>
    <g id="line2d_37">
     <path d="M 66.780625 93.373125 
L 90.780625 93.373125 
" style="fill:none;stroke:#007dff;stroke-dasharray:1.5,2.475;stroke-dashoffset:0;stroke-width:1.5;"/>
    </g>
    <g id="line2d_38">
     <g>
      <use style="fill:#007dff;stroke:#007dff;" x="78.780625" xlink:href="#m05c38120ed" y="93.373125"/>
     </g>
    </g>
    <g id="text_21">
     <!-- xt::xtensor &amp; operator() against cache -->
     <g transform="translate(100.380625 97.573125)scale(0.12 -0.12)">
      <use xlink:href="#DejaVuSans-120"/>
      <use x="59.179688" xlink:href="#DejaVuSans-116"/>
      <use x="98.388672" xlink:href="#DejaVuSans-58"/>
      <use x="132.080078" xlink:href="#DejaVuSans-58"/>
      <use x="165.771484" xlink:href="#DejaVuSans-120"/>
      <use x="224.951172" xlink:href="#DejaVuSans-116"/>
      <use x="264.160156" xlink:href="#DejaVuSans-101"/>
      <use x="325.683594" xlink:href="#DejaVuSans-110"/>
      <use x="389.0625" xlink:href="#DejaVuSans-115"/>
      <use x="441.162109" xlink:href="#DejaVuSans-111"/>
      <use x="502.34375" xlink:href="#DejaVuSans-114"/>
      <use x="543.457031" xlink:href="#DejaVuSans-32"/>
      <use x="575.244141" xlink:href="#DejaVuSans-38"/>
      <use x="653.222656" xlink:href="#DejaVuSans-32"/>
      <use x="685.009766" xlink:href="#DejaVuSans-111"/>
      <use x="746.191406" xlink:href="#DejaVuSans-112"/>
      <use x="809.667969" xlink:href="#DejaVuSans-101"/>
      <use x="871.191406" xlink:href="#DejaVuSans-114"/>
      <use x="912.304688" xlink:href="#DejaVuSans-97"/>
      <use x="973.583984" xlink:href="#DejaVuSans-116"/>
      <use x="1012.792969" xlink:href="#DejaVuSans-111"/>
      <use x="1073.974609" xlink:href="#DejaVuSans-114"/>
      <use x="1115.087891" xlink:href="#DejaVuSans-40"/>
      <use x="1154.101562" xlink:href="#DejaVuSans-41"/>
      <use x="1193.115234" xlink:href="#DejaVuSans-32"/>
      <use x="1224.902344" xlink:href="#DejaVuSans-97"/>
      <use x="1286.181641" xlink:href="#DejaVuSans-103"/>
      <use x="1349.658203" xlink:href="#DejaVuSans-97"/>
      <use x="1410.9375" xlink:href="#DejaVuSans-105"/>
      <use x="1438.720703" xlink:href="#DejaVuSans-110"/>
      <use x="1502.099609" xlink:href="#DejaVuSans-115"/>
      <use x="1554.199219" xlink:href="#DejaVuSans-116"/>
      <use x="1593.408203" xlink:href="#DejaVuSans-32"/>
      <use x="1625.195312" xlink:href="#DejaVuSans-99"/>
      <use x="1680.175781" xlink:href="#DejaVuSans-97"/>
      <use x="1741.455078" xlink:href="#DejaVuSans-99"/>
      <use x="1796.435547" xlink:href="#DejaVuSans-104"/>
      <use x="1859.814453" xlink:href="#DejaVuSans-101"/>
     </g>
    </g>
    <g id="line2d_39">
     <path d="M 66.780625 110.986875 
L 90.780625 110.986875 
" style="fill:none;stroke:#00bbd1;stroke-dasharray:5.55,2.4;stroke-dashoffset:0;stroke-width:1.5;"/>
    </g>
    <g id="line2d_40">
     <g>
      <use style="fill:#00bbd1;stroke:#00bbd1;" x="78.780625" xlink:href="#m91eef1c96d" y="110.986875"/>
     </g>
    </g>
    <g id="text_22">
     <!-- xt::xtensor &amp; operator() cache aligned -->
     <g transform="translate(100.380625 115.186875)scale(0.12 -0.12)">
      <use xlink:href="#DejaVuSans-120"/>
      <use x="59.179688" xlink:href="#DejaVuSans-116"/>
      <use x="98.388672" xlink:href="#DejaVuSans-58"/>
      <use x="132.080078" xlink:href="#DejaVuSans-58"/>
      <use x="165.771484" xlink:href="#DejaVuSans-120"/>
      <use x="224.951172" xlink:href="#DejaVuSans-116"/>
      <use x="264.160156" xlink:href="#DejaVuSans-101"/>
      <use x="325.683594" xlink:href="#DejaVuSans-110"/>
      <use x="389.0625" xlink:href="#DejaVuSans-115"/>
      <use x="441.162109" xlink:href="#DejaVuSans-111"/>
      <use x="502.34375" xlink:href="#DejaVuSans-114"/>
      <use x="543.457031" xlink:href="#DejaVuSans-32"/>
      <use x="575.244141" xlink:href="#DejaVuSans-38"/>
      <use x="653.222656" xlink:href="#DejaVuSans-32"/>
      <use x="685.009766" xlink:href="#DejaVuSans-111"/>
      <use x="746.191406" xlink:href="#DejaVuSans-112"/>
      <use x="809.667969" xlink:href="#DejaVuSans-101"/>
      <use x="871.191406" xlink:href="#DejaVuSans-114"/>
      <use x="912.304688" xlink:href="#DejaVuSans-97"/>
      <use x="973.583984" xlink:href="#DejaVuSans-116"/>
      <use x="1012.792969" xlink:href="#DejaVuSans-111"/>
      <use x="1073.974609" xlink:href="#DejaVuSans-114"/>
      <use x="1115.087891" xlink:href="#DejaVuSans-40"/>
      <use x="1154.101562" xlink:href="#DejaVuSans-41"/>
      <use x="1193.115234" xlink:href="#DejaVuSans-32"/>
      <use x="1224.902344" xlink:href="#DejaVuSans-99"/>
      <use x="1279.882812" xlink:href="#DejaVuSans-97"/>
      <use x="1341.162109" xlink:href="#DejaVuSans-99"/>
      <use x="1396.142578" xlink:href="#DejaVuSans-104"/>
      <use x="1459.521484" xlink:href="#DejaVuSans-101"/>
      <use x="1521.044922" xlink:href="#DejaVuSans-32"/>
      <use x="1552.832031" xlink:href="#DejaVuSans-97"/>
      <use x="1614.111328" xlink:href="#DejaVuSans-108"/>
      <use x="1641.894531" xlink:href="#DejaVuSans-105"/>
      <use x="1669.677734" xlink:href="#DejaVuSans-103"/>
      <use x="1733.154297" xlink:href="#DejaVuSans-110"/>
      <use x="1796.533203" xlink:href="#DejaVuSans-101"/>
      <use x="1858.056641" xlink:href="#DejaVuSans-100"/>
     </g>
    </g>
   </g>
  </g>
 </g>
 <defs>
  <clipPath id="p762f2b9e6f">
   <rect height="498.96" width="1339.2" x="55.980625" y="7.2"/>
  </clipPath>
 </defs>
</svg>
