<?xml version="1.0" encoding="utf-8" standalone="no"?>
<!DOCTYPE svg PUBLIC "-//W3C//DTD SVG 1.1//EN"
  "http://www.w3.org/Graphics/SVG/1.1/DTD/svg11.dtd">
<!-- Created with matplotlib (https://matplotlib.org/) -->
<svg height="556.128775pt" version="1.1" viewBox="0 0 1407.465625 556.128775" width="1407.465625pt" xmlns="http://www.w3.org/2000/svg" xmlns:xlink="http://www.w3.org/1999/xlink">
 <defs>
  <style type="text/css">
*{stroke-linecap:butt;stroke-linejoin:round;}
  </style>
 </defs>
 <g id="figure_1">
  <g id="patch_1">
   <path d="M 0 556.128775 
L 1407.465625 556.128775 
L 1407.465625 0 
L 0 0 
z
" style="fill:#ffffff;"/>
  </g>
  <g id="axes_1">
   <g id="patch_2">
    <path d="M 61.065625 508.8944 
L 1400.265625 508.8944 
L 1400.265625 9.9344 
L 61.065625 9.9344 
z
" style="fill:#ffffff;"/>
   </g>
   <g id="matplotlib.axis_1">
    <g id="xtick_1">
     <g id="line2d_1">
      <defs>
       <path d="M 0 0 
L 0 3.5 
" id="m322d4a3780" style="stroke:#000000;stroke-width:0.8;"/>
      </defs>
      <g>
       <use style="stroke:#000000;stroke-width:0.8;" x="61.065625" xlink:href="#m322d4a3780" y="508.8944"/>
      </g>
     </g>
     <g id="text_1">
      <!-- 0 -->
      <defs>
       <path d="M 31.78125 66.40625 
Q 24.171875 66.40625 20.328125 58.90625 
Q 16.5 51.421875 16.5 36.375 
Q 16.5 21.390625 20.328125 13.890625 
Q 24.171875 6.390625 31.78125 6.390625 
Q 39.453125 6.390625 43.28125 13.890625 
Q 47.125 21.390625 47.125 36.375 
Q 47.125 51.421875 43.28125 58.90625 
Q 39.453125 66.40625 31.78125 66.40625 
z
M 31.78125 74.21875 
Q 44.046875 74.21875 50.515625 64.515625 
Q 56.984375 54.828125 56.984375 36.375 
Q 56.984375 17.96875 50.515625 8.265625 
Q 44.046875 -1.421875 31.78125 -1.421875 
Q 19.53125 -1.421875 13.0625 8.265625 
Q 6.59375 17.96875 6.59375 36.375 
Q 6.59375 54.828125 13.0625 64.515625 
Q 19.53125 74.21875 31.78125 74.21875 
z
" id="DejaVuSans-48"/>
      </defs>
      <g transform="translate(57.248125 525.012525)scale(0.12 -0.12)">
       <use xlink:href="#DejaVuSans-48"/>
      </g>
     </g>
    </g>
    <g id="xtick_2">
     <g id="line2d_2">
      <g>
       <use style="stroke:#000000;stroke-width:0.8;" x="304.556534" xlink:href="#m322d4a3780" y="508.8944"/>
      </g>
     </g>
     <g id="text_2">
      <!-- 200 -->
      <defs>
       <path d="M 19.1875 8.296875 
L 53.609375 8.296875 
L 53.609375 0 
L 7.328125 0 
L 7.328125 8.296875 
Q 12.9375 14.109375 22.625 23.890625 
Q 32.328125 33.6875 34.8125 36.53125 
Q 39.546875 41.84375 41.421875 45.53125 
Q 43.3125 49.21875 43.3125 52.78125 
Q 43.3125 58.59375 39.234375 62.25 
Q 35.15625 65.921875 28.609375 65.921875 
Q 23.96875 65.921875 18.8125 64.3125 
Q 13.671875 62.703125 7.8125 59.421875 
L 7.8125 69.390625 
Q 13.765625 71.78125 18.9375 73 
Q 24.125 74.21875 28.421875 74.21875 
Q 39.75 74.21875 46.484375 68.546875 
Q 53.21875 62.890625 53.21875 53.421875 
Q 53.21875 48.921875 51.53125 44.890625 
Q 49.859375 40.875 45.40625 35.40625 
Q 44.1875 33.984375 37.640625 27.21875 
Q 31.109375 20.453125 19.1875 8.296875 
z
" id="DejaVuSans-50"/>
      </defs>
      <g transform="translate(293.104034 525.012525)scale(0.12 -0.12)">
       <use xlink:href="#DejaVuSans-50"/>
       <use x="63.623047" xlink:href="#DejaVuSans-48"/>
       <use x="127.246094" xlink:href="#DejaVuSans-48"/>
      </g>
     </g>
    </g>
    <g id="xtick_3">
     <g id="line2d_3">
      <g>
       <use style="stroke:#000000;stroke-width:0.8;" x="548.047443" xlink:href="#m322d4a3780" y="508.8944"/>
      </g>
     </g>
     <g id="text_3">
      <!-- 400 -->
      <defs>
       <path d="M 37.796875 64.3125 
L 12.890625 25.390625 
L 37.796875 25.390625 
z
M 35.203125 72.90625 
L 47.609375 72.90625 
L 47.609375 25.390625 
L 58.015625 25.390625 
L 58.015625 17.1875 
L 47.609375 17.1875 
L 47.609375 0 
L 37.796875 0 
L 37.796875 17.1875 
L 4.890625 17.1875 
L 4.890625 26.703125 
z
" id="DejaVuSans-52"/>
      </defs>
      <g transform="translate(536.594943 525.012525)scale(0.12 -0.12)">
       <use xlink:href="#DejaVuSans-52"/>
       <use x="63.623047" xlink:href="#DejaVuSans-48"/>
       <use x="127.246094" xlink:href="#DejaVuSans-48"/>
      </g>
     </g>
    </g>
    <g id="xtick_4">
     <g id="line2d_4">
      <g>
       <use style="stroke:#000000;stroke-width:0.8;" x="791.538352" xlink:href="#m322d4a3780" y="508.8944"/>
      </g>
     </g>
     <g id="text_4">
      <!-- 600 -->
      <defs>
       <path d="M 33.015625 40.375 
Q 26.375 40.375 22.484375 35.828125 
Q 18.609375 31.296875 18.609375 23.390625 
Q 18.609375 15.53125 22.484375 10.953125 
Q 26.375 6.390625 33.015625 6.390625 
Q 39.65625 6.390625 43.53125 10.953125 
Q 47.40625 15.53125 47.40625 23.390625 
Q 47.40625 31.296875 43.53125 35.828125 
Q 39.65625 40.375 33.015625 40.375 
z
M 52.59375 71.296875 
L 52.59375 62.3125 
Q 48.875 64.0625 45.09375 64.984375 
Q 41.3125 65.921875 37.59375 65.921875 
Q 27.828125 65.921875 22.671875 59.328125 
Q 17.53125 52.734375 16.796875 39.40625 
Q 19.671875 43.65625 24.015625 45.921875 
Q 28.375 48.1875 33.59375 48.1875 
Q 44.578125 48.1875 50.953125 41.515625 
Q 57.328125 34.859375 57.328125 23.390625 
Q 57.328125 12.15625 50.6875 5.359375 
Q 44.046875 -1.421875 33.015625 -1.421875 
Q 20.359375 -1.421875 13.671875 8.265625 
Q 6.984375 17.96875 6.984375 36.375 
Q 6.984375 53.65625 15.1875 63.9375 
Q 23.390625 74.21875 37.203125 74.21875 
Q 40.921875 74.21875 44.703125 73.484375 
Q 48.484375 72.75 52.59375 71.296875 
z
" id="DejaVuSans-54"/>
      </defs>
      <g transform="translate(780.085852 525.012525)scale(0.12 -0.12)">
       <use xlink:href="#DejaVuSans-54"/>
       <use x="63.623047" xlink:href="#DejaVuSans-48"/>
       <use x="127.246094" xlink:href="#DejaVuSans-48"/>
      </g>
     </g>
    </g>
    <g id="xtick_5">
     <g id="line2d_5">
      <g>
       <use style="stroke:#000000;stroke-width:0.8;" x="1035.029261" xlink:href="#m322d4a3780" y="508.8944"/>
      </g>
     </g>
     <g id="text_5">
      <!-- 800 -->
      <defs>
       <path d="M 31.78125 34.625 
Q 24.75 34.625 20.71875 30.859375 
Q 16.703125 27.09375 16.703125 20.515625 
Q 16.703125 13.921875 20.71875 10.15625 
Q 24.75 6.390625 31.78125 6.390625 
Q 38.8125 6.390625 42.859375 10.171875 
Q 46.921875 13.96875 46.921875 20.515625 
Q 46.921875 27.09375 42.890625 30.859375 
Q 38.875 34.625 31.78125 34.625 
z
M 21.921875 38.8125 
Q 15.578125 40.375 12.03125 44.71875 
Q 8.5 49.078125 8.5 55.328125 
Q 8.5 64.0625 14.71875 69.140625 
Q 20.953125 74.21875 31.78125 74.21875 
Q 42.671875 74.21875 48.875 69.140625 
Q 55.078125 64.0625 55.078125 55.328125 
Q 55.078125 49.078125 51.53125 44.71875 
Q 48 40.375 41.703125 38.8125 
Q 48.828125 37.15625 52.796875 32.3125 
Q 56.78125 27.484375 56.78125 20.515625 
Q 56.78125 9.90625 50.3125 4.234375 
Q 43.84375 -1.421875 31.78125 -1.421875 
Q 19.734375 -1.421875 13.25 4.234375 
Q 6.78125 9.90625 6.78125 20.515625 
Q 6.78125 27.484375 10.78125 32.3125 
Q 14.796875 37.15625 21.921875 38.8125 
z
M 18.3125 54.390625 
Q 18.3125 48.734375 21.84375 45.5625 
Q 25.390625 42.390625 31.78125 42.390625 
Q 38.140625 42.390625 41.71875 45.5625 
Q 45.3125 48.734375 45.3125 54.390625 
Q 45.3125 60.0625 41.71875 63.234375 
Q 38.140625 66.40625 31.78125 66.40625 
Q 25.390625 66.40625 21.84375 63.234375 
Q 18.3125 60.0625 18.3125 54.390625 
z
" id="DejaVuSans-56"/>
      </defs>
      <g transform="translate(1023.576761 525.012525)scale(0.12 -0.12)">
       <use xlink:href="#DejaVuSans-56"/>
       <use x="63.623047" xlink:href="#DejaVuSans-48"/>
       <use x="127.246094" xlink:href="#DejaVuSans-48"/>
      </g>
     </g>
    </g>
    <g id="xtick_6">
     <g id="line2d_6">
      <g>
       <use style="stroke:#000000;stroke-width:0.8;" x="1278.52017" xlink:href="#m322d4a3780" y="508.8944"/>
      </g>
     </g>
     <g id="text_6">
      <!-- 1000 -->
      <defs>
       <path d="M 12.40625 8.296875 
L 28.515625 8.296875 
L 28.515625 63.921875 
L 10.984375 60.40625 
L 10.984375 69.390625 
L 28.421875 72.90625 
L 38.28125 72.90625 
L 38.28125 8.296875 
L 54.390625 8.296875 
L 54.390625 0 
L 12.40625 0 
z
" id="DejaVuSans-49"/>
      </defs>
      <g transform="translate(1263.25017 525.012525)scale(0.12 -0.12)">
       <use xlink:href="#DejaVuSans-49"/>
       <use x="63.623047" xlink:href="#DejaVuSans-48"/>
       <use x="127.246094" xlink:href="#DejaVuSans-48"/>
       <use x="190.869141" xlink:href="#DejaVuSans-48"/>
      </g>
     </g>
    </g>
    <g id="text_7">
     <!-- Size S -->
     <defs>
      <path d="M 53.515625 70.515625 
L 53.515625 60.890625 
Q 47.90625 63.578125 42.921875 64.890625 
Q 37.9375 66.21875 33.296875 66.21875 
Q 25.25 66.21875 20.875 63.09375 
Q 16.5 59.96875 16.5 54.203125 
Q 16.5 49.359375 19.40625 46.890625 
Q 22.3125 44.4375 30.421875 42.921875 
L 36.375 41.703125 
Q 47.40625 39.59375 52.65625 34.296875 
Q 57.90625 29 57.90625 20.125 
Q 57.90625 9.515625 50.796875 4.046875 
Q 43.703125 -1.421875 29.984375 -1.421875 
Q 24.8125 -1.421875 18.96875 -0.25 
Q 13.140625 0.921875 6.890625 3.21875 
L 6.890625 13.375 
Q 12.890625 10.015625 18.65625 8.296875 
Q 24.421875 6.59375 29.984375 6.59375 
Q 38.421875 6.59375 43.015625 9.90625 
Q 47.609375 13.234375 47.609375 19.390625 
Q 47.609375 24.75 44.3125 27.78125 
Q 41.015625 30.8125 33.5 32.328125 
L 27.484375 33.5 
Q 16.453125 35.6875 11.515625 40.375 
Q 6.59375 45.0625 6.59375 53.421875 
Q 6.59375 63.09375 13.40625 68.65625 
Q 20.21875 74.21875 32.171875 74.21875 
Q 37.3125 74.21875 42.625 73.28125 
Q 47.953125 72.359375 53.515625 70.515625 
z
" id="DejaVuSans-83"/>
      <path d="M 9.421875 54.6875 
L 18.40625 54.6875 
L 18.40625 0 
L 9.421875 0 
z
M 9.421875 75.984375 
L 18.40625 75.984375 
L 18.40625 64.59375 
L 9.421875 64.59375 
z
" id="DejaVuSans-105"/>
      <path d="M 5.515625 54.6875 
L 48.1875 54.6875 
L 48.1875 46.484375 
L 14.40625 7.171875 
L 48.1875 7.171875 
L 48.1875 0 
L 4.296875 0 
L 4.296875 8.203125 
L 38.09375 47.515625 
L 5.515625 47.515625 
z
" id="DejaVuSans-122"/>
      <path d="M 56.203125 29.59375 
L 56.203125 25.203125 
L 14.890625 25.203125 
Q 15.484375 15.921875 20.484375 11.0625 
Q 25.484375 6.203125 34.421875 6.203125 
Q 39.59375 6.203125 44.453125 7.46875 
Q 49.3125 8.734375 54.109375 11.28125 
L 54.109375 2.78125 
Q 49.265625 0.734375 44.1875 -0.34375 
Q 39.109375 -1.421875 33.890625 -1.421875 
Q 20.796875 -1.421875 13.15625 6.1875 
Q 5.515625 13.8125 5.515625 26.8125 
Q 5.515625 40.234375 12.765625 48.109375 
Q 20.015625 56 32.328125 56 
Q 43.359375 56 49.78125 48.890625 
Q 56.203125 41.796875 56.203125 29.59375 
z
M 47.21875 32.234375 
Q 47.125 39.59375 43.09375 43.984375 
Q 39.0625 48.390625 32.421875 48.390625 
Q 24.90625 48.390625 20.390625 44.140625 
Q 15.875 39.890625 15.1875 32.171875 
z
" id="DejaVuSans-101"/>
      <path id="DejaVuSans-32"/>
     </defs>
     <g transform="translate(703.616406 545.185338)scale(0.18 -0.18)">
      <use xlink:href="#DejaVuSans-83"/>
      <use x="63.476562" xlink:href="#DejaVuSans-105"/>
      <use x="91.259766" xlink:href="#DejaVuSans-122"/>
      <use x="143.75" xlink:href="#DejaVuSans-101"/>
      <use x="205.273438" xlink:href="#DejaVuSans-32"/>
      <use x="237.060547" xlink:href="#DejaVuSans-83"/>
     </g>
    </g>
   </g>
   <g id="matplotlib.axis_2">
    <g id="ytick_1">
     <g id="line2d_7">
      <path clip-path="url(#pd2c0d023fd)" d="M 61.065625 486.309264 
L 1400.265625 486.309264 
" style="fill:none;stroke:#b0b0b0;stroke-linecap:square;stroke-width:0.8;"/>
     </g>
     <g id="line2d_8">
      <defs>
       <path d="M 0 0 
L -3.5 0 
" id="mf891ff5d5c" style="stroke:#000000;stroke-width:0.8;"/>
      </defs>
      <g>
       <use style="stroke:#000000;stroke-width:0.8;" x="61.065625" xlink:href="#mf891ff5d5c" y="486.309264"/>
      </g>
     </g>
     <g id="text_8">
      <!-- 0.0 -->
      <defs>
       <path d="M 10.6875 12.40625 
L 21 12.40625 
L 21 0 
L 10.6875 0 
z
" id="DejaVuSans-46"/>
      </defs>
      <g transform="translate(28.620625 492.388014)scale(0.16 -0.16)">
       <use xlink:href="#DejaVuSans-48"/>
       <use x="63.623047" xlink:href="#DejaVuSans-46"/>
       <use x="95.410156" xlink:href="#DejaVuSans-48"/>
      </g>
     </g>
    </g>
    <g id="ytick_2">
     <g id="line2d_9">
      <path clip-path="url(#pd2c0d023fd)" d="M 61.065625 427.180449 
L 1400.265625 427.180449 
" style="fill:none;stroke:#b0b0b0;stroke-linecap:square;stroke-width:0.8;"/>
     </g>
     <g id="line2d_10">
      <g>
       <use style="stroke:#000000;stroke-width:0.8;" x="61.065625" xlink:href="#mf891ff5d5c" y="427.180449"/>
      </g>
     </g>
     <g id="text_9">
      <!-- 0.2 -->
      <g transform="translate(28.620625 433.259199)scale(0.16 -0.16)">
       <use xlink:href="#DejaVuSans-48"/>
       <use x="63.623047" xlink:href="#DejaVuSans-46"/>
       <use x="95.410156" xlink:href="#DejaVuSans-50"/>
      </g>
     </g>
    </g>
    <g id="ytick_3">
     <g id="line2d_11">
      <path clip-path="url(#pd2c0d023fd)" d="M 61.065625 368.051635 
L 1400.265625 368.051635 
" style="fill:none;stroke:#b0b0b0;stroke-linecap:square;stroke-width:0.8;"/>
     </g>
     <g id="line2d_12">
      <g>
       <use style="stroke:#000000;stroke-width:0.8;" x="61.065625" xlink:href="#mf891ff5d5c" y="368.051635"/>
      </g>
     </g>
     <g id="text_10">
      <!-- 0.4 -->
      <g transform="translate(28.620625 374.130385)scale(0.16 -0.16)">
       <use xlink:href="#DejaVuSans-48"/>
       <use x="63.623047" xlink:href="#DejaVuSans-46"/>
       <use x="95.410156" xlink:href="#DejaVuSans-52"/>
      </g>
     </g>
    </g>
    <g id="ytick_4">
     <g id="line2d_13">
      <path clip-path="url(#pd2c0d023fd)" d="M 61.065625 308.922821 
L 1400.265625 308.922821 
" style="fill:none;stroke:#b0b0b0;stroke-linecap:square;stroke-width:0.8;"/>
     </g>
     <g id="line2d_14">
      <g>
       <use style="stroke:#000000;stroke-width:0.8;" x="61.065625" xlink:href="#mf891ff5d5c" y="308.922821"/>
      </g>
     </g>
     <g id="text_11">
      <!-- 0.6 -->
      <g transform="translate(28.620625 315.001571)scale(0.16 -0.16)">
       <use xlink:href="#DejaVuSans-48"/>
       <use x="63.623047" xlink:href="#DejaVuSans-46"/>
       <use x="95.410156" xlink:href="#DejaVuSans-54"/>
      </g>
     </g>
    </g>
    <g id="ytick_5">
     <g id="line2d_15">
      <path clip-path="url(#pd2c0d023fd)" d="M 61.065625 249.794007 
L 1400.265625 249.794007 
" style="fill:none;stroke:#b0b0b0;stroke-linecap:square;stroke-width:0.8;"/>
     </g>
     <g id="line2d_16">
      <g>
       <use style="stroke:#000000;stroke-width:0.8;" x="61.065625" xlink:href="#mf891ff5d5c" y="249.794007"/>
      </g>
     </g>
     <g id="text_12">
      <!-- 0.8 -->
      <g transform="translate(28.620625 255.872757)scale(0.16 -0.16)">
       <use xlink:href="#DejaVuSans-48"/>
       <use x="63.623047" xlink:href="#DejaVuSans-46"/>
       <use x="95.410156" xlink:href="#DejaVuSans-56"/>
      </g>
     </g>
    </g>
    <g id="ytick_6">
     <g id="line2d_17">
      <path clip-path="url(#pd2c0d023fd)" d="M 61.065625 190.665193 
L 1400.265625 190.665193 
" style="fill:none;stroke:#b0b0b0;stroke-linecap:square;stroke-width:0.8;"/>
     </g>
     <g id="line2d_18">
      <g>
       <use style="stroke:#000000;stroke-width:0.8;" x="61.065625" xlink:href="#mf891ff5d5c" y="190.665193"/>
      </g>
     </g>
     <g id="text_13">
      <!-- 1.0 -->
      <g transform="translate(28.620625 196.743943)scale(0.16 -0.16)">
       <use xlink:href="#DejaVuSans-49"/>
       <use x="63.623047" xlink:href="#DejaVuSans-46"/>
       <use x="95.410156" xlink:href="#DejaVuSans-48"/>
      </g>
     </g>
    </g>
    <g id="ytick_7">
     <g id="line2d_19">
      <path clip-path="url(#pd2c0d023fd)" d="M 61.065625 131.536378 
L 1400.265625 131.536378 
" style="fill:none;stroke:#b0b0b0;stroke-linecap:square;stroke-width:0.8;"/>
     </g>
     <g id="line2d_20">
      <g>
       <use style="stroke:#000000;stroke-width:0.8;" x="61.065625" xlink:href="#mf891ff5d5c" y="131.536378"/>
      </g>
     </g>
     <g id="text_14">
      <!-- 1.2 -->
      <g transform="translate(28.620625 137.615128)scale(0.16 -0.16)">
       <use xlink:href="#DejaVuSans-49"/>
       <use x="63.623047" xlink:href="#DejaVuSans-46"/>
       <use x="95.410156" xlink:href="#DejaVuSans-50"/>
      </g>
     </g>
    </g>
    <g id="ytick_8">
     <g id="line2d_21">
      <path clip-path="url(#pd2c0d023fd)" d="M 61.065625 72.407564 
L 1400.265625 72.407564 
" style="fill:none;stroke:#b0b0b0;stroke-linecap:square;stroke-width:0.8;"/>
     </g>
     <g id="line2d_22">
      <g>
       <use style="stroke:#000000;stroke-width:0.8;" x="61.065625" xlink:href="#mf891ff5d5c" y="72.407564"/>
      </g>
     </g>
     <g id="text_15">
      <!-- 1.4 -->
      <g transform="translate(28.620625 78.486314)scale(0.16 -0.16)">
       <use xlink:href="#DejaVuSans-49"/>
       <use x="63.623047" xlink:href="#DejaVuSans-46"/>
       <use x="95.410156" xlink:href="#DejaVuSans-52"/>
      </g>
     </g>
    </g>
    <g id="ytick_9">
     <g id="line2d_23">
      <path clip-path="url(#pd2c0d023fd)" d="M 61.065625 13.27875 
L 1400.265625 13.27875 
" style="fill:none;stroke:#b0b0b0;stroke-linecap:square;stroke-width:0.8;"/>
     </g>
     <g id="line2d_24">
      <g>
       <use style="stroke:#000000;stroke-width:0.8;" x="61.065625" xlink:href="#mf891ff5d5c" y="13.27875"/>
      </g>
     </g>
     <g id="text_16">
      <!-- 1.6 -->
      <g transform="translate(28.620625 19.3575)scale(0.16 -0.16)">
       <use xlink:href="#DejaVuSans-49"/>
       <use x="63.623047" xlink:href="#DejaVuSans-46"/>
       <use x="95.410156" xlink:href="#DejaVuSans-54"/>
      </g>
     </g>
    </g>
    <g id="text_17">
     <!-- Minimum Time (ms) -->
     <defs>
      <path d="M 9.8125 72.90625 
L 24.515625 72.90625 
L 43.109375 23.296875 
L 61.8125 72.90625 
L 76.515625 72.90625 
L 76.515625 0 
L 66.890625 0 
L 66.890625 64.015625 
L 48.09375 14.015625 
L 38.1875 14.015625 
L 19.390625 64.015625 
L 19.390625 0 
L 9.8125 0 
z
" id="DejaVuSans-77"/>
      <path d="M 54.890625 33.015625 
L 54.890625 0 
L 45.90625 0 
L 45.90625 32.71875 
Q 45.90625 40.484375 42.875 44.328125 
Q 39.84375 48.1875 33.796875 48.1875 
Q 26.515625 48.1875 22.3125 43.546875 
Q 18.109375 38.921875 18.109375 30.90625 
L 18.109375 0 
L 9.078125 0 
L 9.078125 54.6875 
L 18.109375 54.6875 
L 18.109375 46.1875 
Q 21.34375 51.125 25.703125 53.5625 
Q 30.078125 56 35.796875 56 
Q 45.21875 56 50.046875 50.171875 
Q 54.890625 44.34375 54.890625 33.015625 
z
" id="DejaVuSans-110"/>
      <path d="M 52 44.1875 
Q 55.375 50.25 60.0625 53.125 
Q 64.75 56 71.09375 56 
Q 79.640625 56 84.28125 50.015625 
Q 88.921875 44.046875 88.921875 33.015625 
L 88.921875 0 
L 79.890625 0 
L 79.890625 32.71875 
Q 79.890625 40.578125 77.09375 44.375 
Q 74.3125 48.1875 68.609375 48.1875 
Q 61.625 48.1875 57.5625 43.546875 
Q 53.515625 38.921875 53.515625 30.90625 
L 53.515625 0 
L 44.484375 0 
L 44.484375 32.71875 
Q 44.484375 40.625 41.703125 44.40625 
Q 38.921875 48.1875 33.109375 48.1875 
Q 26.21875 48.1875 22.15625 43.53125 
Q 18.109375 38.875 18.109375 30.90625 
L 18.109375 0 
L 9.078125 0 
L 9.078125 54.6875 
L 18.109375 54.6875 
L 18.109375 46.1875 
Q 21.1875 51.21875 25.484375 53.609375 
Q 29.78125 56 35.6875 56 
Q 41.65625 56 45.828125 52.96875 
Q 50 49.953125 52 44.1875 
z
" id="DejaVuSans-109"/>
      <path d="M 8.5 21.578125 
L 8.5 54.6875 
L 17.484375 54.6875 
L 17.484375 21.921875 
Q 17.484375 14.15625 20.5 10.265625 
Q 23.53125 6.390625 29.59375 6.390625 
Q 36.859375 6.390625 41.078125 11.03125 
Q 45.3125 15.671875 45.3125 23.6875 
L 45.3125 54.6875 
L 54.296875 54.6875 
L 54.296875 0 
L 45.3125 0 
L 45.3125 8.40625 
Q 42.046875 3.421875 37.71875 1 
Q 33.40625 -1.421875 27.6875 -1.421875 
Q 18.265625 -1.421875 13.375 4.4375 
Q 8.5 10.296875 8.5 21.578125 
z
M 31.109375 56 
z
" id="DejaVuSans-117"/>
      <path d="M -0.296875 72.90625 
L 61.375 72.90625 
L 61.375 64.59375 
L 35.5 64.59375 
L 35.5 0 
L 25.59375 0 
L 25.59375 64.59375 
L -0.296875 64.59375 
z
" id="DejaVuSans-84"/>
      <path d="M 31 75.875 
Q 24.46875 64.65625 21.28125 53.65625 
Q 18.109375 42.671875 18.109375 31.390625 
Q 18.109375 20.125 21.3125 9.0625 
Q 24.515625 -2 31 -13.1875 
L 23.1875 -13.1875 
Q 15.875 -1.703125 12.234375 9.375 
Q 8.59375 20.453125 8.59375 31.390625 
Q 8.59375 42.28125 12.203125 53.3125 
Q 15.828125 64.359375 23.1875 75.875 
z
" id="DejaVuSans-40"/>
      <path d="M 44.28125 53.078125 
L 44.28125 44.578125 
Q 40.484375 46.53125 36.375 47.5 
Q 32.28125 48.484375 27.875 48.484375 
Q 21.1875 48.484375 17.84375 46.4375 
Q 14.5 44.390625 14.5 40.28125 
Q 14.5 37.15625 16.890625 35.375 
Q 19.28125 33.59375 26.515625 31.984375 
L 29.59375 31.296875 
Q 39.15625 29.25 43.1875 25.515625 
Q 47.21875 21.78125 47.21875 15.09375 
Q 47.21875 7.46875 41.1875 3.015625 
Q 35.15625 -1.421875 24.609375 -1.421875 
Q 20.21875 -1.421875 15.453125 -0.5625 
Q 10.6875 0.296875 5.421875 2 
L 5.421875 11.28125 
Q 10.40625 8.6875 15.234375 7.390625 
Q 20.0625 6.109375 24.8125 6.109375 
Q 31.15625 6.109375 34.5625 8.28125 
Q 37.984375 10.453125 37.984375 14.40625 
Q 37.984375 18.0625 35.515625 20.015625 
Q 33.0625 21.96875 24.703125 23.78125 
L 21.578125 24.515625 
Q 13.234375 26.265625 9.515625 29.90625 
Q 5.8125 33.546875 5.8125 39.890625 
Q 5.8125 47.609375 11.28125 51.796875 
Q 16.75 56 26.8125 56 
Q 31.78125 56 36.171875 55.265625 
Q 40.578125 54.546875 44.28125 53.078125 
z
" id="DejaVuSans-115"/>
      <path d="M 8.015625 75.875 
L 15.828125 75.875 
Q 23.140625 64.359375 26.78125 53.3125 
Q 30.421875 42.28125 30.421875 31.390625 
Q 30.421875 20.453125 26.78125 9.375 
Q 23.140625 -1.703125 15.828125 -13.1875 
L 8.015625 -13.1875 
Q 14.5 -2 17.703125 9.0625 
Q 20.90625 20.125 20.90625 31.390625 
Q 20.90625 42.671875 17.703125 53.65625 
Q 14.5 64.65625 8.015625 75.875 
z
" id="DejaVuSans-41"/>
     </defs>
     <g transform="translate(20.877188 349.6169)rotate(-90)scale(0.18 -0.18)">
      <use xlink:href="#DejaVuSans-77"/>
      <use x="86.279297" xlink:href="#DejaVuSans-105"/>
      <use x="114.0625" xlink:href="#DejaVuSans-110"/>
      <use x="177.441406" xlink:href="#DejaVuSans-105"/>
      <use x="205.224609" xlink:href="#DejaVuSans-109"/>
      <use x="302.636719" xlink:href="#DejaVuSans-117"/>
      <use x="366.015625" xlink:href="#DejaVuSans-109"/>
      <use x="463.427734" xlink:href="#DejaVuSans-32"/>
      <use x="495.214844" xlink:href="#DejaVuSans-84"/>
      <use x="556.251953" xlink:href="#DejaVuSans-105"/>
      <use x="584.035156" xlink:href="#DejaVuSans-109"/>
      <use x="681.447266" xlink:href="#DejaVuSans-101"/>
      <use x="742.970703" xlink:href="#DejaVuSans-32"/>
      <use x="774.757812" xlink:href="#DejaVuSans-40"/>
      <use x="813.771484" xlink:href="#DejaVuSans-109"/>
      <use x="911.183594" xlink:href="#DejaVuSans-115"/>
      <use x="963.283203" xlink:href="#DejaVuSans-41"/>
     </g>
    </g>
   </g>
   <g id="line2d_25">
    <path clip-path="url(#pd2c0d023fd)" d="M 121.938352 485.767923 
L 243.683807 481.56609 
L 365.429261 473.317673 
L 487.174716 461.562271 
L 608.92017 445.478549 
L 730.665625 424.645254 
L 852.41108 399.69479 
L 974.156534 374.947797 
L 1095.901989 337.827308 
L 1217.647443 296.582321 
L 1339.392898 259.461832 
" style="fill:none;stroke:#ff0000;stroke-linecap:square;stroke-width:1.5;"/>
    <defs>
     <path d="M -3 3 
L 3 -3 
M -3 -3 
L 3 3 
" id="mf11188e373" style="stroke:#ff0000;"/>
    </defs>
    <g clip-path="url(#pd2c0d023fd)">
     <use style="fill:#ff0000;stroke:#ff0000;" x="121.938352" xlink:href="#mf11188e373" y="485.767923"/>
     <use style="fill:#ff0000;stroke:#ff0000;" x="243.683807" xlink:href="#mf11188e373" y="481.56609"/>
     <use style="fill:#ff0000;stroke:#ff0000;" x="365.429261" xlink:href="#mf11188e373" y="473.317673"/>
     <use style="fill:#ff0000;stroke:#ff0000;" x="487.174716" xlink:href="#mf11188e373" y="461.562271"/>
     <use style="fill:#ff0000;stroke:#ff0000;" x="608.92017" xlink:href="#mf11188e373" y="445.478549"/>
     <use style="fill:#ff0000;stroke:#ff0000;" x="730.665625" xlink:href="#mf11188e373" y="424.645254"/>
     <use style="fill:#ff0000;stroke:#ff0000;" x="852.41108" xlink:href="#mf11188e373" y="399.69479"/>
     <use style="fill:#ff0000;stroke:#ff0000;" x="974.156534" xlink:href="#mf11188e373" y="374.947797"/>
     <use style="fill:#ff0000;stroke:#ff0000;" x="1095.901989" xlink:href="#mf11188e373" y="337.827308"/>
     <use style="fill:#ff0000;stroke:#ff0000;" x="1217.647443" xlink:href="#mf11188e373" y="296.582321"/>
     <use style="fill:#ff0000;stroke:#ff0000;" x="1339.392898" xlink:href="#mf11188e373" y="259.461832"/>
    </g>
   </g>
   <g id="line2d_26">
    <path clip-path="url(#pd2c0d023fd)" d="M 121.938352 485.319388 
L 243.683807 477.235366 
L 365.429261 460.322601 
L 487.174716 436.393915 
L 608.92017 403.819288 
L 730.665625 362.574301 
L 852.41108 313.080316 
L 974.156534 259.461832 
L 1095.901989 197.594351 
L 1217.647443 106.855378 
L 1339.392898 32.6144 
" style="fill:none;stroke:#ffa500;stroke-linecap:square;stroke-width:1.5;"/>
    <defs>
     <path d="M -3 3 
L 3 -3 
M -3 -3 
L 3 3 
" id="m9b8ee7e4dd" style="stroke:#ffa500;"/>
    </defs>
    <g clip-path="url(#pd2c0d023fd)">
     <use style="fill:#ffa500;stroke:#ffa500;" x="121.938352" xlink:href="#m9b8ee7e4dd" y="485.319388"/>
     <use style="fill:#ffa500;stroke:#ffa500;" x="243.683807" xlink:href="#m9b8ee7e4dd" y="477.235366"/>
     <use style="fill:#ffa500;stroke:#ffa500;" x="365.429261" xlink:href="#m9b8ee7e4dd" y="460.322601"/>
     <use style="fill:#ffa500;stroke:#ffa500;" x="487.174716" xlink:href="#m9b8ee7e4dd" y="436.393915"/>
     <use style="fill:#ffa500;stroke:#ffa500;" x="608.92017" xlink:href="#m9b8ee7e4dd" y="403.819288"/>
     <use style="fill:#ffa500;stroke:#ffa500;" x="730.665625" xlink:href="#m9b8ee7e4dd" y="362.574301"/>
     <use style="fill:#ffa500;stroke:#ffa500;" x="852.41108" xlink:href="#m9b8ee7e4dd" y="313.080316"/>
     <use style="fill:#ffa500;stroke:#ffa500;" x="974.156534" xlink:href="#m9b8ee7e4dd" y="259.461832"/>
     <use style="fill:#ffa500;stroke:#ffa500;" x="1095.901989" xlink:href="#m9b8ee7e4dd" y="197.594351"/>
     <use style="fill:#ffa500;stroke:#ffa500;" x="1217.647443" xlink:href="#m9b8ee7e4dd" y="106.855378"/>
     <use style="fill:#ffa500;stroke:#ffa500;" x="1339.392898" xlink:href="#m9b8ee7e4dd" y="32.6144"/>
    </g>
   </g>
   <g id="line2d_27">
    <path clip-path="url(#pd2c0d023fd)" d="M 121.938352 485.979304 
L 243.683807 483.1334 
L 365.429261 477.235366 
L 487.174716 468.161469 
L 608.92017 457.437772 
L 730.665625 431.8756 
L 852.41108 412.068286 
L 974.156534 391.445792 
L 1095.901989 354.325303 
L 1217.647443 249.150585 
L 1339.392898 269.773079 
" style="fill:none;stroke:#cccc00;stroke-linecap:square;stroke-width:1.5;"/>
    <defs>
     <path d="M -3 3 
L 3 -3 
M -3 -3 
L 3 3 
" id="m390c89f9ce" style="stroke:#cccc00;"/>
    </defs>
    <g clip-path="url(#pd2c0d023fd)">
     <use style="fill:#cccc00;stroke:#cccc00;" x="121.938352" xlink:href="#m390c89f9ce" y="485.979304"/>
     <use style="fill:#cccc00;stroke:#cccc00;" x="243.683807" xlink:href="#m390c89f9ce" y="483.1334"/>
     <use style="fill:#cccc00;stroke:#cccc00;" x="365.429261" xlink:href="#m390c89f9ce" y="477.235366"/>
     <use style="fill:#cccc00;stroke:#cccc00;" x="487.174716" xlink:href="#m390c89f9ce" y="468.161469"/>
     <use style="fill:#cccc00;stroke:#cccc00;" x="608.92017" xlink:href="#m390c89f9ce" y="457.437772"/>
     <use style="fill:#cccc00;stroke:#cccc00;" x="730.665625" xlink:href="#m390c89f9ce" y="431.8756"/>
     <use style="fill:#cccc00;stroke:#cccc00;" x="852.41108" xlink:href="#m390c89f9ce" y="412.068286"/>
     <use style="fill:#cccc00;stroke:#cccc00;" x="974.156534" xlink:href="#m390c89f9ce" y="391.445792"/>
     <use style="fill:#cccc00;stroke:#cccc00;" x="1095.901989" xlink:href="#m390c89f9ce" y="354.325303"/>
     <use style="fill:#cccc00;stroke:#cccc00;" x="1217.647443" xlink:href="#m390c89f9ce" y="249.150585"/>
     <use style="fill:#cccc00;stroke:#cccc00;" x="1339.392898" xlink:href="#m390c89f9ce" y="269.773079"/>
    </g>
   </g>
   <g id="line2d_28">
    <path clip-path="url(#pd2c0d023fd)" d="M 121.938352 486.012299 
L 243.683807 483.463334 
L 365.429261 478.060266 
L 487.174716 470.224437 
L 608.92017 460.322601 
L 730.665625 448.363875 
L 852.41108 433.65245 
L 974.156534 412.398246 
L 1095.901989 395.570291 
L 1217.647443 362.574301 
L 1339.392898 337.827308 
" style="fill:none;stroke:#008000;stroke-linecap:square;stroke-width:1.5;"/>
    <defs>
     <path d="M -3 3 
L 3 -3 
M -3 -3 
L 3 3 
" id="m283c4acf2f" style="stroke:#008000;"/>
    </defs>
    <g clip-path="url(#pd2c0d023fd)">
     <use style="fill:#008000;stroke:#008000;" x="121.938352" xlink:href="#m283c4acf2f" y="486.012299"/>
     <use style="fill:#008000;stroke:#008000;" x="243.683807" xlink:href="#m283c4acf2f" y="483.463334"/>
     <use style="fill:#008000;stroke:#008000;" x="365.429261" xlink:href="#m283c4acf2f" y="478.060266"/>
     <use style="fill:#008000;stroke:#008000;" x="487.174716" xlink:href="#m283c4acf2f" y="470.224437"/>
     <use style="fill:#008000;stroke:#008000;" x="608.92017" xlink:href="#m283c4acf2f" y="460.322601"/>
     <use style="fill:#008000;stroke:#008000;" x="730.665625" xlink:href="#m283c4acf2f" y="448.363875"/>
     <use style="fill:#008000;stroke:#008000;" x="852.41108" xlink:href="#m283c4acf2f" y="433.65245"/>
     <use style="fill:#008000;stroke:#008000;" x="974.156534" xlink:href="#m283c4acf2f" y="412.398246"/>
     <use style="fill:#008000;stroke:#008000;" x="1095.901989" xlink:href="#m283c4acf2f" y="395.570291"/>
     <use style="fill:#008000;stroke:#008000;" x="1217.647443" xlink:href="#m283c4acf2f" y="362.574301"/>
     <use style="fill:#008000;stroke:#008000;" x="1339.392898" xlink:href="#m283c4acf2f" y="337.827308"/>
    </g>
   </g>
   <g id="line2d_29">
    <path clip-path="url(#pd2c0d023fd)" d="M 121.938352 486.173155 
L 243.683807 484.576974 
L 365.429261 480.865023 
L 487.174716 471.461731 
L 608.92017 457.437772 
L 730.665625 433.65245 
L 852.41108 407.943787 
L 974.156534 395.570291 
L 1095.901989 356.445528 
L 1217.647443 300.70682 
L 1339.392898 280.084326 
" style="fill:none;stroke:#0000ff;stroke-linecap:square;stroke-width:1.5;"/>
    <defs>
     <path d="M -3 3 
L 3 -3 
M -3 -3 
L 3 3 
" id="mb63844d3a4" style="stroke:#0000ff;"/>
    </defs>
    <g clip-path="url(#pd2c0d023fd)">
     <use style="fill:#0000ff;stroke:#0000ff;" x="121.938352" xlink:href="#mb63844d3a4" y="486.173155"/>
     <use style="fill:#0000ff;stroke:#0000ff;" x="243.683807" xlink:href="#mb63844d3a4" y="484.576974"/>
     <use style="fill:#0000ff;stroke:#0000ff;" x="365.429261" xlink:href="#mb63844d3a4" y="480.865023"/>
     <use style="fill:#0000ff;stroke:#0000ff;" x="487.174716" xlink:href="#mb63844d3a4" y="471.461731"/>
     <use style="fill:#0000ff;stroke:#0000ff;" x="608.92017" xlink:href="#mb63844d3a4" y="457.437772"/>
     <use style="fill:#0000ff;stroke:#0000ff;" x="730.665625" xlink:href="#mb63844d3a4" y="433.65245"/>
     <use style="fill:#0000ff;stroke:#0000ff;" x="852.41108" xlink:href="#mb63844d3a4" y="407.943787"/>
     <use style="fill:#0000ff;stroke:#0000ff;" x="974.156534" xlink:href="#mb63844d3a4" y="395.570291"/>
     <use style="fill:#0000ff;stroke:#0000ff;" x="1095.901989" xlink:href="#mb63844d3a4" y="356.445528"/>
     <use style="fill:#0000ff;stroke:#0000ff;" x="1217.647443" xlink:href="#mb63844d3a4" y="300.70682"/>
     <use style="fill:#0000ff;stroke:#0000ff;" x="1339.392898" xlink:href="#mb63844d3a4" y="280.084326"/>
    </g>
   </g>
   <g id="line2d_30">
    <path clip-path="url(#pd2c0d023fd)" d="M 121.938352 486.2144 
L 243.683807 485.195649 
L 365.429261 483.1334 
L 487.174716 480.232872 
L 608.92017 476.410909 
L 730.665625 470.843084 
L 852.41108 464.655645 
L 974.156534 457.847681 
L 1095.901989 448.363875 
L 1217.647443 427.326298 
L 1339.392898 421.333905 
" style="fill:none;stroke:#4b0082;stroke-linecap:square;stroke-width:1.5;"/>
    <defs>
     <path d="M -3 3 
L 3 -3 
M -3 -3 
L 3 3 
" id="m81a36f7e1e" style="stroke:#4b0082;"/>
    </defs>
    <g clip-path="url(#pd2c0d023fd)">
     <use style="fill:#4b0082;stroke:#4b0082;" x="121.938352" xlink:href="#m81a36f7e1e" y="486.2144"/>
     <use style="fill:#4b0082;stroke:#4b0082;" x="243.683807" xlink:href="#m81a36f7e1e" y="485.195649"/>
     <use style="fill:#4b0082;stroke:#4b0082;" x="365.429261" xlink:href="#m81a36f7e1e" y="483.1334"/>
     <use style="fill:#4b0082;stroke:#4b0082;" x="487.174716" xlink:href="#m81a36f7e1e" y="480.232872"/>
     <use style="fill:#4b0082;stroke:#4b0082;" x="608.92017" xlink:href="#m81a36f7e1e" y="476.410909"/>
     <use style="fill:#4b0082;stroke:#4b0082;" x="730.665625" xlink:href="#m81a36f7e1e" y="470.843084"/>
     <use style="fill:#4b0082;stroke:#4b0082;" x="852.41108" xlink:href="#m81a36f7e1e" y="464.655645"/>
     <use style="fill:#4b0082;stroke:#4b0082;" x="974.156534" xlink:href="#m81a36f7e1e" y="457.847681"/>
     <use style="fill:#4b0082;stroke:#4b0082;" x="1095.901989" xlink:href="#m81a36f7e1e" y="448.363875"/>
     <use style="fill:#4b0082;stroke:#4b0082;" x="1217.647443" xlink:href="#m81a36f7e1e" y="427.326298"/>
     <use style="fill:#4b0082;stroke:#4b0082;" x="1339.392898" xlink:href="#m81a36f7e1e" y="421.333905"/>
    </g>
   </g>
   <g id="patch_3">
    <path d="M 61.065625 508.8944 
L 61.065625 9.9344 
" style="fill:none;stroke:#000000;stroke-linecap:square;stroke-linejoin:miter;stroke-width:0.8;"/>
   </g>
   <g id="patch_4">
    <path d="M 1400.265625 508.8944 
L 1400.265625 9.9344 
" style="fill:none;stroke:#000000;stroke-linecap:square;stroke-linejoin:miter;stroke-width:0.8;"/>
   </g>
   <g id="patch_5">
    <path d="M 61.065625 508.8944 
L 1400.265625 508.8944 
" style="fill:none;stroke:#000000;stroke-linecap:square;stroke-linejoin:miter;stroke-width:0.8;"/>
   </g>
   <g id="patch_6">
    <path d="M 61.065625 9.9344 
L 1400.265625 9.9344 
" style="fill:none;stroke:#000000;stroke-linecap:square;stroke-linejoin:miter;stroke-width:0.8;"/>
   </g>
   <g id="legend_1">
    <g id="patch_7">
     <path d="M 69.465625 125.2169 
L 310.331875 125.2169 
Q 312.731875 125.2169 312.731875 122.8169 
L 312.731875 18.3344 
Q 312.731875 15.9344 310.331875 15.9344 
L 69.465625 15.9344 
Q 67.065625 15.9344 67.065625 18.3344 
L 67.065625 122.8169 
Q 67.065625 125.2169 69.465625 125.2169 
z
" style="fill:#ffffff;opacity:0.8;stroke:#cccccc;stroke-linejoin:miter;"/>
    </g>
    <g id="line2d_31">
     <path d="M 71.865625 25.652525 
L 95.865625 25.652525 
" style="fill:none;stroke:#ff0000;stroke-linecap:square;stroke-width:1.5;"/>
    </g>
    <g id="line2d_32">
     <g>
      <use style="fill:#ff0000;stroke:#ff0000;" x="83.865625" xlink:href="#mf11188e373" y="25.652525"/>
     </g>
    </g>
    <g id="text_18">
     <!-- assign operator -->
     <defs>
      <path d="M 34.28125 27.484375 
Q 23.390625 27.484375 19.1875 25 
Q 14.984375 22.515625 14.984375 16.5 
Q 14.984375 11.71875 18.140625 8.90625 
Q 21.296875 6.109375 26.703125 6.109375 
Q 34.1875 6.109375 38.703125 11.40625 
Q 43.21875 16.703125 43.21875 25.484375 
L 43.21875 27.484375 
z
M 52.203125 31.203125 
L 52.203125 0 
L 43.21875 0 
L 43.21875 8.296875 
Q 40.140625 3.328125 35.546875 0.953125 
Q 30.953125 -1.421875 24.3125 -1.421875 
Q 15.921875 -1.421875 10.953125 3.296875 
Q 6 8.015625 6 15.921875 
Q 6 25.140625 12.171875 29.828125 
Q 18.359375 34.515625 30.609375 34.515625 
L 43.21875 34.515625 
L 43.21875 35.40625 
Q 43.21875 41.609375 39.140625 45 
Q 35.0625 48.390625 27.6875 48.390625 
Q 23 48.390625 18.546875 47.265625 
Q 14.109375 46.140625 10.015625 43.890625 
L 10.015625 52.203125 
Q 14.9375 54.109375 19.578125 55.046875 
Q 24.21875 56 28.609375 56 
Q 40.484375 56 46.34375 49.84375 
Q 52.203125 43.703125 52.203125 31.203125 
z
" id="DejaVuSans-97"/>
      <path d="M 45.40625 27.984375 
Q 45.40625 37.75 41.375 43.109375 
Q 37.359375 48.484375 30.078125 48.484375 
Q 22.859375 48.484375 18.828125 43.109375 
Q 14.796875 37.75 14.796875 27.984375 
Q 14.796875 18.265625 18.828125 12.890625 
Q 22.859375 7.515625 30.078125 7.515625 
Q 37.359375 7.515625 41.375 12.890625 
Q 45.40625 18.265625 45.40625 27.984375 
z
M 54.390625 6.78125 
Q 54.390625 -7.171875 48.1875 -13.984375 
Q 42 -20.796875 29.203125 -20.796875 
Q 24.46875 -20.796875 20.265625 -20.09375 
Q 16.0625 -19.390625 12.109375 -17.921875 
L 12.109375 -9.1875 
Q 16.0625 -11.328125 19.921875 -12.34375 
Q 23.78125 -13.375 27.78125 -13.375 
Q 36.625 -13.375 41.015625 -8.765625 
Q 45.40625 -4.15625 45.40625 5.171875 
L 45.40625 9.625 
Q 42.625 4.78125 38.28125 2.390625 
Q 33.9375 0 27.875 0 
Q 17.828125 0 11.671875 7.65625 
Q 5.515625 15.328125 5.515625 27.984375 
Q 5.515625 40.671875 11.671875 48.328125 
Q 17.828125 56 27.875 56 
Q 33.9375 56 38.28125 53.609375 
Q 42.625 51.21875 45.40625 46.390625 
L 45.40625 54.6875 
L 54.390625 54.6875 
z
" id="DejaVuSans-103"/>
      <path d="M 30.609375 48.390625 
Q 23.390625 48.390625 19.1875 42.75 
Q 14.984375 37.109375 14.984375 27.296875 
Q 14.984375 17.484375 19.15625 11.84375 
Q 23.34375 6.203125 30.609375 6.203125 
Q 37.796875 6.203125 41.984375 11.859375 
Q 46.1875 17.53125 46.1875 27.296875 
Q 46.1875 37.015625 41.984375 42.703125 
Q 37.796875 48.390625 30.609375 48.390625 
z
M 30.609375 56 
Q 42.328125 56 49.015625 48.375 
Q 55.71875 40.765625 55.71875 27.296875 
Q 55.71875 13.875 49.015625 6.21875 
Q 42.328125 -1.421875 30.609375 -1.421875 
Q 18.84375 -1.421875 12.171875 6.21875 
Q 5.515625 13.875 5.515625 27.296875 
Q 5.515625 40.765625 12.171875 48.375 
Q 18.84375 56 30.609375 56 
z
" id="DejaVuSans-111"/>
      <path d="M 18.109375 8.203125 
L 18.109375 -20.796875 
L 9.078125 -20.796875 
L 9.078125 54.6875 
L 18.109375 54.6875 
L 18.109375 46.390625 
Q 20.953125 51.265625 25.265625 53.625 
Q 29.59375 56 35.59375 56 
Q 45.5625 56 51.78125 48.09375 
Q 58.015625 40.1875 58.015625 27.296875 
Q 58.015625 14.40625 51.78125 6.484375 
Q 45.5625 -1.421875 35.59375 -1.421875 
Q 29.59375 -1.421875 25.265625 0.953125 
Q 20.953125 3.328125 18.109375 8.203125 
z
M 48.6875 27.296875 
Q 48.6875 37.203125 44.609375 42.84375 
Q 40.53125 48.484375 33.40625 48.484375 
Q 26.265625 48.484375 22.1875 42.84375 
Q 18.109375 37.203125 18.109375 27.296875 
Q 18.109375 17.390625 22.1875 11.75 
Q 26.265625 6.109375 33.40625 6.109375 
Q 40.53125 6.109375 44.609375 11.75 
Q 48.6875 17.390625 48.6875 27.296875 
z
" id="DejaVuSans-112"/>
      <path d="M 41.109375 46.296875 
Q 39.59375 47.171875 37.8125 47.578125 
Q 36.03125 48 33.890625 48 
Q 26.265625 48 22.1875 43.046875 
Q 18.109375 38.09375 18.109375 28.8125 
L 18.109375 0 
L 9.078125 0 
L 9.078125 54.6875 
L 18.109375 54.6875 
L 18.109375 46.1875 
Q 20.953125 51.171875 25.484375 53.578125 
Q 30.03125 56 36.53125 56 
Q 37.453125 56 38.578125 55.875 
Q 39.703125 55.765625 41.0625 55.515625 
z
" id="DejaVuSans-114"/>
      <path d="M 18.3125 70.21875 
L 18.3125 54.6875 
L 36.8125 54.6875 
L 36.8125 47.703125 
L 18.3125 47.703125 
L 18.3125 18.015625 
Q 18.3125 11.328125 20.140625 9.421875 
Q 21.96875 7.515625 27.59375 7.515625 
L 36.8125 7.515625 
L 36.8125 0 
L 27.59375 0 
Q 17.1875 0 13.234375 3.875 
Q 9.28125 7.765625 9.28125 18.015625 
L 9.28125 47.703125 
L 2.6875 47.703125 
L 2.6875 54.6875 
L 9.28125 54.6875 
L 9.28125 70.21875 
z
" id="DejaVuSans-116"/>
     </defs>
     <g transform="translate(105.465625 29.852525)scale(0.12 -0.12)">
      <use xlink:href="#DejaVuSans-97"/>
      <use x="61.279297" xlink:href="#DejaVuSans-115"/>
      <use x="113.378906" xlink:href="#DejaVuSans-115"/>
      <use x="165.478516" xlink:href="#DejaVuSans-105"/>
      <use x="193.261719" xlink:href="#DejaVuSans-103"/>
      <use x="256.738281" xlink:href="#DejaVuSans-110"/>
      <use x="320.117188" xlink:href="#DejaVuSans-32"/>
      <use x="351.904297" xlink:href="#DejaVuSans-111"/>
      <use x="413.085938" xlink:href="#DejaVuSans-112"/>
      <use x="476.5625" xlink:href="#DejaVuSans-101"/>
      <use x="538.085938" xlink:href="#DejaVuSans-114"/>
      <use x="579.199219" xlink:href="#DejaVuSans-97"/>
      <use x="640.478516" xlink:href="#DejaVuSans-116"/>
      <use x="679.6875" xlink:href="#DejaVuSans-111"/>
      <use x="740.869141" xlink:href="#DejaVuSans-114"/>
     </g>
    </g>
    <g id="line2d_33">
     <path d="M 71.865625 43.266275 
L 95.865625 43.266275 
" style="fill:none;stroke:#ffa500;stroke-linecap:square;stroke-width:1.5;"/>
    </g>
    <g id="line2d_34">
     <g>
      <use style="fill:#ffa500;stroke:#ffa500;" x="83.865625" xlink:href="#m9b8ee7e4dd" y="43.266275"/>
     </g>
    </g>
    <g id="text_19">
     <!-- std::copy with iterators -->
     <defs>
      <path d="M 45.40625 46.390625 
L 45.40625 75.984375 
L 54.390625 75.984375 
L 54.390625 0 
L 45.40625 0 
L 45.40625 8.203125 
Q 42.578125 3.328125 38.25 0.953125 
Q 33.9375 -1.421875 27.875 -1.421875 
Q 17.96875 -1.421875 11.734375 6.484375 
Q 5.515625 14.40625 5.515625 27.296875 
Q 5.515625 40.1875 11.734375 48.09375 
Q 17.96875 56 27.875 56 
Q 33.9375 56 38.25 53.625 
Q 42.578125 51.265625 45.40625 46.390625 
z
M 14.796875 27.296875 
Q 14.796875 17.390625 18.875 11.75 
Q 22.953125 6.109375 30.078125 6.109375 
Q 37.203125 6.109375 41.296875 11.75 
Q 45.40625 17.390625 45.40625 27.296875 
Q 45.40625 37.203125 41.296875 42.84375 
Q 37.203125 48.484375 30.078125 48.484375 
Q 22.953125 48.484375 18.875 42.84375 
Q 14.796875 37.203125 14.796875 27.296875 
z
" id="DejaVuSans-100"/>
      <path d="M 11.71875 12.40625 
L 22.015625 12.40625 
L 22.015625 0 
L 11.71875 0 
z
M 11.71875 51.703125 
L 22.015625 51.703125 
L 22.015625 39.3125 
L 11.71875 39.3125 
z
" id="DejaVuSans-58"/>
      <path d="M 48.78125 52.59375 
L 48.78125 44.1875 
Q 44.96875 46.296875 41.140625 47.34375 
Q 37.3125 48.390625 33.40625 48.390625 
Q 24.65625 48.390625 19.8125 42.84375 
Q 14.984375 37.3125 14.984375 27.296875 
Q 14.984375 17.28125 19.8125 11.734375 
Q 24.65625 6.203125 33.40625 6.203125 
Q 37.3125 6.203125 41.140625 7.25 
Q 44.96875 8.296875 48.78125 10.40625 
L 48.78125 2.09375 
Q 45.015625 0.34375 40.984375 -0.53125 
Q 36.96875 -1.421875 32.421875 -1.421875 
Q 20.0625 -1.421875 12.78125 6.34375 
Q 5.515625 14.109375 5.515625 27.296875 
Q 5.515625 40.671875 12.859375 48.328125 
Q 20.21875 56 33.015625 56 
Q 37.15625 56 41.109375 55.140625 
Q 45.0625 54.296875 48.78125 52.59375 
z
" id="DejaVuSans-99"/>
      <path d="M 32.171875 -5.078125 
Q 28.375 -14.84375 24.75 -17.8125 
Q 21.140625 -20.796875 15.09375 -20.796875 
L 7.90625 -20.796875 
L 7.90625 -13.28125 
L 13.1875 -13.28125 
Q 16.890625 -13.28125 18.9375 -11.515625 
Q 21 -9.765625 23.484375 -3.21875 
L 25.09375 0.875 
L 2.984375 54.6875 
L 12.5 54.6875 
L 29.59375 11.921875 
L 46.6875 54.6875 
L 56.203125 54.6875 
z
" id="DejaVuSans-121"/>
      <path d="M 4.203125 54.6875 
L 13.1875 54.6875 
L 24.421875 12.015625 
L 35.59375 54.6875 
L 46.1875 54.6875 
L 57.421875 12.015625 
L 68.609375 54.6875 
L 77.59375 54.6875 
L 63.28125 0 
L 52.6875 0 
L 40.921875 44.828125 
L 29.109375 0 
L 18.5 0 
z
" id="DejaVuSans-119"/>
      <path d="M 54.890625 33.015625 
L 54.890625 0 
L 45.90625 0 
L 45.90625 32.71875 
Q 45.90625 40.484375 42.875 44.328125 
Q 39.84375 48.1875 33.796875 48.1875 
Q 26.515625 48.1875 22.3125 43.546875 
Q 18.109375 38.921875 18.109375 30.90625 
L 18.109375 0 
L 9.078125 0 
L 9.078125 75.984375 
L 18.109375 75.984375 
L 18.109375 46.1875 
Q 21.34375 51.125 25.703125 53.5625 
Q 30.078125 56 35.796875 56 
Q 45.21875 56 50.046875 50.171875 
Q 54.890625 44.34375 54.890625 33.015625 
z
" id="DejaVuSans-104"/>
     </defs>
     <g transform="translate(105.465625 47.466275)scale(0.12 -0.12)">
      <use xlink:href="#DejaVuSans-115"/>
      <use x="52.099609" xlink:href="#DejaVuSans-116"/>
      <use x="91.308594" xlink:href="#DejaVuSans-100"/>
      <use x="154.785156" xlink:href="#DejaVuSans-58"/>
      <use x="188.476562" xlink:href="#DejaVuSans-58"/>
      <use x="222.167969" xlink:href="#DejaVuSans-99"/>
      <use x="277.148438" xlink:href="#DejaVuSans-111"/>
      <use x="338.330078" xlink:href="#DejaVuSans-112"/>
      <use x="401.806641" xlink:href="#DejaVuSans-121"/>
      <use x="460.986328" xlink:href="#DejaVuSans-32"/>
      <use x="492.773438" xlink:href="#DejaVuSans-119"/>
      <use x="574.560547" xlink:href="#DejaVuSans-105"/>
      <use x="602.34375" xlink:href="#DejaVuSans-116"/>
      <use x="641.552734" xlink:href="#DejaVuSans-104"/>
      <use x="704.931641" xlink:href="#DejaVuSans-32"/>
      <use x="736.71875" xlink:href="#DejaVuSans-105"/>
      <use x="764.501953" xlink:href="#DejaVuSans-116"/>
      <use x="803.710938" xlink:href="#DejaVuSans-101"/>
      <use x="865.234375" xlink:href="#DejaVuSans-114"/>
      <use x="906.347656" xlink:href="#DejaVuSans-97"/>
      <use x="967.626953" xlink:href="#DejaVuSans-116"/>
      <use x="1006.835938" xlink:href="#DejaVuSans-111"/>
      <use x="1068.017578" xlink:href="#DejaVuSans-114"/>
      <use x="1109.130859" xlink:href="#DejaVuSans-115"/>
     </g>
    </g>
    <g id="line2d_35">
     <path d="M 71.865625 60.880025 
L 95.865625 60.880025 
" style="fill:none;stroke:#cccc00;stroke-linecap:square;stroke-width:1.5;"/>
    </g>
    <g id="line2d_36">
     <g>
      <use style="fill:#cccc00;stroke:#cccc00;" x="83.865625" xlink:href="#m390c89f9ce" y="60.880025"/>
     </g>
    </g>
    <g id="text_20">
     <!-- copy via operator() against cache -->
     <defs>
      <path d="M 2.984375 54.6875 
L 12.5 54.6875 
L 29.59375 8.796875 
L 46.6875 54.6875 
L 56.203125 54.6875 
L 35.6875 0 
L 23.484375 0 
z
" id="DejaVuSans-118"/>
     </defs>
     <g transform="translate(105.465625 65.080025)scale(0.12 -0.12)">
      <use xlink:href="#DejaVuSans-99"/>
      <use x="54.980469" xlink:href="#DejaVuSans-111"/>
      <use x="116.162109" xlink:href="#DejaVuSans-112"/>
      <use x="179.638672" xlink:href="#DejaVuSans-121"/>
      <use x="238.818359" xlink:href="#DejaVuSans-32"/>
      <use x="270.605469" xlink:href="#DejaVuSans-118"/>
      <use x="329.785156" xlink:href="#DejaVuSans-105"/>
      <use x="357.568359" xlink:href="#DejaVuSans-97"/>
      <use x="418.847656" xlink:href="#DejaVuSans-32"/>
      <use x="450.634766" xlink:href="#DejaVuSans-111"/>
      <use x="511.816406" xlink:href="#DejaVuSans-112"/>
      <use x="575.292969" xlink:href="#DejaVuSans-101"/>
      <use x="636.816406" xlink:href="#DejaVuSans-114"/>
      <use x="677.929688" xlink:href="#DejaVuSans-97"/>
      <use x="739.208984" xlink:href="#DejaVuSans-116"/>
      <use x="778.417969" xlink:href="#DejaVuSans-111"/>
      <use x="839.599609" xlink:href="#DejaVuSans-114"/>
      <use x="880.712891" xlink:href="#DejaVuSans-40"/>
      <use x="919.726562" xlink:href="#DejaVuSans-41"/>
      <use x="958.740234" xlink:href="#DejaVuSans-32"/>
      <use x="990.527344" xlink:href="#DejaVuSans-97"/>
      <use x="1051.806641" xlink:href="#DejaVuSans-103"/>
      <use x="1115.283203" xlink:href="#DejaVuSans-97"/>
      <use x="1176.5625" xlink:href="#DejaVuSans-105"/>
      <use x="1204.345703" xlink:href="#DejaVuSans-110"/>
      <use x="1267.724609" xlink:href="#DejaVuSans-115"/>
      <use x="1319.824219" xlink:href="#DejaVuSans-116"/>
      <use x="1359.033203" xlink:href="#DejaVuSans-32"/>
      <use x="1390.820312" xlink:href="#DejaVuSans-99"/>
      <use x="1445.800781" xlink:href="#DejaVuSans-97"/>
      <use x="1507.080078" xlink:href="#DejaVuSans-99"/>
      <use x="1562.060547" xlink:href="#DejaVuSans-104"/>
      <use x="1625.439453" xlink:href="#DejaVuSans-101"/>
     </g>
    </g>
    <g id="line2d_37">
     <path d="M 71.865625 78.493775 
L 95.865625 78.493775 
" style="fill:none;stroke:#008000;stroke-linecap:square;stroke-width:1.5;"/>
    </g>
    <g id="line2d_38">
     <g>
      <use style="fill:#008000;stroke:#008000;" x="83.865625" xlink:href="#m283c4acf2f" y="78.493775"/>
     </g>
    </g>
    <g id="text_21">
     <!-- copy via operator() cache aligned -->
     <defs>
      <path d="M 9.421875 75.984375 
L 18.40625 75.984375 
L 18.40625 0 
L 9.421875 0 
z
" id="DejaVuSans-108"/>
     </defs>
     <g transform="translate(105.465625 82.693775)scale(0.12 -0.12)">
      <use xlink:href="#DejaVuSans-99"/>
      <use x="54.980469" xlink:href="#DejaVuSans-111"/>
      <use x="116.162109" xlink:href="#DejaVuSans-112"/>
      <use x="179.638672" xlink:href="#DejaVuSans-121"/>
      <use x="238.818359" xlink:href="#DejaVuSans-32"/>
      <use x="270.605469" xlink:href="#DejaVuSans-118"/>
      <use x="329.785156" xlink:href="#DejaVuSans-105"/>
      <use x="357.568359" xlink:href="#DejaVuSans-97"/>
      <use x="418.847656" xlink:href="#DejaVuSans-32"/>
      <use x="450.634766" xlink:href="#DejaVuSans-111"/>
      <use x="511.816406" xlink:href="#DejaVuSans-112"/>
      <use x="575.292969" xlink:href="#DejaVuSans-101"/>
      <use x="636.816406" xlink:href="#DejaVuSans-114"/>
      <use x="677.929688" xlink:href="#DejaVuSans-97"/>
      <use x="739.208984" xlink:href="#DejaVuSans-116"/>
      <use x="778.417969" xlink:href="#DejaVuSans-111"/>
      <use x="839.599609" xlink:href="#DejaVuSans-114"/>
      <use x="880.712891" xlink:href="#DejaVuSans-40"/>
      <use x="919.726562" xlink:href="#DejaVuSans-41"/>
      <use x="958.740234" xlink:href="#DejaVuSans-32"/>
      <use x="990.527344" xlink:href="#DejaVuSans-99"/>
      <use x="1045.507812" xlink:href="#DejaVuSans-97"/>
      <use x="1106.787109" xlink:href="#DejaVuSans-99"/>
      <use x="1161.767578" xlink:href="#DejaVuSans-104"/>
      <use x="1225.146484" xlink:href="#DejaVuSans-101"/>
      <use x="1286.669922" xlink:href="#DejaVuSans-32"/>
      <use x="1318.457031" xlink:href="#DejaVuSans-97"/>
      <use x="1379.736328" xlink:href="#DejaVuSans-108"/>
      <use x="1407.519531" xlink:href="#DejaVuSans-105"/>
      <use x="1435.302734" xlink:href="#DejaVuSans-103"/>
      <use x="1498.779297" xlink:href="#DejaVuSans-110"/>
      <use x="1562.158203" xlink:href="#DejaVuSans-101"/>
      <use x="1623.681641" xlink:href="#DejaVuSans-100"/>
     </g>
    </g>
    <g id="line2d_39">
     <path d="M 71.865625 96.107525 
L 95.865625 96.107525 
" style="fill:none;stroke:#0000ff;stroke-linecap:square;stroke-width:1.5;"/>
    </g>
    <g id="line2d_40">
     <g>
      <use style="fill:#0000ff;stroke:#0000ff;" x="83.865625" xlink:href="#mb63844d3a4" y="96.107525"/>
     </g>
    </g>
    <g id="text_22">
     <!-- raw data copy against cache -->
     <g transform="translate(105.465625 100.307525)scale(0.12 -0.12)">
      <use xlink:href="#DejaVuSans-114"/>
      <use x="41.113281" xlink:href="#DejaVuSans-97"/>
      <use x="102.392578" xlink:href="#DejaVuSans-119"/>
      <use x="184.179688" xlink:href="#DejaVuSans-32"/>
      <use x="215.966797" xlink:href="#DejaVuSans-100"/>
      <use x="279.443359" xlink:href="#DejaVuSans-97"/>
      <use x="340.722656" xlink:href="#DejaVuSans-116"/>
      <use x="379.931641" xlink:href="#DejaVuSans-97"/>
      <use x="441.210938" xlink:href="#DejaVuSans-32"/>
      <use x="472.998047" xlink:href="#DejaVuSans-99"/>
      <use x="527.978516" xlink:href="#DejaVuSans-111"/>
      <use x="589.160156" xlink:href="#DejaVuSans-112"/>
      <use x="652.636719" xlink:href="#DejaVuSans-121"/>
      <use x="711.816406" xlink:href="#DejaVuSans-32"/>
      <use x="743.603516" xlink:href="#DejaVuSans-97"/>
      <use x="804.882812" xlink:href="#DejaVuSans-103"/>
      <use x="868.359375" xlink:href="#DejaVuSans-97"/>
      <use x="929.638672" xlink:href="#DejaVuSans-105"/>
      <use x="957.421875" xlink:href="#DejaVuSans-110"/>
      <use x="1020.800781" xlink:href="#DejaVuSans-115"/>
      <use x="1072.900391" xlink:href="#DejaVuSans-116"/>
      <use x="1112.109375" xlink:href="#DejaVuSans-32"/>
      <use x="1143.896484" xlink:href="#DejaVuSans-99"/>
      <use x="1198.876953" xlink:href="#DejaVuSans-97"/>
      <use x="1260.15625" xlink:href="#DejaVuSans-99"/>
      <use x="1315.136719" xlink:href="#DejaVuSans-104"/>
      <use x="1378.515625" xlink:href="#DejaVuSans-101"/>
     </g>
    </g>
    <g id="line2d_41">
     <path d="M 71.865625 113.721275 
L 95.865625 113.721275 
" style="fill:none;stroke:#4b0082;stroke-linecap:square;stroke-width:1.5;"/>
    </g>
    <g id="line2d_42">
     <g>
      <use style="fill:#4b0082;stroke:#4b0082;" x="83.865625" xlink:href="#m81a36f7e1e" y="113.721275"/>
     </g>
    </g>
    <g id="text_23">
     <!-- raw data copy cache aligned -->
     <g transform="translate(105.465625 117.921275)scale(0.12 -0.12)">
      <use xlink:href="#DejaVuSans-114"/>
      <use x="41.113281" xlink:href="#DejaVuSans-97"/>
      <use x="102.392578" xlink:href="#DejaVuSans-119"/>
      <use x="184.179688" xlink:href="#DejaVuSans-32"/>
      <use x="215.966797" xlink:href="#DejaVuSans-100"/>
      <use x="279.443359" xlink:href="#DejaVuSans-97"/>
      <use x="340.722656" xlink:href="#DejaVuSans-116"/>
      <use x="379.931641" xlink:href="#DejaVuSans-97"/>
      <use x="441.210938" xlink:href="#DejaVuSans-32"/>
      <use x="472.998047" xlink:href="#DejaVuSans-99"/>
      <use x="527.978516" xlink:href="#DejaVuSans-111"/>
      <use x="589.160156" xlink:href="#DejaVuSans-112"/>
      <use x="652.636719" xlink:href="#DejaVuSans-121"/>
      <use x="711.816406" xlink:href="#DejaVuSans-32"/>
      <use x="743.603516" xlink:href="#DejaVuSans-99"/>
      <use x="798.583984" xlink:href="#DejaVuSans-97"/>
      <use x="859.863281" xlink:href="#DejaVuSans-99"/>
      <use x="914.84375" xlink:href="#DejaVuSans-104"/>
      <use x="978.222656" xlink:href="#DejaVuSans-101"/>
      <use x="1039.746094" xlink:href="#DejaVuSans-32"/>
      <use x="1071.533203" xlink:href="#DejaVuSans-97"/>
      <use x="1132.8125" xlink:href="#DejaVuSans-108"/>
      <use x="1160.595703" xlink:href="#DejaVuSans-105"/>
      <use x="1188.378906" xlink:href="#DejaVuSans-103"/>
      <use x="1251.855469" xlink:href="#DejaVuSans-110"/>
      <use x="1315.234375" xlink:href="#DejaVuSans-101"/>
      <use x="1376.757812" xlink:href="#DejaVuSans-100"/>
     </g>
    </g>
   </g>
  </g>
 </g>
 <defs>
  <clipPath id="pd2c0d023fd">
   <rect height="498.96" width="1339.2" x="61.065625" y="9.9344"/>
  </clipPath>
 </defs>
</svg>
