<?xml version="1.0" encoding="utf-8" standalone="no"?>
<!DOCTYPE svg PUBLIC "-//W3C//DTD SVG 1.1//EN"
  "http://www.w3.org/Graphics/SVG/1.1/DTD/svg11.dtd">
<!-- Created with matplotlib (https://matplotlib.org/) -->
<svg height="553.394375pt" version="1.1" viewBox="0 0 1422.740625 553.394375" width="1422.740625pt" xmlns="http://www.w3.org/2000/svg" xmlns:xlink="http://www.w3.org/1999/xlink">
 <defs>
  <style type="text/css">
*{stroke-linecap:butt;stroke-linejoin:round;}
  </style>
 </defs>
 <g id="figure_1">
  <g id="patch_1">
   <path d="M 0 553.394375 
L 1422.740625 553.394375 
L 1422.740625 0 
L 0 0 
z
" style="fill:#ffffff;"/>
  </g>
  <g id="axes_1">
   <g id="patch_2">
    <path d="M 76.340625 506.16 
L 1415.540625 506.16 
L 1415.540625 7.2 
L 76.340625 7.2 
z
" style="fill:#ffffff;"/>
   </g>
   <g id="matplotlib.axis_1">
    <g id="xtick_1">
     <g id="line2d_1">
      <defs>
       <path d="M 0 0 
L 0 3.5 
" id="m74bef6d59f" style="stroke:#000000;stroke-width:0.8;"/>
      </defs>
      <g>
       <use style="stroke:#000000;stroke-width:0.8;" x="76.340625" xlink:href="#m74bef6d59f" y="506.16"/>
      </g>
     </g>
     <g id="text_1">
      <!-- 0 -->
      <defs>
       <path d="M 31.78125 66.40625 
Q 24.171875 66.40625 20.328125 58.90625 
Q 16.5 51.421875 16.5 36.375 
Q 16.5 21.390625 20.328125 13.890625 
Q 24.171875 6.390625 31.78125 6.390625 
Q 39.453125 6.390625 43.28125 13.890625 
Q 47.125 21.390625 47.125 36.375 
Q 47.125 51.421875 43.28125 58.90625 
Q 39.453125 66.40625 31.78125 66.40625 
z
M 31.78125 74.21875 
Q 44.046875 74.21875 50.515625 64.515625 
Q 56.984375 54.828125 56.984375 36.375 
Q 56.984375 17.96875 50.515625 8.265625 
Q 44.046875 -1.421875 31.78125 -1.421875 
Q 19.53125 -1.421875 13.0625 8.265625 
Q 6.59375 17.96875 6.59375 36.375 
Q 6.59375 54.828125 13.0625 64.515625 
Q 19.53125 74.21875 31.78125 74.21875 
z
" id="DejaVuSans-48"/>
      </defs>
      <g transform="translate(72.523125 522.278125)scale(0.12 -0.12)">
       <use xlink:href="#DejaVuSans-48"/>
      </g>
     </g>
    </g>
    <g id="xtick_2">
     <g id="line2d_2">
      <g>
       <use style="stroke:#000000;stroke-width:0.8;" x="319.831534" xlink:href="#m74bef6d59f" y="506.16"/>
      </g>
     </g>
     <g id="text_2">
      <!-- 200 -->
      <defs>
       <path d="M 19.1875 8.296875 
L 53.609375 8.296875 
L 53.609375 0 
L 7.328125 0 
L 7.328125 8.296875 
Q 12.9375 14.109375 22.625 23.890625 
Q 32.328125 33.6875 34.8125 36.53125 
Q 39.546875 41.84375 41.421875 45.53125 
Q 43.3125 49.21875 43.3125 52.78125 
Q 43.3125 58.59375 39.234375 62.25 
Q 35.15625 65.921875 28.609375 65.921875 
Q 23.96875 65.921875 18.8125 64.3125 
Q 13.671875 62.703125 7.8125 59.421875 
L 7.8125 69.390625 
Q 13.765625 71.78125 18.9375 73 
Q 24.125 74.21875 28.421875 74.21875 
Q 39.75 74.21875 46.484375 68.546875 
Q 53.21875 62.890625 53.21875 53.421875 
Q 53.21875 48.921875 51.53125 44.890625 
Q 49.859375 40.875 45.40625 35.40625 
Q 44.1875 33.984375 37.640625 27.21875 
Q 31.109375 20.453125 19.1875 8.296875 
z
" id="DejaVuSans-50"/>
      </defs>
      <g transform="translate(308.379034 522.278125)scale(0.12 -0.12)">
       <use xlink:href="#DejaVuSans-50"/>
       <use x="63.623047" xlink:href="#DejaVuSans-48"/>
       <use x="127.246094" xlink:href="#DejaVuSans-48"/>
      </g>
     </g>
    </g>
    <g id="xtick_3">
     <g id="line2d_3">
      <g>
       <use style="stroke:#000000;stroke-width:0.8;" x="563.322443" xlink:href="#m74bef6d59f" y="506.16"/>
      </g>
     </g>
     <g id="text_3">
      <!-- 400 -->
      <defs>
       <path d="M 37.796875 64.3125 
L 12.890625 25.390625 
L 37.796875 25.390625 
z
M 35.203125 72.90625 
L 47.609375 72.90625 
L 47.609375 25.390625 
L 58.015625 25.390625 
L 58.015625 17.1875 
L 47.609375 17.1875 
L 47.609375 0 
L 37.796875 0 
L 37.796875 17.1875 
L 4.890625 17.1875 
L 4.890625 26.703125 
z
" id="DejaVuSans-52"/>
      </defs>
      <g transform="translate(551.869943 522.278125)scale(0.12 -0.12)">
       <use xlink:href="#DejaVuSans-52"/>
       <use x="63.623047" xlink:href="#DejaVuSans-48"/>
       <use x="127.246094" xlink:href="#DejaVuSans-48"/>
      </g>
     </g>
    </g>
    <g id="xtick_4">
     <g id="line2d_4">
      <g>
       <use style="stroke:#000000;stroke-width:0.8;" x="806.813352" xlink:href="#m74bef6d59f" y="506.16"/>
      </g>
     </g>
     <g id="text_4">
      <!-- 600 -->
      <defs>
       <path d="M 33.015625 40.375 
Q 26.375 40.375 22.484375 35.828125 
Q 18.609375 31.296875 18.609375 23.390625 
Q 18.609375 15.53125 22.484375 10.953125 
Q 26.375 6.390625 33.015625 6.390625 
Q 39.65625 6.390625 43.53125 10.953125 
Q 47.40625 15.53125 47.40625 23.390625 
Q 47.40625 31.296875 43.53125 35.828125 
Q 39.65625 40.375 33.015625 40.375 
z
M 52.59375 71.296875 
L 52.59375 62.3125 
Q 48.875 64.0625 45.09375 64.984375 
Q 41.3125 65.921875 37.59375 65.921875 
Q 27.828125 65.921875 22.671875 59.328125 
Q 17.53125 52.734375 16.796875 39.40625 
Q 19.671875 43.65625 24.015625 45.921875 
Q 28.375 48.1875 33.59375 48.1875 
Q 44.578125 48.1875 50.953125 41.515625 
Q 57.328125 34.859375 57.328125 23.390625 
Q 57.328125 12.15625 50.6875 5.359375 
Q 44.046875 -1.421875 33.015625 -1.421875 
Q 20.359375 -1.421875 13.671875 8.265625 
Q 6.984375 17.96875 6.984375 36.375 
Q 6.984375 53.65625 15.1875 63.9375 
Q 23.390625 74.21875 37.203125 74.21875 
Q 40.921875 74.21875 44.703125 73.484375 
Q 48.484375 72.75 52.59375 71.296875 
z
" id="DejaVuSans-54"/>
      </defs>
      <g transform="translate(795.360852 522.278125)scale(0.12 -0.12)">
       <use xlink:href="#DejaVuSans-54"/>
       <use x="63.623047" xlink:href="#DejaVuSans-48"/>
       <use x="127.246094" xlink:href="#DejaVuSans-48"/>
      </g>
     </g>
    </g>
    <g id="xtick_5">
     <g id="line2d_5">
      <g>
       <use style="stroke:#000000;stroke-width:0.8;" x="1050.304261" xlink:href="#m74bef6d59f" y="506.16"/>
      </g>
     </g>
     <g id="text_5">
      <!-- 800 -->
      <defs>
       <path d="M 31.78125 34.625 
Q 24.75 34.625 20.71875 30.859375 
Q 16.703125 27.09375 16.703125 20.515625 
Q 16.703125 13.921875 20.71875 10.15625 
Q 24.75 6.390625 31.78125 6.390625 
Q 38.8125 6.390625 42.859375 10.171875 
Q 46.921875 13.96875 46.921875 20.515625 
Q 46.921875 27.09375 42.890625 30.859375 
Q 38.875 34.625 31.78125 34.625 
z
M 21.921875 38.8125 
Q 15.578125 40.375 12.03125 44.71875 
Q 8.5 49.078125 8.5 55.328125 
Q 8.5 64.0625 14.71875 69.140625 
Q 20.953125 74.21875 31.78125 74.21875 
Q 42.671875 74.21875 48.875 69.140625 
Q 55.078125 64.0625 55.078125 55.328125 
Q 55.078125 49.078125 51.53125 44.71875 
Q 48 40.375 41.703125 38.8125 
Q 48.828125 37.15625 52.796875 32.3125 
Q 56.78125 27.484375 56.78125 20.515625 
Q 56.78125 9.90625 50.3125 4.234375 
Q 43.84375 -1.421875 31.78125 -1.421875 
Q 19.734375 -1.421875 13.25 4.234375 
Q 6.78125 9.90625 6.78125 20.515625 
Q 6.78125 27.484375 10.78125 32.3125 
Q 14.796875 37.15625 21.921875 38.8125 
z
M 18.3125 54.390625 
Q 18.3125 48.734375 21.84375 45.5625 
Q 25.390625 42.390625 31.78125 42.390625 
Q 38.140625 42.390625 41.71875 45.5625 
Q 45.3125 48.734375 45.3125 54.390625 
Q 45.3125 60.0625 41.71875 63.234375 
Q 38.140625 66.40625 31.78125 66.40625 
Q 25.390625 66.40625 21.84375 63.234375 
Q 18.3125 60.0625 18.3125 54.390625 
z
" id="DejaVuSans-56"/>
      </defs>
      <g transform="translate(1038.851761 522.278125)scale(0.12 -0.12)">
       <use xlink:href="#DejaVuSans-56"/>
       <use x="63.623047" xlink:href="#DejaVuSans-48"/>
       <use x="127.246094" xlink:href="#DejaVuSans-48"/>
      </g>
     </g>
    </g>
    <g id="xtick_6">
     <g id="line2d_6">
      <g>
       <use style="stroke:#000000;stroke-width:0.8;" x="1293.79517" xlink:href="#m74bef6d59f" y="506.16"/>
      </g>
     </g>
     <g id="text_6">
      <!-- 1000 -->
      <defs>
       <path d="M 12.40625 8.296875 
L 28.515625 8.296875 
L 28.515625 63.921875 
L 10.984375 60.40625 
L 10.984375 69.390625 
L 28.421875 72.90625 
L 38.28125 72.90625 
L 38.28125 8.296875 
L 54.390625 8.296875 
L 54.390625 0 
L 12.40625 0 
z
" id="DejaVuSans-49"/>
      </defs>
      <g transform="translate(1278.52517 522.278125)scale(0.12 -0.12)">
       <use xlink:href="#DejaVuSans-49"/>
       <use x="63.623047" xlink:href="#DejaVuSans-48"/>
       <use x="127.246094" xlink:href="#DejaVuSans-48"/>
       <use x="190.869141" xlink:href="#DejaVuSans-48"/>
      </g>
     </g>
    </g>
    <g id="text_7">
     <!-- Size S -->
     <defs>
      <path d="M 53.515625 70.515625 
L 53.515625 60.890625 
Q 47.90625 63.578125 42.921875 64.890625 
Q 37.9375 66.21875 33.296875 66.21875 
Q 25.25 66.21875 20.875 63.09375 
Q 16.5 59.96875 16.5 54.203125 
Q 16.5 49.359375 19.40625 46.890625 
Q 22.3125 44.4375 30.421875 42.921875 
L 36.375 41.703125 
Q 47.40625 39.59375 52.65625 34.296875 
Q 57.90625 29 57.90625 20.125 
Q 57.90625 9.515625 50.796875 4.046875 
Q 43.703125 -1.421875 29.984375 -1.421875 
Q 24.8125 -1.421875 18.96875 -0.25 
Q 13.140625 0.921875 6.890625 3.21875 
L 6.890625 13.375 
Q 12.890625 10.015625 18.65625 8.296875 
Q 24.421875 6.59375 29.984375 6.59375 
Q 38.421875 6.59375 43.015625 9.90625 
Q 47.609375 13.234375 47.609375 19.390625 
Q 47.609375 24.75 44.3125 27.78125 
Q 41.015625 30.8125 33.5 32.328125 
L 27.484375 33.5 
Q 16.453125 35.6875 11.515625 40.375 
Q 6.59375 45.0625 6.59375 53.421875 
Q 6.59375 63.09375 13.40625 68.65625 
Q 20.21875 74.21875 32.171875 74.21875 
Q 37.3125 74.21875 42.625 73.28125 
Q 47.953125 72.359375 53.515625 70.515625 
z
" id="DejaVuSans-83"/>
      <path d="M 9.421875 54.6875 
L 18.40625 54.6875 
L 18.40625 0 
L 9.421875 0 
z
M 9.421875 75.984375 
L 18.40625 75.984375 
L 18.40625 64.59375 
L 9.421875 64.59375 
z
" id="DejaVuSans-105"/>
      <path d="M 5.515625 54.6875 
L 48.1875 54.6875 
L 48.1875 46.484375 
L 14.40625 7.171875 
L 48.1875 7.171875 
L 48.1875 0 
L 4.296875 0 
L 4.296875 8.203125 
L 38.09375 47.515625 
L 5.515625 47.515625 
z
" id="DejaVuSans-122"/>
      <path d="M 56.203125 29.59375 
L 56.203125 25.203125 
L 14.890625 25.203125 
Q 15.484375 15.921875 20.484375 11.0625 
Q 25.484375 6.203125 34.421875 6.203125 
Q 39.59375 6.203125 44.453125 7.46875 
Q 49.3125 8.734375 54.109375 11.28125 
L 54.109375 2.78125 
Q 49.265625 0.734375 44.1875 -0.34375 
Q 39.109375 -1.421875 33.890625 -1.421875 
Q 20.796875 -1.421875 13.15625 6.1875 
Q 5.515625 13.8125 5.515625 26.8125 
Q 5.515625 40.234375 12.765625 48.109375 
Q 20.015625 56 32.328125 56 
Q 43.359375 56 49.78125 48.890625 
Q 56.203125 41.796875 56.203125 29.59375 
z
M 47.21875 32.234375 
Q 47.125 39.59375 43.09375 43.984375 
Q 39.0625 48.390625 32.421875 48.390625 
Q 24.90625 48.390625 20.390625 44.140625 
Q 15.875 39.890625 15.1875 32.171875 
z
" id="DejaVuSans-101"/>
      <path id="DejaVuSans-32"/>
     </defs>
     <g transform="translate(718.891406 542.450938)scale(0.18 -0.18)">
      <use xlink:href="#DejaVuSans-83"/>
      <use x="63.476562" xlink:href="#DejaVuSans-105"/>
      <use x="91.259766" xlink:href="#DejaVuSans-122"/>
      <use x="143.75" xlink:href="#DejaVuSans-101"/>
      <use x="205.273438" xlink:href="#DejaVuSans-32"/>
      <use x="237.060547" xlink:href="#DejaVuSans-83"/>
     </g>
    </g>
   </g>
   <g id="matplotlib.axis_2">
    <g id="ytick_1">
     <g id="line2d_7">
      <path clip-path="url(#p956b61d0f7)" d="M 76.340625 483.577545 
L 1415.540625 483.577545 
" style="fill:none;stroke:#b0b0b0;stroke-linecap:square;stroke-width:0.8;"/>
     </g>
     <g id="line2d_8">
      <defs>
       <path d="M 0 0 
L -3.5 0 
" id="m5753718e76" style="stroke:#000000;stroke-width:0.8;"/>
      </defs>
      <g>
       <use style="stroke:#000000;stroke-width:0.8;" x="76.340625" xlink:href="#m5753718e76" y="483.577545"/>
      </g>
     </g>
     <g id="text_8">
      <!-- 0 -->
      <g transform="translate(59.160625 489.656295)scale(0.16 -0.16)">
       <use xlink:href="#DejaVuSans-48"/>
      </g>
     </g>
    </g>
    <g id="ytick_2">
     <g id="line2d_9">
      <path clip-path="url(#p956b61d0f7)" d="M 76.340625 402.274945 
L 1415.540625 402.274945 
" style="fill:none;stroke:#b0b0b0;stroke-linecap:square;stroke-width:0.8;"/>
     </g>
     <g id="line2d_10">
      <g>
       <use style="stroke:#000000;stroke-width:0.8;" x="76.340625" xlink:href="#m5753718e76" y="402.274945"/>
      </g>
     </g>
     <g id="text_9">
      <!-- 1000 -->
      <g transform="translate(28.620625 408.353695)scale(0.16 -0.16)">
       <use xlink:href="#DejaVuSans-49"/>
       <use x="63.623047" xlink:href="#DejaVuSans-48"/>
       <use x="127.246094" xlink:href="#DejaVuSans-48"/>
       <use x="190.869141" xlink:href="#DejaVuSans-48"/>
      </g>
     </g>
    </g>
    <g id="ytick_3">
     <g id="line2d_11">
      <path clip-path="url(#p956b61d0f7)" d="M 76.340625 320.972345 
L 1415.540625 320.972345 
" style="fill:none;stroke:#b0b0b0;stroke-linecap:square;stroke-width:0.8;"/>
     </g>
     <g id="line2d_12">
      <g>
       <use style="stroke:#000000;stroke-width:0.8;" x="76.340625" xlink:href="#m5753718e76" y="320.972345"/>
      </g>
     </g>
     <g id="text_10">
      <!-- 2000 -->
      <g transform="translate(28.620625 327.051095)scale(0.16 -0.16)">
       <use xlink:href="#DejaVuSans-50"/>
       <use x="63.623047" xlink:href="#DejaVuSans-48"/>
       <use x="127.246094" xlink:href="#DejaVuSans-48"/>
       <use x="190.869141" xlink:href="#DejaVuSans-48"/>
      </g>
     </g>
    </g>
    <g id="ytick_4">
     <g id="line2d_13">
      <path clip-path="url(#p956b61d0f7)" d="M 76.340625 239.669745 
L 1415.540625 239.669745 
" style="fill:none;stroke:#b0b0b0;stroke-linecap:square;stroke-width:0.8;"/>
     </g>
     <g id="line2d_14">
      <g>
       <use style="stroke:#000000;stroke-width:0.8;" x="76.340625" xlink:href="#m5753718e76" y="239.669745"/>
      </g>
     </g>
     <g id="text_11">
      <!-- 3000 -->
      <defs>
       <path d="M 40.578125 39.3125 
Q 47.65625 37.796875 51.625 33 
Q 55.609375 28.21875 55.609375 21.1875 
Q 55.609375 10.40625 48.1875 4.484375 
Q 40.765625 -1.421875 27.09375 -1.421875 
Q 22.515625 -1.421875 17.65625 -0.515625 
Q 12.796875 0.390625 7.625 2.203125 
L 7.625 11.71875 
Q 11.71875 9.328125 16.59375 8.109375 
Q 21.484375 6.890625 26.8125 6.890625 
Q 36.078125 6.890625 40.9375 10.546875 
Q 45.796875 14.203125 45.796875 21.1875 
Q 45.796875 27.640625 41.28125 31.265625 
Q 36.765625 34.90625 28.71875 34.90625 
L 20.21875 34.90625 
L 20.21875 43.015625 
L 29.109375 43.015625 
Q 36.375 43.015625 40.234375 45.921875 
Q 44.09375 48.828125 44.09375 54.296875 
Q 44.09375 59.90625 40.109375 62.90625 
Q 36.140625 65.921875 28.71875 65.921875 
Q 24.65625 65.921875 20.015625 65.03125 
Q 15.375 64.15625 9.8125 62.3125 
L 9.8125 71.09375 
Q 15.4375 72.65625 20.34375 73.4375 
Q 25.25 74.21875 29.59375 74.21875 
Q 40.828125 74.21875 47.359375 69.109375 
Q 53.90625 64.015625 53.90625 55.328125 
Q 53.90625 49.265625 50.4375 45.09375 
Q 46.96875 40.921875 40.578125 39.3125 
z
" id="DejaVuSans-51"/>
      </defs>
      <g transform="translate(28.620625 245.748495)scale(0.16 -0.16)">
       <use xlink:href="#DejaVuSans-51"/>
       <use x="63.623047" xlink:href="#DejaVuSans-48"/>
       <use x="127.246094" xlink:href="#DejaVuSans-48"/>
       <use x="190.869141" xlink:href="#DejaVuSans-48"/>
      </g>
     </g>
    </g>
    <g id="ytick_5">
     <g id="line2d_15">
      <path clip-path="url(#p956b61d0f7)" d="M 76.340625 158.367145 
L 1415.540625 158.367145 
" style="fill:none;stroke:#b0b0b0;stroke-linecap:square;stroke-width:0.8;"/>
     </g>
     <g id="line2d_16">
      <g>
       <use style="stroke:#000000;stroke-width:0.8;" x="76.340625" xlink:href="#m5753718e76" y="158.367145"/>
      </g>
     </g>
     <g id="text_12">
      <!-- 4000 -->
      <g transform="translate(28.620625 164.445895)scale(0.16 -0.16)">
       <use xlink:href="#DejaVuSans-52"/>
       <use x="63.623047" xlink:href="#DejaVuSans-48"/>
       <use x="127.246094" xlink:href="#DejaVuSans-48"/>
       <use x="190.869141" xlink:href="#DejaVuSans-48"/>
      </g>
     </g>
    </g>
    <g id="ytick_6">
     <g id="line2d_17">
      <path clip-path="url(#p956b61d0f7)" d="M 76.340625 77.064545 
L 1415.540625 77.064545 
" style="fill:none;stroke:#b0b0b0;stroke-linecap:square;stroke-width:0.8;"/>
     </g>
     <g id="line2d_18">
      <g>
       <use style="stroke:#000000;stroke-width:0.8;" x="76.340625" xlink:href="#m5753718e76" y="77.064545"/>
      </g>
     </g>
     <g id="text_13">
      <!-- 5000 -->
      <defs>
       <path d="M 10.796875 72.90625 
L 49.515625 72.90625 
L 49.515625 64.59375 
L 19.828125 64.59375 
L 19.828125 46.734375 
Q 21.96875 47.46875 24.109375 47.828125 
Q 26.265625 48.1875 28.421875 48.1875 
Q 40.625 48.1875 47.75 41.5 
Q 54.890625 34.8125 54.890625 23.390625 
Q 54.890625 11.625 47.5625 5.09375 
Q 40.234375 -1.421875 26.90625 -1.421875 
Q 22.3125 -1.421875 17.546875 -0.640625 
Q 12.796875 0.140625 7.71875 1.703125 
L 7.71875 11.625 
Q 12.109375 9.234375 16.796875 8.0625 
Q 21.484375 6.890625 26.703125 6.890625 
Q 35.15625 6.890625 40.078125 11.328125 
Q 45.015625 15.765625 45.015625 23.390625 
Q 45.015625 31 40.078125 35.4375 
Q 35.15625 39.890625 26.703125 39.890625 
Q 22.75 39.890625 18.8125 39.015625 
Q 14.890625 38.140625 10.796875 36.28125 
z
" id="DejaVuSans-53"/>
      </defs>
      <g transform="translate(28.620625 83.143295)scale(0.16 -0.16)">
       <use xlink:href="#DejaVuSans-53"/>
       <use x="63.623047" xlink:href="#DejaVuSans-48"/>
       <use x="127.246094" xlink:href="#DejaVuSans-48"/>
       <use x="190.869141" xlink:href="#DejaVuSans-48"/>
      </g>
     </g>
    </g>
    <g id="text_14">
     <!-- Minimum Time (μs) -->
     <defs>
      <path d="M 9.8125 72.90625 
L 24.515625 72.90625 
L 43.109375 23.296875 
L 61.8125 72.90625 
L 76.515625 72.90625 
L 76.515625 0 
L 66.890625 0 
L 66.890625 64.015625 
L 48.09375 14.015625 
L 38.1875 14.015625 
L 19.390625 64.015625 
L 19.390625 0 
L 9.8125 0 
z
" id="DejaVuSans-77"/>
      <path d="M 54.890625 33.015625 
L 54.890625 0 
L 45.90625 0 
L 45.90625 32.71875 
Q 45.90625 40.484375 42.875 44.328125 
Q 39.84375 48.1875 33.796875 48.1875 
Q 26.515625 48.1875 22.3125 43.546875 
Q 18.109375 38.921875 18.109375 30.90625 
L 18.109375 0 
L 9.078125 0 
L 9.078125 54.6875 
L 18.109375 54.6875 
L 18.109375 46.1875 
Q 21.34375 51.125 25.703125 53.5625 
Q 30.078125 56 35.796875 56 
Q 45.21875 56 50.046875 50.171875 
Q 54.890625 44.34375 54.890625 33.015625 
z
" id="DejaVuSans-110"/>
      <path d="M 52 44.1875 
Q 55.375 50.25 60.0625 53.125 
Q 64.75 56 71.09375 56 
Q 79.640625 56 84.28125 50.015625 
Q 88.921875 44.046875 88.921875 33.015625 
L 88.921875 0 
L 79.890625 0 
L 79.890625 32.71875 
Q 79.890625 40.578125 77.09375 44.375 
Q 74.3125 48.1875 68.609375 48.1875 
Q 61.625 48.1875 57.5625 43.546875 
Q 53.515625 38.921875 53.515625 30.90625 
L 53.515625 0 
L 44.484375 0 
L 44.484375 32.71875 
Q 44.484375 40.625 41.703125 44.40625 
Q 38.921875 48.1875 33.109375 48.1875 
Q 26.21875 48.1875 22.15625 43.53125 
Q 18.109375 38.875 18.109375 30.90625 
L 18.109375 0 
L 9.078125 0 
L 9.078125 54.6875 
L 18.109375 54.6875 
L 18.109375 46.1875 
Q 21.1875 51.21875 25.484375 53.609375 
Q 29.78125 56 35.6875 56 
Q 41.65625 56 45.828125 52.96875 
Q 50 49.953125 52 44.1875 
z
" id="DejaVuSans-109"/>
      <path d="M 8.5 21.578125 
L 8.5 54.6875 
L 17.484375 54.6875 
L 17.484375 21.921875 
Q 17.484375 14.15625 20.5 10.265625 
Q 23.53125 6.390625 29.59375 6.390625 
Q 36.859375 6.390625 41.078125 11.03125 
Q 45.3125 15.671875 45.3125 23.6875 
L 45.3125 54.6875 
L 54.296875 54.6875 
L 54.296875 0 
L 45.3125 0 
L 45.3125 8.40625 
Q 42.046875 3.421875 37.71875 1 
Q 33.40625 -1.421875 27.6875 -1.421875 
Q 18.265625 -1.421875 13.375 4.4375 
Q 8.5 10.296875 8.5 21.578125 
z
M 31.109375 56 
z
" id="DejaVuSans-117"/>
      <path d="M -0.296875 72.90625 
L 61.375 72.90625 
L 61.375 64.59375 
L 35.5 64.59375 
L 35.5 0 
L 25.59375 0 
L 25.59375 64.59375 
L -0.296875 64.59375 
z
" id="DejaVuSans-84"/>
      <path d="M 31 75.875 
Q 24.46875 64.65625 21.28125 53.65625 
Q 18.109375 42.671875 18.109375 31.390625 
Q 18.109375 20.125 21.3125 9.0625 
Q 24.515625 -2 31 -13.1875 
L 23.1875 -13.1875 
Q 15.875 -1.703125 12.234375 9.375 
Q 8.59375 20.453125 8.59375 31.390625 
Q 8.59375 42.28125 12.203125 53.3125 
Q 15.828125 64.359375 23.1875 75.875 
z
" id="DejaVuSans-40"/>
      <path d="M 8.5 -20.796875 
L 8.5 54.6875 
L 17.484375 54.6875 
L 17.484375 20.703125 
Q 17.484375 13.625 20.84375 10 
Q 24.21875 6.390625 30.8125 6.390625 
Q 38.03125 6.390625 41.671875 10.484375 
Q 45.3125 14.59375 45.3125 22.796875 
L 45.3125 54.6875 
L 54.296875 54.6875 
L 54.296875 12.59375 
Q 54.296875 9.671875 55.140625 8.28125 
Q 56 6.890625 57.8125 6.890625 
Q 58.25 6.890625 59.03125 7.15625 
Q 59.8125 7.421875 61.1875 8.015625 
L 61.1875 0.78125 
Q 59.1875 -0.34375 57.390625 -0.875 
Q 55.609375 -1.421875 53.90625 -1.421875 
Q 50.53125 -1.421875 48.53125 0.484375 
Q 46.53125 2.390625 45.796875 6.296875 
Q 43.359375 2.4375 39.8125 0.5 
Q 36.28125 -1.421875 31.5 -1.421875 
Q 26.515625 -1.421875 23.015625 0.484375 
Q 19.53125 2.390625 17.484375 6.203125 
L 17.484375 -20.796875 
z
" id="DejaVuSans-956"/>
      <path d="M 44.28125 53.078125 
L 44.28125 44.578125 
Q 40.484375 46.53125 36.375 47.5 
Q 32.28125 48.484375 27.875 48.484375 
Q 21.1875 48.484375 17.84375 46.4375 
Q 14.5 44.390625 14.5 40.28125 
Q 14.5 37.15625 16.890625 35.375 
Q 19.28125 33.59375 26.515625 31.984375 
L 29.59375 31.296875 
Q 39.15625 29.25 43.1875 25.515625 
Q 47.21875 21.78125 47.21875 15.09375 
Q 47.21875 7.46875 41.1875 3.015625 
Q 35.15625 -1.421875 24.609375 -1.421875 
Q 20.21875 -1.421875 15.453125 -0.5625 
Q 10.6875 0.296875 5.421875 2 
L 5.421875 11.28125 
Q 10.40625 8.6875 15.234375 7.390625 
Q 20.0625 6.109375 24.8125 6.109375 
Q 31.15625 6.109375 34.5625 8.28125 
Q 37.984375 10.453125 37.984375 14.40625 
Q 37.984375 18.0625 35.515625 20.015625 
Q 33.0625 21.96875 24.703125 23.78125 
L 21.578125 24.515625 
Q 13.234375 26.265625 9.515625 29.90625 
Q 5.8125 33.546875 5.8125 39.890625 
Q 5.8125 47.609375 11.28125 51.796875 
Q 16.75 56 26.8125 56 
Q 31.78125 56 36.171875 55.265625 
Q 40.578125 54.546875 44.28125 53.078125 
z
" id="DejaVuSans-115"/>
      <path d="M 8.015625 75.875 
L 15.828125 75.875 
Q 23.140625 64.359375 26.78125 53.3125 
Q 30.421875 42.28125 30.421875 31.390625 
Q 30.421875 20.453125 26.78125 9.375 
Q 23.140625 -1.703125 15.828125 -13.1875 
L 8.015625 -13.1875 
Q 14.5 -2 17.703125 9.0625 
Q 20.90625 20.125 20.90625 31.390625 
Q 20.90625 42.671875 17.703125 53.65625 
Q 14.5 64.65625 8.015625 75.875 
z
" id="DejaVuSans-41"/>
     </defs>
     <g transform="translate(20.877188 343.565156)rotate(-90)scale(0.18 -0.18)">
      <use xlink:href="#DejaVuSans-77"/>
      <use x="86.279297" xlink:href="#DejaVuSans-105"/>
      <use x="114.0625" xlink:href="#DejaVuSans-110"/>
      <use x="177.441406" xlink:href="#DejaVuSans-105"/>
      <use x="205.224609" xlink:href="#DejaVuSans-109"/>
      <use x="302.636719" xlink:href="#DejaVuSans-117"/>
      <use x="366.015625" xlink:href="#DejaVuSans-109"/>
      <use x="463.427734" xlink:href="#DejaVuSans-32"/>
      <use x="495.214844" xlink:href="#DejaVuSans-84"/>
      <use x="553.173828" xlink:href="#DejaVuSans-105"/>
      <use x="580.957031" xlink:href="#DejaVuSans-109"/>
      <use x="678.369141" xlink:href="#DejaVuSans-101"/>
      <use x="739.892578" xlink:href="#DejaVuSans-32"/>
      <use x="771.679688" xlink:href="#DejaVuSans-40"/>
      <use x="810.693359" xlink:href="#DejaVuSans-956"/>
      <use x="874.316406" xlink:href="#DejaVuSans-115"/>
      <use x="926.416016" xlink:href="#DejaVuSans-41"/>
     </g>
    </g>
   </g>
   <g id="line2d_19">
    <path clip-path="url(#p956b61d0f7)" d="M 137.213352 483.010423 
L 258.958807 477.480984 
L 380.704261 465.713204 
L 502.449716 445.288268 
L 624.19517 421.194133 
L 745.940625 386.032573 
L 867.68608 340.535102 
L 989.431534 283.950625 
L 1111.176989 209.963026 
L 1232.922443 131.961948 
L 1354.667898 29.88 
" style="fill:none;stroke:#9a0707;stroke-linecap:square;stroke-width:1.5;"/>
    <defs>
     <path d="M -3 3 
L 3 -3 
M -3 -3 
L 3 3 
" id="m11c9a4bfee" style="stroke:#9a0707;"/>
    </defs>
    <g clip-path="url(#p956b61d0f7)">
     <use style="fill:#9a0707;stroke:#9a0707;" x="137.213352" xlink:href="#m11c9a4bfee" y="483.010423"/>
     <use style="fill:#9a0707;stroke:#9a0707;" x="258.958807" xlink:href="#m11c9a4bfee" y="477.480984"/>
     <use style="fill:#9a0707;stroke:#9a0707;" x="380.704261" xlink:href="#m11c9a4bfee" y="465.713204"/>
     <use style="fill:#9a0707;stroke:#9a0707;" x="502.449716" xlink:href="#m11c9a4bfee" y="445.288268"/>
     <use style="fill:#9a0707;stroke:#9a0707;" x="624.19517" xlink:href="#m11c9a4bfee" y="421.194133"/>
     <use style="fill:#9a0707;stroke:#9a0707;" x="745.940625" xlink:href="#m11c9a4bfee" y="386.032573"/>
     <use style="fill:#9a0707;stroke:#9a0707;" x="867.68608" xlink:href="#m11c9a4bfee" y="340.535102"/>
     <use style="fill:#9a0707;stroke:#9a0707;" x="989.431534" xlink:href="#m11c9a4bfee" y="283.950625"/>
     <use style="fill:#9a0707;stroke:#9a0707;" x="1111.176989" xlink:href="#m11c9a4bfee" y="209.963026"/>
     <use style="fill:#9a0707;stroke:#9a0707;" x="1232.922443" xlink:href="#m11c9a4bfee" y="131.961948"/>
     <use style="fill:#9a0707;stroke:#9a0707;" x="1354.667898" xlink:href="#m11c9a4bfee" y="29.88"/>
    </g>
   </g>
   <g id="line2d_20">
    <path clip-path="url(#p956b61d0f7)" d="M 137.213352 483.390395 
L 258.958807 481.408308 
L 380.704261 477.452628 
L 502.449716 471.667984 
L 624.19517 459.872906 
L 745.940625 453.579473 
L 867.68608 441.655892 
L 989.431534 426.865352 
L 1111.176989 410.451461 
L 1232.922443 388.301061 
L 1354.667898 296.635948 
" style="fill:none;stroke:#ea0909;stroke-dasharray:1.5,2.475;stroke-dashoffset:0;stroke-width:1.5;"/>
    <defs>
     <path d="M -3 3 
L 3 -3 
M -3 -3 
L 3 3 
" id="m3ad88079bb" style="stroke:#ea0909;"/>
    </defs>
    <g clip-path="url(#p956b61d0f7)">
     <use style="fill:#ea0909;stroke:#ea0909;" x="137.213352" xlink:href="#m3ad88079bb" y="483.390395"/>
     <use style="fill:#ea0909;stroke:#ea0909;" x="258.958807" xlink:href="#m3ad88079bb" y="481.408308"/>
     <use style="fill:#ea0909;stroke:#ea0909;" x="380.704261" xlink:href="#m3ad88079bb" y="477.452628"/>
     <use style="fill:#ea0909;stroke:#ea0909;" x="502.449716" xlink:href="#m3ad88079bb" y="471.667984"/>
     <use style="fill:#ea0909;stroke:#ea0909;" x="624.19517" xlink:href="#m3ad88079bb" y="459.872906"/>
     <use style="fill:#ea0909;stroke:#ea0909;" x="745.940625" xlink:href="#m3ad88079bb" y="453.579473"/>
     <use style="fill:#ea0909;stroke:#ea0909;" x="867.68608" xlink:href="#m3ad88079bb" y="441.655892"/>
     <use style="fill:#ea0909;stroke:#ea0909;" x="989.431534" xlink:href="#m3ad88079bb" y="426.865352"/>
     <use style="fill:#ea0909;stroke:#ea0909;" x="1111.176989" xlink:href="#m3ad88079bb" y="410.451461"/>
     <use style="fill:#ea0909;stroke:#ea0909;" x="1232.922443" xlink:href="#m3ad88079bb" y="388.301061"/>
     <use style="fill:#ea0909;stroke:#ea0909;" x="1354.667898" xlink:href="#m3ad88079bb" y="296.635948"/>
    </g>
   </g>
   <g id="line2d_21">
    <path clip-path="url(#p956b61d0f7)" d="M 137.213352 483.402871 
L 258.958807 481.504719 
L 380.704261 477.055643 
L 502.449716 470.166009 
L 624.19517 458.795423 
L 745.940625 445.288268 
L 867.68608 432.536571 
L 989.431534 412.152068 
L 1111.176989 390.285987 
L 1232.922443 353.139501 
L 1354.667898 309.381966 
" style="fill:none;stroke:#f26161;stroke-dasharray:5.55,2.4;stroke-dashoffset:0;stroke-width:1.5;"/>
    <defs>
     <path d="M -3 3 
L 3 -3 
M -3 -3 
L 3 3 
" id="ma81c5c4120" style="stroke:#f26161;"/>
    </defs>
    <g clip-path="url(#p956b61d0f7)">
     <use style="fill:#f26161;stroke:#f26161;" x="137.213352" xlink:href="#ma81c5c4120" y="483.402871"/>
     <use style="fill:#f26161;stroke:#f26161;" x="258.958807" xlink:href="#ma81c5c4120" y="481.504719"/>
     <use style="fill:#f26161;stroke:#f26161;" x="380.704261" xlink:href="#ma81c5c4120" y="477.055643"/>
     <use style="fill:#f26161;stroke:#f26161;" x="502.449716" xlink:href="#ma81c5c4120" y="470.166009"/>
     <use style="fill:#f26161;stroke:#f26161;" x="624.19517" xlink:href="#ma81c5c4120" y="458.795423"/>
     <use style="fill:#f26161;stroke:#f26161;" x="745.940625" xlink:href="#ma81c5c4120" y="445.288268"/>
     <use style="fill:#f26161;stroke:#f26161;" x="867.68608" xlink:href="#ma81c5c4120" y="432.536571"/>
     <use style="fill:#f26161;stroke:#f26161;" x="989.431534" xlink:href="#ma81c5c4120" y="412.152068"/>
     <use style="fill:#f26161;stroke:#f26161;" x="1111.176989" xlink:href="#ma81c5c4120" y="390.285987"/>
     <use style="fill:#f26161;stroke:#f26161;" x="1232.922443" xlink:href="#ma81c5c4120" y="353.139501"/>
     <use style="fill:#f26161;stroke:#f26161;" x="1354.667898" xlink:href="#ma81c5c4120" y="309.381966"/>
    </g>
   </g>
   <g id="line2d_22">
    <path clip-path="url(#p956b61d0f7)" d="M 137.213352 483.382455 
L 258.958807 481.206981 
L 380.704261 476.913862 
L 502.449716 470.477906 
L 624.19517 460.918495 
L 745.940625 449.662139 
L 867.68608 436.574479 
L 989.431534 419.776328 
L 1111.176989 402.195548 
L 1232.922443 378.659988 
L 1354.667898 321.271986 
" style="fill:none;stroke:#1000ff;stroke-linecap:square;stroke-width:1.5;"/>
    <defs>
     <path d="M -3 3 
L 3 -3 
M -3 -3 
L 3 3 
" id="m18897c139b" style="stroke:#1000ff;"/>
    </defs>
    <g clip-path="url(#p956b61d0f7)">
     <use style="fill:#1000ff;stroke:#1000ff;" x="137.213352" xlink:href="#m18897c139b" y="483.382455"/>
     <use style="fill:#1000ff;stroke:#1000ff;" x="258.958807" xlink:href="#m18897c139b" y="481.206981"/>
     <use style="fill:#1000ff;stroke:#1000ff;" x="380.704261" xlink:href="#m18897c139b" y="476.913862"/>
     <use style="fill:#1000ff;stroke:#1000ff;" x="502.449716" xlink:href="#m18897c139b" y="470.477906"/>
     <use style="fill:#1000ff;stroke:#1000ff;" x="624.19517" xlink:href="#m18897c139b" y="460.918495"/>
     <use style="fill:#1000ff;stroke:#1000ff;" x="745.940625" xlink:href="#m18897c139b" y="449.662139"/>
     <use style="fill:#1000ff;stroke:#1000ff;" x="867.68608" xlink:href="#m18897c139b" y="436.574479"/>
     <use style="fill:#1000ff;stroke:#1000ff;" x="989.431534" xlink:href="#m18897c139b" y="419.776328"/>
     <use style="fill:#1000ff;stroke:#1000ff;" x="1111.176989" xlink:href="#m18897c139b" y="402.195548"/>
     <use style="fill:#1000ff;stroke:#1000ff;" x="1232.922443" xlink:href="#m18897c139b" y="378.659988"/>
     <use style="fill:#1000ff;stroke:#1000ff;" x="1354.667898" xlink:href="#m18897c139b" y="321.271986"/>
    </g>
   </g>
   <g id="line2d_23">
    <path clip-path="url(#p956b61d0f7)" d="M 137.213352 483.467807 
L 258.958807 482.403608 
L 380.704261 479.877008 
L 502.449716 475.240853 
L 624.19517 460.610132 
L 745.940625 458.62418 
L 867.68608 454.231605 
L 989.431534 437.844832 
L 1111.176989 429.13384 
L 1232.922443 411.269499 
L 1354.667898 296.635948 
" style="fill:none;stroke:#007dff;stroke-dasharray:1.5,2.475;stroke-dashoffset:0;stroke-width:1.5;"/>
    <defs>
     <path d="M -3 3 
L 3 -3 
M -3 -3 
L 3 3 
" id="m1a535c02c7" style="stroke:#007dff;"/>
    </defs>
    <g clip-path="url(#p956b61d0f7)">
     <use style="fill:#007dff;stroke:#007dff;" x="137.213352" xlink:href="#m1a535c02c7" y="483.467807"/>
     <use style="fill:#007dff;stroke:#007dff;" x="258.958807" xlink:href="#m1a535c02c7" y="482.403608"/>
     <use style="fill:#007dff;stroke:#007dff;" x="380.704261" xlink:href="#m1a535c02c7" y="479.877008"/>
     <use style="fill:#007dff;stroke:#007dff;" x="502.449716" xlink:href="#m1a535c02c7" y="475.240853"/>
     <use style="fill:#007dff;stroke:#007dff;" x="624.19517" xlink:href="#m1a535c02c7" y="460.610132"/>
     <use style="fill:#007dff;stroke:#007dff;" x="745.940625" xlink:href="#m1a535c02c7" y="458.62418"/>
     <use style="fill:#007dff;stroke:#007dff;" x="867.68608" xlink:href="#m1a535c02c7" y="454.231605"/>
     <use style="fill:#007dff;stroke:#007dff;" x="989.431534" xlink:href="#m1a535c02c7" y="437.844832"/>
     <use style="fill:#007dff;stroke:#007dff;" x="1111.176989" xlink:href="#m1a535c02c7" y="429.13384"/>
     <use style="fill:#007dff;stroke:#007dff;" x="1232.922443" xlink:href="#m1a535c02c7" y="411.269499"/>
     <use style="fill:#007dff;stroke:#007dff;" x="1354.667898" xlink:href="#m1a535c02c7" y="296.635948"/>
    </g>
   </g>
   <g id="line2d_24">
    <path clip-path="url(#p956b61d0f7)" d="M 137.213352 483.48 
L 258.958807 482.378087 
L 380.704261 480.285483 
L 502.449716 476.772082 
L 624.19517 471.667984 
L 745.940625 465.429643 
L 867.68608 457.492265 
L 989.431534 445.774649 
L 1111.176989 424.029742 
L 1232.922443 397.375011 
L 1354.667898 364.481939 
" style="fill:none;stroke:#00bbd1;stroke-dasharray:5.55,2.4;stroke-dashoffset:0;stroke-width:1.5;"/>
    <defs>
     <path d="M -3 3 
L 3 -3 
M -3 -3 
L 3 3 
" id="m340e6d8a3f" style="stroke:#00bbd1;"/>
    </defs>
    <g clip-path="url(#p956b61d0f7)">
     <use style="fill:#00bbd1;stroke:#00bbd1;" x="137.213352" xlink:href="#m340e6d8a3f" y="483.48"/>
     <use style="fill:#00bbd1;stroke:#00bbd1;" x="258.958807" xlink:href="#m340e6d8a3f" y="482.378087"/>
     <use style="fill:#00bbd1;stroke:#00bbd1;" x="380.704261" xlink:href="#m340e6d8a3f" y="480.285483"/>
     <use style="fill:#00bbd1;stroke:#00bbd1;" x="502.449716" xlink:href="#m340e6d8a3f" y="476.772082"/>
     <use style="fill:#00bbd1;stroke:#00bbd1;" x="624.19517" xlink:href="#m340e6d8a3f" y="471.667984"/>
     <use style="fill:#00bbd1;stroke:#00bbd1;" x="745.940625" xlink:href="#m340e6d8a3f" y="465.429643"/>
     <use style="fill:#00bbd1;stroke:#00bbd1;" x="867.68608" xlink:href="#m340e6d8a3f" y="457.492265"/>
     <use style="fill:#00bbd1;stroke:#00bbd1;" x="989.431534" xlink:href="#m340e6d8a3f" y="445.774649"/>
     <use style="fill:#00bbd1;stroke:#00bbd1;" x="1111.176989" xlink:href="#m340e6d8a3f" y="424.029742"/>
     <use style="fill:#00bbd1;stroke:#00bbd1;" x="1232.922443" xlink:href="#m340e6d8a3f" y="397.375011"/>
     <use style="fill:#00bbd1;stroke:#00bbd1;" x="1354.667898" xlink:href="#m340e6d8a3f" y="364.481939"/>
    </g>
   </g>
   <g id="patch_3">
    <path d="M 76.340625 506.16 
L 76.340625 7.2 
" style="fill:none;stroke:#000000;stroke-linecap:square;stroke-linejoin:miter;stroke-width:0.8;"/>
   </g>
   <g id="patch_4">
    <path d="M 1415.540625 506.16 
L 1415.540625 7.2 
" style="fill:none;stroke:#000000;stroke-linecap:square;stroke-linejoin:miter;stroke-width:0.8;"/>
   </g>
   <g id="patch_5">
    <path d="M 76.340625 506.16 
L 1415.540625 506.16 
" style="fill:none;stroke:#000000;stroke-linecap:square;stroke-linejoin:miter;stroke-width:0.8;"/>
   </g>
   <g id="patch_6">
    <path d="M 76.340625 7.2 
L 1415.540625 7.2 
" style="fill:none;stroke:#000000;stroke-linecap:square;stroke-linejoin:miter;stroke-width:0.8;"/>
   </g>
   <g id="legend_1">
    <g id="patch_7">
     <path d="M 84.740625 122.4825 
L 367.84875 122.4825 
Q 370.24875 122.4825 370.24875 120.0825 
L 370.24875 15.6 
Q 370.24875 13.2 367.84875 13.2 
L 84.740625 13.2 
Q 82.340625 13.2 82.340625 15.6 
L 82.340625 120.0825 
Q 82.340625 122.4825 84.740625 122.4825 
z
" style="fill:#ffffff;opacity:0.8;stroke:#cccccc;stroke-linejoin:miter;"/>
    </g>
    <g id="line2d_25">
     <path d="M 87.140625 22.918125 
L 111.140625 22.918125 
" style="fill:none;stroke:#9a0707;stroke-linecap:square;stroke-width:1.5;"/>
    </g>
    <g id="line2d_26">
     <g>
      <use style="fill:#9a0707;stroke:#9a0707;" x="99.140625" xlink:href="#m11c9a4bfee" y="22.918125"/>
     </g>
    </g>
    <g id="text_15">
     <!-- xt::transpose &amp; assign -->
     <defs>
      <path d="M 54.890625 54.6875 
L 35.109375 28.078125 
L 55.90625 0 
L 45.3125 0 
L 29.390625 21.484375 
L 13.484375 0 
L 2.875 0 
L 24.125 28.609375 
L 4.6875 54.6875 
L 15.28125 54.6875 
L 29.78125 35.203125 
L 44.28125 54.6875 
z
" id="DejaVuSans-120"/>
      <path d="M 18.3125 70.21875 
L 18.3125 54.6875 
L 36.8125 54.6875 
L 36.8125 47.703125 
L 18.3125 47.703125 
L 18.3125 18.015625 
Q 18.3125 11.328125 20.140625 9.421875 
Q 21.96875 7.515625 27.59375 7.515625 
L 36.8125 7.515625 
L 36.8125 0 
L 27.59375 0 
Q 17.1875 0 13.234375 3.875 
Q 9.28125 7.765625 9.28125 18.015625 
L 9.28125 47.703125 
L 2.6875 47.703125 
L 2.6875 54.6875 
L 9.28125 54.6875 
L 9.28125 70.21875 
z
" id="DejaVuSans-116"/>
      <path d="M 11.71875 12.40625 
L 22.015625 12.40625 
L 22.015625 0 
L 11.71875 0 
z
M 11.71875 51.703125 
L 22.015625 51.703125 
L 22.015625 39.3125 
L 11.71875 39.3125 
z
" id="DejaVuSans-58"/>
      <path d="M 41.109375 46.296875 
Q 39.59375 47.171875 37.8125 47.578125 
Q 36.03125 48 33.890625 48 
Q 26.265625 48 22.1875 43.046875 
Q 18.109375 38.09375 18.109375 28.8125 
L 18.109375 0 
L 9.078125 0 
L 9.078125 54.6875 
L 18.109375 54.6875 
L 18.109375 46.1875 
Q 20.953125 51.171875 25.484375 53.578125 
Q 30.03125 56 36.53125 56 
Q 37.453125 56 38.578125 55.875 
Q 39.703125 55.765625 41.0625 55.515625 
z
" id="DejaVuSans-114"/>
      <path d="M 34.28125 27.484375 
Q 23.390625 27.484375 19.1875 25 
Q 14.984375 22.515625 14.984375 16.5 
Q 14.984375 11.71875 18.140625 8.90625 
Q 21.296875 6.109375 26.703125 6.109375 
Q 34.1875 6.109375 38.703125 11.40625 
Q 43.21875 16.703125 43.21875 25.484375 
L 43.21875 27.484375 
z
M 52.203125 31.203125 
L 52.203125 0 
L 43.21875 0 
L 43.21875 8.296875 
Q 40.140625 3.328125 35.546875 0.953125 
Q 30.953125 -1.421875 24.3125 -1.421875 
Q 15.921875 -1.421875 10.953125 3.296875 
Q 6 8.015625 6 15.921875 
Q 6 25.140625 12.171875 29.828125 
Q 18.359375 34.515625 30.609375 34.515625 
L 43.21875 34.515625 
L 43.21875 35.40625 
Q 43.21875 41.609375 39.140625 45 
Q 35.0625 48.390625 27.6875 48.390625 
Q 23 48.390625 18.546875 47.265625 
Q 14.109375 46.140625 10.015625 43.890625 
L 10.015625 52.203125 
Q 14.9375 54.109375 19.578125 55.046875 
Q 24.21875 56 28.609375 56 
Q 40.484375 56 46.34375 49.84375 
Q 52.203125 43.703125 52.203125 31.203125 
z
" id="DejaVuSans-97"/>
      <path d="M 18.109375 8.203125 
L 18.109375 -20.796875 
L 9.078125 -20.796875 
L 9.078125 54.6875 
L 18.109375 54.6875 
L 18.109375 46.390625 
Q 20.953125 51.265625 25.265625 53.625 
Q 29.59375 56 35.59375 56 
Q 45.5625 56 51.78125 48.09375 
Q 58.015625 40.1875 58.015625 27.296875 
Q 58.015625 14.40625 51.78125 6.484375 
Q 45.5625 -1.421875 35.59375 -1.421875 
Q 29.59375 -1.421875 25.265625 0.953125 
Q 20.953125 3.328125 18.109375 8.203125 
z
M 48.6875 27.296875 
Q 48.6875 37.203125 44.609375 42.84375 
Q 40.53125 48.484375 33.40625 48.484375 
Q 26.265625 48.484375 22.1875 42.84375 
Q 18.109375 37.203125 18.109375 27.296875 
Q 18.109375 17.390625 22.1875 11.75 
Q 26.265625 6.109375 33.40625 6.109375 
Q 40.53125 6.109375 44.609375 11.75 
Q 48.6875 17.390625 48.6875 27.296875 
z
" id="DejaVuSans-112"/>
      <path d="M 30.609375 48.390625 
Q 23.390625 48.390625 19.1875 42.75 
Q 14.984375 37.109375 14.984375 27.296875 
Q 14.984375 17.484375 19.15625 11.84375 
Q 23.34375 6.203125 30.609375 6.203125 
Q 37.796875 6.203125 41.984375 11.859375 
Q 46.1875 17.53125 46.1875 27.296875 
Q 46.1875 37.015625 41.984375 42.703125 
Q 37.796875 48.390625 30.609375 48.390625 
z
M 30.609375 56 
Q 42.328125 56 49.015625 48.375 
Q 55.71875 40.765625 55.71875 27.296875 
Q 55.71875 13.875 49.015625 6.21875 
Q 42.328125 -1.421875 30.609375 -1.421875 
Q 18.84375 -1.421875 12.171875 6.21875 
Q 5.515625 13.875 5.515625 27.296875 
Q 5.515625 40.765625 12.171875 48.375 
Q 18.84375 56 30.609375 56 
z
" id="DejaVuSans-111"/>
      <path d="M 24.3125 39.203125 
Q 19.875 35.25 17.796875 31.3125 
Q 15.71875 27.390625 15.71875 23.09375 
Q 15.71875 15.96875 20.890625 11.234375 
Q 26.078125 6.5 33.890625 6.5 
Q 38.53125 6.5 42.578125 8.03125 
Q 46.625 9.578125 50.203125 12.703125 
z
M 31.203125 44.671875 
L 56 19.28125 
Q 58.890625 23.640625 60.5 28.59375 
Q 62.109375 33.546875 62.40625 39.109375 
L 71.484375 39.109375 
Q 70.90625 32.671875 68.359375 26.359375 
Q 65.828125 20.0625 61.28125 13.921875 
L 74.90625 0 
L 62.59375 0 
L 55.609375 7.171875 
Q 50.53125 2.828125 44.96875 0.703125 
Q 39.40625 -1.421875 33.015625 -1.421875 
Q 21.234375 -1.421875 13.765625 5.296875 
Q 6.296875 12.015625 6.296875 22.515625 
Q 6.296875 28.765625 9.5625 34.25 
Q 12.84375 39.75 19.390625 44.578125 
Q 17.046875 47.65625 15.8125 50.703125 
Q 14.59375 53.765625 14.59375 56.6875 
Q 14.59375 64.59375 20.015625 69.40625 
Q 25.4375 74.21875 34.421875 74.21875 
Q 38.484375 74.21875 42.5 73.34375 
Q 46.53125 72.46875 50.6875 70.703125 
L 50.6875 61.8125 
Q 46.4375 64.109375 42.578125 65.296875 
Q 38.71875 66.5 35.40625 66.5 
Q 30.28125 66.5 27.078125 63.78125 
Q 23.875 61.078125 23.875 56.78125 
Q 23.875 54.296875 25.3125 51.78125 
Q 26.765625 49.265625 31.203125 44.671875 
z
" id="DejaVuSans-38"/>
      <path d="M 45.40625 27.984375 
Q 45.40625 37.75 41.375 43.109375 
Q 37.359375 48.484375 30.078125 48.484375 
Q 22.859375 48.484375 18.828125 43.109375 
Q 14.796875 37.75 14.796875 27.984375 
Q 14.796875 18.265625 18.828125 12.890625 
Q 22.859375 7.515625 30.078125 7.515625 
Q 37.359375 7.515625 41.375 12.890625 
Q 45.40625 18.265625 45.40625 27.984375 
z
M 54.390625 6.78125 
Q 54.390625 -7.171875 48.1875 -13.984375 
Q 42 -20.796875 29.203125 -20.796875 
Q 24.46875 -20.796875 20.265625 -20.09375 
Q 16.0625 -19.390625 12.109375 -17.921875 
L 12.109375 -9.1875 
Q 16.0625 -11.328125 19.921875 -12.34375 
Q 23.78125 -13.375 27.78125 -13.375 
Q 36.625 -13.375 41.015625 -8.765625 
Q 45.40625 -4.15625 45.40625 5.171875 
L 45.40625 9.625 
Q 42.625 4.78125 38.28125 2.390625 
Q 33.9375 0 27.875 0 
Q 17.828125 0 11.671875 7.65625 
Q 5.515625 15.328125 5.515625 27.984375 
Q 5.515625 40.671875 11.671875 48.328125 
Q 17.828125 56 27.875 56 
Q 33.9375 56 38.28125 53.609375 
Q 42.625 51.21875 45.40625 46.390625 
L 45.40625 54.6875 
L 54.390625 54.6875 
z
" id="DejaVuSans-103"/>
     </defs>
     <g transform="translate(120.740625 27.118125)scale(0.12 -0.12)">
      <use xlink:href="#DejaVuSans-120"/>
      <use x="59.179688" xlink:href="#DejaVuSans-116"/>
      <use x="98.388672" xlink:href="#DejaVuSans-58"/>
      <use x="132.080078" xlink:href="#DejaVuSans-58"/>
      <use x="165.771484" xlink:href="#DejaVuSans-116"/>
      <use x="204.980469" xlink:href="#DejaVuSans-114"/>
      <use x="246.09375" xlink:href="#DejaVuSans-97"/>
      <use x="307.373047" xlink:href="#DejaVuSans-110"/>
      <use x="370.751953" xlink:href="#DejaVuSans-115"/>
      <use x="422.851562" xlink:href="#DejaVuSans-112"/>
      <use x="486.328125" xlink:href="#DejaVuSans-111"/>
      <use x="547.509766" xlink:href="#DejaVuSans-115"/>
      <use x="599.609375" xlink:href="#DejaVuSans-101"/>
      <use x="661.132812" xlink:href="#DejaVuSans-32"/>
      <use x="692.919922" xlink:href="#DejaVuSans-38"/>
      <use x="770.898438" xlink:href="#DejaVuSans-32"/>
      <use x="802.685547" xlink:href="#DejaVuSans-97"/>
      <use x="863.964844" xlink:href="#DejaVuSans-115"/>
      <use x="916.064453" xlink:href="#DejaVuSans-115"/>
      <use x="968.164062" xlink:href="#DejaVuSans-105"/>
      <use x="995.947266" xlink:href="#DejaVuSans-103"/>
      <use x="1059.423828" xlink:href="#DejaVuSans-110"/>
     </g>
    </g>
    <g id="line2d_27">
     <path d="M 87.140625 40.531875 
L 111.140625 40.531875 
" style="fill:none;stroke:#ea0909;stroke-dasharray:1.5,2.475;stroke-dashoffset:0;stroke-width:1.5;"/>
    </g>
    <g id="line2d_28">
     <g>
      <use style="fill:#ea0909;stroke:#ea0909;" x="99.140625" xlink:href="#m3ad88079bb" y="40.531875"/>
     </g>
    </g>
    <g id="text_16">
     <!-- xt::transpose &amp; operator() against cache -->
     <defs>
      <path d="M 48.78125 52.59375 
L 48.78125 44.1875 
Q 44.96875 46.296875 41.140625 47.34375 
Q 37.3125 48.390625 33.40625 48.390625 
Q 24.65625 48.390625 19.8125 42.84375 
Q 14.984375 37.3125 14.984375 27.296875 
Q 14.984375 17.28125 19.8125 11.734375 
Q 24.65625 6.203125 33.40625 6.203125 
Q 37.3125 6.203125 41.140625 7.25 
Q 44.96875 8.296875 48.78125 10.40625 
L 48.78125 2.09375 
Q 45.015625 0.34375 40.984375 -0.53125 
Q 36.96875 -1.421875 32.421875 -1.421875 
Q 20.0625 -1.421875 12.78125 6.34375 
Q 5.515625 14.109375 5.515625 27.296875 
Q 5.515625 40.671875 12.859375 48.328125 
Q 20.21875 56 33.015625 56 
Q 37.15625 56 41.109375 55.140625 
Q 45.0625 54.296875 48.78125 52.59375 
z
" id="DejaVuSans-99"/>
      <path d="M 54.890625 33.015625 
L 54.890625 0 
L 45.90625 0 
L 45.90625 32.71875 
Q 45.90625 40.484375 42.875 44.328125 
Q 39.84375 48.1875 33.796875 48.1875 
Q 26.515625 48.1875 22.3125 43.546875 
Q 18.109375 38.921875 18.109375 30.90625 
L 18.109375 0 
L 9.078125 0 
L 9.078125 75.984375 
L 18.109375 75.984375 
L 18.109375 46.1875 
Q 21.34375 51.125 25.703125 53.5625 
Q 30.078125 56 35.796875 56 
Q 45.21875 56 50.046875 50.171875 
Q 54.890625 44.34375 54.890625 33.015625 
z
" id="DejaVuSans-104"/>
     </defs>
     <g transform="translate(120.740625 44.731875)scale(0.12 -0.12)">
      <use xlink:href="#DejaVuSans-120"/>
      <use x="59.179688" xlink:href="#DejaVuSans-116"/>
      <use x="98.388672" xlink:href="#DejaVuSans-58"/>
      <use x="132.080078" xlink:href="#DejaVuSans-58"/>
      <use x="165.771484" xlink:href="#DejaVuSans-116"/>
      <use x="204.980469" xlink:href="#DejaVuSans-114"/>
      <use x="246.09375" xlink:href="#DejaVuSans-97"/>
      <use x="307.373047" xlink:href="#DejaVuSans-110"/>
      <use x="370.751953" xlink:href="#DejaVuSans-115"/>
      <use x="422.851562" xlink:href="#DejaVuSans-112"/>
      <use x="486.328125" xlink:href="#DejaVuSans-111"/>
      <use x="547.509766" xlink:href="#DejaVuSans-115"/>
      <use x="599.609375" xlink:href="#DejaVuSans-101"/>
      <use x="661.132812" xlink:href="#DejaVuSans-32"/>
      <use x="692.919922" xlink:href="#DejaVuSans-38"/>
      <use x="770.898438" xlink:href="#DejaVuSans-32"/>
      <use x="802.685547" xlink:href="#DejaVuSans-111"/>
      <use x="863.867188" xlink:href="#DejaVuSans-112"/>
      <use x="927.34375" xlink:href="#DejaVuSans-101"/>
      <use x="988.867188" xlink:href="#DejaVuSans-114"/>
      <use x="1029.980469" xlink:href="#DejaVuSans-97"/>
      <use x="1091.259766" xlink:href="#DejaVuSans-116"/>
      <use x="1130.46875" xlink:href="#DejaVuSans-111"/>
      <use x="1191.650391" xlink:href="#DejaVuSans-114"/>
      <use x="1232.763672" xlink:href="#DejaVuSans-40"/>
      <use x="1271.777344" xlink:href="#DejaVuSans-41"/>
      <use x="1310.791016" xlink:href="#DejaVuSans-32"/>
      <use x="1342.578125" xlink:href="#DejaVuSans-97"/>
      <use x="1403.857422" xlink:href="#DejaVuSans-103"/>
      <use x="1467.333984" xlink:href="#DejaVuSans-97"/>
      <use x="1528.613281" xlink:href="#DejaVuSans-105"/>
      <use x="1556.396484" xlink:href="#DejaVuSans-110"/>
      <use x="1619.775391" xlink:href="#DejaVuSans-115"/>
      <use x="1671.875" xlink:href="#DejaVuSans-116"/>
      <use x="1711.083984" xlink:href="#DejaVuSans-32"/>
      <use x="1742.871094" xlink:href="#DejaVuSans-99"/>
      <use x="1797.851562" xlink:href="#DejaVuSans-97"/>
      <use x="1859.130859" xlink:href="#DejaVuSans-99"/>
      <use x="1914.111328" xlink:href="#DejaVuSans-104"/>
      <use x="1977.490234" xlink:href="#DejaVuSans-101"/>
     </g>
    </g>
    <g id="line2d_29">
     <path d="M 87.140625 58.145625 
L 111.140625 58.145625 
" style="fill:none;stroke:#f26161;stroke-dasharray:5.55,2.4;stroke-dashoffset:0;stroke-width:1.5;"/>
    </g>
    <g id="line2d_30">
     <g>
      <use style="fill:#f26161;stroke:#f26161;" x="99.140625" xlink:href="#ma81c5c4120" y="58.145625"/>
     </g>
    </g>
    <g id="text_17">
     <!-- xt::transpose &amp; operator() cache aligned -->
     <defs>
      <path d="M 9.421875 75.984375 
L 18.40625 75.984375 
L 18.40625 0 
L 9.421875 0 
z
" id="DejaVuSans-108"/>
      <path d="M 45.40625 46.390625 
L 45.40625 75.984375 
L 54.390625 75.984375 
L 54.390625 0 
L 45.40625 0 
L 45.40625 8.203125 
Q 42.578125 3.328125 38.25 0.953125 
Q 33.9375 -1.421875 27.875 -1.421875 
Q 17.96875 -1.421875 11.734375 6.484375 
Q 5.515625 14.40625 5.515625 27.296875 
Q 5.515625 40.1875 11.734375 48.09375 
Q 17.96875 56 27.875 56 
Q 33.9375 56 38.25 53.625 
Q 42.578125 51.265625 45.40625 46.390625 
z
M 14.796875 27.296875 
Q 14.796875 17.390625 18.875 11.75 
Q 22.953125 6.109375 30.078125 6.109375 
Q 37.203125 6.109375 41.296875 11.75 
Q 45.40625 17.390625 45.40625 27.296875 
Q 45.40625 37.203125 41.296875 42.84375 
Q 37.203125 48.484375 30.078125 48.484375 
Q 22.953125 48.484375 18.875 42.84375 
Q 14.796875 37.203125 14.796875 27.296875 
z
" id="DejaVuSans-100"/>
     </defs>
     <g transform="translate(120.740625 62.345625)scale(0.12 -0.12)">
      <use xlink:href="#DejaVuSans-120"/>
      <use x="59.179688" xlink:href="#DejaVuSans-116"/>
      <use x="98.388672" xlink:href="#DejaVuSans-58"/>
      <use x="132.080078" xlink:href="#DejaVuSans-58"/>
      <use x="165.771484" xlink:href="#DejaVuSans-116"/>
      <use x="204.980469" xlink:href="#DejaVuSans-114"/>
      <use x="246.09375" xlink:href="#DejaVuSans-97"/>
      <use x="307.373047" xlink:href="#DejaVuSans-110"/>
      <use x="370.751953" xlink:href="#DejaVuSans-115"/>
      <use x="422.851562" xlink:href="#DejaVuSans-112"/>
      <use x="486.328125" xlink:href="#DejaVuSans-111"/>
      <use x="547.509766" xlink:href="#DejaVuSans-115"/>
      <use x="599.609375" xlink:href="#DejaVuSans-101"/>
      <use x="661.132812" xlink:href="#DejaVuSans-32"/>
      <use x="692.919922" xlink:href="#DejaVuSans-38"/>
      <use x="770.898438" xlink:href="#DejaVuSans-32"/>
      <use x="802.685547" xlink:href="#DejaVuSans-111"/>
      <use x="863.867188" xlink:href="#DejaVuSans-112"/>
      <use x="927.34375" xlink:href="#DejaVuSans-101"/>
      <use x="988.867188" xlink:href="#DejaVuSans-114"/>
      <use x="1029.980469" xlink:href="#DejaVuSans-97"/>
      <use x="1091.259766" xlink:href="#DejaVuSans-116"/>
      <use x="1130.46875" xlink:href="#DejaVuSans-111"/>
      <use x="1191.650391" xlink:href="#DejaVuSans-114"/>
      <use x="1232.763672" xlink:href="#DejaVuSans-40"/>
      <use x="1271.777344" xlink:href="#DejaVuSans-41"/>
      <use x="1310.791016" xlink:href="#DejaVuSans-32"/>
      <use x="1342.578125" xlink:href="#DejaVuSans-99"/>
      <use x="1397.558594" xlink:href="#DejaVuSans-97"/>
      <use x="1458.837891" xlink:href="#DejaVuSans-99"/>
      <use x="1513.818359" xlink:href="#DejaVuSans-104"/>
      <use x="1577.197266" xlink:href="#DejaVuSans-101"/>
      <use x="1638.720703" xlink:href="#DejaVuSans-32"/>
      <use x="1670.507812" xlink:href="#DejaVuSans-97"/>
      <use x="1731.787109" xlink:href="#DejaVuSans-108"/>
      <use x="1759.570312" xlink:href="#DejaVuSans-105"/>
      <use x="1787.353516" xlink:href="#DejaVuSans-103"/>
      <use x="1850.830078" xlink:href="#DejaVuSans-110"/>
      <use x="1914.208984" xlink:href="#DejaVuSans-101"/>
      <use x="1975.732422" xlink:href="#DejaVuSans-100"/>
     </g>
    </g>
    <g id="line2d_31">
     <path d="M 87.140625 75.759375 
L 111.140625 75.759375 
" style="fill:none;stroke:#1000ff;stroke-linecap:square;stroke-width:1.5;"/>
    </g>
    <g id="line2d_32">
     <g>
      <use style="fill:#1000ff;stroke:#1000ff;" x="99.140625" xlink:href="#m18897c139b" y="75.759375"/>
     </g>
    </g>
    <g id="text_18">
     <!-- xt::transpose &amp; assign -->
     <g transform="translate(120.740625 79.959375)scale(0.12 -0.12)">
      <use xlink:href="#DejaVuSans-120"/>
      <use x="59.179688" xlink:href="#DejaVuSans-116"/>
      <use x="98.388672" xlink:href="#DejaVuSans-58"/>
      <use x="132.080078" xlink:href="#DejaVuSans-58"/>
      <use x="165.771484" xlink:href="#DejaVuSans-116"/>
      <use x="204.980469" xlink:href="#DejaVuSans-114"/>
      <use x="246.09375" xlink:href="#DejaVuSans-97"/>
      <use x="307.373047" xlink:href="#DejaVuSans-110"/>
      <use x="370.751953" xlink:href="#DejaVuSans-115"/>
      <use x="422.851562" xlink:href="#DejaVuSans-112"/>
      <use x="486.328125" xlink:href="#DejaVuSans-111"/>
      <use x="547.509766" xlink:href="#DejaVuSans-115"/>
      <use x="599.609375" xlink:href="#DejaVuSans-101"/>
      <use x="661.132812" xlink:href="#DejaVuSans-32"/>
      <use x="692.919922" xlink:href="#DejaVuSans-38"/>
      <use x="770.898438" xlink:href="#DejaVuSans-32"/>
      <use x="802.685547" xlink:href="#DejaVuSans-97"/>
      <use x="863.964844" xlink:href="#DejaVuSans-115"/>
      <use x="916.064453" xlink:href="#DejaVuSans-115"/>
      <use x="968.164062" xlink:href="#DejaVuSans-105"/>
      <use x="995.947266" xlink:href="#DejaVuSans-103"/>
      <use x="1059.423828" xlink:href="#DejaVuSans-110"/>
     </g>
    </g>
    <g id="line2d_33">
     <path d="M 87.140625 93.373125 
L 111.140625 93.373125 
" style="fill:none;stroke:#007dff;stroke-dasharray:1.5,2.475;stroke-dashoffset:0;stroke-width:1.5;"/>
    </g>
    <g id="line2d_34">
     <g>
      <use style="fill:#007dff;stroke:#007dff;" x="99.140625" xlink:href="#m1a535c02c7" y="93.373125"/>
     </g>
    </g>
    <g id="text_19">
     <!-- xt::transpose &amp; operator() against cache -->
     <g transform="translate(120.740625 97.573125)scale(0.12 -0.12)">
      <use xlink:href="#DejaVuSans-120"/>
      <use x="59.179688" xlink:href="#DejaVuSans-116"/>
      <use x="98.388672" xlink:href="#DejaVuSans-58"/>
      <use x="132.080078" xlink:href="#DejaVuSans-58"/>
      <use x="165.771484" xlink:href="#DejaVuSans-116"/>
      <use x="204.980469" xlink:href="#DejaVuSans-114"/>
      <use x="246.09375" xlink:href="#DejaVuSans-97"/>
      <use x="307.373047" xlink:href="#DejaVuSans-110"/>
      <use x="370.751953" xlink:href="#DejaVuSans-115"/>
      <use x="422.851562" xlink:href="#DejaVuSans-112"/>
      <use x="486.328125" xlink:href="#DejaVuSans-111"/>
      <use x="547.509766" xlink:href="#DejaVuSans-115"/>
      <use x="599.609375" xlink:href="#DejaVuSans-101"/>
      <use x="661.132812" xlink:href="#DejaVuSans-32"/>
      <use x="692.919922" xlink:href="#DejaVuSans-38"/>
      <use x="770.898438" xlink:href="#DejaVuSans-32"/>
      <use x="802.685547" xlink:href="#DejaVuSans-111"/>
      <use x="863.867188" xlink:href="#DejaVuSans-112"/>
      <use x="927.34375" xlink:href="#DejaVuSans-101"/>
      <use x="988.867188" xlink:href="#DejaVuSans-114"/>
      <use x="1029.980469" xlink:href="#DejaVuSans-97"/>
      <use x="1091.259766" xlink:href="#DejaVuSans-116"/>
      <use x="1130.46875" xlink:href="#DejaVuSans-111"/>
      <use x="1191.650391" xlink:href="#DejaVuSans-114"/>
      <use x="1232.763672" xlink:href="#DejaVuSans-40"/>
      <use x="1271.777344" xlink:href="#DejaVuSans-41"/>
      <use x="1310.791016" xlink:href="#DejaVuSans-32"/>
      <use x="1342.578125" xlink:href="#DejaVuSans-97"/>
      <use x="1403.857422" xlink:href="#DejaVuSans-103"/>
      <use x="1467.333984" xlink:href="#DejaVuSans-97"/>
      <use x="1528.613281" xlink:href="#DejaVuSans-105"/>
      <use x="1556.396484" xlink:href="#DejaVuSans-110"/>
      <use x="1619.775391" xlink:href="#DejaVuSans-115"/>
      <use x="1671.875" xlink:href="#DejaVuSans-116"/>
      <use x="1711.083984" xlink:href="#DejaVuSans-32"/>
      <use x="1742.871094" xlink:href="#DejaVuSans-99"/>
      <use x="1797.851562" xlink:href="#DejaVuSans-97"/>
      <use x="1859.130859" xlink:href="#DejaVuSans-99"/>
      <use x="1914.111328" xlink:href="#DejaVuSans-104"/>
      <use x="1977.490234" xlink:href="#DejaVuSans-101"/>
     </g>
    </g>
    <g id="line2d_35">
     <path d="M 87.140625 110.986875 
L 111.140625 110.986875 
" style="fill:none;stroke:#00bbd1;stroke-dasharray:5.55,2.4;stroke-dashoffset:0;stroke-width:1.5;"/>
    </g>
    <g id="line2d_36">
     <g>
      <use style="fill:#00bbd1;stroke:#00bbd1;" x="99.140625" xlink:href="#m340e6d8a3f" y="110.986875"/>
     </g>
    </g>
    <g id="text_20">
     <!-- xt::transpose &amp; operator() cache aligned -->
     <g transform="translate(120.740625 115.186875)scale(0.12 -0.12)">
      <use xlink:href="#DejaVuSans-120"/>
      <use x="59.179688" xlink:href="#DejaVuSans-116"/>
      <use x="98.388672" xlink:href="#DejaVuSans-58"/>
      <use x="132.080078" xlink:href="#DejaVuSans-58"/>
      <use x="165.771484" xlink:href="#DejaVuSans-116"/>
      <use x="204.980469" xlink:href="#DejaVuSans-114"/>
      <use x="246.09375" xlink:href="#DejaVuSans-97"/>
      <use x="307.373047" xlink:href="#DejaVuSans-110"/>
      <use x="370.751953" xlink:href="#DejaVuSans-115"/>
      <use x="422.851562" xlink:href="#DejaVuSans-112"/>
      <use x="486.328125" xlink:href="#DejaVuSans-111"/>
      <use x="547.509766" xlink:href="#DejaVuSans-115"/>
      <use x="599.609375" xlink:href="#DejaVuSans-101"/>
      <use x="661.132812" xlink:href="#DejaVuSans-32"/>
      <use x="692.919922" xlink:href="#DejaVuSans-38"/>
      <use x="770.898438" xlink:href="#DejaVuSans-32"/>
      <use x="802.685547" xlink:href="#DejaVuSans-111"/>
      <use x="863.867188" xlink:href="#DejaVuSans-112"/>
      <use x="927.34375" xlink:href="#DejaVuSans-101"/>
      <use x="988.867188" xlink:href="#DejaVuSans-114"/>
      <use x="1029.980469" xlink:href="#DejaVuSans-97"/>
      <use x="1091.259766" xlink:href="#DejaVuSans-116"/>
      <use x="1130.46875" xlink:href="#DejaVuSans-111"/>
      <use x="1191.650391" xlink:href="#DejaVuSans-114"/>
      <use x="1232.763672" xlink:href="#DejaVuSans-40"/>
      <use x="1271.777344" xlink:href="#DejaVuSans-41"/>
      <use x="1310.791016" xlink:href="#DejaVuSans-32"/>
      <use x="1342.578125" xlink:href="#DejaVuSans-99"/>
      <use x="1397.558594" xlink:href="#DejaVuSans-97"/>
      <use x="1458.837891" xlink:href="#DejaVuSans-99"/>
      <use x="1513.818359" xlink:href="#DejaVuSans-104"/>
      <use x="1577.197266" xlink:href="#DejaVuSans-101"/>
      <use x="1638.720703" xlink:href="#DejaVuSans-32"/>
      <use x="1670.507812" xlink:href="#DejaVuSans-97"/>
      <use x="1731.787109" xlink:href="#DejaVuSans-108"/>
      <use x="1759.570312" xlink:href="#DejaVuSans-105"/>
      <use x="1787.353516" xlink:href="#DejaVuSans-103"/>
      <use x="1850.830078" xlink:href="#DejaVuSans-110"/>
      <use x="1914.208984" xlink:href="#DejaVuSans-101"/>
      <use x="1975.732422" xlink:href="#DejaVuSans-100"/>
     </g>
    </g>
   </g>
  </g>
 </g>
 <defs>
  <clipPath id="p956b61d0f7">
   <rect height="498.96" width="1339.2" x="76.340625" y="7.2"/>
  </clipPath>
 </defs>
</svg>
