<?xml version="1.0" encoding="utf-8" standalone="no"?>
<!DOCTYPE svg PUBLIC "-//W3C//DTD SVG 1.1//EN"
  "http://www.w3.org/Graphics/SVG/1.1/DTD/svg11.dtd">
<!-- Created with matplotlib (https://matplotlib.org/) -->
<svg height="574.59125pt" version="1.1" viewBox="0 0 1412.560625 574.59125" width="1412.560625pt" xmlns="http://www.w3.org/2000/svg" xmlns:xlink="http://www.w3.org/1999/xlink">
 <defs>
  <style type="text/css">
*{stroke-linecap:butt;stroke-linejoin:round;}
  </style>
 </defs>
 <g id="figure_1">
  <g id="patch_1">
   <path d="M 0 574.59125 
L 1412.560625 574.59125 
L 1412.560625 0 
L 0 0 
z
" style="fill:#ffffff;"/>
  </g>
  <g id="axes_1">
   <g id="patch_2">
    <path d="M 66.160625 527.356875 
L 1405.360625 527.356875 
L 1405.360625 28.396875 
L 66.160625 28.396875 
z
" style="fill:#ffffff;"/>
   </g>
   <g id="matplotlib.axis_1">
    <g id="xtick_1">
     <g id="line2d_1">
      <defs>
       <path d="M 0 0 
L 0 3.5 
" id="m67cf52e284" style="stroke:#000000;stroke-width:0.8;"/>
      </defs>
      <g>
       <use style="stroke:#000000;stroke-width:0.8;" x="95.816569" xlink:href="#m67cf52e284" y="527.356875"/>
      </g>
     </g>
     <g id="text_1">
      <!-- 0 -->
      <defs>
       <path d="M 31.78125 66.40625 
Q 24.171875 66.40625 20.328125 58.90625 
Q 16.5 51.421875 16.5 36.375 
Q 16.5 21.390625 20.328125 13.890625 
Q 24.171875 6.390625 31.78125 6.390625 
Q 39.453125 6.390625 43.28125 13.890625 
Q 47.125 21.390625 47.125 36.375 
Q 47.125 51.421875 43.28125 58.90625 
Q 39.453125 66.40625 31.78125 66.40625 
z
M 31.78125 74.21875 
Q 44.046875 74.21875 50.515625 64.515625 
Q 56.984375 54.828125 56.984375 36.375 
Q 56.984375 17.96875 50.515625 8.265625 
Q 44.046875 -1.421875 31.78125 -1.421875 
Q 19.53125 -1.421875 13.0625 8.265625 
Q 6.59375 17.96875 6.59375 36.375 
Q 6.59375 54.828125 13.0625 64.515625 
Q 19.53125 74.21875 31.78125 74.21875 
z
" id="DejaVuSans-48"/>
      </defs>
      <g transform="translate(91.999069 543.475)scale(0.12 -0.12)">
       <use xlink:href="#DejaVuSans-48"/>
      </g>
     </g>
    </g>
    <g id="xtick_2">
     <g id="line2d_2">
      <g>
       <use style="stroke:#000000;stroke-width:0.8;" x="251.900485" xlink:href="#m67cf52e284" y="527.356875"/>
      </g>
     </g>
     <g id="text_2">
      <!-- 250 -->
      <defs>
       <path d="M 19.1875 8.296875 
L 53.609375 8.296875 
L 53.609375 0 
L 7.328125 0 
L 7.328125 8.296875 
Q 12.9375 14.109375 22.625 23.890625 
Q 32.328125 33.6875 34.8125 36.53125 
Q 39.546875 41.84375 41.421875 45.53125 
Q 43.3125 49.21875 43.3125 52.78125 
Q 43.3125 58.59375 39.234375 62.25 
Q 35.15625 65.921875 28.609375 65.921875 
Q 23.96875 65.921875 18.8125 64.3125 
Q 13.671875 62.703125 7.8125 59.421875 
L 7.8125 69.390625 
Q 13.765625 71.78125 18.9375 73 
Q 24.125 74.21875 28.421875 74.21875 
Q 39.75 74.21875 46.484375 68.546875 
Q 53.21875 62.890625 53.21875 53.421875 
Q 53.21875 48.921875 51.53125 44.890625 
Q 49.859375 40.875 45.40625 35.40625 
Q 44.1875 33.984375 37.640625 27.21875 
Q 31.109375 20.453125 19.1875 8.296875 
z
" id="DejaVuSans-50"/>
       <path d="M 10.796875 72.90625 
L 49.515625 72.90625 
L 49.515625 64.59375 
L 19.828125 64.59375 
L 19.828125 46.734375 
Q 21.96875 47.46875 24.109375 47.828125 
Q 26.265625 48.1875 28.421875 48.1875 
Q 40.625 48.1875 47.75 41.5 
Q 54.890625 34.8125 54.890625 23.390625 
Q 54.890625 11.625 47.5625 5.09375 
Q 40.234375 -1.421875 26.90625 -1.421875 
Q 22.3125 -1.421875 17.546875 -0.640625 
Q 12.796875 0.140625 7.71875 1.703125 
L 7.71875 11.625 
Q 12.109375 9.234375 16.796875 8.0625 
Q 21.484375 6.890625 26.703125 6.890625 
Q 35.15625 6.890625 40.078125 11.328125 
Q 45.015625 15.765625 45.015625 23.390625 
Q 45.015625 31 40.078125 35.4375 
Q 35.15625 39.890625 26.703125 39.890625 
Q 22.75 39.890625 18.8125 39.015625 
Q 14.890625 38.140625 10.796875 36.28125 
z
" id="DejaVuSans-53"/>
      </defs>
      <g transform="translate(240.447985 543.475)scale(0.12 -0.12)">
       <use xlink:href="#DejaVuSans-50"/>
       <use x="63.623047" xlink:href="#DejaVuSans-53"/>
       <use x="127.246094" xlink:href="#DejaVuSans-48"/>
      </g>
     </g>
    </g>
    <g id="xtick_3">
     <g id="line2d_3">
      <g>
       <use style="stroke:#000000;stroke-width:0.8;" x="407.984401" xlink:href="#m67cf52e284" y="527.356875"/>
      </g>
     </g>
     <g id="text_3">
      <!-- 500 -->
      <g transform="translate(396.531901 543.475)scale(0.12 -0.12)">
       <use xlink:href="#DejaVuSans-53"/>
       <use x="63.623047" xlink:href="#DejaVuSans-48"/>
       <use x="127.246094" xlink:href="#DejaVuSans-48"/>
      </g>
     </g>
    </g>
    <g id="xtick_4">
     <g id="line2d_4">
      <g>
       <use style="stroke:#000000;stroke-width:0.8;" x="564.068317" xlink:href="#m67cf52e284" y="527.356875"/>
      </g>
     </g>
     <g id="text_4">
      <!-- 750 -->
      <defs>
       <path d="M 8.203125 72.90625 
L 55.078125 72.90625 
L 55.078125 68.703125 
L 28.609375 0 
L 18.3125 0 
L 43.21875 64.59375 
L 8.203125 64.59375 
z
" id="DejaVuSans-55"/>
      </defs>
      <g transform="translate(552.615817 543.475)scale(0.12 -0.12)">
       <use xlink:href="#DejaVuSans-55"/>
       <use x="63.623047" xlink:href="#DejaVuSans-53"/>
       <use x="127.246094" xlink:href="#DejaVuSans-48"/>
      </g>
     </g>
    </g>
    <g id="xtick_5">
     <g id="line2d_5">
      <g>
       <use style="stroke:#000000;stroke-width:0.8;" x="720.152233" xlink:href="#m67cf52e284" y="527.356875"/>
      </g>
     </g>
     <g id="text_5">
      <!-- 1000 -->
      <defs>
       <path d="M 12.40625 8.296875 
L 28.515625 8.296875 
L 28.515625 63.921875 
L 10.984375 60.40625 
L 10.984375 69.390625 
L 28.421875 72.90625 
L 38.28125 72.90625 
L 38.28125 8.296875 
L 54.390625 8.296875 
L 54.390625 0 
L 12.40625 0 
z
" id="DejaVuSans-49"/>
      </defs>
      <g transform="translate(704.882233 543.475)scale(0.12 -0.12)">
       <use xlink:href="#DejaVuSans-49"/>
       <use x="63.623047" xlink:href="#DejaVuSans-48"/>
       <use x="127.246094" xlink:href="#DejaVuSans-48"/>
       <use x="190.869141" xlink:href="#DejaVuSans-48"/>
      </g>
     </g>
    </g>
    <g id="xtick_6">
     <g id="line2d_6">
      <g>
       <use style="stroke:#000000;stroke-width:0.8;" x="876.236149" xlink:href="#m67cf52e284" y="527.356875"/>
      </g>
     </g>
     <g id="text_6">
      <!-- 1250 -->
      <g transform="translate(860.966149 543.475)scale(0.12 -0.12)">
       <use xlink:href="#DejaVuSans-49"/>
       <use x="63.623047" xlink:href="#DejaVuSans-50"/>
       <use x="127.246094" xlink:href="#DejaVuSans-53"/>
       <use x="190.869141" xlink:href="#DejaVuSans-48"/>
      </g>
     </g>
    </g>
    <g id="xtick_7">
     <g id="line2d_7">
      <g>
       <use style="stroke:#000000;stroke-width:0.8;" x="1032.320066" xlink:href="#m67cf52e284" y="527.356875"/>
      </g>
     </g>
     <g id="text_7">
      <!-- 1500 -->
      <g transform="translate(1017.050066 543.475)scale(0.12 -0.12)">
       <use xlink:href="#DejaVuSans-49"/>
       <use x="63.623047" xlink:href="#DejaVuSans-53"/>
       <use x="127.246094" xlink:href="#DejaVuSans-48"/>
       <use x="190.869141" xlink:href="#DejaVuSans-48"/>
      </g>
     </g>
    </g>
    <g id="xtick_8">
     <g id="line2d_8">
      <g>
       <use style="stroke:#000000;stroke-width:0.8;" x="1188.403982" xlink:href="#m67cf52e284" y="527.356875"/>
      </g>
     </g>
     <g id="text_8">
      <!-- 1750 -->
      <g transform="translate(1173.133982 543.475)scale(0.12 -0.12)">
       <use xlink:href="#DejaVuSans-49"/>
       <use x="63.623047" xlink:href="#DejaVuSans-55"/>
       <use x="127.246094" xlink:href="#DejaVuSans-53"/>
       <use x="190.869141" xlink:href="#DejaVuSans-48"/>
      </g>
     </g>
    </g>
    <g id="xtick_9">
     <g id="line2d_9">
      <g>
       <use style="stroke:#000000;stroke-width:0.8;" x="1344.487898" xlink:href="#m67cf52e284" y="527.356875"/>
      </g>
     </g>
     <g id="text_9">
      <!-- 2000 -->
      <g transform="translate(1329.217898 543.475)scale(0.12 -0.12)">
       <use xlink:href="#DejaVuSans-50"/>
       <use x="63.623047" xlink:href="#DejaVuSans-48"/>
       <use x="127.246094" xlink:href="#DejaVuSans-48"/>
       <use x="190.869141" xlink:href="#DejaVuSans-48"/>
      </g>
     </g>
    </g>
    <g id="text_10">
     <!-- Size S -->
     <defs>
      <path d="M 53.515625 70.515625 
L 53.515625 60.890625 
Q 47.90625 63.578125 42.921875 64.890625 
Q 37.9375 66.21875 33.296875 66.21875 
Q 25.25 66.21875 20.875 63.09375 
Q 16.5 59.96875 16.5 54.203125 
Q 16.5 49.359375 19.40625 46.890625 
Q 22.3125 44.4375 30.421875 42.921875 
L 36.375 41.703125 
Q 47.40625 39.59375 52.65625 34.296875 
Q 57.90625 29 57.90625 20.125 
Q 57.90625 9.515625 50.796875 4.046875 
Q 43.703125 -1.421875 29.984375 -1.421875 
Q 24.8125 -1.421875 18.96875 -0.25 
Q 13.140625 0.921875 6.890625 3.21875 
L 6.890625 13.375 
Q 12.890625 10.015625 18.65625 8.296875 
Q 24.421875 6.59375 29.984375 6.59375 
Q 38.421875 6.59375 43.015625 9.90625 
Q 47.609375 13.234375 47.609375 19.390625 
Q 47.609375 24.75 44.3125 27.78125 
Q 41.015625 30.8125 33.5 32.328125 
L 27.484375 33.5 
Q 16.453125 35.6875 11.515625 40.375 
Q 6.59375 45.0625 6.59375 53.421875 
Q 6.59375 63.09375 13.40625 68.65625 
Q 20.21875 74.21875 32.171875 74.21875 
Q 37.3125 74.21875 42.625 73.28125 
Q 47.953125 72.359375 53.515625 70.515625 
z
" id="DejaVuSans-83"/>
      <path d="M 9.421875 54.6875 
L 18.40625 54.6875 
L 18.40625 0 
L 9.421875 0 
z
M 9.421875 75.984375 
L 18.40625 75.984375 
L 18.40625 64.59375 
L 9.421875 64.59375 
z
" id="DejaVuSans-105"/>
      <path d="M 5.515625 54.6875 
L 48.1875 54.6875 
L 48.1875 46.484375 
L 14.40625 7.171875 
L 48.1875 7.171875 
L 48.1875 0 
L 4.296875 0 
L 4.296875 8.203125 
L 38.09375 47.515625 
L 5.515625 47.515625 
z
" id="DejaVuSans-122"/>
      <path d="M 56.203125 29.59375 
L 56.203125 25.203125 
L 14.890625 25.203125 
Q 15.484375 15.921875 20.484375 11.0625 
Q 25.484375 6.203125 34.421875 6.203125 
Q 39.59375 6.203125 44.453125 7.46875 
Q 49.3125 8.734375 54.109375 11.28125 
L 54.109375 2.78125 
Q 49.265625 0.734375 44.1875 -0.34375 
Q 39.109375 -1.421875 33.890625 -1.421875 
Q 20.796875 -1.421875 13.15625 6.1875 
Q 5.515625 13.8125 5.515625 26.8125 
Q 5.515625 40.234375 12.765625 48.109375 
Q 20.015625 56 32.328125 56 
Q 43.359375 56 49.78125 48.890625 
Q 56.203125 41.796875 56.203125 29.59375 
z
M 47.21875 32.234375 
Q 47.125 39.59375 43.09375 43.984375 
Q 39.0625 48.390625 32.421875 48.390625 
Q 24.90625 48.390625 20.390625 44.140625 
Q 15.875 39.890625 15.1875 32.171875 
z
" id="DejaVuSans-101"/>
      <path id="DejaVuSans-32"/>
     </defs>
     <g transform="translate(708.711406 563.647812)scale(0.18 -0.18)">
      <use xlink:href="#DejaVuSans-83"/>
      <use x="63.476562" xlink:href="#DejaVuSans-105"/>
      <use x="91.259766" xlink:href="#DejaVuSans-122"/>
      <use x="143.75" xlink:href="#DejaVuSans-101"/>
      <use x="205.273438" xlink:href="#DejaVuSans-32"/>
      <use x="237.060547" xlink:href="#DejaVuSans-83"/>
     </g>
    </g>
   </g>
   <g id="matplotlib.axis_2">
    <g id="ytick_1">
     <g id="line2d_10">
      <path clip-path="url(#pe398890814)" d="M 66.160625 504.747761 
L 1405.360625 504.747761 
" style="fill:none;stroke:#b0b0b0;stroke-linecap:square;stroke-width:0.8;"/>
     </g>
     <g id="line2d_11">
      <defs>
       <path d="M 0 0 
L -3.5 0 
" id="mb8279bc9c8" style="stroke:#000000;stroke-width:0.8;"/>
      </defs>
      <g>
       <use style="stroke:#000000;stroke-width:0.8;" x="66.160625" xlink:href="#mb8279bc9c8" y="504.747761"/>
      </g>
     </g>
     <g id="text_11">
      <!-- 0 -->
      <g transform="translate(48.980625 510.826511)scale(0.16 -0.16)">
       <use xlink:href="#DejaVuSans-48"/>
      </g>
     </g>
    </g>
    <g id="ytick_2">
     <g id="line2d_12">
      <path clip-path="url(#pe398890814)" d="M 66.160625 431.241592 
L 1405.360625 431.241592 
" style="fill:none;stroke:#b0b0b0;stroke-linecap:square;stroke-width:0.8;"/>
     </g>
     <g id="line2d_13">
      <g>
       <use style="stroke:#000000;stroke-width:0.8;" x="66.160625" xlink:href="#mb8279bc9c8" y="431.241592"/>
      </g>
     </g>
     <g id="text_12">
      <!-- 100 -->
      <g transform="translate(28.620625 437.320342)scale(0.16 -0.16)">
       <use xlink:href="#DejaVuSans-49"/>
       <use x="63.623047" xlink:href="#DejaVuSans-48"/>
       <use x="127.246094" xlink:href="#DejaVuSans-48"/>
      </g>
     </g>
    </g>
    <g id="ytick_3">
     <g id="line2d_14">
      <path clip-path="url(#pe398890814)" d="M 66.160625 357.735423 
L 1405.360625 357.735423 
" style="fill:none;stroke:#b0b0b0;stroke-linecap:square;stroke-width:0.8;"/>
     </g>
     <g id="line2d_15">
      <g>
       <use style="stroke:#000000;stroke-width:0.8;" x="66.160625" xlink:href="#mb8279bc9c8" y="357.735423"/>
      </g>
     </g>
     <g id="text_13">
      <!-- 200 -->
      <g transform="translate(28.620625 363.814173)scale(0.16 -0.16)">
       <use xlink:href="#DejaVuSans-50"/>
       <use x="63.623047" xlink:href="#DejaVuSans-48"/>
       <use x="127.246094" xlink:href="#DejaVuSans-48"/>
      </g>
     </g>
    </g>
    <g id="ytick_4">
     <g id="line2d_16">
      <path clip-path="url(#pe398890814)" d="M 66.160625 284.229254 
L 1405.360625 284.229254 
" style="fill:none;stroke:#b0b0b0;stroke-linecap:square;stroke-width:0.8;"/>
     </g>
     <g id="line2d_17">
      <g>
       <use style="stroke:#000000;stroke-width:0.8;" x="66.160625" xlink:href="#mb8279bc9c8" y="284.229254"/>
      </g>
     </g>
     <g id="text_14">
      <!-- 300 -->
      <defs>
       <path d="M 40.578125 39.3125 
Q 47.65625 37.796875 51.625 33 
Q 55.609375 28.21875 55.609375 21.1875 
Q 55.609375 10.40625 48.1875 4.484375 
Q 40.765625 -1.421875 27.09375 -1.421875 
Q 22.515625 -1.421875 17.65625 -0.515625 
Q 12.796875 0.390625 7.625 2.203125 
L 7.625 11.71875 
Q 11.71875 9.328125 16.59375 8.109375 
Q 21.484375 6.890625 26.8125 6.890625 
Q 36.078125 6.890625 40.9375 10.546875 
Q 45.796875 14.203125 45.796875 21.1875 
Q 45.796875 27.640625 41.28125 31.265625 
Q 36.765625 34.90625 28.71875 34.90625 
L 20.21875 34.90625 
L 20.21875 43.015625 
L 29.109375 43.015625 
Q 36.375 43.015625 40.234375 45.921875 
Q 44.09375 48.828125 44.09375 54.296875 
Q 44.09375 59.90625 40.109375 62.90625 
Q 36.140625 65.921875 28.71875 65.921875 
Q 24.65625 65.921875 20.015625 65.03125 
Q 15.375 64.15625 9.8125 62.3125 
L 9.8125 71.09375 
Q 15.4375 72.65625 20.34375 73.4375 
Q 25.25 74.21875 29.59375 74.21875 
Q 40.828125 74.21875 47.359375 69.109375 
Q 53.90625 64.015625 53.90625 55.328125 
Q 53.90625 49.265625 50.4375 45.09375 
Q 46.96875 40.921875 40.578125 39.3125 
z
" id="DejaVuSans-51"/>
      </defs>
      <g transform="translate(28.620625 290.308004)scale(0.16 -0.16)">
       <use xlink:href="#DejaVuSans-51"/>
       <use x="63.623047" xlink:href="#DejaVuSans-48"/>
       <use x="127.246094" xlink:href="#DejaVuSans-48"/>
      </g>
     </g>
    </g>
    <g id="ytick_5">
     <g id="line2d_18">
      <path clip-path="url(#pe398890814)" d="M 66.160625 210.723086 
L 1405.360625 210.723086 
" style="fill:none;stroke:#b0b0b0;stroke-linecap:square;stroke-width:0.8;"/>
     </g>
     <g id="line2d_19">
      <g>
       <use style="stroke:#000000;stroke-width:0.8;" x="66.160625" xlink:href="#mb8279bc9c8" y="210.723086"/>
      </g>
     </g>
     <g id="text_15">
      <!-- 400 -->
      <defs>
       <path d="M 37.796875 64.3125 
L 12.890625 25.390625 
L 37.796875 25.390625 
z
M 35.203125 72.90625 
L 47.609375 72.90625 
L 47.609375 25.390625 
L 58.015625 25.390625 
L 58.015625 17.1875 
L 47.609375 17.1875 
L 47.609375 0 
L 37.796875 0 
L 37.796875 17.1875 
L 4.890625 17.1875 
L 4.890625 26.703125 
z
" id="DejaVuSans-52"/>
      </defs>
      <g transform="translate(28.620625 216.801836)scale(0.16 -0.16)">
       <use xlink:href="#DejaVuSans-52"/>
       <use x="63.623047" xlink:href="#DejaVuSans-48"/>
       <use x="127.246094" xlink:href="#DejaVuSans-48"/>
      </g>
     </g>
    </g>
    <g id="ytick_6">
     <g id="line2d_20">
      <path clip-path="url(#pe398890814)" d="M 66.160625 137.216917 
L 1405.360625 137.216917 
" style="fill:none;stroke:#b0b0b0;stroke-linecap:square;stroke-width:0.8;"/>
     </g>
     <g id="line2d_21">
      <g>
       <use style="stroke:#000000;stroke-width:0.8;" x="66.160625" xlink:href="#mb8279bc9c8" y="137.216917"/>
      </g>
     </g>
     <g id="text_16">
      <!-- 500 -->
      <g transform="translate(28.620625 143.295667)scale(0.16 -0.16)">
       <use xlink:href="#DejaVuSans-53"/>
       <use x="63.623047" xlink:href="#DejaVuSans-48"/>
       <use x="127.246094" xlink:href="#DejaVuSans-48"/>
      </g>
     </g>
    </g>
    <g id="ytick_7">
     <g id="line2d_22">
      <path clip-path="url(#pe398890814)" d="M 66.160625 63.710748 
L 1405.360625 63.710748 
" style="fill:none;stroke:#b0b0b0;stroke-linecap:square;stroke-width:0.8;"/>
     </g>
     <g id="line2d_23">
      <g>
       <use style="stroke:#000000;stroke-width:0.8;" x="66.160625" xlink:href="#mb8279bc9c8" y="63.710748"/>
      </g>
     </g>
     <g id="text_17">
      <!-- 600 -->
      <defs>
       <path d="M 33.015625 40.375 
Q 26.375 40.375 22.484375 35.828125 
Q 18.609375 31.296875 18.609375 23.390625 
Q 18.609375 15.53125 22.484375 10.953125 
Q 26.375 6.390625 33.015625 6.390625 
Q 39.65625 6.390625 43.53125 10.953125 
Q 47.40625 15.53125 47.40625 23.390625 
Q 47.40625 31.296875 43.53125 35.828125 
Q 39.65625 40.375 33.015625 40.375 
z
M 52.59375 71.296875 
L 52.59375 62.3125 
Q 48.875 64.0625 45.09375 64.984375 
Q 41.3125 65.921875 37.59375 65.921875 
Q 27.828125 65.921875 22.671875 59.328125 
Q 17.53125 52.734375 16.796875 39.40625 
Q 19.671875 43.65625 24.015625 45.921875 
Q 28.375 48.1875 33.59375 48.1875 
Q 44.578125 48.1875 50.953125 41.515625 
Q 57.328125 34.859375 57.328125 23.390625 
Q 57.328125 12.15625 50.6875 5.359375 
Q 44.046875 -1.421875 33.015625 -1.421875 
Q 20.359375 -1.421875 13.671875 8.265625 
Q 6.984375 17.96875 6.984375 36.375 
Q 6.984375 53.65625 15.1875 63.9375 
Q 23.390625 74.21875 37.203125 74.21875 
Q 40.921875 74.21875 44.703125 73.484375 
Q 48.484375 72.75 52.59375 71.296875 
z
" id="DejaVuSans-54"/>
      </defs>
      <g transform="translate(28.620625 69.789498)scale(0.16 -0.16)">
       <use xlink:href="#DejaVuSans-54"/>
       <use x="63.623047" xlink:href="#DejaVuSans-48"/>
       <use x="127.246094" xlink:href="#DejaVuSans-48"/>
      </g>
     </g>
    </g>
    <g id="text_18">
     <!-- Minimum Time (ms) -->
     <defs>
      <path d="M 9.8125 72.90625 
L 24.515625 72.90625 
L 43.109375 23.296875 
L 61.8125 72.90625 
L 76.515625 72.90625 
L 76.515625 0 
L 66.890625 0 
L 66.890625 64.015625 
L 48.09375 14.015625 
L 38.1875 14.015625 
L 19.390625 64.015625 
L 19.390625 0 
L 9.8125 0 
z
" id="DejaVuSans-77"/>
      <path d="M 54.890625 33.015625 
L 54.890625 0 
L 45.90625 0 
L 45.90625 32.71875 
Q 45.90625 40.484375 42.875 44.328125 
Q 39.84375 48.1875 33.796875 48.1875 
Q 26.515625 48.1875 22.3125 43.546875 
Q 18.109375 38.921875 18.109375 30.90625 
L 18.109375 0 
L 9.078125 0 
L 9.078125 54.6875 
L 18.109375 54.6875 
L 18.109375 46.1875 
Q 21.34375 51.125 25.703125 53.5625 
Q 30.078125 56 35.796875 56 
Q 45.21875 56 50.046875 50.171875 
Q 54.890625 44.34375 54.890625 33.015625 
z
" id="DejaVuSans-110"/>
      <path d="M 52 44.1875 
Q 55.375 50.25 60.0625 53.125 
Q 64.75 56 71.09375 56 
Q 79.640625 56 84.28125 50.015625 
Q 88.921875 44.046875 88.921875 33.015625 
L 88.921875 0 
L 79.890625 0 
L 79.890625 32.71875 
Q 79.890625 40.578125 77.09375 44.375 
Q 74.3125 48.1875 68.609375 48.1875 
Q 61.625 48.1875 57.5625 43.546875 
Q 53.515625 38.921875 53.515625 30.90625 
L 53.515625 0 
L 44.484375 0 
L 44.484375 32.71875 
Q 44.484375 40.625 41.703125 44.40625 
Q 38.921875 48.1875 33.109375 48.1875 
Q 26.21875 48.1875 22.15625 43.53125 
Q 18.109375 38.875 18.109375 30.90625 
L 18.109375 0 
L 9.078125 0 
L 9.078125 54.6875 
L 18.109375 54.6875 
L 18.109375 46.1875 
Q 21.1875 51.21875 25.484375 53.609375 
Q 29.78125 56 35.6875 56 
Q 41.65625 56 45.828125 52.96875 
Q 50 49.953125 52 44.1875 
z
" id="DejaVuSans-109"/>
      <path d="M 8.5 21.578125 
L 8.5 54.6875 
L 17.484375 54.6875 
L 17.484375 21.921875 
Q 17.484375 14.15625 20.5 10.265625 
Q 23.53125 6.390625 29.59375 6.390625 
Q 36.859375 6.390625 41.078125 11.03125 
Q 45.3125 15.671875 45.3125 23.6875 
L 45.3125 54.6875 
L 54.296875 54.6875 
L 54.296875 0 
L 45.3125 0 
L 45.3125 8.40625 
Q 42.046875 3.421875 37.71875 1 
Q 33.40625 -1.421875 27.6875 -1.421875 
Q 18.265625 -1.421875 13.375 4.4375 
Q 8.5 10.296875 8.5 21.578125 
z
M 31.109375 56 
z
" id="DejaVuSans-117"/>
      <path d="M -0.296875 72.90625 
L 61.375 72.90625 
L 61.375 64.59375 
L 35.5 64.59375 
L 35.5 0 
L 25.59375 0 
L 25.59375 64.59375 
L -0.296875 64.59375 
z
" id="DejaVuSans-84"/>
      <path d="M 31 75.875 
Q 24.46875 64.65625 21.28125 53.65625 
Q 18.109375 42.671875 18.109375 31.390625 
Q 18.109375 20.125 21.3125 9.0625 
Q 24.515625 -2 31 -13.1875 
L 23.1875 -13.1875 
Q 15.875 -1.703125 12.234375 9.375 
Q 8.59375 20.453125 8.59375 31.390625 
Q 8.59375 42.28125 12.203125 53.3125 
Q 15.828125 64.359375 23.1875 75.875 
z
" id="DejaVuSans-40"/>
      <path d="M 44.28125 53.078125 
L 44.28125 44.578125 
Q 40.484375 46.53125 36.375 47.5 
Q 32.28125 48.484375 27.875 48.484375 
Q 21.1875 48.484375 17.84375 46.4375 
Q 14.5 44.390625 14.5 40.28125 
Q 14.5 37.15625 16.890625 35.375 
Q 19.28125 33.59375 26.515625 31.984375 
L 29.59375 31.296875 
Q 39.15625 29.25 43.1875 25.515625 
Q 47.21875 21.78125 47.21875 15.09375 
Q 47.21875 7.46875 41.1875 3.015625 
Q 35.15625 -1.421875 24.609375 -1.421875 
Q 20.21875 -1.421875 15.453125 -0.5625 
Q 10.6875 0.296875 5.421875 2 
L 5.421875 11.28125 
Q 10.40625 8.6875 15.234375 7.390625 
Q 20.0625 6.109375 24.8125 6.109375 
Q 31.15625 6.109375 34.5625 8.28125 
Q 37.984375 10.453125 37.984375 14.40625 
Q 37.984375 18.0625 35.515625 20.015625 
Q 33.0625 21.96875 24.703125 23.78125 
L 21.578125 24.515625 
Q 13.234375 26.265625 9.515625 29.90625 
Q 5.8125 33.546875 5.8125 39.890625 
Q 5.8125 47.609375 11.28125 51.796875 
Q 16.75 56 26.8125 56 
Q 31.78125 56 36.171875 55.265625 
Q 40.578125 54.546875 44.28125 53.078125 
z
" id="DejaVuSans-115"/>
      <path d="M 8.015625 75.875 
L 15.828125 75.875 
Q 23.140625 64.359375 26.78125 53.3125 
Q 30.421875 42.28125 30.421875 31.390625 
Q 30.421875 20.453125 26.78125 9.375 
Q 23.140625 -1.703125 15.828125 -13.1875 
L 8.015625 -13.1875 
Q 14.5 -2 17.703125 9.0625 
Q 20.90625 20.125 20.90625 31.390625 
Q 20.90625 42.671875 17.703125 53.65625 
Q 14.5 64.65625 8.015625 75.875 
z
" id="DejaVuSans-41"/>
     </defs>
     <g transform="translate(20.877187 368.079375)rotate(-90)scale(0.18 -0.18)">
      <use xlink:href="#DejaVuSans-77"/>
      <use x="86.279297" xlink:href="#DejaVuSans-105"/>
      <use x="114.0625" xlink:href="#DejaVuSans-110"/>
      <use x="177.441406" xlink:href="#DejaVuSans-105"/>
      <use x="205.224609" xlink:href="#DejaVuSans-109"/>
      <use x="302.636719" xlink:href="#DejaVuSans-117"/>
      <use x="366.015625" xlink:href="#DejaVuSans-109"/>
      <use x="463.427734" xlink:href="#DejaVuSans-32"/>
      <use x="495.214844" xlink:href="#DejaVuSans-84"/>
      <use x="556.251953" xlink:href="#DejaVuSans-105"/>
      <use x="584.035156" xlink:href="#DejaVuSans-109"/>
      <use x="681.447266" xlink:href="#DejaVuSans-101"/>
      <use x="742.970703" xlink:href="#DejaVuSans-32"/>
      <use x="774.757812" xlink:href="#DejaVuSans-40"/>
      <use x="813.771484" xlink:href="#DejaVuSans-109"/>
      <use x="911.183594" xlink:href="#DejaVuSans-115"/>
      <use x="963.283203" xlink:href="#DejaVuSans-41"/>
     </g>
    </g>
   </g>
   <g id="line2d_24">
    <path clip-path="url(#pe398890814)" d="M 127.033352 504.623171 
L 158.250135 503.247499 
L 189.466919 501.056045 
L 220.683702 498.551723 
L 251.900485 493.007192 
L 283.117268 488.09402 
L 314.334052 481.521854 
L 345.550835 473.77215 
L 376.767618 465.874306 
L 407.984401 456.071801 
L 439.201184 449.739033 
L 470.417968 443.267418 
L 501.634751 436.601417 
L 532.851534 431.241592 
L 564.068317 423.466901 
L 595.285101 416.399 
L 626.501884 406.60032 
L 657.718667 404.825313 
L 688.93545 396.159102 
L 720.152233 386.762007 
L 751.369017 375.537699 
L 782.5858 366.923694 
L 813.802583 353.797593 
L 845.019366 342.312254 
L 876.236149 330.553455 
L 907.452933 317.153893 
L 938.669716 304.902864 
L 969.886499 293.417526 
L 1001.103282 277.338051 
L 1032.320066 263.555644 
L 1063.536849 252.070306 
L 1094.753632 223.356958 
L 1125.970415 209.957396 
L 1157.187198 171.672933 
L 1188.403982 152.530702 
L 1219.620765 133.38847 
L 1250.837548 114.246239 
L 1282.054331 97.018231 
L 1313.271115 74.047553 
L 1344.487898 51.076875 
" style="fill:none;stroke:#55868c;stroke-linecap:square;stroke-width:1.5;"/>
    <defs>
     <path d="M -3 3 
L 3 -3 
M -3 -3 
L 3 3 
" id="m75374b0a74" style="stroke:#55868c;"/>
    </defs>
    <g clip-path="url(#pe398890814)">
     <use style="fill:#55868c;stroke:#55868c;" x="127.033352" xlink:href="#m75374b0a74" y="504.623171"/>
     <use style="fill:#55868c;stroke:#55868c;" x="158.250135" xlink:href="#m75374b0a74" y="503.247499"/>
     <use style="fill:#55868c;stroke:#55868c;" x="189.466919" xlink:href="#m75374b0a74" y="501.056045"/>
     <use style="fill:#55868c;stroke:#55868c;" x="220.683702" xlink:href="#m75374b0a74" y="498.551723"/>
     <use style="fill:#55868c;stroke:#55868c;" x="251.900485" xlink:href="#m75374b0a74" y="493.007192"/>
     <use style="fill:#55868c;stroke:#55868c;" x="283.117268" xlink:href="#m75374b0a74" y="488.09402"/>
     <use style="fill:#55868c;stroke:#55868c;" x="314.334052" xlink:href="#m75374b0a74" y="481.521854"/>
     <use style="fill:#55868c;stroke:#55868c;" x="345.550835" xlink:href="#m75374b0a74" y="473.77215"/>
     <use style="fill:#55868c;stroke:#55868c;" x="376.767618" xlink:href="#m75374b0a74" y="465.874306"/>
     <use style="fill:#55868c;stroke:#55868c;" x="407.984401" xlink:href="#m75374b0a74" y="456.071801"/>
     <use style="fill:#55868c;stroke:#55868c;" x="439.201184" xlink:href="#m75374b0a74" y="449.739033"/>
     <use style="fill:#55868c;stroke:#55868c;" x="470.417968" xlink:href="#m75374b0a74" y="443.267418"/>
     <use style="fill:#55868c;stroke:#55868c;" x="501.634751" xlink:href="#m75374b0a74" y="436.601417"/>
     <use style="fill:#55868c;stroke:#55868c;" x="532.851534" xlink:href="#m75374b0a74" y="431.241592"/>
     <use style="fill:#55868c;stroke:#55868c;" x="564.068317" xlink:href="#m75374b0a74" y="423.466901"/>
     <use style="fill:#55868c;stroke:#55868c;" x="595.285101" xlink:href="#m75374b0a74" y="416.399"/>
     <use style="fill:#55868c;stroke:#55868c;" x="626.501884" xlink:href="#m75374b0a74" y="406.60032"/>
     <use style="fill:#55868c;stroke:#55868c;" x="657.718667" xlink:href="#m75374b0a74" y="404.825313"/>
     <use style="fill:#55868c;stroke:#55868c;" x="688.93545" xlink:href="#m75374b0a74" y="396.159102"/>
     <use style="fill:#55868c;stroke:#55868c;" x="720.152233" xlink:href="#m75374b0a74" y="386.762007"/>
     <use style="fill:#55868c;stroke:#55868c;" x="751.369017" xlink:href="#m75374b0a74" y="375.537699"/>
     <use style="fill:#55868c;stroke:#55868c;" x="782.5858" xlink:href="#m75374b0a74" y="366.923694"/>
     <use style="fill:#55868c;stroke:#55868c;" x="813.802583" xlink:href="#m75374b0a74" y="353.797593"/>
     <use style="fill:#55868c;stroke:#55868c;" x="845.019366" xlink:href="#m75374b0a74" y="342.312254"/>
     <use style="fill:#55868c;stroke:#55868c;" x="876.236149" xlink:href="#m75374b0a74" y="330.553455"/>
     <use style="fill:#55868c;stroke:#55868c;" x="907.452933" xlink:href="#m75374b0a74" y="317.153893"/>
     <use style="fill:#55868c;stroke:#55868c;" x="938.669716" xlink:href="#m75374b0a74" y="304.902864"/>
     <use style="fill:#55868c;stroke:#55868c;" x="969.886499" xlink:href="#m75374b0a74" y="293.417526"/>
     <use style="fill:#55868c;stroke:#55868c;" x="1001.103282" xlink:href="#m75374b0a74" y="277.338051"/>
     <use style="fill:#55868c;stroke:#55868c;" x="1032.320066" xlink:href="#m75374b0a74" y="263.555644"/>
     <use style="fill:#55868c;stroke:#55868c;" x="1063.536849" xlink:href="#m75374b0a74" y="252.070306"/>
     <use style="fill:#55868c;stroke:#55868c;" x="1094.753632" xlink:href="#m75374b0a74" y="223.356958"/>
     <use style="fill:#55868c;stroke:#55868c;" x="1125.970415" xlink:href="#m75374b0a74" y="209.957396"/>
     <use style="fill:#55868c;stroke:#55868c;" x="1157.187198" xlink:href="#m75374b0a74" y="171.672933"/>
     <use style="fill:#55868c;stroke:#55868c;" x="1188.403982" xlink:href="#m75374b0a74" y="152.530702"/>
     <use style="fill:#55868c;stroke:#55868c;" x="1219.620765" xlink:href="#m75374b0a74" y="133.38847"/>
     <use style="fill:#55868c;stroke:#55868c;" x="1250.837548" xlink:href="#m75374b0a74" y="114.246239"/>
     <use style="fill:#55868c;stroke:#55868c;" x="1282.054331" xlink:href="#m75374b0a74" y="97.018231"/>
     <use style="fill:#55868c;stroke:#55868c;" x="1313.271115" xlink:href="#m75374b0a74" y="74.047553"/>
     <use style="fill:#55868c;stroke:#55868c;" x="1344.487898" xlink:href="#m75374b0a74" y="51.076875"/>
    </g>
   </g>
   <g id="line2d_25">
    <path clip-path="url(#pe398890814)" d="M 127.033352 504.670809 
L 158.250135 504.136478 
L 189.466919 503.347517 
L 220.683702 502.292664 
L 251.900485 500.799676 
L 283.117268 498.76723 
L 314.334052 496.582403 
L 345.550835 494.181249 
L 376.767618 491.118492 
L 407.984401 488.09402 
L 439.201184 484.303858 
L 470.417968 480.376432 
L 501.634751 476.672488 
L 532.851534 471.773724 
L 564.068317 467.010219 
L 595.285101 460.894649 
L 626.501884 407.564124 
L 657.718667 404.825313 
L 688.93545 396.785576 
L 720.152233 388.618223 
L 751.369017 378.409033 
L 782.5858 366.923694 
L 813.802583 357.079118 
L 845.019366 345.593779 
L 876.236149 332.467678 
L 907.452933 319.068116 
L 938.669716 307.582777 
L 969.886499 295.714593 
L 1001.103282 281.932187 
L 1032.320066 269.298314 
L 1063.536849 249.198971 
L 1094.753632 231.970962 
L 1125.970415 209.957396 
L 1157.187198 175.50138 
L 1188.403982 156.359148 
L 1219.620765 141.045363 
L 1250.837548 118.074685 
L 1282.054331 97.018231 
L 1313.271115 74.047553 
L 1344.487898 51.076875 
" style="fill:none;stroke:#eec584;stroke-linecap:square;stroke-width:1.5;"/>
    <defs>
     <path d="M -3 3 
L 3 -3 
M -3 -3 
L 3 3 
" id="m701abf8556" style="stroke:#eec584;"/>
    </defs>
    <g clip-path="url(#pe398890814)">
     <use style="fill:#eec584;stroke:#eec584;" x="127.033352" xlink:href="#m701abf8556" y="504.670809"/>
     <use style="fill:#eec584;stroke:#eec584;" x="158.250135" xlink:href="#m701abf8556" y="504.136478"/>
     <use style="fill:#eec584;stroke:#eec584;" x="189.466919" xlink:href="#m701abf8556" y="503.347517"/>
     <use style="fill:#eec584;stroke:#eec584;" x="220.683702" xlink:href="#m701abf8556" y="502.292664"/>
     <use style="fill:#eec584;stroke:#eec584;" x="251.900485" xlink:href="#m701abf8556" y="500.799676"/>
     <use style="fill:#eec584;stroke:#eec584;" x="283.117268" xlink:href="#m701abf8556" y="498.76723"/>
     <use style="fill:#eec584;stroke:#eec584;" x="314.334052" xlink:href="#m701abf8556" y="496.582403"/>
     <use style="fill:#eec584;stroke:#eec584;" x="345.550835" xlink:href="#m701abf8556" y="494.181249"/>
     <use style="fill:#eec584;stroke:#eec584;" x="376.767618" xlink:href="#m701abf8556" y="491.118492"/>
     <use style="fill:#eec584;stroke:#eec584;" x="407.984401" xlink:href="#m701abf8556" y="488.09402"/>
     <use style="fill:#eec584;stroke:#eec584;" x="439.201184" xlink:href="#m701abf8556" y="484.303858"/>
     <use style="fill:#eec584;stroke:#eec584;" x="470.417968" xlink:href="#m701abf8556" y="480.376432"/>
     <use style="fill:#eec584;stroke:#eec584;" x="501.634751" xlink:href="#m701abf8556" y="476.672488"/>
     <use style="fill:#eec584;stroke:#eec584;" x="532.851534" xlink:href="#m701abf8556" y="471.773724"/>
     <use style="fill:#eec584;stroke:#eec584;" x="564.068317" xlink:href="#m701abf8556" y="467.010219"/>
     <use style="fill:#eec584;stroke:#eec584;" x="595.285101" xlink:href="#m701abf8556" y="460.894649"/>
     <use style="fill:#eec584;stroke:#eec584;" x="626.501884" xlink:href="#m701abf8556" y="407.564124"/>
     <use style="fill:#eec584;stroke:#eec584;" x="657.718667" xlink:href="#m701abf8556" y="404.825313"/>
     <use style="fill:#eec584;stroke:#eec584;" x="688.93545" xlink:href="#m701abf8556" y="396.785576"/>
     <use style="fill:#eec584;stroke:#eec584;" x="720.152233" xlink:href="#m701abf8556" y="388.618223"/>
     <use style="fill:#eec584;stroke:#eec584;" x="751.369017" xlink:href="#m701abf8556" y="378.409033"/>
     <use style="fill:#eec584;stroke:#eec584;" x="782.5858" xlink:href="#m701abf8556" y="366.923694"/>
     <use style="fill:#eec584;stroke:#eec584;" x="813.802583" xlink:href="#m701abf8556" y="357.079118"/>
     <use style="fill:#eec584;stroke:#eec584;" x="845.019366" xlink:href="#m701abf8556" y="345.593779"/>
     <use style="fill:#eec584;stroke:#eec584;" x="876.236149" xlink:href="#m701abf8556" y="332.467678"/>
     <use style="fill:#eec584;stroke:#eec584;" x="907.452933" xlink:href="#m701abf8556" y="319.068116"/>
     <use style="fill:#eec584;stroke:#eec584;" x="938.669716" xlink:href="#m701abf8556" y="307.582777"/>
     <use style="fill:#eec584;stroke:#eec584;" x="969.886499" xlink:href="#m701abf8556" y="295.714593"/>
     <use style="fill:#eec584;stroke:#eec584;" x="1001.103282" xlink:href="#m701abf8556" y="281.932187"/>
     <use style="fill:#eec584;stroke:#eec584;" x="1032.320066" xlink:href="#m701abf8556" y="269.298314"/>
     <use style="fill:#eec584;stroke:#eec584;" x="1063.536849" xlink:href="#m701abf8556" y="249.198971"/>
     <use style="fill:#eec584;stroke:#eec584;" x="1094.753632" xlink:href="#m701abf8556" y="231.970962"/>
     <use style="fill:#eec584;stroke:#eec584;" x="1125.970415" xlink:href="#m701abf8556" y="209.957396"/>
     <use style="fill:#eec584;stroke:#eec584;" x="1157.187198" xlink:href="#m701abf8556" y="175.50138"/>
     <use style="fill:#eec584;stroke:#eec584;" x="1188.403982" xlink:href="#m701abf8556" y="156.359148"/>
     <use style="fill:#eec584;stroke:#eec584;" x="1219.620765" xlink:href="#m701abf8556" y="141.045363"/>
     <use style="fill:#eec584;stroke:#eec584;" x="1250.837548" xlink:href="#m701abf8556" y="118.074685"/>
     <use style="fill:#eec584;stroke:#eec584;" x="1282.054331" xlink:href="#m701abf8556" y="97.018231"/>
     <use style="fill:#eec584;stroke:#eec584;" x="1313.271115" xlink:href="#m701abf8556" y="74.047553"/>
     <use style="fill:#eec584;stroke:#eec584;" x="1344.487898" xlink:href="#m701abf8556" y="51.076875"/>
    </g>
   </g>
   <g id="line2d_26">
    <path clip-path="url(#pe398890814)" d="M 127.033352 504.669697 
L 158.250135 504.127313 
L 189.466919 503.317859 
L 220.683702 502.179786 
L 251.900485 500.571274 
L 283.117268 498.688012 
L 314.334052 496.313215 
L 345.550835 493.900497 
L 376.767618 490.812217 
L 407.984401 487.32833 
L 439.201184 483.614738 
L 470.417968 481.216823 
L 501.634751 478.362523 
L 532.851534 474.503035 
L 564.068317 466.846143 
L 595.285101 459.328466 
L 626.501884 407.644441 
L 657.718667 405.556198 
L 688.93545 396.785576 
L 720.152233 387.342075 
L 751.369017 377.132885 
L 782.5858 366.923694 
L 813.802583 357.079118 
L 845.019366 343.953017 
L 876.236149 334.381901 
L 907.452933 319.068116 
L 938.669716 307.199932 
L 969.886499 293.417526 
L 1001.103282 279.635119 
L 1032.320066 263.555644 
L 1063.536849 252.070306 
L 1094.753632 229.099628 
L 1125.970415 209.957396 
L 1157.187198 175.50138 
L 1188.403982 156.359148 
L 1219.620765 137.216917 
L 1250.837548 118.074685 
L 1282.054331 102.7609 
L 1313.271115 79.790222 
L 1344.487898 62.562214 
" style="fill:none;stroke:#ce4257;stroke-linecap:square;stroke-width:1.5;"/>
    <defs>
     <path d="M -3 3 
L 3 -3 
M -3 -3 
L 3 3 
" id="me0ccf1d492" style="stroke:#ce4257;"/>
    </defs>
    <g clip-path="url(#pe398890814)">
     <use style="fill:#ce4257;stroke:#ce4257;" x="127.033352" xlink:href="#me0ccf1d492" y="504.669697"/>
     <use style="fill:#ce4257;stroke:#ce4257;" x="158.250135" xlink:href="#me0ccf1d492" y="504.127313"/>
     <use style="fill:#ce4257;stroke:#ce4257;" x="189.466919" xlink:href="#me0ccf1d492" y="503.317859"/>
     <use style="fill:#ce4257;stroke:#ce4257;" x="220.683702" xlink:href="#me0ccf1d492" y="502.179786"/>
     <use style="fill:#ce4257;stroke:#ce4257;" x="251.900485" xlink:href="#me0ccf1d492" y="500.571274"/>
     <use style="fill:#ce4257;stroke:#ce4257;" x="283.117268" xlink:href="#me0ccf1d492" y="498.688012"/>
     <use style="fill:#ce4257;stroke:#ce4257;" x="314.334052" xlink:href="#me0ccf1d492" y="496.313215"/>
     <use style="fill:#ce4257;stroke:#ce4257;" x="345.550835" xlink:href="#me0ccf1d492" y="493.900497"/>
     <use style="fill:#ce4257;stroke:#ce4257;" x="376.767618" xlink:href="#me0ccf1d492" y="490.812217"/>
     <use style="fill:#ce4257;stroke:#ce4257;" x="407.984401" xlink:href="#me0ccf1d492" y="487.32833"/>
     <use style="fill:#ce4257;stroke:#ce4257;" x="439.201184" xlink:href="#me0ccf1d492" y="483.614738"/>
     <use style="fill:#ce4257;stroke:#ce4257;" x="470.417968" xlink:href="#me0ccf1d492" y="481.216823"/>
     <use style="fill:#ce4257;stroke:#ce4257;" x="501.634751" xlink:href="#me0ccf1d492" y="478.362523"/>
     <use style="fill:#ce4257;stroke:#ce4257;" x="532.851534" xlink:href="#me0ccf1d492" y="474.503035"/>
     <use style="fill:#ce4257;stroke:#ce4257;" x="564.068317" xlink:href="#me0ccf1d492" y="466.846143"/>
     <use style="fill:#ce4257;stroke:#ce4257;" x="595.285101" xlink:href="#me0ccf1d492" y="459.328466"/>
     <use style="fill:#ce4257;stroke:#ce4257;" x="626.501884" xlink:href="#me0ccf1d492" y="407.644441"/>
     <use style="fill:#ce4257;stroke:#ce4257;" x="657.718667" xlink:href="#me0ccf1d492" y="405.556198"/>
     <use style="fill:#ce4257;stroke:#ce4257;" x="688.93545" xlink:href="#me0ccf1d492" y="396.785576"/>
     <use style="fill:#ce4257;stroke:#ce4257;" x="720.152233" xlink:href="#me0ccf1d492" y="387.342075"/>
     <use style="fill:#ce4257;stroke:#ce4257;" x="751.369017" xlink:href="#me0ccf1d492" y="377.132885"/>
     <use style="fill:#ce4257;stroke:#ce4257;" x="782.5858" xlink:href="#me0ccf1d492" y="366.923694"/>
     <use style="fill:#ce4257;stroke:#ce4257;" x="813.802583" xlink:href="#me0ccf1d492" y="357.079118"/>
     <use style="fill:#ce4257;stroke:#ce4257;" x="845.019366" xlink:href="#me0ccf1d492" y="343.953017"/>
     <use style="fill:#ce4257;stroke:#ce4257;" x="876.236149" xlink:href="#me0ccf1d492" y="334.381901"/>
     <use style="fill:#ce4257;stroke:#ce4257;" x="907.452933" xlink:href="#me0ccf1d492" y="319.068116"/>
     <use style="fill:#ce4257;stroke:#ce4257;" x="938.669716" xlink:href="#me0ccf1d492" y="307.199932"/>
     <use style="fill:#ce4257;stroke:#ce4257;" x="969.886499" xlink:href="#me0ccf1d492" y="293.417526"/>
     <use style="fill:#ce4257;stroke:#ce4257;" x="1001.103282" xlink:href="#me0ccf1d492" y="279.635119"/>
     <use style="fill:#ce4257;stroke:#ce4257;" x="1032.320066" xlink:href="#me0ccf1d492" y="263.555644"/>
     <use style="fill:#ce4257;stroke:#ce4257;" x="1063.536849" xlink:href="#me0ccf1d492" y="252.070306"/>
     <use style="fill:#ce4257;stroke:#ce4257;" x="1094.753632" xlink:href="#me0ccf1d492" y="229.099628"/>
     <use style="fill:#ce4257;stroke:#ce4257;" x="1125.970415" xlink:href="#me0ccf1d492" y="209.957396"/>
     <use style="fill:#ce4257;stroke:#ce4257;" x="1157.187198" xlink:href="#me0ccf1d492" y="175.50138"/>
     <use style="fill:#ce4257;stroke:#ce4257;" x="1188.403982" xlink:href="#me0ccf1d492" y="156.359148"/>
     <use style="fill:#ce4257;stroke:#ce4257;" x="1219.620765" xlink:href="#me0ccf1d492" y="137.216917"/>
     <use style="fill:#ce4257;stroke:#ce4257;" x="1250.837548" xlink:href="#me0ccf1d492" y="118.074685"/>
     <use style="fill:#ce4257;stroke:#ce4257;" x="1282.054331" xlink:href="#me0ccf1d492" y="102.7609"/>
     <use style="fill:#ce4257;stroke:#ce4257;" x="1313.271115" xlink:href="#me0ccf1d492" y="79.790222"/>
     <use style="fill:#ce4257;stroke:#ce4257;" x="1344.487898" xlink:href="#me0ccf1d492" y="62.562214"/>
    </g>
   </g>
   <g id="line2d_27">
    <path clip-path="url(#pe398890814)" d="M 127.033352 504.676875 
L 158.250135 504.17734 
L 189.466919 503.425486 
L 220.683702 502.380759 
L 251.900485 500.853079 
L 283.117268 498.97301 
L 314.334052 496.851591 
L 345.550835 494.525809 
L 376.767618 491.577906 
L 407.984401 488.596503 
L 439.201184 485.222685 
L 470.417968 481.509982 
L 501.634751 477.741694 
L 532.851534 473.163079 
L 564.068317 468.650982 
L 595.285101 462.301943 
L 626.501884 409.3311 
L 657.718667 407.122381 
L 688.93545 399.082643 
L 720.152233 389.894372 
L 751.369017 379.685182 
L 782.5858 369.795029 
L 813.802583 360.360644 
L 845.019366 347.234542 
L 876.236149 336.296124 
L 907.452933 322.896562 
L 938.669716 309.497 
L 969.886499 298.011661 
L 1001.103282 281.932187 
L 1032.320066 269.298314 
L 1063.536849 254.94164 
L 1094.753632 231.970962 
L 1125.970415 213.785843 
L 1157.187198 179.329826 
L 1188.403982 160.187594 
L 1219.620765 144.873809 
L 1250.837548 121.903131 
L 1282.054331 98.932454 
L 1313.271115 85.532892 
L 1344.487898 62.562214 
" style="fill:none;stroke:#ff0000;stroke-linecap:square;stroke-width:1.5;"/>
    <defs>
     <path d="M -3 3 
L 3 -3 
M -3 -3 
L 3 3 
" id="m15a65f4a1d" style="stroke:#ff0000;"/>
    </defs>
    <g clip-path="url(#pe398890814)">
     <use style="fill:#ff0000;stroke:#ff0000;" x="127.033352" xlink:href="#m15a65f4a1d" y="504.676875"/>
     <use style="fill:#ff0000;stroke:#ff0000;" x="158.250135" xlink:href="#m15a65f4a1d" y="504.17734"/>
     <use style="fill:#ff0000;stroke:#ff0000;" x="189.466919" xlink:href="#m15a65f4a1d" y="503.425486"/>
     <use style="fill:#ff0000;stroke:#ff0000;" x="220.683702" xlink:href="#m15a65f4a1d" y="502.380759"/>
     <use style="fill:#ff0000;stroke:#ff0000;" x="251.900485" xlink:href="#m15a65f4a1d" y="500.853079"/>
     <use style="fill:#ff0000;stroke:#ff0000;" x="283.117268" xlink:href="#m15a65f4a1d" y="498.97301"/>
     <use style="fill:#ff0000;stroke:#ff0000;" x="314.334052" xlink:href="#m15a65f4a1d" y="496.851591"/>
     <use style="fill:#ff0000;stroke:#ff0000;" x="345.550835" xlink:href="#m15a65f4a1d" y="494.525809"/>
     <use style="fill:#ff0000;stroke:#ff0000;" x="376.767618" xlink:href="#m15a65f4a1d" y="491.577906"/>
     <use style="fill:#ff0000;stroke:#ff0000;" x="407.984401" xlink:href="#m15a65f4a1d" y="488.596503"/>
     <use style="fill:#ff0000;stroke:#ff0000;" x="439.201184" xlink:href="#m15a65f4a1d" y="485.222685"/>
     <use style="fill:#ff0000;stroke:#ff0000;" x="470.417968" xlink:href="#m15a65f4a1d" y="481.509982"/>
     <use style="fill:#ff0000;stroke:#ff0000;" x="501.634751" xlink:href="#m15a65f4a1d" y="477.741694"/>
     <use style="fill:#ff0000;stroke:#ff0000;" x="532.851534" xlink:href="#m15a65f4a1d" y="473.163079"/>
     <use style="fill:#ff0000;stroke:#ff0000;" x="564.068317" xlink:href="#m15a65f4a1d" y="468.650982"/>
     <use style="fill:#ff0000;stroke:#ff0000;" x="595.285101" xlink:href="#m15a65f4a1d" y="462.301943"/>
     <use style="fill:#ff0000;stroke:#ff0000;" x="626.501884" xlink:href="#m15a65f4a1d" y="409.3311"/>
     <use style="fill:#ff0000;stroke:#ff0000;" x="657.718667" xlink:href="#m15a65f4a1d" y="407.122381"/>
     <use style="fill:#ff0000;stroke:#ff0000;" x="688.93545" xlink:href="#m15a65f4a1d" y="399.082643"/>
     <use style="fill:#ff0000;stroke:#ff0000;" x="720.152233" xlink:href="#m15a65f4a1d" y="389.894372"/>
     <use style="fill:#ff0000;stroke:#ff0000;" x="751.369017" xlink:href="#m15a65f4a1d" y="379.685182"/>
     <use style="fill:#ff0000;stroke:#ff0000;" x="782.5858" xlink:href="#m15a65f4a1d" y="369.795029"/>
     <use style="fill:#ff0000;stroke:#ff0000;" x="813.802583" xlink:href="#m15a65f4a1d" y="360.360644"/>
     <use style="fill:#ff0000;stroke:#ff0000;" x="845.019366" xlink:href="#m15a65f4a1d" y="347.234542"/>
     <use style="fill:#ff0000;stroke:#ff0000;" x="876.236149" xlink:href="#m15a65f4a1d" y="336.296124"/>
     <use style="fill:#ff0000;stroke:#ff0000;" x="907.452933" xlink:href="#m15a65f4a1d" y="322.896562"/>
     <use style="fill:#ff0000;stroke:#ff0000;" x="938.669716" xlink:href="#m15a65f4a1d" y="309.497"/>
     <use style="fill:#ff0000;stroke:#ff0000;" x="969.886499" xlink:href="#m15a65f4a1d" y="298.011661"/>
     <use style="fill:#ff0000;stroke:#ff0000;" x="1001.103282" xlink:href="#m15a65f4a1d" y="281.932187"/>
     <use style="fill:#ff0000;stroke:#ff0000;" x="1032.320066" xlink:href="#m15a65f4a1d" y="269.298314"/>
     <use style="fill:#ff0000;stroke:#ff0000;" x="1063.536849" xlink:href="#m15a65f4a1d" y="254.94164"/>
     <use style="fill:#ff0000;stroke:#ff0000;" x="1094.753632" xlink:href="#m15a65f4a1d" y="231.970962"/>
     <use style="fill:#ff0000;stroke:#ff0000;" x="1125.970415" xlink:href="#m15a65f4a1d" y="213.785843"/>
     <use style="fill:#ff0000;stroke:#ff0000;" x="1157.187198" xlink:href="#m15a65f4a1d" y="179.329826"/>
     <use style="fill:#ff0000;stroke:#ff0000;" x="1188.403982" xlink:href="#m15a65f4a1d" y="160.187594"/>
     <use style="fill:#ff0000;stroke:#ff0000;" x="1219.620765" xlink:href="#m15a65f4a1d" y="144.873809"/>
     <use style="fill:#ff0000;stroke:#ff0000;" x="1250.837548" xlink:href="#m15a65f4a1d" y="121.903131"/>
     <use style="fill:#ff0000;stroke:#ff0000;" x="1282.054331" xlink:href="#m15a65f4a1d" y="98.932454"/>
     <use style="fill:#ff0000;stroke:#ff0000;" x="1313.271115" xlink:href="#m15a65f4a1d" y="85.532892"/>
     <use style="fill:#ff0000;stroke:#ff0000;" x="1344.487898" xlink:href="#m15a65f4a1d" y="62.562214"/>
    </g>
   </g>
   <g id="line2d_28">
    <path clip-path="url(#pe398890814)" d="M 127.033352 504.674255 
L 158.250135 504.183749 
L 189.466919 503.456237 
L 220.683702 502.414802 
L 251.900485 500.989691 
L 283.117268 499.161995 
L 314.334052 497.031049 
L 345.550835 494.755516 
L 376.767618 491.986273 
L 407.984401 488.95542 
L 439.201184 485.673895 
L 470.417968 482.032313 
L 501.634751 478.243133 
L 532.851534 475.512353 
L 564.068317 469.499652 
L 595.285101 463.113408 
L 626.501884 408.688563 
L 657.718667 407.644441 
L 688.93545 398.247346 
L 720.152233 388.745838 
L 751.369017 379.685182 
L 782.5858 368.359362 
L 813.802583 358.719881 
L 845.019366 347.234542 
L 876.236149 336.296124 
L 907.452933 324.810785 
L 938.669716 311.411223 
L 969.886499 298.011661 
L 1001.103282 284.229254 
L 1032.320066 269.298314 
L 1063.536849 254.94164 
L 1094.753632 231.970962 
L 1125.970415 217.614289 
L 1157.187198 179.329826 
L 1188.403982 164.016041 
L 1219.620765 141.045363 
L 1250.837548 118.074685 
L 1282.054331 102.7609 
L 1313.271115 85.532892 
L 1344.487898 62.562214 
" style="fill:none;stroke:#9900ff;stroke-linecap:square;stroke-width:1.5;"/>
    <defs>
     <path d="M -3 3 
L 3 -3 
M -3 -3 
L 3 3 
" id="m70e54d1d83" style="stroke:#9900ff;"/>
    </defs>
    <g clip-path="url(#pe398890814)">
     <use style="fill:#9900ff;stroke:#9900ff;" x="127.033352" xlink:href="#m70e54d1d83" y="504.674255"/>
     <use style="fill:#9900ff;stroke:#9900ff;" x="158.250135" xlink:href="#m70e54d1d83" y="504.183749"/>
     <use style="fill:#9900ff;stroke:#9900ff;" x="189.466919" xlink:href="#m70e54d1d83" y="503.456237"/>
     <use style="fill:#9900ff;stroke:#9900ff;" x="220.683702" xlink:href="#m70e54d1d83" y="502.414802"/>
     <use style="fill:#9900ff;stroke:#9900ff;" x="251.900485" xlink:href="#m70e54d1d83" y="500.989691"/>
     <use style="fill:#9900ff;stroke:#9900ff;" x="283.117268" xlink:href="#m70e54d1d83" y="499.161995"/>
     <use style="fill:#9900ff;stroke:#9900ff;" x="314.334052" xlink:href="#m70e54d1d83" y="497.031049"/>
     <use style="fill:#9900ff;stroke:#9900ff;" x="345.550835" xlink:href="#m70e54d1d83" y="494.755516"/>
     <use style="fill:#9900ff;stroke:#9900ff;" x="376.767618" xlink:href="#m70e54d1d83" y="491.986273"/>
     <use style="fill:#9900ff;stroke:#9900ff;" x="407.984401" xlink:href="#m70e54d1d83" y="488.95542"/>
     <use style="fill:#9900ff;stroke:#9900ff;" x="439.201184" xlink:href="#m70e54d1d83" y="485.673895"/>
     <use style="fill:#9900ff;stroke:#9900ff;" x="470.417968" xlink:href="#m70e54d1d83" y="482.032313"/>
     <use style="fill:#9900ff;stroke:#9900ff;" x="501.634751" xlink:href="#m70e54d1d83" y="478.243133"/>
     <use style="fill:#9900ff;stroke:#9900ff;" x="532.851534" xlink:href="#m70e54d1d83" y="475.512353"/>
     <use style="fill:#9900ff;stroke:#9900ff;" x="564.068317" xlink:href="#m70e54d1d83" y="469.499652"/>
     <use style="fill:#9900ff;stroke:#9900ff;" x="595.285101" xlink:href="#m70e54d1d83" y="463.113408"/>
     <use style="fill:#9900ff;stroke:#9900ff;" x="626.501884" xlink:href="#m70e54d1d83" y="408.688563"/>
     <use style="fill:#9900ff;stroke:#9900ff;" x="657.718667" xlink:href="#m70e54d1d83" y="407.644441"/>
     <use style="fill:#9900ff;stroke:#9900ff;" x="688.93545" xlink:href="#m70e54d1d83" y="398.247346"/>
     <use style="fill:#9900ff;stroke:#9900ff;" x="720.152233" xlink:href="#m70e54d1d83" y="388.745838"/>
     <use style="fill:#9900ff;stroke:#9900ff;" x="751.369017" xlink:href="#m70e54d1d83" y="379.685182"/>
     <use style="fill:#9900ff;stroke:#9900ff;" x="782.5858" xlink:href="#m70e54d1d83" y="368.359362"/>
     <use style="fill:#9900ff;stroke:#9900ff;" x="813.802583" xlink:href="#m70e54d1d83" y="358.719881"/>
     <use style="fill:#9900ff;stroke:#9900ff;" x="845.019366" xlink:href="#m70e54d1d83" y="347.234542"/>
     <use style="fill:#9900ff;stroke:#9900ff;" x="876.236149" xlink:href="#m70e54d1d83" y="336.296124"/>
     <use style="fill:#9900ff;stroke:#9900ff;" x="907.452933" xlink:href="#m70e54d1d83" y="324.810785"/>
     <use style="fill:#9900ff;stroke:#9900ff;" x="938.669716" xlink:href="#m70e54d1d83" y="311.411223"/>
     <use style="fill:#9900ff;stroke:#9900ff;" x="969.886499" xlink:href="#m70e54d1d83" y="298.011661"/>
     <use style="fill:#9900ff;stroke:#9900ff;" x="1001.103282" xlink:href="#m70e54d1d83" y="284.229254"/>
     <use style="fill:#9900ff;stroke:#9900ff;" x="1032.320066" xlink:href="#m70e54d1d83" y="269.298314"/>
     <use style="fill:#9900ff;stroke:#9900ff;" x="1063.536849" xlink:href="#m70e54d1d83" y="254.94164"/>
     <use style="fill:#9900ff;stroke:#9900ff;" x="1094.753632" xlink:href="#m70e54d1d83" y="231.970962"/>
     <use style="fill:#9900ff;stroke:#9900ff;" x="1125.970415" xlink:href="#m70e54d1d83" y="217.614289"/>
     <use style="fill:#9900ff;stroke:#9900ff;" x="1157.187198" xlink:href="#m70e54d1d83" y="179.329826"/>
     <use style="fill:#9900ff;stroke:#9900ff;" x="1188.403982" xlink:href="#m70e54d1d83" y="164.016041"/>
     <use style="fill:#9900ff;stroke:#9900ff;" x="1219.620765" xlink:href="#m70e54d1d83" y="141.045363"/>
     <use style="fill:#9900ff;stroke:#9900ff;" x="1250.837548" xlink:href="#m70e54d1d83" y="118.074685"/>
     <use style="fill:#9900ff;stroke:#9900ff;" x="1282.054331" xlink:href="#m70e54d1d83" y="102.7609"/>
     <use style="fill:#9900ff;stroke:#9900ff;" x="1313.271115" xlink:href="#m70e54d1d83" y="85.532892"/>
     <use style="fill:#9900ff;stroke:#9900ff;" x="1344.487898" xlink:href="#m70e54d1d83" y="62.562214"/>
    </g>
   </g>
   <g id="patch_3">
    <path d="M 66.160625 527.356875 
L 66.160625 28.396875 
" style="fill:none;stroke:#000000;stroke-linecap:square;stroke-linejoin:miter;stroke-width:0.8;"/>
   </g>
   <g id="patch_4">
    <path d="M 1405.360625 527.356875 
L 1405.360625 28.396875 
" style="fill:none;stroke:#000000;stroke-linecap:square;stroke-linejoin:miter;stroke-width:0.8;"/>
   </g>
   <g id="patch_5">
    <path d="M 66.160625 527.356875 
L 1405.360625 527.356875 
" style="fill:none;stroke:#000000;stroke-linecap:square;stroke-linejoin:miter;stroke-width:0.8;"/>
   </g>
   <g id="patch_6">
    <path d="M 66.160625 28.396875 
L 1405.360625 28.396875 
" style="fill:none;stroke:#000000;stroke-linecap:square;stroke-linejoin:miter;stroke-width:0.8;"/>
   </g>
   <g id="text_19">
    <!-- Different Implementations of convolve2D (channelFirst) -->
    <defs>
     <path d="M 19.671875 64.796875 
L 19.671875 8.109375 
L 31.59375 8.109375 
Q 46.6875 8.109375 53.6875 14.9375 
Q 60.6875 21.78125 60.6875 36.53125 
Q 60.6875 51.171875 53.6875 57.984375 
Q 46.6875 64.796875 31.59375 64.796875 
z
M 9.8125 72.90625 
L 30.078125 72.90625 
Q 51.265625 72.90625 61.171875 64.09375 
Q 71.09375 55.28125 71.09375 36.53125 
Q 71.09375 17.671875 61.125 8.828125 
Q 51.171875 0 30.078125 0 
L 9.8125 0 
z
" id="DejaVuSans-68"/>
     <path d="M 37.109375 75.984375 
L 37.109375 68.5 
L 28.515625 68.5 
Q 23.6875 68.5 21.796875 66.546875 
Q 19.921875 64.59375 19.921875 59.515625 
L 19.921875 54.6875 
L 34.71875 54.6875 
L 34.71875 47.703125 
L 19.921875 47.703125 
L 19.921875 0 
L 10.890625 0 
L 10.890625 47.703125 
L 2.296875 47.703125 
L 2.296875 54.6875 
L 10.890625 54.6875 
L 10.890625 58.5 
Q 10.890625 67.625 15.140625 71.796875 
Q 19.390625 75.984375 28.609375 75.984375 
z
" id="DejaVuSans-102"/>
     <path d="M 41.109375 46.296875 
Q 39.59375 47.171875 37.8125 47.578125 
Q 36.03125 48 33.890625 48 
Q 26.265625 48 22.1875 43.046875 
Q 18.109375 38.09375 18.109375 28.8125 
L 18.109375 0 
L 9.078125 0 
L 9.078125 54.6875 
L 18.109375 54.6875 
L 18.109375 46.1875 
Q 20.953125 51.171875 25.484375 53.578125 
Q 30.03125 56 36.53125 56 
Q 37.453125 56 38.578125 55.875 
Q 39.703125 55.765625 41.0625 55.515625 
z
" id="DejaVuSans-114"/>
     <path d="M 18.3125 70.21875 
L 18.3125 54.6875 
L 36.8125 54.6875 
L 36.8125 47.703125 
L 18.3125 47.703125 
L 18.3125 18.015625 
Q 18.3125 11.328125 20.140625 9.421875 
Q 21.96875 7.515625 27.59375 7.515625 
L 36.8125 7.515625 
L 36.8125 0 
L 27.59375 0 
Q 17.1875 0 13.234375 3.875 
Q 9.28125 7.765625 9.28125 18.015625 
L 9.28125 47.703125 
L 2.6875 47.703125 
L 2.6875 54.6875 
L 9.28125 54.6875 
L 9.28125 70.21875 
z
" id="DejaVuSans-116"/>
     <path d="M 9.8125 72.90625 
L 19.671875 72.90625 
L 19.671875 0 
L 9.8125 0 
z
" id="DejaVuSans-73"/>
     <path d="M 18.109375 8.203125 
L 18.109375 -20.796875 
L 9.078125 -20.796875 
L 9.078125 54.6875 
L 18.109375 54.6875 
L 18.109375 46.390625 
Q 20.953125 51.265625 25.265625 53.625 
Q 29.59375 56 35.59375 56 
Q 45.5625 56 51.78125 48.09375 
Q 58.015625 40.1875 58.015625 27.296875 
Q 58.015625 14.40625 51.78125 6.484375 
Q 45.5625 -1.421875 35.59375 -1.421875 
Q 29.59375 -1.421875 25.265625 0.953125 
Q 20.953125 3.328125 18.109375 8.203125 
z
M 48.6875 27.296875 
Q 48.6875 37.203125 44.609375 42.84375 
Q 40.53125 48.484375 33.40625 48.484375 
Q 26.265625 48.484375 22.1875 42.84375 
Q 18.109375 37.203125 18.109375 27.296875 
Q 18.109375 17.390625 22.1875 11.75 
Q 26.265625 6.109375 33.40625 6.109375 
Q 40.53125 6.109375 44.609375 11.75 
Q 48.6875 17.390625 48.6875 27.296875 
z
" id="DejaVuSans-112"/>
     <path d="M 9.421875 75.984375 
L 18.40625 75.984375 
L 18.40625 0 
L 9.421875 0 
z
" id="DejaVuSans-108"/>
     <path d="M 34.28125 27.484375 
Q 23.390625 27.484375 19.1875 25 
Q 14.984375 22.515625 14.984375 16.5 
Q 14.984375 11.71875 18.140625 8.90625 
Q 21.296875 6.109375 26.703125 6.109375 
Q 34.1875 6.109375 38.703125 11.40625 
Q 43.21875 16.703125 43.21875 25.484375 
L 43.21875 27.484375 
z
M 52.203125 31.203125 
L 52.203125 0 
L 43.21875 0 
L 43.21875 8.296875 
Q 40.140625 3.328125 35.546875 0.953125 
Q 30.953125 -1.421875 24.3125 -1.421875 
Q 15.921875 -1.421875 10.953125 3.296875 
Q 6 8.015625 6 15.921875 
Q 6 25.140625 12.171875 29.828125 
Q 18.359375 34.515625 30.609375 34.515625 
L 43.21875 34.515625 
L 43.21875 35.40625 
Q 43.21875 41.609375 39.140625 45 
Q 35.0625 48.390625 27.6875 48.390625 
Q 23 48.390625 18.546875 47.265625 
Q 14.109375 46.140625 10.015625 43.890625 
L 10.015625 52.203125 
Q 14.9375 54.109375 19.578125 55.046875 
Q 24.21875 56 28.609375 56 
Q 40.484375 56 46.34375 49.84375 
Q 52.203125 43.703125 52.203125 31.203125 
z
" id="DejaVuSans-97"/>
     <path d="M 30.609375 48.390625 
Q 23.390625 48.390625 19.1875 42.75 
Q 14.984375 37.109375 14.984375 27.296875 
Q 14.984375 17.484375 19.15625 11.84375 
Q 23.34375 6.203125 30.609375 6.203125 
Q 37.796875 6.203125 41.984375 11.859375 
Q 46.1875 17.53125 46.1875 27.296875 
Q 46.1875 37.015625 41.984375 42.703125 
Q 37.796875 48.390625 30.609375 48.390625 
z
M 30.609375 56 
Q 42.328125 56 49.015625 48.375 
Q 55.71875 40.765625 55.71875 27.296875 
Q 55.71875 13.875 49.015625 6.21875 
Q 42.328125 -1.421875 30.609375 -1.421875 
Q 18.84375 -1.421875 12.171875 6.21875 
Q 5.515625 13.875 5.515625 27.296875 
Q 5.515625 40.765625 12.171875 48.375 
Q 18.84375 56 30.609375 56 
z
" id="DejaVuSans-111"/>
     <path d="M 48.78125 52.59375 
L 48.78125 44.1875 
Q 44.96875 46.296875 41.140625 47.34375 
Q 37.3125 48.390625 33.40625 48.390625 
Q 24.65625 48.390625 19.8125 42.84375 
Q 14.984375 37.3125 14.984375 27.296875 
Q 14.984375 17.28125 19.8125 11.734375 
Q 24.65625 6.203125 33.40625 6.203125 
Q 37.3125 6.203125 41.140625 7.25 
Q 44.96875 8.296875 48.78125 10.40625 
L 48.78125 2.09375 
Q 45.015625 0.34375 40.984375 -0.53125 
Q 36.96875 -1.421875 32.421875 -1.421875 
Q 20.0625 -1.421875 12.78125 6.34375 
Q 5.515625 14.109375 5.515625 27.296875 
Q 5.515625 40.671875 12.859375 48.328125 
Q 20.21875 56 33.015625 56 
Q 37.15625 56 41.109375 55.140625 
Q 45.0625 54.296875 48.78125 52.59375 
z
" id="DejaVuSans-99"/>
     <path d="M 2.984375 54.6875 
L 12.5 54.6875 
L 29.59375 8.796875 
L 46.6875 54.6875 
L 56.203125 54.6875 
L 35.6875 0 
L 23.484375 0 
z
" id="DejaVuSans-118"/>
     <path d="M 54.890625 33.015625 
L 54.890625 0 
L 45.90625 0 
L 45.90625 32.71875 
Q 45.90625 40.484375 42.875 44.328125 
Q 39.84375 48.1875 33.796875 48.1875 
Q 26.515625 48.1875 22.3125 43.546875 
Q 18.109375 38.921875 18.109375 30.90625 
L 18.109375 0 
L 9.078125 0 
L 9.078125 75.984375 
L 18.109375 75.984375 
L 18.109375 46.1875 
Q 21.34375 51.125 25.703125 53.5625 
Q 30.078125 56 35.796875 56 
Q 45.21875 56 50.046875 50.171875 
Q 54.890625 44.34375 54.890625 33.015625 
z
" id="DejaVuSans-104"/>
     <path d="M 9.8125 72.90625 
L 51.703125 72.90625 
L 51.703125 64.59375 
L 19.671875 64.59375 
L 19.671875 43.109375 
L 48.578125 43.109375 
L 48.578125 34.8125 
L 19.671875 34.8125 
L 19.671875 0 
L 9.8125 0 
z
" id="DejaVuSans-70"/>
    </defs>
    <g transform="translate(456.566875 22.396875)scale(0.2 -0.2)">
     <use xlink:href="#DejaVuSans-68"/>
     <use x="77.001953" xlink:href="#DejaVuSans-105"/>
     <use x="104.785156" xlink:href="#DejaVuSans-102"/>
     <use x="139.990234" xlink:href="#DejaVuSans-102"/>
     <use x="175.195312" xlink:href="#DejaVuSans-101"/>
     <use x="236.71875" xlink:href="#DejaVuSans-114"/>
     <use x="277.800781" xlink:href="#DejaVuSans-101"/>
     <use x="339.324219" xlink:href="#DejaVuSans-110"/>
     <use x="402.703125" xlink:href="#DejaVuSans-116"/>
     <use x="441.912109" xlink:href="#DejaVuSans-32"/>
     <use x="473.699219" xlink:href="#DejaVuSans-73"/>
     <use x="503.191406" xlink:href="#DejaVuSans-109"/>
     <use x="600.603516" xlink:href="#DejaVuSans-112"/>
     <use x="664.080078" xlink:href="#DejaVuSans-108"/>
     <use x="691.863281" xlink:href="#DejaVuSans-101"/>
     <use x="753.386719" xlink:href="#DejaVuSans-109"/>
     <use x="850.798828" xlink:href="#DejaVuSans-101"/>
     <use x="912.322266" xlink:href="#DejaVuSans-110"/>
     <use x="975.701172" xlink:href="#DejaVuSans-116"/>
     <use x="1014.910156" xlink:href="#DejaVuSans-97"/>
     <use x="1076.189453" xlink:href="#DejaVuSans-116"/>
     <use x="1115.398438" xlink:href="#DejaVuSans-105"/>
     <use x="1143.181641" xlink:href="#DejaVuSans-111"/>
     <use x="1204.363281" xlink:href="#DejaVuSans-110"/>
     <use x="1267.742188" xlink:href="#DejaVuSans-115"/>
     <use x="1319.841797" xlink:href="#DejaVuSans-32"/>
     <use x="1351.628906" xlink:href="#DejaVuSans-111"/>
     <use x="1412.810547" xlink:href="#DejaVuSans-102"/>
     <use x="1448.015625" xlink:href="#DejaVuSans-32"/>
     <use x="1479.802734" xlink:href="#DejaVuSans-99"/>
     <use x="1534.783203" xlink:href="#DejaVuSans-111"/>
     <use x="1595.964844" xlink:href="#DejaVuSans-110"/>
     <use x="1659.34375" xlink:href="#DejaVuSans-118"/>
     <use x="1718.523438" xlink:href="#DejaVuSans-111"/>
     <use x="1779.705078" xlink:href="#DejaVuSans-108"/>
     <use x="1807.488281" xlink:href="#DejaVuSans-118"/>
     <use x="1866.667969" xlink:href="#DejaVuSans-101"/>
     <use x="1928.191406" xlink:href="#DejaVuSans-50"/>
     <use x="1991.814453" xlink:href="#DejaVuSans-68"/>
     <use x="2068.816406" xlink:href="#DejaVuSans-32"/>
     <use x="2100.603516" xlink:href="#DejaVuSans-40"/>
     <use x="2139.617188" xlink:href="#DejaVuSans-99"/>
     <use x="2194.597656" xlink:href="#DejaVuSans-104"/>
     <use x="2257.976562" xlink:href="#DejaVuSans-97"/>
     <use x="2319.255859" xlink:href="#DejaVuSans-110"/>
     <use x="2382.634766" xlink:href="#DejaVuSans-110"/>
     <use x="2446.013672" xlink:href="#DejaVuSans-101"/>
     <use x="2507.537109" xlink:href="#DejaVuSans-108"/>
     <use x="2535.320312" xlink:href="#DejaVuSans-70"/>
     <use x="2592.730469" xlink:href="#DejaVuSans-105"/>
     <use x="2620.513672" xlink:href="#DejaVuSans-114"/>
     <use x="2661.626953" xlink:href="#DejaVuSans-115"/>
     <use x="2713.726562" xlink:href="#DejaVuSans-116"/>
     <use x="2752.935547" xlink:href="#DejaVuSans-41"/>
    </g>
   </g>
   <g id="legend_1">
    <g id="patch_7">
     <path d="M 74.560625 126.065625 
L 207.095 126.065625 
Q 209.495 126.065625 209.495 123.665625 
L 209.495 36.796875 
Q 209.495 34.396875 207.095 34.396875 
L 74.560625 34.396875 
Q 72.160625 34.396875 72.160625 36.796875 
L 72.160625 123.665625 
Q 72.160625 126.065625 74.560625 126.065625 
z
" style="fill:#ffffff;opacity:0.8;stroke:#cccccc;stroke-linejoin:miter;"/>
    </g>
    <g id="line2d_29">
     <path d="M 76.960625 44.115 
L 100.960625 44.115 
" style="fill:none;stroke:#55868c;stroke-linecap:square;stroke-width:1.5;"/>
    </g>
    <g id="line2d_30">
     <g>
      <use style="fill:#55868c;stroke:#55868c;" x="88.960625" xlink:href="#m75374b0a74" y="44.115"/>
     </g>
    </g>
    <g id="text_20">
     <!-- convolve2D V.1 -->
     <defs>
      <path d="M 28.609375 0 
L 0.78125 72.90625 
L 11.078125 72.90625 
L 34.1875 11.53125 
L 57.328125 72.90625 
L 67.578125 72.90625 
L 39.796875 0 
z
" id="DejaVuSans-86"/>
      <path d="M 10.6875 12.40625 
L 21 12.40625 
L 21 0 
L 10.6875 0 
z
" id="DejaVuSans-46"/>
     </defs>
     <g transform="translate(110.560625 48.315)scale(0.12 -0.12)">
      <use xlink:href="#DejaVuSans-99"/>
      <use x="54.980469" xlink:href="#DejaVuSans-111"/>
      <use x="116.162109" xlink:href="#DejaVuSans-110"/>
      <use x="179.541016" xlink:href="#DejaVuSans-118"/>
      <use x="238.720703" xlink:href="#DejaVuSans-111"/>
      <use x="299.902344" xlink:href="#DejaVuSans-108"/>
      <use x="327.685547" xlink:href="#DejaVuSans-118"/>
      <use x="386.865234" xlink:href="#DejaVuSans-101"/>
      <use x="448.388672" xlink:href="#DejaVuSans-50"/>
      <use x="512.011719" xlink:href="#DejaVuSans-68"/>
      <use x="589.013672" xlink:href="#DejaVuSans-32"/>
      <use x="620.800781" xlink:href="#DejaVuSans-86"/>
      <use x="689.021484" xlink:href="#DejaVuSans-46"/>
      <use x="720.808594" xlink:href="#DejaVuSans-49"/>
     </g>
    </g>
    <g id="line2d_31">
     <path d="M 76.960625 61.72875 
L 100.960625 61.72875 
" style="fill:none;stroke:#eec584;stroke-linecap:square;stroke-width:1.5;"/>
    </g>
    <g id="line2d_32">
     <g>
      <use style="fill:#eec584;stroke:#eec584;" x="88.960625" xlink:href="#m701abf8556" y="61.72875"/>
     </g>
    </g>
    <g id="text_21">
     <!-- convolve2D V.2 -->
     <g transform="translate(110.560625 65.92875)scale(0.12 -0.12)">
      <use xlink:href="#DejaVuSans-99"/>
      <use x="54.980469" xlink:href="#DejaVuSans-111"/>
      <use x="116.162109" xlink:href="#DejaVuSans-110"/>
      <use x="179.541016" xlink:href="#DejaVuSans-118"/>
      <use x="238.720703" xlink:href="#DejaVuSans-111"/>
      <use x="299.902344" xlink:href="#DejaVuSans-108"/>
      <use x="327.685547" xlink:href="#DejaVuSans-118"/>
      <use x="386.865234" xlink:href="#DejaVuSans-101"/>
      <use x="448.388672" xlink:href="#DejaVuSans-50"/>
      <use x="512.011719" xlink:href="#DejaVuSans-68"/>
      <use x="589.013672" xlink:href="#DejaVuSans-32"/>
      <use x="620.800781" xlink:href="#DejaVuSans-86"/>
      <use x="689.021484" xlink:href="#DejaVuSans-46"/>
      <use x="720.808594" xlink:href="#DejaVuSans-50"/>
     </g>
    </g>
    <g id="line2d_33">
     <path d="M 76.960625 79.3425 
L 100.960625 79.3425 
" style="fill:none;stroke:#ce4257;stroke-linecap:square;stroke-width:1.5;"/>
    </g>
    <g id="line2d_34">
     <g>
      <use style="fill:#ce4257;stroke:#ce4257;" x="88.960625" xlink:href="#me0ccf1d492" y="79.3425"/>
     </g>
    </g>
    <g id="text_22">
     <!-- convolve2D V.3 -->
     <g transform="translate(110.560625 83.5425)scale(0.12 -0.12)">
      <use xlink:href="#DejaVuSans-99"/>
      <use x="54.980469" xlink:href="#DejaVuSans-111"/>
      <use x="116.162109" xlink:href="#DejaVuSans-110"/>
      <use x="179.541016" xlink:href="#DejaVuSans-118"/>
      <use x="238.720703" xlink:href="#DejaVuSans-111"/>
      <use x="299.902344" xlink:href="#DejaVuSans-108"/>
      <use x="327.685547" xlink:href="#DejaVuSans-118"/>
      <use x="386.865234" xlink:href="#DejaVuSans-101"/>
      <use x="448.388672" xlink:href="#DejaVuSans-50"/>
      <use x="512.011719" xlink:href="#DejaVuSans-68"/>
      <use x="589.013672" xlink:href="#DejaVuSans-32"/>
      <use x="620.800781" xlink:href="#DejaVuSans-86"/>
      <use x="689.021484" xlink:href="#DejaVuSans-46"/>
      <use x="720.808594" xlink:href="#DejaVuSans-51"/>
     </g>
    </g>
    <g id="line2d_35">
     <path d="M 76.960625 96.95625 
L 100.960625 96.95625 
" style="fill:none;stroke:#ff0000;stroke-linecap:square;stroke-width:1.5;"/>
    </g>
    <g id="line2d_36">
     <g>
      <use style="fill:#ff0000;stroke:#ff0000;" x="88.960625" xlink:href="#m15a65f4a1d" y="96.95625"/>
     </g>
    </g>
    <g id="text_23">
     <!-- convolve2D V.4 -->
     <g transform="translate(110.560625 101.15625)scale(0.12 -0.12)">
      <use xlink:href="#DejaVuSans-99"/>
      <use x="54.980469" xlink:href="#DejaVuSans-111"/>
      <use x="116.162109" xlink:href="#DejaVuSans-110"/>
      <use x="179.541016" xlink:href="#DejaVuSans-118"/>
      <use x="238.720703" xlink:href="#DejaVuSans-111"/>
      <use x="299.902344" xlink:href="#DejaVuSans-108"/>
      <use x="327.685547" xlink:href="#DejaVuSans-118"/>
      <use x="386.865234" xlink:href="#DejaVuSans-101"/>
      <use x="448.388672" xlink:href="#DejaVuSans-50"/>
      <use x="512.011719" xlink:href="#DejaVuSans-68"/>
      <use x="589.013672" xlink:href="#DejaVuSans-32"/>
      <use x="620.800781" xlink:href="#DejaVuSans-86"/>
      <use x="689.021484" xlink:href="#DejaVuSans-46"/>
      <use x="720.808594" xlink:href="#DejaVuSans-52"/>
     </g>
    </g>
    <g id="line2d_37">
     <path d="M 76.960625 114.57 
L 100.960625 114.57 
" style="fill:none;stroke:#9900ff;stroke-linecap:square;stroke-width:1.5;"/>
    </g>
    <g id="line2d_38">
     <g>
      <use style="fill:#9900ff;stroke:#9900ff;" x="88.960625" xlink:href="#m70e54d1d83" y="114.57"/>
     </g>
    </g>
    <g id="text_24">
     <!-- convolve2D V.5 -->
     <g transform="translate(110.560625 118.77)scale(0.12 -0.12)">
      <use xlink:href="#DejaVuSans-99"/>
      <use x="54.980469" xlink:href="#DejaVuSans-111"/>
      <use x="116.162109" xlink:href="#DejaVuSans-110"/>
      <use x="179.541016" xlink:href="#DejaVuSans-118"/>
      <use x="238.720703" xlink:href="#DejaVuSans-111"/>
      <use x="299.902344" xlink:href="#DejaVuSans-108"/>
      <use x="327.685547" xlink:href="#DejaVuSans-118"/>
      <use x="386.865234" xlink:href="#DejaVuSans-101"/>
      <use x="448.388672" xlink:href="#DejaVuSans-50"/>
      <use x="512.011719" xlink:href="#DejaVuSans-68"/>
      <use x="589.013672" xlink:href="#DejaVuSans-32"/>
      <use x="620.800781" xlink:href="#DejaVuSans-86"/>
      <use x="689.021484" xlink:href="#DejaVuSans-46"/>
      <use x="720.808594" xlink:href="#DejaVuSans-53"/>
     </g>
    </g>
   </g>
  </g>
 </g>
 <defs>
  <clipPath id="pe398890814">
   <rect height="498.96" width="1339.2" x="66.160625" y="28.396875"/>
  </clipPath>
 </defs>
</svg>
