<?xml version="1.0" encoding="utf-8" standalone="no"?>
<!DOCTYPE svg PUBLIC "-//W3C//DTD SVG 1.1//EN"
  "http://www.w3.org/Graphics/SVG/1.1/DTD/svg11.dtd">
<!-- Created with matplotlib (https://matplotlib.org/) -->
<svg height="574.59125pt" version="1.1" viewBox="0 0 1422.740625 574.59125" width="1422.740625pt" xmlns="http://www.w3.org/2000/svg" xmlns:xlink="http://www.w3.org/1999/xlink">
 <defs>
  <style type="text/css">
*{stroke-linecap:butt;stroke-linejoin:round;}
  </style>
 </defs>
 <g id="figure_1">
  <g id="patch_1">
   <path d="M 0 574.59125 
L 1422.740625 574.59125 
L 1422.740625 0 
L 0 0 
z
" style="fill:#ffffff;"/>
  </g>
  <g id="axes_1">
   <g id="patch_2">
    <path d="M 76.340625 527.356875 
L 1415.540625 527.356875 
L 1415.540625 28.396875 
L 76.340625 28.396875 
z
" style="fill:#ffffff;"/>
   </g>
   <g id="matplotlib.axis_1">
    <g id="xtick_1">
     <g id="line2d_1">
      <defs>
       <path d="M 0 0 
L 0 3.5 
" id="mc00788d9f8" style="stroke:#000000;stroke-width:0.8;"/>
      </defs>
      <g>
       <use style="stroke:#000000;stroke-width:0.8;" x="233.328185" xlink:href="#mc00788d9f8" y="527.356875"/>
      </g>
     </g>
     <g id="text_1">
      <!-- 2.5 -->
      <defs>
       <path d="M 19.1875 8.296875 
L 53.609375 8.296875 
L 53.609375 0 
L 7.328125 0 
L 7.328125 8.296875 
Q 12.9375 14.109375 22.625 23.890625 
Q 32.328125 33.6875 34.8125 36.53125 
Q 39.546875 41.84375 41.421875 45.53125 
Q 43.3125 49.21875 43.3125 52.78125 
Q 43.3125 58.59375 39.234375 62.25 
Q 35.15625 65.921875 28.609375 65.921875 
Q 23.96875 65.921875 18.8125 64.3125 
Q 13.671875 62.703125 7.8125 59.421875 
L 7.8125 69.390625 
Q 13.765625 71.78125 18.9375 73 
Q 24.125 74.21875 28.421875 74.21875 
Q 39.75 74.21875 46.484375 68.546875 
Q 53.21875 62.890625 53.21875 53.421875 
Q 53.21875 48.921875 51.53125 44.890625 
Q 49.859375 40.875 45.40625 35.40625 
Q 44.1875 33.984375 37.640625 27.21875 
Q 31.109375 20.453125 19.1875 8.296875 
z
" id="DejaVuSans-50"/>
       <path d="M 10.6875 12.40625 
L 21 12.40625 
L 21 0 
L 10.6875 0 
z
" id="DejaVuSans-46"/>
       <path d="M 10.796875 72.90625 
L 49.515625 72.90625 
L 49.515625 64.59375 
L 19.828125 64.59375 
L 19.828125 46.734375 
Q 21.96875 47.46875 24.109375 47.828125 
Q 26.265625 48.1875 28.421875 48.1875 
Q 40.625 48.1875 47.75 41.5 
Q 54.890625 34.8125 54.890625 23.390625 
Q 54.890625 11.625 47.5625 5.09375 
Q 40.234375 -1.421875 26.90625 -1.421875 
Q 22.3125 -1.421875 17.546875 -0.640625 
Q 12.796875 0.140625 7.71875 1.703125 
L 7.71875 11.625 
Q 12.109375 9.234375 16.796875 8.0625 
Q 21.484375 6.890625 26.703125 6.890625 
Q 35.15625 6.890625 40.078125 11.328125 
Q 45.015625 15.765625 45.015625 23.390625 
Q 45.015625 31 40.078125 35.4375 
Q 35.15625 39.890625 26.703125 39.890625 
Q 22.75 39.890625 18.8125 39.015625 
Q 14.890625 38.140625 10.796875 36.28125 
z
" id="DejaVuSans-53"/>
      </defs>
      <g transform="translate(223.78631 543.475)scale(0.12 -0.12)">
       <use xlink:href="#DejaVuSans-50"/>
       <use x="63.623047" xlink:href="#DejaVuSans-46"/>
       <use x="95.410156" xlink:href="#DejaVuSans-53"/>
      </g>
     </g>
    </g>
    <g id="xtick_2">
     <g id="line2d_2">
      <g>
       <use style="stroke:#000000;stroke-width:0.8;" x="393.519572" xlink:href="#mc00788d9f8" y="527.356875"/>
      </g>
     </g>
     <g id="text_2">
      <!-- 5.0 -->
      <defs>
       <path d="M 31.78125 66.40625 
Q 24.171875 66.40625 20.328125 58.90625 
Q 16.5 51.421875 16.5 36.375 
Q 16.5 21.390625 20.328125 13.890625 
Q 24.171875 6.390625 31.78125 6.390625 
Q 39.453125 6.390625 43.28125 13.890625 
Q 47.125 21.390625 47.125 36.375 
Q 47.125 51.421875 43.28125 58.90625 
Q 39.453125 66.40625 31.78125 66.40625 
z
M 31.78125 74.21875 
Q 44.046875 74.21875 50.515625 64.515625 
Q 56.984375 54.828125 56.984375 36.375 
Q 56.984375 17.96875 50.515625 8.265625 
Q 44.046875 -1.421875 31.78125 -1.421875 
Q 19.53125 -1.421875 13.0625 8.265625 
Q 6.59375 17.96875 6.59375 36.375 
Q 6.59375 54.828125 13.0625 64.515625 
Q 19.53125 74.21875 31.78125 74.21875 
z
" id="DejaVuSans-48"/>
      </defs>
      <g transform="translate(383.977697 543.475)scale(0.12 -0.12)">
       <use xlink:href="#DejaVuSans-53"/>
       <use x="63.623047" xlink:href="#DejaVuSans-46"/>
       <use x="95.410156" xlink:href="#DejaVuSans-48"/>
      </g>
     </g>
    </g>
    <g id="xtick_3">
     <g id="line2d_3">
      <g>
       <use style="stroke:#000000;stroke-width:0.8;" x="553.71096" xlink:href="#mc00788d9f8" y="527.356875"/>
      </g>
     </g>
     <g id="text_3">
      <!-- 7.5 -->
      <defs>
       <path d="M 8.203125 72.90625 
L 55.078125 72.90625 
L 55.078125 68.703125 
L 28.609375 0 
L 18.3125 0 
L 43.21875 64.59375 
L 8.203125 64.59375 
z
" id="DejaVuSans-55"/>
      </defs>
      <g transform="translate(544.169085 543.475)scale(0.12 -0.12)">
       <use xlink:href="#DejaVuSans-55"/>
       <use x="63.623047" xlink:href="#DejaVuSans-46"/>
       <use x="95.410156" xlink:href="#DejaVuSans-53"/>
      </g>
     </g>
    </g>
    <g id="xtick_4">
     <g id="line2d_4">
      <g>
       <use style="stroke:#000000;stroke-width:0.8;" x="713.902347" xlink:href="#mc00788d9f8" y="527.356875"/>
      </g>
     </g>
     <g id="text_4">
      <!-- 10.0 -->
      <defs>
       <path d="M 12.40625 8.296875 
L 28.515625 8.296875 
L 28.515625 63.921875 
L 10.984375 60.40625 
L 10.984375 69.390625 
L 28.421875 72.90625 
L 38.28125 72.90625 
L 38.28125 8.296875 
L 54.390625 8.296875 
L 54.390625 0 
L 12.40625 0 
z
" id="DejaVuSans-49"/>
      </defs>
      <g transform="translate(700.542972 543.475)scale(0.12 -0.12)">
       <use xlink:href="#DejaVuSans-49"/>
       <use x="63.623047" xlink:href="#DejaVuSans-48"/>
       <use x="127.246094" xlink:href="#DejaVuSans-46"/>
       <use x="159.033203" xlink:href="#DejaVuSans-48"/>
      </g>
     </g>
    </g>
    <g id="xtick_5">
     <g id="line2d_5">
      <g>
       <use style="stroke:#000000;stroke-width:0.8;" x="874.093735" xlink:href="#mc00788d9f8" y="527.356875"/>
      </g>
     </g>
     <g id="text_5">
      <!-- 12.5 -->
      <g transform="translate(860.73436 543.475)scale(0.12 -0.12)">
       <use xlink:href="#DejaVuSans-49"/>
       <use x="63.623047" xlink:href="#DejaVuSans-50"/>
       <use x="127.246094" xlink:href="#DejaVuSans-46"/>
       <use x="159.033203" xlink:href="#DejaVuSans-53"/>
      </g>
     </g>
    </g>
    <g id="xtick_6">
     <g id="line2d_6">
      <g>
       <use style="stroke:#000000;stroke-width:0.8;" x="1034.285123" xlink:href="#mc00788d9f8" y="527.356875"/>
      </g>
     </g>
     <g id="text_6">
      <!-- 15.0 -->
      <g transform="translate(1020.925748 543.475)scale(0.12 -0.12)">
       <use xlink:href="#DejaVuSans-49"/>
       <use x="63.623047" xlink:href="#DejaVuSans-53"/>
       <use x="127.246094" xlink:href="#DejaVuSans-46"/>
       <use x="159.033203" xlink:href="#DejaVuSans-48"/>
      </g>
     </g>
    </g>
    <g id="xtick_7">
     <g id="line2d_7">
      <g>
       <use style="stroke:#000000;stroke-width:0.8;" x="1194.47651" xlink:href="#mc00788d9f8" y="527.356875"/>
      </g>
     </g>
     <g id="text_7">
      <!-- 17.5 -->
      <g transform="translate(1181.117135 543.475)scale(0.12 -0.12)">
       <use xlink:href="#DejaVuSans-49"/>
       <use x="63.623047" xlink:href="#DejaVuSans-55"/>
       <use x="127.246094" xlink:href="#DejaVuSans-46"/>
       <use x="159.033203" xlink:href="#DejaVuSans-53"/>
      </g>
     </g>
    </g>
    <g id="xtick_8">
     <g id="line2d_8">
      <g>
       <use style="stroke:#000000;stroke-width:0.8;" x="1354.667898" xlink:href="#mc00788d9f8" y="527.356875"/>
      </g>
     </g>
     <g id="text_8">
      <!-- 20.0 -->
      <g transform="translate(1341.308523 543.475)scale(0.12 -0.12)">
       <use xlink:href="#DejaVuSans-50"/>
       <use x="63.623047" xlink:href="#DejaVuSans-48"/>
       <use x="127.246094" xlink:href="#DejaVuSans-46"/>
       <use x="159.033203" xlink:href="#DejaVuSans-48"/>
      </g>
     </g>
    </g>
    <g id="text_9">
     <!-- Size S -->
     <defs>
      <path d="M 53.515625 70.515625 
L 53.515625 60.890625 
Q 47.90625 63.578125 42.921875 64.890625 
Q 37.9375 66.21875 33.296875 66.21875 
Q 25.25 66.21875 20.875 63.09375 
Q 16.5 59.96875 16.5 54.203125 
Q 16.5 49.359375 19.40625 46.890625 
Q 22.3125 44.4375 30.421875 42.921875 
L 36.375 41.703125 
Q 47.40625 39.59375 52.65625 34.296875 
Q 57.90625 29 57.90625 20.125 
Q 57.90625 9.515625 50.796875 4.046875 
Q 43.703125 -1.421875 29.984375 -1.421875 
Q 24.8125 -1.421875 18.96875 -0.25 
Q 13.140625 0.921875 6.890625 3.21875 
L 6.890625 13.375 
Q 12.890625 10.015625 18.65625 8.296875 
Q 24.421875 6.59375 29.984375 6.59375 
Q 38.421875 6.59375 43.015625 9.90625 
Q 47.609375 13.234375 47.609375 19.390625 
Q 47.609375 24.75 44.3125 27.78125 
Q 41.015625 30.8125 33.5 32.328125 
L 27.484375 33.5 
Q 16.453125 35.6875 11.515625 40.375 
Q 6.59375 45.0625 6.59375 53.421875 
Q 6.59375 63.09375 13.40625 68.65625 
Q 20.21875 74.21875 32.171875 74.21875 
Q 37.3125 74.21875 42.625 73.28125 
Q 47.953125 72.359375 53.515625 70.515625 
z
" id="DejaVuSans-83"/>
      <path d="M 9.421875 54.6875 
L 18.40625 54.6875 
L 18.40625 0 
L 9.421875 0 
z
M 9.421875 75.984375 
L 18.40625 75.984375 
L 18.40625 64.59375 
L 9.421875 64.59375 
z
" id="DejaVuSans-105"/>
      <path d="M 5.515625 54.6875 
L 48.1875 54.6875 
L 48.1875 46.484375 
L 14.40625 7.171875 
L 48.1875 7.171875 
L 48.1875 0 
L 4.296875 0 
L 4.296875 8.203125 
L 38.09375 47.515625 
L 5.515625 47.515625 
z
" id="DejaVuSans-122"/>
      <path d="M 56.203125 29.59375 
L 56.203125 25.203125 
L 14.890625 25.203125 
Q 15.484375 15.921875 20.484375 11.0625 
Q 25.484375 6.203125 34.421875 6.203125 
Q 39.59375 6.203125 44.453125 7.46875 
Q 49.3125 8.734375 54.109375 11.28125 
L 54.109375 2.78125 
Q 49.265625 0.734375 44.1875 -0.34375 
Q 39.109375 -1.421875 33.890625 -1.421875 
Q 20.796875 -1.421875 13.15625 6.1875 
Q 5.515625 13.8125 5.515625 26.8125 
Q 5.515625 40.234375 12.765625 48.109375 
Q 20.015625 56 32.328125 56 
Q 43.359375 56 49.78125 48.890625 
Q 56.203125 41.796875 56.203125 29.59375 
z
M 47.21875 32.234375 
Q 47.125 39.59375 43.09375 43.984375 
Q 39.0625 48.390625 32.421875 48.390625 
Q 24.90625 48.390625 20.390625 44.140625 
Q 15.875 39.890625 15.1875 32.171875 
z
" id="DejaVuSans-101"/>
      <path id="DejaVuSans-32"/>
     </defs>
     <g transform="translate(718.891406 563.647812)scale(0.18 -0.18)">
      <use xlink:href="#DejaVuSans-83"/>
      <use x="63.476562" xlink:href="#DejaVuSans-105"/>
      <use x="91.259766" xlink:href="#DejaVuSans-122"/>
      <use x="143.75" xlink:href="#DejaVuSans-101"/>
      <use x="205.273438" xlink:href="#DejaVuSans-32"/>
      <use x="237.060547" xlink:href="#DejaVuSans-83"/>
     </g>
    </g>
   </g>
   <g id="matplotlib.axis_2">
    <g id="ytick_1">
     <g id="line2d_9">
      <path clip-path="url(#pba545aa804)" d="M 76.340625 506.231257 
L 1415.540625 506.231257 
" style="fill:none;stroke:#b0b0b0;stroke-linecap:square;stroke-width:0.8;"/>
     </g>
     <g id="line2d_10">
      <defs>
       <path d="M 0 0 
L -3.5 0 
" id="m64a2b1bceb" style="stroke:#000000;stroke-width:0.8;"/>
      </defs>
      <g>
       <use style="stroke:#000000;stroke-width:0.8;" x="76.340625" xlink:href="#m64a2b1bceb" y="506.231257"/>
      </g>
     </g>
     <g id="text_10">
      <!-- 0 -->
      <g transform="translate(59.160625 512.310007)scale(0.16 -0.16)">
       <use xlink:href="#DejaVuSans-48"/>
      </g>
     </g>
    </g>
    <g id="ytick_2">
     <g id="line2d_11">
      <path clip-path="url(#pba545aa804)" d="M 76.340625 445.034029 
L 1415.540625 445.034029 
" style="fill:none;stroke:#b0b0b0;stroke-linecap:square;stroke-width:0.8;"/>
     </g>
     <g id="line2d_12">
      <g>
       <use style="stroke:#000000;stroke-width:0.8;" x="76.340625" xlink:href="#m64a2b1bceb" y="445.034029"/>
      </g>
     </g>
     <g id="text_11">
      <!-- 250 -->
      <g transform="translate(38.800625 451.112779)scale(0.16 -0.16)">
       <use xlink:href="#DejaVuSans-50"/>
       <use x="63.623047" xlink:href="#DejaVuSans-53"/>
       <use x="127.246094" xlink:href="#DejaVuSans-48"/>
      </g>
     </g>
    </g>
    <g id="ytick_3">
     <g id="line2d_13">
      <path clip-path="url(#pba545aa804)" d="M 76.340625 383.836801 
L 1415.540625 383.836801 
" style="fill:none;stroke:#b0b0b0;stroke-linecap:square;stroke-width:0.8;"/>
     </g>
     <g id="line2d_14">
      <g>
       <use style="stroke:#000000;stroke-width:0.8;" x="76.340625" xlink:href="#m64a2b1bceb" y="383.836801"/>
      </g>
     </g>
     <g id="text_12">
      <!-- 500 -->
      <g transform="translate(38.800625 389.915551)scale(0.16 -0.16)">
       <use xlink:href="#DejaVuSans-53"/>
       <use x="63.623047" xlink:href="#DejaVuSans-48"/>
       <use x="127.246094" xlink:href="#DejaVuSans-48"/>
      </g>
     </g>
    </g>
    <g id="ytick_4">
     <g id="line2d_15">
      <path clip-path="url(#pba545aa804)" d="M 76.340625 322.639573 
L 1415.540625 322.639573 
" style="fill:none;stroke:#b0b0b0;stroke-linecap:square;stroke-width:0.8;"/>
     </g>
     <g id="line2d_16">
      <g>
       <use style="stroke:#000000;stroke-width:0.8;" x="76.340625" xlink:href="#m64a2b1bceb" y="322.639573"/>
      </g>
     </g>
     <g id="text_13">
      <!-- 750 -->
      <g transform="translate(38.800625 328.718323)scale(0.16 -0.16)">
       <use xlink:href="#DejaVuSans-55"/>
       <use x="63.623047" xlink:href="#DejaVuSans-53"/>
       <use x="127.246094" xlink:href="#DejaVuSans-48"/>
      </g>
     </g>
    </g>
    <g id="ytick_5">
     <g id="line2d_17">
      <path clip-path="url(#pba545aa804)" d="M 76.340625 261.442346 
L 1415.540625 261.442346 
" style="fill:none;stroke:#b0b0b0;stroke-linecap:square;stroke-width:0.8;"/>
     </g>
     <g id="line2d_18">
      <g>
       <use style="stroke:#000000;stroke-width:0.8;" x="76.340625" xlink:href="#m64a2b1bceb" y="261.442346"/>
      </g>
     </g>
     <g id="text_14">
      <!-- 1000 -->
      <g transform="translate(28.620625 267.521096)scale(0.16 -0.16)">
       <use xlink:href="#DejaVuSans-49"/>
       <use x="63.623047" xlink:href="#DejaVuSans-48"/>
       <use x="127.246094" xlink:href="#DejaVuSans-48"/>
       <use x="190.869141" xlink:href="#DejaVuSans-48"/>
      </g>
     </g>
    </g>
    <g id="ytick_6">
     <g id="line2d_19">
      <path clip-path="url(#pba545aa804)" d="M 76.340625 200.245118 
L 1415.540625 200.245118 
" style="fill:none;stroke:#b0b0b0;stroke-linecap:square;stroke-width:0.8;"/>
     </g>
     <g id="line2d_20">
      <g>
       <use style="stroke:#000000;stroke-width:0.8;" x="76.340625" xlink:href="#m64a2b1bceb" y="200.245118"/>
      </g>
     </g>
     <g id="text_15">
      <!-- 1250 -->
      <g transform="translate(28.620625 206.323868)scale(0.16 -0.16)">
       <use xlink:href="#DejaVuSans-49"/>
       <use x="63.623047" xlink:href="#DejaVuSans-50"/>
       <use x="127.246094" xlink:href="#DejaVuSans-53"/>
       <use x="190.869141" xlink:href="#DejaVuSans-48"/>
      </g>
     </g>
    </g>
    <g id="ytick_7">
     <g id="line2d_21">
      <path clip-path="url(#pba545aa804)" d="M 76.340625 139.04789 
L 1415.540625 139.04789 
" style="fill:none;stroke:#b0b0b0;stroke-linecap:square;stroke-width:0.8;"/>
     </g>
     <g id="line2d_22">
      <g>
       <use style="stroke:#000000;stroke-width:0.8;" x="76.340625" xlink:href="#m64a2b1bceb" y="139.04789"/>
      </g>
     </g>
     <g id="text_16">
      <!-- 1500 -->
      <g transform="translate(28.620625 145.12664)scale(0.16 -0.16)">
       <use xlink:href="#DejaVuSans-49"/>
       <use x="63.623047" xlink:href="#DejaVuSans-53"/>
       <use x="127.246094" xlink:href="#DejaVuSans-48"/>
       <use x="190.869141" xlink:href="#DejaVuSans-48"/>
      </g>
     </g>
    </g>
    <g id="ytick_8">
     <g id="line2d_23">
      <path clip-path="url(#pba545aa804)" d="M 76.340625 77.850662 
L 1415.540625 77.850662 
" style="fill:none;stroke:#b0b0b0;stroke-linecap:square;stroke-width:0.8;"/>
     </g>
     <g id="line2d_24">
      <g>
       <use style="stroke:#000000;stroke-width:0.8;" x="76.340625" xlink:href="#m64a2b1bceb" y="77.850662"/>
      </g>
     </g>
     <g id="text_17">
      <!-- 1750 -->
      <g transform="translate(28.620625 83.929412)scale(0.16 -0.16)">
       <use xlink:href="#DejaVuSans-49"/>
       <use x="63.623047" xlink:href="#DejaVuSans-55"/>
       <use x="127.246094" xlink:href="#DejaVuSans-53"/>
       <use x="190.869141" xlink:href="#DejaVuSans-48"/>
      </g>
     </g>
    </g>
    <g id="text_18">
     <!-- Minimum Time (ms) -->
     <defs>
      <path d="M 9.8125 72.90625 
L 24.515625 72.90625 
L 43.109375 23.296875 
L 61.8125 72.90625 
L 76.515625 72.90625 
L 76.515625 0 
L 66.890625 0 
L 66.890625 64.015625 
L 48.09375 14.015625 
L 38.1875 14.015625 
L 19.390625 64.015625 
L 19.390625 0 
L 9.8125 0 
z
" id="DejaVuSans-77"/>
      <path d="M 54.890625 33.015625 
L 54.890625 0 
L 45.90625 0 
L 45.90625 32.71875 
Q 45.90625 40.484375 42.875 44.328125 
Q 39.84375 48.1875 33.796875 48.1875 
Q 26.515625 48.1875 22.3125 43.546875 
Q 18.109375 38.921875 18.109375 30.90625 
L 18.109375 0 
L 9.078125 0 
L 9.078125 54.6875 
L 18.109375 54.6875 
L 18.109375 46.1875 
Q 21.34375 51.125 25.703125 53.5625 
Q 30.078125 56 35.796875 56 
Q 45.21875 56 50.046875 50.171875 
Q 54.890625 44.34375 54.890625 33.015625 
z
" id="DejaVuSans-110"/>
      <path d="M 52 44.1875 
Q 55.375 50.25 60.0625 53.125 
Q 64.75 56 71.09375 56 
Q 79.640625 56 84.28125 50.015625 
Q 88.921875 44.046875 88.921875 33.015625 
L 88.921875 0 
L 79.890625 0 
L 79.890625 32.71875 
Q 79.890625 40.578125 77.09375 44.375 
Q 74.3125 48.1875 68.609375 48.1875 
Q 61.625 48.1875 57.5625 43.546875 
Q 53.515625 38.921875 53.515625 30.90625 
L 53.515625 0 
L 44.484375 0 
L 44.484375 32.71875 
Q 44.484375 40.625 41.703125 44.40625 
Q 38.921875 48.1875 33.109375 48.1875 
Q 26.21875 48.1875 22.15625 43.53125 
Q 18.109375 38.875 18.109375 30.90625 
L 18.109375 0 
L 9.078125 0 
L 9.078125 54.6875 
L 18.109375 54.6875 
L 18.109375 46.1875 
Q 21.1875 51.21875 25.484375 53.609375 
Q 29.78125 56 35.6875 56 
Q 41.65625 56 45.828125 52.96875 
Q 50 49.953125 52 44.1875 
z
" id="DejaVuSans-109"/>
      <path d="M 8.5 21.578125 
L 8.5 54.6875 
L 17.484375 54.6875 
L 17.484375 21.921875 
Q 17.484375 14.15625 20.5 10.265625 
Q 23.53125 6.390625 29.59375 6.390625 
Q 36.859375 6.390625 41.078125 11.03125 
Q 45.3125 15.671875 45.3125 23.6875 
L 45.3125 54.6875 
L 54.296875 54.6875 
L 54.296875 0 
L 45.3125 0 
L 45.3125 8.40625 
Q 42.046875 3.421875 37.71875 1 
Q 33.40625 -1.421875 27.6875 -1.421875 
Q 18.265625 -1.421875 13.375 4.4375 
Q 8.5 10.296875 8.5 21.578125 
z
M 31.109375 56 
z
" id="DejaVuSans-117"/>
      <path d="M -0.296875 72.90625 
L 61.375 72.90625 
L 61.375 64.59375 
L 35.5 64.59375 
L 35.5 0 
L 25.59375 0 
L 25.59375 64.59375 
L -0.296875 64.59375 
z
" id="DejaVuSans-84"/>
      <path d="M 31 75.875 
Q 24.46875 64.65625 21.28125 53.65625 
Q 18.109375 42.671875 18.109375 31.390625 
Q 18.109375 20.125 21.3125 9.0625 
Q 24.515625 -2 31 -13.1875 
L 23.1875 -13.1875 
Q 15.875 -1.703125 12.234375 9.375 
Q 8.59375 20.453125 8.59375 31.390625 
Q 8.59375 42.28125 12.203125 53.3125 
Q 15.828125 64.359375 23.1875 75.875 
z
" id="DejaVuSans-40"/>
      <path d="M 44.28125 53.078125 
L 44.28125 44.578125 
Q 40.484375 46.53125 36.375 47.5 
Q 32.28125 48.484375 27.875 48.484375 
Q 21.1875 48.484375 17.84375 46.4375 
Q 14.5 44.390625 14.5 40.28125 
Q 14.5 37.15625 16.890625 35.375 
Q 19.28125 33.59375 26.515625 31.984375 
L 29.59375 31.296875 
Q 39.15625 29.25 43.1875 25.515625 
Q 47.21875 21.78125 47.21875 15.09375 
Q 47.21875 7.46875 41.1875 3.015625 
Q 35.15625 -1.421875 24.609375 -1.421875 
Q 20.21875 -1.421875 15.453125 -0.5625 
Q 10.6875 0.296875 5.421875 2 
L 5.421875 11.28125 
Q 10.40625 8.6875 15.234375 7.390625 
Q 20.0625 6.109375 24.8125 6.109375 
Q 31.15625 6.109375 34.5625 8.28125 
Q 37.984375 10.453125 37.984375 14.40625 
Q 37.984375 18.0625 35.515625 20.015625 
Q 33.0625 21.96875 24.703125 23.78125 
L 21.578125 24.515625 
Q 13.234375 26.265625 9.515625 29.90625 
Q 5.8125 33.546875 5.8125 39.890625 
Q 5.8125 47.609375 11.28125 51.796875 
Q 16.75 56 26.8125 56 
Q 31.78125 56 36.171875 55.265625 
Q 40.578125 54.546875 44.28125 53.078125 
z
" id="DejaVuSans-115"/>
      <path d="M 8.015625 75.875 
L 15.828125 75.875 
Q 23.140625 64.359375 26.78125 53.3125 
Q 30.421875 42.28125 30.421875 31.390625 
Q 30.421875 20.453125 26.78125 9.375 
Q 23.140625 -1.703125 15.828125 -13.1875 
L 8.015625 -13.1875 
Q 14.5 -2 17.703125 9.0625 
Q 20.90625 20.125 20.90625 31.390625 
Q 20.90625 42.671875 17.703125 53.65625 
Q 14.5 64.65625 8.015625 75.875 
z
" id="DejaVuSans-41"/>
     </defs>
     <g transform="translate(20.877188 367.802344)rotate(-90)scale(0.18 -0.18)">
      <use xlink:href="#DejaVuSans-77"/>
      <use x="86.279297" xlink:href="#DejaVuSans-105"/>
      <use x="114.0625" xlink:href="#DejaVuSans-110"/>
      <use x="177.441406" xlink:href="#DejaVuSans-105"/>
      <use x="205.224609" xlink:href="#DejaVuSans-109"/>
      <use x="302.636719" xlink:href="#DejaVuSans-117"/>
      <use x="366.015625" xlink:href="#DejaVuSans-109"/>
      <use x="463.427734" xlink:href="#DejaVuSans-32"/>
      <use x="495.214844" xlink:href="#DejaVuSans-84"/>
      <use x="553.173828" xlink:href="#DejaVuSans-105"/>
      <use x="580.957031" xlink:href="#DejaVuSans-109"/>
      <use x="678.369141" xlink:href="#DejaVuSans-101"/>
      <use x="739.892578" xlink:href="#DejaVuSans-32"/>
      <use x="771.679688" xlink:href="#DejaVuSans-40"/>
      <use x="810.693359" xlink:href="#DejaVuSans-109"/>
      <use x="908.105469" xlink:href="#DejaVuSans-115"/>
      <use x="960.205078" xlink:href="#DejaVuSans-41"/>
     </g>
    </g>
   </g>
   <g id="line2d_25">
    <path clip-path="url(#pba545aa804)" d="M 137.213352 472.190299 
L 201.289907 470.957855 
L 265.366462 469.682912 
L 329.443017 468.40797 
L 393.519572 467.026783 
L 457.596127 465.858086 
L 521.672682 464.636266 
L 585.749237 463.611759 
L 649.825792 461.972547 
L 713.902347 460.87974 
L 777.978903 459.240528 
L 842.055458 458.694124 
L 906.132013 457.054913 
L 970.208568 455.871038 
L 1034.285123 454.869298 
L 1098.361678 453.321153 
L 1162.438233 452.683682 
L 1226.514788 451.40874 
L 1290.591343 450.133798 
L 1354.667898 448.858856 
" style="fill:none;stroke:#55868c;stroke-linecap:square;stroke-width:1.5;"/>
   </g>
   <g id="line2d_26">
    <path clip-path="url(#pba545aa804)" d="M 137.213352 477.692165 
L 201.289907 476.675777 
L 265.366462 475.632643 
L 329.443017 474.589508 
L 393.519572 473.082758 
L 457.596127 472.190299 
L 521.672682 471.042851 
L 585.749237 469.895403 
L 649.825792 468.40797 
L 713.902347 467.504886 
L 777.978903 466.548679 
L 842.055458 465.592473 
L 906.132013 463.680059 
L 970.208568 463.065355 
L 1034.285123 462.245749 
L 1098.361678 460.87974 
L 1162.438233 459.786932 
L 1226.514788 458.694124 
L 1290.591343 457.601317 
L 1354.667898 457.054913 
" style="fill:none;stroke:#55868c;stroke-dasharray:1.5,2.475;stroke-dashoffset:0;stroke-width:1.5;"/>
   </g>
   <g id="line2d_27">
    <path clip-path="url(#pba545aa804)" d="M 137.213352 472.572781 
L 201.289907 471.382835 
L 265.366462 470.107893 
L 329.443017 468.832951 
L 393.519572 467.558009 
L 457.596127 466.548679 
L 521.672682 465.114369 
L 585.749237 464.158163 
L 649.825792 462.723853 
L 713.902347 461.426143 
L 777.978903 460.333336 
L 842.055458 458.694124 
L 906.132013 457.054913 
L 970.208568 455.962105 
L 1034.285123 455.233567 
L 1098.361678 453.321153 
L 1162.438233 452.683682 
L 1226.514788 451.40874 
L 1290.591343 450.133798 
L 1354.667898 448.858856 
" style="fill:none;stroke:#eec584;stroke-linecap:square;stroke-width:1.5;"/>
   </g>
   <g id="line2d_28">
    <path clip-path="url(#pba545aa804)" d="M 137.213352 478.414335 
L 201.289907 476.809513 
L 265.366462 475.632643 
L 329.443017 474.589508 
L 393.519572 473.546374 
L 457.596127 472.572781 
L 521.672682 470.957855 
L 585.749237 470.277885 
L 649.825792 468.747955 
L 713.902347 467.504886 
L 777.978903 466.708047 
L 842.055458 465.592473 
L 906.132013 463.680059 
L 970.208568 462.723853 
L 1034.285123 461.767646 
L 1098.361678 460.87974 
L 1162.438233 459.786932 
L 1226.514788 458.694124 
L 1290.591343 457.601317 
L 1354.667898 457.054913 
" style="fill:none;stroke:#eec584;stroke-dasharray:1.5,2.475;stroke-dashoffset:0;stroke-width:1.5;"/>
   </g>
   <g id="line2d_29">
    <path clip-path="url(#pba545aa804)" d="M 137.213352 465.592473 
L 201.289907 464.158163 
L 265.366462 463.065355 
L 329.443017 461.426143 
L 393.519572 460.333336 
L 457.596127 459.240528 
L 521.672682 458.147721 
L 585.749237 456.508509 
L 649.825792 455.233567 
L 713.902347 453.958625 
L 777.978903 453.321153 
L 842.055458 451.40874 
L 906.132013 450.133798 
L 970.208568 448.858856 
L 1034.285123 448.221384 
L 1098.361678 446.308971 
L 1162.438233 445.6715 
L 1226.514788 444.269064 
L 1290.591343 443.504098 
L 1354.667898 441.974167 
" style="fill:none;stroke:#9900ff;stroke-linecap:square;stroke-width:1.5;"/>
   </g>
   <g id="line2d_30">
    <path clip-path="url(#pba545aa804)" d="M 137.213352 471.425333 
L 201.289907 470.277885 
L 265.366462 469.130437 
L 329.443017 468.40797 
L 393.519572 466.708047 
L 457.596127 465.592473 
L 521.672682 464.636266 
L 585.749237 463.611759 
L 649.825792 461.972547 
L 713.902347 460.87974 
L 777.978903 459.786932 
L 842.055458 459.240528 
L 906.132013 456.508509 
L 970.208568 456.508509 
L 1034.285123 455.233567 
L 1098.361678 453.958625 
L 1162.438233 452.683682 
L 1226.514788 452.046211 
L 1290.591343 450.771269 
L 1354.667898 450.771269 
" style="fill:none;stroke:#9900ff;stroke-dasharray:1.5,2.475;stroke-dashoffset:0;stroke-width:1.5;"/>
   </g>
   <g id="line2d_31">
    <path clip-path="url(#pba545aa804)" d="M 137.213352 504.676875 
L 201.289907 502.355432 
L 265.366462 483.009094 
L 329.443017 474.93722 
L 393.519572 470.532874 
L 457.596127 458.147721 
L 521.672682 442.484144 
L 585.749237 424.953688 
L 649.825792 404.235877 
L 713.902347 383.836801 
L 777.978903 358.975427 
L 842.055458 334.114053 
L 906.132013 305.427853 
L 970.208568 272.916826 
L 1034.285123 242.318212 
L 1098.361678 207.894771 
L 1162.438233 173.471331 
L 1226.514788 127.57341 
L 1290.591343 89.325142 
L 1354.667898 51.076875 
" style="fill:none;stroke:#ce4257;stroke-linecap:square;stroke-width:1.5;"/>
   </g>
   <g id="line2d_32">
    <path clip-path="url(#pba545aa804)" d="M 137.213352 504.578316 
L 201.289907 502.878631 
L 265.366462 483.792273 
L 329.443017 476.221078 
L 393.519572 472.232797 
L 457.596127 460.333336 
L 521.672682 446.308971 
L 585.749237 429.734722 
L 649.825792 412.523002 
L 713.902347 392.761397 
L 777.978903 368.537494 
L 842.055458 343.67612 
L 906.132013 318.814747 
L 970.208568 288.216133 
L 1034.285123 261.442346 
L 1098.361678 230.843732 
L 1162.438233 192.595464 
L 1226.514788 154.347197 
L 1290.591343 116.09893 
L 1354.667898 77.850662 
" style="fill:none;stroke:#ce4257;stroke-dasharray:1.5,2.475;stroke-dashoffset:0;stroke-width:1.5;"/>
   </g>
   <g id="patch_3">
    <path d="M 76.340625 527.356875 
L 76.340625 28.396875 
" style="fill:none;stroke:#000000;stroke-linecap:square;stroke-linejoin:miter;stroke-width:0.8;"/>
   </g>
   <g id="patch_4">
    <path d="M 1415.540625 527.356875 
L 1415.540625 28.396875 
" style="fill:none;stroke:#000000;stroke-linecap:square;stroke-linejoin:miter;stroke-width:0.8;"/>
   </g>
   <g id="patch_5">
    <path d="M 76.340625 527.356875 
L 1415.540625 527.356875 
" style="fill:none;stroke:#000000;stroke-linecap:square;stroke-linejoin:miter;stroke-width:0.8;"/>
   </g>
   <g id="patch_6">
    <path d="M 76.340625 28.396875 
L 1415.540625 28.396875 
" style="fill:none;stroke:#000000;stroke-linecap:square;stroke-linejoin:miter;stroke-width:0.8;"/>
   </g>
   <g id="text_19">
    <!-- SeparableConvolve Implementations vs Explicit Implementation -->
    <defs>
     <path d="M 18.109375 8.203125 
L 18.109375 -20.796875 
L 9.078125 -20.796875 
L 9.078125 54.6875 
L 18.109375 54.6875 
L 18.109375 46.390625 
Q 20.953125 51.265625 25.265625 53.625 
Q 29.59375 56 35.59375 56 
Q 45.5625 56 51.78125 48.09375 
Q 58.015625 40.1875 58.015625 27.296875 
Q 58.015625 14.40625 51.78125 6.484375 
Q 45.5625 -1.421875 35.59375 -1.421875 
Q 29.59375 -1.421875 25.265625 0.953125 
Q 20.953125 3.328125 18.109375 8.203125 
z
M 48.6875 27.296875 
Q 48.6875 37.203125 44.609375 42.84375 
Q 40.53125 48.484375 33.40625 48.484375 
Q 26.265625 48.484375 22.1875 42.84375 
Q 18.109375 37.203125 18.109375 27.296875 
Q 18.109375 17.390625 22.1875 11.75 
Q 26.265625 6.109375 33.40625 6.109375 
Q 40.53125 6.109375 44.609375 11.75 
Q 48.6875 17.390625 48.6875 27.296875 
z
" id="DejaVuSans-112"/>
     <path d="M 34.28125 27.484375 
Q 23.390625 27.484375 19.1875 25 
Q 14.984375 22.515625 14.984375 16.5 
Q 14.984375 11.71875 18.140625 8.90625 
Q 21.296875 6.109375 26.703125 6.109375 
Q 34.1875 6.109375 38.703125 11.40625 
Q 43.21875 16.703125 43.21875 25.484375 
L 43.21875 27.484375 
z
M 52.203125 31.203125 
L 52.203125 0 
L 43.21875 0 
L 43.21875 8.296875 
Q 40.140625 3.328125 35.546875 0.953125 
Q 30.953125 -1.421875 24.3125 -1.421875 
Q 15.921875 -1.421875 10.953125 3.296875 
Q 6 8.015625 6 15.921875 
Q 6 25.140625 12.171875 29.828125 
Q 18.359375 34.515625 30.609375 34.515625 
L 43.21875 34.515625 
L 43.21875 35.40625 
Q 43.21875 41.609375 39.140625 45 
Q 35.0625 48.390625 27.6875 48.390625 
Q 23 48.390625 18.546875 47.265625 
Q 14.109375 46.140625 10.015625 43.890625 
L 10.015625 52.203125 
Q 14.9375 54.109375 19.578125 55.046875 
Q 24.21875 56 28.609375 56 
Q 40.484375 56 46.34375 49.84375 
Q 52.203125 43.703125 52.203125 31.203125 
z
" id="DejaVuSans-97"/>
     <path d="M 41.109375 46.296875 
Q 39.59375 47.171875 37.8125 47.578125 
Q 36.03125 48 33.890625 48 
Q 26.265625 48 22.1875 43.046875 
Q 18.109375 38.09375 18.109375 28.8125 
L 18.109375 0 
L 9.078125 0 
L 9.078125 54.6875 
L 18.109375 54.6875 
L 18.109375 46.1875 
Q 20.953125 51.171875 25.484375 53.578125 
Q 30.03125 56 36.53125 56 
Q 37.453125 56 38.578125 55.875 
Q 39.703125 55.765625 41.0625 55.515625 
z
" id="DejaVuSans-114"/>
     <path d="M 48.6875 27.296875 
Q 48.6875 37.203125 44.609375 42.84375 
Q 40.53125 48.484375 33.40625 48.484375 
Q 26.265625 48.484375 22.1875 42.84375 
Q 18.109375 37.203125 18.109375 27.296875 
Q 18.109375 17.390625 22.1875 11.75 
Q 26.265625 6.109375 33.40625 6.109375 
Q 40.53125 6.109375 44.609375 11.75 
Q 48.6875 17.390625 48.6875 27.296875 
z
M 18.109375 46.390625 
Q 20.953125 51.265625 25.265625 53.625 
Q 29.59375 56 35.59375 56 
Q 45.5625 56 51.78125 48.09375 
Q 58.015625 40.1875 58.015625 27.296875 
Q 58.015625 14.40625 51.78125 6.484375 
Q 45.5625 -1.421875 35.59375 -1.421875 
Q 29.59375 -1.421875 25.265625 0.953125 
Q 20.953125 3.328125 18.109375 8.203125 
L 18.109375 0 
L 9.078125 0 
L 9.078125 75.984375 
L 18.109375 75.984375 
z
" id="DejaVuSans-98"/>
     <path d="M 9.421875 75.984375 
L 18.40625 75.984375 
L 18.40625 0 
L 9.421875 0 
z
" id="DejaVuSans-108"/>
     <path d="M 64.40625 67.28125 
L 64.40625 56.890625 
Q 59.421875 61.53125 53.78125 63.8125 
Q 48.140625 66.109375 41.796875 66.109375 
Q 29.296875 66.109375 22.65625 58.46875 
Q 16.015625 50.828125 16.015625 36.375 
Q 16.015625 21.96875 22.65625 14.328125 
Q 29.296875 6.6875 41.796875 6.6875 
Q 48.140625 6.6875 53.78125 8.984375 
Q 59.421875 11.28125 64.40625 15.921875 
L 64.40625 5.609375 
Q 59.234375 2.09375 53.4375 0.328125 
Q 47.65625 -1.421875 41.21875 -1.421875 
Q 24.65625 -1.421875 15.125 8.703125 
Q 5.609375 18.84375 5.609375 36.375 
Q 5.609375 53.953125 15.125 64.078125 
Q 24.65625 74.21875 41.21875 74.21875 
Q 47.75 74.21875 53.53125 72.484375 
Q 59.328125 70.75 64.40625 67.28125 
z
" id="DejaVuSans-67"/>
     <path d="M 30.609375 48.390625 
Q 23.390625 48.390625 19.1875 42.75 
Q 14.984375 37.109375 14.984375 27.296875 
Q 14.984375 17.484375 19.15625 11.84375 
Q 23.34375 6.203125 30.609375 6.203125 
Q 37.796875 6.203125 41.984375 11.859375 
Q 46.1875 17.53125 46.1875 27.296875 
Q 46.1875 37.015625 41.984375 42.703125 
Q 37.796875 48.390625 30.609375 48.390625 
z
M 30.609375 56 
Q 42.328125 56 49.015625 48.375 
Q 55.71875 40.765625 55.71875 27.296875 
Q 55.71875 13.875 49.015625 6.21875 
Q 42.328125 -1.421875 30.609375 -1.421875 
Q 18.84375 -1.421875 12.171875 6.21875 
Q 5.515625 13.875 5.515625 27.296875 
Q 5.515625 40.765625 12.171875 48.375 
Q 18.84375 56 30.609375 56 
z
" id="DejaVuSans-111"/>
     <path d="M 2.984375 54.6875 
L 12.5 54.6875 
L 29.59375 8.796875 
L 46.6875 54.6875 
L 56.203125 54.6875 
L 35.6875 0 
L 23.484375 0 
z
" id="DejaVuSans-118"/>
     <path d="M 9.8125 72.90625 
L 19.671875 72.90625 
L 19.671875 0 
L 9.8125 0 
z
" id="DejaVuSans-73"/>
     <path d="M 18.3125 70.21875 
L 18.3125 54.6875 
L 36.8125 54.6875 
L 36.8125 47.703125 
L 18.3125 47.703125 
L 18.3125 18.015625 
Q 18.3125 11.328125 20.140625 9.421875 
Q 21.96875 7.515625 27.59375 7.515625 
L 36.8125 7.515625 
L 36.8125 0 
L 27.59375 0 
Q 17.1875 0 13.234375 3.875 
Q 9.28125 7.765625 9.28125 18.015625 
L 9.28125 47.703125 
L 2.6875 47.703125 
L 2.6875 54.6875 
L 9.28125 54.6875 
L 9.28125 70.21875 
z
" id="DejaVuSans-116"/>
     <path d="M 9.8125 72.90625 
L 55.90625 72.90625 
L 55.90625 64.59375 
L 19.671875 64.59375 
L 19.671875 43.015625 
L 54.390625 43.015625 
L 54.390625 34.71875 
L 19.671875 34.71875 
L 19.671875 8.296875 
L 56.78125 8.296875 
L 56.78125 0 
L 9.8125 0 
z
" id="DejaVuSans-69"/>
     <path d="M 54.890625 54.6875 
L 35.109375 28.078125 
L 55.90625 0 
L 45.3125 0 
L 29.390625 21.484375 
L 13.484375 0 
L 2.875 0 
L 24.125 28.609375 
L 4.6875 54.6875 
L 15.28125 54.6875 
L 29.78125 35.203125 
L 44.28125 54.6875 
z
" id="DejaVuSans-120"/>
     <path d="M 48.78125 52.59375 
L 48.78125 44.1875 
Q 44.96875 46.296875 41.140625 47.34375 
Q 37.3125 48.390625 33.40625 48.390625 
Q 24.65625 48.390625 19.8125 42.84375 
Q 14.984375 37.3125 14.984375 27.296875 
Q 14.984375 17.28125 19.8125 11.734375 
Q 24.65625 6.203125 33.40625 6.203125 
Q 37.3125 6.203125 41.140625 7.25 
Q 44.96875 8.296875 48.78125 10.40625 
L 48.78125 2.09375 
Q 45.015625 0.34375 40.984375 -0.53125 
Q 36.96875 -1.421875 32.421875 -1.421875 
Q 20.0625 -1.421875 12.78125 6.34375 
Q 5.515625 14.109375 5.515625 27.296875 
Q 5.515625 40.671875 12.859375 48.328125 
Q 20.21875 56 33.015625 56 
Q 37.15625 56 41.109375 55.140625 
Q 45.0625 54.296875 48.78125 52.59375 
z
" id="DejaVuSans-99"/>
    </defs>
    <g transform="translate(424.91875 22.396875)scale(0.2 -0.2)">
     <use xlink:href="#DejaVuSans-83"/>
     <use x="63.476562" xlink:href="#DejaVuSans-101"/>
     <use x="125" xlink:href="#DejaVuSans-112"/>
     <use x="188.476562" xlink:href="#DejaVuSans-97"/>
     <use x="249.755859" xlink:href="#DejaVuSans-114"/>
     <use x="290.869141" xlink:href="#DejaVuSans-97"/>
     <use x="352.148438" xlink:href="#DejaVuSans-98"/>
     <use x="415.625" xlink:href="#DejaVuSans-108"/>
     <use x="443.408203" xlink:href="#DejaVuSans-101"/>
     <use x="504.931641" xlink:href="#DejaVuSans-67"/>
     <use x="574.755859" xlink:href="#DejaVuSans-111"/>
     <use x="635.9375" xlink:href="#DejaVuSans-110"/>
     <use x="699.316406" xlink:href="#DejaVuSans-118"/>
     <use x="758.496094" xlink:href="#DejaVuSans-111"/>
     <use x="819.677734" xlink:href="#DejaVuSans-108"/>
     <use x="847.460938" xlink:href="#DejaVuSans-118"/>
     <use x="906.640625" xlink:href="#DejaVuSans-101"/>
     <use x="968.164062" xlink:href="#DejaVuSans-32"/>
     <use x="999.951172" xlink:href="#DejaVuSans-73"/>
     <use x="1029.443359" xlink:href="#DejaVuSans-109"/>
     <use x="1126.855469" xlink:href="#DejaVuSans-112"/>
     <use x="1190.332031" xlink:href="#DejaVuSans-108"/>
     <use x="1218.115234" xlink:href="#DejaVuSans-101"/>
     <use x="1279.638672" xlink:href="#DejaVuSans-109"/>
     <use x="1377.050781" xlink:href="#DejaVuSans-101"/>
     <use x="1438.574219" xlink:href="#DejaVuSans-110"/>
     <use x="1501.953125" xlink:href="#DejaVuSans-116"/>
     <use x="1541.162109" xlink:href="#DejaVuSans-97"/>
     <use x="1602.441406" xlink:href="#DejaVuSans-116"/>
     <use x="1641.650391" xlink:href="#DejaVuSans-105"/>
     <use x="1669.433594" xlink:href="#DejaVuSans-111"/>
     <use x="1730.615234" xlink:href="#DejaVuSans-110"/>
     <use x="1793.994141" xlink:href="#DejaVuSans-115"/>
     <use x="1846.09375" xlink:href="#DejaVuSans-32"/>
     <use x="1877.880859" xlink:href="#DejaVuSans-118"/>
     <use x="1937.060547" xlink:href="#DejaVuSans-115"/>
     <use x="1989.160156" xlink:href="#DejaVuSans-32"/>
     <use x="2020.947266" xlink:href="#DejaVuSans-69"/>
     <use x="2084.130859" xlink:href="#DejaVuSans-120"/>
     <use x="2143.310547" xlink:href="#DejaVuSans-112"/>
     <use x="2206.787109" xlink:href="#DejaVuSans-108"/>
     <use x="2234.570312" xlink:href="#DejaVuSans-105"/>
     <use x="2262.353516" xlink:href="#DejaVuSans-99"/>
     <use x="2317.333984" xlink:href="#DejaVuSans-105"/>
     <use x="2345.117188" xlink:href="#DejaVuSans-116"/>
     <use x="2384.326172" xlink:href="#DejaVuSans-32"/>
     <use x="2416.113281" xlink:href="#DejaVuSans-73"/>
     <use x="2445.605469" xlink:href="#DejaVuSans-109"/>
     <use x="2543.017578" xlink:href="#DejaVuSans-112"/>
     <use x="2606.494141" xlink:href="#DejaVuSans-108"/>
     <use x="2634.277344" xlink:href="#DejaVuSans-101"/>
     <use x="2695.800781" xlink:href="#DejaVuSans-109"/>
     <use x="2793.212891" xlink:href="#DejaVuSans-101"/>
     <use x="2854.736328" xlink:href="#DejaVuSans-110"/>
     <use x="2918.115234" xlink:href="#DejaVuSans-116"/>
     <use x="2957.324219" xlink:href="#DejaVuSans-97"/>
     <use x="3018.603516" xlink:href="#DejaVuSans-116"/>
     <use x="3057.8125" xlink:href="#DejaVuSans-105"/>
     <use x="3085.595703" xlink:href="#DejaVuSans-111"/>
     <use x="3146.777344" xlink:href="#DejaVuSans-110"/>
    </g>
   </g>
   <g id="legend_1">
    <g id="patch_7">
     <path d="M 84.740625 178.906875 
L 387.53625 178.906875 
Q 389.93625 178.906875 389.93625 176.506875 
L 389.93625 36.796875 
Q 389.93625 34.396875 387.53625 34.396875 
L 84.740625 34.396875 
Q 82.340625 34.396875 82.340625 36.796875 
L 82.340625 176.506875 
Q 82.340625 178.906875 84.740625 178.906875 
z
" style="fill:#ffffff;opacity:0.8;stroke:#cccccc;stroke-linejoin:miter;"/>
    </g>
    <g id="line2d_33">
     <path d="M 87.140625 44.115 
L 111.140625 44.115 
" style="fill:none;stroke:#55868c;stroke-linecap:square;stroke-width:1.5;"/>
    </g>
    <g id="line2d_34"/>
    <g id="text_20">
     <!-- separableConvolve2D (Channel First) -->
     <defs>
      <path d="M 19.671875 64.796875 
L 19.671875 8.109375 
L 31.59375 8.109375 
Q 46.6875 8.109375 53.6875 14.9375 
Q 60.6875 21.78125 60.6875 36.53125 
Q 60.6875 51.171875 53.6875 57.984375 
Q 46.6875 64.796875 31.59375 64.796875 
z
M 9.8125 72.90625 
L 30.078125 72.90625 
Q 51.265625 72.90625 61.171875 64.09375 
Q 71.09375 55.28125 71.09375 36.53125 
Q 71.09375 17.671875 61.125 8.828125 
Q 51.171875 0 30.078125 0 
L 9.8125 0 
z
" id="DejaVuSans-68"/>
      <path d="M 54.890625 33.015625 
L 54.890625 0 
L 45.90625 0 
L 45.90625 32.71875 
Q 45.90625 40.484375 42.875 44.328125 
Q 39.84375 48.1875 33.796875 48.1875 
Q 26.515625 48.1875 22.3125 43.546875 
Q 18.109375 38.921875 18.109375 30.90625 
L 18.109375 0 
L 9.078125 0 
L 9.078125 75.984375 
L 18.109375 75.984375 
L 18.109375 46.1875 
Q 21.34375 51.125 25.703125 53.5625 
Q 30.078125 56 35.796875 56 
Q 45.21875 56 50.046875 50.171875 
Q 54.890625 44.34375 54.890625 33.015625 
z
" id="DejaVuSans-104"/>
      <path d="M 9.8125 72.90625 
L 51.703125 72.90625 
L 51.703125 64.59375 
L 19.671875 64.59375 
L 19.671875 43.109375 
L 48.578125 43.109375 
L 48.578125 34.8125 
L 19.671875 34.8125 
L 19.671875 0 
L 9.8125 0 
z
" id="DejaVuSans-70"/>
     </defs>
     <g transform="translate(120.740625 48.315)scale(0.12 -0.12)">
      <use xlink:href="#DejaVuSans-115"/>
      <use x="52.099609" xlink:href="#DejaVuSans-101"/>
      <use x="113.623047" xlink:href="#DejaVuSans-112"/>
      <use x="177.099609" xlink:href="#DejaVuSans-97"/>
      <use x="238.378906" xlink:href="#DejaVuSans-114"/>
      <use x="279.492188" xlink:href="#DejaVuSans-97"/>
      <use x="340.771484" xlink:href="#DejaVuSans-98"/>
      <use x="404.248047" xlink:href="#DejaVuSans-108"/>
      <use x="432.03125" xlink:href="#DejaVuSans-101"/>
      <use x="493.554688" xlink:href="#DejaVuSans-67"/>
      <use x="563.378906" xlink:href="#DejaVuSans-111"/>
      <use x="624.560547" xlink:href="#DejaVuSans-110"/>
      <use x="687.939453" xlink:href="#DejaVuSans-118"/>
      <use x="747.119141" xlink:href="#DejaVuSans-111"/>
      <use x="808.300781" xlink:href="#DejaVuSans-108"/>
      <use x="836.083984" xlink:href="#DejaVuSans-118"/>
      <use x="895.263672" xlink:href="#DejaVuSans-101"/>
      <use x="956.787109" xlink:href="#DejaVuSans-50"/>
      <use x="1020.410156" xlink:href="#DejaVuSans-68"/>
      <use x="1097.412109" xlink:href="#DejaVuSans-32"/>
      <use x="1129.199219" xlink:href="#DejaVuSans-40"/>
      <use x="1168.212891" xlink:href="#DejaVuSans-67"/>
      <use x="1238.037109" xlink:href="#DejaVuSans-104"/>
      <use x="1301.416016" xlink:href="#DejaVuSans-97"/>
      <use x="1362.695312" xlink:href="#DejaVuSans-110"/>
      <use x="1426.074219" xlink:href="#DejaVuSans-110"/>
      <use x="1489.453125" xlink:href="#DejaVuSans-101"/>
      <use x="1550.976562" xlink:href="#DejaVuSans-108"/>
      <use x="1578.759766" xlink:href="#DejaVuSans-32"/>
      <use x="1610.546875" xlink:href="#DejaVuSans-70"/>
      <use x="1660.816406" xlink:href="#DejaVuSans-105"/>
      <use x="1688.599609" xlink:href="#DejaVuSans-114"/>
      <use x="1729.712891" xlink:href="#DejaVuSans-115"/>
      <use x="1781.8125" xlink:href="#DejaVuSans-116"/>
      <use x="1821.021484" xlink:href="#DejaVuSans-41"/>
     </g>
    </g>
    <g id="line2d_35">
     <path d="M 87.140625 61.72875 
L 111.140625 61.72875 
" style="fill:none;stroke:#55868c;stroke-dasharray:1.5,2.475;stroke-dashoffset:0;stroke-width:1.5;"/>
    </g>
    <g id="line2d_36"/>
    <g id="text_21">
     <!-- separableConvolve2D (Channel Last) -->
     <defs>
      <path d="M 9.8125 72.90625 
L 19.671875 72.90625 
L 19.671875 8.296875 
L 55.171875 8.296875 
L 55.171875 0 
L 9.8125 0 
z
" id="DejaVuSans-76"/>
     </defs>
     <g transform="translate(120.740625 65.92875)scale(0.12 -0.12)">
      <use xlink:href="#DejaVuSans-115"/>
      <use x="52.099609" xlink:href="#DejaVuSans-101"/>
      <use x="113.623047" xlink:href="#DejaVuSans-112"/>
      <use x="177.099609" xlink:href="#DejaVuSans-97"/>
      <use x="238.378906" xlink:href="#DejaVuSans-114"/>
      <use x="279.492188" xlink:href="#DejaVuSans-97"/>
      <use x="340.771484" xlink:href="#DejaVuSans-98"/>
      <use x="404.248047" xlink:href="#DejaVuSans-108"/>
      <use x="432.03125" xlink:href="#DejaVuSans-101"/>
      <use x="493.554688" xlink:href="#DejaVuSans-67"/>
      <use x="563.378906" xlink:href="#DejaVuSans-111"/>
      <use x="624.560547" xlink:href="#DejaVuSans-110"/>
      <use x="687.939453" xlink:href="#DejaVuSans-118"/>
      <use x="747.119141" xlink:href="#DejaVuSans-111"/>
      <use x="808.300781" xlink:href="#DejaVuSans-108"/>
      <use x="836.083984" xlink:href="#DejaVuSans-118"/>
      <use x="895.263672" xlink:href="#DejaVuSans-101"/>
      <use x="956.787109" xlink:href="#DejaVuSans-50"/>
      <use x="1020.410156" xlink:href="#DejaVuSans-68"/>
      <use x="1097.412109" xlink:href="#DejaVuSans-32"/>
      <use x="1129.199219" xlink:href="#DejaVuSans-40"/>
      <use x="1168.212891" xlink:href="#DejaVuSans-67"/>
      <use x="1238.037109" xlink:href="#DejaVuSans-104"/>
      <use x="1301.416016" xlink:href="#DejaVuSans-97"/>
      <use x="1362.695312" xlink:href="#DejaVuSans-110"/>
      <use x="1426.074219" xlink:href="#DejaVuSans-110"/>
      <use x="1489.453125" xlink:href="#DejaVuSans-101"/>
      <use x="1550.976562" xlink:href="#DejaVuSans-108"/>
      <use x="1578.759766" xlink:href="#DejaVuSans-32"/>
      <use x="1610.546875" xlink:href="#DejaVuSans-76"/>
      <use x="1666.259766" xlink:href="#DejaVuSans-97"/>
      <use x="1727.539062" xlink:href="#DejaVuSans-115"/>
      <use x="1779.638672" xlink:href="#DejaVuSans-116"/>
      <use x="1818.847656" xlink:href="#DejaVuSans-41"/>
     </g>
    </g>
    <g id="line2d_37">
     <path d="M 87.140625 79.3425 
L 111.140625 79.3425 
" style="fill:none;stroke:#eec584;stroke-linecap:square;stroke-width:1.5;"/>
    </g>
    <g id="line2d_38"/>
    <g id="text_22">
     <!-- separableConvolveND [N=2] (Channel First) -->
     <defs>
      <path d="M 9.8125 72.90625 
L 23.09375 72.90625 
L 55.421875 11.921875 
L 55.421875 72.90625 
L 64.984375 72.90625 
L 64.984375 0 
L 51.703125 0 
L 19.390625 60.984375 
L 19.390625 0 
L 9.8125 0 
z
" id="DejaVuSans-78"/>
      <path d="M 8.59375 75.984375 
L 29.296875 75.984375 
L 29.296875 69 
L 17.578125 69 
L 17.578125 -6.203125 
L 29.296875 -6.203125 
L 29.296875 -13.1875 
L 8.59375 -13.1875 
z
" id="DejaVuSans-91"/>
      <path d="M 10.59375 45.40625 
L 73.1875 45.40625 
L 73.1875 37.203125 
L 10.59375 37.203125 
z
M 10.59375 25.484375 
L 73.1875 25.484375 
L 73.1875 17.1875 
L 10.59375 17.1875 
z
" id="DejaVuSans-61"/>
      <path d="M 30.421875 75.984375 
L 30.421875 -13.1875 
L 9.71875 -13.1875 
L 9.71875 -6.203125 
L 21.390625 -6.203125 
L 21.390625 69 
L 9.71875 69 
L 9.71875 75.984375 
z
" id="DejaVuSans-93"/>
     </defs>
     <g transform="translate(120.740625 83.5425)scale(0.12 -0.12)">
      <use xlink:href="#DejaVuSans-115"/>
      <use x="52.099609" xlink:href="#DejaVuSans-101"/>
      <use x="113.623047" xlink:href="#DejaVuSans-112"/>
      <use x="177.099609" xlink:href="#DejaVuSans-97"/>
      <use x="238.378906" xlink:href="#DejaVuSans-114"/>
      <use x="279.492188" xlink:href="#DejaVuSans-97"/>
      <use x="340.771484" xlink:href="#DejaVuSans-98"/>
      <use x="404.248047" xlink:href="#DejaVuSans-108"/>
      <use x="432.03125" xlink:href="#DejaVuSans-101"/>
      <use x="493.554688" xlink:href="#DejaVuSans-67"/>
      <use x="563.378906" xlink:href="#DejaVuSans-111"/>
      <use x="624.560547" xlink:href="#DejaVuSans-110"/>
      <use x="687.939453" xlink:href="#DejaVuSans-118"/>
      <use x="747.119141" xlink:href="#DejaVuSans-111"/>
      <use x="808.300781" xlink:href="#DejaVuSans-108"/>
      <use x="836.083984" xlink:href="#DejaVuSans-118"/>
      <use x="895.263672" xlink:href="#DejaVuSans-101"/>
      <use x="956.787109" xlink:href="#DejaVuSans-78"/>
      <use x="1031.591797" xlink:href="#DejaVuSans-68"/>
      <use x="1108.59375" xlink:href="#DejaVuSans-32"/>
      <use x="1140.380859" xlink:href="#DejaVuSans-91"/>
      <use x="1179.394531" xlink:href="#DejaVuSans-78"/>
      <use x="1254.199219" xlink:href="#DejaVuSans-61"/>
      <use x="1337.988281" xlink:href="#DejaVuSans-50"/>
      <use x="1401.611328" xlink:href="#DejaVuSans-93"/>
      <use x="1440.625" xlink:href="#DejaVuSans-32"/>
      <use x="1472.412109" xlink:href="#DejaVuSans-40"/>
      <use x="1511.425781" xlink:href="#DejaVuSans-67"/>
      <use x="1581.25" xlink:href="#DejaVuSans-104"/>
      <use x="1644.628906" xlink:href="#DejaVuSans-97"/>
      <use x="1705.908203" xlink:href="#DejaVuSans-110"/>
      <use x="1769.287109" xlink:href="#DejaVuSans-110"/>
      <use x="1832.666016" xlink:href="#DejaVuSans-101"/>
      <use x="1894.189453" xlink:href="#DejaVuSans-108"/>
      <use x="1921.972656" xlink:href="#DejaVuSans-32"/>
      <use x="1953.759766" xlink:href="#DejaVuSans-70"/>
      <use x="2004.029297" xlink:href="#DejaVuSans-105"/>
      <use x="2031.8125" xlink:href="#DejaVuSans-114"/>
      <use x="2072.925781" xlink:href="#DejaVuSans-115"/>
      <use x="2125.025391" xlink:href="#DejaVuSans-116"/>
      <use x="2164.234375" xlink:href="#DejaVuSans-41"/>
     </g>
    </g>
    <g id="line2d_39">
     <path d="M 87.140625 96.95625 
L 111.140625 96.95625 
" style="fill:none;stroke:#eec584;stroke-dasharray:1.5,2.475;stroke-dashoffset:0;stroke-width:1.5;"/>
    </g>
    <g id="line2d_40"/>
    <g id="text_23">
     <!-- separableConvolveND [N=2] (Channel Last) -->
     <g transform="translate(120.740625 101.15625)scale(0.12 -0.12)">
      <use xlink:href="#DejaVuSans-115"/>
      <use x="52.099609" xlink:href="#DejaVuSans-101"/>
      <use x="113.623047" xlink:href="#DejaVuSans-112"/>
      <use x="177.099609" xlink:href="#DejaVuSans-97"/>
      <use x="238.378906" xlink:href="#DejaVuSans-114"/>
      <use x="279.492188" xlink:href="#DejaVuSans-97"/>
      <use x="340.771484" xlink:href="#DejaVuSans-98"/>
      <use x="404.248047" xlink:href="#DejaVuSans-108"/>
      <use x="432.03125" xlink:href="#DejaVuSans-101"/>
      <use x="493.554688" xlink:href="#DejaVuSans-67"/>
      <use x="563.378906" xlink:href="#DejaVuSans-111"/>
      <use x="624.560547" xlink:href="#DejaVuSans-110"/>
      <use x="687.939453" xlink:href="#DejaVuSans-118"/>
      <use x="747.119141" xlink:href="#DejaVuSans-111"/>
      <use x="808.300781" xlink:href="#DejaVuSans-108"/>
      <use x="836.083984" xlink:href="#DejaVuSans-118"/>
      <use x="895.263672" xlink:href="#DejaVuSans-101"/>
      <use x="956.787109" xlink:href="#DejaVuSans-78"/>
      <use x="1031.591797" xlink:href="#DejaVuSans-68"/>
      <use x="1108.59375" xlink:href="#DejaVuSans-32"/>
      <use x="1140.380859" xlink:href="#DejaVuSans-91"/>
      <use x="1179.394531" xlink:href="#DejaVuSans-78"/>
      <use x="1254.199219" xlink:href="#DejaVuSans-61"/>
      <use x="1337.988281" xlink:href="#DejaVuSans-50"/>
      <use x="1401.611328" xlink:href="#DejaVuSans-93"/>
      <use x="1440.625" xlink:href="#DejaVuSans-32"/>
      <use x="1472.412109" xlink:href="#DejaVuSans-40"/>
      <use x="1511.425781" xlink:href="#DejaVuSans-67"/>
      <use x="1581.25" xlink:href="#DejaVuSans-104"/>
      <use x="1644.628906" xlink:href="#DejaVuSans-97"/>
      <use x="1705.908203" xlink:href="#DejaVuSans-110"/>
      <use x="1769.287109" xlink:href="#DejaVuSans-110"/>
      <use x="1832.666016" xlink:href="#DejaVuSans-101"/>
      <use x="1894.189453" xlink:href="#DejaVuSans-108"/>
      <use x="1921.972656" xlink:href="#DejaVuSans-32"/>
      <use x="1953.759766" xlink:href="#DejaVuSans-76"/>
      <use x="2009.472656" xlink:href="#DejaVuSans-97"/>
      <use x="2070.751953" xlink:href="#DejaVuSans-115"/>
      <use x="2122.851562" xlink:href="#DejaVuSans-116"/>
      <use x="2162.060547" xlink:href="#DejaVuSans-41"/>
     </g>
    </g>
    <g id="line2d_41">
     <path d="M 87.140625 114.57 
L 111.140625 114.57 
" style="fill:none;stroke:#9900ff;stroke-linecap:square;stroke-width:1.5;"/>
    </g>
    <g id="line2d_42"/>
    <g id="text_24">
     <!-- separableConvolve [N=2] (Channel First) -->
     <g transform="translate(120.740625 118.77)scale(0.12 -0.12)">
      <use xlink:href="#DejaVuSans-115"/>
      <use x="52.099609" xlink:href="#DejaVuSans-101"/>
      <use x="113.623047" xlink:href="#DejaVuSans-112"/>
      <use x="177.099609" xlink:href="#DejaVuSans-97"/>
      <use x="238.378906" xlink:href="#DejaVuSans-114"/>
      <use x="279.492188" xlink:href="#DejaVuSans-97"/>
      <use x="340.771484" xlink:href="#DejaVuSans-98"/>
      <use x="404.248047" xlink:href="#DejaVuSans-108"/>
      <use x="432.03125" xlink:href="#DejaVuSans-101"/>
      <use x="493.554688" xlink:href="#DejaVuSans-67"/>
      <use x="563.378906" xlink:href="#DejaVuSans-111"/>
      <use x="624.560547" xlink:href="#DejaVuSans-110"/>
      <use x="687.939453" xlink:href="#DejaVuSans-118"/>
      <use x="747.119141" xlink:href="#DejaVuSans-111"/>
      <use x="808.300781" xlink:href="#DejaVuSans-108"/>
      <use x="836.083984" xlink:href="#DejaVuSans-118"/>
      <use x="895.263672" xlink:href="#DejaVuSans-101"/>
      <use x="956.787109" xlink:href="#DejaVuSans-32"/>
      <use x="988.574219" xlink:href="#DejaVuSans-91"/>
      <use x="1027.587891" xlink:href="#DejaVuSans-78"/>
      <use x="1102.392578" xlink:href="#DejaVuSans-61"/>
      <use x="1186.181641" xlink:href="#DejaVuSans-50"/>
      <use x="1249.804688" xlink:href="#DejaVuSans-93"/>
      <use x="1288.818359" xlink:href="#DejaVuSans-32"/>
      <use x="1320.605469" xlink:href="#DejaVuSans-40"/>
      <use x="1359.619141" xlink:href="#DejaVuSans-67"/>
      <use x="1429.443359" xlink:href="#DejaVuSans-104"/>
      <use x="1492.822266" xlink:href="#DejaVuSans-97"/>
      <use x="1554.101562" xlink:href="#DejaVuSans-110"/>
      <use x="1617.480469" xlink:href="#DejaVuSans-110"/>
      <use x="1680.859375" xlink:href="#DejaVuSans-101"/>
      <use x="1742.382812" xlink:href="#DejaVuSans-108"/>
      <use x="1770.166016" xlink:href="#DejaVuSans-32"/>
      <use x="1801.953125" xlink:href="#DejaVuSans-70"/>
      <use x="1852.222656" xlink:href="#DejaVuSans-105"/>
      <use x="1880.005859" xlink:href="#DejaVuSans-114"/>
      <use x="1921.119141" xlink:href="#DejaVuSans-115"/>
      <use x="1973.21875" xlink:href="#DejaVuSans-116"/>
      <use x="2012.427734" xlink:href="#DejaVuSans-41"/>
     </g>
    </g>
    <g id="line2d_43">
     <path d="M 87.140625 132.18375 
L 111.140625 132.18375 
" style="fill:none;stroke:#9900ff;stroke-dasharray:1.5,2.475;stroke-dashoffset:0;stroke-width:1.5;"/>
    </g>
    <g id="line2d_44"/>
    <g id="text_25">
     <!-- separableConvolve [N=2] (Channel Last) -->
     <g transform="translate(120.740625 136.38375)scale(0.12 -0.12)">
      <use xlink:href="#DejaVuSans-115"/>
      <use x="52.099609" xlink:href="#DejaVuSans-101"/>
      <use x="113.623047" xlink:href="#DejaVuSans-112"/>
      <use x="177.099609" xlink:href="#DejaVuSans-97"/>
      <use x="238.378906" xlink:href="#DejaVuSans-114"/>
      <use x="279.492188" xlink:href="#DejaVuSans-97"/>
      <use x="340.771484" xlink:href="#DejaVuSans-98"/>
      <use x="404.248047" xlink:href="#DejaVuSans-108"/>
      <use x="432.03125" xlink:href="#DejaVuSans-101"/>
      <use x="493.554688" xlink:href="#DejaVuSans-67"/>
      <use x="563.378906" xlink:href="#DejaVuSans-111"/>
      <use x="624.560547" xlink:href="#DejaVuSans-110"/>
      <use x="687.939453" xlink:href="#DejaVuSans-118"/>
      <use x="747.119141" xlink:href="#DejaVuSans-111"/>
      <use x="808.300781" xlink:href="#DejaVuSans-108"/>
      <use x="836.083984" xlink:href="#DejaVuSans-118"/>
      <use x="895.263672" xlink:href="#DejaVuSans-101"/>
      <use x="956.787109" xlink:href="#DejaVuSans-32"/>
      <use x="988.574219" xlink:href="#DejaVuSans-91"/>
      <use x="1027.587891" xlink:href="#DejaVuSans-78"/>
      <use x="1102.392578" xlink:href="#DejaVuSans-61"/>
      <use x="1186.181641" xlink:href="#DejaVuSans-50"/>
      <use x="1249.804688" xlink:href="#DejaVuSans-93"/>
      <use x="1288.818359" xlink:href="#DejaVuSans-32"/>
      <use x="1320.605469" xlink:href="#DejaVuSans-40"/>
      <use x="1359.619141" xlink:href="#DejaVuSans-67"/>
      <use x="1429.443359" xlink:href="#DejaVuSans-104"/>
      <use x="1492.822266" xlink:href="#DejaVuSans-97"/>
      <use x="1554.101562" xlink:href="#DejaVuSans-110"/>
      <use x="1617.480469" xlink:href="#DejaVuSans-110"/>
      <use x="1680.859375" xlink:href="#DejaVuSans-101"/>
      <use x="1742.382812" xlink:href="#DejaVuSans-108"/>
      <use x="1770.166016" xlink:href="#DejaVuSans-32"/>
      <use x="1801.953125" xlink:href="#DejaVuSans-76"/>
      <use x="1857.666016" xlink:href="#DejaVuSans-97"/>
      <use x="1918.945312" xlink:href="#DejaVuSans-115"/>
      <use x="1971.044922" xlink:href="#DejaVuSans-116"/>
      <use x="2010.253906" xlink:href="#DejaVuSans-41"/>
     </g>
    </g>
    <g id="line2d_45">
     <path d="M 87.140625 149.7975 
L 111.140625 149.7975 
" style="fill:none;stroke:#ce4257;stroke-linecap:square;stroke-width:1.5;"/>
    </g>
    <g id="line2d_46"/>
    <g id="text_26">
     <!-- convolve2D (Channel First) -->
     <g transform="translate(120.740625 153.9975)scale(0.12 -0.12)">
      <use xlink:href="#DejaVuSans-99"/>
      <use x="54.980469" xlink:href="#DejaVuSans-111"/>
      <use x="116.162109" xlink:href="#DejaVuSans-110"/>
      <use x="179.541016" xlink:href="#DejaVuSans-118"/>
      <use x="238.720703" xlink:href="#DejaVuSans-111"/>
      <use x="299.902344" xlink:href="#DejaVuSans-108"/>
      <use x="327.685547" xlink:href="#DejaVuSans-118"/>
      <use x="386.865234" xlink:href="#DejaVuSans-101"/>
      <use x="448.388672" xlink:href="#DejaVuSans-50"/>
      <use x="512.011719" xlink:href="#DejaVuSans-68"/>
      <use x="589.013672" xlink:href="#DejaVuSans-32"/>
      <use x="620.800781" xlink:href="#DejaVuSans-40"/>
      <use x="659.814453" xlink:href="#DejaVuSans-67"/>
      <use x="729.638672" xlink:href="#DejaVuSans-104"/>
      <use x="793.017578" xlink:href="#DejaVuSans-97"/>
      <use x="854.296875" xlink:href="#DejaVuSans-110"/>
      <use x="917.675781" xlink:href="#DejaVuSans-110"/>
      <use x="981.054688" xlink:href="#DejaVuSans-101"/>
      <use x="1042.578125" xlink:href="#DejaVuSans-108"/>
      <use x="1070.361328" xlink:href="#DejaVuSans-32"/>
      <use x="1102.148438" xlink:href="#DejaVuSans-70"/>
      <use x="1152.417969" xlink:href="#DejaVuSans-105"/>
      <use x="1180.201172" xlink:href="#DejaVuSans-114"/>
      <use x="1221.314453" xlink:href="#DejaVuSans-115"/>
      <use x="1273.414062" xlink:href="#DejaVuSans-116"/>
      <use x="1312.623047" xlink:href="#DejaVuSans-41"/>
     </g>
    </g>
    <g id="line2d_47">
     <path d="M 87.140625 167.41125 
L 111.140625 167.41125 
" style="fill:none;stroke:#ce4257;stroke-dasharray:1.5,2.475;stroke-dashoffset:0;stroke-width:1.5;"/>
    </g>
    <g id="line2d_48"/>
    <g id="text_27">
     <!-- convolve2D (Channel Last) -->
     <g transform="translate(120.740625 171.61125)scale(0.12 -0.12)">
      <use xlink:href="#DejaVuSans-99"/>
      <use x="54.980469" xlink:href="#DejaVuSans-111"/>
      <use x="116.162109" xlink:href="#DejaVuSans-110"/>
      <use x="179.541016" xlink:href="#DejaVuSans-118"/>
      <use x="238.720703" xlink:href="#DejaVuSans-111"/>
      <use x="299.902344" xlink:href="#DejaVuSans-108"/>
      <use x="327.685547" xlink:href="#DejaVuSans-118"/>
      <use x="386.865234" xlink:href="#DejaVuSans-101"/>
      <use x="448.388672" xlink:href="#DejaVuSans-50"/>
      <use x="512.011719" xlink:href="#DejaVuSans-68"/>
      <use x="589.013672" xlink:href="#DejaVuSans-32"/>
      <use x="620.800781" xlink:href="#DejaVuSans-40"/>
      <use x="659.814453" xlink:href="#DejaVuSans-67"/>
      <use x="729.638672" xlink:href="#DejaVuSans-104"/>
      <use x="793.017578" xlink:href="#DejaVuSans-97"/>
      <use x="854.296875" xlink:href="#DejaVuSans-110"/>
      <use x="917.675781" xlink:href="#DejaVuSans-110"/>
      <use x="981.054688" xlink:href="#DejaVuSans-101"/>
      <use x="1042.578125" xlink:href="#DejaVuSans-108"/>
      <use x="1070.361328" xlink:href="#DejaVuSans-32"/>
      <use x="1102.148438" xlink:href="#DejaVuSans-76"/>
      <use x="1157.861328" xlink:href="#DejaVuSans-97"/>
      <use x="1219.140625" xlink:href="#DejaVuSans-115"/>
      <use x="1271.240234" xlink:href="#DejaVuSans-116"/>
      <use x="1310.449219" xlink:href="#DejaVuSans-41"/>
     </g>
    </g>
   </g>
  </g>
 </g>
 <defs>
  <clipPath id="pba545aa804">
   <rect height="498.96" width="1339.2" x="76.340625" y="28.396875"/>
  </clipPath>
 </defs>
</svg>
