<?xml version="1.0" encoding="utf-8" standalone="no"?>
<!DOCTYPE svg PUBLIC "-//W3C//DTD SVG 1.1//EN"
  "http://www.w3.org/Graphics/SVG/1.1/DTD/svg11.dtd">
<!-- Created with matplotlib (https://matplotlib.org/) -->
<svg height="574.59125pt" version="1.1" viewBox="0 0 1419.620625 574.59125" width="1419.620625pt" xmlns="http://www.w3.org/2000/svg" xmlns:xlink="http://www.w3.org/1999/xlink">
 <defs>
  <style type="text/css">
*{stroke-linecap:butt;stroke-linejoin:round;}
  </style>
 </defs>
 <g id="figure_1">
  <g id="patch_1">
   <path d="M 0 574.59125 
L 1419.620625 574.59125 
L 1419.620625 0 
L 0 0 
z
" style="fill:#ffffff;"/>
  </g>
  <g id="axes_1">
   <g id="patch_2">
    <path d="M 73.220625 527.356875 
L 1412.420625 527.356875 
L 1412.420625 28.396875 
L 73.220625 28.396875 
z
" style="fill:#ffffff;"/>
   </g>
   <g id="matplotlib.axis_1">
    <g id="xtick_1">
     <g id="line2d_1">
      <defs>
       <path d="M 0 0 
L 0 3.5 
" id="m5a5d0767be" style="stroke:#000000;stroke-width:0.8;"/>
      </defs>
      <g>
       <use style="stroke:#000000;stroke-width:0.8;" x="102.876569" xlink:href="#m5a5d0767be" y="527.356875"/>
      </g>
     </g>
     <g id="text_1">
      <!-- 0 -->
      <defs>
       <path d="M 31.78125 66.40625 
Q 24.171875 66.40625 20.328125 58.90625 
Q 16.5 51.421875 16.5 36.375 
Q 16.5 21.390625 20.328125 13.890625 
Q 24.171875 6.390625 31.78125 6.390625 
Q 39.453125 6.390625 43.28125 13.890625 
Q 47.125 21.390625 47.125 36.375 
Q 47.125 51.421875 43.28125 58.90625 
Q 39.453125 66.40625 31.78125 66.40625 
z
M 31.78125 74.21875 
Q 44.046875 74.21875 50.515625 64.515625 
Q 56.984375 54.828125 56.984375 36.375 
Q 56.984375 17.96875 50.515625 8.265625 
Q 44.046875 -1.421875 31.78125 -1.421875 
Q 19.53125 -1.421875 13.0625 8.265625 
Q 6.59375 17.96875 6.59375 36.375 
Q 6.59375 54.828125 13.0625 64.515625 
Q 19.53125 74.21875 31.78125 74.21875 
z
" id="DejaVuSans-48"/>
      </defs>
      <g transform="translate(99.059069 543.475)scale(0.12 -0.12)">
       <use xlink:href="#DejaVuSans-48"/>
      </g>
     </g>
    </g>
    <g id="xtick_2">
     <g id="line2d_2">
      <g>
       <use style="stroke:#000000;stroke-width:0.8;" x="258.960485" xlink:href="#m5a5d0767be" y="527.356875"/>
      </g>
     </g>
     <g id="text_2">
      <!-- 250 -->
      <defs>
       <path d="M 19.1875 8.296875 
L 53.609375 8.296875 
L 53.609375 0 
L 7.328125 0 
L 7.328125 8.296875 
Q 12.9375 14.109375 22.625 23.890625 
Q 32.328125 33.6875 34.8125 36.53125 
Q 39.546875 41.84375 41.421875 45.53125 
Q 43.3125 49.21875 43.3125 52.78125 
Q 43.3125 58.59375 39.234375 62.25 
Q 35.15625 65.921875 28.609375 65.921875 
Q 23.96875 65.921875 18.8125 64.3125 
Q 13.671875 62.703125 7.8125 59.421875 
L 7.8125 69.390625 
Q 13.765625 71.78125 18.9375 73 
Q 24.125 74.21875 28.421875 74.21875 
Q 39.75 74.21875 46.484375 68.546875 
Q 53.21875 62.890625 53.21875 53.421875 
Q 53.21875 48.921875 51.53125 44.890625 
Q 49.859375 40.875 45.40625 35.40625 
Q 44.1875 33.984375 37.640625 27.21875 
Q 31.109375 20.453125 19.1875 8.296875 
z
" id="DejaVuSans-50"/>
       <path d="M 10.796875 72.90625 
L 49.515625 72.90625 
L 49.515625 64.59375 
L 19.828125 64.59375 
L 19.828125 46.734375 
Q 21.96875 47.46875 24.109375 47.828125 
Q 26.265625 48.1875 28.421875 48.1875 
Q 40.625 48.1875 47.75 41.5 
Q 54.890625 34.8125 54.890625 23.390625 
Q 54.890625 11.625 47.5625 5.09375 
Q 40.234375 -1.421875 26.90625 -1.421875 
Q 22.3125 -1.421875 17.546875 -0.640625 
Q 12.796875 0.140625 7.71875 1.703125 
L 7.71875 11.625 
Q 12.109375 9.234375 16.796875 8.0625 
Q 21.484375 6.890625 26.703125 6.890625 
Q 35.15625 6.890625 40.078125 11.328125 
Q 45.015625 15.765625 45.015625 23.390625 
Q 45.015625 31 40.078125 35.4375 
Q 35.15625 39.890625 26.703125 39.890625 
Q 22.75 39.890625 18.8125 39.015625 
Q 14.890625 38.140625 10.796875 36.28125 
z
" id="DejaVuSans-53"/>
      </defs>
      <g transform="translate(247.507985 543.475)scale(0.12 -0.12)">
       <use xlink:href="#DejaVuSans-50"/>
       <use x="63.623047" xlink:href="#DejaVuSans-53"/>
       <use x="127.246094" xlink:href="#DejaVuSans-48"/>
      </g>
     </g>
    </g>
    <g id="xtick_3">
     <g id="line2d_3">
      <g>
       <use style="stroke:#000000;stroke-width:0.8;" x="415.044401" xlink:href="#m5a5d0767be" y="527.356875"/>
      </g>
     </g>
     <g id="text_3">
      <!-- 500 -->
      <g transform="translate(403.591901 543.475)scale(0.12 -0.12)">
       <use xlink:href="#DejaVuSans-53"/>
       <use x="63.623047" xlink:href="#DejaVuSans-48"/>
       <use x="127.246094" xlink:href="#DejaVuSans-48"/>
      </g>
     </g>
    </g>
    <g id="xtick_4">
     <g id="line2d_4">
      <g>
       <use style="stroke:#000000;stroke-width:0.8;" x="571.128317" xlink:href="#m5a5d0767be" y="527.356875"/>
      </g>
     </g>
     <g id="text_4">
      <!-- 750 -->
      <defs>
       <path d="M 8.203125 72.90625 
L 55.078125 72.90625 
L 55.078125 68.703125 
L 28.609375 0 
L 18.3125 0 
L 43.21875 64.59375 
L 8.203125 64.59375 
z
" id="DejaVuSans-55"/>
      </defs>
      <g transform="translate(559.675817 543.475)scale(0.12 -0.12)">
       <use xlink:href="#DejaVuSans-55"/>
       <use x="63.623047" xlink:href="#DejaVuSans-53"/>
       <use x="127.246094" xlink:href="#DejaVuSans-48"/>
      </g>
     </g>
    </g>
    <g id="xtick_5">
     <g id="line2d_5">
      <g>
       <use style="stroke:#000000;stroke-width:0.8;" x="727.212233" xlink:href="#m5a5d0767be" y="527.356875"/>
      </g>
     </g>
     <g id="text_5">
      <!-- 1000 -->
      <defs>
       <path d="M 12.40625 8.296875 
L 28.515625 8.296875 
L 28.515625 63.921875 
L 10.984375 60.40625 
L 10.984375 69.390625 
L 28.421875 72.90625 
L 38.28125 72.90625 
L 38.28125 8.296875 
L 54.390625 8.296875 
L 54.390625 0 
L 12.40625 0 
z
" id="DejaVuSans-49"/>
      </defs>
      <g transform="translate(711.942233 543.475)scale(0.12 -0.12)">
       <use xlink:href="#DejaVuSans-49"/>
       <use x="63.623047" xlink:href="#DejaVuSans-48"/>
       <use x="127.246094" xlink:href="#DejaVuSans-48"/>
       <use x="190.869141" xlink:href="#DejaVuSans-48"/>
      </g>
     </g>
    </g>
    <g id="xtick_6">
     <g id="line2d_6">
      <g>
       <use style="stroke:#000000;stroke-width:0.8;" x="883.296149" xlink:href="#m5a5d0767be" y="527.356875"/>
      </g>
     </g>
     <g id="text_6">
      <!-- 1250 -->
      <g transform="translate(868.026149 543.475)scale(0.12 -0.12)">
       <use xlink:href="#DejaVuSans-49"/>
       <use x="63.623047" xlink:href="#DejaVuSans-50"/>
       <use x="127.246094" xlink:href="#DejaVuSans-53"/>
       <use x="190.869141" xlink:href="#DejaVuSans-48"/>
      </g>
     </g>
    </g>
    <g id="xtick_7">
     <g id="line2d_7">
      <g>
       <use style="stroke:#000000;stroke-width:0.8;" x="1039.380066" xlink:href="#m5a5d0767be" y="527.356875"/>
      </g>
     </g>
     <g id="text_7">
      <!-- 1500 -->
      <g transform="translate(1024.110066 543.475)scale(0.12 -0.12)">
       <use xlink:href="#DejaVuSans-49"/>
       <use x="63.623047" xlink:href="#DejaVuSans-53"/>
       <use x="127.246094" xlink:href="#DejaVuSans-48"/>
       <use x="190.869141" xlink:href="#DejaVuSans-48"/>
      </g>
     </g>
    </g>
    <g id="xtick_8">
     <g id="line2d_8">
      <g>
       <use style="stroke:#000000;stroke-width:0.8;" x="1195.463982" xlink:href="#m5a5d0767be" y="527.356875"/>
      </g>
     </g>
     <g id="text_8">
      <!-- 1750 -->
      <g transform="translate(1180.193982 543.475)scale(0.12 -0.12)">
       <use xlink:href="#DejaVuSans-49"/>
       <use x="63.623047" xlink:href="#DejaVuSans-55"/>
       <use x="127.246094" xlink:href="#DejaVuSans-53"/>
       <use x="190.869141" xlink:href="#DejaVuSans-48"/>
      </g>
     </g>
    </g>
    <g id="xtick_9">
     <g id="line2d_9">
      <g>
       <use style="stroke:#000000;stroke-width:0.8;" x="1351.547898" xlink:href="#m5a5d0767be" y="527.356875"/>
      </g>
     </g>
     <g id="text_9">
      <!-- 2000 -->
      <g transform="translate(1336.277898 543.475)scale(0.12 -0.12)">
       <use xlink:href="#DejaVuSans-50"/>
       <use x="63.623047" xlink:href="#DejaVuSans-48"/>
       <use x="127.246094" xlink:href="#DejaVuSans-48"/>
       <use x="190.869141" xlink:href="#DejaVuSans-48"/>
      </g>
     </g>
    </g>
    <g id="text_10">
     <!-- Size S -->
     <defs>
      <path d="M 53.515625 70.515625 
L 53.515625 60.890625 
Q 47.90625 63.578125 42.921875 64.890625 
Q 37.9375 66.21875 33.296875 66.21875 
Q 25.25 66.21875 20.875 63.09375 
Q 16.5 59.96875 16.5 54.203125 
Q 16.5 49.359375 19.40625 46.890625 
Q 22.3125 44.4375 30.421875 42.921875 
L 36.375 41.703125 
Q 47.40625 39.59375 52.65625 34.296875 
Q 57.90625 29 57.90625 20.125 
Q 57.90625 9.515625 50.796875 4.046875 
Q 43.703125 -1.421875 29.984375 -1.421875 
Q 24.8125 -1.421875 18.96875 -0.25 
Q 13.140625 0.921875 6.890625 3.21875 
L 6.890625 13.375 
Q 12.890625 10.015625 18.65625 8.296875 
Q 24.421875 6.59375 29.984375 6.59375 
Q 38.421875 6.59375 43.015625 9.90625 
Q 47.609375 13.234375 47.609375 19.390625 
Q 47.609375 24.75 44.3125 27.78125 
Q 41.015625 30.8125 33.5 32.328125 
L 27.484375 33.5 
Q 16.453125 35.6875 11.515625 40.375 
Q 6.59375 45.0625 6.59375 53.421875 
Q 6.59375 63.09375 13.40625 68.65625 
Q 20.21875 74.21875 32.171875 74.21875 
Q 37.3125 74.21875 42.625 73.28125 
Q 47.953125 72.359375 53.515625 70.515625 
z
" id="DejaVuSans-83"/>
      <path d="M 9.421875 54.6875 
L 18.40625 54.6875 
L 18.40625 0 
L 9.421875 0 
z
M 9.421875 75.984375 
L 18.40625 75.984375 
L 18.40625 64.59375 
L 9.421875 64.59375 
z
" id="DejaVuSans-105"/>
      <path d="M 5.515625 54.6875 
L 48.1875 54.6875 
L 48.1875 46.484375 
L 14.40625 7.171875 
L 48.1875 7.171875 
L 48.1875 0 
L 4.296875 0 
L 4.296875 8.203125 
L 38.09375 47.515625 
L 5.515625 47.515625 
z
" id="DejaVuSans-122"/>
      <path d="M 56.203125 29.59375 
L 56.203125 25.203125 
L 14.890625 25.203125 
Q 15.484375 15.921875 20.484375 11.0625 
Q 25.484375 6.203125 34.421875 6.203125 
Q 39.59375 6.203125 44.453125 7.46875 
Q 49.3125 8.734375 54.109375 11.28125 
L 54.109375 2.78125 
Q 49.265625 0.734375 44.1875 -0.34375 
Q 39.109375 -1.421875 33.890625 -1.421875 
Q 20.796875 -1.421875 13.15625 6.1875 
Q 5.515625 13.8125 5.515625 26.8125 
Q 5.515625 40.234375 12.765625 48.109375 
Q 20.015625 56 32.328125 56 
Q 43.359375 56 49.78125 48.890625 
Q 56.203125 41.796875 56.203125 29.59375 
z
M 47.21875 32.234375 
Q 47.125 39.59375 43.09375 43.984375 
Q 39.0625 48.390625 32.421875 48.390625 
Q 24.90625 48.390625 20.390625 44.140625 
Q 15.875 39.890625 15.1875 32.171875 
z
" id="DejaVuSans-101"/>
      <path id="DejaVuSans-32"/>
     </defs>
     <g transform="translate(715.771406 563.647812)scale(0.18 -0.18)">
      <use xlink:href="#DejaVuSans-83"/>
      <use x="63.476562" xlink:href="#DejaVuSans-105"/>
      <use x="91.259766" xlink:href="#DejaVuSans-122"/>
      <use x="143.75" xlink:href="#DejaVuSans-101"/>
      <use x="205.273438" xlink:href="#DejaVuSans-32"/>
      <use x="237.060547" xlink:href="#DejaVuSans-83"/>
     </g>
    </g>
   </g>
   <g id="matplotlib.axis_2">
    <g id="ytick_1">
     <g id="line2d_10">
      <path clip-path="url(#pac1e9b5188)" d="M 73.220625 482.245425 
L 1412.420625 482.245425 
" style="fill:none;stroke:#b0b0b0;stroke-linecap:square;stroke-width:0.8;"/>
     </g>
     <g id="line2d_11">
      <defs>
       <path d="M 0 0 
L -3.5 0 
" id="ma0b035842e" style="stroke:#000000;stroke-width:0.8;"/>
      </defs>
      <g>
       <use style="stroke:#000000;stroke-width:0.8;" x="73.220625" xlink:href="#ma0b035842e" y="482.245425"/>
      </g>
     </g>
     <g id="text_11">
      <!-- $\mathdefault{10^{-1}}$ -->
      <defs>
       <path d="M 10.59375 35.5 
L 73.1875 35.5 
L 73.1875 27.203125 
L 10.59375 27.203125 
z
" id="DejaVuSans-8722"/>
      </defs>
      <g transform="translate(28.620625 488.324175)scale(0.16 -0.16)">
       <use transform="translate(0 0.684375)" xlink:href="#DejaVuSans-49"/>
       <use transform="translate(63.623047 0.684375)" xlink:href="#DejaVuSans-48"/>
       <use transform="translate(128.203125 38.965625)scale(0.7)" xlink:href="#DejaVuSans-8722"/>
       <use transform="translate(186.855469 38.965625)scale(0.7)" xlink:href="#DejaVuSans-49"/>
      </g>
     </g>
    </g>
    <g id="ytick_2">
     <g id="line2d_12">
      <path clip-path="url(#pac1e9b5188)" d="M 73.220625 367.986326 
L 1412.420625 367.986326 
" style="fill:none;stroke:#b0b0b0;stroke-linecap:square;stroke-width:0.8;"/>
     </g>
     <g id="line2d_13">
      <g>
       <use style="stroke:#000000;stroke-width:0.8;" x="73.220625" xlink:href="#ma0b035842e" y="367.986326"/>
      </g>
     </g>
     <g id="text_12">
      <!-- $\mathdefault{10^{0}}$ -->
      <g transform="translate(38.060625 374.065076)scale(0.16 -0.16)">
       <use transform="translate(0 0.765625)" xlink:href="#DejaVuSans-49"/>
       <use transform="translate(63.623047 0.765625)" xlink:href="#DejaVuSans-48"/>
       <use transform="translate(128.203125 39.046875)scale(0.7)" xlink:href="#DejaVuSans-48"/>
      </g>
     </g>
    </g>
    <g id="ytick_3">
     <g id="line2d_14">
      <path clip-path="url(#pac1e9b5188)" d="M 73.220625 253.727227 
L 1412.420625 253.727227 
" style="fill:none;stroke:#b0b0b0;stroke-linecap:square;stroke-width:0.8;"/>
     </g>
     <g id="line2d_15">
      <g>
       <use style="stroke:#000000;stroke-width:0.8;" x="73.220625" xlink:href="#ma0b035842e" y="253.727227"/>
      </g>
     </g>
     <g id="text_13">
      <!-- $\mathdefault{10^{1}}$ -->
      <g transform="translate(38.060625 259.805977)scale(0.16 -0.16)">
       <use transform="translate(0 0.684375)" xlink:href="#DejaVuSans-49"/>
       <use transform="translate(63.623047 0.684375)" xlink:href="#DejaVuSans-48"/>
       <use transform="translate(128.203125 38.965625)scale(0.7)" xlink:href="#DejaVuSans-49"/>
      </g>
     </g>
    </g>
    <g id="ytick_4">
     <g id="line2d_16">
      <path clip-path="url(#pac1e9b5188)" d="M 73.220625 139.468128 
L 1412.420625 139.468128 
" style="fill:none;stroke:#b0b0b0;stroke-linecap:square;stroke-width:0.8;"/>
     </g>
     <g id="line2d_17">
      <g>
       <use style="stroke:#000000;stroke-width:0.8;" x="73.220625" xlink:href="#ma0b035842e" y="139.468128"/>
      </g>
     </g>
     <g id="text_14">
      <!-- $\mathdefault{10^{2}}$ -->
      <g transform="translate(38.060625 145.546878)scale(0.16 -0.16)">
       <use transform="translate(0 0.765625)" xlink:href="#DejaVuSans-49"/>
       <use transform="translate(63.623047 0.765625)" xlink:href="#DejaVuSans-48"/>
       <use transform="translate(128.203125 39.046875)scale(0.7)" xlink:href="#DejaVuSans-50"/>
      </g>
     </g>
    </g>
    <g id="ytick_5">
     <g id="line2d_18">
      <defs>
       <path d="M 0 0 
L -2 0 
" id="mb5c8e309bd" style="stroke:#000000;stroke-width:0.6;"/>
      </defs>
      <g>
       <use style="stroke:#000000;stroke-width:0.6;" x="73.220625" xlink:href="#mb5c8e309bd" y="516.640841"/>
      </g>
     </g>
    </g>
    <g id="ytick_6">
     <g id="line2d_19">
      <g>
       <use style="stroke:#000000;stroke-width:0.6;" x="73.220625" xlink:href="#mb5c8e309bd" y="507.593663"/>
      </g>
     </g>
    </g>
    <g id="ytick_7">
     <g id="line2d_20">
      <g>
       <use style="stroke:#000000;stroke-width:0.6;" x="73.220625" xlink:href="#mb5c8e309bd" y="499.944384"/>
      </g>
     </g>
    </g>
    <g id="ytick_8">
     <g id="line2d_21">
      <g>
       <use style="stroke:#000000;stroke-width:0.6;" x="73.220625" xlink:href="#mb5c8e309bd" y="493.318276"/>
      </g>
     </g>
    </g>
    <g id="ytick_9">
     <g id="line2d_22">
      <g>
       <use style="stroke:#000000;stroke-width:0.6;" x="73.220625" xlink:href="#mb5c8e309bd" y="487.473635"/>
      </g>
     </g>
    </g>
    <g id="ytick_10">
     <g id="line2d_23">
      <g>
       <use style="stroke:#000000;stroke-width:0.6;" x="73.220625" xlink:href="#mb5c8e309bd" y="447.850009"/>
      </g>
     </g>
    </g>
    <g id="ytick_11">
     <g id="line2d_24">
      <g>
       <use style="stroke:#000000;stroke-width:0.6;" x="73.220625" xlink:href="#mb5c8e309bd" y="427.72998"/>
      </g>
     </g>
    </g>
    <g id="ytick_12">
     <g id="line2d_25">
      <g>
       <use style="stroke:#000000;stroke-width:0.6;" x="73.220625" xlink:href="#mb5c8e309bd" y="413.454593"/>
      </g>
     </g>
    </g>
    <g id="ytick_13">
     <g id="line2d_26">
      <g>
       <use style="stroke:#000000;stroke-width:0.6;" x="73.220625" xlink:href="#mb5c8e309bd" y="402.381742"/>
      </g>
     </g>
    </g>
    <g id="ytick_14">
     <g id="line2d_27">
      <g>
       <use style="stroke:#000000;stroke-width:0.6;" x="73.220625" xlink:href="#mb5c8e309bd" y="393.334564"/>
      </g>
     </g>
    </g>
    <g id="ytick_15">
     <g id="line2d_28">
      <g>
       <use style="stroke:#000000;stroke-width:0.6;" x="73.220625" xlink:href="#mb5c8e309bd" y="385.685284"/>
      </g>
     </g>
    </g>
    <g id="ytick_16">
     <g id="line2d_29">
      <g>
       <use style="stroke:#000000;stroke-width:0.6;" x="73.220625" xlink:href="#mb5c8e309bd" y="379.059177"/>
      </g>
     </g>
    </g>
    <g id="ytick_17">
     <g id="line2d_30">
      <g>
       <use style="stroke:#000000;stroke-width:0.6;" x="73.220625" xlink:href="#mb5c8e309bd" y="373.214536"/>
      </g>
     </g>
    </g>
    <g id="ytick_18">
     <g id="line2d_31">
      <g>
       <use style="stroke:#000000;stroke-width:0.6;" x="73.220625" xlink:href="#mb5c8e309bd" y="333.59091"/>
      </g>
     </g>
    </g>
    <g id="ytick_19">
     <g id="line2d_32">
      <g>
       <use style="stroke:#000000;stroke-width:0.6;" x="73.220625" xlink:href="#mb5c8e309bd" y="313.470881"/>
      </g>
     </g>
    </g>
    <g id="ytick_20">
     <g id="line2d_33">
      <g>
       <use style="stroke:#000000;stroke-width:0.6;" x="73.220625" xlink:href="#mb5c8e309bd" y="299.195494"/>
      </g>
     </g>
    </g>
    <g id="ytick_21">
     <g id="line2d_34">
      <g>
       <use style="stroke:#000000;stroke-width:0.6;" x="73.220625" xlink:href="#mb5c8e309bd" y="288.122643"/>
      </g>
     </g>
    </g>
    <g id="ytick_22">
     <g id="line2d_35">
      <g>
       <use style="stroke:#000000;stroke-width:0.6;" x="73.220625" xlink:href="#mb5c8e309bd" y="279.075465"/>
      </g>
     </g>
    </g>
    <g id="ytick_23">
     <g id="line2d_36">
      <g>
       <use style="stroke:#000000;stroke-width:0.6;" x="73.220625" xlink:href="#mb5c8e309bd" y="271.426185"/>
      </g>
     </g>
    </g>
    <g id="ytick_24">
     <g id="line2d_37">
      <g>
       <use style="stroke:#000000;stroke-width:0.6;" x="73.220625" xlink:href="#mb5c8e309bd" y="264.800078"/>
      </g>
     </g>
    </g>
    <g id="ytick_25">
     <g id="line2d_38">
      <g>
       <use style="stroke:#000000;stroke-width:0.6;" x="73.220625" xlink:href="#mb5c8e309bd" y="258.955437"/>
      </g>
     </g>
    </g>
    <g id="ytick_26">
     <g id="line2d_39">
      <g>
       <use style="stroke:#000000;stroke-width:0.6;" x="73.220625" xlink:href="#mb5c8e309bd" y="219.331811"/>
      </g>
     </g>
    </g>
    <g id="ytick_27">
     <g id="line2d_40">
      <g>
       <use style="stroke:#000000;stroke-width:0.6;" x="73.220625" xlink:href="#mb5c8e309bd" y="199.211782"/>
      </g>
     </g>
    </g>
    <g id="ytick_28">
     <g id="line2d_41">
      <g>
       <use style="stroke:#000000;stroke-width:0.6;" x="73.220625" xlink:href="#mb5c8e309bd" y="184.936395"/>
      </g>
     </g>
    </g>
    <g id="ytick_29">
     <g id="line2d_42">
      <g>
       <use style="stroke:#000000;stroke-width:0.6;" x="73.220625" xlink:href="#mb5c8e309bd" y="173.863544"/>
      </g>
     </g>
    </g>
    <g id="ytick_30">
     <g id="line2d_43">
      <g>
       <use style="stroke:#000000;stroke-width:0.6;" x="73.220625" xlink:href="#mb5c8e309bd" y="164.816366"/>
      </g>
     </g>
    </g>
    <g id="ytick_31">
     <g id="line2d_44">
      <g>
       <use style="stroke:#000000;stroke-width:0.6;" x="73.220625" xlink:href="#mb5c8e309bd" y="157.167086"/>
      </g>
     </g>
    </g>
    <g id="ytick_32">
     <g id="line2d_45">
      <g>
       <use style="stroke:#000000;stroke-width:0.6;" x="73.220625" xlink:href="#mb5c8e309bd" y="150.540979"/>
      </g>
     </g>
    </g>
    <g id="ytick_33">
     <g id="line2d_46">
      <g>
       <use style="stroke:#000000;stroke-width:0.6;" x="73.220625" xlink:href="#mb5c8e309bd" y="144.696338"/>
      </g>
     </g>
    </g>
    <g id="ytick_34">
     <g id="line2d_47">
      <g>
       <use style="stroke:#000000;stroke-width:0.6;" x="73.220625" xlink:href="#mb5c8e309bd" y="105.072712"/>
      </g>
     </g>
    </g>
    <g id="ytick_35">
     <g id="line2d_48">
      <g>
       <use style="stroke:#000000;stroke-width:0.6;" x="73.220625" xlink:href="#mb5c8e309bd" y="84.952683"/>
      </g>
     </g>
    </g>
    <g id="ytick_36">
     <g id="line2d_49">
      <g>
       <use style="stroke:#000000;stroke-width:0.6;" x="73.220625" xlink:href="#mb5c8e309bd" y="70.677296"/>
      </g>
     </g>
    </g>
    <g id="ytick_37">
     <g id="line2d_50">
      <g>
       <use style="stroke:#000000;stroke-width:0.6;" x="73.220625" xlink:href="#mb5c8e309bd" y="59.604445"/>
      </g>
     </g>
    </g>
    <g id="ytick_38">
     <g id="line2d_51">
      <g>
       <use style="stroke:#000000;stroke-width:0.6;" x="73.220625" xlink:href="#mb5c8e309bd" y="50.557267"/>
      </g>
     </g>
    </g>
    <g id="ytick_39">
     <g id="line2d_52">
      <g>
       <use style="stroke:#000000;stroke-width:0.6;" x="73.220625" xlink:href="#mb5c8e309bd" y="42.907987"/>
      </g>
     </g>
    </g>
    <g id="ytick_40">
     <g id="line2d_53">
      <g>
       <use style="stroke:#000000;stroke-width:0.6;" x="73.220625" xlink:href="#mb5c8e309bd" y="36.28188"/>
      </g>
     </g>
    </g>
    <g id="ytick_41">
     <g id="line2d_54">
      <g>
       <use style="stroke:#000000;stroke-width:0.6;" x="73.220625" xlink:href="#mb5c8e309bd" y="30.437239"/>
      </g>
     </g>
    </g>
    <g id="text_15">
     <!-- Minimum Time (ms) -->
     <defs>
      <path d="M 9.8125 72.90625 
L 24.515625 72.90625 
L 43.109375 23.296875 
L 61.8125 72.90625 
L 76.515625 72.90625 
L 76.515625 0 
L 66.890625 0 
L 66.890625 64.015625 
L 48.09375 14.015625 
L 38.1875 14.015625 
L 19.390625 64.015625 
L 19.390625 0 
L 9.8125 0 
z
" id="DejaVuSans-77"/>
      <path d="M 54.890625 33.015625 
L 54.890625 0 
L 45.90625 0 
L 45.90625 32.71875 
Q 45.90625 40.484375 42.875 44.328125 
Q 39.84375 48.1875 33.796875 48.1875 
Q 26.515625 48.1875 22.3125 43.546875 
Q 18.109375 38.921875 18.109375 30.90625 
L 18.109375 0 
L 9.078125 0 
L 9.078125 54.6875 
L 18.109375 54.6875 
L 18.109375 46.1875 
Q 21.34375 51.125 25.703125 53.5625 
Q 30.078125 56 35.796875 56 
Q 45.21875 56 50.046875 50.171875 
Q 54.890625 44.34375 54.890625 33.015625 
z
" id="DejaVuSans-110"/>
      <path d="M 52 44.1875 
Q 55.375 50.25 60.0625 53.125 
Q 64.75 56 71.09375 56 
Q 79.640625 56 84.28125 50.015625 
Q 88.921875 44.046875 88.921875 33.015625 
L 88.921875 0 
L 79.890625 0 
L 79.890625 32.71875 
Q 79.890625 40.578125 77.09375 44.375 
Q 74.3125 48.1875 68.609375 48.1875 
Q 61.625 48.1875 57.5625 43.546875 
Q 53.515625 38.921875 53.515625 30.90625 
L 53.515625 0 
L 44.484375 0 
L 44.484375 32.71875 
Q 44.484375 40.625 41.703125 44.40625 
Q 38.921875 48.1875 33.109375 48.1875 
Q 26.21875 48.1875 22.15625 43.53125 
Q 18.109375 38.875 18.109375 30.90625 
L 18.109375 0 
L 9.078125 0 
L 9.078125 54.6875 
L 18.109375 54.6875 
L 18.109375 46.1875 
Q 21.1875 51.21875 25.484375 53.609375 
Q 29.78125 56 35.6875 56 
Q 41.65625 56 45.828125 52.96875 
Q 50 49.953125 52 44.1875 
z
" id="DejaVuSans-109"/>
      <path d="M 8.5 21.578125 
L 8.5 54.6875 
L 17.484375 54.6875 
L 17.484375 21.921875 
Q 17.484375 14.15625 20.5 10.265625 
Q 23.53125 6.390625 29.59375 6.390625 
Q 36.859375 6.390625 41.078125 11.03125 
Q 45.3125 15.671875 45.3125 23.6875 
L 45.3125 54.6875 
L 54.296875 54.6875 
L 54.296875 0 
L 45.3125 0 
L 45.3125 8.40625 
Q 42.046875 3.421875 37.71875 1 
Q 33.40625 -1.421875 27.6875 -1.421875 
Q 18.265625 -1.421875 13.375 4.4375 
Q 8.5 10.296875 8.5 21.578125 
z
M 31.109375 56 
z
" id="DejaVuSans-117"/>
      <path d="M -0.296875 72.90625 
L 61.375 72.90625 
L 61.375 64.59375 
L 35.5 64.59375 
L 35.5 0 
L 25.59375 0 
L 25.59375 64.59375 
L -0.296875 64.59375 
z
" id="DejaVuSans-84"/>
      <path d="M 31 75.875 
Q 24.46875 64.65625 21.28125 53.65625 
Q 18.109375 42.671875 18.109375 31.390625 
Q 18.109375 20.125 21.3125 9.0625 
Q 24.515625 -2 31 -13.1875 
L 23.1875 -13.1875 
Q 15.875 -1.703125 12.234375 9.375 
Q 8.59375 20.453125 8.59375 31.390625 
Q 8.59375 42.28125 12.203125 53.3125 
Q 15.828125 64.359375 23.1875 75.875 
z
" id="DejaVuSans-40"/>
      <path d="M 44.28125 53.078125 
L 44.28125 44.578125 
Q 40.484375 46.53125 36.375 47.5 
Q 32.28125 48.484375 27.875 48.484375 
Q 21.1875 48.484375 17.84375 46.4375 
Q 14.5 44.390625 14.5 40.28125 
Q 14.5 37.15625 16.890625 35.375 
Q 19.28125 33.59375 26.515625 31.984375 
L 29.59375 31.296875 
Q 39.15625 29.25 43.1875 25.515625 
Q 47.21875 21.78125 47.21875 15.09375 
Q 47.21875 7.46875 41.1875 3.015625 
Q 35.15625 -1.421875 24.609375 -1.421875 
Q 20.21875 -1.421875 15.453125 -0.5625 
Q 10.6875 0.296875 5.421875 2 
L 5.421875 11.28125 
Q 10.40625 8.6875 15.234375 7.390625 
Q 20.0625 6.109375 24.8125 6.109375 
Q 31.15625 6.109375 34.5625 8.28125 
Q 37.984375 10.453125 37.984375 14.40625 
Q 37.984375 18.0625 35.515625 20.015625 
Q 33.0625 21.96875 24.703125 23.78125 
L 21.578125 24.515625 
Q 13.234375 26.265625 9.515625 29.90625 
Q 5.8125 33.546875 5.8125 39.890625 
Q 5.8125 47.609375 11.28125 51.796875 
Q 16.75 56 26.8125 56 
Q 31.78125 56 36.171875 55.265625 
Q 40.578125 54.546875 44.28125 53.078125 
z
" id="DejaVuSans-115"/>
      <path d="M 8.015625 75.875 
L 15.828125 75.875 
Q 23.140625 64.359375 26.78125 53.3125 
Q 30.421875 42.28125 30.421875 31.390625 
Q 30.421875 20.453125 26.78125 9.375 
Q 23.140625 -1.703125 15.828125 -13.1875 
L 8.015625 -13.1875 
Q 14.5 -2 17.703125 9.0625 
Q 20.90625 20.125 20.90625 31.390625 
Q 20.90625 42.671875 17.703125 53.65625 
Q 14.5 64.65625 8.015625 75.875 
z
" id="DejaVuSans-41"/>
     </defs>
     <g transform="translate(20.877188 367.802344)rotate(-90)scale(0.18 -0.18)">
      <use xlink:href="#DejaVuSans-77"/>
      <use x="86.279297" xlink:href="#DejaVuSans-105"/>
      <use x="114.0625" xlink:href="#DejaVuSans-110"/>
      <use x="177.441406" xlink:href="#DejaVuSans-105"/>
      <use x="205.224609" xlink:href="#DejaVuSans-109"/>
      <use x="302.636719" xlink:href="#DejaVuSans-117"/>
      <use x="366.015625" xlink:href="#DejaVuSans-109"/>
      <use x="463.427734" xlink:href="#DejaVuSans-32"/>
      <use x="495.214844" xlink:href="#DejaVuSans-84"/>
      <use x="553.173828" xlink:href="#DejaVuSans-105"/>
      <use x="580.957031" xlink:href="#DejaVuSans-109"/>
      <use x="678.369141" xlink:href="#DejaVuSans-101"/>
      <use x="739.892578" xlink:href="#DejaVuSans-32"/>
      <use x="771.679688" xlink:href="#DejaVuSans-40"/>
      <use x="810.693359" xlink:href="#DejaVuSans-109"/>
      <use x="908.105469" xlink:href="#DejaVuSans-115"/>
      <use x="960.205078" xlink:href="#DejaVuSans-41"/>
     </g>
    </g>
   </g>
   <g id="line2d_55">
    <path clip-path="url(#pac1e9b5188)" d="M 134.093352 466.79138 
L 165.310135 407.051049 
L 196.526919 369.889633 
L 227.743702 346.145992 
L 258.960485 323.979291 
L 290.177268 306.461443 
L 321.394052 291.159497 
L 352.610835 277.390839 
L 383.827618 265.416234 
L 415.044401 253.678792 
L 446.261184 242.433342 
L 477.477968 233.837464 
L 508.694751 223.08879 
L 539.911534 211.461497 
L 571.128317 203.529469 
L 602.345101 196.612437 
L 633.561884 189.53683 
L 664.778667 183.692188 
L 695.99545 177.066081 
L 727.212233 171.080267 
L 758.429017 165.563599 
L 789.6458 161.049388 
L 820.862583 156.65671 
L 852.079366 151.717842 
L 883.296149 148.04045 
L 914.512933 144.197619 
L 945.729716 139.750876 
L 976.946499 136.459807 
L 1008.163282 133.470568 
L 1039.380066 129.089304 
L 1070.596849 126.122112 
L 1101.813632 123.105079 
L 1133.030415 119.496004 
L 1164.247198 108.275249 
L 1195.463982 105.40612 
L 1226.680765 101.82174 
L 1257.897548 100.038718 
L 1289.114331 97.202398 
L 1320.331115 94.519469 
L 1351.547898 92.173075 
" style="fill:none;stroke:#55868c;stroke-linecap:square;stroke-width:1.5;"/>
   </g>
   <g id="line2d_56">
    <path clip-path="url(#pac1e9b5188)" d="M 134.093352 465.663557 
L 165.310135 407.051049 
L 196.526919 371.511194 
L 227.743702 346.734741 
L 258.960485 326.026306 
L 290.177268 309.396299 
L 321.394052 295.642867 
L 352.610835 282.633558 
L 383.827618 270.956418 
L 415.044401 260.1323 
L 446.261184 251.315388 
L 477.477968 242.433342 
L 508.694751 234.651913 
L 539.911534 225.805 
L 571.128317 219.511928 
L 602.345101 213.573394 
L 633.561884 206.410826 
L 664.778667 199.898374 
L 695.99545 196.045321 
L 727.212233 189.53683 
L 758.429017 183.831381 
L 789.6458 180.268617 
L 820.862583 174.835499 
L 852.079366 169.965117 
L 883.296149 164.902591 
L 914.512933 159.921565 
L 945.729716 155.515922 
L 976.946499 152.272285 
L 1008.163282 148.333206 
L 1039.380066 145.506985 
L 1070.596849 139.468128 
L 1101.813632 136.684851 
L 1133.030415 132.712964 
L 1164.247198 118.578749 
L 1195.463982 115.695327 
L 1226.680765 112.592935 
L 1257.897548 110.079887 
L 1289.114331 107.687998 
L 1320.331115 104.851678 
L 1351.547898 102.430607 
" style="fill:none;stroke:#55868c;stroke-dasharray:1.5,2.475;stroke-dashoffset:0;stroke-width:1.5;"/>
   </g>
   <g id="line2d_57">
    <path clip-path="url(#pac1e9b5188)" d="M 134.093352 466.79138 
L 165.310135 407.051049 
L 196.526919 371.511194 
L 227.743702 345.61959 
L 258.960485 322.851468 
L 290.177268 305.913127 
L 321.394052 290.02595 
L 352.610835 276.828758 
L 383.827618 265.416234 
L 415.044401 256.160413 
L 446.261184 246.376521 
L 477.477968 237.426167 
L 508.694751 226.353316 
L 539.911534 213.717435 
L 571.128317 204.215105 
L 602.345101 197.186109 
L 633.561884 189.728791 
L 664.778667 183.477838 
L 695.99545 177.066081 
L 727.212233 171.080267 
L 758.429017 165.99323 
L 789.6458 161.675543 
L 820.862583 157.500495 
L 852.079366 152.832993 
L 883.296149 149.435965 
L 914.512933 145.324885 
L 945.729716 140.92936 
L 976.946499 137.825639 
L 1008.163282 134.479061 
L 1039.380066 131.297982 
L 1070.596849 125.974207 
L 1101.813632 122.550636 
L 1133.030415 119.496004 
L 1164.247198 108.275249 
L 1195.463982 105.40612 
L 1226.680765 102.430607 
L 1257.897548 99.458336 
L 1289.114331 97.202398 
L 1320.331115 94.519469 
L 1351.547898 92.173075 
" style="fill:none;stroke:#eec584;stroke-linecap:square;stroke-width:1.5;"/>
   </g>
   <g id="line2d_58">
    <path clip-path="url(#pac1e9b5188)" d="M 134.093352 465.109114 
L 165.310135 407.624721 
L 196.526919 371.267744 
L 227.743702 346.174033 
L 258.960485 325.471863 
L 290.177268 308.841856 
L 321.394052 293.9794 
L 352.610835 281.5308 
L 383.827618 269.474797 
L 415.044401 260.1323 
L 446.261184 250.741716 
L 477.477968 241.885026 
L 508.694751 234.417846 
L 539.911534 225.805 
L 571.128317 218.95122 
L 602.345101 213.143763 
L 633.561884 206.947287 
L 664.778667 199.898374 
L 695.99545 196.612437 
L 727.212233 189.53683 
L 758.429017 183.831381 
L 789.6458 179.808331 
L 820.862583 174.835499 
L 852.079366 169.416801 
L 883.296149 164.996483 
L 914.512933 159.921565 
L 945.729716 155.515922 
L 976.946499 151.717842 
L 1008.163282 147.790883 
L 1039.380066 144.616879 
L 1070.596849 139.587555 
L 1101.813632 136.684851 
L 1133.030415 132.939033 
L 1164.247198 118.578749 
L 1195.463982 115.49564 
L 1226.680765 112.592935 
L 1257.897548 109.850686 
L 1289.114331 107.107616 
L 1320.331115 104.851678 
L 1351.547898 102.430607 
" style="fill:none;stroke:#eec584;stroke-dasharray:1.5,2.475;stroke-dashoffset:0;stroke-width:1.5;"/>
   </g>
   <g id="line2d_59">
    <path clip-path="url(#pac1e9b5188)" d="M 134.093352 490.456356 
L 165.310135 390.9694 
L 196.526919 349.997462 
L 227.743702 319.310852 
L 258.960485 296.783655 
L 290.177268 274.266515 
L 321.394052 258.141462 
L 352.610835 244.68928 
L 383.827618 233.263792 
L 415.044401 221.820348 
L 446.261184 212.576647 
L 477.477968 204.670257 
L 508.694751 196.637793 
L 539.911534 188.588003 
L 571.128317 183.692188 
L 602.345101 173.388688 
L 633.561884 127.920421 
L 664.778667 127.280127 
L 695.99545 122.128318 
L 727.212233 118.437577 
L 758.429017 114.11989 
L 789.6458 110.387146 
L 820.862583 106.533944 
L 852.079366 102.693855 
L 883.296149 98.884664 
L 914.512933 95.044575 
L 945.729716 91.974188 
L 976.946499 89.27037 
L 1008.163282 84.952683 
L 1039.380066 82.92701 
L 1070.596849 79.338307 
L 1101.813632 74.924547 
L 1133.030415 72.520238 
L 1164.247198 66.230553 
L 1195.463982 63.361424 
L 1226.680765 60.649159 
L 1257.897548 58.077491 
L 1289.114331 56.112002 
L 1320.331115 53.07535 
L 1351.547898 51.076875 
" style="fill:none;stroke:#ce4257;stroke-linecap:square;stroke-width:1.5;"/>
   </g>
   <g id="line2d_60">
    <path clip-path="url(#pac1e9b5188)" d="M 134.093352 504.676875 
L 165.310135 412.280919 
L 196.526919 370.450341 
L 227.743702 340.917783 
L 258.960485 314.928891 
L 290.177268 293.415435 
L 321.394052 276.823723 
L 352.610835 262.16925 
L 383.827618 249.613892 
L 415.044401 239.646055 
L 446.261184 229.776887 
L 477.477968 220.652716 
L 508.694751 213.717435 
L 539.911534 205.83789 
L 571.128317 198.868375 
L 602.345101 190.732601 
L 633.561884 129.847735 
L 664.778667 130.291894 
L 695.99545 124.806574 
L 727.212233 121.069269 
L 758.429017 116.77411 
L 789.6458 113.160051 
L 820.862583 109.319963 
L 852.079366 105.40612 
L 883.296149 102.430607 
L 914.512933 98.317548 
L 945.729716 95.044575 
L 976.946499 91.578791 
L 1008.163282 88.15522 
L 1039.380066 85.472291 
L 1070.596849 82.310579 
L 1101.813632 78.197519 
L 1133.030415 75.27773 
L 1164.247198 69.275808 
L 1195.463982 66.824836 
L 1226.680765 63.361424 
L 1257.897548 61.179882 
L 1289.114331 58.077491 
L 1320.331115 56.112002 
L 1351.547898 53.759804 
" style="fill:none;stroke:#ce4257;stroke-dasharray:1.5,2.475;stroke-dashoffset:0;stroke-width:1.5;"/>
   </g>
   <g id="patch_3">
    <path d="M 73.220625 527.356875 
L 73.220625 28.396875 
" style="fill:none;stroke:#000000;stroke-linecap:square;stroke-linejoin:miter;stroke-width:0.8;"/>
   </g>
   <g id="patch_4">
    <path d="M 1412.420625 527.356875 
L 1412.420625 28.396875 
" style="fill:none;stroke:#000000;stroke-linecap:square;stroke-linejoin:miter;stroke-width:0.8;"/>
   </g>
   <g id="patch_5">
    <path d="M 73.220625 527.356875 
L 1412.420625 527.356875 
" style="fill:none;stroke:#000000;stroke-linecap:square;stroke-linejoin:miter;stroke-width:0.8;"/>
   </g>
   <g id="patch_6">
    <path d="M 73.220625 28.396875 
L 1412.420625 28.396875 
" style="fill:none;stroke:#000000;stroke-linecap:square;stroke-linejoin:miter;stroke-width:0.8;"/>
   </g>
   <g id="text_16">
    <!-- SeparableConvolve Implementations vs Explicit Implementation -->
    <defs>
     <path d="M 18.109375 8.203125 
L 18.109375 -20.796875 
L 9.078125 -20.796875 
L 9.078125 54.6875 
L 18.109375 54.6875 
L 18.109375 46.390625 
Q 20.953125 51.265625 25.265625 53.625 
Q 29.59375 56 35.59375 56 
Q 45.5625 56 51.78125 48.09375 
Q 58.015625 40.1875 58.015625 27.296875 
Q 58.015625 14.40625 51.78125 6.484375 
Q 45.5625 -1.421875 35.59375 -1.421875 
Q 29.59375 -1.421875 25.265625 0.953125 
Q 20.953125 3.328125 18.109375 8.203125 
z
M 48.6875 27.296875 
Q 48.6875 37.203125 44.609375 42.84375 
Q 40.53125 48.484375 33.40625 48.484375 
Q 26.265625 48.484375 22.1875 42.84375 
Q 18.109375 37.203125 18.109375 27.296875 
Q 18.109375 17.390625 22.1875 11.75 
Q 26.265625 6.109375 33.40625 6.109375 
Q 40.53125 6.109375 44.609375 11.75 
Q 48.6875 17.390625 48.6875 27.296875 
z
" id="DejaVuSans-112"/>
     <path d="M 34.28125 27.484375 
Q 23.390625 27.484375 19.1875 25 
Q 14.984375 22.515625 14.984375 16.5 
Q 14.984375 11.71875 18.140625 8.90625 
Q 21.296875 6.109375 26.703125 6.109375 
Q 34.1875 6.109375 38.703125 11.40625 
Q 43.21875 16.703125 43.21875 25.484375 
L 43.21875 27.484375 
z
M 52.203125 31.203125 
L 52.203125 0 
L 43.21875 0 
L 43.21875 8.296875 
Q 40.140625 3.328125 35.546875 0.953125 
Q 30.953125 -1.421875 24.3125 -1.421875 
Q 15.921875 -1.421875 10.953125 3.296875 
Q 6 8.015625 6 15.921875 
Q 6 25.140625 12.171875 29.828125 
Q 18.359375 34.515625 30.609375 34.515625 
L 43.21875 34.515625 
L 43.21875 35.40625 
Q 43.21875 41.609375 39.140625 45 
Q 35.0625 48.390625 27.6875 48.390625 
Q 23 48.390625 18.546875 47.265625 
Q 14.109375 46.140625 10.015625 43.890625 
L 10.015625 52.203125 
Q 14.9375 54.109375 19.578125 55.046875 
Q 24.21875 56 28.609375 56 
Q 40.484375 56 46.34375 49.84375 
Q 52.203125 43.703125 52.203125 31.203125 
z
" id="DejaVuSans-97"/>
     <path d="M 41.109375 46.296875 
Q 39.59375 47.171875 37.8125 47.578125 
Q 36.03125 48 33.890625 48 
Q 26.265625 48 22.1875 43.046875 
Q 18.109375 38.09375 18.109375 28.8125 
L 18.109375 0 
L 9.078125 0 
L 9.078125 54.6875 
L 18.109375 54.6875 
L 18.109375 46.1875 
Q 20.953125 51.171875 25.484375 53.578125 
Q 30.03125 56 36.53125 56 
Q 37.453125 56 38.578125 55.875 
Q 39.703125 55.765625 41.0625 55.515625 
z
" id="DejaVuSans-114"/>
     <path d="M 48.6875 27.296875 
Q 48.6875 37.203125 44.609375 42.84375 
Q 40.53125 48.484375 33.40625 48.484375 
Q 26.265625 48.484375 22.1875 42.84375 
Q 18.109375 37.203125 18.109375 27.296875 
Q 18.109375 17.390625 22.1875 11.75 
Q 26.265625 6.109375 33.40625 6.109375 
Q 40.53125 6.109375 44.609375 11.75 
Q 48.6875 17.390625 48.6875 27.296875 
z
M 18.109375 46.390625 
Q 20.953125 51.265625 25.265625 53.625 
Q 29.59375 56 35.59375 56 
Q 45.5625 56 51.78125 48.09375 
Q 58.015625 40.1875 58.015625 27.296875 
Q 58.015625 14.40625 51.78125 6.484375 
Q 45.5625 -1.421875 35.59375 -1.421875 
Q 29.59375 -1.421875 25.265625 0.953125 
Q 20.953125 3.328125 18.109375 8.203125 
L 18.109375 0 
L 9.078125 0 
L 9.078125 75.984375 
L 18.109375 75.984375 
z
" id="DejaVuSans-98"/>
     <path d="M 9.421875 75.984375 
L 18.40625 75.984375 
L 18.40625 0 
L 9.421875 0 
z
" id="DejaVuSans-108"/>
     <path d="M 64.40625 67.28125 
L 64.40625 56.890625 
Q 59.421875 61.53125 53.78125 63.8125 
Q 48.140625 66.109375 41.796875 66.109375 
Q 29.296875 66.109375 22.65625 58.46875 
Q 16.015625 50.828125 16.015625 36.375 
Q 16.015625 21.96875 22.65625 14.328125 
Q 29.296875 6.6875 41.796875 6.6875 
Q 48.140625 6.6875 53.78125 8.984375 
Q 59.421875 11.28125 64.40625 15.921875 
L 64.40625 5.609375 
Q 59.234375 2.09375 53.4375 0.328125 
Q 47.65625 -1.421875 41.21875 -1.421875 
Q 24.65625 -1.421875 15.125 8.703125 
Q 5.609375 18.84375 5.609375 36.375 
Q 5.609375 53.953125 15.125 64.078125 
Q 24.65625 74.21875 41.21875 74.21875 
Q 47.75 74.21875 53.53125 72.484375 
Q 59.328125 70.75 64.40625 67.28125 
z
" id="DejaVuSans-67"/>
     <path d="M 30.609375 48.390625 
Q 23.390625 48.390625 19.1875 42.75 
Q 14.984375 37.109375 14.984375 27.296875 
Q 14.984375 17.484375 19.15625 11.84375 
Q 23.34375 6.203125 30.609375 6.203125 
Q 37.796875 6.203125 41.984375 11.859375 
Q 46.1875 17.53125 46.1875 27.296875 
Q 46.1875 37.015625 41.984375 42.703125 
Q 37.796875 48.390625 30.609375 48.390625 
z
M 30.609375 56 
Q 42.328125 56 49.015625 48.375 
Q 55.71875 40.765625 55.71875 27.296875 
Q 55.71875 13.875 49.015625 6.21875 
Q 42.328125 -1.421875 30.609375 -1.421875 
Q 18.84375 -1.421875 12.171875 6.21875 
Q 5.515625 13.875 5.515625 27.296875 
Q 5.515625 40.765625 12.171875 48.375 
Q 18.84375 56 30.609375 56 
z
" id="DejaVuSans-111"/>
     <path d="M 2.984375 54.6875 
L 12.5 54.6875 
L 29.59375 8.796875 
L 46.6875 54.6875 
L 56.203125 54.6875 
L 35.6875 0 
L 23.484375 0 
z
" id="DejaVuSans-118"/>
     <path d="M 9.8125 72.90625 
L 19.671875 72.90625 
L 19.671875 0 
L 9.8125 0 
z
" id="DejaVuSans-73"/>
     <path d="M 18.3125 70.21875 
L 18.3125 54.6875 
L 36.8125 54.6875 
L 36.8125 47.703125 
L 18.3125 47.703125 
L 18.3125 18.015625 
Q 18.3125 11.328125 20.140625 9.421875 
Q 21.96875 7.515625 27.59375 7.515625 
L 36.8125 7.515625 
L 36.8125 0 
L 27.59375 0 
Q 17.1875 0 13.234375 3.875 
Q 9.28125 7.765625 9.28125 18.015625 
L 9.28125 47.703125 
L 2.6875 47.703125 
L 2.6875 54.6875 
L 9.28125 54.6875 
L 9.28125 70.21875 
z
" id="DejaVuSans-116"/>
     <path d="M 9.8125 72.90625 
L 55.90625 72.90625 
L 55.90625 64.59375 
L 19.671875 64.59375 
L 19.671875 43.015625 
L 54.390625 43.015625 
L 54.390625 34.71875 
L 19.671875 34.71875 
L 19.671875 8.296875 
L 56.78125 8.296875 
L 56.78125 0 
L 9.8125 0 
z
" id="DejaVuSans-69"/>
     <path d="M 54.890625 54.6875 
L 35.109375 28.078125 
L 55.90625 0 
L 45.3125 0 
L 29.390625 21.484375 
L 13.484375 0 
L 2.875 0 
L 24.125 28.609375 
L 4.6875 54.6875 
L 15.28125 54.6875 
L 29.78125 35.203125 
L 44.28125 54.6875 
z
" id="DejaVuSans-120"/>
     <path d="M 48.78125 52.59375 
L 48.78125 44.1875 
Q 44.96875 46.296875 41.140625 47.34375 
Q 37.3125 48.390625 33.40625 48.390625 
Q 24.65625 48.390625 19.8125 42.84375 
Q 14.984375 37.3125 14.984375 27.296875 
Q 14.984375 17.28125 19.8125 11.734375 
Q 24.65625 6.203125 33.40625 6.203125 
Q 37.3125 6.203125 41.140625 7.25 
Q 44.96875 8.296875 48.78125 10.40625 
L 48.78125 2.09375 
Q 45.015625 0.34375 40.984375 -0.53125 
Q 36.96875 -1.421875 32.421875 -1.421875 
Q 20.0625 -1.421875 12.78125 6.34375 
Q 5.515625 14.109375 5.515625 27.296875 
Q 5.515625 40.671875 12.859375 48.328125 
Q 20.21875 56 33.015625 56 
Q 37.15625 56 41.109375 55.140625 
Q 45.0625 54.296875 48.78125 52.59375 
z
" id="DejaVuSans-99"/>
    </defs>
    <g transform="translate(421.79875 22.396875)scale(0.2 -0.2)">
     <use xlink:href="#DejaVuSans-83"/>
     <use x="63.476562" xlink:href="#DejaVuSans-101"/>
     <use x="125" xlink:href="#DejaVuSans-112"/>
     <use x="188.476562" xlink:href="#DejaVuSans-97"/>
     <use x="249.755859" xlink:href="#DejaVuSans-114"/>
     <use x="290.869141" xlink:href="#DejaVuSans-97"/>
     <use x="352.148438" xlink:href="#DejaVuSans-98"/>
     <use x="415.625" xlink:href="#DejaVuSans-108"/>
     <use x="443.408203" xlink:href="#DejaVuSans-101"/>
     <use x="504.931641" xlink:href="#DejaVuSans-67"/>
     <use x="574.755859" xlink:href="#DejaVuSans-111"/>
     <use x="635.9375" xlink:href="#DejaVuSans-110"/>
     <use x="699.316406" xlink:href="#DejaVuSans-118"/>
     <use x="758.496094" xlink:href="#DejaVuSans-111"/>
     <use x="819.677734" xlink:href="#DejaVuSans-108"/>
     <use x="847.460938" xlink:href="#DejaVuSans-118"/>
     <use x="906.640625" xlink:href="#DejaVuSans-101"/>
     <use x="968.164062" xlink:href="#DejaVuSans-32"/>
     <use x="999.951172" xlink:href="#DejaVuSans-73"/>
     <use x="1029.443359" xlink:href="#DejaVuSans-109"/>
     <use x="1126.855469" xlink:href="#DejaVuSans-112"/>
     <use x="1190.332031" xlink:href="#DejaVuSans-108"/>
     <use x="1218.115234" xlink:href="#DejaVuSans-101"/>
     <use x="1279.638672" xlink:href="#DejaVuSans-109"/>
     <use x="1377.050781" xlink:href="#DejaVuSans-101"/>
     <use x="1438.574219" xlink:href="#DejaVuSans-110"/>
     <use x="1501.953125" xlink:href="#DejaVuSans-116"/>
     <use x="1541.162109" xlink:href="#DejaVuSans-97"/>
     <use x="1602.441406" xlink:href="#DejaVuSans-116"/>
     <use x="1641.650391" xlink:href="#DejaVuSans-105"/>
     <use x="1669.433594" xlink:href="#DejaVuSans-111"/>
     <use x="1730.615234" xlink:href="#DejaVuSans-110"/>
     <use x="1793.994141" xlink:href="#DejaVuSans-115"/>
     <use x="1846.09375" xlink:href="#DejaVuSans-32"/>
     <use x="1877.880859" xlink:href="#DejaVuSans-118"/>
     <use x="1937.060547" xlink:href="#DejaVuSans-115"/>
     <use x="1989.160156" xlink:href="#DejaVuSans-32"/>
     <use x="2020.947266" xlink:href="#DejaVuSans-69"/>
     <use x="2084.130859" xlink:href="#DejaVuSans-120"/>
     <use x="2143.310547" xlink:href="#DejaVuSans-112"/>
     <use x="2206.787109" xlink:href="#DejaVuSans-108"/>
     <use x="2234.570312" xlink:href="#DejaVuSans-105"/>
     <use x="2262.353516" xlink:href="#DejaVuSans-99"/>
     <use x="2317.333984" xlink:href="#DejaVuSans-105"/>
     <use x="2345.117188" xlink:href="#DejaVuSans-116"/>
     <use x="2384.326172" xlink:href="#DejaVuSans-32"/>
     <use x="2416.113281" xlink:href="#DejaVuSans-73"/>
     <use x="2445.605469" xlink:href="#DejaVuSans-109"/>
     <use x="2543.017578" xlink:href="#DejaVuSans-112"/>
     <use x="2606.494141" xlink:href="#DejaVuSans-108"/>
     <use x="2634.277344" xlink:href="#DejaVuSans-101"/>
     <use x="2695.800781" xlink:href="#DejaVuSans-109"/>
     <use x="2793.212891" xlink:href="#DejaVuSans-101"/>
     <use x="2854.736328" xlink:href="#DejaVuSans-110"/>
     <use x="2918.115234" xlink:href="#DejaVuSans-116"/>
     <use x="2957.324219" xlink:href="#DejaVuSans-97"/>
     <use x="3018.603516" xlink:href="#DejaVuSans-116"/>
     <use x="3057.8125" xlink:href="#DejaVuSans-105"/>
     <use x="3085.595703" xlink:href="#DejaVuSans-111"/>
     <use x="3146.777344" xlink:href="#DejaVuSans-110"/>
    </g>
   </g>
   <g id="legend_1">
    <g id="patch_7">
     <path d="M 81.620625 143.679375 
L 366.19875 143.679375 
Q 368.59875 143.679375 368.59875 141.279375 
L 368.59875 36.796875 
Q 368.59875 34.396875 366.19875 34.396875 
L 81.620625 34.396875 
Q 79.220625 34.396875 79.220625 36.796875 
L 79.220625 141.279375 
Q 79.220625 143.679375 81.620625 143.679375 
z
" style="fill:#ffffff;opacity:0.8;stroke:#cccccc;stroke-linejoin:miter;"/>
    </g>
    <g id="line2d_61">
     <path d="M 84.020625 44.115 
L 108.020625 44.115 
" style="fill:none;stroke:#55868c;stroke-linecap:square;stroke-width:1.5;"/>
    </g>
    <g id="line2d_62"/>
    <g id="text_17">
     <!-- separableConvolve2D (Channel First) -->
     <defs>
      <path d="M 19.671875 64.796875 
L 19.671875 8.109375 
L 31.59375 8.109375 
Q 46.6875 8.109375 53.6875 14.9375 
Q 60.6875 21.78125 60.6875 36.53125 
Q 60.6875 51.171875 53.6875 57.984375 
Q 46.6875 64.796875 31.59375 64.796875 
z
M 9.8125 72.90625 
L 30.078125 72.90625 
Q 51.265625 72.90625 61.171875 64.09375 
Q 71.09375 55.28125 71.09375 36.53125 
Q 71.09375 17.671875 61.125 8.828125 
Q 51.171875 0 30.078125 0 
L 9.8125 0 
z
" id="DejaVuSans-68"/>
      <path d="M 54.890625 33.015625 
L 54.890625 0 
L 45.90625 0 
L 45.90625 32.71875 
Q 45.90625 40.484375 42.875 44.328125 
Q 39.84375 48.1875 33.796875 48.1875 
Q 26.515625 48.1875 22.3125 43.546875 
Q 18.109375 38.921875 18.109375 30.90625 
L 18.109375 0 
L 9.078125 0 
L 9.078125 75.984375 
L 18.109375 75.984375 
L 18.109375 46.1875 
Q 21.34375 51.125 25.703125 53.5625 
Q 30.078125 56 35.796875 56 
Q 45.21875 56 50.046875 50.171875 
Q 54.890625 44.34375 54.890625 33.015625 
z
" id="DejaVuSans-104"/>
      <path d="M 9.8125 72.90625 
L 51.703125 72.90625 
L 51.703125 64.59375 
L 19.671875 64.59375 
L 19.671875 43.109375 
L 48.578125 43.109375 
L 48.578125 34.8125 
L 19.671875 34.8125 
L 19.671875 0 
L 9.8125 0 
z
" id="DejaVuSans-70"/>
     </defs>
     <g transform="translate(117.620625 48.315)scale(0.12 -0.12)">
      <use xlink:href="#DejaVuSans-115"/>
      <use x="52.099609" xlink:href="#DejaVuSans-101"/>
      <use x="113.623047" xlink:href="#DejaVuSans-112"/>
      <use x="177.099609" xlink:href="#DejaVuSans-97"/>
      <use x="238.378906" xlink:href="#DejaVuSans-114"/>
      <use x="279.492188" xlink:href="#DejaVuSans-97"/>
      <use x="340.771484" xlink:href="#DejaVuSans-98"/>
      <use x="404.248047" xlink:href="#DejaVuSans-108"/>
      <use x="432.03125" xlink:href="#DejaVuSans-101"/>
      <use x="493.554688" xlink:href="#DejaVuSans-67"/>
      <use x="563.378906" xlink:href="#DejaVuSans-111"/>
      <use x="624.560547" xlink:href="#DejaVuSans-110"/>
      <use x="687.939453" xlink:href="#DejaVuSans-118"/>
      <use x="747.119141" xlink:href="#DejaVuSans-111"/>
      <use x="808.300781" xlink:href="#DejaVuSans-108"/>
      <use x="836.083984" xlink:href="#DejaVuSans-118"/>
      <use x="895.263672" xlink:href="#DejaVuSans-101"/>
      <use x="956.787109" xlink:href="#DejaVuSans-50"/>
      <use x="1020.410156" xlink:href="#DejaVuSans-68"/>
      <use x="1097.412109" xlink:href="#DejaVuSans-32"/>
      <use x="1129.199219" xlink:href="#DejaVuSans-40"/>
      <use x="1168.212891" xlink:href="#DejaVuSans-67"/>
      <use x="1238.037109" xlink:href="#DejaVuSans-104"/>
      <use x="1301.416016" xlink:href="#DejaVuSans-97"/>
      <use x="1362.695312" xlink:href="#DejaVuSans-110"/>
      <use x="1426.074219" xlink:href="#DejaVuSans-110"/>
      <use x="1489.453125" xlink:href="#DejaVuSans-101"/>
      <use x="1550.976562" xlink:href="#DejaVuSans-108"/>
      <use x="1578.759766" xlink:href="#DejaVuSans-32"/>
      <use x="1610.546875" xlink:href="#DejaVuSans-70"/>
      <use x="1660.816406" xlink:href="#DejaVuSans-105"/>
      <use x="1688.599609" xlink:href="#DejaVuSans-114"/>
      <use x="1729.712891" xlink:href="#DejaVuSans-115"/>
      <use x="1781.8125" xlink:href="#DejaVuSans-116"/>
      <use x="1821.021484" xlink:href="#DejaVuSans-41"/>
     </g>
    </g>
    <g id="line2d_63">
     <path d="M 84.020625 61.72875 
L 108.020625 61.72875 
" style="fill:none;stroke:#55868c;stroke-dasharray:1.5,2.475;stroke-dashoffset:0;stroke-width:1.5;"/>
    </g>
    <g id="line2d_64"/>
    <g id="text_18">
     <!-- separableConvolve2D (Channel Last) -->
     <defs>
      <path d="M 9.8125 72.90625 
L 19.671875 72.90625 
L 19.671875 8.296875 
L 55.171875 8.296875 
L 55.171875 0 
L 9.8125 0 
z
" id="DejaVuSans-76"/>
     </defs>
     <g transform="translate(117.620625 65.92875)scale(0.12 -0.12)">
      <use xlink:href="#DejaVuSans-115"/>
      <use x="52.099609" xlink:href="#DejaVuSans-101"/>
      <use x="113.623047" xlink:href="#DejaVuSans-112"/>
      <use x="177.099609" xlink:href="#DejaVuSans-97"/>
      <use x="238.378906" xlink:href="#DejaVuSans-114"/>
      <use x="279.492188" xlink:href="#DejaVuSans-97"/>
      <use x="340.771484" xlink:href="#DejaVuSans-98"/>
      <use x="404.248047" xlink:href="#DejaVuSans-108"/>
      <use x="432.03125" xlink:href="#DejaVuSans-101"/>
      <use x="493.554688" xlink:href="#DejaVuSans-67"/>
      <use x="563.378906" xlink:href="#DejaVuSans-111"/>
      <use x="624.560547" xlink:href="#DejaVuSans-110"/>
      <use x="687.939453" xlink:href="#DejaVuSans-118"/>
      <use x="747.119141" xlink:href="#DejaVuSans-111"/>
      <use x="808.300781" xlink:href="#DejaVuSans-108"/>
      <use x="836.083984" xlink:href="#DejaVuSans-118"/>
      <use x="895.263672" xlink:href="#DejaVuSans-101"/>
      <use x="956.787109" xlink:href="#DejaVuSans-50"/>
      <use x="1020.410156" xlink:href="#DejaVuSans-68"/>
      <use x="1097.412109" xlink:href="#DejaVuSans-32"/>
      <use x="1129.199219" xlink:href="#DejaVuSans-40"/>
      <use x="1168.212891" xlink:href="#DejaVuSans-67"/>
      <use x="1238.037109" xlink:href="#DejaVuSans-104"/>
      <use x="1301.416016" xlink:href="#DejaVuSans-97"/>
      <use x="1362.695312" xlink:href="#DejaVuSans-110"/>
      <use x="1426.074219" xlink:href="#DejaVuSans-110"/>
      <use x="1489.453125" xlink:href="#DejaVuSans-101"/>
      <use x="1550.976562" xlink:href="#DejaVuSans-108"/>
      <use x="1578.759766" xlink:href="#DejaVuSans-32"/>
      <use x="1610.546875" xlink:href="#DejaVuSans-76"/>
      <use x="1666.259766" xlink:href="#DejaVuSans-97"/>
      <use x="1727.539062" xlink:href="#DejaVuSans-115"/>
      <use x="1779.638672" xlink:href="#DejaVuSans-116"/>
      <use x="1818.847656" xlink:href="#DejaVuSans-41"/>
     </g>
    </g>
    <g id="line2d_65">
     <path d="M 84.020625 79.3425 
L 108.020625 79.3425 
" style="fill:none;stroke:#eec584;stroke-linecap:square;stroke-width:1.5;"/>
    </g>
    <g id="line2d_66"/>
    <g id="text_19">
     <!-- separableConvolve [N=2] (Channel First) -->
     <defs>
      <path d="M 8.59375 75.984375 
L 29.296875 75.984375 
L 29.296875 69 
L 17.578125 69 
L 17.578125 -6.203125 
L 29.296875 -6.203125 
L 29.296875 -13.1875 
L 8.59375 -13.1875 
z
" id="DejaVuSans-91"/>
      <path d="M 9.8125 72.90625 
L 23.09375 72.90625 
L 55.421875 11.921875 
L 55.421875 72.90625 
L 64.984375 72.90625 
L 64.984375 0 
L 51.703125 0 
L 19.390625 60.984375 
L 19.390625 0 
L 9.8125 0 
z
" id="DejaVuSans-78"/>
      <path d="M 10.59375 45.40625 
L 73.1875 45.40625 
L 73.1875 37.203125 
L 10.59375 37.203125 
z
M 10.59375 25.484375 
L 73.1875 25.484375 
L 73.1875 17.1875 
L 10.59375 17.1875 
z
" id="DejaVuSans-61"/>
      <path d="M 30.421875 75.984375 
L 30.421875 -13.1875 
L 9.71875 -13.1875 
L 9.71875 -6.203125 
L 21.390625 -6.203125 
L 21.390625 69 
L 9.71875 69 
L 9.71875 75.984375 
z
" id="DejaVuSans-93"/>
     </defs>
     <g transform="translate(117.620625 83.5425)scale(0.12 -0.12)">
      <use xlink:href="#DejaVuSans-115"/>
      <use x="52.099609" xlink:href="#DejaVuSans-101"/>
      <use x="113.623047" xlink:href="#DejaVuSans-112"/>
      <use x="177.099609" xlink:href="#DejaVuSans-97"/>
      <use x="238.378906" xlink:href="#DejaVuSans-114"/>
      <use x="279.492188" xlink:href="#DejaVuSans-97"/>
      <use x="340.771484" xlink:href="#DejaVuSans-98"/>
      <use x="404.248047" xlink:href="#DejaVuSans-108"/>
      <use x="432.03125" xlink:href="#DejaVuSans-101"/>
      <use x="493.554688" xlink:href="#DejaVuSans-67"/>
      <use x="563.378906" xlink:href="#DejaVuSans-111"/>
      <use x="624.560547" xlink:href="#DejaVuSans-110"/>
      <use x="687.939453" xlink:href="#DejaVuSans-118"/>
      <use x="747.119141" xlink:href="#DejaVuSans-111"/>
      <use x="808.300781" xlink:href="#DejaVuSans-108"/>
      <use x="836.083984" xlink:href="#DejaVuSans-118"/>
      <use x="895.263672" xlink:href="#DejaVuSans-101"/>
      <use x="956.787109" xlink:href="#DejaVuSans-32"/>
      <use x="988.574219" xlink:href="#DejaVuSans-91"/>
      <use x="1027.587891" xlink:href="#DejaVuSans-78"/>
      <use x="1102.392578" xlink:href="#DejaVuSans-61"/>
      <use x="1186.181641" xlink:href="#DejaVuSans-50"/>
      <use x="1249.804688" xlink:href="#DejaVuSans-93"/>
      <use x="1288.818359" xlink:href="#DejaVuSans-32"/>
      <use x="1320.605469" xlink:href="#DejaVuSans-40"/>
      <use x="1359.619141" xlink:href="#DejaVuSans-67"/>
      <use x="1429.443359" xlink:href="#DejaVuSans-104"/>
      <use x="1492.822266" xlink:href="#DejaVuSans-97"/>
      <use x="1554.101562" xlink:href="#DejaVuSans-110"/>
      <use x="1617.480469" xlink:href="#DejaVuSans-110"/>
      <use x="1680.859375" xlink:href="#DejaVuSans-101"/>
      <use x="1742.382812" xlink:href="#DejaVuSans-108"/>
      <use x="1770.166016" xlink:href="#DejaVuSans-32"/>
      <use x="1801.953125" xlink:href="#DejaVuSans-70"/>
      <use x="1852.222656" xlink:href="#DejaVuSans-105"/>
      <use x="1880.005859" xlink:href="#DejaVuSans-114"/>
      <use x="1921.119141" xlink:href="#DejaVuSans-115"/>
      <use x="1973.21875" xlink:href="#DejaVuSans-116"/>
      <use x="2012.427734" xlink:href="#DejaVuSans-41"/>
     </g>
    </g>
    <g id="line2d_67">
     <path d="M 84.020625 96.95625 
L 108.020625 96.95625 
" style="fill:none;stroke:#eec584;stroke-dasharray:1.5,2.475;stroke-dashoffset:0;stroke-width:1.5;"/>
    </g>
    <g id="line2d_68"/>
    <g id="text_20">
     <!-- separableConvolve [N=2] (Channel Last) -->
     <g transform="translate(117.620625 101.15625)scale(0.12 -0.12)">
      <use xlink:href="#DejaVuSans-115"/>
      <use x="52.099609" xlink:href="#DejaVuSans-101"/>
      <use x="113.623047" xlink:href="#DejaVuSans-112"/>
      <use x="177.099609" xlink:href="#DejaVuSans-97"/>
      <use x="238.378906" xlink:href="#DejaVuSans-114"/>
      <use x="279.492188" xlink:href="#DejaVuSans-97"/>
      <use x="340.771484" xlink:href="#DejaVuSans-98"/>
      <use x="404.248047" xlink:href="#DejaVuSans-108"/>
      <use x="432.03125" xlink:href="#DejaVuSans-101"/>
      <use x="493.554688" xlink:href="#DejaVuSans-67"/>
      <use x="563.378906" xlink:href="#DejaVuSans-111"/>
      <use x="624.560547" xlink:href="#DejaVuSans-110"/>
      <use x="687.939453" xlink:href="#DejaVuSans-118"/>
      <use x="747.119141" xlink:href="#DejaVuSans-111"/>
      <use x="808.300781" xlink:href="#DejaVuSans-108"/>
      <use x="836.083984" xlink:href="#DejaVuSans-118"/>
      <use x="895.263672" xlink:href="#DejaVuSans-101"/>
      <use x="956.787109" xlink:href="#DejaVuSans-32"/>
      <use x="988.574219" xlink:href="#DejaVuSans-91"/>
      <use x="1027.587891" xlink:href="#DejaVuSans-78"/>
      <use x="1102.392578" xlink:href="#DejaVuSans-61"/>
      <use x="1186.181641" xlink:href="#DejaVuSans-50"/>
      <use x="1249.804688" xlink:href="#DejaVuSans-93"/>
      <use x="1288.818359" xlink:href="#DejaVuSans-32"/>
      <use x="1320.605469" xlink:href="#DejaVuSans-40"/>
      <use x="1359.619141" xlink:href="#DejaVuSans-67"/>
      <use x="1429.443359" xlink:href="#DejaVuSans-104"/>
      <use x="1492.822266" xlink:href="#DejaVuSans-97"/>
      <use x="1554.101562" xlink:href="#DejaVuSans-110"/>
      <use x="1617.480469" xlink:href="#DejaVuSans-110"/>
      <use x="1680.859375" xlink:href="#DejaVuSans-101"/>
      <use x="1742.382812" xlink:href="#DejaVuSans-108"/>
      <use x="1770.166016" xlink:href="#DejaVuSans-32"/>
      <use x="1801.953125" xlink:href="#DejaVuSans-76"/>
      <use x="1857.666016" xlink:href="#DejaVuSans-97"/>
      <use x="1918.945312" xlink:href="#DejaVuSans-115"/>
      <use x="1971.044922" xlink:href="#DejaVuSans-116"/>
      <use x="2010.253906" xlink:href="#DejaVuSans-41"/>
     </g>
    </g>
    <g id="line2d_69">
     <path d="M 84.020625 114.57 
L 108.020625 114.57 
" style="fill:none;stroke:#ce4257;stroke-linecap:square;stroke-width:1.5;"/>
    </g>
    <g id="line2d_70"/>
    <g id="text_21">
     <!-- convolve2D (Channel First) -->
     <g transform="translate(117.620625 118.77)scale(0.12 -0.12)">
      <use xlink:href="#DejaVuSans-99"/>
      <use x="54.980469" xlink:href="#DejaVuSans-111"/>
      <use x="116.162109" xlink:href="#DejaVuSans-110"/>
      <use x="179.541016" xlink:href="#DejaVuSans-118"/>
      <use x="238.720703" xlink:href="#DejaVuSans-111"/>
      <use x="299.902344" xlink:href="#DejaVuSans-108"/>
      <use x="327.685547" xlink:href="#DejaVuSans-118"/>
      <use x="386.865234" xlink:href="#DejaVuSans-101"/>
      <use x="448.388672" xlink:href="#DejaVuSans-50"/>
      <use x="512.011719" xlink:href="#DejaVuSans-68"/>
      <use x="589.013672" xlink:href="#DejaVuSans-32"/>
      <use x="620.800781" xlink:href="#DejaVuSans-40"/>
      <use x="659.814453" xlink:href="#DejaVuSans-67"/>
      <use x="729.638672" xlink:href="#DejaVuSans-104"/>
      <use x="793.017578" xlink:href="#DejaVuSans-97"/>
      <use x="854.296875" xlink:href="#DejaVuSans-110"/>
      <use x="917.675781" xlink:href="#DejaVuSans-110"/>
      <use x="981.054688" xlink:href="#DejaVuSans-101"/>
      <use x="1042.578125" xlink:href="#DejaVuSans-108"/>
      <use x="1070.361328" xlink:href="#DejaVuSans-32"/>
      <use x="1102.148438" xlink:href="#DejaVuSans-70"/>
      <use x="1152.417969" xlink:href="#DejaVuSans-105"/>
      <use x="1180.201172" xlink:href="#DejaVuSans-114"/>
      <use x="1221.314453" xlink:href="#DejaVuSans-115"/>
      <use x="1273.414062" xlink:href="#DejaVuSans-116"/>
      <use x="1312.623047" xlink:href="#DejaVuSans-41"/>
     </g>
    </g>
    <g id="line2d_71">
     <path d="M 84.020625 132.18375 
L 108.020625 132.18375 
" style="fill:none;stroke:#ce4257;stroke-dasharray:1.5,2.475;stroke-dashoffset:0;stroke-width:1.5;"/>
    </g>
    <g id="line2d_72"/>
    <g id="text_22">
     <!-- convolve2D (Channel Last) -->
     <g transform="translate(117.620625 136.38375)scale(0.12 -0.12)">
      <use xlink:href="#DejaVuSans-99"/>
      <use x="54.980469" xlink:href="#DejaVuSans-111"/>
      <use x="116.162109" xlink:href="#DejaVuSans-110"/>
      <use x="179.541016" xlink:href="#DejaVuSans-118"/>
      <use x="238.720703" xlink:href="#DejaVuSans-111"/>
      <use x="299.902344" xlink:href="#DejaVuSans-108"/>
      <use x="327.685547" xlink:href="#DejaVuSans-118"/>
      <use x="386.865234" xlink:href="#DejaVuSans-101"/>
      <use x="448.388672" xlink:href="#DejaVuSans-50"/>
      <use x="512.011719" xlink:href="#DejaVuSans-68"/>
      <use x="589.013672" xlink:href="#DejaVuSans-32"/>
      <use x="620.800781" xlink:href="#DejaVuSans-40"/>
      <use x="659.814453" xlink:href="#DejaVuSans-67"/>
      <use x="729.638672" xlink:href="#DejaVuSans-104"/>
      <use x="793.017578" xlink:href="#DejaVuSans-97"/>
      <use x="854.296875" xlink:href="#DejaVuSans-110"/>
      <use x="917.675781" xlink:href="#DejaVuSans-110"/>
      <use x="981.054688" xlink:href="#DejaVuSans-101"/>
      <use x="1042.578125" xlink:href="#DejaVuSans-108"/>
      <use x="1070.361328" xlink:href="#DejaVuSans-32"/>
      <use x="1102.148438" xlink:href="#DejaVuSans-76"/>
      <use x="1157.861328" xlink:href="#DejaVuSans-97"/>
      <use x="1219.140625" xlink:href="#DejaVuSans-115"/>
      <use x="1271.240234" xlink:href="#DejaVuSans-116"/>
      <use x="1310.449219" xlink:href="#DejaVuSans-41"/>
     </g>
    </g>
   </g>
  </g>
 </g>
 <defs>
  <clipPath id="pac1e9b5188">
   <rect height="498.96" width="1339.2" x="73.220625" y="28.396875"/>
  </clipPath>
 </defs>
</svg>
