<?xml version="1.0" encoding="utf-8" standalone="no"?>
<!DOCTYPE svg PUBLIC "-//W3C//DTD SVG 1.1//EN"
  "http://www.w3.org/Graphics/SVG/1.1/DTD/svg11.dtd">
<!-- Created with matplotlib (https://matplotlib.org/) -->
<svg height="574.59125pt" version="1.1" viewBox="0 0 1412.560625 574.59125" width="1412.560625pt" xmlns="http://www.w3.org/2000/svg" xmlns:xlink="http://www.w3.org/1999/xlink">
 <defs>
  <style type="text/css">
*{stroke-linecap:butt;stroke-linejoin:round;}
  </style>
 </defs>
 <g id="figure_1">
  <g id="patch_1">
   <path d="M 0 574.59125 
L 1412.560625 574.59125 
L 1412.560625 0 
L 0 0 
z
" style="fill:#ffffff;"/>
  </g>
  <g id="axes_1">
   <g id="patch_2">
    <path d="M 66.160625 527.356875 
L 1405.360625 527.356875 
L 1405.360625 28.396875 
L 66.160625 28.396875 
z
" style="fill:#ffffff;"/>
   </g>
   <g id="matplotlib.axis_1">
    <g id="xtick_1">
     <g id="line2d_1">
      <defs>
       <path d="M 0 0 
L 0 3.5 
" id="m5e001e650e" style="stroke:#000000;stroke-width:0.8;"/>
      </defs>
      <g>
       <use style="stroke:#000000;stroke-width:0.8;" x="95.816569" xlink:href="#m5e001e650e" y="527.356875"/>
      </g>
     </g>
     <g id="text_1">
      <!-- 0 -->
      <defs>
       <path d="M 31.78125 66.40625 
Q 24.171875 66.40625 20.328125 58.90625 
Q 16.5 51.421875 16.5 36.375 
Q 16.5 21.390625 20.328125 13.890625 
Q 24.171875 6.390625 31.78125 6.390625 
Q 39.453125 6.390625 43.28125 13.890625 
Q 47.125 21.390625 47.125 36.375 
Q 47.125 51.421875 43.28125 58.90625 
Q 39.453125 66.40625 31.78125 66.40625 
z
M 31.78125 74.21875 
Q 44.046875 74.21875 50.515625 64.515625 
Q 56.984375 54.828125 56.984375 36.375 
Q 56.984375 17.96875 50.515625 8.265625 
Q 44.046875 -1.421875 31.78125 -1.421875 
Q 19.53125 -1.421875 13.0625 8.265625 
Q 6.59375 17.96875 6.59375 36.375 
Q 6.59375 54.828125 13.0625 64.515625 
Q 19.53125 74.21875 31.78125 74.21875 
z
" id="DejaVuSans-48"/>
      </defs>
      <g transform="translate(91.999069 543.475)scale(0.12 -0.12)">
       <use xlink:href="#DejaVuSans-48"/>
      </g>
     </g>
    </g>
    <g id="xtick_2">
     <g id="line2d_2">
      <g>
       <use style="stroke:#000000;stroke-width:0.8;" x="251.900485" xlink:href="#m5e001e650e" y="527.356875"/>
      </g>
     </g>
     <g id="text_2">
      <!-- 250 -->
      <defs>
       <path d="M 19.1875 8.296875 
L 53.609375 8.296875 
L 53.609375 0 
L 7.328125 0 
L 7.328125 8.296875 
Q 12.9375 14.109375 22.625 23.890625 
Q 32.328125 33.6875 34.8125 36.53125 
Q 39.546875 41.84375 41.421875 45.53125 
Q 43.3125 49.21875 43.3125 52.78125 
Q 43.3125 58.59375 39.234375 62.25 
Q 35.15625 65.921875 28.609375 65.921875 
Q 23.96875 65.921875 18.8125 64.3125 
Q 13.671875 62.703125 7.8125 59.421875 
L 7.8125 69.390625 
Q 13.765625 71.78125 18.9375 73 
Q 24.125 74.21875 28.421875 74.21875 
Q 39.75 74.21875 46.484375 68.546875 
Q 53.21875 62.890625 53.21875 53.421875 
Q 53.21875 48.921875 51.53125 44.890625 
Q 49.859375 40.875 45.40625 35.40625 
Q 44.1875 33.984375 37.640625 27.21875 
Q 31.109375 20.453125 19.1875 8.296875 
z
" id="DejaVuSans-50"/>
       <path d="M 10.796875 72.90625 
L 49.515625 72.90625 
L 49.515625 64.59375 
L 19.828125 64.59375 
L 19.828125 46.734375 
Q 21.96875 47.46875 24.109375 47.828125 
Q 26.265625 48.1875 28.421875 48.1875 
Q 40.625 48.1875 47.75 41.5 
Q 54.890625 34.8125 54.890625 23.390625 
Q 54.890625 11.625 47.5625 5.09375 
Q 40.234375 -1.421875 26.90625 -1.421875 
Q 22.3125 -1.421875 17.546875 -0.640625 
Q 12.796875 0.140625 7.71875 1.703125 
L 7.71875 11.625 
Q 12.109375 9.234375 16.796875 8.0625 
Q 21.484375 6.890625 26.703125 6.890625 
Q 35.15625 6.890625 40.078125 11.328125 
Q 45.015625 15.765625 45.015625 23.390625 
Q 45.015625 31 40.078125 35.4375 
Q 35.15625 39.890625 26.703125 39.890625 
Q 22.75 39.890625 18.8125 39.015625 
Q 14.890625 38.140625 10.796875 36.28125 
z
" id="DejaVuSans-53"/>
      </defs>
      <g transform="translate(240.447985 543.475)scale(0.12 -0.12)">
       <use xlink:href="#DejaVuSans-50"/>
       <use x="63.623047" xlink:href="#DejaVuSans-53"/>
       <use x="127.246094" xlink:href="#DejaVuSans-48"/>
      </g>
     </g>
    </g>
    <g id="xtick_3">
     <g id="line2d_3">
      <g>
       <use style="stroke:#000000;stroke-width:0.8;" x="407.984401" xlink:href="#m5e001e650e" y="527.356875"/>
      </g>
     </g>
     <g id="text_3">
      <!-- 500 -->
      <g transform="translate(396.531901 543.475)scale(0.12 -0.12)">
       <use xlink:href="#DejaVuSans-53"/>
       <use x="63.623047" xlink:href="#DejaVuSans-48"/>
       <use x="127.246094" xlink:href="#DejaVuSans-48"/>
      </g>
     </g>
    </g>
    <g id="xtick_4">
     <g id="line2d_4">
      <g>
       <use style="stroke:#000000;stroke-width:0.8;" x="564.068317" xlink:href="#m5e001e650e" y="527.356875"/>
      </g>
     </g>
     <g id="text_4">
      <!-- 750 -->
      <defs>
       <path d="M 8.203125 72.90625 
L 55.078125 72.90625 
L 55.078125 68.703125 
L 28.609375 0 
L 18.3125 0 
L 43.21875 64.59375 
L 8.203125 64.59375 
z
" id="DejaVuSans-55"/>
      </defs>
      <g transform="translate(552.615817 543.475)scale(0.12 -0.12)">
       <use xlink:href="#DejaVuSans-55"/>
       <use x="63.623047" xlink:href="#DejaVuSans-53"/>
       <use x="127.246094" xlink:href="#DejaVuSans-48"/>
      </g>
     </g>
    </g>
    <g id="xtick_5">
     <g id="line2d_5">
      <g>
       <use style="stroke:#000000;stroke-width:0.8;" x="720.152233" xlink:href="#m5e001e650e" y="527.356875"/>
      </g>
     </g>
     <g id="text_5">
      <!-- 1000 -->
      <defs>
       <path d="M 12.40625 8.296875 
L 28.515625 8.296875 
L 28.515625 63.921875 
L 10.984375 60.40625 
L 10.984375 69.390625 
L 28.421875 72.90625 
L 38.28125 72.90625 
L 38.28125 8.296875 
L 54.390625 8.296875 
L 54.390625 0 
L 12.40625 0 
z
" id="DejaVuSans-49"/>
      </defs>
      <g transform="translate(704.882233 543.475)scale(0.12 -0.12)">
       <use xlink:href="#DejaVuSans-49"/>
       <use x="63.623047" xlink:href="#DejaVuSans-48"/>
       <use x="127.246094" xlink:href="#DejaVuSans-48"/>
       <use x="190.869141" xlink:href="#DejaVuSans-48"/>
      </g>
     </g>
    </g>
    <g id="xtick_6">
     <g id="line2d_6">
      <g>
       <use style="stroke:#000000;stroke-width:0.8;" x="876.236149" xlink:href="#m5e001e650e" y="527.356875"/>
      </g>
     </g>
     <g id="text_6">
      <!-- 1250 -->
      <g transform="translate(860.966149 543.475)scale(0.12 -0.12)">
       <use xlink:href="#DejaVuSans-49"/>
       <use x="63.623047" xlink:href="#DejaVuSans-50"/>
       <use x="127.246094" xlink:href="#DejaVuSans-53"/>
       <use x="190.869141" xlink:href="#DejaVuSans-48"/>
      </g>
     </g>
    </g>
    <g id="xtick_7">
     <g id="line2d_7">
      <g>
       <use style="stroke:#000000;stroke-width:0.8;" x="1032.320066" xlink:href="#m5e001e650e" y="527.356875"/>
      </g>
     </g>
     <g id="text_7">
      <!-- 1500 -->
      <g transform="translate(1017.050066 543.475)scale(0.12 -0.12)">
       <use xlink:href="#DejaVuSans-49"/>
       <use x="63.623047" xlink:href="#DejaVuSans-53"/>
       <use x="127.246094" xlink:href="#DejaVuSans-48"/>
       <use x="190.869141" xlink:href="#DejaVuSans-48"/>
      </g>
     </g>
    </g>
    <g id="xtick_8">
     <g id="line2d_8">
      <g>
       <use style="stroke:#000000;stroke-width:0.8;" x="1188.403982" xlink:href="#m5e001e650e" y="527.356875"/>
      </g>
     </g>
     <g id="text_8">
      <!-- 1750 -->
      <g transform="translate(1173.133982 543.475)scale(0.12 -0.12)">
       <use xlink:href="#DejaVuSans-49"/>
       <use x="63.623047" xlink:href="#DejaVuSans-55"/>
       <use x="127.246094" xlink:href="#DejaVuSans-53"/>
       <use x="190.869141" xlink:href="#DejaVuSans-48"/>
      </g>
     </g>
    </g>
    <g id="xtick_9">
     <g id="line2d_9">
      <g>
       <use style="stroke:#000000;stroke-width:0.8;" x="1344.487898" xlink:href="#m5e001e650e" y="527.356875"/>
      </g>
     </g>
     <g id="text_9">
      <!-- 2000 -->
      <g transform="translate(1329.217898 543.475)scale(0.12 -0.12)">
       <use xlink:href="#DejaVuSans-50"/>
       <use x="63.623047" xlink:href="#DejaVuSans-48"/>
       <use x="127.246094" xlink:href="#DejaVuSans-48"/>
       <use x="190.869141" xlink:href="#DejaVuSans-48"/>
      </g>
     </g>
    </g>
    <g id="text_10">
     <!-- Size S -->
     <defs>
      <path d="M 53.515625 70.515625 
L 53.515625 60.890625 
Q 47.90625 63.578125 42.921875 64.890625 
Q 37.9375 66.21875 33.296875 66.21875 
Q 25.25 66.21875 20.875 63.09375 
Q 16.5 59.96875 16.5 54.203125 
Q 16.5 49.359375 19.40625 46.890625 
Q 22.3125 44.4375 30.421875 42.921875 
L 36.375 41.703125 
Q 47.40625 39.59375 52.65625 34.296875 
Q 57.90625 29 57.90625 20.125 
Q 57.90625 9.515625 50.796875 4.046875 
Q 43.703125 -1.421875 29.984375 -1.421875 
Q 24.8125 -1.421875 18.96875 -0.25 
Q 13.140625 0.921875 6.890625 3.21875 
L 6.890625 13.375 
Q 12.890625 10.015625 18.65625 8.296875 
Q 24.421875 6.59375 29.984375 6.59375 
Q 38.421875 6.59375 43.015625 9.90625 
Q 47.609375 13.234375 47.609375 19.390625 
Q 47.609375 24.75 44.3125 27.78125 
Q 41.015625 30.8125 33.5 32.328125 
L 27.484375 33.5 
Q 16.453125 35.6875 11.515625 40.375 
Q 6.59375 45.0625 6.59375 53.421875 
Q 6.59375 63.09375 13.40625 68.65625 
Q 20.21875 74.21875 32.171875 74.21875 
Q 37.3125 74.21875 42.625 73.28125 
Q 47.953125 72.359375 53.515625 70.515625 
z
" id="DejaVuSans-83"/>
      <path d="M 9.421875 54.6875 
L 18.40625 54.6875 
L 18.40625 0 
L 9.421875 0 
z
M 9.421875 75.984375 
L 18.40625 75.984375 
L 18.40625 64.59375 
L 9.421875 64.59375 
z
" id="DejaVuSans-105"/>
      <path d="M 5.515625 54.6875 
L 48.1875 54.6875 
L 48.1875 46.484375 
L 14.40625 7.171875 
L 48.1875 7.171875 
L 48.1875 0 
L 4.296875 0 
L 4.296875 8.203125 
L 38.09375 47.515625 
L 5.515625 47.515625 
z
" id="DejaVuSans-122"/>
      <path d="M 56.203125 29.59375 
L 56.203125 25.203125 
L 14.890625 25.203125 
Q 15.484375 15.921875 20.484375 11.0625 
Q 25.484375 6.203125 34.421875 6.203125 
Q 39.59375 6.203125 44.453125 7.46875 
Q 49.3125 8.734375 54.109375 11.28125 
L 54.109375 2.78125 
Q 49.265625 0.734375 44.1875 -0.34375 
Q 39.109375 -1.421875 33.890625 -1.421875 
Q 20.796875 -1.421875 13.15625 6.1875 
Q 5.515625 13.8125 5.515625 26.8125 
Q 5.515625 40.234375 12.765625 48.109375 
Q 20.015625 56 32.328125 56 
Q 43.359375 56 49.78125 48.890625 
Q 56.203125 41.796875 56.203125 29.59375 
z
M 47.21875 32.234375 
Q 47.125 39.59375 43.09375 43.984375 
Q 39.0625 48.390625 32.421875 48.390625 
Q 24.90625 48.390625 20.390625 44.140625 
Q 15.875 39.890625 15.1875 32.171875 
z
" id="DejaVuSans-101"/>
      <path id="DejaVuSans-32"/>
     </defs>
     <g transform="translate(708.711406 563.647812)scale(0.18 -0.18)">
      <use xlink:href="#DejaVuSans-83"/>
      <use x="63.476562" xlink:href="#DejaVuSans-105"/>
      <use x="91.259766" xlink:href="#DejaVuSans-122"/>
      <use x="143.75" xlink:href="#DejaVuSans-101"/>
      <use x="205.273438" xlink:href="#DejaVuSans-32"/>
      <use x="237.060547" xlink:href="#DejaVuSans-83"/>
     </g>
    </g>
   </g>
   <g id="matplotlib.axis_2">
    <g id="ytick_1">
     <g id="line2d_10">
      <path clip-path="url(#pb1d0ae05f6)" d="M 66.160625 504.731321 
L 1405.360625 504.731321 
" style="fill:none;stroke:#b0b0b0;stroke-linecap:square;stroke-width:0.8;"/>
     </g>
     <g id="line2d_11">
      <defs>
       <path d="M 0 0 
L -3.5 0 
" id="mc39ea14dd8" style="stroke:#000000;stroke-width:0.8;"/>
      </defs>
      <g>
       <use style="stroke:#000000;stroke-width:0.8;" x="66.160625" xlink:href="#mc39ea14dd8" y="504.731321"/>
      </g>
     </g>
     <g id="text_11">
      <!-- 0 -->
      <g transform="translate(48.980625 510.810071)scale(0.16 -0.16)">
       <use xlink:href="#DejaVuSans-48"/>
      </g>
     </g>
    </g>
    <g id="ytick_2">
     <g id="line2d_12">
      <path clip-path="url(#pb1d0ae05f6)" d="M 66.160625 429.318634 
L 1405.360625 429.318634 
" style="fill:none;stroke:#b0b0b0;stroke-linecap:square;stroke-width:0.8;"/>
     </g>
     <g id="line2d_13">
      <g>
       <use style="stroke:#000000;stroke-width:0.8;" x="66.160625" xlink:href="#mc39ea14dd8" y="429.318634"/>
      </g>
     </g>
     <g id="text_12">
      <!-- 100 -->
      <g transform="translate(28.620625 435.397384)scale(0.16 -0.16)">
       <use xlink:href="#DejaVuSans-49"/>
       <use x="63.623047" xlink:href="#DejaVuSans-48"/>
       <use x="127.246094" xlink:href="#DejaVuSans-48"/>
      </g>
     </g>
    </g>
    <g id="ytick_3">
     <g id="line2d_14">
      <path clip-path="url(#pb1d0ae05f6)" d="M 66.160625 353.905946 
L 1405.360625 353.905946 
" style="fill:none;stroke:#b0b0b0;stroke-linecap:square;stroke-width:0.8;"/>
     </g>
     <g id="line2d_15">
      <g>
       <use style="stroke:#000000;stroke-width:0.8;" x="66.160625" xlink:href="#mc39ea14dd8" y="353.905946"/>
      </g>
     </g>
     <g id="text_13">
      <!-- 200 -->
      <g transform="translate(28.620625 359.984696)scale(0.16 -0.16)">
       <use xlink:href="#DejaVuSans-50"/>
       <use x="63.623047" xlink:href="#DejaVuSans-48"/>
       <use x="127.246094" xlink:href="#DejaVuSans-48"/>
      </g>
     </g>
    </g>
    <g id="ytick_4">
     <g id="line2d_16">
      <path clip-path="url(#pb1d0ae05f6)" d="M 66.160625 278.493259 
L 1405.360625 278.493259 
" style="fill:none;stroke:#b0b0b0;stroke-linecap:square;stroke-width:0.8;"/>
     </g>
     <g id="line2d_17">
      <g>
       <use style="stroke:#000000;stroke-width:0.8;" x="66.160625" xlink:href="#mc39ea14dd8" y="278.493259"/>
      </g>
     </g>
     <g id="text_14">
      <!-- 300 -->
      <defs>
       <path d="M 40.578125 39.3125 
Q 47.65625 37.796875 51.625 33 
Q 55.609375 28.21875 55.609375 21.1875 
Q 55.609375 10.40625 48.1875 4.484375 
Q 40.765625 -1.421875 27.09375 -1.421875 
Q 22.515625 -1.421875 17.65625 -0.515625 
Q 12.796875 0.390625 7.625 2.203125 
L 7.625 11.71875 
Q 11.71875 9.328125 16.59375 8.109375 
Q 21.484375 6.890625 26.8125 6.890625 
Q 36.078125 6.890625 40.9375 10.546875 
Q 45.796875 14.203125 45.796875 21.1875 
Q 45.796875 27.640625 41.28125 31.265625 
Q 36.765625 34.90625 28.71875 34.90625 
L 20.21875 34.90625 
L 20.21875 43.015625 
L 29.109375 43.015625 
Q 36.375 43.015625 40.234375 45.921875 
Q 44.09375 48.828125 44.09375 54.296875 
Q 44.09375 59.90625 40.109375 62.90625 
Q 36.140625 65.921875 28.71875 65.921875 
Q 24.65625 65.921875 20.015625 65.03125 
Q 15.375 64.15625 9.8125 62.3125 
L 9.8125 71.09375 
Q 15.4375 72.65625 20.34375 73.4375 
Q 25.25 74.21875 29.59375 74.21875 
Q 40.828125 74.21875 47.359375 69.109375 
Q 53.90625 64.015625 53.90625 55.328125 
Q 53.90625 49.265625 50.4375 45.09375 
Q 46.96875 40.921875 40.578125 39.3125 
z
" id="DejaVuSans-51"/>
      </defs>
      <g transform="translate(28.620625 284.572009)scale(0.16 -0.16)">
       <use xlink:href="#DejaVuSans-51"/>
       <use x="63.623047" xlink:href="#DejaVuSans-48"/>
       <use x="127.246094" xlink:href="#DejaVuSans-48"/>
      </g>
     </g>
    </g>
    <g id="ytick_5">
     <g id="line2d_18">
      <path clip-path="url(#pb1d0ae05f6)" d="M 66.160625 203.080572 
L 1405.360625 203.080572 
" style="fill:none;stroke:#b0b0b0;stroke-linecap:square;stroke-width:0.8;"/>
     </g>
     <g id="line2d_19">
      <g>
       <use style="stroke:#000000;stroke-width:0.8;" x="66.160625" xlink:href="#mc39ea14dd8" y="203.080572"/>
      </g>
     </g>
     <g id="text_15">
      <!-- 400 -->
      <defs>
       <path d="M 37.796875 64.3125 
L 12.890625 25.390625 
L 37.796875 25.390625 
z
M 35.203125 72.90625 
L 47.609375 72.90625 
L 47.609375 25.390625 
L 58.015625 25.390625 
L 58.015625 17.1875 
L 47.609375 17.1875 
L 47.609375 0 
L 37.796875 0 
L 37.796875 17.1875 
L 4.890625 17.1875 
L 4.890625 26.703125 
z
" id="DejaVuSans-52"/>
      </defs>
      <g transform="translate(28.620625 209.159322)scale(0.16 -0.16)">
       <use xlink:href="#DejaVuSans-52"/>
       <use x="63.623047" xlink:href="#DejaVuSans-48"/>
       <use x="127.246094" xlink:href="#DejaVuSans-48"/>
      </g>
     </g>
    </g>
    <g id="ytick_6">
     <g id="line2d_20">
      <path clip-path="url(#pb1d0ae05f6)" d="M 66.160625 127.667885 
L 1405.360625 127.667885 
" style="fill:none;stroke:#b0b0b0;stroke-linecap:square;stroke-width:0.8;"/>
     </g>
     <g id="line2d_21">
      <g>
       <use style="stroke:#000000;stroke-width:0.8;" x="66.160625" xlink:href="#mc39ea14dd8" y="127.667885"/>
      </g>
     </g>
     <g id="text_16">
      <!-- 500 -->
      <g transform="translate(28.620625 133.746635)scale(0.16 -0.16)">
       <use xlink:href="#DejaVuSans-53"/>
       <use x="63.623047" xlink:href="#DejaVuSans-48"/>
       <use x="127.246094" xlink:href="#DejaVuSans-48"/>
      </g>
     </g>
    </g>
    <g id="ytick_7">
     <g id="line2d_22">
      <path clip-path="url(#pb1d0ae05f6)" d="M 66.160625 52.255198 
L 1405.360625 52.255198 
" style="fill:none;stroke:#b0b0b0;stroke-linecap:square;stroke-width:0.8;"/>
     </g>
     <g id="line2d_23">
      <g>
       <use style="stroke:#000000;stroke-width:0.8;" x="66.160625" xlink:href="#mc39ea14dd8" y="52.255198"/>
      </g>
     </g>
     <g id="text_17">
      <!-- 600 -->
      <defs>
       <path d="M 33.015625 40.375 
Q 26.375 40.375 22.484375 35.828125 
Q 18.609375 31.296875 18.609375 23.390625 
Q 18.609375 15.53125 22.484375 10.953125 
Q 26.375 6.390625 33.015625 6.390625 
Q 39.65625 6.390625 43.53125 10.953125 
Q 47.40625 15.53125 47.40625 23.390625 
Q 47.40625 31.296875 43.53125 35.828125 
Q 39.65625 40.375 33.015625 40.375 
z
M 52.59375 71.296875 
L 52.59375 62.3125 
Q 48.875 64.0625 45.09375 64.984375 
Q 41.3125 65.921875 37.59375 65.921875 
Q 27.828125 65.921875 22.671875 59.328125 
Q 17.53125 52.734375 16.796875 39.40625 
Q 19.671875 43.65625 24.015625 45.921875 
Q 28.375 48.1875 33.59375 48.1875 
Q 44.578125 48.1875 50.953125 41.515625 
Q 57.328125 34.859375 57.328125 23.390625 
Q 57.328125 12.15625 50.6875 5.359375 
Q 44.046875 -1.421875 33.015625 -1.421875 
Q 20.359375 -1.421875 13.671875 8.265625 
Q 6.984375 17.96875 6.984375 36.375 
Q 6.984375 53.65625 15.1875 63.9375 
Q 23.390625 74.21875 37.203125 74.21875 
Q 40.921875 74.21875 44.703125 73.484375 
Q 48.484375 72.75 52.59375 71.296875 
z
" id="DejaVuSans-54"/>
      </defs>
      <g transform="translate(28.620625 58.333948)scale(0.16 -0.16)">
       <use xlink:href="#DejaVuSans-54"/>
       <use x="63.623047" xlink:href="#DejaVuSans-48"/>
       <use x="127.246094" xlink:href="#DejaVuSans-48"/>
      </g>
     </g>
    </g>
    <g id="text_18">
     <!-- Minimum Time (ms) -->
     <defs>
      <path d="M 9.8125 72.90625 
L 24.515625 72.90625 
L 43.109375 23.296875 
L 61.8125 72.90625 
L 76.515625 72.90625 
L 76.515625 0 
L 66.890625 0 
L 66.890625 64.015625 
L 48.09375 14.015625 
L 38.1875 14.015625 
L 19.390625 64.015625 
L 19.390625 0 
L 9.8125 0 
z
" id="DejaVuSans-77"/>
      <path d="M 54.890625 33.015625 
L 54.890625 0 
L 45.90625 0 
L 45.90625 32.71875 
Q 45.90625 40.484375 42.875 44.328125 
Q 39.84375 48.1875 33.796875 48.1875 
Q 26.515625 48.1875 22.3125 43.546875 
Q 18.109375 38.921875 18.109375 30.90625 
L 18.109375 0 
L 9.078125 0 
L 9.078125 54.6875 
L 18.109375 54.6875 
L 18.109375 46.1875 
Q 21.34375 51.125 25.703125 53.5625 
Q 30.078125 56 35.796875 56 
Q 45.21875 56 50.046875 50.171875 
Q 54.890625 44.34375 54.890625 33.015625 
z
" id="DejaVuSans-110"/>
      <path d="M 52 44.1875 
Q 55.375 50.25 60.0625 53.125 
Q 64.75 56 71.09375 56 
Q 79.640625 56 84.28125 50.015625 
Q 88.921875 44.046875 88.921875 33.015625 
L 88.921875 0 
L 79.890625 0 
L 79.890625 32.71875 
Q 79.890625 40.578125 77.09375 44.375 
Q 74.3125 48.1875 68.609375 48.1875 
Q 61.625 48.1875 57.5625 43.546875 
Q 53.515625 38.921875 53.515625 30.90625 
L 53.515625 0 
L 44.484375 0 
L 44.484375 32.71875 
Q 44.484375 40.625 41.703125 44.40625 
Q 38.921875 48.1875 33.109375 48.1875 
Q 26.21875 48.1875 22.15625 43.53125 
Q 18.109375 38.875 18.109375 30.90625 
L 18.109375 0 
L 9.078125 0 
L 9.078125 54.6875 
L 18.109375 54.6875 
L 18.109375 46.1875 
Q 21.1875 51.21875 25.484375 53.609375 
Q 29.78125 56 35.6875 56 
Q 41.65625 56 45.828125 52.96875 
Q 50 49.953125 52 44.1875 
z
" id="DejaVuSans-109"/>
      <path d="M 8.5 21.578125 
L 8.5 54.6875 
L 17.484375 54.6875 
L 17.484375 21.921875 
Q 17.484375 14.15625 20.5 10.265625 
Q 23.53125 6.390625 29.59375 6.390625 
Q 36.859375 6.390625 41.078125 11.03125 
Q 45.3125 15.671875 45.3125 23.6875 
L 45.3125 54.6875 
L 54.296875 54.6875 
L 54.296875 0 
L 45.3125 0 
L 45.3125 8.40625 
Q 42.046875 3.421875 37.71875 1 
Q 33.40625 -1.421875 27.6875 -1.421875 
Q 18.265625 -1.421875 13.375 4.4375 
Q 8.5 10.296875 8.5 21.578125 
z
M 31.109375 56 
z
" id="DejaVuSans-117"/>
      <path d="M -0.296875 72.90625 
L 61.375 72.90625 
L 61.375 64.59375 
L 35.5 64.59375 
L 35.5 0 
L 25.59375 0 
L 25.59375 64.59375 
L -0.296875 64.59375 
z
" id="DejaVuSans-84"/>
      <path d="M 31 75.875 
Q 24.46875 64.65625 21.28125 53.65625 
Q 18.109375 42.671875 18.109375 31.390625 
Q 18.109375 20.125 21.3125 9.0625 
Q 24.515625 -2 31 -13.1875 
L 23.1875 -13.1875 
Q 15.875 -1.703125 12.234375 9.375 
Q 8.59375 20.453125 8.59375 31.390625 
Q 8.59375 42.28125 12.203125 53.3125 
Q 15.828125 64.359375 23.1875 75.875 
z
" id="DejaVuSans-40"/>
      <path d="M 44.28125 53.078125 
L 44.28125 44.578125 
Q 40.484375 46.53125 36.375 47.5 
Q 32.28125 48.484375 27.875 48.484375 
Q 21.1875 48.484375 17.84375 46.4375 
Q 14.5 44.390625 14.5 40.28125 
Q 14.5 37.15625 16.890625 35.375 
Q 19.28125 33.59375 26.515625 31.984375 
L 29.59375 31.296875 
Q 39.15625 29.25 43.1875 25.515625 
Q 47.21875 21.78125 47.21875 15.09375 
Q 47.21875 7.46875 41.1875 3.015625 
Q 35.15625 -1.421875 24.609375 -1.421875 
Q 20.21875 -1.421875 15.453125 -0.5625 
Q 10.6875 0.296875 5.421875 2 
L 5.421875 11.28125 
Q 10.40625 8.6875 15.234375 7.390625 
Q 20.0625 6.109375 24.8125 6.109375 
Q 31.15625 6.109375 34.5625 8.28125 
Q 37.984375 10.453125 37.984375 14.40625 
Q 37.984375 18.0625 35.515625 20.015625 
Q 33.0625 21.96875 24.703125 23.78125 
L 21.578125 24.515625 
Q 13.234375 26.265625 9.515625 29.90625 
Q 5.8125 33.546875 5.8125 39.890625 
Q 5.8125 47.609375 11.28125 51.796875 
Q 16.75 56 26.8125 56 
Q 31.78125 56 36.171875 55.265625 
Q 40.578125 54.546875 44.28125 53.078125 
z
" id="DejaVuSans-115"/>
      <path d="M 8.015625 75.875 
L 15.828125 75.875 
Q 23.140625 64.359375 26.78125 53.3125 
Q 30.421875 42.28125 30.421875 31.390625 
Q 30.421875 20.453125 26.78125 9.375 
Q 23.140625 -1.703125 15.828125 -13.1875 
L 8.015625 -13.1875 
Q 14.5 -2 17.703125 9.0625 
Q 20.90625 20.125 20.90625 31.390625 
Q 20.90625 42.671875 17.703125 53.65625 
Q 14.5 64.65625 8.015625 75.875 
z
" id="DejaVuSans-41"/>
     </defs>
     <g transform="translate(20.877187 367.802344)rotate(-90)scale(0.18 -0.18)">
      <use xlink:href="#DejaVuSans-77"/>
      <use x="86.279297" xlink:href="#DejaVuSans-105"/>
      <use x="114.0625" xlink:href="#DejaVuSans-110"/>
      <use x="177.441406" xlink:href="#DejaVuSans-105"/>
      <use x="205.224609" xlink:href="#DejaVuSans-109"/>
      <use x="302.636719" xlink:href="#DejaVuSans-117"/>
      <use x="366.015625" xlink:href="#DejaVuSans-109"/>
      <use x="463.427734" xlink:href="#DejaVuSans-32"/>
      <use x="495.214844" xlink:href="#DejaVuSans-84"/>
      <use x="553.173828" xlink:href="#DejaVuSans-105"/>
      <use x="580.957031" xlink:href="#DejaVuSans-109"/>
      <use x="678.369141" xlink:href="#DejaVuSans-101"/>
      <use x="739.892578" xlink:href="#DejaVuSans-32"/>
      <use x="771.679688" xlink:href="#DejaVuSans-40"/>
      <use x="810.693359" xlink:href="#DejaVuSans-109"/>
      <use x="908.105469" xlink:href="#DejaVuSans-115"/>
      <use x="960.205078" xlink:href="#DejaVuSans-41"/>
     </g>
    </g>
   </g>
   <g id="line2d_24">
    <path clip-path="url(#pb1d0ae05f6)" d="M 127.033352 504.618223 
L 158.250135 504.251363 
L 189.466919 503.534586 
L 220.683702 502.534447 
L 251.900485 501.299311 
L 283.117268 499.689457 
L 314.334052 497.92153 
L 345.550835 495.788689 
L 376.767618 493.419418 
L 407.984401 490.120112 
L 439.201184 487.449246 
L 470.417968 483.992832 
L 501.634751 479.794713 
L 532.851534 474.580108 
L 564.068317 470.141832 
L 595.285101 464.39641 
L 626.501884 459.135335 
L 657.718667 453.47426 
L 688.93545 447.124407 
L 720.152233 440.659995 
L 751.369017 433.246378 
L 782.5858 425.783664 
L 813.802583 418.713724 
L 845.019366 411.371864 
L 876.236149 404.038244 
L 907.452933 395.14726 
L 938.669716 385.720674 
L 969.886499 376.588669 
L 1001.103282 367.751244 
L 1032.320066 358.282576 
L 1063.536849 348.182662 
L 1094.753632 338.082749 
L 1125.970415 327.982835 
L 1157.187198 329.946707 
L 1188.403982 320.127347 
L 1219.620765 306.773017 
L 1250.837548 297.346431 
L 1282.054331 285.563199 
L 1313.271115 274.95829 
L 1344.487898 263.175057 
" style="fill:none;stroke:#55868c;stroke-linecap:square;stroke-width:1.5;"/>
   </g>
   <g id="line2d_25">
    <path clip-path="url(#pb1d0ae05f6)" d="M 127.033352 504.612962 
L 158.250135 504.340716 
L 189.466919 503.941844 
L 220.683702 503.422073 
L 251.900485 502.786081 
L 283.117268 502.012113 
L 314.334052 501.061802 
L 345.550835 500.04959 
L 376.767618 498.70269 
L 407.984401 497.41759 
L 439.201184 495.80184 
L 470.417968 494.257336 
L 501.634751 492.3662 
L 532.851534 489.70343 
L 564.068317 488.345263 
L 595.285101 485.611359 
L 626.501884 483.170512 
L 657.718667 480.302668 
L 688.93545 477.84138 
L 720.152233 473.886977 
L 751.369017 470.521936 
L 782.5858 467.698305 
L 813.802583 463.254343 
L 845.019366 459.205196 
L 876.236149 454.79286 
L 907.452933 447.779031 
L 938.669716 442.132899 
L 969.886499 436.388573 
L 1001.103282 430.665289 
L 1032.320066 424.967902 
L 1063.536849 368.382489 
L 1094.753632 359.965895 
L 1125.970415 349.865981 
L 1157.187198 353.232619 
L 1188.403982 343.693812 
L 1219.620765 333.874451 
L 1250.837548 324.055091 
L 1282.054331 314.235731 
L 1313.271115 304.416371 
L 1344.487898 294.989785 
" style="fill:none;stroke:#55868c;stroke-dasharray:1.5,2.475;stroke-dashoffset:0;stroke-width:1.5;"/>
   </g>
   <g id="line2d_26">
    <path clip-path="url(#pb1d0ae05f6)" d="M 127.033352 504.620853 
L 158.250135 504.352574 
L 189.466919 503.939635 
L 220.683702 503.415647 
L 251.900485 502.763722 
L 283.117268 501.867798 
L 314.334052 500.875778 
L 345.550835 499.689457 
L 376.767618 498.051654 
L 407.984401 496.262122 
L 439.201184 494.597741 
L 470.417968 492.686239 
L 501.634751 489.532659 
L 532.851534 486.214813 
L 564.068317 482.919805 
L 595.285101 479.44048 
L 626.501884 475.927864 
L 657.718667 471.959206 
L 688.93545 467.698305 
L 720.152233 463.254343 
L 751.369017 459.135335 
L 782.5858 454.79286 
L 813.802583 449.53618 
L 845.019366 445.160535 
L 876.236149 439.923543 
L 907.452933 431.506948 
L 938.669716 425.874304 
L 969.886499 419.302886 
L 1001.103282 413.679071 
L 1032.320066 405.752169 
L 1063.536849 349.865981 
L 1094.753632 339.766068 
L 1125.970415 329.946707 
L 1157.187198 331.910579 
L 1188.403982 320.127347 
L 1219.620765 311.48631 
L 1250.837548 299.703078 
L 1282.054331 290.276492 
L 1313.271115 277.904098 
L 1344.487898 266.120865 
" style="fill:none;stroke:#eec584;stroke-linecap:square;stroke-width:1.5;"/>
   </g>
   <g id="line2d_27">
    <path clip-path="url(#pb1d0ae05f6)" d="M 127.033352 504.617702 
L 158.250135 504.352574 
L 189.466919 503.96541 
L 220.683702 503.473479 
L 251.900485 502.837587 
L 283.117268 502.09674 
L 314.334052 501.184528 
L 345.550835 500.154797 
L 376.767618 498.705804 
L 407.984401 497.517097 
L 439.201184 496.078009 
L 470.417968 494.362076 
L 501.634751 492.3662 
L 532.851534 490.215744 
L 564.068317 487.792924 
L 595.285101 485.878149 
L 626.501884 483.521502 
L 657.718667 480.34277 
L 688.93545 478.143514 
L 720.152233 474.580108 
L 751.369017 470.902041 
L 782.5858 468.119134 
L 813.802583 463.943209 
L 845.019366 460.053231 
L 876.236149 454.79286 
L 907.452933 447.779031 
L 938.669716 442.349502 
L 969.886499 437.959671 
L 1001.103282 432.348608 
L 1032.320066 425.874304 
L 1063.536849 368.382489 
L 1094.753632 361.649213 
L 1125.970415 351.5493 
L 1157.187198 354.915938 
L 1188.403982 344.816024 
L 1219.620765 337.802196 
L 1250.837548 326.018963 
L 1282.054331 318.163475 
L 1313.271115 306.773017 
L 1344.487898 297.346431 
" style="fill:none;stroke:#eec584;stroke-dasharray:1.5,2.475;stroke-dashoffset:0;stroke-width:1.5;"/>
   </g>
   <g id="line2d_28">
    <path clip-path="url(#pb1d0ae05f6)" d="M 127.033352 504.657675 
L 158.250135 504.159255 
L 189.466919 503.372273 
L 220.683702 502.302926 
L 251.900485 500.803576 
L 283.117268 498.839704 
L 314.334052 496.722405 
L 345.550835 494.244244 
L 376.767618 491.219881 
L 407.984401 488.345263 
L 439.201184 484.699826 
L 470.417968 480.914149 
L 501.634751 477.024801 
L 532.851534 472.327432 
L 564.068317 468.119134 
L 595.285101 461.184592 
L 626.501884 406.839852 
L 657.718667 405.109447 
L 688.93545 397.503906 
L 720.152233 385.720674 
L 751.369017 377.734261 
L 782.5858 366.27834 
L 813.802583 354.915938 
L 845.019366 343.132705 
L 876.236149 331.910579 
L 907.452933 320.127347 
L 938.669716 304.416371 
L 969.886499 292.633138 
L 1001.103282 276.136613 
L 1032.320066 263.175057 
L 1063.536849 248.446017 
L 1094.753632 227.82536 
L 1125.970415 210.150512 
L 1157.187198 174.800815 
L 1188.403982 151.23435 
L 1219.620765 135.523374 
L 1250.837548 115.884653 
L 1282.054331 96.245932 
L 1313.271115 68.751724 
L 1344.487898 51.076875 
" style="fill:none;stroke:#ce4257;stroke-linecap:square;stroke-width:1.5;"/>
   </g>
   <g id="line2d_29">
    <path clip-path="url(#pb1d0ae05f6)" d="M 127.033352 504.676875 
L 158.250135 504.365199 
L 189.466919 503.875195 
L 220.683702 503.203183 
L 251.900485 502.192545 
L 283.117268 500.943853 
L 314.334052 499.520645 
L 345.550835 497.831928 
L 376.767618 495.893896 
L 407.984401 494.008579 
L 439.201184 491.347896 
L 470.417968 488.849573 
L 501.634751 486.214813 
L 532.851534 483.285838 
L 564.068317 480.068741 
L 595.285101 475.641466 
L 626.501884 412.278267 
L 657.718667 412.607868 
L 688.93545 402.967041 
L 720.152233 393.968936 
L 751.369017 385.589749 
L 782.5858 376.588669 
L 813.802583 365.015851 
L 845.019366 354.915938 
L 876.236149 343.693812 
L 907.452933 331.910579 
L 938.669716 320.127347 
L 969.886499 304.416371 
L 1001.103282 290.669266 
L 1032.320066 278.493259 
L 1063.536849 266.120865 
L 1094.753632 245.500209 
L 1125.970415 233.716976 
L 1157.187198 198.367279 
L 1188.403982 174.800815 
L 1219.620765 159.089838 
L 1250.837548 139.451118 
L 1282.054331 119.812397 
L 1313.271115 104.101421 
L 1344.487898 80.534956 
" style="fill:none;stroke:#ce4257;stroke-dasharray:1.5,2.475;stroke-dashoffset:0;stroke-width:1.5;"/>
   </g>
   <g id="patch_3">
    <path d="M 66.160625 527.356875 
L 66.160625 28.396875 
" style="fill:none;stroke:#000000;stroke-linecap:square;stroke-linejoin:miter;stroke-width:0.8;"/>
   </g>
   <g id="patch_4">
    <path d="M 1405.360625 527.356875 
L 1405.360625 28.396875 
" style="fill:none;stroke:#000000;stroke-linecap:square;stroke-linejoin:miter;stroke-width:0.8;"/>
   </g>
   <g id="patch_5">
    <path d="M 66.160625 527.356875 
L 1405.360625 527.356875 
" style="fill:none;stroke:#000000;stroke-linecap:square;stroke-linejoin:miter;stroke-width:0.8;"/>
   </g>
   <g id="patch_6">
    <path d="M 66.160625 28.396875 
L 1405.360625 28.396875 
" style="fill:none;stroke:#000000;stroke-linecap:square;stroke-linejoin:miter;stroke-width:0.8;"/>
   </g>
   <g id="text_19">
    <!-- SeparableConvolve Implementations vs Explicit Implementation -->
    <defs>
     <path d="M 18.109375 8.203125 
L 18.109375 -20.796875 
L 9.078125 -20.796875 
L 9.078125 54.6875 
L 18.109375 54.6875 
L 18.109375 46.390625 
Q 20.953125 51.265625 25.265625 53.625 
Q 29.59375 56 35.59375 56 
Q 45.5625 56 51.78125 48.09375 
Q 58.015625 40.1875 58.015625 27.296875 
Q 58.015625 14.40625 51.78125 6.484375 
Q 45.5625 -1.421875 35.59375 -1.421875 
Q 29.59375 -1.421875 25.265625 0.953125 
Q 20.953125 3.328125 18.109375 8.203125 
z
M 48.6875 27.296875 
Q 48.6875 37.203125 44.609375 42.84375 
Q 40.53125 48.484375 33.40625 48.484375 
Q 26.265625 48.484375 22.1875 42.84375 
Q 18.109375 37.203125 18.109375 27.296875 
Q 18.109375 17.390625 22.1875 11.75 
Q 26.265625 6.109375 33.40625 6.109375 
Q 40.53125 6.109375 44.609375 11.75 
Q 48.6875 17.390625 48.6875 27.296875 
z
" id="DejaVuSans-112"/>
     <path d="M 34.28125 27.484375 
Q 23.390625 27.484375 19.1875 25 
Q 14.984375 22.515625 14.984375 16.5 
Q 14.984375 11.71875 18.140625 8.90625 
Q 21.296875 6.109375 26.703125 6.109375 
Q 34.1875 6.109375 38.703125 11.40625 
Q 43.21875 16.703125 43.21875 25.484375 
L 43.21875 27.484375 
z
M 52.203125 31.203125 
L 52.203125 0 
L 43.21875 0 
L 43.21875 8.296875 
Q 40.140625 3.328125 35.546875 0.953125 
Q 30.953125 -1.421875 24.3125 -1.421875 
Q 15.921875 -1.421875 10.953125 3.296875 
Q 6 8.015625 6 15.921875 
Q 6 25.140625 12.171875 29.828125 
Q 18.359375 34.515625 30.609375 34.515625 
L 43.21875 34.515625 
L 43.21875 35.40625 
Q 43.21875 41.609375 39.140625 45 
Q 35.0625 48.390625 27.6875 48.390625 
Q 23 48.390625 18.546875 47.265625 
Q 14.109375 46.140625 10.015625 43.890625 
L 10.015625 52.203125 
Q 14.9375 54.109375 19.578125 55.046875 
Q 24.21875 56 28.609375 56 
Q 40.484375 56 46.34375 49.84375 
Q 52.203125 43.703125 52.203125 31.203125 
z
" id="DejaVuSans-97"/>
     <path d="M 41.109375 46.296875 
Q 39.59375 47.171875 37.8125 47.578125 
Q 36.03125 48 33.890625 48 
Q 26.265625 48 22.1875 43.046875 
Q 18.109375 38.09375 18.109375 28.8125 
L 18.109375 0 
L 9.078125 0 
L 9.078125 54.6875 
L 18.109375 54.6875 
L 18.109375 46.1875 
Q 20.953125 51.171875 25.484375 53.578125 
Q 30.03125 56 36.53125 56 
Q 37.453125 56 38.578125 55.875 
Q 39.703125 55.765625 41.0625 55.515625 
z
" id="DejaVuSans-114"/>
     <path d="M 48.6875 27.296875 
Q 48.6875 37.203125 44.609375 42.84375 
Q 40.53125 48.484375 33.40625 48.484375 
Q 26.265625 48.484375 22.1875 42.84375 
Q 18.109375 37.203125 18.109375 27.296875 
Q 18.109375 17.390625 22.1875 11.75 
Q 26.265625 6.109375 33.40625 6.109375 
Q 40.53125 6.109375 44.609375 11.75 
Q 48.6875 17.390625 48.6875 27.296875 
z
M 18.109375 46.390625 
Q 20.953125 51.265625 25.265625 53.625 
Q 29.59375 56 35.59375 56 
Q 45.5625 56 51.78125 48.09375 
Q 58.015625 40.1875 58.015625 27.296875 
Q 58.015625 14.40625 51.78125 6.484375 
Q 45.5625 -1.421875 35.59375 -1.421875 
Q 29.59375 -1.421875 25.265625 0.953125 
Q 20.953125 3.328125 18.109375 8.203125 
L 18.109375 0 
L 9.078125 0 
L 9.078125 75.984375 
L 18.109375 75.984375 
z
" id="DejaVuSans-98"/>
     <path d="M 9.421875 75.984375 
L 18.40625 75.984375 
L 18.40625 0 
L 9.421875 0 
z
" id="DejaVuSans-108"/>
     <path d="M 64.40625 67.28125 
L 64.40625 56.890625 
Q 59.421875 61.53125 53.78125 63.8125 
Q 48.140625 66.109375 41.796875 66.109375 
Q 29.296875 66.109375 22.65625 58.46875 
Q 16.015625 50.828125 16.015625 36.375 
Q 16.015625 21.96875 22.65625 14.328125 
Q 29.296875 6.6875 41.796875 6.6875 
Q 48.140625 6.6875 53.78125 8.984375 
Q 59.421875 11.28125 64.40625 15.921875 
L 64.40625 5.609375 
Q 59.234375 2.09375 53.4375 0.328125 
Q 47.65625 -1.421875 41.21875 -1.421875 
Q 24.65625 -1.421875 15.125 8.703125 
Q 5.609375 18.84375 5.609375 36.375 
Q 5.609375 53.953125 15.125 64.078125 
Q 24.65625 74.21875 41.21875 74.21875 
Q 47.75 74.21875 53.53125 72.484375 
Q 59.328125 70.75 64.40625 67.28125 
z
" id="DejaVuSans-67"/>
     <path d="M 30.609375 48.390625 
Q 23.390625 48.390625 19.1875 42.75 
Q 14.984375 37.109375 14.984375 27.296875 
Q 14.984375 17.484375 19.15625 11.84375 
Q 23.34375 6.203125 30.609375 6.203125 
Q 37.796875 6.203125 41.984375 11.859375 
Q 46.1875 17.53125 46.1875 27.296875 
Q 46.1875 37.015625 41.984375 42.703125 
Q 37.796875 48.390625 30.609375 48.390625 
z
M 30.609375 56 
Q 42.328125 56 49.015625 48.375 
Q 55.71875 40.765625 55.71875 27.296875 
Q 55.71875 13.875 49.015625 6.21875 
Q 42.328125 -1.421875 30.609375 -1.421875 
Q 18.84375 -1.421875 12.171875 6.21875 
Q 5.515625 13.875 5.515625 27.296875 
Q 5.515625 40.765625 12.171875 48.375 
Q 18.84375 56 30.609375 56 
z
" id="DejaVuSans-111"/>
     <path d="M 2.984375 54.6875 
L 12.5 54.6875 
L 29.59375 8.796875 
L 46.6875 54.6875 
L 56.203125 54.6875 
L 35.6875 0 
L 23.484375 0 
z
" id="DejaVuSans-118"/>
     <path d="M 9.8125 72.90625 
L 19.671875 72.90625 
L 19.671875 0 
L 9.8125 0 
z
" id="DejaVuSans-73"/>
     <path d="M 18.3125 70.21875 
L 18.3125 54.6875 
L 36.8125 54.6875 
L 36.8125 47.703125 
L 18.3125 47.703125 
L 18.3125 18.015625 
Q 18.3125 11.328125 20.140625 9.421875 
Q 21.96875 7.515625 27.59375 7.515625 
L 36.8125 7.515625 
L 36.8125 0 
L 27.59375 0 
Q 17.1875 0 13.234375 3.875 
Q 9.28125 7.765625 9.28125 18.015625 
L 9.28125 47.703125 
L 2.6875 47.703125 
L 2.6875 54.6875 
L 9.28125 54.6875 
L 9.28125 70.21875 
z
" id="DejaVuSans-116"/>
     <path d="M 9.8125 72.90625 
L 55.90625 72.90625 
L 55.90625 64.59375 
L 19.671875 64.59375 
L 19.671875 43.015625 
L 54.390625 43.015625 
L 54.390625 34.71875 
L 19.671875 34.71875 
L 19.671875 8.296875 
L 56.78125 8.296875 
L 56.78125 0 
L 9.8125 0 
z
" id="DejaVuSans-69"/>
     <path d="M 54.890625 54.6875 
L 35.109375 28.078125 
L 55.90625 0 
L 45.3125 0 
L 29.390625 21.484375 
L 13.484375 0 
L 2.875 0 
L 24.125 28.609375 
L 4.6875 54.6875 
L 15.28125 54.6875 
L 29.78125 35.203125 
L 44.28125 54.6875 
z
" id="DejaVuSans-120"/>
     <path d="M 48.78125 52.59375 
L 48.78125 44.1875 
Q 44.96875 46.296875 41.140625 47.34375 
Q 37.3125 48.390625 33.40625 48.390625 
Q 24.65625 48.390625 19.8125 42.84375 
Q 14.984375 37.3125 14.984375 27.296875 
Q 14.984375 17.28125 19.8125 11.734375 
Q 24.65625 6.203125 33.40625 6.203125 
Q 37.3125 6.203125 41.140625 7.25 
Q 44.96875 8.296875 48.78125 10.40625 
L 48.78125 2.09375 
Q 45.015625 0.34375 40.984375 -0.53125 
Q 36.96875 -1.421875 32.421875 -1.421875 
Q 20.0625 -1.421875 12.78125 6.34375 
Q 5.515625 14.109375 5.515625 27.296875 
Q 5.515625 40.671875 12.859375 48.328125 
Q 20.21875 56 33.015625 56 
Q 37.15625 56 41.109375 55.140625 
Q 45.0625 54.296875 48.78125 52.59375 
z
" id="DejaVuSans-99"/>
    </defs>
    <g transform="translate(414.73875 22.396875)scale(0.2 -0.2)">
     <use xlink:href="#DejaVuSans-83"/>
     <use x="63.476562" xlink:href="#DejaVuSans-101"/>
     <use x="125" xlink:href="#DejaVuSans-112"/>
     <use x="188.476562" xlink:href="#DejaVuSans-97"/>
     <use x="249.755859" xlink:href="#DejaVuSans-114"/>
     <use x="290.869141" xlink:href="#DejaVuSans-97"/>
     <use x="352.148438" xlink:href="#DejaVuSans-98"/>
     <use x="415.625" xlink:href="#DejaVuSans-108"/>
     <use x="443.408203" xlink:href="#DejaVuSans-101"/>
     <use x="504.931641" xlink:href="#DejaVuSans-67"/>
     <use x="574.755859" xlink:href="#DejaVuSans-111"/>
     <use x="635.9375" xlink:href="#DejaVuSans-110"/>
     <use x="699.316406" xlink:href="#DejaVuSans-118"/>
     <use x="758.496094" xlink:href="#DejaVuSans-111"/>
     <use x="819.677734" xlink:href="#DejaVuSans-108"/>
     <use x="847.460938" xlink:href="#DejaVuSans-118"/>
     <use x="906.640625" xlink:href="#DejaVuSans-101"/>
     <use x="968.164062" xlink:href="#DejaVuSans-32"/>
     <use x="999.951172" xlink:href="#DejaVuSans-73"/>
     <use x="1029.443359" xlink:href="#DejaVuSans-109"/>
     <use x="1126.855469" xlink:href="#DejaVuSans-112"/>
     <use x="1190.332031" xlink:href="#DejaVuSans-108"/>
     <use x="1218.115234" xlink:href="#DejaVuSans-101"/>
     <use x="1279.638672" xlink:href="#DejaVuSans-109"/>
     <use x="1377.050781" xlink:href="#DejaVuSans-101"/>
     <use x="1438.574219" xlink:href="#DejaVuSans-110"/>
     <use x="1501.953125" xlink:href="#DejaVuSans-116"/>
     <use x="1541.162109" xlink:href="#DejaVuSans-97"/>
     <use x="1602.441406" xlink:href="#DejaVuSans-116"/>
     <use x="1641.650391" xlink:href="#DejaVuSans-105"/>
     <use x="1669.433594" xlink:href="#DejaVuSans-111"/>
     <use x="1730.615234" xlink:href="#DejaVuSans-110"/>
     <use x="1793.994141" xlink:href="#DejaVuSans-115"/>
     <use x="1846.09375" xlink:href="#DejaVuSans-32"/>
     <use x="1877.880859" xlink:href="#DejaVuSans-118"/>
     <use x="1937.060547" xlink:href="#DejaVuSans-115"/>
     <use x="1989.160156" xlink:href="#DejaVuSans-32"/>
     <use x="2020.947266" xlink:href="#DejaVuSans-69"/>
     <use x="2084.130859" xlink:href="#DejaVuSans-120"/>
     <use x="2143.310547" xlink:href="#DejaVuSans-112"/>
     <use x="2206.787109" xlink:href="#DejaVuSans-108"/>
     <use x="2234.570312" xlink:href="#DejaVuSans-105"/>
     <use x="2262.353516" xlink:href="#DejaVuSans-99"/>
     <use x="2317.333984" xlink:href="#DejaVuSans-105"/>
     <use x="2345.117188" xlink:href="#DejaVuSans-116"/>
     <use x="2384.326172" xlink:href="#DejaVuSans-32"/>
     <use x="2416.113281" xlink:href="#DejaVuSans-73"/>
     <use x="2445.605469" xlink:href="#DejaVuSans-109"/>
     <use x="2543.017578" xlink:href="#DejaVuSans-112"/>
     <use x="2606.494141" xlink:href="#DejaVuSans-108"/>
     <use x="2634.277344" xlink:href="#DejaVuSans-101"/>
     <use x="2695.800781" xlink:href="#DejaVuSans-109"/>
     <use x="2793.212891" xlink:href="#DejaVuSans-101"/>
     <use x="2854.736328" xlink:href="#DejaVuSans-110"/>
     <use x="2918.115234" xlink:href="#DejaVuSans-116"/>
     <use x="2957.324219" xlink:href="#DejaVuSans-97"/>
     <use x="3018.603516" xlink:href="#DejaVuSans-116"/>
     <use x="3057.8125" xlink:href="#DejaVuSans-105"/>
     <use x="3085.595703" xlink:href="#DejaVuSans-111"/>
     <use x="3146.777344" xlink:href="#DejaVuSans-110"/>
    </g>
   </g>
   <g id="legend_1">
    <g id="patch_7">
     <path d="M 74.560625 143.679375 
L 359.13875 143.679375 
Q 361.53875 143.679375 361.53875 141.279375 
L 361.53875 36.796875 
Q 361.53875 34.396875 359.13875 34.396875 
L 74.560625 34.396875 
Q 72.160625 34.396875 72.160625 36.796875 
L 72.160625 141.279375 
Q 72.160625 143.679375 74.560625 143.679375 
z
" style="fill:#ffffff;opacity:0.8;stroke:#cccccc;stroke-linejoin:miter;"/>
    </g>
    <g id="line2d_30">
     <path d="M 76.960625 44.115 
L 100.960625 44.115 
" style="fill:none;stroke:#55868c;stroke-linecap:square;stroke-width:1.5;"/>
    </g>
    <g id="line2d_31"/>
    <g id="text_20">
     <!-- separableConvolve2D (Channel First) -->
     <defs>
      <path d="M 19.671875 64.796875 
L 19.671875 8.109375 
L 31.59375 8.109375 
Q 46.6875 8.109375 53.6875 14.9375 
Q 60.6875 21.78125 60.6875 36.53125 
Q 60.6875 51.171875 53.6875 57.984375 
Q 46.6875 64.796875 31.59375 64.796875 
z
M 9.8125 72.90625 
L 30.078125 72.90625 
Q 51.265625 72.90625 61.171875 64.09375 
Q 71.09375 55.28125 71.09375 36.53125 
Q 71.09375 17.671875 61.125 8.828125 
Q 51.171875 0 30.078125 0 
L 9.8125 0 
z
" id="DejaVuSans-68"/>
      <path d="M 54.890625 33.015625 
L 54.890625 0 
L 45.90625 0 
L 45.90625 32.71875 
Q 45.90625 40.484375 42.875 44.328125 
Q 39.84375 48.1875 33.796875 48.1875 
Q 26.515625 48.1875 22.3125 43.546875 
Q 18.109375 38.921875 18.109375 30.90625 
L 18.109375 0 
L 9.078125 0 
L 9.078125 75.984375 
L 18.109375 75.984375 
L 18.109375 46.1875 
Q 21.34375 51.125 25.703125 53.5625 
Q 30.078125 56 35.796875 56 
Q 45.21875 56 50.046875 50.171875 
Q 54.890625 44.34375 54.890625 33.015625 
z
" id="DejaVuSans-104"/>
      <path d="M 9.8125 72.90625 
L 51.703125 72.90625 
L 51.703125 64.59375 
L 19.671875 64.59375 
L 19.671875 43.109375 
L 48.578125 43.109375 
L 48.578125 34.8125 
L 19.671875 34.8125 
L 19.671875 0 
L 9.8125 0 
z
" id="DejaVuSans-70"/>
     </defs>
     <g transform="translate(110.560625 48.315)scale(0.12 -0.12)">
      <use xlink:href="#DejaVuSans-115"/>
      <use x="52.099609" xlink:href="#DejaVuSans-101"/>
      <use x="113.623047" xlink:href="#DejaVuSans-112"/>
      <use x="177.099609" xlink:href="#DejaVuSans-97"/>
      <use x="238.378906" xlink:href="#DejaVuSans-114"/>
      <use x="279.492188" xlink:href="#DejaVuSans-97"/>
      <use x="340.771484" xlink:href="#DejaVuSans-98"/>
      <use x="404.248047" xlink:href="#DejaVuSans-108"/>
      <use x="432.03125" xlink:href="#DejaVuSans-101"/>
      <use x="493.554688" xlink:href="#DejaVuSans-67"/>
      <use x="563.378906" xlink:href="#DejaVuSans-111"/>
      <use x="624.560547" xlink:href="#DejaVuSans-110"/>
      <use x="687.939453" xlink:href="#DejaVuSans-118"/>
      <use x="747.119141" xlink:href="#DejaVuSans-111"/>
      <use x="808.300781" xlink:href="#DejaVuSans-108"/>
      <use x="836.083984" xlink:href="#DejaVuSans-118"/>
      <use x="895.263672" xlink:href="#DejaVuSans-101"/>
      <use x="956.787109" xlink:href="#DejaVuSans-50"/>
      <use x="1020.410156" xlink:href="#DejaVuSans-68"/>
      <use x="1097.412109" xlink:href="#DejaVuSans-32"/>
      <use x="1129.199219" xlink:href="#DejaVuSans-40"/>
      <use x="1168.212891" xlink:href="#DejaVuSans-67"/>
      <use x="1238.037109" xlink:href="#DejaVuSans-104"/>
      <use x="1301.416016" xlink:href="#DejaVuSans-97"/>
      <use x="1362.695312" xlink:href="#DejaVuSans-110"/>
      <use x="1426.074219" xlink:href="#DejaVuSans-110"/>
      <use x="1489.453125" xlink:href="#DejaVuSans-101"/>
      <use x="1550.976562" xlink:href="#DejaVuSans-108"/>
      <use x="1578.759766" xlink:href="#DejaVuSans-32"/>
      <use x="1610.546875" xlink:href="#DejaVuSans-70"/>
      <use x="1660.816406" xlink:href="#DejaVuSans-105"/>
      <use x="1688.599609" xlink:href="#DejaVuSans-114"/>
      <use x="1729.712891" xlink:href="#DejaVuSans-115"/>
      <use x="1781.8125" xlink:href="#DejaVuSans-116"/>
      <use x="1821.021484" xlink:href="#DejaVuSans-41"/>
     </g>
    </g>
    <g id="line2d_32">
     <path d="M 76.960625 61.72875 
L 100.960625 61.72875 
" style="fill:none;stroke:#55868c;stroke-dasharray:1.5,2.475;stroke-dashoffset:0;stroke-width:1.5;"/>
    </g>
    <g id="line2d_33"/>
    <g id="text_21">
     <!-- separableConvolve2D (Channel Last) -->
     <defs>
      <path d="M 9.8125 72.90625 
L 19.671875 72.90625 
L 19.671875 8.296875 
L 55.171875 8.296875 
L 55.171875 0 
L 9.8125 0 
z
" id="DejaVuSans-76"/>
     </defs>
     <g transform="translate(110.560625 65.92875)scale(0.12 -0.12)">
      <use xlink:href="#DejaVuSans-115"/>
      <use x="52.099609" xlink:href="#DejaVuSans-101"/>
      <use x="113.623047" xlink:href="#DejaVuSans-112"/>
      <use x="177.099609" xlink:href="#DejaVuSans-97"/>
      <use x="238.378906" xlink:href="#DejaVuSans-114"/>
      <use x="279.492188" xlink:href="#DejaVuSans-97"/>
      <use x="340.771484" xlink:href="#DejaVuSans-98"/>
      <use x="404.248047" xlink:href="#DejaVuSans-108"/>
      <use x="432.03125" xlink:href="#DejaVuSans-101"/>
      <use x="493.554688" xlink:href="#DejaVuSans-67"/>
      <use x="563.378906" xlink:href="#DejaVuSans-111"/>
      <use x="624.560547" xlink:href="#DejaVuSans-110"/>
      <use x="687.939453" xlink:href="#DejaVuSans-118"/>
      <use x="747.119141" xlink:href="#DejaVuSans-111"/>
      <use x="808.300781" xlink:href="#DejaVuSans-108"/>
      <use x="836.083984" xlink:href="#DejaVuSans-118"/>
      <use x="895.263672" xlink:href="#DejaVuSans-101"/>
      <use x="956.787109" xlink:href="#DejaVuSans-50"/>
      <use x="1020.410156" xlink:href="#DejaVuSans-68"/>
      <use x="1097.412109" xlink:href="#DejaVuSans-32"/>
      <use x="1129.199219" xlink:href="#DejaVuSans-40"/>
      <use x="1168.212891" xlink:href="#DejaVuSans-67"/>
      <use x="1238.037109" xlink:href="#DejaVuSans-104"/>
      <use x="1301.416016" xlink:href="#DejaVuSans-97"/>
      <use x="1362.695312" xlink:href="#DejaVuSans-110"/>
      <use x="1426.074219" xlink:href="#DejaVuSans-110"/>
      <use x="1489.453125" xlink:href="#DejaVuSans-101"/>
      <use x="1550.976562" xlink:href="#DejaVuSans-108"/>
      <use x="1578.759766" xlink:href="#DejaVuSans-32"/>
      <use x="1610.546875" xlink:href="#DejaVuSans-76"/>
      <use x="1666.259766" xlink:href="#DejaVuSans-97"/>
      <use x="1727.539062" xlink:href="#DejaVuSans-115"/>
      <use x="1779.638672" xlink:href="#DejaVuSans-116"/>
      <use x="1818.847656" xlink:href="#DejaVuSans-41"/>
     </g>
    </g>
    <g id="line2d_34">
     <path d="M 76.960625 79.3425 
L 100.960625 79.3425 
" style="fill:none;stroke:#eec584;stroke-linecap:square;stroke-width:1.5;"/>
    </g>
    <g id="line2d_35"/>
    <g id="text_22">
     <!-- separableConvolve [N=2] (Channel First) -->
     <defs>
      <path d="M 8.59375 75.984375 
L 29.296875 75.984375 
L 29.296875 69 
L 17.578125 69 
L 17.578125 -6.203125 
L 29.296875 -6.203125 
L 29.296875 -13.1875 
L 8.59375 -13.1875 
z
" id="DejaVuSans-91"/>
      <path d="M 9.8125 72.90625 
L 23.09375 72.90625 
L 55.421875 11.921875 
L 55.421875 72.90625 
L 64.984375 72.90625 
L 64.984375 0 
L 51.703125 0 
L 19.390625 60.984375 
L 19.390625 0 
L 9.8125 0 
z
" id="DejaVuSans-78"/>
      <path d="M 10.59375 45.40625 
L 73.1875 45.40625 
L 73.1875 37.203125 
L 10.59375 37.203125 
z
M 10.59375 25.484375 
L 73.1875 25.484375 
L 73.1875 17.1875 
L 10.59375 17.1875 
z
" id="DejaVuSans-61"/>
      <path d="M 30.421875 75.984375 
L 30.421875 -13.1875 
L 9.71875 -13.1875 
L 9.71875 -6.203125 
L 21.390625 -6.203125 
L 21.390625 69 
L 9.71875 69 
L 9.71875 75.984375 
z
" id="DejaVuSans-93"/>
     </defs>
     <g transform="translate(110.560625 83.5425)scale(0.12 -0.12)">
      <use xlink:href="#DejaVuSans-115"/>
      <use x="52.099609" xlink:href="#DejaVuSans-101"/>
      <use x="113.623047" xlink:href="#DejaVuSans-112"/>
      <use x="177.099609" xlink:href="#DejaVuSans-97"/>
      <use x="238.378906" xlink:href="#DejaVuSans-114"/>
      <use x="279.492188" xlink:href="#DejaVuSans-97"/>
      <use x="340.771484" xlink:href="#DejaVuSans-98"/>
      <use x="404.248047" xlink:href="#DejaVuSans-108"/>
      <use x="432.03125" xlink:href="#DejaVuSans-101"/>
      <use x="493.554688" xlink:href="#DejaVuSans-67"/>
      <use x="563.378906" xlink:href="#DejaVuSans-111"/>
      <use x="624.560547" xlink:href="#DejaVuSans-110"/>
      <use x="687.939453" xlink:href="#DejaVuSans-118"/>
      <use x="747.119141" xlink:href="#DejaVuSans-111"/>
      <use x="808.300781" xlink:href="#DejaVuSans-108"/>
      <use x="836.083984" xlink:href="#DejaVuSans-118"/>
      <use x="895.263672" xlink:href="#DejaVuSans-101"/>
      <use x="956.787109" xlink:href="#DejaVuSans-32"/>
      <use x="988.574219" xlink:href="#DejaVuSans-91"/>
      <use x="1027.587891" xlink:href="#DejaVuSans-78"/>
      <use x="1102.392578" xlink:href="#DejaVuSans-61"/>
      <use x="1186.181641" xlink:href="#DejaVuSans-50"/>
      <use x="1249.804688" xlink:href="#DejaVuSans-93"/>
      <use x="1288.818359" xlink:href="#DejaVuSans-32"/>
      <use x="1320.605469" xlink:href="#DejaVuSans-40"/>
      <use x="1359.619141" xlink:href="#DejaVuSans-67"/>
      <use x="1429.443359" xlink:href="#DejaVuSans-104"/>
      <use x="1492.822266" xlink:href="#DejaVuSans-97"/>
      <use x="1554.101562" xlink:href="#DejaVuSans-110"/>
      <use x="1617.480469" xlink:href="#DejaVuSans-110"/>
      <use x="1680.859375" xlink:href="#DejaVuSans-101"/>
      <use x="1742.382812" xlink:href="#DejaVuSans-108"/>
      <use x="1770.166016" xlink:href="#DejaVuSans-32"/>
      <use x="1801.953125" xlink:href="#DejaVuSans-70"/>
      <use x="1852.222656" xlink:href="#DejaVuSans-105"/>
      <use x="1880.005859" xlink:href="#DejaVuSans-114"/>
      <use x="1921.119141" xlink:href="#DejaVuSans-115"/>
      <use x="1973.21875" xlink:href="#DejaVuSans-116"/>
      <use x="2012.427734" xlink:href="#DejaVuSans-41"/>
     </g>
    </g>
    <g id="line2d_36">
     <path d="M 76.960625 96.95625 
L 100.960625 96.95625 
" style="fill:none;stroke:#eec584;stroke-dasharray:1.5,2.475;stroke-dashoffset:0;stroke-width:1.5;"/>
    </g>
    <g id="line2d_37"/>
    <g id="text_23">
     <!-- separableConvolve [N=2] (Channel Last) -->
     <g transform="translate(110.560625 101.15625)scale(0.12 -0.12)">
      <use xlink:href="#DejaVuSans-115"/>
      <use x="52.099609" xlink:href="#DejaVuSans-101"/>
      <use x="113.623047" xlink:href="#DejaVuSans-112"/>
      <use x="177.099609" xlink:href="#DejaVuSans-97"/>
      <use x="238.378906" xlink:href="#DejaVuSans-114"/>
      <use x="279.492188" xlink:href="#DejaVuSans-97"/>
      <use x="340.771484" xlink:href="#DejaVuSans-98"/>
      <use x="404.248047" xlink:href="#DejaVuSans-108"/>
      <use x="432.03125" xlink:href="#DejaVuSans-101"/>
      <use x="493.554688" xlink:href="#DejaVuSans-67"/>
      <use x="563.378906" xlink:href="#DejaVuSans-111"/>
      <use x="624.560547" xlink:href="#DejaVuSans-110"/>
      <use x="687.939453" xlink:href="#DejaVuSans-118"/>
      <use x="747.119141" xlink:href="#DejaVuSans-111"/>
      <use x="808.300781" xlink:href="#DejaVuSans-108"/>
      <use x="836.083984" xlink:href="#DejaVuSans-118"/>
      <use x="895.263672" xlink:href="#DejaVuSans-101"/>
      <use x="956.787109" xlink:href="#DejaVuSans-32"/>
      <use x="988.574219" xlink:href="#DejaVuSans-91"/>
      <use x="1027.587891" xlink:href="#DejaVuSans-78"/>
      <use x="1102.392578" xlink:href="#DejaVuSans-61"/>
      <use x="1186.181641" xlink:href="#DejaVuSans-50"/>
      <use x="1249.804688" xlink:href="#DejaVuSans-93"/>
      <use x="1288.818359" xlink:href="#DejaVuSans-32"/>
      <use x="1320.605469" xlink:href="#DejaVuSans-40"/>
      <use x="1359.619141" xlink:href="#DejaVuSans-67"/>
      <use x="1429.443359" xlink:href="#DejaVuSans-104"/>
      <use x="1492.822266" xlink:href="#DejaVuSans-97"/>
      <use x="1554.101562" xlink:href="#DejaVuSans-110"/>
      <use x="1617.480469" xlink:href="#DejaVuSans-110"/>
      <use x="1680.859375" xlink:href="#DejaVuSans-101"/>
      <use x="1742.382812" xlink:href="#DejaVuSans-108"/>
      <use x="1770.166016" xlink:href="#DejaVuSans-32"/>
      <use x="1801.953125" xlink:href="#DejaVuSans-76"/>
      <use x="1857.666016" xlink:href="#DejaVuSans-97"/>
      <use x="1918.945312" xlink:href="#DejaVuSans-115"/>
      <use x="1971.044922" xlink:href="#DejaVuSans-116"/>
      <use x="2010.253906" xlink:href="#DejaVuSans-41"/>
     </g>
    </g>
    <g id="line2d_38">
     <path d="M 76.960625 114.57 
L 100.960625 114.57 
" style="fill:none;stroke:#ce4257;stroke-linecap:square;stroke-width:1.5;"/>
    </g>
    <g id="line2d_39"/>
    <g id="text_24">
     <!-- convolve2D (Channel First) -->
     <g transform="translate(110.560625 118.77)scale(0.12 -0.12)">
      <use xlink:href="#DejaVuSans-99"/>
      <use x="54.980469" xlink:href="#DejaVuSans-111"/>
      <use x="116.162109" xlink:href="#DejaVuSans-110"/>
      <use x="179.541016" xlink:href="#DejaVuSans-118"/>
      <use x="238.720703" xlink:href="#DejaVuSans-111"/>
      <use x="299.902344" xlink:href="#DejaVuSans-108"/>
      <use x="327.685547" xlink:href="#DejaVuSans-118"/>
      <use x="386.865234" xlink:href="#DejaVuSans-101"/>
      <use x="448.388672" xlink:href="#DejaVuSans-50"/>
      <use x="512.011719" xlink:href="#DejaVuSans-68"/>
      <use x="589.013672" xlink:href="#DejaVuSans-32"/>
      <use x="620.800781" xlink:href="#DejaVuSans-40"/>
      <use x="659.814453" xlink:href="#DejaVuSans-67"/>
      <use x="729.638672" xlink:href="#DejaVuSans-104"/>
      <use x="793.017578" xlink:href="#DejaVuSans-97"/>
      <use x="854.296875" xlink:href="#DejaVuSans-110"/>
      <use x="917.675781" xlink:href="#DejaVuSans-110"/>
      <use x="981.054688" xlink:href="#DejaVuSans-101"/>
      <use x="1042.578125" xlink:href="#DejaVuSans-108"/>
      <use x="1070.361328" xlink:href="#DejaVuSans-32"/>
      <use x="1102.148438" xlink:href="#DejaVuSans-70"/>
      <use x="1152.417969" xlink:href="#DejaVuSans-105"/>
      <use x="1180.201172" xlink:href="#DejaVuSans-114"/>
      <use x="1221.314453" xlink:href="#DejaVuSans-115"/>
      <use x="1273.414062" xlink:href="#DejaVuSans-116"/>
      <use x="1312.623047" xlink:href="#DejaVuSans-41"/>
     </g>
    </g>
    <g id="line2d_40">
     <path d="M 76.960625 132.18375 
L 100.960625 132.18375 
" style="fill:none;stroke:#ce4257;stroke-dasharray:1.5,2.475;stroke-dashoffset:0;stroke-width:1.5;"/>
    </g>
    <g id="line2d_41"/>
    <g id="text_25">
     <!-- convolve2D (Channel Last) -->
     <g transform="translate(110.560625 136.38375)scale(0.12 -0.12)">
      <use xlink:href="#DejaVuSans-99"/>
      <use x="54.980469" xlink:href="#DejaVuSans-111"/>
      <use x="116.162109" xlink:href="#DejaVuSans-110"/>
      <use x="179.541016" xlink:href="#DejaVuSans-118"/>
      <use x="238.720703" xlink:href="#DejaVuSans-111"/>
      <use x="299.902344" xlink:href="#DejaVuSans-108"/>
      <use x="327.685547" xlink:href="#DejaVuSans-118"/>
      <use x="386.865234" xlink:href="#DejaVuSans-101"/>
      <use x="448.388672" xlink:href="#DejaVuSans-50"/>
      <use x="512.011719" xlink:href="#DejaVuSans-68"/>
      <use x="589.013672" xlink:href="#DejaVuSans-32"/>
      <use x="620.800781" xlink:href="#DejaVuSans-40"/>
      <use x="659.814453" xlink:href="#DejaVuSans-67"/>
      <use x="729.638672" xlink:href="#DejaVuSans-104"/>
      <use x="793.017578" xlink:href="#DejaVuSans-97"/>
      <use x="854.296875" xlink:href="#DejaVuSans-110"/>
      <use x="917.675781" xlink:href="#DejaVuSans-110"/>
      <use x="981.054688" xlink:href="#DejaVuSans-101"/>
      <use x="1042.578125" xlink:href="#DejaVuSans-108"/>
      <use x="1070.361328" xlink:href="#DejaVuSans-32"/>
      <use x="1102.148438" xlink:href="#DejaVuSans-76"/>
      <use x="1157.861328" xlink:href="#DejaVuSans-97"/>
      <use x="1219.140625" xlink:href="#DejaVuSans-115"/>
      <use x="1271.240234" xlink:href="#DejaVuSans-116"/>
      <use x="1310.449219" xlink:href="#DejaVuSans-41"/>
     </g>
    </g>
   </g>
  </g>
 </g>
 <defs>
  <clipPath id="pb1d0ae05f6">
   <rect height="498.96" width="1339.2" x="66.160625" y="28.396875"/>
  </clipPath>
 </defs>
</svg>
