<?xml version="1.0" encoding="utf-8" standalone="no"?>
<!DOCTYPE svg PUBLIC "-//W3C//DTD SVG 1.1//EN"
  "http://www.w3.org/Graphics/SVG/1.1/DTD/svg11.dtd">
<!-- Created with matplotlib (https://matplotlib.org/) -->
<svg height="1166.35989pt" version="1.1" viewBox="0 0 1432.920625 1166.35989" width="1432.920625pt" xmlns="http://www.w3.org/2000/svg" xmlns:xlink="http://www.w3.org/1999/xlink">
 <defs>
  <style type="text/css">
*{stroke-linecap:butt;stroke-linejoin:round;}
  </style>
 </defs>
 <g id="figure_1">
  <g id="patch_1">
   <path d="M 0 1166.35989 
L 1432.920625 1166.35989 
L 1432.920625 0 
L 0 0 
z
" style="fill:#ffffff;"/>
  </g>
  <g id="axes_1">
   <g id="patch_2">
    <path d="M 86.520625 366.694007 
L 1425.720625 366.694007 
L 1425.720625 73.188125 
L 86.520625 73.188125 
z
" style="fill:#ffffff;"/>
   </g>
   <g id="matplotlib.axis_1">
    <g id="xtick_1">
     <g id="line2d_1">
      <defs>
       <path d="M 0 0 
L 0 3.5 
" id="m73b1f30796" style="stroke:#000000;stroke-width:0.8;"/>
      </defs>
      <g>
       <use style="stroke:#000000;stroke-width:0.8;" x="147.393352" xlink:href="#m73b1f30796" y="366.694007"/>
      </g>
     </g>
     <g id="text_1">
      <!-- 0 -->
      <defs>
       <path d="M 31.78125 66.40625 
Q 24.171875 66.40625 20.328125 58.90625 
Q 16.5 51.421875 16.5 36.375 
Q 16.5 21.390625 20.328125 13.890625 
Q 24.171875 6.390625 31.78125 6.390625 
Q 39.453125 6.390625 43.28125 13.890625 
Q 47.125 21.390625 47.125 36.375 
Q 47.125 51.421875 43.28125 58.90625 
Q 39.453125 66.40625 31.78125 66.40625 
z
M 31.78125 74.21875 
Q 44.046875 74.21875 50.515625 64.515625 
Q 56.984375 54.828125 56.984375 36.375 
Q 56.984375 17.96875 50.515625 8.265625 
Q 44.046875 -1.421875 31.78125 -1.421875 
Q 19.53125 -1.421875 13.0625 8.265625 
Q 6.59375 17.96875 6.59375 36.375 
Q 6.59375 54.828125 13.0625 64.515625 
Q 19.53125 74.21875 31.78125 74.21875 
z
" id="DejaVuSans-48"/>
      </defs>
      <g transform="translate(143.575852 382.812132)scale(0.12 -0.12)">
       <use xlink:href="#DejaVuSans-48"/>
      </g>
     </g>
    </g>
    <g id="xtick_2">
     <g id="line2d_2">
      <g>
       <use style="stroke:#000000;stroke-width:0.8;" x="299.57517" xlink:href="#m73b1f30796" y="366.694007"/>
      </g>
     </g>
     <g id="text_2">
      <!-- 1 -->
      <defs>
       <path d="M 12.40625 8.296875 
L 28.515625 8.296875 
L 28.515625 63.921875 
L 10.984375 60.40625 
L 10.984375 69.390625 
L 28.421875 72.90625 
L 38.28125 72.90625 
L 38.28125 8.296875 
L 54.390625 8.296875 
L 54.390625 0 
L 12.40625 0 
z
" id="DejaVuSans-49"/>
      </defs>
      <g transform="translate(295.75767 382.812132)scale(0.12 -0.12)">
       <use xlink:href="#DejaVuSans-49"/>
      </g>
     </g>
    </g>
    <g id="xtick_3">
     <g id="line2d_3">
      <g>
       <use style="stroke:#000000;stroke-width:0.8;" x="451.756989" xlink:href="#m73b1f30796" y="366.694007"/>
      </g>
     </g>
     <g id="text_3">
      <!-- 2 -->
      <defs>
       <path d="M 19.1875 8.296875 
L 53.609375 8.296875 
L 53.609375 0 
L 7.328125 0 
L 7.328125 8.296875 
Q 12.9375 14.109375 22.625 23.890625 
Q 32.328125 33.6875 34.8125 36.53125 
Q 39.546875 41.84375 41.421875 45.53125 
Q 43.3125 49.21875 43.3125 52.78125 
Q 43.3125 58.59375 39.234375 62.25 
Q 35.15625 65.921875 28.609375 65.921875 
Q 23.96875 65.921875 18.8125 64.3125 
Q 13.671875 62.703125 7.8125 59.421875 
L 7.8125 69.390625 
Q 13.765625 71.78125 18.9375 73 
Q 24.125 74.21875 28.421875 74.21875 
Q 39.75 74.21875 46.484375 68.546875 
Q 53.21875 62.890625 53.21875 53.421875 
Q 53.21875 48.921875 51.53125 44.890625 
Q 49.859375 40.875 45.40625 35.40625 
Q 44.1875 33.984375 37.640625 27.21875 
Q 31.109375 20.453125 19.1875 8.296875 
z
" id="DejaVuSans-50"/>
      </defs>
      <g transform="translate(447.939489 382.812132)scale(0.12 -0.12)">
       <use xlink:href="#DejaVuSans-50"/>
      </g>
     </g>
    </g>
    <g id="xtick_4">
     <g id="line2d_4">
      <g>
       <use style="stroke:#000000;stroke-width:0.8;" x="603.938807" xlink:href="#m73b1f30796" y="366.694007"/>
      </g>
     </g>
     <g id="text_4">
      <!-- 3 -->
      <defs>
       <path d="M 40.578125 39.3125 
Q 47.65625 37.796875 51.625 33 
Q 55.609375 28.21875 55.609375 21.1875 
Q 55.609375 10.40625 48.1875 4.484375 
Q 40.765625 -1.421875 27.09375 -1.421875 
Q 22.515625 -1.421875 17.65625 -0.515625 
Q 12.796875 0.390625 7.625 2.203125 
L 7.625 11.71875 
Q 11.71875 9.328125 16.59375 8.109375 
Q 21.484375 6.890625 26.8125 6.890625 
Q 36.078125 6.890625 40.9375 10.546875 
Q 45.796875 14.203125 45.796875 21.1875 
Q 45.796875 27.640625 41.28125 31.265625 
Q 36.765625 34.90625 28.71875 34.90625 
L 20.21875 34.90625 
L 20.21875 43.015625 
L 29.109375 43.015625 
Q 36.375 43.015625 40.234375 45.921875 
Q 44.09375 48.828125 44.09375 54.296875 
Q 44.09375 59.90625 40.109375 62.90625 
Q 36.140625 65.921875 28.71875 65.921875 
Q 24.65625 65.921875 20.015625 65.03125 
Q 15.375 64.15625 9.8125 62.3125 
L 9.8125 71.09375 
Q 15.4375 72.65625 20.34375 73.4375 
Q 25.25 74.21875 29.59375 74.21875 
Q 40.828125 74.21875 47.359375 69.109375 
Q 53.90625 64.015625 53.90625 55.328125 
Q 53.90625 49.265625 50.4375 45.09375 
Q 46.96875 40.921875 40.578125 39.3125 
z
" id="DejaVuSans-51"/>
      </defs>
      <g transform="translate(600.121307 382.812132)scale(0.12 -0.12)">
       <use xlink:href="#DejaVuSans-51"/>
      </g>
     </g>
    </g>
    <g id="xtick_5">
     <g id="line2d_5">
      <g>
       <use style="stroke:#000000;stroke-width:0.8;" x="756.120625" xlink:href="#m73b1f30796" y="366.694007"/>
      </g>
     </g>
     <g id="text_5">
      <!-- 4 -->
      <defs>
       <path d="M 37.796875 64.3125 
L 12.890625 25.390625 
L 37.796875 25.390625 
z
M 35.203125 72.90625 
L 47.609375 72.90625 
L 47.609375 25.390625 
L 58.015625 25.390625 
L 58.015625 17.1875 
L 47.609375 17.1875 
L 47.609375 0 
L 37.796875 0 
L 37.796875 17.1875 
L 4.890625 17.1875 
L 4.890625 26.703125 
z
" id="DejaVuSans-52"/>
      </defs>
      <g transform="translate(752.303125 382.812132)scale(0.12 -0.12)">
       <use xlink:href="#DejaVuSans-52"/>
      </g>
     </g>
    </g>
    <g id="xtick_6">
     <g id="line2d_6">
      <g>
       <use style="stroke:#000000;stroke-width:0.8;" x="908.302443" xlink:href="#m73b1f30796" y="366.694007"/>
      </g>
     </g>
     <g id="text_6">
      <!-- 5 -->
      <defs>
       <path d="M 10.796875 72.90625 
L 49.515625 72.90625 
L 49.515625 64.59375 
L 19.828125 64.59375 
L 19.828125 46.734375 
Q 21.96875 47.46875 24.109375 47.828125 
Q 26.265625 48.1875 28.421875 48.1875 
Q 40.625 48.1875 47.75 41.5 
Q 54.890625 34.8125 54.890625 23.390625 
Q 54.890625 11.625 47.5625 5.09375 
Q 40.234375 -1.421875 26.90625 -1.421875 
Q 22.3125 -1.421875 17.546875 -0.640625 
Q 12.796875 0.140625 7.71875 1.703125 
L 7.71875 11.625 
Q 12.109375 9.234375 16.796875 8.0625 
Q 21.484375 6.890625 26.703125 6.890625 
Q 35.15625 6.890625 40.078125 11.328125 
Q 45.015625 15.765625 45.015625 23.390625 
Q 45.015625 31 40.078125 35.4375 
Q 35.15625 39.890625 26.703125 39.890625 
Q 22.75 39.890625 18.8125 39.015625 
Q 14.890625 38.140625 10.796875 36.28125 
z
" id="DejaVuSans-53"/>
      </defs>
      <g transform="translate(904.484943 382.812132)scale(0.12 -0.12)">
       <use xlink:href="#DejaVuSans-53"/>
      </g>
     </g>
    </g>
    <g id="xtick_7">
     <g id="line2d_7">
      <g>
       <use style="stroke:#000000;stroke-width:0.8;" x="1060.484261" xlink:href="#m73b1f30796" y="366.694007"/>
      </g>
     </g>
     <g id="text_7">
      <!-- 6 -->
      <defs>
       <path d="M 33.015625 40.375 
Q 26.375 40.375 22.484375 35.828125 
Q 18.609375 31.296875 18.609375 23.390625 
Q 18.609375 15.53125 22.484375 10.953125 
Q 26.375 6.390625 33.015625 6.390625 
Q 39.65625 6.390625 43.53125 10.953125 
Q 47.40625 15.53125 47.40625 23.390625 
Q 47.40625 31.296875 43.53125 35.828125 
Q 39.65625 40.375 33.015625 40.375 
z
M 52.59375 71.296875 
L 52.59375 62.3125 
Q 48.875 64.0625 45.09375 64.984375 
Q 41.3125 65.921875 37.59375 65.921875 
Q 27.828125 65.921875 22.671875 59.328125 
Q 17.53125 52.734375 16.796875 39.40625 
Q 19.671875 43.65625 24.015625 45.921875 
Q 28.375 48.1875 33.59375 48.1875 
Q 44.578125 48.1875 50.953125 41.515625 
Q 57.328125 34.859375 57.328125 23.390625 
Q 57.328125 12.15625 50.6875 5.359375 
Q 44.046875 -1.421875 33.015625 -1.421875 
Q 20.359375 -1.421875 13.671875 8.265625 
Q 6.984375 17.96875 6.984375 36.375 
Q 6.984375 53.65625 15.1875 63.9375 
Q 23.390625 74.21875 37.203125 74.21875 
Q 40.921875 74.21875 44.703125 73.484375 
Q 48.484375 72.75 52.59375 71.296875 
z
" id="DejaVuSans-54"/>
      </defs>
      <g transform="translate(1056.666761 382.812132)scale(0.12 -0.12)">
       <use xlink:href="#DejaVuSans-54"/>
      </g>
     </g>
    </g>
    <g id="xtick_8">
     <g id="line2d_8">
      <g>
       <use style="stroke:#000000;stroke-width:0.8;" x="1212.66608" xlink:href="#m73b1f30796" y="366.694007"/>
      </g>
     </g>
     <g id="text_8">
      <!-- 7 -->
      <defs>
       <path d="M 8.203125 72.90625 
L 55.078125 72.90625 
L 55.078125 68.703125 
L 28.609375 0 
L 18.3125 0 
L 43.21875 64.59375 
L 8.203125 64.59375 
z
" id="DejaVuSans-55"/>
      </defs>
      <g transform="translate(1208.84858 382.812132)scale(0.12 -0.12)">
       <use xlink:href="#DejaVuSans-55"/>
      </g>
     </g>
    </g>
    <g id="xtick_9">
     <g id="line2d_9">
      <g>
       <use style="stroke:#000000;stroke-width:0.8;" x="1364.847898" xlink:href="#m73b1f30796" y="366.694007"/>
      </g>
     </g>
     <g id="text_9">
      <!-- 8 -->
      <defs>
       <path d="M 31.78125 34.625 
Q 24.75 34.625 20.71875 30.859375 
Q 16.703125 27.09375 16.703125 20.515625 
Q 16.703125 13.921875 20.71875 10.15625 
Q 24.75 6.390625 31.78125 6.390625 
Q 38.8125 6.390625 42.859375 10.171875 
Q 46.921875 13.96875 46.921875 20.515625 
Q 46.921875 27.09375 42.890625 30.859375 
Q 38.875 34.625 31.78125 34.625 
z
M 21.921875 38.8125 
Q 15.578125 40.375 12.03125 44.71875 
Q 8.5 49.078125 8.5 55.328125 
Q 8.5 64.0625 14.71875 69.140625 
Q 20.953125 74.21875 31.78125 74.21875 
Q 42.671875 74.21875 48.875 69.140625 
Q 55.078125 64.0625 55.078125 55.328125 
Q 55.078125 49.078125 51.53125 44.71875 
Q 48 40.375 41.703125 38.8125 
Q 48.828125 37.15625 52.796875 32.3125 
Q 56.78125 27.484375 56.78125 20.515625 
Q 56.78125 9.90625 50.3125 4.234375 
Q 43.84375 -1.421875 31.78125 -1.421875 
Q 19.734375 -1.421875 13.25 4.234375 
Q 6.78125 9.90625 6.78125 20.515625 
Q 6.78125 27.484375 10.78125 32.3125 
Q 14.796875 37.15625 21.921875 38.8125 
z
M 18.3125 54.390625 
Q 18.3125 48.734375 21.84375 45.5625 
Q 25.390625 42.390625 31.78125 42.390625 
Q 38.140625 42.390625 41.71875 45.5625 
Q 45.3125 48.734375 45.3125 54.390625 
Q 45.3125 60.0625 41.71875 63.234375 
Q 38.140625 66.40625 31.78125 66.40625 
Q 25.390625 66.40625 21.84375 63.234375 
Q 18.3125 60.0625 18.3125 54.390625 
z
" id="DejaVuSans-56"/>
      </defs>
      <g transform="translate(1361.030398 382.812132)scale(0.12 -0.12)">
       <use xlink:href="#DejaVuSans-56"/>
      </g>
     </g>
    </g>
    <g id="text_10">
     <!-- Padding P -->
     <defs>
      <path d="M 19.671875 64.796875 
L 19.671875 37.40625 
L 32.078125 37.40625 
Q 38.96875 37.40625 42.71875 40.96875 
Q 46.484375 44.53125 46.484375 51.125 
Q 46.484375 57.671875 42.71875 61.234375 
Q 38.96875 64.796875 32.078125 64.796875 
z
M 9.8125 72.90625 
L 32.078125 72.90625 
Q 44.34375 72.90625 50.609375 67.359375 
Q 56.890625 61.8125 56.890625 51.125 
Q 56.890625 40.328125 50.609375 34.8125 
Q 44.34375 29.296875 32.078125 29.296875 
L 19.671875 29.296875 
L 19.671875 0 
L 9.8125 0 
z
" id="DejaVuSans-80"/>
      <path d="M 34.28125 27.484375 
Q 23.390625 27.484375 19.1875 25 
Q 14.984375 22.515625 14.984375 16.5 
Q 14.984375 11.71875 18.140625 8.90625 
Q 21.296875 6.109375 26.703125 6.109375 
Q 34.1875 6.109375 38.703125 11.40625 
Q 43.21875 16.703125 43.21875 25.484375 
L 43.21875 27.484375 
z
M 52.203125 31.203125 
L 52.203125 0 
L 43.21875 0 
L 43.21875 8.296875 
Q 40.140625 3.328125 35.546875 0.953125 
Q 30.953125 -1.421875 24.3125 -1.421875 
Q 15.921875 -1.421875 10.953125 3.296875 
Q 6 8.015625 6 15.921875 
Q 6 25.140625 12.171875 29.828125 
Q 18.359375 34.515625 30.609375 34.515625 
L 43.21875 34.515625 
L 43.21875 35.40625 
Q 43.21875 41.609375 39.140625 45 
Q 35.0625 48.390625 27.6875 48.390625 
Q 23 48.390625 18.546875 47.265625 
Q 14.109375 46.140625 10.015625 43.890625 
L 10.015625 52.203125 
Q 14.9375 54.109375 19.578125 55.046875 
Q 24.21875 56 28.609375 56 
Q 40.484375 56 46.34375 49.84375 
Q 52.203125 43.703125 52.203125 31.203125 
z
" id="DejaVuSans-97"/>
      <path d="M 45.40625 46.390625 
L 45.40625 75.984375 
L 54.390625 75.984375 
L 54.390625 0 
L 45.40625 0 
L 45.40625 8.203125 
Q 42.578125 3.328125 38.25 0.953125 
Q 33.9375 -1.421875 27.875 -1.421875 
Q 17.96875 -1.421875 11.734375 6.484375 
Q 5.515625 14.40625 5.515625 27.296875 
Q 5.515625 40.1875 11.734375 48.09375 
Q 17.96875 56 27.875 56 
Q 33.9375 56 38.25 53.625 
Q 42.578125 51.265625 45.40625 46.390625 
z
M 14.796875 27.296875 
Q 14.796875 17.390625 18.875 11.75 
Q 22.953125 6.109375 30.078125 6.109375 
Q 37.203125 6.109375 41.296875 11.75 
Q 45.40625 17.390625 45.40625 27.296875 
Q 45.40625 37.203125 41.296875 42.84375 
Q 37.203125 48.484375 30.078125 48.484375 
Q 22.953125 48.484375 18.875 42.84375 
Q 14.796875 37.203125 14.796875 27.296875 
z
" id="DejaVuSans-100"/>
      <path d="M 9.421875 54.6875 
L 18.40625 54.6875 
L 18.40625 0 
L 9.421875 0 
z
M 9.421875 75.984375 
L 18.40625 75.984375 
L 18.40625 64.59375 
L 9.421875 64.59375 
z
" id="DejaVuSans-105"/>
      <path d="M 54.890625 33.015625 
L 54.890625 0 
L 45.90625 0 
L 45.90625 32.71875 
Q 45.90625 40.484375 42.875 44.328125 
Q 39.84375 48.1875 33.796875 48.1875 
Q 26.515625 48.1875 22.3125 43.546875 
Q 18.109375 38.921875 18.109375 30.90625 
L 18.109375 0 
L 9.078125 0 
L 9.078125 54.6875 
L 18.109375 54.6875 
L 18.109375 46.1875 
Q 21.34375 51.125 25.703125 53.5625 
Q 30.078125 56 35.796875 56 
Q 45.21875 56 50.046875 50.171875 
Q 54.890625 44.34375 54.890625 33.015625 
z
" id="DejaVuSans-110"/>
      <path d="M 45.40625 27.984375 
Q 45.40625 37.75 41.375 43.109375 
Q 37.359375 48.484375 30.078125 48.484375 
Q 22.859375 48.484375 18.828125 43.109375 
Q 14.796875 37.75 14.796875 27.984375 
Q 14.796875 18.265625 18.828125 12.890625 
Q 22.859375 7.515625 30.078125 7.515625 
Q 37.359375 7.515625 41.375 12.890625 
Q 45.40625 18.265625 45.40625 27.984375 
z
M 54.390625 6.78125 
Q 54.390625 -7.171875 48.1875 -13.984375 
Q 42 -20.796875 29.203125 -20.796875 
Q 24.46875 -20.796875 20.265625 -20.09375 
Q 16.0625 -19.390625 12.109375 -17.921875 
L 12.109375 -9.1875 
Q 16.0625 -11.328125 19.921875 -12.34375 
Q 23.78125 -13.375 27.78125 -13.375 
Q 36.625 -13.375 41.015625 -8.765625 
Q 45.40625 -4.15625 45.40625 5.171875 
L 45.40625 9.625 
Q 42.625 4.78125 38.28125 2.390625 
Q 33.9375 0 27.875 0 
Q 17.828125 0 11.671875 7.65625 
Q 5.515625 15.328125 5.515625 27.984375 
Q 5.515625 40.671875 11.671875 48.328125 
Q 17.828125 56 27.875 56 
Q 33.9375 56 38.28125 53.609375 
Q 42.625 51.21875 45.40625 46.390625 
L 45.40625 54.6875 
L 54.390625 54.6875 
z
" id="DejaVuSans-103"/>
      <path id="DejaVuSans-32"/>
     </defs>
     <g transform="translate(711.552344 402.984945)scale(0.18 -0.18)">
      <use xlink:href="#DejaVuSans-80"/>
      <use x="60.240234" xlink:href="#DejaVuSans-97"/>
      <use x="121.519531" xlink:href="#DejaVuSans-100"/>
      <use x="184.996094" xlink:href="#DejaVuSans-100"/>
      <use x="248.472656" xlink:href="#DejaVuSans-105"/>
      <use x="276.255859" xlink:href="#DejaVuSans-110"/>
      <use x="339.634766" xlink:href="#DejaVuSans-103"/>
      <use x="403.111328" xlink:href="#DejaVuSans-32"/>
      <use x="434.898438" xlink:href="#DejaVuSans-80"/>
     </g>
    </g>
   </g>
   <g id="matplotlib.axis_2">
    <g id="ytick_1">
     <g id="line2d_10">
      <path clip-path="url(#pc83fc937ef)" d="M 86.520625 332.6532 
L 1425.720625 332.6532 
" style="fill:none;stroke:#b0b0b0;stroke-linecap:square;stroke-width:0.8;"/>
     </g>
     <g id="line2d_11">
      <defs>
       <path d="M 0 0 
L -3.5 0 
" id="me8df5c2b7a" style="stroke:#000000;stroke-width:0.8;"/>
      </defs>
      <g>
       <use style="stroke:#000000;stroke-width:0.8;" x="86.520625" xlink:href="#me8df5c2b7a" y="332.6532"/>
      </g>
     </g>
     <g id="text_11">
      <!-- 11500 -->
      <g transform="translate(28.620625 338.73195)scale(0.16 -0.16)">
       <use xlink:href="#DejaVuSans-49"/>
       <use x="63.623047" xlink:href="#DejaVuSans-49"/>
       <use x="127.246094" xlink:href="#DejaVuSans-53"/>
       <use x="190.869141" xlink:href="#DejaVuSans-48"/>
       <use x="254.492188" xlink:href="#DejaVuSans-48"/>
      </g>
     </g>
    </g>
    <g id="ytick_2">
     <g id="line2d_12">
      <path clip-path="url(#pc83fc937ef)" d="M 86.520625 297.559786 
L 1425.720625 297.559786 
" style="fill:none;stroke:#b0b0b0;stroke-linecap:square;stroke-width:0.8;"/>
     </g>
     <g id="line2d_13">
      <g>
       <use style="stroke:#000000;stroke-width:0.8;" x="86.520625" xlink:href="#me8df5c2b7a" y="297.559786"/>
      </g>
     </g>
     <g id="text_12">
      <!-- 11750 -->
      <g transform="translate(28.620625 303.638536)scale(0.16 -0.16)">
       <use xlink:href="#DejaVuSans-49"/>
       <use x="63.623047" xlink:href="#DejaVuSans-49"/>
       <use x="127.246094" xlink:href="#DejaVuSans-55"/>
       <use x="190.869141" xlink:href="#DejaVuSans-53"/>
       <use x="254.492188" xlink:href="#DejaVuSans-48"/>
      </g>
     </g>
    </g>
    <g id="ytick_3">
     <g id="line2d_14">
      <path clip-path="url(#pc83fc937ef)" d="M 86.520625 262.466372 
L 1425.720625 262.466372 
" style="fill:none;stroke:#b0b0b0;stroke-linecap:square;stroke-width:0.8;"/>
     </g>
     <g id="line2d_15">
      <g>
       <use style="stroke:#000000;stroke-width:0.8;" x="86.520625" xlink:href="#me8df5c2b7a" y="262.466372"/>
      </g>
     </g>
     <g id="text_13">
      <!-- 12000 -->
      <g transform="translate(28.620625 268.545122)scale(0.16 -0.16)">
       <use xlink:href="#DejaVuSans-49"/>
       <use x="63.623047" xlink:href="#DejaVuSans-50"/>
       <use x="127.246094" xlink:href="#DejaVuSans-48"/>
       <use x="190.869141" xlink:href="#DejaVuSans-48"/>
       <use x="254.492188" xlink:href="#DejaVuSans-48"/>
      </g>
     </g>
    </g>
    <g id="ytick_4">
     <g id="line2d_16">
      <path clip-path="url(#pc83fc937ef)" d="M 86.520625 227.372958 
L 1425.720625 227.372958 
" style="fill:none;stroke:#b0b0b0;stroke-linecap:square;stroke-width:0.8;"/>
     </g>
     <g id="line2d_17">
      <g>
       <use style="stroke:#000000;stroke-width:0.8;" x="86.520625" xlink:href="#me8df5c2b7a" y="227.372958"/>
      </g>
     </g>
     <g id="text_14">
      <!-- 12250 -->
      <g transform="translate(28.620625 233.451708)scale(0.16 -0.16)">
       <use xlink:href="#DejaVuSans-49"/>
       <use x="63.623047" xlink:href="#DejaVuSans-50"/>
       <use x="127.246094" xlink:href="#DejaVuSans-50"/>
       <use x="190.869141" xlink:href="#DejaVuSans-53"/>
       <use x="254.492188" xlink:href="#DejaVuSans-48"/>
      </g>
     </g>
    </g>
    <g id="ytick_5">
     <g id="line2d_18">
      <path clip-path="url(#pc83fc937ef)" d="M 86.520625 192.279544 
L 1425.720625 192.279544 
" style="fill:none;stroke:#b0b0b0;stroke-linecap:square;stroke-width:0.8;"/>
     </g>
     <g id="line2d_19">
      <g>
       <use style="stroke:#000000;stroke-width:0.8;" x="86.520625" xlink:href="#me8df5c2b7a" y="192.279544"/>
      </g>
     </g>
     <g id="text_15">
      <!-- 12500 -->
      <g transform="translate(28.620625 198.358294)scale(0.16 -0.16)">
       <use xlink:href="#DejaVuSans-49"/>
       <use x="63.623047" xlink:href="#DejaVuSans-50"/>
       <use x="127.246094" xlink:href="#DejaVuSans-53"/>
       <use x="190.869141" xlink:href="#DejaVuSans-48"/>
       <use x="254.492188" xlink:href="#DejaVuSans-48"/>
      </g>
     </g>
    </g>
    <g id="ytick_6">
     <g id="line2d_20">
      <path clip-path="url(#pc83fc937ef)" d="M 86.520625 157.18613 
L 1425.720625 157.18613 
" style="fill:none;stroke:#b0b0b0;stroke-linecap:square;stroke-width:0.8;"/>
     </g>
     <g id="line2d_21">
      <g>
       <use style="stroke:#000000;stroke-width:0.8;" x="86.520625" xlink:href="#me8df5c2b7a" y="157.18613"/>
      </g>
     </g>
     <g id="text_16">
      <!-- 12750 -->
      <g transform="translate(28.620625 163.26488)scale(0.16 -0.16)">
       <use xlink:href="#DejaVuSans-49"/>
       <use x="63.623047" xlink:href="#DejaVuSans-50"/>
       <use x="127.246094" xlink:href="#DejaVuSans-55"/>
       <use x="190.869141" xlink:href="#DejaVuSans-53"/>
       <use x="254.492188" xlink:href="#DejaVuSans-48"/>
      </g>
     </g>
    </g>
    <g id="ytick_7">
     <g id="line2d_22">
      <path clip-path="url(#pc83fc937ef)" d="M 86.520625 122.092716 
L 1425.720625 122.092716 
" style="fill:none;stroke:#b0b0b0;stroke-linecap:square;stroke-width:0.8;"/>
     </g>
     <g id="line2d_23">
      <g>
       <use style="stroke:#000000;stroke-width:0.8;" x="86.520625" xlink:href="#me8df5c2b7a" y="122.092716"/>
      </g>
     </g>
     <g id="text_17">
      <!-- 13000 -->
      <g transform="translate(28.620625 128.171466)scale(0.16 -0.16)">
       <use xlink:href="#DejaVuSans-49"/>
       <use x="63.623047" xlink:href="#DejaVuSans-51"/>
       <use x="127.246094" xlink:href="#DejaVuSans-48"/>
       <use x="190.869141" xlink:href="#DejaVuSans-48"/>
       <use x="254.492188" xlink:href="#DejaVuSans-48"/>
      </g>
     </g>
    </g>
    <g id="ytick_8">
     <g id="line2d_24">
      <path clip-path="url(#pc83fc937ef)" d="M 86.520625 86.999303 
L 1425.720625 86.999303 
" style="fill:none;stroke:#b0b0b0;stroke-linecap:square;stroke-width:0.8;"/>
     </g>
     <g id="line2d_25">
      <g>
       <use style="stroke:#000000;stroke-width:0.8;" x="86.520625" xlink:href="#me8df5c2b7a" y="86.999303"/>
      </g>
     </g>
     <g id="text_18">
      <!-- 13250 -->
      <g transform="translate(28.620625 93.078053)scale(0.16 -0.16)">
       <use xlink:href="#DejaVuSans-49"/>
       <use x="63.623047" xlink:href="#DejaVuSans-51"/>
       <use x="127.246094" xlink:href="#DejaVuSans-50"/>
       <use x="190.869141" xlink:href="#DejaVuSans-53"/>
       <use x="254.492188" xlink:href="#DejaVuSans-48"/>
      </g>
     </g>
    </g>
    <g id="text_19">
     <!-- CPU time (ns) -->
     <defs>
      <path d="M 64.40625 67.28125 
L 64.40625 56.890625 
Q 59.421875 61.53125 53.78125 63.8125 
Q 48.140625 66.109375 41.796875 66.109375 
Q 29.296875 66.109375 22.65625 58.46875 
Q 16.015625 50.828125 16.015625 36.375 
Q 16.015625 21.96875 22.65625 14.328125 
Q 29.296875 6.6875 41.796875 6.6875 
Q 48.140625 6.6875 53.78125 8.984375 
Q 59.421875 11.28125 64.40625 15.921875 
L 64.40625 5.609375 
Q 59.234375 2.09375 53.4375 0.328125 
Q 47.65625 -1.421875 41.21875 -1.421875 
Q 24.65625 -1.421875 15.125 8.703125 
Q 5.609375 18.84375 5.609375 36.375 
Q 5.609375 53.953125 15.125 64.078125 
Q 24.65625 74.21875 41.21875 74.21875 
Q 47.75 74.21875 53.53125 72.484375 
Q 59.328125 70.75 64.40625 67.28125 
z
" id="DejaVuSans-67"/>
      <path d="M 8.6875 72.90625 
L 18.609375 72.90625 
L 18.609375 28.609375 
Q 18.609375 16.890625 22.84375 11.734375 
Q 27.09375 6.59375 36.625 6.59375 
Q 46.09375 6.59375 50.34375 11.734375 
Q 54.59375 16.890625 54.59375 28.609375 
L 54.59375 72.90625 
L 64.5 72.90625 
L 64.5 27.390625 
Q 64.5 13.140625 57.4375 5.859375 
Q 50.390625 -1.421875 36.625 -1.421875 
Q 22.796875 -1.421875 15.734375 5.859375 
Q 8.6875 13.140625 8.6875 27.390625 
z
" id="DejaVuSans-85"/>
      <path d="M 18.3125 70.21875 
L 18.3125 54.6875 
L 36.8125 54.6875 
L 36.8125 47.703125 
L 18.3125 47.703125 
L 18.3125 18.015625 
Q 18.3125 11.328125 20.140625 9.421875 
Q 21.96875 7.515625 27.59375 7.515625 
L 36.8125 7.515625 
L 36.8125 0 
L 27.59375 0 
Q 17.1875 0 13.234375 3.875 
Q 9.28125 7.765625 9.28125 18.015625 
L 9.28125 47.703125 
L 2.6875 47.703125 
L 2.6875 54.6875 
L 9.28125 54.6875 
L 9.28125 70.21875 
z
" id="DejaVuSans-116"/>
      <path d="M 52 44.1875 
Q 55.375 50.25 60.0625 53.125 
Q 64.75 56 71.09375 56 
Q 79.640625 56 84.28125 50.015625 
Q 88.921875 44.046875 88.921875 33.015625 
L 88.921875 0 
L 79.890625 0 
L 79.890625 32.71875 
Q 79.890625 40.578125 77.09375 44.375 
Q 74.3125 48.1875 68.609375 48.1875 
Q 61.625 48.1875 57.5625 43.546875 
Q 53.515625 38.921875 53.515625 30.90625 
L 53.515625 0 
L 44.484375 0 
L 44.484375 32.71875 
Q 44.484375 40.625 41.703125 44.40625 
Q 38.921875 48.1875 33.109375 48.1875 
Q 26.21875 48.1875 22.15625 43.53125 
Q 18.109375 38.875 18.109375 30.90625 
L 18.109375 0 
L 9.078125 0 
L 9.078125 54.6875 
L 18.109375 54.6875 
L 18.109375 46.1875 
Q 21.1875 51.21875 25.484375 53.609375 
Q 29.78125 56 35.6875 56 
Q 41.65625 56 45.828125 52.96875 
Q 50 49.953125 52 44.1875 
z
" id="DejaVuSans-109"/>
      <path d="M 56.203125 29.59375 
L 56.203125 25.203125 
L 14.890625 25.203125 
Q 15.484375 15.921875 20.484375 11.0625 
Q 25.484375 6.203125 34.421875 6.203125 
Q 39.59375 6.203125 44.453125 7.46875 
Q 49.3125 8.734375 54.109375 11.28125 
L 54.109375 2.78125 
Q 49.265625 0.734375 44.1875 -0.34375 
Q 39.109375 -1.421875 33.890625 -1.421875 
Q 20.796875 -1.421875 13.15625 6.1875 
Q 5.515625 13.8125 5.515625 26.8125 
Q 5.515625 40.234375 12.765625 48.109375 
Q 20.015625 56 32.328125 56 
Q 43.359375 56 49.78125 48.890625 
Q 56.203125 41.796875 56.203125 29.59375 
z
M 47.21875 32.234375 
Q 47.125 39.59375 43.09375 43.984375 
Q 39.0625 48.390625 32.421875 48.390625 
Q 24.90625 48.390625 20.390625 44.140625 
Q 15.875 39.890625 15.1875 32.171875 
z
" id="DejaVuSans-101"/>
      <path d="M 31 75.875 
Q 24.46875 64.65625 21.28125 53.65625 
Q 18.109375 42.671875 18.109375 31.390625 
Q 18.109375 20.125 21.3125 9.0625 
Q 24.515625 -2 31 -13.1875 
L 23.1875 -13.1875 
Q 15.875 -1.703125 12.234375 9.375 
Q 8.59375 20.453125 8.59375 31.390625 
Q 8.59375 42.28125 12.203125 53.3125 
Q 15.828125 64.359375 23.1875 75.875 
z
" id="DejaVuSans-40"/>
      <path d="M 44.28125 53.078125 
L 44.28125 44.578125 
Q 40.484375 46.53125 36.375 47.5 
Q 32.28125 48.484375 27.875 48.484375 
Q 21.1875 48.484375 17.84375 46.4375 
Q 14.5 44.390625 14.5 40.28125 
Q 14.5 37.15625 16.890625 35.375 
Q 19.28125 33.59375 26.515625 31.984375 
L 29.59375 31.296875 
Q 39.15625 29.25 43.1875 25.515625 
Q 47.21875 21.78125 47.21875 15.09375 
Q 47.21875 7.46875 41.1875 3.015625 
Q 35.15625 -1.421875 24.609375 -1.421875 
Q 20.21875 -1.421875 15.453125 -0.5625 
Q 10.6875 0.296875 5.421875 2 
L 5.421875 11.28125 
Q 10.40625 8.6875 15.234375 7.390625 
Q 20.0625 6.109375 24.8125 6.109375 
Q 31.15625 6.109375 34.5625 8.28125 
Q 37.984375 10.453125 37.984375 14.40625 
Q 37.984375 18.0625 35.515625 20.015625 
Q 33.0625 21.96875 24.703125 23.78125 
L 21.578125 24.515625 
Q 13.234375 26.265625 9.515625 29.90625 
Q 5.8125 33.546875 5.8125 39.890625 
Q 5.8125 47.609375 11.28125 51.796875 
Q 16.75 56 26.8125 56 
Q 31.78125 56 36.171875 55.265625 
Q 40.578125 54.546875 44.28125 53.078125 
z
" id="DejaVuSans-115"/>
      <path d="M 8.015625 75.875 
L 15.828125 75.875 
Q 23.140625 64.359375 26.78125 53.3125 
Q 30.421875 42.28125 30.421875 31.390625 
Q 30.421875 20.453125 26.78125 9.375 
Q 23.140625 -1.703125 15.828125 -13.1875 
L 8.015625 -13.1875 
Q 14.5 -2 17.703125 9.0625 
Q 20.90625 20.125 20.90625 31.390625 
Q 20.90625 42.671875 17.703125 53.65625 
Q 14.5 64.65625 8.015625 75.875 
z
" id="DejaVuSans-41"/>
     </defs>
     <g transform="translate(20.877188 281.707785)rotate(-90)scale(0.18 -0.18)">
      <use xlink:href="#DejaVuSans-67"/>
      <use x="69.824219" xlink:href="#DejaVuSans-80"/>
      <use x="130.126953" xlink:href="#DejaVuSans-85"/>
      <use x="203.320312" xlink:href="#DejaVuSans-32"/>
      <use x="235.107422" xlink:href="#DejaVuSans-116"/>
      <use x="274.316406" xlink:href="#DejaVuSans-105"/>
      <use x="302.099609" xlink:href="#DejaVuSans-109"/>
      <use x="399.511719" xlink:href="#DejaVuSans-101"/>
      <use x="461.035156" xlink:href="#DejaVuSans-32"/>
      <use x="492.822266" xlink:href="#DejaVuSans-40"/>
      <use x="531.835938" xlink:href="#DejaVuSans-110"/>
      <use x="595.214844" xlink:href="#DejaVuSans-115"/>
      <use x="647.314453" xlink:href="#DejaVuSans-41"/>
     </g>
    </g>
   </g>
   <g id="line2d_26">
    <path clip-path="url(#pc83fc937ef)" d="M 147.393352 164.862815 
L 299.57517 162.422859 
L 451.756989 145.279436 
L 603.938807 140.391657 
L 756.120625 125.696058 
L 908.302443 125.696058 
L 1060.484261 118.360455 
L 1212.66608 118.360455 
L 1364.847898 106.11268 
" style="fill:none;stroke:#55868c;stroke-linecap:square;stroke-width:1.5;"/>
   </g>
   <g id="line2d_27">
    <path clip-path="url(#pc83fc937ef)" d="M 147.393352 145.279436 
L 299.57517 145.279436 
L 451.756989 140.391657 
L 603.938807 125.696058 
L 756.120625 140.391657 
L 908.302443 96.329252 
L 1060.484261 118.360455 
L 1212.66608 86.529301 
L 1364.847898 130.591903 
" style="fill:none;stroke:#eec584;stroke-linecap:square;stroke-width:1.5;"/>
   </g>
   <g id="line2d_28">
    <path clip-path="url(#pc83fc937ef)" d="M 147.393352 336.217375 
L 299.57517 301.946463 
L 451.756989 319.081919 
L 603.938807 336.217375 
L 756.120625 353.352831 
L 908.302443 341.113219 
L 1060.484261 341.113219 
L 1212.66608 321.529841 
L 1364.847898 321.529841 
" style="fill:none;stroke:#ce4257;stroke-linecap:square;stroke-width:1.5;"/>
   </g>
   <g id="line2d_29">
    <path clip-path="url(#pc83fc937ef)" d="M 147.393352 262.779706 
L 299.57517 250.540095 
L 451.756989 262.779706 
L 603.938807 243.196328 
L 756.120625 223.61295 
L 908.302443 223.61295 
L 1060.484261 204.029571 
L 1212.66608 204.029571 
L 1364.847898 204.029571 
" style="fill:none;stroke:#59546c;stroke-linecap:square;stroke-width:1.5;"/>
   </g>
   <g id="patch_3">
    <path d="M 86.520625 366.694007 
L 86.520625 73.188125 
" style="fill:none;stroke:#000000;stroke-linecap:square;stroke-linejoin:miter;stroke-width:0.8;"/>
   </g>
   <g id="patch_4">
    <path d="M 1425.720625 366.694007 
L 1425.720625 73.188125 
" style="fill:none;stroke:#000000;stroke-linecap:square;stroke-linejoin:miter;stroke-width:0.8;"/>
   </g>
   <g id="patch_5">
    <path d="M 86.520625 366.694007 
L 1425.720625 366.694007 
" style="fill:none;stroke:#000000;stroke-linecap:square;stroke-linejoin:miter;stroke-width:0.8;"/>
   </g>
   <g id="patch_6">
    <path d="M 86.520625 73.188125 
L 1425.720625 73.188125 
" style="fill:none;stroke:#000000;stroke-linecap:square;stroke-linejoin:miter;stroke-width:0.8;"/>
   </g>
   <g id="text_20">
    <!-- Conv1D(P, 2, 4) -->
    <defs>
     <path d="M 30.609375 48.390625 
Q 23.390625 48.390625 19.1875 42.75 
Q 14.984375 37.109375 14.984375 27.296875 
Q 14.984375 17.484375 19.15625 11.84375 
Q 23.34375 6.203125 30.609375 6.203125 
Q 37.796875 6.203125 41.984375 11.859375 
Q 46.1875 17.53125 46.1875 27.296875 
Q 46.1875 37.015625 41.984375 42.703125 
Q 37.796875 48.390625 30.609375 48.390625 
z
M 30.609375 56 
Q 42.328125 56 49.015625 48.375 
Q 55.71875 40.765625 55.71875 27.296875 
Q 55.71875 13.875 49.015625 6.21875 
Q 42.328125 -1.421875 30.609375 -1.421875 
Q 18.84375 -1.421875 12.171875 6.21875 
Q 5.515625 13.875 5.515625 27.296875 
Q 5.515625 40.765625 12.171875 48.375 
Q 18.84375 56 30.609375 56 
z
" id="DejaVuSans-111"/>
     <path d="M 2.984375 54.6875 
L 12.5 54.6875 
L 29.59375 8.796875 
L 46.6875 54.6875 
L 56.203125 54.6875 
L 35.6875 0 
L 23.484375 0 
z
" id="DejaVuSans-118"/>
     <path d="M 19.671875 64.796875 
L 19.671875 8.109375 
L 31.59375 8.109375 
Q 46.6875 8.109375 53.6875 14.9375 
Q 60.6875 21.78125 60.6875 36.53125 
Q 60.6875 51.171875 53.6875 57.984375 
Q 46.6875 64.796875 31.59375 64.796875 
z
M 9.8125 72.90625 
L 30.078125 72.90625 
Q 51.265625 72.90625 61.171875 64.09375 
Q 71.09375 55.28125 71.09375 36.53125 
Q 71.09375 17.671875 61.125 8.828125 
Q 51.171875 0 30.078125 0 
L 9.8125 0 
z
" id="DejaVuSans-68"/>
     <path d="M 11.71875 12.40625 
L 22.015625 12.40625 
L 22.015625 4 
L 14.015625 -11.625 
L 7.71875 -11.625 
L 11.71875 4 
z
" id="DejaVuSans-44"/>
    </defs>
    <g transform="translate(677.43 22.396875)scale(0.2 -0.2)">
     <use xlink:href="#DejaVuSans-67"/>
     <use x="69.824219" xlink:href="#DejaVuSans-111"/>
     <use x="131.005859" xlink:href="#DejaVuSans-110"/>
     <use x="194.384766" xlink:href="#DejaVuSans-118"/>
     <use x="253.564453" xlink:href="#DejaVuSans-49"/>
     <use x="317.1875" xlink:href="#DejaVuSans-68"/>
     <use x="394.189453" xlink:href="#DejaVuSans-40"/>
     <use x="433.203125" xlink:href="#DejaVuSans-80"/>
     <use x="493.505859" xlink:href="#DejaVuSans-44"/>
     <use x="525.292969" xlink:href="#DejaVuSans-32"/>
     <use x="557.080078" xlink:href="#DejaVuSans-50"/>
     <use x="620.703125" xlink:href="#DejaVuSans-44"/>
     <use x="652.490234" xlink:href="#DejaVuSans-32"/>
     <use x="684.277344" xlink:href="#DejaVuSans-52"/>
     <use x="747.900391" xlink:href="#DejaVuSans-41"/>
    </g>
    <!-- Filter: 3 x 3 x 7 -->
    <defs>
     <path d="M 9.8125 72.90625 
L 51.703125 72.90625 
L 51.703125 64.59375 
L 19.671875 64.59375 
L 19.671875 43.109375 
L 48.578125 43.109375 
L 48.578125 34.8125 
L 19.671875 34.8125 
L 19.671875 0 
L 9.8125 0 
z
" id="DejaVuSans-70"/>
     <path d="M 9.421875 75.984375 
L 18.40625 75.984375 
L 18.40625 0 
L 9.421875 0 
z
" id="DejaVuSans-108"/>
     <path d="M 41.109375 46.296875 
Q 39.59375 47.171875 37.8125 47.578125 
Q 36.03125 48 33.890625 48 
Q 26.265625 48 22.1875 43.046875 
Q 18.109375 38.09375 18.109375 28.8125 
L 18.109375 0 
L 9.078125 0 
L 9.078125 54.6875 
L 18.109375 54.6875 
L 18.109375 46.1875 
Q 20.953125 51.171875 25.484375 53.578125 
Q 30.03125 56 36.53125 56 
Q 37.453125 56 38.578125 55.875 
Q 39.703125 55.765625 41.0625 55.515625 
z
" id="DejaVuSans-114"/>
     <path d="M 11.71875 12.40625 
L 22.015625 12.40625 
L 22.015625 0 
L 11.71875 0 
z
M 11.71875 51.703125 
L 22.015625 51.703125 
L 22.015625 39.3125 
L 11.71875 39.3125 
z
" id="DejaVuSans-58"/>
     <path d="M 54.890625 54.6875 
L 35.109375 28.078125 
L 55.90625 0 
L 45.3125 0 
L 29.390625 21.484375 
L 13.484375 0 
L 2.875 0 
L 24.125 28.609375 
L 4.6875 54.6875 
L 15.28125 54.6875 
L 29.78125 35.203125 
L 44.28125 54.6875 
z
" id="DejaVuSans-120"/>
    </defs>
    <g transform="translate(680.456563 44.7925)scale(0.2 -0.2)">
     <use xlink:href="#DejaVuSans-70"/>
     <use x="57.410156" xlink:href="#DejaVuSans-105"/>
     <use x="85.193359" xlink:href="#DejaVuSans-108"/>
     <use x="112.976562" xlink:href="#DejaVuSans-116"/>
     <use x="152.185547" xlink:href="#DejaVuSans-101"/>
     <use x="213.708984" xlink:href="#DejaVuSans-114"/>
     <use x="254.806641" xlink:href="#DejaVuSans-58"/>
     <use x="288.498047" xlink:href="#DejaVuSans-32"/>
     <use x="320.285156" xlink:href="#DejaVuSans-51"/>
     <use x="383.908203" xlink:href="#DejaVuSans-32"/>
     <use x="415.695312" xlink:href="#DejaVuSans-120"/>
     <use x="474.875" xlink:href="#DejaVuSans-32"/>
     <use x="506.662109" xlink:href="#DejaVuSans-51"/>
     <use x="570.285156" xlink:href="#DejaVuSans-32"/>
     <use x="602.072266" xlink:href="#DejaVuSans-120"/>
     <use x="661.251953" xlink:href="#DejaVuSans-32"/>
     <use x="693.039062" xlink:href="#DejaVuSans-55"/>
    </g>
    <!-- Input: 3 x 500 -->
    <defs>
     <path d="M 9.8125 72.90625 
L 19.671875 72.90625 
L 19.671875 0 
L 9.8125 0 
z
" id="DejaVuSans-73"/>
     <path d="M 18.109375 8.203125 
L 18.109375 -20.796875 
L 9.078125 -20.796875 
L 9.078125 54.6875 
L 18.109375 54.6875 
L 18.109375 46.390625 
Q 20.953125 51.265625 25.265625 53.625 
Q 29.59375 56 35.59375 56 
Q 45.5625 56 51.78125 48.09375 
Q 58.015625 40.1875 58.015625 27.296875 
Q 58.015625 14.40625 51.78125 6.484375 
Q 45.5625 -1.421875 35.59375 -1.421875 
Q 29.59375 -1.421875 25.265625 0.953125 
Q 20.953125 3.328125 18.109375 8.203125 
z
M 48.6875 27.296875 
Q 48.6875 37.203125 44.609375 42.84375 
Q 40.53125 48.484375 33.40625 48.484375 
Q 26.265625 48.484375 22.1875 42.84375 
Q 18.109375 37.203125 18.109375 27.296875 
Q 18.109375 17.390625 22.1875 11.75 
Q 26.265625 6.109375 33.40625 6.109375 
Q 40.53125 6.109375 44.609375 11.75 
Q 48.6875 17.390625 48.6875 27.296875 
z
" id="DejaVuSans-112"/>
     <path d="M 8.5 21.578125 
L 8.5 54.6875 
L 17.484375 54.6875 
L 17.484375 21.921875 
Q 17.484375 14.15625 20.5 10.265625 
Q 23.53125 6.390625 29.59375 6.390625 
Q 36.859375 6.390625 41.078125 11.03125 
Q 45.3125 15.671875 45.3125 23.6875 
L 45.3125 54.6875 
L 54.296875 54.6875 
L 54.296875 0 
L 45.3125 0 
L 45.3125 8.40625 
Q 42.046875 3.421875 37.71875 1 
Q 33.40625 -1.421875 27.6875 -1.421875 
Q 18.265625 -1.421875 13.375 4.4375 
Q 8.5 10.296875 8.5 21.578125 
z
M 31.109375 56 
z
" id="DejaVuSans-117"/>
    </defs>
    <g transform="translate(685.955 67.188125)scale(0.2 -0.2)">
     <use xlink:href="#DejaVuSans-73"/>
     <use x="29.492188" xlink:href="#DejaVuSans-110"/>
     <use x="92.871094" xlink:href="#DejaVuSans-112"/>
     <use x="156.347656" xlink:href="#DejaVuSans-117"/>
     <use x="219.726562" xlink:href="#DejaVuSans-116"/>
     <use x="258.935547" xlink:href="#DejaVuSans-58"/>
     <use x="292.626953" xlink:href="#DejaVuSans-32"/>
     <use x="324.414062" xlink:href="#DejaVuSans-51"/>
     <use x="388.037109" xlink:href="#DejaVuSans-32"/>
     <use x="419.824219" xlink:href="#DejaVuSans-120"/>
     <use x="479.003906" xlink:href="#DejaVuSans-32"/>
     <use x="510.791016" xlink:href="#DejaVuSans-53"/>
     <use x="574.414062" xlink:href="#DejaVuSans-48"/>
     <use x="638.037109" xlink:href="#DejaVuSans-48"/>
    </g>
   </g>
   <g id="legend_1">
    <g id="patch_7">
     <path d="M 94.920625 153.576875 
L 209.201875 153.576875 
Q 211.601875 153.576875 211.601875 151.176875 
L 211.601875 81.588125 
Q 211.601875 79.188125 209.201875 79.188125 
L 94.920625 79.188125 
Q 92.520625 79.188125 92.520625 81.588125 
L 92.520625 151.176875 
Q 92.520625 153.576875 94.920625 153.576875 
z
" style="fill:#ffffff;opacity:0.8;stroke:#cccccc;stroke-linejoin:miter;"/>
    </g>
    <g id="line2d_30">
     <path d="M 97.320625 88.90625 
L 121.320625 88.90625 
" style="fill:none;stroke:#55868c;stroke-linecap:square;stroke-width:1.5;"/>
    </g>
    <g id="line2d_31"/>
    <g id="text_21">
     <!-- std::uint16_t -->
     <defs>
      <path d="M 50.984375 -16.609375 
L 50.984375 -23.578125 
L -0.984375 -23.578125 
L -0.984375 -16.609375 
z
" id="DejaVuSans-95"/>
     </defs>
     <g transform="translate(130.920625 93.10625)scale(0.12 -0.12)">
      <use xlink:href="#DejaVuSans-115"/>
      <use x="52.099609" xlink:href="#DejaVuSans-116"/>
      <use x="91.308594" xlink:href="#DejaVuSans-100"/>
      <use x="154.785156" xlink:href="#DejaVuSans-58"/>
      <use x="188.476562" xlink:href="#DejaVuSans-58"/>
      <use x="222.167969" xlink:href="#DejaVuSans-117"/>
      <use x="285.546875" xlink:href="#DejaVuSans-105"/>
      <use x="313.330078" xlink:href="#DejaVuSans-110"/>
      <use x="376.708984" xlink:href="#DejaVuSans-116"/>
      <use x="415.917969" xlink:href="#DejaVuSans-49"/>
      <use x="479.541016" xlink:href="#DejaVuSans-54"/>
      <use x="543.164062" xlink:href="#DejaVuSans-95"/>
      <use x="593.164062" xlink:href="#DejaVuSans-116"/>
     </g>
    </g>
    <g id="line2d_32">
     <path d="M 97.320625 106.85375 
L 121.320625 106.85375 
" style="fill:none;stroke:#eec584;stroke-linecap:square;stroke-width:1.5;"/>
    </g>
    <g id="line2d_33"/>
    <g id="text_22">
     <!-- int -->
     <g transform="translate(130.920625 111.05375)scale(0.12 -0.12)">
      <use xlink:href="#DejaVuSans-105"/>
      <use x="27.783203" xlink:href="#DejaVuSans-110"/>
      <use x="91.162109" xlink:href="#DejaVuSans-116"/>
     </g>
    </g>
    <g id="line2d_34">
     <path d="M 97.320625 124.4675 
L 121.320625 124.4675 
" style="fill:none;stroke:#ce4257;stroke-linecap:square;stroke-width:1.5;"/>
    </g>
    <g id="line2d_35"/>
    <g id="text_23">
     <!-- float -->
     <defs>
      <path d="M 37.109375 75.984375 
L 37.109375 68.5 
L 28.515625 68.5 
Q 23.6875 68.5 21.796875 66.546875 
Q 19.921875 64.59375 19.921875 59.515625 
L 19.921875 54.6875 
L 34.71875 54.6875 
L 34.71875 47.703125 
L 19.921875 47.703125 
L 19.921875 0 
L 10.890625 0 
L 10.890625 47.703125 
L 2.296875 47.703125 
L 2.296875 54.6875 
L 10.890625 54.6875 
L 10.890625 58.5 
Q 10.890625 67.625 15.140625 71.796875 
Q 19.390625 75.984375 28.609375 75.984375 
z
" id="DejaVuSans-102"/>
     </defs>
     <g transform="translate(130.920625 128.6675)scale(0.12 -0.12)">
      <use xlink:href="#DejaVuSans-102"/>
      <use x="35.205078" xlink:href="#DejaVuSans-108"/>
      <use x="62.988281" xlink:href="#DejaVuSans-111"/>
      <use x="124.169922" xlink:href="#DejaVuSans-97"/>
      <use x="185.449219" xlink:href="#DejaVuSans-116"/>
     </g>
    </g>
    <g id="line2d_36">
     <path d="M 97.320625 142.08125 
L 121.320625 142.08125 
" style="fill:none;stroke:#59546c;stroke-linecap:square;stroke-width:1.5;"/>
    </g>
    <g id="line2d_37"/>
    <g id="text_24">
     <!-- double -->
     <defs>
      <path d="M 48.6875 27.296875 
Q 48.6875 37.203125 44.609375 42.84375 
Q 40.53125 48.484375 33.40625 48.484375 
Q 26.265625 48.484375 22.1875 42.84375 
Q 18.109375 37.203125 18.109375 27.296875 
Q 18.109375 17.390625 22.1875 11.75 
Q 26.265625 6.109375 33.40625 6.109375 
Q 40.53125 6.109375 44.609375 11.75 
Q 48.6875 17.390625 48.6875 27.296875 
z
M 18.109375 46.390625 
Q 20.953125 51.265625 25.265625 53.625 
Q 29.59375 56 35.59375 56 
Q 45.5625 56 51.78125 48.09375 
Q 58.015625 40.1875 58.015625 27.296875 
Q 58.015625 14.40625 51.78125 6.484375 
Q 45.5625 -1.421875 35.59375 -1.421875 
Q 29.59375 -1.421875 25.265625 0.953125 
Q 20.953125 3.328125 18.109375 8.203125 
L 18.109375 0 
L 9.078125 0 
L 9.078125 75.984375 
L 18.109375 75.984375 
z
" id="DejaVuSans-98"/>
     </defs>
     <g transform="translate(130.920625 146.28125)scale(0.12 -0.12)">
      <use xlink:href="#DejaVuSans-100"/>
      <use x="63.476562" xlink:href="#DejaVuSans-111"/>
      <use x="124.658203" xlink:href="#DejaVuSans-117"/>
      <use x="188.037109" xlink:href="#DejaVuSans-98"/>
      <use x="251.513672" xlink:href="#DejaVuSans-108"/>
      <use x="279.296875" xlink:href="#DejaVuSans-101"/>
     </g>
    </g>
   </g>
  </g>
  <g id="axes_2">
   <g id="table_1">
    <g id="patch_8">
     <path d="M 86.520625 511.979419 
L 421.320625 511.979419 
L 421.320625 440.070478 
L 86.520625 440.070478 
z
" style="fill:#55868c;stroke:#000000;stroke-linejoin:miter;"/>
    </g>
    <g id="text_25">
     <!-- std::uint16_t -->
     <defs>
      <path d="M 51.125 52.984375 
L 51.125 39.703125 
Q 45.515625 42.046875 40.28125 43.21875 
Q 35.0625 44.390625 30.421875 44.390625 
Q 25.4375 44.390625 23.015625 43.140625 
Q 20.609375 41.890625 20.609375 39.3125 
Q 20.609375 37.203125 22.4375 36.078125 
Q 24.265625 34.96875 29 34.421875 
L 32.078125 33.984375 
Q 45.515625 32.28125 50.140625 28.375 
Q 54.78125 24.46875 54.78125 16.109375 
Q 54.78125 7.375 48.328125 2.96875 
Q 41.890625 -1.421875 29.109375 -1.421875 
Q 23.6875 -1.421875 17.890625 -0.5625 
Q 12.109375 0.296875 6 2 
L 6 15.28125 
Q 11.234375 12.75 16.71875 11.46875 
Q 22.21875 10.203125 27.875 10.203125 
Q 33.015625 10.203125 35.59375 11.609375 
Q 38.1875 13.03125 38.1875 15.828125 
Q 38.1875 18.171875 36.40625 19.3125 
Q 34.625 20.453125 29.296875 21.09375 
L 26.21875 21.484375 
Q 14.546875 22.953125 9.859375 26.90625 
Q 5.171875 30.859375 5.171875 38.921875 
Q 5.171875 47.609375 11.125 51.796875 
Q 17.09375 56 29.390625 56 
Q 34.234375 56 39.546875 55.265625 
Q 44.875 54.546875 51.125 52.984375 
z
" id="DejaVuSans-Bold-115"/>
      <path d="M 27.484375 70.21875 
L 27.484375 54.6875 
L 45.515625 54.6875 
L 45.515625 42.1875 
L 27.484375 42.1875 
L 27.484375 19 
Q 27.484375 15.1875 29 13.84375 
Q 30.515625 12.5 35.015625 12.5 
L 44 12.5 
L 44 0 
L 29 0 
Q 18.65625 0 14.328125 4.3125 
Q 10.015625 8.640625 10.015625 19 
L 10.015625 42.1875 
L 1.3125 42.1875 
L 1.3125 54.6875 
L 10.015625 54.6875 
L 10.015625 70.21875 
z
" id="DejaVuSans-Bold-116"/>
      <path d="M 45.609375 46.6875 
L 45.609375 75.984375 
L 63.1875 75.984375 
L 63.1875 0 
L 45.609375 0 
L 45.609375 7.90625 
Q 42 3.078125 37.640625 0.828125 
Q 33.296875 -1.421875 27.59375 -1.421875 
Q 17.484375 -1.421875 10.984375 6.609375 
Q 4.5 14.65625 4.5 27.296875 
Q 4.5 39.9375 10.984375 47.96875 
Q 17.484375 56 27.59375 56 
Q 33.25 56 37.625 53.734375 
Q 42 51.46875 45.609375 46.6875 
z
M 34.078125 11.28125 
Q 39.703125 11.28125 42.65625 15.375 
Q 45.609375 19.484375 45.609375 27.296875 
Q 45.609375 35.109375 42.65625 39.203125 
Q 39.703125 43.3125 34.078125 43.3125 
Q 28.515625 43.3125 25.5625 39.203125 
Q 22.609375 35.109375 22.609375 27.296875 
Q 22.609375 19.484375 25.5625 15.375 
Q 28.515625 11.28125 34.078125 11.28125 
z
" id="DejaVuSans-Bold-100"/>
      <path d="M 11.1875 54.6875 
L 28.8125 54.6875 
L 28.8125 35.796875 
L 11.1875 35.796875 
z
M 11.1875 18.890625 
L 28.8125 18.890625 
L 28.8125 0 
L 11.1875 0 
z
" id="DejaVuSans-Bold-58"/>
      <path d="M 7.8125 21.296875 
L 7.8125 54.6875 
L 25.390625 54.6875 
L 25.390625 49.21875 
Q 25.390625 44.78125 25.34375 38.0625 
Q 25.296875 31.34375 25.296875 29.109375 
Q 25.296875 22.515625 25.640625 19.609375 
Q 25.984375 16.703125 26.8125 15.375 
Q 27.875 13.671875 29.609375 12.734375 
Q 31.34375 11.8125 33.59375 11.8125 
Q 39.0625 11.8125 42.1875 16.015625 
Q 45.3125 20.21875 45.3125 27.6875 
L 45.3125 54.6875 
L 62.796875 54.6875 
L 62.796875 0 
L 45.3125 0 
L 45.3125 7.90625 
Q 41.359375 3.125 36.9375 0.84375 
Q 32.515625 -1.421875 27.203125 -1.421875 
Q 17.71875 -1.421875 12.765625 4.390625 
Q 7.8125 10.203125 7.8125 21.296875 
z
" id="DejaVuSans-Bold-117"/>
      <path d="M 8.40625 54.6875 
L 25.875 54.6875 
L 25.875 0 
L 8.40625 0 
z
M 8.40625 75.984375 
L 25.875 75.984375 
L 25.875 61.71875 
L 8.40625 61.71875 
z
" id="DejaVuSans-Bold-105"/>
      <path d="M 63.375 33.296875 
L 63.375 0 
L 45.796875 0 
L 45.796875 5.421875 
L 45.796875 25.484375 
Q 45.796875 32.5625 45.484375 35.25 
Q 45.171875 37.9375 44.390625 39.203125 
Q 43.359375 40.921875 41.59375 41.875 
Q 39.84375 42.828125 37.59375 42.828125 
Q 32.125 42.828125 29 38.59375 
Q 25.875 34.375 25.875 26.90625 
L 25.875 0 
L 8.40625 0 
L 8.40625 54.6875 
L 25.875 54.6875 
L 25.875 46.6875 
Q 29.828125 51.46875 34.265625 53.734375 
Q 38.71875 56 44.09375 56 
Q 53.5625 56 58.46875 50.1875 
Q 63.375 44.390625 63.375 33.296875 
z
" id="DejaVuSans-Bold-110"/>
      <path d="M 11.71875 12.984375 
L 28.328125 12.984375 
L 28.328125 60.109375 
L 11.28125 56.59375 
L 11.28125 69.390625 
L 28.21875 72.90625 
L 46.09375 72.90625 
L 46.09375 12.984375 
L 62.703125 12.984375 
L 62.703125 0 
L 11.71875 0 
z
" id="DejaVuSans-Bold-49"/>
      <path d="M 36.1875 35.984375 
Q 31.25 35.984375 28.78125 32.78125 
Q 26.3125 29.59375 26.3125 23.1875 
Q 26.3125 16.796875 28.78125 13.59375 
Q 31.25 10.40625 36.1875 10.40625 
Q 41.15625 10.40625 43.625 13.59375 
Q 46.09375 16.796875 46.09375 23.1875 
Q 46.09375 29.59375 43.625 32.78125 
Q 41.15625 35.984375 36.1875 35.984375 
z
M 59.421875 71 
L 59.421875 57.515625 
Q 54.78125 59.71875 50.671875 60.765625 
Q 46.578125 61.8125 42.671875 61.8125 
Q 34.28125 61.8125 29.59375 57.140625 
Q 24.90625 52.484375 24.125 43.3125 
Q 27.34375 45.703125 31.09375 46.890625 
Q 34.859375 48.09375 39.3125 48.09375 
Q 50.484375 48.09375 57.34375 41.546875 
Q 64.203125 35.015625 64.203125 24.421875 
Q 64.203125 12.703125 56.53125 5.640625 
Q 48.875 -1.421875 35.984375 -1.421875 
Q 21.78125 -1.421875 13.984375 8.171875 
Q 6.203125 17.78125 6.203125 35.40625 
Q 6.203125 53.46875 15.3125 63.796875 
Q 24.421875 74.125 40.28125 74.125 
Q 45.3125 74.125 50.046875 73.34375 
Q 54.78125 72.5625 59.421875 71 
z
" id="DejaVuSans-Bold-54"/>
      <path d="M 50 -14.3125 
L 50 -23.578125 
L 0 -23.578125 
L 0 -14.3125 
z
" id="DejaVuSans-Bold-95"/>
     </defs>
     <g transform="translate(217.907344 478.645261)scale(0.1 -0.1)">
      <use xlink:href="#DejaVuSans-Bold-115"/>
      <use x="59.521484" xlink:href="#DejaVuSans-Bold-116"/>
      <use x="107.324219" xlink:href="#DejaVuSans-Bold-100"/>
      <use x="178.90625" xlink:href="#DejaVuSans-Bold-58"/>
      <use x="218.896484" xlink:href="#DejaVuSans-Bold-58"/>
      <use x="258.886719" xlink:href="#DejaVuSans-Bold-117"/>
      <use x="330.078125" xlink:href="#DejaVuSans-Bold-105"/>
      <use x="364.355469" xlink:href="#DejaVuSans-Bold-110"/>
      <use x="435.546875" xlink:href="#DejaVuSans-Bold-116"/>
      <use x="483.349609" xlink:href="#DejaVuSans-Bold-49"/>
      <use x="552.929688" xlink:href="#DejaVuSans-Bold-54"/>
      <use x="622.509766" xlink:href="#DejaVuSans-Bold-95"/>
      <use x="672.509766" xlink:href="#DejaVuSans-Bold-116"/>
     </g>
    </g>
    <g id="patch_9">
     <path d="M 421.320625 511.979419 
L 756.120625 511.979419 
L 756.120625 440.070478 
L 421.320625 440.070478 
z
" style="fill:#eec584;stroke:#000000;stroke-linejoin:miter;"/>
    </g>
    <g id="text_26">
     <!-- int -->
     <g transform="translate(581.057344 478.784324)scale(0.1 -0.1)">
      <use xlink:href="#DejaVuSans-Bold-105"/>
      <use x="34.277344" xlink:href="#DejaVuSans-Bold-110"/>
      <use x="105.46875" xlink:href="#DejaVuSans-Bold-116"/>
     </g>
    </g>
    <g id="patch_10">
     <path d="M 756.120625 511.979419 
L 1090.920625 511.979419 
L 1090.920625 440.070478 
L 756.120625 440.070478 
z
" style="fill:#ce4257;stroke:#000000;stroke-linejoin:miter;"/>
    </g>
    <g id="text_27">
     <!-- float -->
     <defs>
      <path d="M 44.390625 75.984375 
L 44.390625 64.5 
L 34.71875 64.5 
Q 31 64.5 29.53125 63.15625 
Q 28.078125 61.8125 28.078125 58.5 
L 28.078125 54.6875 
L 43.015625 54.6875 
L 43.015625 42.1875 
L 28.078125 42.1875 
L 28.078125 0 
L 10.59375 0 
L 10.59375 42.1875 
L 1.90625 42.1875 
L 1.90625 54.6875 
L 10.59375 54.6875 
L 10.59375 58.5 
Q 10.59375 67.4375 15.578125 71.703125 
Q 20.5625 75.984375 31 75.984375 
z
" id="DejaVuSans-Bold-102"/>
      <path d="M 8.40625 75.984375 
L 25.875 75.984375 
L 25.875 0 
L 8.40625 0 
z
" id="DejaVuSans-Bold-108"/>
      <path d="M 34.421875 43.5 
Q 28.609375 43.5 25.5625 39.328125 
Q 22.515625 35.15625 22.515625 27.296875 
Q 22.515625 19.4375 25.5625 15.25 
Q 28.609375 11.078125 34.421875 11.078125 
Q 40.140625 11.078125 43.15625 15.25 
Q 46.1875 19.4375 46.1875 27.296875 
Q 46.1875 35.15625 43.15625 39.328125 
Q 40.140625 43.5 34.421875 43.5 
z
M 34.421875 56 
Q 48.53125 56 56.46875 48.375 
Q 64.40625 40.765625 64.40625 27.296875 
Q 64.40625 13.8125 56.46875 6.1875 
Q 48.53125 -1.421875 34.421875 -1.421875 
Q 20.265625 -1.421875 12.28125 6.1875 
Q 4.296875 13.8125 4.296875 27.296875 
Q 4.296875 40.765625 12.28125 48.375 
Q 20.265625 56 34.421875 56 
z
" id="DejaVuSans-Bold-111"/>
      <path d="M 32.90625 24.609375 
Q 27.4375 24.609375 24.671875 22.75 
Q 21.921875 20.90625 21.921875 17.28125 
Q 21.921875 13.96875 24.140625 12.078125 
Q 26.375 10.203125 30.328125 10.203125 
Q 35.25 10.203125 38.625 13.734375 
Q 42 17.28125 42 22.609375 
L 42 24.609375 
z
M 59.625 31.203125 
L 59.625 0 
L 42 0 
L 42 8.109375 
Q 38.484375 3.125 34.078125 0.84375 
Q 29.6875 -1.421875 23.390625 -1.421875 
Q 14.890625 -1.421875 9.59375 3.53125 
Q 4.296875 8.5 4.296875 16.40625 
Q 4.296875 26.03125 10.90625 30.515625 
Q 17.53125 35.015625 31.6875 35.015625 
L 42 35.015625 
L 42 36.375 
Q 42 40.53125 38.71875 42.453125 
Q 35.453125 44.390625 28.515625 44.390625 
Q 22.90625 44.390625 18.0625 43.265625 
Q 13.234375 42.140625 9.078125 39.890625 
L 9.078125 53.21875 
Q 14.703125 54.59375 20.359375 55.296875 
Q 26.03125 56 31.6875 56 
Q 46.484375 56 53.046875 50.171875 
Q 59.625 44.34375 59.625 31.203125 
z
" id="DejaVuSans-Bold-97"/>
     </defs>
     <g transform="translate(910.432344 478.784324)scale(0.1 -0.1)">
      <use xlink:href="#DejaVuSans-Bold-102"/>
      <use x="43.505859" xlink:href="#DejaVuSans-Bold-108"/>
      <use x="77.783203" xlink:href="#DejaVuSans-Bold-111"/>
      <use x="146.484375" xlink:href="#DejaVuSans-Bold-97"/>
      <use x="213.964844" xlink:href="#DejaVuSans-Bold-116"/>
     </g>
    </g>
    <g id="patch_11">
     <path d="M 1090.920625 511.979419 
L 1425.720625 511.979419 
L 1425.720625 440.070478 
L 1090.920625 440.070478 
z
" style="fill:#59546c;stroke:#000000;stroke-linejoin:miter;"/>
    </g>
    <g id="text_28">
     <!-- double -->
     <defs>
      <path d="M 37.5 11.28125 
Q 43.109375 11.28125 46.0625 15.375 
Q 49.03125 19.484375 49.03125 27.296875 
Q 49.03125 35.109375 46.0625 39.203125 
Q 43.109375 43.3125 37.5 43.3125 
Q 31.890625 43.3125 28.875 39.1875 
Q 25.875 35.0625 25.875 27.296875 
Q 25.875 19.53125 28.875 15.40625 
Q 31.890625 11.28125 37.5 11.28125 
z
M 25.875 46.6875 
Q 29.5 51.46875 33.890625 53.734375 
Q 38.28125 56 44 56 
Q 54.109375 56 60.59375 47.96875 
Q 67.09375 39.9375 67.09375 27.296875 
Q 67.09375 14.65625 60.59375 6.609375 
Q 54.109375 -1.421875 44 -1.421875 
Q 38.28125 -1.421875 33.890625 0.84375 
Q 29.5 3.125 25.875 7.90625 
L 25.875 0 
L 8.40625 0 
L 8.40625 75.984375 
L 25.875 75.984375 
z
" id="DejaVuSans-Bold-98"/>
      <path d="M 62.984375 27.484375 
L 62.984375 22.515625 
L 22.125 22.515625 
Q 22.75 16.359375 26.5625 13.28125 
Q 30.375 10.203125 37.203125 10.203125 
Q 42.71875 10.203125 48.5 11.84375 
Q 54.296875 13.484375 60.40625 16.796875 
L 60.40625 3.328125 
Q 54.203125 0.984375 48 -0.21875 
Q 41.796875 -1.421875 35.59375 -1.421875 
Q 20.75 -1.421875 12.515625 6.125 
Q 4.296875 13.671875 4.296875 27.296875 
Q 4.296875 40.671875 12.375 48.328125 
Q 20.453125 56 34.625 56 
Q 47.515625 56 55.25 48.234375 
Q 62.984375 40.484375 62.984375 27.484375 
z
M 45.015625 33.296875 
Q 45.015625 38.28125 42.109375 41.328125 
Q 39.203125 44.390625 34.515625 44.390625 
Q 29.4375 44.390625 26.265625 41.53125 
Q 23.09375 38.671875 22.3125 33.296875 
z
" id="DejaVuSans-Bold-101"/>
     </defs>
     <g transform="translate(1239.062813 478.784324)scale(0.1 -0.1)">
      <use xlink:href="#DejaVuSans-Bold-100"/>
      <use x="71.582031" xlink:href="#DejaVuSans-Bold-111"/>
      <use x="140.283203" xlink:href="#DejaVuSans-Bold-117"/>
      <use x="211.474609" xlink:href="#DejaVuSans-Bold-98"/>
      <use x="283.056641" xlink:href="#DejaVuSans-Bold-108"/>
      <use x="317.333984" xlink:href="#DejaVuSans-Bold-101"/>
     </g>
    </g>
    <g id="patch_12">
     <path d="M 78.17125 583.88836 
L 86.520625 583.88836 
L 86.520625 511.979419 
L 78.17125 511.979419 
z
" style="fill:#ffffff;stroke:#000000;stroke-linejoin:miter;"/>
    </g>
    <g id="text_29">
     <!-- 0 -->
     <defs>
      <path d="M 46 36.53125 
Q 46 50.203125 43.4375 55.78125 
Q 40.875 61.375 34.8125 61.375 
Q 28.765625 61.375 26.171875 55.78125 
Q 23.578125 50.203125 23.578125 36.53125 
Q 23.578125 22.703125 26.171875 17.03125 
Q 28.765625 11.375 34.8125 11.375 
Q 40.828125 11.375 43.40625 17.03125 
Q 46 22.703125 46 36.53125 
z
M 64.796875 36.375 
Q 64.796875 18.265625 56.984375 8.421875 
Q 49.171875 -1.421875 34.8125 -1.421875 
Q 20.40625 -1.421875 12.59375 8.421875 
Q 4.78125 18.265625 4.78125 36.375 
Q 4.78125 54.546875 12.59375 64.375 
Q 20.40625 74.21875 34.8125 74.21875 
Q 49.171875 74.21875 56.984375 64.375 
Q 64.796875 54.546875 64.796875 36.375 
z
" id="DejaVuSans-Bold-48"/>
     </defs>
     <g transform="translate(78.867031 550.693265)scale(0.1 -0.1)">
      <use xlink:href="#DejaVuSans-Bold-48"/>
     </g>
    </g>
    <g id="patch_13">
     <path d="M 86.520625 583.88836 
L 421.320625 583.88836 
L 421.320625 511.979419 
L 86.520625 511.979419 
z
" style="fill:#55868c;stroke:#000000;stroke-linejoin:miter;"/>
    </g>
    <g id="text_30">
     <!--    12695 -->
     <defs>
      <path d="M 10.984375 1.515625 
L 10.984375 10.5 
Q 14.703125 8.734375 18.5 7.8125 
Q 22.3125 6.890625 25.984375 6.890625 
Q 35.75 6.890625 40.890625 13.453125 
Q 46.046875 20.015625 46.78125 33.40625 
Q 43.953125 29.203125 39.59375 26.953125 
Q 35.25 24.703125 29.984375 24.703125 
Q 19.046875 24.703125 12.671875 31.3125 
Q 6.296875 37.9375 6.296875 49.421875 
Q 6.296875 60.640625 12.9375 67.421875 
Q 19.578125 74.21875 30.609375 74.21875 
Q 43.265625 74.21875 49.921875 64.515625 
Q 56.59375 54.828125 56.59375 36.375 
Q 56.59375 19.140625 48.40625 8.859375 
Q 40.234375 -1.421875 26.421875 -1.421875 
Q 22.703125 -1.421875 18.890625 -0.6875 
Q 15.09375 0.046875 10.984375 1.515625 
z
M 30.609375 32.421875 
Q 37.25 32.421875 41.125 36.953125 
Q 45.015625 41.5 45.015625 49.421875 
Q 45.015625 57.28125 41.125 61.84375 
Q 37.25 66.40625 30.609375 66.40625 
Q 23.96875 66.40625 20.09375 61.84375 
Q 16.21875 57.28125 16.21875 49.421875 
Q 16.21875 41.5 20.09375 36.953125 
Q 23.96875 32.421875 30.609375 32.421875 
z
" id="DejaVuSans-57"/>
     </defs>
     <g transform="translate(233.247188 550.693265)scale(0.1 -0.1)">
      <use xlink:href="#DejaVuSans-32"/>
      <use x="31.787109" xlink:href="#DejaVuSans-32"/>
      <use x="63.574219" xlink:href="#DejaVuSans-32"/>
      <use x="95.361328" xlink:href="#DejaVuSans-49"/>
      <use x="158.984375" xlink:href="#DejaVuSans-50"/>
      <use x="222.607422" xlink:href="#DejaVuSans-54"/>
      <use x="286.230469" xlink:href="#DejaVuSans-57"/>
      <use x="349.853516" xlink:href="#DejaVuSans-53"/>
     </g>
    </g>
    <g id="patch_14">
     <path d="M 421.320625 583.88836 
L 756.120625 583.88836 
L 756.120625 511.979419 
L 421.320625 511.979419 
z
" style="fill:#eec584;stroke:#000000;stroke-linejoin:miter;"/>
    </g>
    <g id="text_31">
     <!--    12835 -->
     <g transform="translate(568.047188 550.693265)scale(0.1 -0.1)">
      <use xlink:href="#DejaVuSans-32"/>
      <use x="31.787109" xlink:href="#DejaVuSans-32"/>
      <use x="63.574219" xlink:href="#DejaVuSans-32"/>
      <use x="95.361328" xlink:href="#DejaVuSans-49"/>
      <use x="158.984375" xlink:href="#DejaVuSans-50"/>
      <use x="222.607422" xlink:href="#DejaVuSans-56"/>
      <use x="286.230469" xlink:href="#DejaVuSans-51"/>
      <use x="349.853516" xlink:href="#DejaVuSans-53"/>
     </g>
    </g>
    <g id="patch_15">
     <path d="M 756.120625 583.88836 
L 1090.920625 583.88836 
L 1090.920625 511.979419 
L 756.120625 511.979419 
z
" style="fill:#ce4257;stroke:#000000;stroke-linejoin:miter;"/>
    </g>
    <g id="text_32">
     <!--    11475 -->
     <g transform="translate(902.847188 550.693265)scale(0.1 -0.1)">
      <use xlink:href="#DejaVuSans-32"/>
      <use x="31.787109" xlink:href="#DejaVuSans-32"/>
      <use x="63.574219" xlink:href="#DejaVuSans-32"/>
      <use x="95.361328" xlink:href="#DejaVuSans-49"/>
      <use x="158.984375" xlink:href="#DejaVuSans-49"/>
      <use x="222.607422" xlink:href="#DejaVuSans-52"/>
      <use x="286.230469" xlink:href="#DejaVuSans-55"/>
      <use x="349.853516" xlink:href="#DejaVuSans-53"/>
     </g>
    </g>
    <g id="patch_16">
     <path d="M 1090.920625 583.88836 
L 1425.720625 583.88836 
L 1425.720625 511.979419 
L 1090.920625 511.979419 
z
" style="fill:#59546c;stroke:#000000;stroke-linejoin:miter;"/>
    </g>
    <g id="text_33">
     <!--    11998 -->
     <g transform="translate(1237.647188 550.693265)scale(0.1 -0.1)">
      <use xlink:href="#DejaVuSans-32"/>
      <use x="31.787109" xlink:href="#DejaVuSans-32"/>
      <use x="63.574219" xlink:href="#DejaVuSans-32"/>
      <use x="95.361328" xlink:href="#DejaVuSans-49"/>
      <use x="158.984375" xlink:href="#DejaVuSans-49"/>
      <use x="222.607422" xlink:href="#DejaVuSans-57"/>
      <use x="286.230469" xlink:href="#DejaVuSans-57"/>
      <use x="349.853516" xlink:href="#DejaVuSans-56"/>
     </g>
    </g>
    <g id="patch_17">
     <path d="M 78.17125 655.797301 
L 86.520625 655.797301 
L 86.520625 583.88836 
L 78.17125 583.88836 
z
" style="fill:#ffffff;stroke:#000000;stroke-linejoin:miter;"/>
    </g>
    <g id="text_34">
     <!-- 1 -->
     <g transform="translate(78.867031 622.602206)scale(0.1 -0.1)">
      <use xlink:href="#DejaVuSans-Bold-49"/>
     </g>
    </g>
    <g id="patch_18">
     <path d="M 86.520625 655.797301 
L 421.320625 655.797301 
L 421.320625 583.88836 
L 86.520625 583.88836 
z
" style="fill:#55868c;stroke:#000000;stroke-linejoin:miter;"/>
    </g>
    <g id="text_35">
     <!--    12713 -->
     <g transform="translate(233.247188 622.602206)scale(0.1 -0.1)">
      <use xlink:href="#DejaVuSans-32"/>
      <use x="31.787109" xlink:href="#DejaVuSans-32"/>
      <use x="63.574219" xlink:href="#DejaVuSans-32"/>
      <use x="95.361328" xlink:href="#DejaVuSans-49"/>
      <use x="158.984375" xlink:href="#DejaVuSans-50"/>
      <use x="222.607422" xlink:href="#DejaVuSans-55"/>
      <use x="286.230469" xlink:href="#DejaVuSans-49"/>
      <use x="349.853516" xlink:href="#DejaVuSans-51"/>
     </g>
    </g>
    <g id="patch_19">
     <path d="M 421.320625 655.797301 
L 756.120625 655.797301 
L 756.120625 583.88836 
L 421.320625 583.88836 
z
" style="fill:#eec584;stroke:#000000;stroke-linejoin:miter;"/>
    </g>
    <g id="text_36">
     <!--    12835 -->
     <g transform="translate(568.047188 622.602206)scale(0.1 -0.1)">
      <use xlink:href="#DejaVuSans-32"/>
      <use x="31.787109" xlink:href="#DejaVuSans-32"/>
      <use x="63.574219" xlink:href="#DejaVuSans-32"/>
      <use x="95.361328" xlink:href="#DejaVuSans-49"/>
      <use x="158.984375" xlink:href="#DejaVuSans-50"/>
      <use x="222.607422" xlink:href="#DejaVuSans-56"/>
      <use x="286.230469" xlink:href="#DejaVuSans-51"/>
      <use x="349.853516" xlink:href="#DejaVuSans-53"/>
     </g>
    </g>
    <g id="patch_20">
     <path d="M 756.120625 655.797301 
L 1090.920625 655.797301 
L 1090.920625 583.88836 
L 756.120625 583.88836 
z
" style="fill:#ce4257;stroke:#000000;stroke-linejoin:miter;"/>
    </g>
    <g id="text_37">
     <!--    11719 -->
     <g transform="translate(902.847188 622.602206)scale(0.1 -0.1)">
      <use xlink:href="#DejaVuSans-32"/>
      <use x="31.787109" xlink:href="#DejaVuSans-32"/>
      <use x="63.574219" xlink:href="#DejaVuSans-32"/>
      <use x="95.361328" xlink:href="#DejaVuSans-49"/>
      <use x="158.984375" xlink:href="#DejaVuSans-49"/>
      <use x="222.607422" xlink:href="#DejaVuSans-55"/>
      <use x="286.230469" xlink:href="#DejaVuSans-49"/>
      <use x="349.853516" xlink:href="#DejaVuSans-57"/>
     </g>
    </g>
    <g id="patch_21">
     <path d="M 1090.920625 655.797301 
L 1425.720625 655.797301 
L 1425.720625 583.88836 
L 1090.920625 583.88836 
z
" style="fill:#59546c;stroke:#000000;stroke-linejoin:miter;"/>
    </g>
    <g id="text_38">
     <!--    12085 -->
     <g transform="translate(1237.647188 622.602206)scale(0.1 -0.1)">
      <use xlink:href="#DejaVuSans-32"/>
      <use x="31.787109" xlink:href="#DejaVuSans-32"/>
      <use x="63.574219" xlink:href="#DejaVuSans-32"/>
      <use x="95.361328" xlink:href="#DejaVuSans-49"/>
      <use x="158.984375" xlink:href="#DejaVuSans-50"/>
      <use x="222.607422" xlink:href="#DejaVuSans-48"/>
      <use x="286.230469" xlink:href="#DejaVuSans-56"/>
      <use x="349.853516" xlink:href="#DejaVuSans-53"/>
     </g>
    </g>
    <g id="patch_22">
     <path d="M 78.17125 727.706243 
L 86.520625 727.706243 
L 86.520625 655.797301 
L 78.17125 655.797301 
z
" style="fill:#ffffff;stroke:#000000;stroke-linejoin:miter;"/>
    </g>
    <g id="text_39">
     <!-- 2 -->
     <defs>
      <path d="M 28.8125 13.8125 
L 60.890625 13.8125 
L 60.890625 0 
L 7.90625 0 
L 7.90625 13.8125 
L 34.515625 37.3125 
Q 38.09375 40.53125 39.796875 43.609375 
Q 41.5 46.6875 41.5 50 
Q 41.5 55.125 38.0625 58.25 
Q 34.625 61.375 28.90625 61.375 
Q 24.515625 61.375 19.28125 59.5 
Q 14.0625 57.625 8.109375 53.90625 
L 8.109375 69.921875 
Q 14.453125 72.015625 20.65625 73.109375 
Q 26.859375 74.21875 32.8125 74.21875 
Q 45.90625 74.21875 53.15625 68.453125 
Q 60.40625 62.703125 60.40625 52.390625 
Q 60.40625 46.4375 57.328125 41.28125 
Q 54.25 36.140625 44.390625 27.484375 
z
" id="DejaVuSans-Bold-50"/>
     </defs>
     <g transform="translate(78.867031 694.511147)scale(0.1 -0.1)">
      <use xlink:href="#DejaVuSans-Bold-50"/>
     </g>
    </g>
    <g id="patch_23">
     <path d="M 86.520625 727.706243 
L 421.320625 727.706243 
L 421.320625 655.797301 
L 86.520625 655.797301 
z
" style="fill:#55868c;stroke:#000000;stroke-linejoin:miter;"/>
    </g>
    <g id="text_40">
     <!--    12835 -->
     <g transform="translate(233.247188 694.511147)scale(0.1 -0.1)">
      <use xlink:href="#DejaVuSans-32"/>
      <use x="31.787109" xlink:href="#DejaVuSans-32"/>
      <use x="63.574219" xlink:href="#DejaVuSans-32"/>
      <use x="95.361328" xlink:href="#DejaVuSans-49"/>
      <use x="158.984375" xlink:href="#DejaVuSans-50"/>
      <use x="222.607422" xlink:href="#DejaVuSans-56"/>
      <use x="286.230469" xlink:href="#DejaVuSans-51"/>
      <use x="349.853516" xlink:href="#DejaVuSans-53"/>
     </g>
    </g>
    <g id="patch_24">
     <path d="M 421.320625 727.706243 
L 756.120625 727.706243 
L 756.120625 655.797301 
L 421.320625 655.797301 
z
" style="fill:#eec584;stroke:#000000;stroke-linejoin:miter;"/>
    </g>
    <g id="text_41">
     <!--    12870 -->
     <g transform="translate(568.047188 694.511147)scale(0.1 -0.1)">
      <use xlink:href="#DejaVuSans-32"/>
      <use x="31.787109" xlink:href="#DejaVuSans-32"/>
      <use x="63.574219" xlink:href="#DejaVuSans-32"/>
      <use x="95.361328" xlink:href="#DejaVuSans-49"/>
      <use x="158.984375" xlink:href="#DejaVuSans-50"/>
      <use x="222.607422" xlink:href="#DejaVuSans-56"/>
      <use x="286.230469" xlink:href="#DejaVuSans-55"/>
      <use x="349.853516" xlink:href="#DejaVuSans-48"/>
     </g>
    </g>
    <g id="patch_25">
     <path d="M 756.120625 727.706243 
L 1090.920625 727.706243 
L 1090.920625 655.797301 
L 756.120625 655.797301 
z
" style="fill:#ce4257;stroke:#000000;stroke-linejoin:miter;"/>
    </g>
    <g id="text_42">
     <!--    11597 -->
     <g transform="translate(902.847188 694.511147)scale(0.1 -0.1)">
      <use xlink:href="#DejaVuSans-32"/>
      <use x="31.787109" xlink:href="#DejaVuSans-32"/>
      <use x="63.574219" xlink:href="#DejaVuSans-32"/>
      <use x="95.361328" xlink:href="#DejaVuSans-49"/>
      <use x="158.984375" xlink:href="#DejaVuSans-49"/>
      <use x="222.607422" xlink:href="#DejaVuSans-53"/>
      <use x="286.230469" xlink:href="#DejaVuSans-57"/>
      <use x="349.853516" xlink:href="#DejaVuSans-55"/>
     </g>
    </g>
    <g id="patch_26">
     <path d="M 1090.920625 727.706243 
L 1425.720625 727.706243 
L 1425.720625 655.797301 
L 1090.920625 655.797301 
z
" style="fill:#59546c;stroke:#000000;stroke-linejoin:miter;"/>
    </g>
    <g id="text_43">
     <!--    11998 -->
     <g transform="translate(1237.647188 694.511147)scale(0.1 -0.1)">
      <use xlink:href="#DejaVuSans-32"/>
      <use x="31.787109" xlink:href="#DejaVuSans-32"/>
      <use x="63.574219" xlink:href="#DejaVuSans-32"/>
      <use x="95.361328" xlink:href="#DejaVuSans-49"/>
      <use x="158.984375" xlink:href="#DejaVuSans-49"/>
      <use x="222.607422" xlink:href="#DejaVuSans-57"/>
      <use x="286.230469" xlink:href="#DejaVuSans-57"/>
      <use x="349.853516" xlink:href="#DejaVuSans-56"/>
     </g>
    </g>
    <g id="patch_27">
     <path d="M 78.17125 799.615184 
L 86.520625 799.615184 
L 86.520625 727.706243 
L 78.17125 727.706243 
z
" style="fill:#ffffff;stroke:#000000;stroke-linejoin:miter;"/>
    </g>
    <g id="text_44">
     <!-- 3 -->
     <defs>
      <path d="M 46.578125 39.3125 
Q 53.953125 37.40625 57.78125 32.6875 
Q 61.625 27.984375 61.625 20.703125 
Q 61.625 9.859375 53.3125 4.21875 
Q 45.015625 -1.421875 29.109375 -1.421875 
Q 23.484375 -1.421875 17.84375 -0.515625 
Q 12.203125 0.390625 6.6875 2.203125 
L 6.6875 16.703125 
Q 11.96875 14.0625 17.15625 12.71875 
Q 22.359375 11.375 27.390625 11.375 
Q 34.859375 11.375 38.84375 13.953125 
Q 42.828125 16.546875 42.828125 21.390625 
Q 42.828125 26.375 38.75 28.9375 
Q 34.671875 31.5 26.703125 31.5 
L 19.1875 31.5 
L 19.1875 43.609375 
L 27.09375 43.609375 
Q 34.1875 43.609375 37.640625 45.828125 
Q 41.109375 48.046875 41.109375 52.59375 
Q 41.109375 56.78125 37.734375 59.078125 
Q 34.375 61.375 28.21875 61.375 
Q 23.6875 61.375 19.046875 60.34375 
Q 14.40625 59.328125 9.8125 57.328125 
L 9.8125 71.09375 
Q 15.375 72.65625 20.84375 73.4375 
Q 26.3125 74.21875 31.59375 74.21875 
Q 45.796875 74.21875 52.84375 69.546875 
Q 59.90625 64.890625 59.90625 55.515625 
Q 59.90625 49.125 56.53125 45.046875 
Q 53.171875 40.96875 46.578125 39.3125 
z
" id="DejaVuSans-Bold-51"/>
     </defs>
     <g transform="translate(78.867031 766.420088)scale(0.1 -0.1)">
      <use xlink:href="#DejaVuSans-Bold-51"/>
     </g>
    </g>
    <g id="patch_28">
     <path d="M 86.520625 799.615184 
L 421.320625 799.615184 
L 421.320625 727.706243 
L 86.520625 727.706243 
z
" style="fill:#55868c;stroke:#000000;stroke-linejoin:miter;"/>
    </g>
    <g id="text_45">
     <!--    12870 -->
     <g transform="translate(233.247188 766.420088)scale(0.1 -0.1)">
      <use xlink:href="#DejaVuSans-32"/>
      <use x="31.787109" xlink:href="#DejaVuSans-32"/>
      <use x="63.574219" xlink:href="#DejaVuSans-32"/>
      <use x="95.361328" xlink:href="#DejaVuSans-49"/>
      <use x="158.984375" xlink:href="#DejaVuSans-50"/>
      <use x="222.607422" xlink:href="#DejaVuSans-56"/>
      <use x="286.230469" xlink:href="#DejaVuSans-55"/>
      <use x="349.853516" xlink:href="#DejaVuSans-48"/>
     </g>
    </g>
    <g id="patch_29">
     <path d="M 421.320625 799.615184 
L 756.120625 799.615184 
L 756.120625 727.706243 
L 421.320625 727.706243 
z
" style="fill:#eec584;stroke:#000000;stroke-linejoin:miter;"/>
    </g>
    <g id="text_46">
     <!--    12974 -->
     <g transform="translate(568.047188 766.420088)scale(0.1 -0.1)">
      <use xlink:href="#DejaVuSans-32"/>
      <use x="31.787109" xlink:href="#DejaVuSans-32"/>
      <use x="63.574219" xlink:href="#DejaVuSans-32"/>
      <use x="95.361328" xlink:href="#DejaVuSans-49"/>
      <use x="158.984375" xlink:href="#DejaVuSans-50"/>
      <use x="222.607422" xlink:href="#DejaVuSans-57"/>
      <use x="286.230469" xlink:href="#DejaVuSans-55"/>
      <use x="349.853516" xlink:href="#DejaVuSans-52"/>
     </g>
    </g>
    <g id="patch_30">
     <path d="M 756.120625 799.615184 
L 1090.920625 799.615184 
L 1090.920625 727.706243 
L 756.120625 727.706243 
z
" style="fill:#ce4257;stroke:#000000;stroke-linejoin:miter;"/>
    </g>
    <g id="text_47">
     <!--    11475 -->
     <g transform="translate(902.847188 766.420088)scale(0.1 -0.1)">
      <use xlink:href="#DejaVuSans-32"/>
      <use x="31.787109" xlink:href="#DejaVuSans-32"/>
      <use x="63.574219" xlink:href="#DejaVuSans-32"/>
      <use x="95.361328" xlink:href="#DejaVuSans-49"/>
      <use x="158.984375" xlink:href="#DejaVuSans-49"/>
      <use x="222.607422" xlink:href="#DejaVuSans-52"/>
      <use x="286.230469" xlink:href="#DejaVuSans-55"/>
      <use x="349.853516" xlink:href="#DejaVuSans-53"/>
     </g>
    </g>
    <g id="patch_31">
     <path d="M 1090.920625 799.615184 
L 1425.720625 799.615184 
L 1425.720625 727.706243 
L 1090.920625 727.706243 
z
" style="fill:#59546c;stroke:#000000;stroke-linejoin:miter;"/>
    </g>
    <g id="text_48">
     <!--    12137 -->
     <g transform="translate(1237.647188 766.420088)scale(0.1 -0.1)">
      <use xlink:href="#DejaVuSans-32"/>
      <use x="31.787109" xlink:href="#DejaVuSans-32"/>
      <use x="63.574219" xlink:href="#DejaVuSans-32"/>
      <use x="95.361328" xlink:href="#DejaVuSans-49"/>
      <use x="158.984375" xlink:href="#DejaVuSans-50"/>
      <use x="222.607422" xlink:href="#DejaVuSans-49"/>
      <use x="286.230469" xlink:href="#DejaVuSans-51"/>
      <use x="349.853516" xlink:href="#DejaVuSans-55"/>
     </g>
    </g>
    <g id="patch_32">
     <path d="M 78.17125 871.524125 
L 86.520625 871.524125 
L 86.520625 799.615184 
L 78.17125 799.615184 
z
" style="fill:#ffffff;stroke:#000000;stroke-linejoin:miter;"/>
    </g>
    <g id="text_49">
     <!-- 4 -->
     <defs>
      <path d="M 36.8125 57.421875 
L 16.21875 26.90625 
L 36.8125 26.90625 
z
M 33.6875 72.90625 
L 54.59375 72.90625 
L 54.59375 26.90625 
L 64.984375 26.90625 
L 64.984375 13.28125 
L 54.59375 13.28125 
L 54.59375 0 
L 36.8125 0 
L 36.8125 13.28125 
L 4.5 13.28125 
L 4.5 29.390625 
z
" id="DejaVuSans-Bold-52"/>
     </defs>
     <g transform="translate(78.867031 838.329029)scale(0.1 -0.1)">
      <use xlink:href="#DejaVuSans-Bold-52"/>
     </g>
    </g>
    <g id="patch_33">
     <path d="M 86.520625 871.524125 
L 421.320625 871.524125 
L 421.320625 799.615184 
L 86.520625 799.615184 
z
" style="fill:#55868c;stroke:#000000;stroke-linejoin:miter;"/>
    </g>
    <g id="text_50">
     <!--    12974 -->
     <g transform="translate(233.247188 838.329029)scale(0.1 -0.1)">
      <use xlink:href="#DejaVuSans-32"/>
      <use x="31.787109" xlink:href="#DejaVuSans-32"/>
      <use x="63.574219" xlink:href="#DejaVuSans-32"/>
      <use x="95.361328" xlink:href="#DejaVuSans-49"/>
      <use x="158.984375" xlink:href="#DejaVuSans-50"/>
      <use x="222.607422" xlink:href="#DejaVuSans-57"/>
      <use x="286.230469" xlink:href="#DejaVuSans-55"/>
      <use x="349.853516" xlink:href="#DejaVuSans-52"/>
     </g>
    </g>
    <g id="patch_34">
     <path d="M 421.320625 871.524125 
L 756.120625 871.524125 
L 756.120625 799.615184 
L 421.320625 799.615184 
z
" style="fill:#eec584;stroke:#000000;stroke-linejoin:miter;"/>
    </g>
    <g id="text_51">
     <!--    12870 -->
     <g transform="translate(568.047188 838.329029)scale(0.1 -0.1)">
      <use xlink:href="#DejaVuSans-32"/>
      <use x="31.787109" xlink:href="#DejaVuSans-32"/>
      <use x="63.574219" xlink:href="#DejaVuSans-32"/>
      <use x="95.361328" xlink:href="#DejaVuSans-49"/>
      <use x="158.984375" xlink:href="#DejaVuSans-50"/>
      <use x="222.607422" xlink:href="#DejaVuSans-56"/>
      <use x="286.230469" xlink:href="#DejaVuSans-55"/>
      <use x="349.853516" xlink:href="#DejaVuSans-48"/>
     </g>
    </g>
    <g id="patch_35">
     <path d="M 756.120625 871.524125 
L 1090.920625 871.524125 
L 1090.920625 799.615184 
L 756.120625 799.615184 
z
" style="fill:#ce4257;stroke:#000000;stroke-linejoin:miter;"/>
    </g>
    <g id="text_52">
     <!--    11353 -->
     <g transform="translate(902.847188 838.329029)scale(0.1 -0.1)">
      <use xlink:href="#DejaVuSans-32"/>
      <use x="31.787109" xlink:href="#DejaVuSans-32"/>
      <use x="63.574219" xlink:href="#DejaVuSans-32"/>
      <use x="95.361328" xlink:href="#DejaVuSans-49"/>
      <use x="158.984375" xlink:href="#DejaVuSans-49"/>
      <use x="222.607422" xlink:href="#DejaVuSans-51"/>
      <use x="286.230469" xlink:href="#DejaVuSans-53"/>
      <use x="349.853516" xlink:href="#DejaVuSans-51"/>
     </g>
    </g>
    <g id="patch_36">
     <path d="M 1090.920625 871.524125 
L 1425.720625 871.524125 
L 1425.720625 799.615184 
L 1090.920625 799.615184 
z
" style="fill:#59546c;stroke:#000000;stroke-linejoin:miter;"/>
    </g>
    <g id="text_53">
     <!--    12277 -->
     <g transform="translate(1237.647188 838.329029)scale(0.1 -0.1)">
      <use xlink:href="#DejaVuSans-32"/>
      <use x="31.787109" xlink:href="#DejaVuSans-32"/>
      <use x="63.574219" xlink:href="#DejaVuSans-32"/>
      <use x="95.361328" xlink:href="#DejaVuSans-49"/>
      <use x="158.984375" xlink:href="#DejaVuSans-50"/>
      <use x="222.607422" xlink:href="#DejaVuSans-50"/>
      <use x="286.230469" xlink:href="#DejaVuSans-55"/>
      <use x="349.853516" xlink:href="#DejaVuSans-55"/>
     </g>
    </g>
    <g id="patch_37">
     <path d="M 78.17125 943.433066 
L 86.520625 943.433066 
L 86.520625 871.524125 
L 78.17125 871.524125 
z
" style="fill:#ffffff;stroke:#000000;stroke-linejoin:miter;"/>
    </g>
    <g id="text_54">
     <!-- 5 -->
     <defs>
      <path d="M 10.59375 72.90625 
L 57.328125 72.90625 
L 57.328125 59.078125 
L 25.59375 59.078125 
L 25.59375 47.796875 
Q 27.734375 48.390625 29.90625 48.703125 
Q 32.078125 49.03125 34.421875 49.03125 
Q 47.75 49.03125 55.171875 42.359375 
Q 62.59375 35.6875 62.59375 23.78125 
Q 62.59375 11.96875 54.515625 5.265625 
Q 46.4375 -1.421875 32.078125 -1.421875 
Q 25.875 -1.421875 19.796875 -0.21875 
Q 13.71875 0.984375 7.71875 3.421875 
L 7.71875 18.21875 
Q 13.671875 14.796875 19.015625 13.078125 
Q 24.359375 11.375 29.109375 11.375 
Q 35.9375 11.375 39.859375 14.71875 
Q 43.796875 18.0625 43.796875 23.78125 
Q 43.796875 29.546875 39.859375 32.859375 
Q 35.9375 36.1875 29.109375 36.1875 
Q 25.046875 36.1875 20.453125 35.125 
Q 15.875 34.078125 10.59375 31.890625 
z
" id="DejaVuSans-Bold-53"/>
     </defs>
     <g transform="translate(78.867031 910.237971)scale(0.1 -0.1)">
      <use xlink:href="#DejaVuSans-Bold-53"/>
     </g>
    </g>
    <g id="patch_38">
     <path d="M 86.520625 943.433066 
L 421.320625 943.433066 
L 421.320625 871.524125 
L 86.520625 871.524125 
z
" style="fill:#55868c;stroke:#000000;stroke-linejoin:miter;"/>
    </g>
    <g id="text_55">
     <!--    12974 -->
     <g transform="translate(233.247188 910.237971)scale(0.1 -0.1)">
      <use xlink:href="#DejaVuSans-32"/>
      <use x="31.787109" xlink:href="#DejaVuSans-32"/>
      <use x="63.574219" xlink:href="#DejaVuSans-32"/>
      <use x="95.361328" xlink:href="#DejaVuSans-49"/>
      <use x="158.984375" xlink:href="#DejaVuSans-50"/>
      <use x="222.607422" xlink:href="#DejaVuSans-57"/>
      <use x="286.230469" xlink:href="#DejaVuSans-55"/>
      <use x="349.853516" xlink:href="#DejaVuSans-52"/>
     </g>
    </g>
    <g id="patch_39">
     <path d="M 421.320625 943.433066 
L 756.120625 943.433066 
L 756.120625 871.524125 
L 421.320625 871.524125 
z
" style="fill:#eec584;stroke:#000000;stroke-linejoin:miter;"/>
    </g>
    <g id="text_56">
     <!--    13184 -->
     <g transform="translate(568.047188 910.237971)scale(0.1 -0.1)">
      <use xlink:href="#DejaVuSans-32"/>
      <use x="31.787109" xlink:href="#DejaVuSans-32"/>
      <use x="63.574219" xlink:href="#DejaVuSans-32"/>
      <use x="95.361328" xlink:href="#DejaVuSans-49"/>
      <use x="158.984375" xlink:href="#DejaVuSans-51"/>
      <use x="222.607422" xlink:href="#DejaVuSans-49"/>
      <use x="286.230469" xlink:href="#DejaVuSans-56"/>
      <use x="349.853516" xlink:href="#DejaVuSans-52"/>
     </g>
    </g>
    <g id="patch_40">
     <path d="M 756.120625 943.433066 
L 1090.920625 943.433066 
L 1090.920625 871.524125 
L 756.120625 871.524125 
z
" style="fill:#ce4257;stroke:#000000;stroke-linejoin:miter;"/>
    </g>
    <g id="text_57">
     <!--    11440 -->
     <g transform="translate(902.847188 910.237971)scale(0.1 -0.1)">
      <use xlink:href="#DejaVuSans-32"/>
      <use x="31.787109" xlink:href="#DejaVuSans-32"/>
      <use x="63.574219" xlink:href="#DejaVuSans-32"/>
      <use x="95.361328" xlink:href="#DejaVuSans-49"/>
      <use x="158.984375" xlink:href="#DejaVuSans-49"/>
      <use x="222.607422" xlink:href="#DejaVuSans-52"/>
      <use x="286.230469" xlink:href="#DejaVuSans-52"/>
      <use x="349.853516" xlink:href="#DejaVuSans-48"/>
     </g>
    </g>
    <g id="patch_41">
     <path d="M 1090.920625 943.433066 
L 1425.720625 943.433066 
L 1425.720625 871.524125 
L 1090.920625 871.524125 
z
" style="fill:#59546c;stroke:#000000;stroke-linejoin:miter;"/>
    </g>
    <g id="text_58">
     <!--    12277 -->
     <g transform="translate(1237.647188 910.237971)scale(0.1 -0.1)">
      <use xlink:href="#DejaVuSans-32"/>
      <use x="31.787109" xlink:href="#DejaVuSans-32"/>
      <use x="63.574219" xlink:href="#DejaVuSans-32"/>
      <use x="95.361328" xlink:href="#DejaVuSans-49"/>
      <use x="158.984375" xlink:href="#DejaVuSans-50"/>
      <use x="222.607422" xlink:href="#DejaVuSans-50"/>
      <use x="286.230469" xlink:href="#DejaVuSans-55"/>
      <use x="349.853516" xlink:href="#DejaVuSans-55"/>
     </g>
    </g>
    <g id="patch_42">
     <path d="M 78.17125 1015.342007 
L 86.520625 1015.342007 
L 86.520625 943.433066 
L 78.17125 943.433066 
z
" style="fill:#ffffff;stroke:#000000;stroke-linejoin:miter;"/>
    </g>
    <g id="text_59">
     <!-- 6 -->
     <g transform="translate(78.867031 982.146912)scale(0.1 -0.1)">
      <use xlink:href="#DejaVuSans-Bold-54"/>
     </g>
    </g>
    <g id="patch_43">
     <path d="M 86.520625 1015.342007 
L 421.320625 1015.342007 
L 421.320625 943.433066 
L 86.520625 943.433066 
z
" style="fill:#55868c;stroke:#000000;stroke-linejoin:miter;"/>
    </g>
    <g id="text_60">
     <!--    13027 -->
     <g transform="translate(233.247188 982.146912)scale(0.1 -0.1)">
      <use xlink:href="#DejaVuSans-32"/>
      <use x="31.787109" xlink:href="#DejaVuSans-32"/>
      <use x="63.574219" xlink:href="#DejaVuSans-32"/>
      <use x="95.361328" xlink:href="#DejaVuSans-49"/>
      <use x="158.984375" xlink:href="#DejaVuSans-51"/>
      <use x="222.607422" xlink:href="#DejaVuSans-48"/>
      <use x="286.230469" xlink:href="#DejaVuSans-50"/>
      <use x="349.853516" xlink:href="#DejaVuSans-55"/>
     </g>
    </g>
    <g id="patch_44">
     <path d="M 421.320625 1015.342007 
L 756.120625 1015.342007 
L 756.120625 943.433066 
L 421.320625 943.433066 
z
" style="fill:#eec584;stroke:#000000;stroke-linejoin:miter;"/>
    </g>
    <g id="text_61">
     <!--    13027 -->
     <g transform="translate(568.047188 982.146912)scale(0.1 -0.1)">
      <use xlink:href="#DejaVuSans-32"/>
      <use x="31.787109" xlink:href="#DejaVuSans-32"/>
      <use x="63.574219" xlink:href="#DejaVuSans-32"/>
      <use x="95.361328" xlink:href="#DejaVuSans-49"/>
      <use x="158.984375" xlink:href="#DejaVuSans-51"/>
      <use x="222.607422" xlink:href="#DejaVuSans-48"/>
      <use x="286.230469" xlink:href="#DejaVuSans-50"/>
      <use x="349.853516" xlink:href="#DejaVuSans-55"/>
     </g>
    </g>
    <g id="patch_45">
     <path d="M 756.120625 1015.342007 
L 1090.920625 1015.342007 
L 1090.920625 943.433066 
L 756.120625 943.433066 
z
" style="fill:#ce4257;stroke:#000000;stroke-linejoin:miter;"/>
    </g>
    <g id="text_62">
     <!--    11440 -->
     <g transform="translate(902.847188 982.146912)scale(0.1 -0.1)">
      <use xlink:href="#DejaVuSans-32"/>
      <use x="31.787109" xlink:href="#DejaVuSans-32"/>
      <use x="63.574219" xlink:href="#DejaVuSans-32"/>
      <use x="95.361328" xlink:href="#DejaVuSans-49"/>
      <use x="158.984375" xlink:href="#DejaVuSans-49"/>
      <use x="222.607422" xlink:href="#DejaVuSans-52"/>
      <use x="286.230469" xlink:href="#DejaVuSans-52"/>
      <use x="349.853516" xlink:href="#DejaVuSans-48"/>
     </g>
    </g>
    <g id="patch_46">
     <path d="M 1090.920625 1015.342007 
L 1425.720625 1015.342007 
L 1425.720625 943.433066 
L 1090.920625 943.433066 
z
" style="fill:#59546c;stroke:#000000;stroke-linejoin:miter;"/>
    </g>
    <g id="text_63">
     <!--    12416 -->
     <g transform="translate(1237.647188 982.146912)scale(0.1 -0.1)">
      <use xlink:href="#DejaVuSans-32"/>
      <use x="31.787109" xlink:href="#DejaVuSans-32"/>
      <use x="63.574219" xlink:href="#DejaVuSans-32"/>
      <use x="95.361328" xlink:href="#DejaVuSans-49"/>
      <use x="158.984375" xlink:href="#DejaVuSans-50"/>
      <use x="222.607422" xlink:href="#DejaVuSans-52"/>
      <use x="286.230469" xlink:href="#DejaVuSans-49"/>
      <use x="349.853516" xlink:href="#DejaVuSans-54"/>
     </g>
    </g>
    <g id="patch_47">
     <path d="M 78.17125 1087.250949 
L 86.520625 1087.250949 
L 86.520625 1015.342007 
L 78.17125 1015.342007 
z
" style="fill:#ffffff;stroke:#000000;stroke-linejoin:miter;"/>
    </g>
    <g id="text_64">
     <!-- 7 -->
     <defs>
      <path d="M 6.6875 72.90625 
L 61.625 72.90625 
L 61.625 62.3125 
L 33.203125 0 
L 14.890625 0 
L 41.796875 59.078125 
L 6.6875 59.078125 
z
" id="DejaVuSans-Bold-55"/>
     </defs>
     <g transform="translate(78.867031 1054.055853)scale(0.1 -0.1)">
      <use xlink:href="#DejaVuSans-Bold-55"/>
     </g>
    </g>
    <g id="patch_48">
     <path d="M 86.520625 1087.250949 
L 421.320625 1087.250949 
L 421.320625 1015.342007 
L 86.520625 1015.342007 
z
" style="fill:#55868c;stroke:#000000;stroke-linejoin:miter;"/>
    </g>
    <g id="text_65">
     <!--    13027 -->
     <g transform="translate(233.247188 1054.055853)scale(0.1 -0.1)">
      <use xlink:href="#DejaVuSans-32"/>
      <use x="31.787109" xlink:href="#DejaVuSans-32"/>
      <use x="63.574219" xlink:href="#DejaVuSans-32"/>
      <use x="95.361328" xlink:href="#DejaVuSans-49"/>
      <use x="158.984375" xlink:href="#DejaVuSans-51"/>
      <use x="222.607422" xlink:href="#DejaVuSans-48"/>
      <use x="286.230469" xlink:href="#DejaVuSans-50"/>
      <use x="349.853516" xlink:href="#DejaVuSans-55"/>
     </g>
    </g>
    <g id="patch_49">
     <path d="M 421.320625 1087.250949 
L 756.120625 1087.250949 
L 756.120625 1015.342007 
L 421.320625 1015.342007 
z
" style="fill:#eec584;stroke:#000000;stroke-linejoin:miter;"/>
    </g>
    <g id="text_66">
     <!--    13253 -->
     <g transform="translate(568.047188 1054.055853)scale(0.1 -0.1)">
      <use xlink:href="#DejaVuSans-32"/>
      <use x="31.787109" xlink:href="#DejaVuSans-32"/>
      <use x="63.574219" xlink:href="#DejaVuSans-32"/>
      <use x="95.361328" xlink:href="#DejaVuSans-49"/>
      <use x="158.984375" xlink:href="#DejaVuSans-51"/>
      <use x="222.607422" xlink:href="#DejaVuSans-50"/>
      <use x="286.230469" xlink:href="#DejaVuSans-53"/>
      <use x="349.853516" xlink:href="#DejaVuSans-51"/>
     </g>
    </g>
    <g id="patch_50">
     <path d="M 756.120625 1087.250949 
L 1090.920625 1087.250949 
L 1090.920625 1015.342007 
L 756.120625 1015.342007 
z
" style="fill:#ce4257;stroke:#000000;stroke-linejoin:miter;"/>
    </g>
    <g id="text_67">
     <!--    11579 -->
     <g transform="translate(902.847188 1054.055853)scale(0.1 -0.1)">
      <use xlink:href="#DejaVuSans-32"/>
      <use x="31.787109" xlink:href="#DejaVuSans-32"/>
      <use x="63.574219" xlink:href="#DejaVuSans-32"/>
      <use x="95.361328" xlink:href="#DejaVuSans-49"/>
      <use x="158.984375" xlink:href="#DejaVuSans-49"/>
      <use x="222.607422" xlink:href="#DejaVuSans-53"/>
      <use x="286.230469" xlink:href="#DejaVuSans-55"/>
      <use x="349.853516" xlink:href="#DejaVuSans-57"/>
     </g>
    </g>
    <g id="patch_51">
     <path d="M 1090.920625 1087.250949 
L 1425.720625 1087.250949 
L 1425.720625 1015.342007 
L 1090.920625 1015.342007 
z
" style="fill:#59546c;stroke:#000000;stroke-linejoin:miter;"/>
    </g>
    <g id="text_68">
     <!--    12416 -->
     <g transform="translate(1237.647188 1054.055853)scale(0.1 -0.1)">
      <use xlink:href="#DejaVuSans-32"/>
      <use x="31.787109" xlink:href="#DejaVuSans-32"/>
      <use x="63.574219" xlink:href="#DejaVuSans-32"/>
      <use x="95.361328" xlink:href="#DejaVuSans-49"/>
      <use x="158.984375" xlink:href="#DejaVuSans-50"/>
      <use x="222.607422" xlink:href="#DejaVuSans-52"/>
      <use x="286.230469" xlink:href="#DejaVuSans-49"/>
      <use x="349.853516" xlink:href="#DejaVuSans-54"/>
     </g>
    </g>
    <g id="patch_52">
     <path d="M 78.17125 1159.15989 
L 86.520625 1159.15989 
L 86.520625 1087.250949 
L 78.17125 1087.250949 
z
" style="fill:#ffffff;stroke:#000000;stroke-linejoin:miter;"/>
    </g>
    <g id="text_69">
     <!-- 8 -->
     <defs>
      <path d="M 34.8125 32.625 
Q 29.546875 32.625 26.703125 29.734375 
Q 23.875 26.859375 23.875 21.484375 
Q 23.875 16.109375 26.703125 13.25 
Q 29.546875 10.40625 34.8125 10.40625 
Q 40.046875 10.40625 42.828125 13.25 
Q 45.609375 16.109375 45.609375 21.484375 
Q 45.609375 26.90625 42.828125 29.765625 
Q 40.046875 32.625 34.8125 32.625 
z
M 21.09375 38.8125 
Q 14.453125 40.828125 11.078125 44.96875 
Q 7.71875 49.125 7.71875 55.328125 
Q 7.71875 64.546875 14.59375 69.375 
Q 21.484375 74.21875 34.8125 74.21875 
Q 48.046875 74.21875 54.921875 69.40625 
Q 61.8125 64.59375 61.8125 55.328125 
Q 61.8125 49.125 58.421875 44.96875 
Q 55.03125 40.828125 48.390625 38.8125 
Q 55.8125 36.765625 59.59375 32.15625 
Q 63.375 27.546875 63.375 20.515625 
Q 63.375 9.671875 56.171875 4.125 
Q 48.96875 -1.421875 34.8125 -1.421875 
Q 20.609375 -1.421875 13.359375 4.125 
Q 6.109375 9.671875 6.109375 20.515625 
Q 6.109375 27.546875 9.890625 32.15625 
Q 13.671875 36.765625 21.09375 38.8125 
z
M 25.484375 53.421875 
Q 25.484375 49.078125 27.90625 46.734375 
Q 30.328125 44.390625 34.8125 44.390625 
Q 39.203125 44.390625 41.59375 46.734375 
Q 44 49.078125 44 53.421875 
Q 44 57.765625 41.59375 60.078125 
Q 39.203125 62.40625 34.8125 62.40625 
Q 30.328125 62.40625 27.90625 60.0625 
Q 25.484375 57.71875 25.484375 53.421875 
z
" id="DejaVuSans-Bold-56"/>
     </defs>
     <g transform="translate(78.867031 1125.964794)scale(0.1 -0.1)">
      <use xlink:href="#DejaVuSans-Bold-56"/>
     </g>
    </g>
    <g id="patch_53">
     <path d="M 86.520625 1159.15989 
L 421.320625 1159.15989 
L 421.320625 1087.250949 
L 86.520625 1087.250949 
z
" style="fill:#55868c;stroke:#000000;stroke-linejoin:miter;"/>
    </g>
    <g id="text_70">
     <!--    13114 -->
     <g transform="translate(233.247188 1125.964794)scale(0.1 -0.1)">
      <use xlink:href="#DejaVuSans-32"/>
      <use x="31.787109" xlink:href="#DejaVuSans-32"/>
      <use x="63.574219" xlink:href="#DejaVuSans-32"/>
      <use x="95.361328" xlink:href="#DejaVuSans-49"/>
      <use x="158.984375" xlink:href="#DejaVuSans-51"/>
      <use x="222.607422" xlink:href="#DejaVuSans-49"/>
      <use x="286.230469" xlink:href="#DejaVuSans-49"/>
      <use x="349.853516" xlink:href="#DejaVuSans-52"/>
     </g>
    </g>
    <g id="patch_54">
     <path d="M 421.320625 1159.15989 
L 756.120625 1159.15989 
L 756.120625 1087.250949 
L 421.320625 1087.250949 
z
" style="fill:#eec584;stroke:#000000;stroke-linejoin:miter;"/>
    </g>
    <g id="text_71">
     <!--    12939 -->
     <g transform="translate(568.047188 1125.964794)scale(0.1 -0.1)">
      <use xlink:href="#DejaVuSans-32"/>
      <use x="31.787109" xlink:href="#DejaVuSans-32"/>
      <use x="63.574219" xlink:href="#DejaVuSans-32"/>
      <use x="95.361328" xlink:href="#DejaVuSans-49"/>
      <use x="158.984375" xlink:href="#DejaVuSans-50"/>
      <use x="222.607422" xlink:href="#DejaVuSans-57"/>
      <use x="286.230469" xlink:href="#DejaVuSans-51"/>
      <use x="349.853516" xlink:href="#DejaVuSans-57"/>
     </g>
    </g>
    <g id="patch_55">
     <path d="M 756.120625 1159.15989 
L 1090.920625 1159.15989 
L 1090.920625 1087.250949 
L 756.120625 1087.250949 
z
" style="fill:#ce4257;stroke:#000000;stroke-linejoin:miter;"/>
    </g>
    <g id="text_72">
     <!--    11579 -->
     <g transform="translate(902.847188 1125.964794)scale(0.1 -0.1)">
      <use xlink:href="#DejaVuSans-32"/>
      <use x="31.787109" xlink:href="#DejaVuSans-32"/>
      <use x="63.574219" xlink:href="#DejaVuSans-32"/>
      <use x="95.361328" xlink:href="#DejaVuSans-49"/>
      <use x="158.984375" xlink:href="#DejaVuSans-49"/>
      <use x="222.607422" xlink:href="#DejaVuSans-53"/>
      <use x="286.230469" xlink:href="#DejaVuSans-55"/>
      <use x="349.853516" xlink:href="#DejaVuSans-57"/>
     </g>
    </g>
    <g id="patch_56">
     <path d="M 1090.920625 1159.15989 
L 1425.720625 1159.15989 
L 1425.720625 1087.250949 
L 1090.920625 1087.250949 
z
" style="fill:#59546c;stroke:#000000;stroke-linejoin:miter;"/>
    </g>
    <g id="text_73">
     <!--    12416 -->
     <g transform="translate(1237.647188 1125.964794)scale(0.1 -0.1)">
      <use xlink:href="#DejaVuSans-32"/>
      <use x="31.787109" xlink:href="#DejaVuSans-32"/>
      <use x="63.574219" xlink:href="#DejaVuSans-32"/>
      <use x="95.361328" xlink:href="#DejaVuSans-49"/>
      <use x="158.984375" xlink:href="#DejaVuSans-50"/>
      <use x="222.607422" xlink:href="#DejaVuSans-52"/>
      <use x="286.230469" xlink:href="#DejaVuSans-49"/>
      <use x="349.853516" xlink:href="#DejaVuSans-54"/>
     </g>
    </g>
   </g>
   <g id="text_74">
    <!-- Absolute Times In Nanoseconds -->
    <defs>
     <path d="M 34.1875 63.1875 
L 20.796875 26.90625 
L 47.609375 26.90625 
z
M 28.609375 72.90625 
L 39.796875 72.90625 
L 67.578125 0 
L 57.328125 0 
L 50.6875 18.703125 
L 17.828125 18.703125 
L 11.1875 0 
L 0.78125 0 
z
" id="DejaVuSans-65"/>
     <path d="M -0.296875 72.90625 
L 61.375 72.90625 
L 61.375 64.59375 
L 35.5 64.59375 
L 35.5 0 
L 25.59375 0 
L 25.59375 64.59375 
L -0.296875 64.59375 
z
" id="DejaVuSans-84"/>
     <path d="M 9.8125 72.90625 
L 23.09375 72.90625 
L 55.421875 11.921875 
L 55.421875 72.90625 
L 64.984375 72.90625 
L 64.984375 0 
L 51.703125 0 
L 19.390625 60.984375 
L 19.390625 0 
L 9.8125 0 
z
" id="DejaVuSans-78"/>
     <path d="M 48.78125 52.59375 
L 48.78125 44.1875 
Q 44.96875 46.296875 41.140625 47.34375 
Q 37.3125 48.390625 33.40625 48.390625 
Q 24.65625 48.390625 19.8125 42.84375 
Q 14.984375 37.3125 14.984375 27.296875 
Q 14.984375 17.28125 19.8125 11.734375 
Q 24.65625 6.203125 33.40625 6.203125 
Q 37.3125 6.203125 41.140625 7.25 
Q 44.96875 8.296875 48.78125 10.40625 
L 48.78125 2.09375 
Q 45.015625 0.34375 40.984375 -0.53125 
Q 36.96875 -1.421875 32.421875 -1.421875 
Q 20.0625 -1.421875 12.78125 6.34375 
Q 5.515625 14.109375 5.515625 27.296875 
Q 5.515625 40.671875 12.859375 48.328125 
Q 20.21875 56 33.015625 56 
Q 37.15625 56 41.109375 55.140625 
Q 45.0625 54.296875 48.78125 52.59375 
z
" id="DejaVuSans-99"/>
    </defs>
    <g transform="translate(596.6675 437.005537)scale(0.2 -0.2)">
     <use xlink:href="#DejaVuSans-65"/>
     <use x="68.408203" xlink:href="#DejaVuSans-98"/>
     <use x="131.884766" xlink:href="#DejaVuSans-115"/>
     <use x="183.984375" xlink:href="#DejaVuSans-111"/>
     <use x="245.166016" xlink:href="#DejaVuSans-108"/>
     <use x="272.949219" xlink:href="#DejaVuSans-117"/>
     <use x="336.328125" xlink:href="#DejaVuSans-116"/>
     <use x="375.537109" xlink:href="#DejaVuSans-101"/>
     <use x="437.060547" xlink:href="#DejaVuSans-32"/>
     <use x="468.847656" xlink:href="#DejaVuSans-84"/>
     <use x="529.884766" xlink:href="#DejaVuSans-105"/>
     <use x="557.667969" xlink:href="#DejaVuSans-109"/>
     <use x="655.080078" xlink:href="#DejaVuSans-101"/>
     <use x="716.603516" xlink:href="#DejaVuSans-115"/>
     <use x="768.703125" xlink:href="#DejaVuSans-32"/>
     <use x="800.490234" xlink:href="#DejaVuSans-73"/>
     <use x="829.982422" xlink:href="#DejaVuSans-110"/>
     <use x="893.361328" xlink:href="#DejaVuSans-32"/>
     <use x="925.148438" xlink:href="#DejaVuSans-78"/>
     <use x="999.953125" xlink:href="#DejaVuSans-97"/>
     <use x="1061.232422" xlink:href="#DejaVuSans-110"/>
     <use x="1124.611328" xlink:href="#DejaVuSans-111"/>
     <use x="1185.792969" xlink:href="#DejaVuSans-115"/>
     <use x="1237.892578" xlink:href="#DejaVuSans-101"/>
     <use x="1299.416016" xlink:href="#DejaVuSans-99"/>
     <use x="1354.396484" xlink:href="#DejaVuSans-111"/>
     <use x="1415.578125" xlink:href="#DejaVuSans-110"/>
     <use x="1478.957031" xlink:href="#DejaVuSans-100"/>
     <use x="1542.433594" xlink:href="#DejaVuSans-115"/>
    </g>
   </g>
  </g>
 </g>
 <defs>
  <clipPath id="pc83fc937ef">
   <rect height="293.505882" width="1339.2" x="86.520625" y="73.188125"/>
  </clipPath>
 </defs>
</svg>
