<?xml version="1.0" encoding="utf-8" standalone="no"?>
<!DOCTYPE svg PUBLIC "-//W3C//DTD SVG 1.1//EN"
  "http://www.w3.org/Graphics/SVG/1.1/DTD/svg11.dtd">
<!-- Created with matplotlib (https://matplotlib.org/) -->
<svg height="574.59125pt" version="1.1" viewBox="0 0 1412.560625 574.59125" width="1412.560625pt" xmlns="http://www.w3.org/2000/svg" xmlns:xlink="http://www.w3.org/1999/xlink">
 <defs>
  <style type="text/css">
*{stroke-linecap:butt;stroke-linejoin:round;}
  </style>
 </defs>
 <g id="figure_1">
  <g id="patch_1">
   <path d="M 0 574.59125 
L 1412.560625 574.59125 
L 1412.560625 0 
L 0 0 
z
" style="fill:#ffffff;"/>
  </g>
  <g id="axes_1">
   <g id="patch_2">
    <path d="M 66.160625 527.356875 
L 1405.360625 527.356875 
L 1405.360625 28.396875 
L 66.160625 28.396875 
z
" style="fill:#ffffff;"/>
   </g>
   <g id="matplotlib.axis_1">
    <g id="xtick_1">
     <g id="line2d_1">
      <defs>
       <path d="M 0 0 
L 0 3.5 
" id="m4b77335c7b" style="stroke:#000000;stroke-width:0.8;"/>
      </defs>
      <g>
       <use style="stroke:#000000;stroke-width:0.8;" x="95.816569" xlink:href="#m4b77335c7b" y="527.356875"/>
      </g>
     </g>
     <g id="text_1">
      <!-- 0 -->
      <defs>
       <path d="M 31.78125 66.40625 
Q 24.171875 66.40625 20.328125 58.90625 
Q 16.5 51.421875 16.5 36.375 
Q 16.5 21.390625 20.328125 13.890625 
Q 24.171875 6.390625 31.78125 6.390625 
Q 39.453125 6.390625 43.28125 13.890625 
Q 47.125 21.390625 47.125 36.375 
Q 47.125 51.421875 43.28125 58.90625 
Q 39.453125 66.40625 31.78125 66.40625 
z
M 31.78125 74.21875 
Q 44.046875 74.21875 50.515625 64.515625 
Q 56.984375 54.828125 56.984375 36.375 
Q 56.984375 17.96875 50.515625 8.265625 
Q 44.046875 -1.421875 31.78125 -1.421875 
Q 19.53125 -1.421875 13.0625 8.265625 
Q 6.59375 17.96875 6.59375 36.375 
Q 6.59375 54.828125 13.0625 64.515625 
Q 19.53125 74.21875 31.78125 74.21875 
z
" id="DejaVuSans-48"/>
      </defs>
      <g transform="translate(91.999069 543.475)scale(0.12 -0.12)">
       <use xlink:href="#DejaVuSans-48"/>
      </g>
     </g>
    </g>
    <g id="xtick_2">
     <g id="line2d_2">
      <g>
       <use style="stroke:#000000;stroke-width:0.8;" x="251.900485" xlink:href="#m4b77335c7b" y="527.356875"/>
      </g>
     </g>
     <g id="text_2">
      <!-- 250 -->
      <defs>
       <path d="M 19.1875 8.296875 
L 53.609375 8.296875 
L 53.609375 0 
L 7.328125 0 
L 7.328125 8.296875 
Q 12.9375 14.109375 22.625 23.890625 
Q 32.328125 33.6875 34.8125 36.53125 
Q 39.546875 41.84375 41.421875 45.53125 
Q 43.3125 49.21875 43.3125 52.78125 
Q 43.3125 58.59375 39.234375 62.25 
Q 35.15625 65.921875 28.609375 65.921875 
Q 23.96875 65.921875 18.8125 64.3125 
Q 13.671875 62.703125 7.8125 59.421875 
L 7.8125 69.390625 
Q 13.765625 71.78125 18.9375 73 
Q 24.125 74.21875 28.421875 74.21875 
Q 39.75 74.21875 46.484375 68.546875 
Q 53.21875 62.890625 53.21875 53.421875 
Q 53.21875 48.921875 51.53125 44.890625 
Q 49.859375 40.875 45.40625 35.40625 
Q 44.1875 33.984375 37.640625 27.21875 
Q 31.109375 20.453125 19.1875 8.296875 
z
" id="DejaVuSans-50"/>
       <path d="M 10.796875 72.90625 
L 49.515625 72.90625 
L 49.515625 64.59375 
L 19.828125 64.59375 
L 19.828125 46.734375 
Q 21.96875 47.46875 24.109375 47.828125 
Q 26.265625 48.1875 28.421875 48.1875 
Q 40.625 48.1875 47.75 41.5 
Q 54.890625 34.8125 54.890625 23.390625 
Q 54.890625 11.625 47.5625 5.09375 
Q 40.234375 -1.421875 26.90625 -1.421875 
Q 22.3125 -1.421875 17.546875 -0.640625 
Q 12.796875 0.140625 7.71875 1.703125 
L 7.71875 11.625 
Q 12.109375 9.234375 16.796875 8.0625 
Q 21.484375 6.890625 26.703125 6.890625 
Q 35.15625 6.890625 40.078125 11.328125 
Q 45.015625 15.765625 45.015625 23.390625 
Q 45.015625 31 40.078125 35.4375 
Q 35.15625 39.890625 26.703125 39.890625 
Q 22.75 39.890625 18.8125 39.015625 
Q 14.890625 38.140625 10.796875 36.28125 
z
" id="DejaVuSans-53"/>
      </defs>
      <g transform="translate(240.447985 543.475)scale(0.12 -0.12)">
       <use xlink:href="#DejaVuSans-50"/>
       <use x="63.623047" xlink:href="#DejaVuSans-53"/>
       <use x="127.246094" xlink:href="#DejaVuSans-48"/>
      </g>
     </g>
    </g>
    <g id="xtick_3">
     <g id="line2d_3">
      <g>
       <use style="stroke:#000000;stroke-width:0.8;" x="407.984401" xlink:href="#m4b77335c7b" y="527.356875"/>
      </g>
     </g>
     <g id="text_3">
      <!-- 500 -->
      <g transform="translate(396.531901 543.475)scale(0.12 -0.12)">
       <use xlink:href="#DejaVuSans-53"/>
       <use x="63.623047" xlink:href="#DejaVuSans-48"/>
       <use x="127.246094" xlink:href="#DejaVuSans-48"/>
      </g>
     </g>
    </g>
    <g id="xtick_4">
     <g id="line2d_4">
      <g>
       <use style="stroke:#000000;stroke-width:0.8;" x="564.068317" xlink:href="#m4b77335c7b" y="527.356875"/>
      </g>
     </g>
     <g id="text_4">
      <!-- 750 -->
      <defs>
       <path d="M 8.203125 72.90625 
L 55.078125 72.90625 
L 55.078125 68.703125 
L 28.609375 0 
L 18.3125 0 
L 43.21875 64.59375 
L 8.203125 64.59375 
z
" id="DejaVuSans-55"/>
      </defs>
      <g transform="translate(552.615817 543.475)scale(0.12 -0.12)">
       <use xlink:href="#DejaVuSans-55"/>
       <use x="63.623047" xlink:href="#DejaVuSans-53"/>
       <use x="127.246094" xlink:href="#DejaVuSans-48"/>
      </g>
     </g>
    </g>
    <g id="xtick_5">
     <g id="line2d_5">
      <g>
       <use style="stroke:#000000;stroke-width:0.8;" x="720.152233" xlink:href="#m4b77335c7b" y="527.356875"/>
      </g>
     </g>
     <g id="text_5">
      <!-- 1000 -->
      <defs>
       <path d="M 12.40625 8.296875 
L 28.515625 8.296875 
L 28.515625 63.921875 
L 10.984375 60.40625 
L 10.984375 69.390625 
L 28.421875 72.90625 
L 38.28125 72.90625 
L 38.28125 8.296875 
L 54.390625 8.296875 
L 54.390625 0 
L 12.40625 0 
z
" id="DejaVuSans-49"/>
      </defs>
      <g transform="translate(704.882233 543.475)scale(0.12 -0.12)">
       <use xlink:href="#DejaVuSans-49"/>
       <use x="63.623047" xlink:href="#DejaVuSans-48"/>
       <use x="127.246094" xlink:href="#DejaVuSans-48"/>
       <use x="190.869141" xlink:href="#DejaVuSans-48"/>
      </g>
     </g>
    </g>
    <g id="xtick_6">
     <g id="line2d_6">
      <g>
       <use style="stroke:#000000;stroke-width:0.8;" x="876.236149" xlink:href="#m4b77335c7b" y="527.356875"/>
      </g>
     </g>
     <g id="text_6">
      <!-- 1250 -->
      <g transform="translate(860.966149 543.475)scale(0.12 -0.12)">
       <use xlink:href="#DejaVuSans-49"/>
       <use x="63.623047" xlink:href="#DejaVuSans-50"/>
       <use x="127.246094" xlink:href="#DejaVuSans-53"/>
       <use x="190.869141" xlink:href="#DejaVuSans-48"/>
      </g>
     </g>
    </g>
    <g id="xtick_7">
     <g id="line2d_7">
      <g>
       <use style="stroke:#000000;stroke-width:0.8;" x="1032.320066" xlink:href="#m4b77335c7b" y="527.356875"/>
      </g>
     </g>
     <g id="text_7">
      <!-- 1500 -->
      <g transform="translate(1017.050066 543.475)scale(0.12 -0.12)">
       <use xlink:href="#DejaVuSans-49"/>
       <use x="63.623047" xlink:href="#DejaVuSans-53"/>
       <use x="127.246094" xlink:href="#DejaVuSans-48"/>
       <use x="190.869141" xlink:href="#DejaVuSans-48"/>
      </g>
     </g>
    </g>
    <g id="xtick_8">
     <g id="line2d_8">
      <g>
       <use style="stroke:#000000;stroke-width:0.8;" x="1188.403982" xlink:href="#m4b77335c7b" y="527.356875"/>
      </g>
     </g>
     <g id="text_8">
      <!-- 1750 -->
      <g transform="translate(1173.133982 543.475)scale(0.12 -0.12)">
       <use xlink:href="#DejaVuSans-49"/>
       <use x="63.623047" xlink:href="#DejaVuSans-55"/>
       <use x="127.246094" xlink:href="#DejaVuSans-53"/>
       <use x="190.869141" xlink:href="#DejaVuSans-48"/>
      </g>
     </g>
    </g>
    <g id="xtick_9">
     <g id="line2d_9">
      <g>
       <use style="stroke:#000000;stroke-width:0.8;" x="1344.487898" xlink:href="#m4b77335c7b" y="527.356875"/>
      </g>
     </g>
     <g id="text_9">
      <!-- 2000 -->
      <g transform="translate(1329.217898 543.475)scale(0.12 -0.12)">
       <use xlink:href="#DejaVuSans-50"/>
       <use x="63.623047" xlink:href="#DejaVuSans-48"/>
       <use x="127.246094" xlink:href="#DejaVuSans-48"/>
       <use x="190.869141" xlink:href="#DejaVuSans-48"/>
      </g>
     </g>
    </g>
    <g id="text_10">
     <!-- Size S -->
     <defs>
      <path d="M 53.515625 70.515625 
L 53.515625 60.890625 
Q 47.90625 63.578125 42.921875 64.890625 
Q 37.9375 66.21875 33.296875 66.21875 
Q 25.25 66.21875 20.875 63.09375 
Q 16.5 59.96875 16.5 54.203125 
Q 16.5 49.359375 19.40625 46.890625 
Q 22.3125 44.4375 30.421875 42.921875 
L 36.375 41.703125 
Q 47.40625 39.59375 52.65625 34.296875 
Q 57.90625 29 57.90625 20.125 
Q 57.90625 9.515625 50.796875 4.046875 
Q 43.703125 -1.421875 29.984375 -1.421875 
Q 24.8125 -1.421875 18.96875 -0.25 
Q 13.140625 0.921875 6.890625 3.21875 
L 6.890625 13.375 
Q 12.890625 10.015625 18.65625 8.296875 
Q 24.421875 6.59375 29.984375 6.59375 
Q 38.421875 6.59375 43.015625 9.90625 
Q 47.609375 13.234375 47.609375 19.390625 
Q 47.609375 24.75 44.3125 27.78125 
Q 41.015625 30.8125 33.5 32.328125 
L 27.484375 33.5 
Q 16.453125 35.6875 11.515625 40.375 
Q 6.59375 45.0625 6.59375 53.421875 
Q 6.59375 63.09375 13.40625 68.65625 
Q 20.21875 74.21875 32.171875 74.21875 
Q 37.3125 74.21875 42.625 73.28125 
Q 47.953125 72.359375 53.515625 70.515625 
z
" id="DejaVuSans-83"/>
      <path d="M 9.421875 54.6875 
L 18.40625 54.6875 
L 18.40625 0 
L 9.421875 0 
z
M 9.421875 75.984375 
L 18.40625 75.984375 
L 18.40625 64.59375 
L 9.421875 64.59375 
z
" id="DejaVuSans-105"/>
      <path d="M 5.515625 54.6875 
L 48.1875 54.6875 
L 48.1875 46.484375 
L 14.40625 7.171875 
L 48.1875 7.171875 
L 48.1875 0 
L 4.296875 0 
L 4.296875 8.203125 
L 38.09375 47.515625 
L 5.515625 47.515625 
z
" id="DejaVuSans-122"/>
      <path d="M 56.203125 29.59375 
L 56.203125 25.203125 
L 14.890625 25.203125 
Q 15.484375 15.921875 20.484375 11.0625 
Q 25.484375 6.203125 34.421875 6.203125 
Q 39.59375 6.203125 44.453125 7.46875 
Q 49.3125 8.734375 54.109375 11.28125 
L 54.109375 2.78125 
Q 49.265625 0.734375 44.1875 -0.34375 
Q 39.109375 -1.421875 33.890625 -1.421875 
Q 20.796875 -1.421875 13.15625 6.1875 
Q 5.515625 13.8125 5.515625 26.8125 
Q 5.515625 40.234375 12.765625 48.109375 
Q 20.015625 56 32.328125 56 
Q 43.359375 56 49.78125 48.890625 
Q 56.203125 41.796875 56.203125 29.59375 
z
M 47.21875 32.234375 
Q 47.125 39.59375 43.09375 43.984375 
Q 39.0625 48.390625 32.421875 48.390625 
Q 24.90625 48.390625 20.390625 44.140625 
Q 15.875 39.890625 15.1875 32.171875 
z
" id="DejaVuSans-101"/>
      <path id="DejaVuSans-32"/>
     </defs>
     <g transform="translate(708.711406 563.647812)scale(0.18 -0.18)">
      <use xlink:href="#DejaVuSans-83"/>
      <use x="63.476562" xlink:href="#DejaVuSans-105"/>
      <use x="91.259766" xlink:href="#DejaVuSans-122"/>
      <use x="143.75" xlink:href="#DejaVuSans-101"/>
      <use x="205.273438" xlink:href="#DejaVuSans-32"/>
      <use x="237.060547" xlink:href="#DejaVuSans-83"/>
     </g>
    </g>
   </g>
   <g id="matplotlib.axis_2">
    <g id="ytick_1">
     <g id="line2d_10">
      <path clip-path="url(#p58d519ac1b)" d="M 66.160625 504.834627 
L 1405.360625 504.834627 
" style="fill:none;stroke:#b0b0b0;stroke-linecap:square;stroke-width:0.8;"/>
     </g>
     <g id="line2d_11">
      <defs>
       <path d="M 0 0 
L -3.5 0 
" id="mb7fd7d102b" style="stroke:#000000;stroke-width:0.8;"/>
      </defs>
      <g>
       <use style="stroke:#000000;stroke-width:0.8;" x="66.160625" xlink:href="#mb7fd7d102b" y="504.834627"/>
      </g>
     </g>
     <g id="text_11">
      <!-- 0 -->
      <g transform="translate(48.980625 510.913377)scale(0.16 -0.16)">
       <use xlink:href="#DejaVuSans-48"/>
      </g>
     </g>
    </g>
    <g id="ytick_2">
     <g id="line2d_12">
      <path clip-path="url(#p58d519ac1b)" d="M 66.160625 432.233386 
L 1405.360625 432.233386 
" style="fill:none;stroke:#b0b0b0;stroke-linecap:square;stroke-width:0.8;"/>
     </g>
     <g id="line2d_13">
      <g>
       <use style="stroke:#000000;stroke-width:0.8;" x="66.160625" xlink:href="#mb7fd7d102b" y="432.233386"/>
      </g>
     </g>
     <g id="text_12">
      <!-- 50 -->
      <g transform="translate(38.800625 438.312136)scale(0.16 -0.16)">
       <use xlink:href="#DejaVuSans-53"/>
       <use x="63.623047" xlink:href="#DejaVuSans-48"/>
      </g>
     </g>
    </g>
    <g id="ytick_3">
     <g id="line2d_14">
      <path clip-path="url(#p58d519ac1b)" d="M 66.160625 359.632146 
L 1405.360625 359.632146 
" style="fill:none;stroke:#b0b0b0;stroke-linecap:square;stroke-width:0.8;"/>
     </g>
     <g id="line2d_15">
      <g>
       <use style="stroke:#000000;stroke-width:0.8;" x="66.160625" xlink:href="#mb7fd7d102b" y="359.632146"/>
      </g>
     </g>
     <g id="text_13">
      <!-- 100 -->
      <g transform="translate(28.620625 365.710896)scale(0.16 -0.16)">
       <use xlink:href="#DejaVuSans-49"/>
       <use x="63.623047" xlink:href="#DejaVuSans-48"/>
       <use x="127.246094" xlink:href="#DejaVuSans-48"/>
      </g>
     </g>
    </g>
    <g id="ytick_4">
     <g id="line2d_16">
      <path clip-path="url(#p58d519ac1b)" d="M 66.160625 287.030906 
L 1405.360625 287.030906 
" style="fill:none;stroke:#b0b0b0;stroke-linecap:square;stroke-width:0.8;"/>
     </g>
     <g id="line2d_17">
      <g>
       <use style="stroke:#000000;stroke-width:0.8;" x="66.160625" xlink:href="#mb7fd7d102b" y="287.030906"/>
      </g>
     </g>
     <g id="text_14">
      <!-- 150 -->
      <g transform="translate(28.620625 293.109656)scale(0.16 -0.16)">
       <use xlink:href="#DejaVuSans-49"/>
       <use x="63.623047" xlink:href="#DejaVuSans-53"/>
       <use x="127.246094" xlink:href="#DejaVuSans-48"/>
      </g>
     </g>
    </g>
    <g id="ytick_5">
     <g id="line2d_18">
      <path clip-path="url(#p58d519ac1b)" d="M 66.160625 214.429666 
L 1405.360625 214.429666 
" style="fill:none;stroke:#b0b0b0;stroke-linecap:square;stroke-width:0.8;"/>
     </g>
     <g id="line2d_19">
      <g>
       <use style="stroke:#000000;stroke-width:0.8;" x="66.160625" xlink:href="#mb7fd7d102b" y="214.429666"/>
      </g>
     </g>
     <g id="text_15">
      <!-- 200 -->
      <g transform="translate(28.620625 220.508416)scale(0.16 -0.16)">
       <use xlink:href="#DejaVuSans-50"/>
       <use x="63.623047" xlink:href="#DejaVuSans-48"/>
       <use x="127.246094" xlink:href="#DejaVuSans-48"/>
      </g>
     </g>
    </g>
    <g id="ytick_6">
     <g id="line2d_20">
      <path clip-path="url(#p58d519ac1b)" d="M 66.160625 141.828425 
L 1405.360625 141.828425 
" style="fill:none;stroke:#b0b0b0;stroke-linecap:square;stroke-width:0.8;"/>
     </g>
     <g id="line2d_21">
      <g>
       <use style="stroke:#000000;stroke-width:0.8;" x="66.160625" xlink:href="#mb7fd7d102b" y="141.828425"/>
      </g>
     </g>
     <g id="text_16">
      <!-- 250 -->
      <g transform="translate(28.620625 147.907175)scale(0.16 -0.16)">
       <use xlink:href="#DejaVuSans-50"/>
       <use x="63.623047" xlink:href="#DejaVuSans-53"/>
       <use x="127.246094" xlink:href="#DejaVuSans-48"/>
      </g>
     </g>
    </g>
    <g id="ytick_7">
     <g id="line2d_22">
      <path clip-path="url(#p58d519ac1b)" d="M 66.160625 69.227185 
L 1405.360625 69.227185 
" style="fill:none;stroke:#b0b0b0;stroke-linecap:square;stroke-width:0.8;"/>
     </g>
     <g id="line2d_23">
      <g>
       <use style="stroke:#000000;stroke-width:0.8;" x="66.160625" xlink:href="#mb7fd7d102b" y="69.227185"/>
      </g>
     </g>
     <g id="text_17">
      <!-- 300 -->
      <defs>
       <path d="M 40.578125 39.3125 
Q 47.65625 37.796875 51.625 33 
Q 55.609375 28.21875 55.609375 21.1875 
Q 55.609375 10.40625 48.1875 4.484375 
Q 40.765625 -1.421875 27.09375 -1.421875 
Q 22.515625 -1.421875 17.65625 -0.515625 
Q 12.796875 0.390625 7.625 2.203125 
L 7.625 11.71875 
Q 11.71875 9.328125 16.59375 8.109375 
Q 21.484375 6.890625 26.8125 6.890625 
Q 36.078125 6.890625 40.9375 10.546875 
Q 45.796875 14.203125 45.796875 21.1875 
Q 45.796875 27.640625 41.28125 31.265625 
Q 36.765625 34.90625 28.71875 34.90625 
L 20.21875 34.90625 
L 20.21875 43.015625 
L 29.109375 43.015625 
Q 36.375 43.015625 40.234375 45.921875 
Q 44.09375 48.828125 44.09375 54.296875 
Q 44.09375 59.90625 40.109375 62.90625 
Q 36.140625 65.921875 28.71875 65.921875 
Q 24.65625 65.921875 20.015625 65.03125 
Q 15.375 64.15625 9.8125 62.3125 
L 9.8125 71.09375 
Q 15.4375 72.65625 20.34375 73.4375 
Q 25.25 74.21875 29.59375 74.21875 
Q 40.828125 74.21875 47.359375 69.109375 
Q 53.90625 64.015625 53.90625 55.328125 
Q 53.90625 49.265625 50.4375 45.09375 
Q 46.96875 40.921875 40.578125 39.3125 
z
" id="DejaVuSans-51"/>
      </defs>
      <g transform="translate(28.620625 75.305935)scale(0.16 -0.16)">
       <use xlink:href="#DejaVuSans-51"/>
       <use x="63.623047" xlink:href="#DejaVuSans-48"/>
       <use x="127.246094" xlink:href="#DejaVuSans-48"/>
      </g>
     </g>
    </g>
    <g id="text_18">
     <!-- Minimum Time (ms) -->
     <defs>
      <path d="M 9.8125 72.90625 
L 24.515625 72.90625 
L 43.109375 23.296875 
L 61.8125 72.90625 
L 76.515625 72.90625 
L 76.515625 0 
L 66.890625 0 
L 66.890625 64.015625 
L 48.09375 14.015625 
L 38.1875 14.015625 
L 19.390625 64.015625 
L 19.390625 0 
L 9.8125 0 
z
" id="DejaVuSans-77"/>
      <path d="M 54.890625 33.015625 
L 54.890625 0 
L 45.90625 0 
L 45.90625 32.71875 
Q 45.90625 40.484375 42.875 44.328125 
Q 39.84375 48.1875 33.796875 48.1875 
Q 26.515625 48.1875 22.3125 43.546875 
Q 18.109375 38.921875 18.109375 30.90625 
L 18.109375 0 
L 9.078125 0 
L 9.078125 54.6875 
L 18.109375 54.6875 
L 18.109375 46.1875 
Q 21.34375 51.125 25.703125 53.5625 
Q 30.078125 56 35.796875 56 
Q 45.21875 56 50.046875 50.171875 
Q 54.890625 44.34375 54.890625 33.015625 
z
" id="DejaVuSans-110"/>
      <path d="M 52 44.1875 
Q 55.375 50.25 60.0625 53.125 
Q 64.75 56 71.09375 56 
Q 79.640625 56 84.28125 50.015625 
Q 88.921875 44.046875 88.921875 33.015625 
L 88.921875 0 
L 79.890625 0 
L 79.890625 32.71875 
Q 79.890625 40.578125 77.09375 44.375 
Q 74.3125 48.1875 68.609375 48.1875 
Q 61.625 48.1875 57.5625 43.546875 
Q 53.515625 38.921875 53.515625 30.90625 
L 53.515625 0 
L 44.484375 0 
L 44.484375 32.71875 
Q 44.484375 40.625 41.703125 44.40625 
Q 38.921875 48.1875 33.109375 48.1875 
Q 26.21875 48.1875 22.15625 43.53125 
Q 18.109375 38.875 18.109375 30.90625 
L 18.109375 0 
L 9.078125 0 
L 9.078125 54.6875 
L 18.109375 54.6875 
L 18.109375 46.1875 
Q 21.1875 51.21875 25.484375 53.609375 
Q 29.78125 56 35.6875 56 
Q 41.65625 56 45.828125 52.96875 
Q 50 49.953125 52 44.1875 
z
" id="DejaVuSans-109"/>
      <path d="M 8.5 21.578125 
L 8.5 54.6875 
L 17.484375 54.6875 
L 17.484375 21.921875 
Q 17.484375 14.15625 20.5 10.265625 
Q 23.53125 6.390625 29.59375 6.390625 
Q 36.859375 6.390625 41.078125 11.03125 
Q 45.3125 15.671875 45.3125 23.6875 
L 45.3125 54.6875 
L 54.296875 54.6875 
L 54.296875 0 
L 45.3125 0 
L 45.3125 8.40625 
Q 42.046875 3.421875 37.71875 1 
Q 33.40625 -1.421875 27.6875 -1.421875 
Q 18.265625 -1.421875 13.375 4.4375 
Q 8.5 10.296875 8.5 21.578125 
z
M 31.109375 56 
z
" id="DejaVuSans-117"/>
      <path d="M -0.296875 72.90625 
L 61.375 72.90625 
L 61.375 64.59375 
L 35.5 64.59375 
L 35.5 0 
L 25.59375 0 
L 25.59375 64.59375 
L -0.296875 64.59375 
z
" id="DejaVuSans-84"/>
      <path d="M 31 75.875 
Q 24.46875 64.65625 21.28125 53.65625 
Q 18.109375 42.671875 18.109375 31.390625 
Q 18.109375 20.125 21.3125 9.0625 
Q 24.515625 -2 31 -13.1875 
L 23.1875 -13.1875 
Q 15.875 -1.703125 12.234375 9.375 
Q 8.59375 20.453125 8.59375 31.390625 
Q 8.59375 42.28125 12.203125 53.3125 
Q 15.828125 64.359375 23.1875 75.875 
z
" id="DejaVuSans-40"/>
      <path d="M 44.28125 53.078125 
L 44.28125 44.578125 
Q 40.484375 46.53125 36.375 47.5 
Q 32.28125 48.484375 27.875 48.484375 
Q 21.1875 48.484375 17.84375 46.4375 
Q 14.5 44.390625 14.5 40.28125 
Q 14.5 37.15625 16.890625 35.375 
Q 19.28125 33.59375 26.515625 31.984375 
L 29.59375 31.296875 
Q 39.15625 29.25 43.1875 25.515625 
Q 47.21875 21.78125 47.21875 15.09375 
Q 47.21875 7.46875 41.1875 3.015625 
Q 35.15625 -1.421875 24.609375 -1.421875 
Q 20.21875 -1.421875 15.453125 -0.5625 
Q 10.6875 0.296875 5.421875 2 
L 5.421875 11.28125 
Q 10.40625 8.6875 15.234375 7.390625 
Q 20.0625 6.109375 24.8125 6.109375 
Q 31.15625 6.109375 34.5625 8.28125 
Q 37.984375 10.453125 37.984375 14.40625 
Q 37.984375 18.0625 35.515625 20.015625 
Q 33.0625 21.96875 24.703125 23.78125 
L 21.578125 24.515625 
Q 13.234375 26.265625 9.515625 29.90625 
Q 5.8125 33.546875 5.8125 39.890625 
Q 5.8125 47.609375 11.28125 51.796875 
Q 16.75 56 26.8125 56 
Q 31.78125 56 36.171875 55.265625 
Q 40.578125 54.546875 44.28125 53.078125 
z
" id="DejaVuSans-115"/>
      <path d="M 8.015625 75.875 
L 15.828125 75.875 
Q 23.140625 64.359375 26.78125 53.3125 
Q 30.421875 42.28125 30.421875 31.390625 
Q 30.421875 20.453125 26.78125 9.375 
Q 23.140625 -1.703125 15.828125 -13.1875 
L 8.015625 -13.1875 
Q 14.5 -2 17.703125 9.0625 
Q 20.90625 20.125 20.90625 31.390625 
Q 20.90625 42.671875 17.703125 53.65625 
Q 14.5 64.65625 8.015625 75.875 
z
" id="DejaVuSans-41"/>
     </defs>
     <g transform="translate(20.877187 368.079375)rotate(-90)scale(0.18 -0.18)">
      <use xlink:href="#DejaVuSans-77"/>
      <use x="86.279297" xlink:href="#DejaVuSans-105"/>
      <use x="114.0625" xlink:href="#DejaVuSans-110"/>
      <use x="177.441406" xlink:href="#DejaVuSans-105"/>
      <use x="205.224609" xlink:href="#DejaVuSans-109"/>
      <use x="302.636719" xlink:href="#DejaVuSans-117"/>
      <use x="366.015625" xlink:href="#DejaVuSans-109"/>
      <use x="463.427734" xlink:href="#DejaVuSans-32"/>
      <use x="495.214844" xlink:href="#DejaVuSans-84"/>
      <use x="556.251953" xlink:href="#DejaVuSans-105"/>
      <use x="584.035156" xlink:href="#DejaVuSans-109"/>
      <use x="681.447266" xlink:href="#DejaVuSans-101"/>
      <use x="742.970703" xlink:href="#DejaVuSans-32"/>
      <use x="774.757812" xlink:href="#DejaVuSans-40"/>
      <use x="813.771484" xlink:href="#DejaVuSans-109"/>
      <use x="911.183594" xlink:href="#DejaVuSans-115"/>
      <use x="963.283203" xlink:href="#DejaVuSans-41"/>
     </g>
    </g>
   </g>
   <g id="line2d_24">
    <path clip-path="url(#p58d519ac1b)" d="M 127.033352 504.502411 
L 158.250135 503.808954 
L 189.466919 502.738958 
L 220.683702 501.261392 
L 251.900485 499.481988 
L 283.117268 496.678237 
L 314.334052 494.006317 
L 345.550835 490.300199 
L 376.767618 486.457438 
L 407.984401 481.894651 
L 439.201184 477.538262 
L 470.417968 470.397654 
L 501.634751 463.088914 
L 532.851534 454.478584 
L 564.068317 445.445745 
L 595.285101 438.28349 
L 626.501884 428.917464 
L 657.718667 418.80972 
L 688.93545 408.681198 
L 720.152233 398.559785 
L 751.369017 386.056862 
L 782.5858 374.757405 
L 813.802583 363.845611 
L 845.019366 349.509858 
L 876.236149 339.831808 
L 907.452933 325.076748 
L 938.669716 310.956315 
L 969.886499 296.106061 
L 1001.103282 275.434874 
L 1032.320066 267.872245 
L 1063.536849 252.431877 
L 1094.753632 232.579976 
L 1125.970415 216.374342 
L 1157.187198 198.548144 
L 1188.403982 183.422886 
L 1219.620765 164.516313 
L 1250.837548 145.60974 
L 1282.054331 130.484482 
L 1313.271115 105.527805 
L 1344.487898 82.839918 
" style="fill:none;stroke:#55868c;stroke-linecap:square;stroke-width:1.5;"/>
    <defs>
     <path d="M -3 3 
L 3 -3 
M -3 -3 
L 3 3 
" id="m0ee69d49bf" style="stroke:#55868c;"/>
    </defs>
    <g clip-path="url(#p58d519ac1b)">
     <use style="fill:#55868c;stroke:#55868c;" x="127.033352" xlink:href="#m0ee69d49bf" y="504.502411"/>
     <use style="fill:#55868c;stroke:#55868c;" x="158.250135" xlink:href="#m0ee69d49bf" y="503.808954"/>
     <use style="fill:#55868c;stroke:#55868c;" x="189.466919" xlink:href="#m0ee69d49bf" y="502.738958"/>
     <use style="fill:#55868c;stroke:#55868c;" x="220.683702" xlink:href="#m0ee69d49bf" y="501.261392"/>
     <use style="fill:#55868c;stroke:#55868c;" x="251.900485" xlink:href="#m0ee69d49bf" y="499.481988"/>
     <use style="fill:#55868c;stroke:#55868c;" x="283.117268" xlink:href="#m0ee69d49bf" y="496.678237"/>
     <use style="fill:#55868c;stroke:#55868c;" x="314.334052" xlink:href="#m0ee69d49bf" y="494.006317"/>
     <use style="fill:#55868c;stroke:#55868c;" x="345.550835" xlink:href="#m0ee69d49bf" y="490.300199"/>
     <use style="fill:#55868c;stroke:#55868c;" x="376.767618" xlink:href="#m0ee69d49bf" y="486.457438"/>
     <use style="fill:#55868c;stroke:#55868c;" x="407.984401" xlink:href="#m0ee69d49bf" y="481.894651"/>
     <use style="fill:#55868c;stroke:#55868c;" x="439.201184" xlink:href="#m0ee69d49bf" y="477.538262"/>
     <use style="fill:#55868c;stroke:#55868c;" x="470.417968" xlink:href="#m0ee69d49bf" y="470.397654"/>
     <use style="fill:#55868c;stroke:#55868c;" x="501.634751" xlink:href="#m0ee69d49bf" y="463.088914"/>
     <use style="fill:#55868c;stroke:#55868c;" x="532.851534" xlink:href="#m0ee69d49bf" y="454.478584"/>
     <use style="fill:#55868c;stroke:#55868c;" x="564.068317" xlink:href="#m0ee69d49bf" y="445.445745"/>
     <use style="fill:#55868c;stroke:#55868c;" x="595.285101" xlink:href="#m0ee69d49bf" y="438.28349"/>
     <use style="fill:#55868c;stroke:#55868c;" x="626.501884" xlink:href="#m0ee69d49bf" y="428.917464"/>
     <use style="fill:#55868c;stroke:#55868c;" x="657.718667" xlink:href="#m0ee69d49bf" y="418.80972"/>
     <use style="fill:#55868c;stroke:#55868c;" x="688.93545" xlink:href="#m0ee69d49bf" y="408.681198"/>
     <use style="fill:#55868c;stroke:#55868c;" x="720.152233" xlink:href="#m0ee69d49bf" y="398.559785"/>
     <use style="fill:#55868c;stroke:#55868c;" x="751.369017" xlink:href="#m0ee69d49bf" y="386.056862"/>
     <use style="fill:#55868c;stroke:#55868c;" x="782.5858" xlink:href="#m0ee69d49bf" y="374.757405"/>
     <use style="fill:#55868c;stroke:#55868c;" x="813.802583" xlink:href="#m0ee69d49bf" y="363.845611"/>
     <use style="fill:#55868c;stroke:#55868c;" x="845.019366" xlink:href="#m0ee69d49bf" y="349.509858"/>
     <use style="fill:#55868c;stroke:#55868c;" x="876.236149" xlink:href="#m0ee69d49bf" y="339.831808"/>
     <use style="fill:#55868c;stroke:#55868c;" x="907.452933" xlink:href="#m0ee69d49bf" y="325.076748"/>
     <use style="fill:#55868c;stroke:#55868c;" x="938.669716" xlink:href="#m0ee69d49bf" y="310.956315"/>
     <use style="fill:#55868c;stroke:#55868c;" x="969.886499" xlink:href="#m0ee69d49bf" y="296.106061"/>
     <use style="fill:#55868c;stroke:#55868c;" x="1001.103282" xlink:href="#m0ee69d49bf" y="275.434874"/>
     <use style="fill:#55868c;stroke:#55868c;" x="1032.320066" xlink:href="#m0ee69d49bf" y="267.872245"/>
     <use style="fill:#55868c;stroke:#55868c;" x="1063.536849" xlink:href="#m0ee69d49bf" y="252.431877"/>
     <use style="fill:#55868c;stroke:#55868c;" x="1094.753632" xlink:href="#m0ee69d49bf" y="232.579976"/>
     <use style="fill:#55868c;stroke:#55868c;" x="1125.970415" xlink:href="#m0ee69d49bf" y="216.374342"/>
     <use style="fill:#55868c;stroke:#55868c;" x="1157.187198" xlink:href="#m0ee69d49bf" y="198.548144"/>
     <use style="fill:#55868c;stroke:#55868c;" x="1188.403982" xlink:href="#m0ee69d49bf" y="183.422886"/>
     <use style="fill:#55868c;stroke:#55868c;" x="1219.620765" xlink:href="#m0ee69d49bf" y="164.516313"/>
     <use style="fill:#55868c;stroke:#55868c;" x="1250.837548" xlink:href="#m0ee69d49bf" y="145.60974"/>
     <use style="fill:#55868c;stroke:#55868c;" x="1282.054331" xlink:href="#m0ee69d49bf" y="130.484482"/>
     <use style="fill:#55868c;stroke:#55868c;" x="1313.271115" xlink:href="#m0ee69d49bf" y="105.527805"/>
     <use style="fill:#55868c;stroke:#55868c;" x="1344.487898" xlink:href="#m0ee69d49bf" y="82.839918"/>
    </g>
   </g>
   <g id="line2d_25">
    <path clip-path="url(#p58d519ac1b)" d="M 127.033352 504.497853 
L 158.250135 503.809057 
L 189.466919 502.783601 
L 220.683702 501.431444 
L 251.900485 499.715308 
L 283.117268 497.10012 
L 314.334052 494.479642 
L 345.550835 491.575472 
L 376.767618 488.173209 
L 407.984401 484.188649 
L 439.201184 480.331708 
L 470.417968 473.638781 
L 501.634751 469.182232 
L 532.851534 462.837899 
L 564.068317 456.692036 
L 595.285101 450.261059 
L 626.501884 442.271058 
L 657.718667 432.719555 
L 688.93545 427.695809 
L 720.152233 417.176879 
L 751.369017 407.27671 
L 782.5858 397.365686 
L 813.802583 388.726026 
L 845.019366 375.797266 
L 876.236149 365.216857 
L 907.452933 353.000302 
L 938.669716 339.038525 
L 969.886499 325.394061 
L 1001.103282 310.956315 
L 1032.320066 298.37485 
L 1063.536849 282.997504 
L 1094.753632 266.611807 
L 1125.970415 252.746987 
L 1157.187198 239.062229 
L 1188.403982 219.615468 
L 1219.620765 203.409835 
L 1250.837548 187.204201 
L 1282.054331 168.297628 
L 1313.271115 146.366003 
L 1344.487898 128.215693 
" style="fill:none;stroke:#55868c;stroke-dasharray:1.5,2.475;stroke-dashoffset:0;stroke-width:1.5;"/>
    <g clip-path="url(#p58d519ac1b)">
     <use style="fill:#55868c;stroke:#55868c;" x="127.033352" xlink:href="#m0ee69d49bf" y="504.497853"/>
     <use style="fill:#55868c;stroke:#55868c;" x="158.250135" xlink:href="#m0ee69d49bf" y="503.809057"/>
     <use style="fill:#55868c;stroke:#55868c;" x="189.466919" xlink:href="#m0ee69d49bf" y="502.783601"/>
     <use style="fill:#55868c;stroke:#55868c;" x="220.683702" xlink:href="#m0ee69d49bf" y="501.431444"/>
     <use style="fill:#55868c;stroke:#55868c;" x="251.900485" xlink:href="#m0ee69d49bf" y="499.715308"/>
     <use style="fill:#55868c;stroke:#55868c;" x="283.117268" xlink:href="#m0ee69d49bf" y="497.10012"/>
     <use style="fill:#55868c;stroke:#55868c;" x="314.334052" xlink:href="#m0ee69d49bf" y="494.479642"/>
     <use style="fill:#55868c;stroke:#55868c;" x="345.550835" xlink:href="#m0ee69d49bf" y="491.575472"/>
     <use style="fill:#55868c;stroke:#55868c;" x="376.767618" xlink:href="#m0ee69d49bf" y="488.173209"/>
     <use style="fill:#55868c;stroke:#55868c;" x="407.984401" xlink:href="#m0ee69d49bf" y="484.188649"/>
     <use style="fill:#55868c;stroke:#55868c;" x="439.201184" xlink:href="#m0ee69d49bf" y="480.331708"/>
     <use style="fill:#55868c;stroke:#55868c;" x="470.417968" xlink:href="#m0ee69d49bf" y="473.638781"/>
     <use style="fill:#55868c;stroke:#55868c;" x="501.634751" xlink:href="#m0ee69d49bf" y="469.182232"/>
     <use style="fill:#55868c;stroke:#55868c;" x="532.851534" xlink:href="#m0ee69d49bf" y="462.837899"/>
     <use style="fill:#55868c;stroke:#55868c;" x="564.068317" xlink:href="#m0ee69d49bf" y="456.692036"/>
     <use style="fill:#55868c;stroke:#55868c;" x="595.285101" xlink:href="#m0ee69d49bf" y="450.261059"/>
     <use style="fill:#55868c;stroke:#55868c;" x="626.501884" xlink:href="#m0ee69d49bf" y="442.271058"/>
     <use style="fill:#55868c;stroke:#55868c;" x="657.718667" xlink:href="#m0ee69d49bf" y="432.719555"/>
     <use style="fill:#55868c;stroke:#55868c;" x="688.93545" xlink:href="#m0ee69d49bf" y="427.695809"/>
     <use style="fill:#55868c;stroke:#55868c;" x="720.152233" xlink:href="#m0ee69d49bf" y="417.176879"/>
     <use style="fill:#55868c;stroke:#55868c;" x="751.369017" xlink:href="#m0ee69d49bf" y="407.27671"/>
     <use style="fill:#55868c;stroke:#55868c;" x="782.5858" xlink:href="#m0ee69d49bf" y="397.365686"/>
     <use style="fill:#55868c;stroke:#55868c;" x="813.802583" xlink:href="#m0ee69d49bf" y="388.726026"/>
     <use style="fill:#55868c;stroke:#55868c;" x="845.019366" xlink:href="#m0ee69d49bf" y="375.797266"/>
     <use style="fill:#55868c;stroke:#55868c;" x="876.236149" xlink:href="#m0ee69d49bf" y="365.216857"/>
     <use style="fill:#55868c;stroke:#55868c;" x="907.452933" xlink:href="#m0ee69d49bf" y="353.000302"/>
     <use style="fill:#55868c;stroke:#55868c;" x="938.669716" xlink:href="#m0ee69d49bf" y="339.038525"/>
     <use style="fill:#55868c;stroke:#55868c;" x="969.886499" xlink:href="#m0ee69d49bf" y="325.394061"/>
     <use style="fill:#55868c;stroke:#55868c;" x="1001.103282" xlink:href="#m0ee69d49bf" y="310.956315"/>
     <use style="fill:#55868c;stroke:#55868c;" x="1032.320066" xlink:href="#m0ee69d49bf" y="298.37485"/>
     <use style="fill:#55868c;stroke:#55868c;" x="1063.536849" xlink:href="#m0ee69d49bf" y="282.997504"/>
     <use style="fill:#55868c;stroke:#55868c;" x="1094.753632" xlink:href="#m0ee69d49bf" y="266.611807"/>
     <use style="fill:#55868c;stroke:#55868c;" x="1125.970415" xlink:href="#m0ee69d49bf" y="252.746987"/>
     <use style="fill:#55868c;stroke:#55868c;" x="1157.187198" xlink:href="#m0ee69d49bf" y="239.062229"/>
     <use style="fill:#55868c;stroke:#55868c;" x="1188.403982" xlink:href="#m0ee69d49bf" y="219.615468"/>
     <use style="fill:#55868c;stroke:#55868c;" x="1219.620765" xlink:href="#m0ee69d49bf" y="203.409835"/>
     <use style="fill:#55868c;stroke:#55868c;" x="1250.837548" xlink:href="#m0ee69d49bf" y="187.204201"/>
     <use style="fill:#55868c;stroke:#55868c;" x="1282.054331" xlink:href="#m0ee69d49bf" y="168.297628"/>
     <use style="fill:#55868c;stroke:#55868c;" x="1313.271115" xlink:href="#m0ee69d49bf" y="146.366003"/>
     <use style="fill:#55868c;stroke:#55868c;" x="1344.487898" xlink:href="#m0ee69d49bf" y="128.215693"/>
    </g>
   </g>
   <g id="line2d_26">
    <path clip-path="url(#p58d519ac1b)" d="M 127.033352 504.500367 
L 158.250135 503.821359 
L 189.466919 502.738958 
L 220.683702 501.228873 
L 251.900485 499.360337 
L 283.117268 496.449973 
L 314.334052 493.619591 
L 345.550835 490.12295 
L 376.767618 485.776801 
L 407.984401 481.390476 
L 439.201184 476.55697 
L 470.417968 469.668401 
L 501.634751 461.475553 
L 532.851534 453.371857 
L 564.068317 444.778454 
L 595.285101 435.988623 
L 626.501884 426.299631 
L 657.718667 417.042366 
L 688.93545 406.142316 
L 720.152233 395.176503 
L 751.369017 386.056862 
L 782.5858 370.219827 
L 813.802583 361.900935 
L 845.019366 347.764636 
L 876.236149 336.944259 
L 907.452933 319.206456 
L 938.669716 305.685391 
L 969.886499 295.601886 
L 1001.103282 280.476627 
L 1032.320066 266.611807 
L 1063.536849 249.595891 
L 1094.753632 235.821102 
L 1125.970415 216.374342 
L 1157.187198 202.329459 
L 1188.403982 179.641571 
L 1219.620765 164.516313 
L 1250.837548 145.60974 
L 1282.054331 128.215693 
L 1313.271115 105.527805 
L 1344.487898 82.839918 
" style="fill:none;stroke:#eec584;stroke-linecap:square;stroke-width:1.5;"/>
    <defs>
     <path d="M -3 3 
L 3 -3 
M -3 -3 
L 3 3 
" id="mb3cf8c9ca5" style="stroke:#eec584;"/>
    </defs>
    <g clip-path="url(#p58d519ac1b)">
     <use style="fill:#eec584;stroke:#eec584;" x="127.033352" xlink:href="#mb3cf8c9ca5" y="504.500367"/>
     <use style="fill:#eec584;stroke:#eec584;" x="158.250135" xlink:href="#mb3cf8c9ca5" y="503.821359"/>
     <use style="fill:#eec584;stroke:#eec584;" x="189.466919" xlink:href="#mb3cf8c9ca5" y="502.738958"/>
     <use style="fill:#eec584;stroke:#eec584;" x="220.683702" xlink:href="#mb3cf8c9ca5" y="501.228873"/>
     <use style="fill:#eec584;stroke:#eec584;" x="251.900485" xlink:href="#mb3cf8c9ca5" y="499.360337"/>
     <use style="fill:#eec584;stroke:#eec584;" x="283.117268" xlink:href="#mb3cf8c9ca5" y="496.449973"/>
     <use style="fill:#eec584;stroke:#eec584;" x="314.334052" xlink:href="#mb3cf8c9ca5" y="493.619591"/>
     <use style="fill:#eec584;stroke:#eec584;" x="345.550835" xlink:href="#mb3cf8c9ca5" y="490.12295"/>
     <use style="fill:#eec584;stroke:#eec584;" x="376.767618" xlink:href="#mb3cf8c9ca5" y="485.776801"/>
     <use style="fill:#eec584;stroke:#eec584;" x="407.984401" xlink:href="#mb3cf8c9ca5" y="481.390476"/>
     <use style="fill:#eec584;stroke:#eec584;" x="439.201184" xlink:href="#mb3cf8c9ca5" y="476.55697"/>
     <use style="fill:#eec584;stroke:#eec584;" x="470.417968" xlink:href="#mb3cf8c9ca5" y="469.668401"/>
     <use style="fill:#eec584;stroke:#eec584;" x="501.634751" xlink:href="#mb3cf8c9ca5" y="461.475553"/>
     <use style="fill:#eec584;stroke:#eec584;" x="532.851534" xlink:href="#mb3cf8c9ca5" y="453.371857"/>
     <use style="fill:#eec584;stroke:#eec584;" x="564.068317" xlink:href="#mb3cf8c9ca5" y="444.778454"/>
     <use style="fill:#eec584;stroke:#eec584;" x="595.285101" xlink:href="#mb3cf8c9ca5" y="435.988623"/>
     <use style="fill:#eec584;stroke:#eec584;" x="626.501884" xlink:href="#mb3cf8c9ca5" y="426.299631"/>
     <use style="fill:#eec584;stroke:#eec584;" x="657.718667" xlink:href="#mb3cf8c9ca5" y="417.042366"/>
     <use style="fill:#eec584;stroke:#eec584;" x="688.93545" xlink:href="#mb3cf8c9ca5" y="406.142316"/>
     <use style="fill:#eec584;stroke:#eec584;" x="720.152233" xlink:href="#mb3cf8c9ca5" y="395.176503"/>
     <use style="fill:#eec584;stroke:#eec584;" x="751.369017" xlink:href="#mb3cf8c9ca5" y="386.056862"/>
     <use style="fill:#eec584;stroke:#eec584;" x="782.5858" xlink:href="#mb3cf8c9ca5" y="370.219827"/>
     <use style="fill:#eec584;stroke:#eec584;" x="813.802583" xlink:href="#mb3cf8c9ca5" y="361.900935"/>
     <use style="fill:#eec584;stroke:#eec584;" x="845.019366" xlink:href="#mb3cf8c9ca5" y="347.764636"/>
     <use style="fill:#eec584;stroke:#eec584;" x="876.236149" xlink:href="#mb3cf8c9ca5" y="336.944259"/>
     <use style="fill:#eec584;stroke:#eec584;" x="907.452933" xlink:href="#mb3cf8c9ca5" y="319.206456"/>
     <use style="fill:#eec584;stroke:#eec584;" x="938.669716" xlink:href="#mb3cf8c9ca5" y="305.685391"/>
     <use style="fill:#eec584;stroke:#eec584;" x="969.886499" xlink:href="#mb3cf8c9ca5" y="295.601886"/>
     <use style="fill:#eec584;stroke:#eec584;" x="1001.103282" xlink:href="#mb3cf8c9ca5" y="280.476627"/>
     <use style="fill:#eec584;stroke:#eec584;" x="1032.320066" xlink:href="#mb3cf8c9ca5" y="266.611807"/>
     <use style="fill:#eec584;stroke:#eec584;" x="1063.536849" xlink:href="#mb3cf8c9ca5" y="249.595891"/>
     <use style="fill:#eec584;stroke:#eec584;" x="1094.753632" xlink:href="#mb3cf8c9ca5" y="235.821102"/>
     <use style="fill:#eec584;stroke:#eec584;" x="1125.970415" xlink:href="#mb3cf8c9ca5" y="216.374342"/>
     <use style="fill:#eec584;stroke:#eec584;" x="1157.187198" xlink:href="#mb3cf8c9ca5" y="202.329459"/>
     <use style="fill:#eec584;stroke:#eec584;" x="1188.403982" xlink:href="#mb3cf8c9ca5" y="179.641571"/>
     <use style="fill:#eec584;stroke:#eec584;" x="1219.620765" xlink:href="#mb3cf8c9ca5" y="164.516313"/>
     <use style="fill:#eec584;stroke:#eec584;" x="1250.837548" xlink:href="#mb3cf8c9ca5" y="145.60974"/>
     <use style="fill:#eec584;stroke:#eec584;" x="1282.054331" xlink:href="#mb3cf8c9ca5" y="128.215693"/>
     <use style="fill:#eec584;stroke:#eec584;" x="1313.271115" xlink:href="#mb3cf8c9ca5" y="105.527805"/>
     <use style="fill:#eec584;stroke:#eec584;" x="1344.487898" xlink:href="#mb3cf8c9ca5" y="82.839918"/>
    </g>
   </g>
   <g id="line2d_27">
    <path clip-path="url(#p58d519ac1b)" d="M 127.033352 504.500367 
L 158.250135 503.821359 
L 189.466919 502.807295 
L 220.683702 501.26233 
L 251.900485 499.481988 
L 283.117268 496.816417 
L 314.334052 494.061049 
L 345.550835 491.065426 
L 376.767618 487.616141 
L 407.984401 483.054255 
L 439.201184 479.121687 
L 470.417968 473.284283 
L 501.634751 468.534007 
L 532.851534 461.273883 
L 564.068317 456.392921 
L 595.285101 449.034687 
L 626.501884 441.894035 
L 657.718667 431.909274 
L 688.93545 424.973262 
L 720.152233 416.145612 
L 751.369017 405.007921 
L 782.5858 395.176503 
L 813.802583 387.391444 
L 845.019366 374.757405 
L 876.236149 359.632146 
L 907.452933 348.288202 
L 938.669716 335.548081 
L 969.886499 321.586304 
L 1001.103282 305.181216 
L 1032.320066 293.837272 
L 1063.536849 280.476627 
L 1094.753632 264.991244 
L 1125.970415 245.544483 
L 1157.187198 239.062229 
L 1188.403982 221.236032 
L 1219.620765 206.110774 
L 1250.837548 194.76683 
L 1282.054331 172.078942 
L 1313.271115 153.172369 
L 1344.487898 137.290848 
" style="fill:none;stroke:#eec584;stroke-dasharray:1.5,2.475;stroke-dashoffset:0;stroke-width:1.5;"/>
    <g clip-path="url(#p58d519ac1b)">
     <use style="fill:#eec584;stroke:#eec584;" x="127.033352" xlink:href="#mb3cf8c9ca5" y="504.500367"/>
     <use style="fill:#eec584;stroke:#eec584;" x="158.250135" xlink:href="#mb3cf8c9ca5" y="503.821359"/>
     <use style="fill:#eec584;stroke:#eec584;" x="189.466919" xlink:href="#mb3cf8c9ca5" y="502.807295"/>
     <use style="fill:#eec584;stroke:#eec584;" x="220.683702" xlink:href="#mb3cf8c9ca5" y="501.26233"/>
     <use style="fill:#eec584;stroke:#eec584;" x="251.900485" xlink:href="#mb3cf8c9ca5" y="499.481988"/>
     <use style="fill:#eec584;stroke:#eec584;" x="283.117268" xlink:href="#mb3cf8c9ca5" y="496.816417"/>
     <use style="fill:#eec584;stroke:#eec584;" x="314.334052" xlink:href="#mb3cf8c9ca5" y="494.061049"/>
     <use style="fill:#eec584;stroke:#eec584;" x="345.550835" xlink:href="#mb3cf8c9ca5" y="491.065426"/>
     <use style="fill:#eec584;stroke:#eec584;" x="376.767618" xlink:href="#mb3cf8c9ca5" y="487.616141"/>
     <use style="fill:#eec584;stroke:#eec584;" x="407.984401" xlink:href="#mb3cf8c9ca5" y="483.054255"/>
     <use style="fill:#eec584;stroke:#eec584;" x="439.201184" xlink:href="#mb3cf8c9ca5" y="479.121687"/>
     <use style="fill:#eec584;stroke:#eec584;" x="470.417968" xlink:href="#mb3cf8c9ca5" y="473.284283"/>
     <use style="fill:#eec584;stroke:#eec584;" x="501.634751" xlink:href="#mb3cf8c9ca5" y="468.534007"/>
     <use style="fill:#eec584;stroke:#eec584;" x="532.851534" xlink:href="#mb3cf8c9ca5" y="461.273883"/>
     <use style="fill:#eec584;stroke:#eec584;" x="564.068317" xlink:href="#mb3cf8c9ca5" y="456.392921"/>
     <use style="fill:#eec584;stroke:#eec584;" x="595.285101" xlink:href="#mb3cf8c9ca5" y="449.034687"/>
     <use style="fill:#eec584;stroke:#eec584;" x="626.501884" xlink:href="#mb3cf8c9ca5" y="441.894035"/>
     <use style="fill:#eec584;stroke:#eec584;" x="657.718667" xlink:href="#mb3cf8c9ca5" y="431.909274"/>
     <use style="fill:#eec584;stroke:#eec584;" x="688.93545" xlink:href="#mb3cf8c9ca5" y="424.973262"/>
     <use style="fill:#eec584;stroke:#eec584;" x="720.152233" xlink:href="#mb3cf8c9ca5" y="416.145612"/>
     <use style="fill:#eec584;stroke:#eec584;" x="751.369017" xlink:href="#mb3cf8c9ca5" y="405.007921"/>
     <use style="fill:#eec584;stroke:#eec584;" x="782.5858" xlink:href="#mb3cf8c9ca5" y="395.176503"/>
     <use style="fill:#eec584;stroke:#eec584;" x="813.802583" xlink:href="#mb3cf8c9ca5" y="387.391444"/>
     <use style="fill:#eec584;stroke:#eec584;" x="845.019366" xlink:href="#mb3cf8c9ca5" y="374.757405"/>
     <use style="fill:#eec584;stroke:#eec584;" x="876.236149" xlink:href="#mb3cf8c9ca5" y="359.632146"/>
     <use style="fill:#eec584;stroke:#eec584;" x="907.452933" xlink:href="#mb3cf8c9ca5" y="348.288202"/>
     <use style="fill:#eec584;stroke:#eec584;" x="938.669716" xlink:href="#mb3cf8c9ca5" y="335.548081"/>
     <use style="fill:#eec584;stroke:#eec584;" x="969.886499" xlink:href="#mb3cf8c9ca5" y="321.586304"/>
     <use style="fill:#eec584;stroke:#eec584;" x="1001.103282" xlink:href="#mb3cf8c9ca5" y="305.181216"/>
     <use style="fill:#eec584;stroke:#eec584;" x="1032.320066" xlink:href="#mb3cf8c9ca5" y="293.837272"/>
     <use style="fill:#eec584;stroke:#eec584;" x="1063.536849" xlink:href="#mb3cf8c9ca5" y="280.476627"/>
     <use style="fill:#eec584;stroke:#eec584;" x="1094.753632" xlink:href="#mb3cf8c9ca5" y="264.991244"/>
     <use style="fill:#eec584;stroke:#eec584;" x="1125.970415" xlink:href="#mb3cf8c9ca5" y="245.544483"/>
     <use style="fill:#eec584;stroke:#eec584;" x="1157.187198" xlink:href="#mb3cf8c9ca5" y="239.062229"/>
     <use style="fill:#eec584;stroke:#eec584;" x="1188.403982" xlink:href="#mb3cf8c9ca5" y="221.236032"/>
     <use style="fill:#eec584;stroke:#eec584;" x="1219.620765" xlink:href="#mb3cf8c9ca5" y="206.110774"/>
     <use style="fill:#eec584;stroke:#eec584;" x="1250.837548" xlink:href="#mb3cf8c9ca5" y="194.76683"/>
     <use style="fill:#eec584;stroke:#eec584;" x="1282.054331" xlink:href="#mb3cf8c9ca5" y="172.078942"/>
     <use style="fill:#eec584;stroke:#eec584;" x="1313.271115" xlink:href="#mb3cf8c9ca5" y="153.172369"/>
     <use style="fill:#eec584;stroke:#eec584;" x="1344.487898" xlink:href="#mb3cf8c9ca5" y="137.290848"/>
    </g>
   </g>
   <g id="line2d_28">
    <path clip-path="url(#p58d519ac1b)" d="M 127.033352 504.506463 
L 158.250135 503.799031 
L 189.466919 502.670621 
L 220.683702 501.269387 
L 251.900485 499.481988 
L 283.117268 496.154044 
L 314.334052 493.361774 
L 345.550835 489.768451 
L 376.767618 485.387866 
L 407.984401 481.02635 
L 439.201184 476.55697 
L 470.417968 468.37195 
L 501.634751 460.907015 
L 532.851534 452.477963 
L 564.068317 443.646081 
L 595.285101 435.988623 
L 626.501884 425.880778 
L 657.718667 415.114344 
L 688.93545 405.007921 
L 720.152233 391.395189 
L 751.369017 373.244879 
L 782.5858 363.471635 
L 813.802583 354.745524 
L 845.019366 342.528969 
L 876.236149 331.581667 
L 907.452933 315.081385 
L 938.669716 300.643638 
L 969.886499 285.51838 
L 1001.103282 270.393122 
L 1032.320066 255.267863 
L 1063.536849 235.821102 
L 1094.753632 217.454717 
L 1125.970415 198.548144 
L 1157.187198 175.860257 
L 1188.403982 153.172369 
L 1219.620765 138.047111 
L 1250.837548 119.140538 
L 1282.054331 91.915073 
L 1313.271115 73.764763 
L 1344.487898 51.076875 
" style="fill:none;stroke:#9900ff;stroke-linecap:square;stroke-width:1.5;"/>
    <defs>
     <path d="M -3 3 
L 3 -3 
M -3 -3 
L 3 3 
" id="m309c2bb446" style="stroke:#9900ff;"/>
    </defs>
    <g clip-path="url(#p58d519ac1b)">
     <use style="fill:#9900ff;stroke:#9900ff;" x="127.033352" xlink:href="#m309c2bb446" y="504.506463"/>
     <use style="fill:#9900ff;stroke:#9900ff;" x="158.250135" xlink:href="#m309c2bb446" y="503.799031"/>
     <use style="fill:#9900ff;stroke:#9900ff;" x="189.466919" xlink:href="#m309c2bb446" y="502.670621"/>
     <use style="fill:#9900ff;stroke:#9900ff;" x="220.683702" xlink:href="#m309c2bb446" y="501.269387"/>
     <use style="fill:#9900ff;stroke:#9900ff;" x="251.900485" xlink:href="#m309c2bb446" y="499.481988"/>
     <use style="fill:#9900ff;stroke:#9900ff;" x="283.117268" xlink:href="#m309c2bb446" y="496.154044"/>
     <use style="fill:#9900ff;stroke:#9900ff;" x="314.334052" xlink:href="#m309c2bb446" y="493.361774"/>
     <use style="fill:#9900ff;stroke:#9900ff;" x="345.550835" xlink:href="#m309c2bb446" y="489.768451"/>
     <use style="fill:#9900ff;stroke:#9900ff;" x="376.767618" xlink:href="#m309c2bb446" y="485.387866"/>
     <use style="fill:#9900ff;stroke:#9900ff;" x="407.984401" xlink:href="#m309c2bb446" y="481.02635"/>
     <use style="fill:#9900ff;stroke:#9900ff;" x="439.201184" xlink:href="#m309c2bb446" y="476.55697"/>
     <use style="fill:#9900ff;stroke:#9900ff;" x="470.417968" xlink:href="#m309c2bb446" y="468.37195"/>
     <use style="fill:#9900ff;stroke:#9900ff;" x="501.634751" xlink:href="#m309c2bb446" y="460.907015"/>
     <use style="fill:#9900ff;stroke:#9900ff;" x="532.851534" xlink:href="#m309c2bb446" y="452.477963"/>
     <use style="fill:#9900ff;stroke:#9900ff;" x="564.068317" xlink:href="#m309c2bb446" y="443.646081"/>
     <use style="fill:#9900ff;stroke:#9900ff;" x="595.285101" xlink:href="#m309c2bb446" y="435.988623"/>
     <use style="fill:#9900ff;stroke:#9900ff;" x="626.501884" xlink:href="#m309c2bb446" y="425.880778"/>
     <use style="fill:#9900ff;stroke:#9900ff;" x="657.718667" xlink:href="#m309c2bb446" y="415.114344"/>
     <use style="fill:#9900ff;stroke:#9900ff;" x="688.93545" xlink:href="#m309c2bb446" y="405.007921"/>
     <use style="fill:#9900ff;stroke:#9900ff;" x="720.152233" xlink:href="#m309c2bb446" y="391.395189"/>
     <use style="fill:#9900ff;stroke:#9900ff;" x="751.369017" xlink:href="#m309c2bb446" y="373.244879"/>
     <use style="fill:#9900ff;stroke:#9900ff;" x="782.5858" xlink:href="#m309c2bb446" y="363.471635"/>
     <use style="fill:#9900ff;stroke:#9900ff;" x="813.802583" xlink:href="#m309c2bb446" y="354.745524"/>
     <use style="fill:#9900ff;stroke:#9900ff;" x="845.019366" xlink:href="#m309c2bb446" y="342.528969"/>
     <use style="fill:#9900ff;stroke:#9900ff;" x="876.236149" xlink:href="#m309c2bb446" y="331.581667"/>
     <use style="fill:#9900ff;stroke:#9900ff;" x="907.452933" xlink:href="#m309c2bb446" y="315.081385"/>
     <use style="fill:#9900ff;stroke:#9900ff;" x="938.669716" xlink:href="#m309c2bb446" y="300.643638"/>
     <use style="fill:#9900ff;stroke:#9900ff;" x="969.886499" xlink:href="#m309c2bb446" y="285.51838"/>
     <use style="fill:#9900ff;stroke:#9900ff;" x="1001.103282" xlink:href="#m309c2bb446" y="270.393122"/>
     <use style="fill:#9900ff;stroke:#9900ff;" x="1032.320066" xlink:href="#m309c2bb446" y="255.267863"/>
     <use style="fill:#9900ff;stroke:#9900ff;" x="1063.536849" xlink:href="#m309c2bb446" y="235.821102"/>
     <use style="fill:#9900ff;stroke:#9900ff;" x="1094.753632" xlink:href="#m309c2bb446" y="217.454717"/>
     <use style="fill:#9900ff;stroke:#9900ff;" x="1125.970415" xlink:href="#m309c2bb446" y="198.548144"/>
     <use style="fill:#9900ff;stroke:#9900ff;" x="1157.187198" xlink:href="#m309c2bb446" y="175.860257"/>
     <use style="fill:#9900ff;stroke:#9900ff;" x="1188.403982" xlink:href="#m309c2bb446" y="153.172369"/>
     <use style="fill:#9900ff;stroke:#9900ff;" x="1219.620765" xlink:href="#m309c2bb446" y="138.047111"/>
     <use style="fill:#9900ff;stroke:#9900ff;" x="1250.837548" xlink:href="#m309c2bb446" y="119.140538"/>
     <use style="fill:#9900ff;stroke:#9900ff;" x="1282.054331" xlink:href="#m309c2bb446" y="91.915073"/>
     <use style="fill:#9900ff;stroke:#9900ff;" x="1313.271115" xlink:href="#m309c2bb446" y="73.764763"/>
     <use style="fill:#9900ff;stroke:#9900ff;" x="1344.487898" xlink:href="#m309c2bb446" y="51.076875"/>
    </g>
   </g>
   <g id="line2d_29">
    <path clip-path="url(#p58d519ac1b)" d="M 127.033352 504.477371 
L 158.250135 503.755433 
L 189.466919 502.631673 
L 220.683702 501.228873 
L 251.900485 499.299512 
L 283.117268 496.374736 
L 314.334052 493.490683 
L 345.550835 490.314379 
L 376.767618 486.805859 
L 407.984401 482.398827 
L 439.201184 478.225376 
L 470.417968 471.157294 
L 501.634751 466.308025 
L 532.851534 459.458852 
L 564.068317 453.059704 
L 595.285101 446.113035 
L 626.501884 438.234699 
L 657.718667 428.044853 
L 688.93545 421.645706 
L 720.152233 410.84195 
L 751.369017 398.559785 
L 782.5858 388.874312 
L 813.802583 378.633252 
L 845.019366 367.194775 
L 876.236149 354.745524 
L 907.452933 341.894343 
L 938.669716 329.519132 
L 969.886499 316.52516 
L 1001.103282 300.643638 
L 1032.320066 287.030906 
L 1063.536849 275.434874 
L 1094.753632 255.267863 
L 1125.970415 239.062229 
L 1157.187198 219.615468 
L 1188.403982 206.110774 
L 1219.620765 183.422886 
L 1250.837548 160.734998 
L 1282.054331 145.60974 
L 1313.271115 128.215693 
L 1344.487898 110.065383 
" style="fill:none;stroke:#9900ff;stroke-dasharray:1.5,2.475;stroke-dashoffset:0;stroke-width:1.5;"/>
    <g clip-path="url(#p58d519ac1b)">
     <use style="fill:#9900ff;stroke:#9900ff;" x="127.033352" xlink:href="#m309c2bb446" y="504.477371"/>
     <use style="fill:#9900ff;stroke:#9900ff;" x="158.250135" xlink:href="#m309c2bb446" y="503.755433"/>
     <use style="fill:#9900ff;stroke:#9900ff;" x="189.466919" xlink:href="#m309c2bb446" y="502.631673"/>
     <use style="fill:#9900ff;stroke:#9900ff;" x="220.683702" xlink:href="#m309c2bb446" y="501.228873"/>
     <use style="fill:#9900ff;stroke:#9900ff;" x="251.900485" xlink:href="#m309c2bb446" y="499.299512"/>
     <use style="fill:#9900ff;stroke:#9900ff;" x="283.117268" xlink:href="#m309c2bb446" y="496.374736"/>
     <use style="fill:#9900ff;stroke:#9900ff;" x="314.334052" xlink:href="#m309c2bb446" y="493.490683"/>
     <use style="fill:#9900ff;stroke:#9900ff;" x="345.550835" xlink:href="#m309c2bb446" y="490.314379"/>
     <use style="fill:#9900ff;stroke:#9900ff;" x="376.767618" xlink:href="#m309c2bb446" y="486.805859"/>
     <use style="fill:#9900ff;stroke:#9900ff;" x="407.984401" xlink:href="#m309c2bb446" y="482.398827"/>
     <use style="fill:#9900ff;stroke:#9900ff;" x="439.201184" xlink:href="#m309c2bb446" y="478.225376"/>
     <use style="fill:#9900ff;stroke:#9900ff;" x="470.417968" xlink:href="#m309c2bb446" y="471.157294"/>
     <use style="fill:#9900ff;stroke:#9900ff;" x="501.634751" xlink:href="#m309c2bb446" y="466.308025"/>
     <use style="fill:#9900ff;stroke:#9900ff;" x="532.851534" xlink:href="#m309c2bb446" y="459.458852"/>
     <use style="fill:#9900ff;stroke:#9900ff;" x="564.068317" xlink:href="#m309c2bb446" y="453.059704"/>
     <use style="fill:#9900ff;stroke:#9900ff;" x="595.285101" xlink:href="#m309c2bb446" y="446.113035"/>
     <use style="fill:#9900ff;stroke:#9900ff;" x="626.501884" xlink:href="#m309c2bb446" y="438.234699"/>
     <use style="fill:#9900ff;stroke:#9900ff;" x="657.718667" xlink:href="#m309c2bb446" y="428.044853"/>
     <use style="fill:#9900ff;stroke:#9900ff;" x="688.93545" xlink:href="#m309c2bb446" y="421.645706"/>
     <use style="fill:#9900ff;stroke:#9900ff;" x="720.152233" xlink:href="#m309c2bb446" y="410.84195"/>
     <use style="fill:#9900ff;stroke:#9900ff;" x="751.369017" xlink:href="#m309c2bb446" y="398.559785"/>
     <use style="fill:#9900ff;stroke:#9900ff;" x="782.5858" xlink:href="#m309c2bb446" y="388.874312"/>
     <use style="fill:#9900ff;stroke:#9900ff;" x="813.802583" xlink:href="#m309c2bb446" y="378.633252"/>
     <use style="fill:#9900ff;stroke:#9900ff;" x="845.019366" xlink:href="#m309c2bb446" y="367.194775"/>
     <use style="fill:#9900ff;stroke:#9900ff;" x="876.236149" xlink:href="#m309c2bb446" y="354.745524"/>
     <use style="fill:#9900ff;stroke:#9900ff;" x="907.452933" xlink:href="#m309c2bb446" y="341.894343"/>
     <use style="fill:#9900ff;stroke:#9900ff;" x="938.669716" xlink:href="#m309c2bb446" y="329.519132"/>
     <use style="fill:#9900ff;stroke:#9900ff;" x="969.886499" xlink:href="#m309c2bb446" y="316.52516"/>
     <use style="fill:#9900ff;stroke:#9900ff;" x="1001.103282" xlink:href="#m309c2bb446" y="300.643638"/>
     <use style="fill:#9900ff;stroke:#9900ff;" x="1032.320066" xlink:href="#m309c2bb446" y="287.030906"/>
     <use style="fill:#9900ff;stroke:#9900ff;" x="1063.536849" xlink:href="#m309c2bb446" y="275.434874"/>
     <use style="fill:#9900ff;stroke:#9900ff;" x="1094.753632" xlink:href="#m309c2bb446" y="255.267863"/>
     <use style="fill:#9900ff;stroke:#9900ff;" x="1125.970415" xlink:href="#m309c2bb446" y="239.062229"/>
     <use style="fill:#9900ff;stroke:#9900ff;" x="1157.187198" xlink:href="#m309c2bb446" y="219.615468"/>
     <use style="fill:#9900ff;stroke:#9900ff;" x="1188.403982" xlink:href="#m309c2bb446" y="206.110774"/>
     <use style="fill:#9900ff;stroke:#9900ff;" x="1219.620765" xlink:href="#m309c2bb446" y="183.422886"/>
     <use style="fill:#9900ff;stroke:#9900ff;" x="1250.837548" xlink:href="#m309c2bb446" y="160.734998"/>
     <use style="fill:#9900ff;stroke:#9900ff;" x="1282.054331" xlink:href="#m309c2bb446" y="145.60974"/>
     <use style="fill:#9900ff;stroke:#9900ff;" x="1313.271115" xlink:href="#m309c2bb446" y="128.215693"/>
     <use style="fill:#9900ff;stroke:#9900ff;" x="1344.487898" xlink:href="#m309c2bb446" y="110.065383"/>
    </g>
   </g>
   <g id="line2d_30">
    <path clip-path="url(#p58d519ac1b)" d="M 127.033352 504.676875 
L 158.250135 503.292559 
L 189.466919 502.078367 
L 220.683702 499.891456 
L 251.900485 497.921911 
L 283.117268 494.945035 
L 314.334052 492.498088 
L 345.550835 488.831563 
L 376.767618 485.776801 
L 407.984401 481.894651 
L 439.201184 477.5434 
L 470.417968 473.449716 
L 501.634751 467.561669 
L 532.851534 461.872457 
L 564.068317 455.386667 
L 595.285101 448.745127 
L 626.501884 441.733939 
L 657.718667 435.206282 
L 688.93545 427.172242 
L 720.152233 417.864391 
L 751.369017 411.694878 
L 782.5858 399.753884 
L 813.802583 391.395189 
L 845.019366 378.633252 
L 876.236149 368.707301 
L 907.452933 358.235968 
L 938.669716 346.019414 
L 969.886499 335.706737 
L 1001.103282 323.331526 
L 1032.320066 309.718793 
L 1063.536849 300.643638 
L 1094.753632 290.560133 
L 1125.970415 275.434874 
L 1157.187198 260.939835 
L 1188.403982 245.544483 
L 1219.620765 229.338849 
L 1250.837548 213.133215 
L 1282.054331 198.548144 
L 1313.271115 179.641571 
L 1344.487898 164.516313 
" style="fill:none;stroke:#ce4257;stroke-linecap:square;stroke-width:1.5;"/>
    <defs>
     <path d="M -3 3 
L 3 -3 
M -3 -3 
L 3 3 
" id="m3e34dd08b9" style="stroke:#ce4257;"/>
    </defs>
    <g clip-path="url(#p58d519ac1b)">
     <use style="fill:#ce4257;stroke:#ce4257;" x="127.033352" xlink:href="#m3e34dd08b9" y="504.676875"/>
     <use style="fill:#ce4257;stroke:#ce4257;" x="158.250135" xlink:href="#m3e34dd08b9" y="503.292559"/>
     <use style="fill:#ce4257;stroke:#ce4257;" x="189.466919" xlink:href="#m3e34dd08b9" y="502.078367"/>
     <use style="fill:#ce4257;stroke:#ce4257;" x="220.683702" xlink:href="#m3e34dd08b9" y="499.891456"/>
     <use style="fill:#ce4257;stroke:#ce4257;" x="251.900485" xlink:href="#m3e34dd08b9" y="497.921911"/>
     <use style="fill:#ce4257;stroke:#ce4257;" x="283.117268" xlink:href="#m3e34dd08b9" y="494.945035"/>
     <use style="fill:#ce4257;stroke:#ce4257;" x="314.334052" xlink:href="#m3e34dd08b9" y="492.498088"/>
     <use style="fill:#ce4257;stroke:#ce4257;" x="345.550835" xlink:href="#m3e34dd08b9" y="488.831563"/>
     <use style="fill:#ce4257;stroke:#ce4257;" x="376.767618" xlink:href="#m3e34dd08b9" y="485.776801"/>
     <use style="fill:#ce4257;stroke:#ce4257;" x="407.984401" xlink:href="#m3e34dd08b9" y="481.894651"/>
     <use style="fill:#ce4257;stroke:#ce4257;" x="439.201184" xlink:href="#m3e34dd08b9" y="477.5434"/>
     <use style="fill:#ce4257;stroke:#ce4257;" x="470.417968" xlink:href="#m3e34dd08b9" y="473.449716"/>
     <use style="fill:#ce4257;stroke:#ce4257;" x="501.634751" xlink:href="#m3e34dd08b9" y="467.561669"/>
     <use style="fill:#ce4257;stroke:#ce4257;" x="532.851534" xlink:href="#m3e34dd08b9" y="461.872457"/>
     <use style="fill:#ce4257;stroke:#ce4257;" x="564.068317" xlink:href="#m3e34dd08b9" y="455.386667"/>
     <use style="fill:#ce4257;stroke:#ce4257;" x="595.285101" xlink:href="#m3e34dd08b9" y="448.745127"/>
     <use style="fill:#ce4257;stroke:#ce4257;" x="626.501884" xlink:href="#m3e34dd08b9" y="441.733939"/>
     <use style="fill:#ce4257;stroke:#ce4257;" x="657.718667" xlink:href="#m3e34dd08b9" y="435.206282"/>
     <use style="fill:#ce4257;stroke:#ce4257;" x="688.93545" xlink:href="#m3e34dd08b9" y="427.172242"/>
     <use style="fill:#ce4257;stroke:#ce4257;" x="720.152233" xlink:href="#m3e34dd08b9" y="417.864391"/>
     <use style="fill:#ce4257;stroke:#ce4257;" x="751.369017" xlink:href="#m3e34dd08b9" y="411.694878"/>
     <use style="fill:#ce4257;stroke:#ce4257;" x="782.5858" xlink:href="#m3e34dd08b9" y="399.753884"/>
     <use style="fill:#ce4257;stroke:#ce4257;" x="813.802583" xlink:href="#m3e34dd08b9" y="391.395189"/>
     <use style="fill:#ce4257;stroke:#ce4257;" x="845.019366" xlink:href="#m3e34dd08b9" y="378.633252"/>
     <use style="fill:#ce4257;stroke:#ce4257;" x="876.236149" xlink:href="#m3e34dd08b9" y="368.707301"/>
     <use style="fill:#ce4257;stroke:#ce4257;" x="907.452933" xlink:href="#m3e34dd08b9" y="358.235968"/>
     <use style="fill:#ce4257;stroke:#ce4257;" x="938.669716" xlink:href="#m3e34dd08b9" y="346.019414"/>
     <use style="fill:#ce4257;stroke:#ce4257;" x="969.886499" xlink:href="#m3e34dd08b9" y="335.706737"/>
     <use style="fill:#ce4257;stroke:#ce4257;" x="1001.103282" xlink:href="#m3e34dd08b9" y="323.331526"/>
     <use style="fill:#ce4257;stroke:#ce4257;" x="1032.320066" xlink:href="#m3e34dd08b9" y="309.718793"/>
     <use style="fill:#ce4257;stroke:#ce4257;" x="1063.536849" xlink:href="#m3e34dd08b9" y="300.643638"/>
     <use style="fill:#ce4257;stroke:#ce4257;" x="1094.753632" xlink:href="#m3e34dd08b9" y="290.560133"/>
     <use style="fill:#ce4257;stroke:#ce4257;" x="1125.970415" xlink:href="#m3e34dd08b9" y="275.434874"/>
     <use style="fill:#ce4257;stroke:#ce4257;" x="1157.187198" xlink:href="#m3e34dd08b9" y="260.939835"/>
     <use style="fill:#ce4257;stroke:#ce4257;" x="1188.403982" xlink:href="#m3e34dd08b9" y="245.544483"/>
     <use style="fill:#ce4257;stroke:#ce4257;" x="1219.620765" xlink:href="#m3e34dd08b9" y="229.338849"/>
     <use style="fill:#ce4257;stroke:#ce4257;" x="1250.837548" xlink:href="#m3e34dd08b9" y="213.133215"/>
     <use style="fill:#ce4257;stroke:#ce4257;" x="1282.054331" xlink:href="#m3e34dd08b9" y="198.548144"/>
     <use style="fill:#ce4257;stroke:#ce4257;" x="1313.271115" xlink:href="#m3e34dd08b9" y="179.641571"/>
     <use style="fill:#ce4257;stroke:#ce4257;" x="1344.487898" xlink:href="#m3e34dd08b9" y="164.516313"/>
    </g>
   </g>
   <g id="line2d_31">
    <path clip-path="url(#p58d519ac1b)" d="M 127.033352 504.631812 
L 158.250135 504.038396 
L 189.466919 503.035085 
L 220.683702 500.873933 
L 251.900485 498.475738 
L 283.117268 495.25783 
L 314.334052 491.534831 
L 345.550835 487.211 
L 376.767618 482.146739 
L 407.984401 476.88578 
L 439.201184 471.207936 
L 470.417968 464.595732 
L 501.634751 457.34835 
L 532.851534 450.005565 
L 564.068317 441.894035 
L 595.285101 435.025742 
L 626.501884 424.973262 
L 657.718667 413.051809 
L 688.93545 402.739133 
L 720.152233 392.655627 
L 751.369017 381.469238 
L 782.5858 367.194775 
L 813.802583 358.235968 
L 845.019366 339.213047 
L 876.236149 327.456597 
L 907.452933 314.256371 
L 938.669716 300.643638 
L 969.886499 277.955751 
L 1001.103282 266.611807 
L 1032.320066 249.595891 
L 1063.536849 229.338849 
L 1094.753632 213.133215 
L 1125.970415 202.329459 
L 1157.187198 183.422886 
L 1188.403982 156.953684 
L 1219.620765 138.047111 
L 1250.837548 114.60296 
L 1282.054331 96.45265 
L 1313.271115 73.764763 
L 1344.487898 51.076875 
" style="fill:none;stroke:#ce4257;stroke-dasharray:1.5,2.475;stroke-dashoffset:0;stroke-width:1.5;"/>
    <g clip-path="url(#p58d519ac1b)">
     <use style="fill:#ce4257;stroke:#ce4257;" x="127.033352" xlink:href="#m3e34dd08b9" y="504.631812"/>
     <use style="fill:#ce4257;stroke:#ce4257;" x="158.250135" xlink:href="#m3e34dd08b9" y="504.038396"/>
     <use style="fill:#ce4257;stroke:#ce4257;" x="189.466919" xlink:href="#m3e34dd08b9" y="503.035085"/>
     <use style="fill:#ce4257;stroke:#ce4257;" x="220.683702" xlink:href="#m3e34dd08b9" y="500.873933"/>
     <use style="fill:#ce4257;stroke:#ce4257;" x="251.900485" xlink:href="#m3e34dd08b9" y="498.475738"/>
     <use style="fill:#ce4257;stroke:#ce4257;" x="283.117268" xlink:href="#m3e34dd08b9" y="495.25783"/>
     <use style="fill:#ce4257;stroke:#ce4257;" x="314.334052" xlink:href="#m3e34dd08b9" y="491.534831"/>
     <use style="fill:#ce4257;stroke:#ce4257;" x="345.550835" xlink:href="#m3e34dd08b9" y="487.211"/>
     <use style="fill:#ce4257;stroke:#ce4257;" x="376.767618" xlink:href="#m3e34dd08b9" y="482.146739"/>
     <use style="fill:#ce4257;stroke:#ce4257;" x="407.984401" xlink:href="#m3e34dd08b9" y="476.88578"/>
     <use style="fill:#ce4257;stroke:#ce4257;" x="439.201184" xlink:href="#m3e34dd08b9" y="471.207936"/>
     <use style="fill:#ce4257;stroke:#ce4257;" x="470.417968" xlink:href="#m3e34dd08b9" y="464.595732"/>
     <use style="fill:#ce4257;stroke:#ce4257;" x="501.634751" xlink:href="#m3e34dd08b9" y="457.34835"/>
     <use style="fill:#ce4257;stroke:#ce4257;" x="532.851534" xlink:href="#m3e34dd08b9" y="450.005565"/>
     <use style="fill:#ce4257;stroke:#ce4257;" x="564.068317" xlink:href="#m3e34dd08b9" y="441.894035"/>
     <use style="fill:#ce4257;stroke:#ce4257;" x="595.285101" xlink:href="#m3e34dd08b9" y="435.025742"/>
     <use style="fill:#ce4257;stroke:#ce4257;" x="626.501884" xlink:href="#m3e34dd08b9" y="424.973262"/>
     <use style="fill:#ce4257;stroke:#ce4257;" x="657.718667" xlink:href="#m3e34dd08b9" y="413.051809"/>
     <use style="fill:#ce4257;stroke:#ce4257;" x="688.93545" xlink:href="#m3e34dd08b9" y="402.739133"/>
     <use style="fill:#ce4257;stroke:#ce4257;" x="720.152233" xlink:href="#m3e34dd08b9" y="392.655627"/>
     <use style="fill:#ce4257;stroke:#ce4257;" x="751.369017" xlink:href="#m3e34dd08b9" y="381.469238"/>
     <use style="fill:#ce4257;stroke:#ce4257;" x="782.5858" xlink:href="#m3e34dd08b9" y="367.194775"/>
     <use style="fill:#ce4257;stroke:#ce4257;" x="813.802583" xlink:href="#m3e34dd08b9" y="358.235968"/>
     <use style="fill:#ce4257;stroke:#ce4257;" x="845.019366" xlink:href="#m3e34dd08b9" y="339.213047"/>
     <use style="fill:#ce4257;stroke:#ce4257;" x="876.236149" xlink:href="#m3e34dd08b9" y="327.456597"/>
     <use style="fill:#ce4257;stroke:#ce4257;" x="907.452933" xlink:href="#m3e34dd08b9" y="314.256371"/>
     <use style="fill:#ce4257;stroke:#ce4257;" x="938.669716" xlink:href="#m3e34dd08b9" y="300.643638"/>
     <use style="fill:#ce4257;stroke:#ce4257;" x="969.886499" xlink:href="#m3e34dd08b9" y="277.955751"/>
     <use style="fill:#ce4257;stroke:#ce4257;" x="1001.103282" xlink:href="#m3e34dd08b9" y="266.611807"/>
     <use style="fill:#ce4257;stroke:#ce4257;" x="1032.320066" xlink:href="#m3e34dd08b9" y="249.595891"/>
     <use style="fill:#ce4257;stroke:#ce4257;" x="1063.536849" xlink:href="#m3e34dd08b9" y="229.338849"/>
     <use style="fill:#ce4257;stroke:#ce4257;" x="1094.753632" xlink:href="#m3e34dd08b9" y="213.133215"/>
     <use style="fill:#ce4257;stroke:#ce4257;" x="1125.970415" xlink:href="#m3e34dd08b9" y="202.329459"/>
     <use style="fill:#ce4257;stroke:#ce4257;" x="1157.187198" xlink:href="#m3e34dd08b9" y="183.422886"/>
     <use style="fill:#ce4257;stroke:#ce4257;" x="1188.403982" xlink:href="#m3e34dd08b9" y="156.953684"/>
     <use style="fill:#ce4257;stroke:#ce4257;" x="1219.620765" xlink:href="#m3e34dd08b9" y="138.047111"/>
     <use style="fill:#ce4257;stroke:#ce4257;" x="1250.837548" xlink:href="#m3e34dd08b9" y="114.60296"/>
     <use style="fill:#ce4257;stroke:#ce4257;" x="1282.054331" xlink:href="#m3e34dd08b9" y="96.45265"/>
     <use style="fill:#ce4257;stroke:#ce4257;" x="1313.271115" xlink:href="#m3e34dd08b9" y="73.764763"/>
     <use style="fill:#ce4257;stroke:#ce4257;" x="1344.487898" xlink:href="#m3e34dd08b9" y="51.076875"/>
    </g>
   </g>
   <g id="patch_3">
    <path d="M 66.160625 527.356875 
L 66.160625 28.396875 
" style="fill:none;stroke:#000000;stroke-linecap:square;stroke-linejoin:miter;stroke-width:0.8;"/>
   </g>
   <g id="patch_4">
    <path d="M 1405.360625 527.356875 
L 1405.360625 28.396875 
" style="fill:none;stroke:#000000;stroke-linecap:square;stroke-linejoin:miter;stroke-width:0.8;"/>
   </g>
   <g id="patch_5">
    <path d="M 66.160625 527.356875 
L 1405.360625 527.356875 
" style="fill:none;stroke:#000000;stroke-linecap:square;stroke-linejoin:miter;stroke-width:0.8;"/>
   </g>
   <g id="patch_6">
    <path d="M 66.160625 28.396875 
L 1405.360625 28.396875 
" style="fill:none;stroke:#000000;stroke-linecap:square;stroke-linejoin:miter;stroke-width:0.8;"/>
   </g>
   <g id="text_19">
    <!-- SeparableConvolve Implementations vs Explicit Implementation -->
    <defs>
     <path d="M 18.109375 8.203125 
L 18.109375 -20.796875 
L 9.078125 -20.796875 
L 9.078125 54.6875 
L 18.109375 54.6875 
L 18.109375 46.390625 
Q 20.953125 51.265625 25.265625 53.625 
Q 29.59375 56 35.59375 56 
Q 45.5625 56 51.78125 48.09375 
Q 58.015625 40.1875 58.015625 27.296875 
Q 58.015625 14.40625 51.78125 6.484375 
Q 45.5625 -1.421875 35.59375 -1.421875 
Q 29.59375 -1.421875 25.265625 0.953125 
Q 20.953125 3.328125 18.109375 8.203125 
z
M 48.6875 27.296875 
Q 48.6875 37.203125 44.609375 42.84375 
Q 40.53125 48.484375 33.40625 48.484375 
Q 26.265625 48.484375 22.1875 42.84375 
Q 18.109375 37.203125 18.109375 27.296875 
Q 18.109375 17.390625 22.1875 11.75 
Q 26.265625 6.109375 33.40625 6.109375 
Q 40.53125 6.109375 44.609375 11.75 
Q 48.6875 17.390625 48.6875 27.296875 
z
" id="DejaVuSans-112"/>
     <path d="M 34.28125 27.484375 
Q 23.390625 27.484375 19.1875 25 
Q 14.984375 22.515625 14.984375 16.5 
Q 14.984375 11.71875 18.140625 8.90625 
Q 21.296875 6.109375 26.703125 6.109375 
Q 34.1875 6.109375 38.703125 11.40625 
Q 43.21875 16.703125 43.21875 25.484375 
L 43.21875 27.484375 
z
M 52.203125 31.203125 
L 52.203125 0 
L 43.21875 0 
L 43.21875 8.296875 
Q 40.140625 3.328125 35.546875 0.953125 
Q 30.953125 -1.421875 24.3125 -1.421875 
Q 15.921875 -1.421875 10.953125 3.296875 
Q 6 8.015625 6 15.921875 
Q 6 25.140625 12.171875 29.828125 
Q 18.359375 34.515625 30.609375 34.515625 
L 43.21875 34.515625 
L 43.21875 35.40625 
Q 43.21875 41.609375 39.140625 45 
Q 35.0625 48.390625 27.6875 48.390625 
Q 23 48.390625 18.546875 47.265625 
Q 14.109375 46.140625 10.015625 43.890625 
L 10.015625 52.203125 
Q 14.9375 54.109375 19.578125 55.046875 
Q 24.21875 56 28.609375 56 
Q 40.484375 56 46.34375 49.84375 
Q 52.203125 43.703125 52.203125 31.203125 
z
" id="DejaVuSans-97"/>
     <path d="M 41.109375 46.296875 
Q 39.59375 47.171875 37.8125 47.578125 
Q 36.03125 48 33.890625 48 
Q 26.265625 48 22.1875 43.046875 
Q 18.109375 38.09375 18.109375 28.8125 
L 18.109375 0 
L 9.078125 0 
L 9.078125 54.6875 
L 18.109375 54.6875 
L 18.109375 46.1875 
Q 20.953125 51.171875 25.484375 53.578125 
Q 30.03125 56 36.53125 56 
Q 37.453125 56 38.578125 55.875 
Q 39.703125 55.765625 41.0625 55.515625 
z
" id="DejaVuSans-114"/>
     <path d="M 48.6875 27.296875 
Q 48.6875 37.203125 44.609375 42.84375 
Q 40.53125 48.484375 33.40625 48.484375 
Q 26.265625 48.484375 22.1875 42.84375 
Q 18.109375 37.203125 18.109375 27.296875 
Q 18.109375 17.390625 22.1875 11.75 
Q 26.265625 6.109375 33.40625 6.109375 
Q 40.53125 6.109375 44.609375 11.75 
Q 48.6875 17.390625 48.6875 27.296875 
z
M 18.109375 46.390625 
Q 20.953125 51.265625 25.265625 53.625 
Q 29.59375 56 35.59375 56 
Q 45.5625 56 51.78125 48.09375 
Q 58.015625 40.1875 58.015625 27.296875 
Q 58.015625 14.40625 51.78125 6.484375 
Q 45.5625 -1.421875 35.59375 -1.421875 
Q 29.59375 -1.421875 25.265625 0.953125 
Q 20.953125 3.328125 18.109375 8.203125 
L 18.109375 0 
L 9.078125 0 
L 9.078125 75.984375 
L 18.109375 75.984375 
z
" id="DejaVuSans-98"/>
     <path d="M 9.421875 75.984375 
L 18.40625 75.984375 
L 18.40625 0 
L 9.421875 0 
z
" id="DejaVuSans-108"/>
     <path d="M 64.40625 67.28125 
L 64.40625 56.890625 
Q 59.421875 61.53125 53.78125 63.8125 
Q 48.140625 66.109375 41.796875 66.109375 
Q 29.296875 66.109375 22.65625 58.46875 
Q 16.015625 50.828125 16.015625 36.375 
Q 16.015625 21.96875 22.65625 14.328125 
Q 29.296875 6.6875 41.796875 6.6875 
Q 48.140625 6.6875 53.78125 8.984375 
Q 59.421875 11.28125 64.40625 15.921875 
L 64.40625 5.609375 
Q 59.234375 2.09375 53.4375 0.328125 
Q 47.65625 -1.421875 41.21875 -1.421875 
Q 24.65625 -1.421875 15.125 8.703125 
Q 5.609375 18.84375 5.609375 36.375 
Q 5.609375 53.953125 15.125 64.078125 
Q 24.65625 74.21875 41.21875 74.21875 
Q 47.75 74.21875 53.53125 72.484375 
Q 59.328125 70.75 64.40625 67.28125 
z
" id="DejaVuSans-67"/>
     <path d="M 30.609375 48.390625 
Q 23.390625 48.390625 19.1875 42.75 
Q 14.984375 37.109375 14.984375 27.296875 
Q 14.984375 17.484375 19.15625 11.84375 
Q 23.34375 6.203125 30.609375 6.203125 
Q 37.796875 6.203125 41.984375 11.859375 
Q 46.1875 17.53125 46.1875 27.296875 
Q 46.1875 37.015625 41.984375 42.703125 
Q 37.796875 48.390625 30.609375 48.390625 
z
M 30.609375 56 
Q 42.328125 56 49.015625 48.375 
Q 55.71875 40.765625 55.71875 27.296875 
Q 55.71875 13.875 49.015625 6.21875 
Q 42.328125 -1.421875 30.609375 -1.421875 
Q 18.84375 -1.421875 12.171875 6.21875 
Q 5.515625 13.875 5.515625 27.296875 
Q 5.515625 40.765625 12.171875 48.375 
Q 18.84375 56 30.609375 56 
z
" id="DejaVuSans-111"/>
     <path d="M 2.984375 54.6875 
L 12.5 54.6875 
L 29.59375 8.796875 
L 46.6875 54.6875 
L 56.203125 54.6875 
L 35.6875 0 
L 23.484375 0 
z
" id="DejaVuSans-118"/>
     <path d="M 9.8125 72.90625 
L 19.671875 72.90625 
L 19.671875 0 
L 9.8125 0 
z
" id="DejaVuSans-73"/>
     <path d="M 18.3125 70.21875 
L 18.3125 54.6875 
L 36.8125 54.6875 
L 36.8125 47.703125 
L 18.3125 47.703125 
L 18.3125 18.015625 
Q 18.3125 11.328125 20.140625 9.421875 
Q 21.96875 7.515625 27.59375 7.515625 
L 36.8125 7.515625 
L 36.8125 0 
L 27.59375 0 
Q 17.1875 0 13.234375 3.875 
Q 9.28125 7.765625 9.28125 18.015625 
L 9.28125 47.703125 
L 2.6875 47.703125 
L 2.6875 54.6875 
L 9.28125 54.6875 
L 9.28125 70.21875 
z
" id="DejaVuSans-116"/>
     <path d="M 9.8125 72.90625 
L 55.90625 72.90625 
L 55.90625 64.59375 
L 19.671875 64.59375 
L 19.671875 43.015625 
L 54.390625 43.015625 
L 54.390625 34.71875 
L 19.671875 34.71875 
L 19.671875 8.296875 
L 56.78125 8.296875 
L 56.78125 0 
L 9.8125 0 
z
" id="DejaVuSans-69"/>
     <path d="M 54.890625 54.6875 
L 35.109375 28.078125 
L 55.90625 0 
L 45.3125 0 
L 29.390625 21.484375 
L 13.484375 0 
L 2.875 0 
L 24.125 28.609375 
L 4.6875 54.6875 
L 15.28125 54.6875 
L 29.78125 35.203125 
L 44.28125 54.6875 
z
" id="DejaVuSans-120"/>
     <path d="M 48.78125 52.59375 
L 48.78125 44.1875 
Q 44.96875 46.296875 41.140625 47.34375 
Q 37.3125 48.390625 33.40625 48.390625 
Q 24.65625 48.390625 19.8125 42.84375 
Q 14.984375 37.3125 14.984375 27.296875 
Q 14.984375 17.28125 19.8125 11.734375 
Q 24.65625 6.203125 33.40625 6.203125 
Q 37.3125 6.203125 41.140625 7.25 
Q 44.96875 8.296875 48.78125 10.40625 
L 48.78125 2.09375 
Q 45.015625 0.34375 40.984375 -0.53125 
Q 36.96875 -1.421875 32.421875 -1.421875 
Q 20.0625 -1.421875 12.78125 6.34375 
Q 5.515625 14.109375 5.515625 27.296875 
Q 5.515625 40.671875 12.859375 48.328125 
Q 20.21875 56 33.015625 56 
Q 37.15625 56 41.109375 55.140625 
Q 45.0625 54.296875 48.78125 52.59375 
z
" id="DejaVuSans-99"/>
    </defs>
    <g transform="translate(414.73875 22.396875)scale(0.2 -0.2)">
     <use xlink:href="#DejaVuSans-83"/>
     <use x="63.476562" xlink:href="#DejaVuSans-101"/>
     <use x="125" xlink:href="#DejaVuSans-112"/>
     <use x="188.476562" xlink:href="#DejaVuSans-97"/>
     <use x="249.755859" xlink:href="#DejaVuSans-114"/>
     <use x="290.869141" xlink:href="#DejaVuSans-97"/>
     <use x="352.148438" xlink:href="#DejaVuSans-98"/>
     <use x="415.625" xlink:href="#DejaVuSans-108"/>
     <use x="443.408203" xlink:href="#DejaVuSans-101"/>
     <use x="504.931641" xlink:href="#DejaVuSans-67"/>
     <use x="574.755859" xlink:href="#DejaVuSans-111"/>
     <use x="635.9375" xlink:href="#DejaVuSans-110"/>
     <use x="699.316406" xlink:href="#DejaVuSans-118"/>
     <use x="758.496094" xlink:href="#DejaVuSans-111"/>
     <use x="819.677734" xlink:href="#DejaVuSans-108"/>
     <use x="847.460938" xlink:href="#DejaVuSans-118"/>
     <use x="906.640625" xlink:href="#DejaVuSans-101"/>
     <use x="968.164062" xlink:href="#DejaVuSans-32"/>
     <use x="999.951172" xlink:href="#DejaVuSans-73"/>
     <use x="1029.443359" xlink:href="#DejaVuSans-109"/>
     <use x="1126.855469" xlink:href="#DejaVuSans-112"/>
     <use x="1190.332031" xlink:href="#DejaVuSans-108"/>
     <use x="1218.115234" xlink:href="#DejaVuSans-101"/>
     <use x="1279.638672" xlink:href="#DejaVuSans-109"/>
     <use x="1377.050781" xlink:href="#DejaVuSans-101"/>
     <use x="1438.574219" xlink:href="#DejaVuSans-110"/>
     <use x="1501.953125" xlink:href="#DejaVuSans-116"/>
     <use x="1541.162109" xlink:href="#DejaVuSans-97"/>
     <use x="1602.441406" xlink:href="#DejaVuSans-116"/>
     <use x="1641.650391" xlink:href="#DejaVuSans-105"/>
     <use x="1669.433594" xlink:href="#DejaVuSans-111"/>
     <use x="1730.615234" xlink:href="#DejaVuSans-110"/>
     <use x="1793.994141" xlink:href="#DejaVuSans-115"/>
     <use x="1846.09375" xlink:href="#DejaVuSans-32"/>
     <use x="1877.880859" xlink:href="#DejaVuSans-118"/>
     <use x="1937.060547" xlink:href="#DejaVuSans-115"/>
     <use x="1989.160156" xlink:href="#DejaVuSans-32"/>
     <use x="2020.947266" xlink:href="#DejaVuSans-69"/>
     <use x="2084.130859" xlink:href="#DejaVuSans-120"/>
     <use x="2143.310547" xlink:href="#DejaVuSans-112"/>
     <use x="2206.787109" xlink:href="#DejaVuSans-108"/>
     <use x="2234.570312" xlink:href="#DejaVuSans-105"/>
     <use x="2262.353516" xlink:href="#DejaVuSans-99"/>
     <use x="2317.333984" xlink:href="#DejaVuSans-105"/>
     <use x="2345.117188" xlink:href="#DejaVuSans-116"/>
     <use x="2384.326172" xlink:href="#DejaVuSans-32"/>
     <use x="2416.113281" xlink:href="#DejaVuSans-73"/>
     <use x="2445.605469" xlink:href="#DejaVuSans-109"/>
     <use x="2543.017578" xlink:href="#DejaVuSans-112"/>
     <use x="2606.494141" xlink:href="#DejaVuSans-108"/>
     <use x="2634.277344" xlink:href="#DejaVuSans-101"/>
     <use x="2695.800781" xlink:href="#DejaVuSans-109"/>
     <use x="2793.212891" xlink:href="#DejaVuSans-101"/>
     <use x="2854.736328" xlink:href="#DejaVuSans-110"/>
     <use x="2918.115234" xlink:href="#DejaVuSans-116"/>
     <use x="2957.324219" xlink:href="#DejaVuSans-97"/>
     <use x="3018.603516" xlink:href="#DejaVuSans-116"/>
     <use x="3057.8125" xlink:href="#DejaVuSans-105"/>
     <use x="3085.595703" xlink:href="#DejaVuSans-111"/>
     <use x="3146.777344" xlink:href="#DejaVuSans-110"/>
    </g>
   </g>
   <g id="legend_1">
    <g id="patch_7">
     <path d="M 74.560625 178.906875 
L 378.213125 178.906875 
Q 380.613125 178.906875 380.613125 176.506875 
L 380.613125 36.796875 
Q 380.613125 34.396875 378.213125 34.396875 
L 74.560625 34.396875 
Q 72.160625 34.396875 72.160625 36.796875 
L 72.160625 176.506875 
Q 72.160625 178.906875 74.560625 178.906875 
z
" style="fill:#ffffff;opacity:0.8;stroke:#cccccc;stroke-linejoin:miter;"/>
    </g>
    <g id="line2d_32">
     <path d="M 76.960625 44.115 
L 100.960625 44.115 
" style="fill:none;stroke:#55868c;stroke-linecap:square;stroke-width:1.5;"/>
    </g>
    <g id="line2d_33">
     <g>
      <use style="fill:#55868c;stroke:#55868c;" x="88.960625" xlink:href="#m0ee69d49bf" y="44.115"/>
     </g>
    </g>
    <g id="text_20">
     <!-- separableConvolve2D (Channel First) -->
     <defs>
      <path d="M 19.671875 64.796875 
L 19.671875 8.109375 
L 31.59375 8.109375 
Q 46.6875 8.109375 53.6875 14.9375 
Q 60.6875 21.78125 60.6875 36.53125 
Q 60.6875 51.171875 53.6875 57.984375 
Q 46.6875 64.796875 31.59375 64.796875 
z
M 9.8125 72.90625 
L 30.078125 72.90625 
Q 51.265625 72.90625 61.171875 64.09375 
Q 71.09375 55.28125 71.09375 36.53125 
Q 71.09375 17.671875 61.125 8.828125 
Q 51.171875 0 30.078125 0 
L 9.8125 0 
z
" id="DejaVuSans-68"/>
      <path d="M 54.890625 33.015625 
L 54.890625 0 
L 45.90625 0 
L 45.90625 32.71875 
Q 45.90625 40.484375 42.875 44.328125 
Q 39.84375 48.1875 33.796875 48.1875 
Q 26.515625 48.1875 22.3125 43.546875 
Q 18.109375 38.921875 18.109375 30.90625 
L 18.109375 0 
L 9.078125 0 
L 9.078125 75.984375 
L 18.109375 75.984375 
L 18.109375 46.1875 
Q 21.34375 51.125 25.703125 53.5625 
Q 30.078125 56 35.796875 56 
Q 45.21875 56 50.046875 50.171875 
Q 54.890625 44.34375 54.890625 33.015625 
z
" id="DejaVuSans-104"/>
      <path d="M 9.8125 72.90625 
L 51.703125 72.90625 
L 51.703125 64.59375 
L 19.671875 64.59375 
L 19.671875 43.109375 
L 48.578125 43.109375 
L 48.578125 34.8125 
L 19.671875 34.8125 
L 19.671875 0 
L 9.8125 0 
z
" id="DejaVuSans-70"/>
     </defs>
     <g transform="translate(110.560625 48.315)scale(0.12 -0.12)">
      <use xlink:href="#DejaVuSans-115"/>
      <use x="52.099609" xlink:href="#DejaVuSans-101"/>
      <use x="113.623047" xlink:href="#DejaVuSans-112"/>
      <use x="177.099609" xlink:href="#DejaVuSans-97"/>
      <use x="238.378906" xlink:href="#DejaVuSans-114"/>
      <use x="279.492188" xlink:href="#DejaVuSans-97"/>
      <use x="340.771484" xlink:href="#DejaVuSans-98"/>
      <use x="404.248047" xlink:href="#DejaVuSans-108"/>
      <use x="432.03125" xlink:href="#DejaVuSans-101"/>
      <use x="493.554688" xlink:href="#DejaVuSans-67"/>
      <use x="563.378906" xlink:href="#DejaVuSans-111"/>
      <use x="624.560547" xlink:href="#DejaVuSans-110"/>
      <use x="687.939453" xlink:href="#DejaVuSans-118"/>
      <use x="747.119141" xlink:href="#DejaVuSans-111"/>
      <use x="808.300781" xlink:href="#DejaVuSans-108"/>
      <use x="836.083984" xlink:href="#DejaVuSans-118"/>
      <use x="895.263672" xlink:href="#DejaVuSans-101"/>
      <use x="956.787109" xlink:href="#DejaVuSans-50"/>
      <use x="1020.410156" xlink:href="#DejaVuSans-68"/>
      <use x="1097.412109" xlink:href="#DejaVuSans-32"/>
      <use x="1129.199219" xlink:href="#DejaVuSans-40"/>
      <use x="1168.212891" xlink:href="#DejaVuSans-67"/>
      <use x="1238.037109" xlink:href="#DejaVuSans-104"/>
      <use x="1301.416016" xlink:href="#DejaVuSans-97"/>
      <use x="1362.695312" xlink:href="#DejaVuSans-110"/>
      <use x="1426.074219" xlink:href="#DejaVuSans-110"/>
      <use x="1489.453125" xlink:href="#DejaVuSans-101"/>
      <use x="1550.976562" xlink:href="#DejaVuSans-108"/>
      <use x="1578.759766" xlink:href="#DejaVuSans-32"/>
      <use x="1610.546875" xlink:href="#DejaVuSans-70"/>
      <use x="1667.957031" xlink:href="#DejaVuSans-105"/>
      <use x="1695.740234" xlink:href="#DejaVuSans-114"/>
      <use x="1736.853516" xlink:href="#DejaVuSans-115"/>
      <use x="1788.953125" xlink:href="#DejaVuSans-116"/>
      <use x="1828.162109" xlink:href="#DejaVuSans-41"/>
     </g>
    </g>
    <g id="line2d_34">
     <path d="M 76.960625 61.72875 
L 100.960625 61.72875 
" style="fill:none;stroke:#55868c;stroke-dasharray:1.5,2.475;stroke-dashoffset:0;stroke-width:1.5;"/>
    </g>
    <g id="line2d_35">
     <g>
      <use style="fill:#55868c;stroke:#55868c;" x="88.960625" xlink:href="#m0ee69d49bf" y="61.72875"/>
     </g>
    </g>
    <g id="text_21">
     <!-- separableConvolve2D (Channel Last) -->
     <defs>
      <path d="M 9.8125 72.90625 
L 19.671875 72.90625 
L 19.671875 8.296875 
L 55.171875 8.296875 
L 55.171875 0 
L 9.8125 0 
z
" id="DejaVuSans-76"/>
     </defs>
     <g transform="translate(110.560625 65.92875)scale(0.12 -0.12)">
      <use xlink:href="#DejaVuSans-115"/>
      <use x="52.099609" xlink:href="#DejaVuSans-101"/>
      <use x="113.623047" xlink:href="#DejaVuSans-112"/>
      <use x="177.099609" xlink:href="#DejaVuSans-97"/>
      <use x="238.378906" xlink:href="#DejaVuSans-114"/>
      <use x="279.492188" xlink:href="#DejaVuSans-97"/>
      <use x="340.771484" xlink:href="#DejaVuSans-98"/>
      <use x="404.248047" xlink:href="#DejaVuSans-108"/>
      <use x="432.03125" xlink:href="#DejaVuSans-101"/>
      <use x="493.554688" xlink:href="#DejaVuSans-67"/>
      <use x="563.378906" xlink:href="#DejaVuSans-111"/>
      <use x="624.560547" xlink:href="#DejaVuSans-110"/>
      <use x="687.939453" xlink:href="#DejaVuSans-118"/>
      <use x="747.119141" xlink:href="#DejaVuSans-111"/>
      <use x="808.300781" xlink:href="#DejaVuSans-108"/>
      <use x="836.083984" xlink:href="#DejaVuSans-118"/>
      <use x="895.263672" xlink:href="#DejaVuSans-101"/>
      <use x="956.787109" xlink:href="#DejaVuSans-50"/>
      <use x="1020.410156" xlink:href="#DejaVuSans-68"/>
      <use x="1097.412109" xlink:href="#DejaVuSans-32"/>
      <use x="1129.199219" xlink:href="#DejaVuSans-40"/>
      <use x="1168.212891" xlink:href="#DejaVuSans-67"/>
      <use x="1238.037109" xlink:href="#DejaVuSans-104"/>
      <use x="1301.416016" xlink:href="#DejaVuSans-97"/>
      <use x="1362.695312" xlink:href="#DejaVuSans-110"/>
      <use x="1426.074219" xlink:href="#DejaVuSans-110"/>
      <use x="1489.453125" xlink:href="#DejaVuSans-101"/>
      <use x="1550.976562" xlink:href="#DejaVuSans-108"/>
      <use x="1578.759766" xlink:href="#DejaVuSans-32"/>
      <use x="1610.546875" xlink:href="#DejaVuSans-76"/>
      <use x="1666.259766" xlink:href="#DejaVuSans-97"/>
      <use x="1727.539062" xlink:href="#DejaVuSans-115"/>
      <use x="1779.638672" xlink:href="#DejaVuSans-116"/>
      <use x="1818.847656" xlink:href="#DejaVuSans-41"/>
     </g>
    </g>
    <g id="line2d_36">
     <path d="M 76.960625 79.3425 
L 100.960625 79.3425 
" style="fill:none;stroke:#eec584;stroke-linecap:square;stroke-width:1.5;"/>
    </g>
    <g id="line2d_37">
     <g>
      <use style="fill:#eec584;stroke:#eec584;" x="88.960625" xlink:href="#mb3cf8c9ca5" y="79.3425"/>
     </g>
    </g>
    <g id="text_22">
     <!-- separableConvolveND [N=2] (Channel First) -->
     <defs>
      <path d="M 9.8125 72.90625 
L 23.09375 72.90625 
L 55.421875 11.921875 
L 55.421875 72.90625 
L 64.984375 72.90625 
L 64.984375 0 
L 51.703125 0 
L 19.390625 60.984375 
L 19.390625 0 
L 9.8125 0 
z
" id="DejaVuSans-78"/>
      <path d="M 8.59375 75.984375 
L 29.296875 75.984375 
L 29.296875 69 
L 17.578125 69 
L 17.578125 -6.203125 
L 29.296875 -6.203125 
L 29.296875 -13.1875 
L 8.59375 -13.1875 
z
" id="DejaVuSans-91"/>
      <path d="M 10.59375 45.40625 
L 73.1875 45.40625 
L 73.1875 37.203125 
L 10.59375 37.203125 
z
M 10.59375 25.484375 
L 73.1875 25.484375 
L 73.1875 17.1875 
L 10.59375 17.1875 
z
" id="DejaVuSans-61"/>
      <path d="M 30.421875 75.984375 
L 30.421875 -13.1875 
L 9.71875 -13.1875 
L 9.71875 -6.203125 
L 21.390625 -6.203125 
L 21.390625 69 
L 9.71875 69 
L 9.71875 75.984375 
z
" id="DejaVuSans-93"/>
     </defs>
     <g transform="translate(110.560625 83.5425)scale(0.12 -0.12)">
      <use xlink:href="#DejaVuSans-115"/>
      <use x="52.099609" xlink:href="#DejaVuSans-101"/>
      <use x="113.623047" xlink:href="#DejaVuSans-112"/>
      <use x="177.099609" xlink:href="#DejaVuSans-97"/>
      <use x="238.378906" xlink:href="#DejaVuSans-114"/>
      <use x="279.492188" xlink:href="#DejaVuSans-97"/>
      <use x="340.771484" xlink:href="#DejaVuSans-98"/>
      <use x="404.248047" xlink:href="#DejaVuSans-108"/>
      <use x="432.03125" xlink:href="#DejaVuSans-101"/>
      <use x="493.554688" xlink:href="#DejaVuSans-67"/>
      <use x="563.378906" xlink:href="#DejaVuSans-111"/>
      <use x="624.560547" xlink:href="#DejaVuSans-110"/>
      <use x="687.939453" xlink:href="#DejaVuSans-118"/>
      <use x="747.119141" xlink:href="#DejaVuSans-111"/>
      <use x="808.300781" xlink:href="#DejaVuSans-108"/>
      <use x="836.083984" xlink:href="#DejaVuSans-118"/>
      <use x="895.263672" xlink:href="#DejaVuSans-101"/>
      <use x="956.787109" xlink:href="#DejaVuSans-78"/>
      <use x="1031.591797" xlink:href="#DejaVuSans-68"/>
      <use x="1108.59375" xlink:href="#DejaVuSans-32"/>
      <use x="1140.380859" xlink:href="#DejaVuSans-91"/>
      <use x="1179.394531" xlink:href="#DejaVuSans-78"/>
      <use x="1254.199219" xlink:href="#DejaVuSans-61"/>
      <use x="1337.988281" xlink:href="#DejaVuSans-50"/>
      <use x="1401.611328" xlink:href="#DejaVuSans-93"/>
      <use x="1440.625" xlink:href="#DejaVuSans-32"/>
      <use x="1472.412109" xlink:href="#DejaVuSans-40"/>
      <use x="1511.425781" xlink:href="#DejaVuSans-67"/>
      <use x="1581.25" xlink:href="#DejaVuSans-104"/>
      <use x="1644.628906" xlink:href="#DejaVuSans-97"/>
      <use x="1705.908203" xlink:href="#DejaVuSans-110"/>
      <use x="1769.287109" xlink:href="#DejaVuSans-110"/>
      <use x="1832.666016" xlink:href="#DejaVuSans-101"/>
      <use x="1894.189453" xlink:href="#DejaVuSans-108"/>
      <use x="1921.972656" xlink:href="#DejaVuSans-32"/>
      <use x="1953.759766" xlink:href="#DejaVuSans-70"/>
      <use x="2011.169922" xlink:href="#DejaVuSans-105"/>
      <use x="2038.953125" xlink:href="#DejaVuSans-114"/>
      <use x="2080.066406" xlink:href="#DejaVuSans-115"/>
      <use x="2132.166016" xlink:href="#DejaVuSans-116"/>
      <use x="2171.375" xlink:href="#DejaVuSans-41"/>
     </g>
    </g>
    <g id="line2d_38">
     <path d="M 76.960625 96.95625 
L 100.960625 96.95625 
" style="fill:none;stroke:#eec584;stroke-dasharray:1.5,2.475;stroke-dashoffset:0;stroke-width:1.5;"/>
    </g>
    <g id="line2d_39">
     <g>
      <use style="fill:#eec584;stroke:#eec584;" x="88.960625" xlink:href="#mb3cf8c9ca5" y="96.95625"/>
     </g>
    </g>
    <g id="text_23">
     <!-- separableConvolveND [N=2] (Channel Last) -->
     <g transform="translate(110.560625 101.15625)scale(0.12 -0.12)">
      <use xlink:href="#DejaVuSans-115"/>
      <use x="52.099609" xlink:href="#DejaVuSans-101"/>
      <use x="113.623047" xlink:href="#DejaVuSans-112"/>
      <use x="177.099609" xlink:href="#DejaVuSans-97"/>
      <use x="238.378906" xlink:href="#DejaVuSans-114"/>
      <use x="279.492188" xlink:href="#DejaVuSans-97"/>
      <use x="340.771484" xlink:href="#DejaVuSans-98"/>
      <use x="404.248047" xlink:href="#DejaVuSans-108"/>
      <use x="432.03125" xlink:href="#DejaVuSans-101"/>
      <use x="493.554688" xlink:href="#DejaVuSans-67"/>
      <use x="563.378906" xlink:href="#DejaVuSans-111"/>
      <use x="624.560547" xlink:href="#DejaVuSans-110"/>
      <use x="687.939453" xlink:href="#DejaVuSans-118"/>
      <use x="747.119141" xlink:href="#DejaVuSans-111"/>
      <use x="808.300781" xlink:href="#DejaVuSans-108"/>
      <use x="836.083984" xlink:href="#DejaVuSans-118"/>
      <use x="895.263672" xlink:href="#DejaVuSans-101"/>
      <use x="956.787109" xlink:href="#DejaVuSans-78"/>
      <use x="1031.591797" xlink:href="#DejaVuSans-68"/>
      <use x="1108.59375" xlink:href="#DejaVuSans-32"/>
      <use x="1140.380859" xlink:href="#DejaVuSans-91"/>
      <use x="1179.394531" xlink:href="#DejaVuSans-78"/>
      <use x="1254.199219" xlink:href="#DejaVuSans-61"/>
      <use x="1337.988281" xlink:href="#DejaVuSans-50"/>
      <use x="1401.611328" xlink:href="#DejaVuSans-93"/>
      <use x="1440.625" xlink:href="#DejaVuSans-32"/>
      <use x="1472.412109" xlink:href="#DejaVuSans-40"/>
      <use x="1511.425781" xlink:href="#DejaVuSans-67"/>
      <use x="1581.25" xlink:href="#DejaVuSans-104"/>
      <use x="1644.628906" xlink:href="#DejaVuSans-97"/>
      <use x="1705.908203" xlink:href="#DejaVuSans-110"/>
      <use x="1769.287109" xlink:href="#DejaVuSans-110"/>
      <use x="1832.666016" xlink:href="#DejaVuSans-101"/>
      <use x="1894.189453" xlink:href="#DejaVuSans-108"/>
      <use x="1921.972656" xlink:href="#DejaVuSans-32"/>
      <use x="1953.759766" xlink:href="#DejaVuSans-76"/>
      <use x="2009.472656" xlink:href="#DejaVuSans-97"/>
      <use x="2070.751953" xlink:href="#DejaVuSans-115"/>
      <use x="2122.851562" xlink:href="#DejaVuSans-116"/>
      <use x="2162.060547" xlink:href="#DejaVuSans-41"/>
     </g>
    </g>
    <g id="line2d_40">
     <path d="M 76.960625 114.57 
L 100.960625 114.57 
" style="fill:none;stroke:#9900ff;stroke-linecap:square;stroke-width:1.5;"/>
    </g>
    <g id="line2d_41">
     <g>
      <use style="fill:#9900ff;stroke:#9900ff;" x="88.960625" xlink:href="#m309c2bb446" y="114.57"/>
     </g>
    </g>
    <g id="text_24">
     <!-- separableConvolve [N=2] (Channel First) -->
     <g transform="translate(110.560625 118.77)scale(0.12 -0.12)">
      <use xlink:href="#DejaVuSans-115"/>
      <use x="52.099609" xlink:href="#DejaVuSans-101"/>
      <use x="113.623047" xlink:href="#DejaVuSans-112"/>
      <use x="177.099609" xlink:href="#DejaVuSans-97"/>
      <use x="238.378906" xlink:href="#DejaVuSans-114"/>
      <use x="279.492188" xlink:href="#DejaVuSans-97"/>
      <use x="340.771484" xlink:href="#DejaVuSans-98"/>
      <use x="404.248047" xlink:href="#DejaVuSans-108"/>
      <use x="432.03125" xlink:href="#DejaVuSans-101"/>
      <use x="493.554688" xlink:href="#DejaVuSans-67"/>
      <use x="563.378906" xlink:href="#DejaVuSans-111"/>
      <use x="624.560547" xlink:href="#DejaVuSans-110"/>
      <use x="687.939453" xlink:href="#DejaVuSans-118"/>
      <use x="747.119141" xlink:href="#DejaVuSans-111"/>
      <use x="808.300781" xlink:href="#DejaVuSans-108"/>
      <use x="836.083984" xlink:href="#DejaVuSans-118"/>
      <use x="895.263672" xlink:href="#DejaVuSans-101"/>
      <use x="956.787109" xlink:href="#DejaVuSans-32"/>
      <use x="988.574219" xlink:href="#DejaVuSans-91"/>
      <use x="1027.587891" xlink:href="#DejaVuSans-78"/>
      <use x="1102.392578" xlink:href="#DejaVuSans-61"/>
      <use x="1186.181641" xlink:href="#DejaVuSans-50"/>
      <use x="1249.804688" xlink:href="#DejaVuSans-93"/>
      <use x="1288.818359" xlink:href="#DejaVuSans-32"/>
      <use x="1320.605469" xlink:href="#DejaVuSans-40"/>
      <use x="1359.619141" xlink:href="#DejaVuSans-67"/>
      <use x="1429.443359" xlink:href="#DejaVuSans-104"/>
      <use x="1492.822266" xlink:href="#DejaVuSans-97"/>
      <use x="1554.101562" xlink:href="#DejaVuSans-110"/>
      <use x="1617.480469" xlink:href="#DejaVuSans-110"/>
      <use x="1680.859375" xlink:href="#DejaVuSans-101"/>
      <use x="1742.382812" xlink:href="#DejaVuSans-108"/>
      <use x="1770.166016" xlink:href="#DejaVuSans-32"/>
      <use x="1801.953125" xlink:href="#DejaVuSans-70"/>
      <use x="1859.363281" xlink:href="#DejaVuSans-105"/>
      <use x="1887.146484" xlink:href="#DejaVuSans-114"/>
      <use x="1928.259766" xlink:href="#DejaVuSans-115"/>
      <use x="1980.359375" xlink:href="#DejaVuSans-116"/>
      <use x="2019.568359" xlink:href="#DejaVuSans-41"/>
     </g>
    </g>
    <g id="line2d_42">
     <path d="M 76.960625 132.18375 
L 100.960625 132.18375 
" style="fill:none;stroke:#9900ff;stroke-dasharray:1.5,2.475;stroke-dashoffset:0;stroke-width:1.5;"/>
    </g>
    <g id="line2d_43">
     <g>
      <use style="fill:#9900ff;stroke:#9900ff;" x="88.960625" xlink:href="#m309c2bb446" y="132.18375"/>
     </g>
    </g>
    <g id="text_25">
     <!-- separableConvolve [N=2] (Channel Last) -->
     <g transform="translate(110.560625 136.38375)scale(0.12 -0.12)">
      <use xlink:href="#DejaVuSans-115"/>
      <use x="52.099609" xlink:href="#DejaVuSans-101"/>
      <use x="113.623047" xlink:href="#DejaVuSans-112"/>
      <use x="177.099609" xlink:href="#DejaVuSans-97"/>
      <use x="238.378906" xlink:href="#DejaVuSans-114"/>
      <use x="279.492188" xlink:href="#DejaVuSans-97"/>
      <use x="340.771484" xlink:href="#DejaVuSans-98"/>
      <use x="404.248047" xlink:href="#DejaVuSans-108"/>
      <use x="432.03125" xlink:href="#DejaVuSans-101"/>
      <use x="493.554688" xlink:href="#DejaVuSans-67"/>
      <use x="563.378906" xlink:href="#DejaVuSans-111"/>
      <use x="624.560547" xlink:href="#DejaVuSans-110"/>
      <use x="687.939453" xlink:href="#DejaVuSans-118"/>
      <use x="747.119141" xlink:href="#DejaVuSans-111"/>
      <use x="808.300781" xlink:href="#DejaVuSans-108"/>
      <use x="836.083984" xlink:href="#DejaVuSans-118"/>
      <use x="895.263672" xlink:href="#DejaVuSans-101"/>
      <use x="956.787109" xlink:href="#DejaVuSans-32"/>
      <use x="988.574219" xlink:href="#DejaVuSans-91"/>
      <use x="1027.587891" xlink:href="#DejaVuSans-78"/>
      <use x="1102.392578" xlink:href="#DejaVuSans-61"/>
      <use x="1186.181641" xlink:href="#DejaVuSans-50"/>
      <use x="1249.804688" xlink:href="#DejaVuSans-93"/>
      <use x="1288.818359" xlink:href="#DejaVuSans-32"/>
      <use x="1320.605469" xlink:href="#DejaVuSans-40"/>
      <use x="1359.619141" xlink:href="#DejaVuSans-67"/>
      <use x="1429.443359" xlink:href="#DejaVuSans-104"/>
      <use x="1492.822266" xlink:href="#DejaVuSans-97"/>
      <use x="1554.101562" xlink:href="#DejaVuSans-110"/>
      <use x="1617.480469" xlink:href="#DejaVuSans-110"/>
      <use x="1680.859375" xlink:href="#DejaVuSans-101"/>
      <use x="1742.382812" xlink:href="#DejaVuSans-108"/>
      <use x="1770.166016" xlink:href="#DejaVuSans-32"/>
      <use x="1801.953125" xlink:href="#DejaVuSans-76"/>
      <use x="1857.666016" xlink:href="#DejaVuSans-97"/>
      <use x="1918.945312" xlink:href="#DejaVuSans-115"/>
      <use x="1971.044922" xlink:href="#DejaVuSans-116"/>
      <use x="2010.253906" xlink:href="#DejaVuSans-41"/>
     </g>
    </g>
    <g id="line2d_44">
     <path d="M 76.960625 149.7975 
L 100.960625 149.7975 
" style="fill:none;stroke:#ce4257;stroke-linecap:square;stroke-width:1.5;"/>
    </g>
    <g id="line2d_45">
     <g>
      <use style="fill:#ce4257;stroke:#ce4257;" x="88.960625" xlink:href="#m3e34dd08b9" y="149.7975"/>
     </g>
    </g>
    <g id="text_26">
     <!-- convolve2D (Channel First) -->
     <g transform="translate(110.560625 153.9975)scale(0.12 -0.12)">
      <use xlink:href="#DejaVuSans-99"/>
      <use x="54.980469" xlink:href="#DejaVuSans-111"/>
      <use x="116.162109" xlink:href="#DejaVuSans-110"/>
      <use x="179.541016" xlink:href="#DejaVuSans-118"/>
      <use x="238.720703" xlink:href="#DejaVuSans-111"/>
      <use x="299.902344" xlink:href="#DejaVuSans-108"/>
      <use x="327.685547" xlink:href="#DejaVuSans-118"/>
      <use x="386.865234" xlink:href="#DejaVuSans-101"/>
      <use x="448.388672" xlink:href="#DejaVuSans-50"/>
      <use x="512.011719" xlink:href="#DejaVuSans-68"/>
      <use x="589.013672" xlink:href="#DejaVuSans-32"/>
      <use x="620.800781" xlink:href="#DejaVuSans-40"/>
      <use x="659.814453" xlink:href="#DejaVuSans-67"/>
      <use x="729.638672" xlink:href="#DejaVuSans-104"/>
      <use x="793.017578" xlink:href="#DejaVuSans-97"/>
      <use x="854.296875" xlink:href="#DejaVuSans-110"/>
      <use x="917.675781" xlink:href="#DejaVuSans-110"/>
      <use x="981.054688" xlink:href="#DejaVuSans-101"/>
      <use x="1042.578125" xlink:href="#DejaVuSans-108"/>
      <use x="1070.361328" xlink:href="#DejaVuSans-32"/>
      <use x="1102.148438" xlink:href="#DejaVuSans-70"/>
      <use x="1159.558594" xlink:href="#DejaVuSans-105"/>
      <use x="1187.341797" xlink:href="#DejaVuSans-114"/>
      <use x="1228.455078" xlink:href="#DejaVuSans-115"/>
      <use x="1280.554688" xlink:href="#DejaVuSans-116"/>
      <use x="1319.763672" xlink:href="#DejaVuSans-41"/>
     </g>
    </g>
    <g id="line2d_46">
     <path d="M 76.960625 167.41125 
L 100.960625 167.41125 
" style="fill:none;stroke:#ce4257;stroke-dasharray:1.5,2.475;stroke-dashoffset:0;stroke-width:1.5;"/>
    </g>
    <g id="line2d_47">
     <g>
      <use style="fill:#ce4257;stroke:#ce4257;" x="88.960625" xlink:href="#m3e34dd08b9" y="167.41125"/>
     </g>
    </g>
    <g id="text_27">
     <!-- convolve2D (Channel Last) -->
     <g transform="translate(110.560625 171.61125)scale(0.12 -0.12)">
      <use xlink:href="#DejaVuSans-99"/>
      <use x="54.980469" xlink:href="#DejaVuSans-111"/>
      <use x="116.162109" xlink:href="#DejaVuSans-110"/>
      <use x="179.541016" xlink:href="#DejaVuSans-118"/>
      <use x="238.720703" xlink:href="#DejaVuSans-111"/>
      <use x="299.902344" xlink:href="#DejaVuSans-108"/>
      <use x="327.685547" xlink:href="#DejaVuSans-118"/>
      <use x="386.865234" xlink:href="#DejaVuSans-101"/>
      <use x="448.388672" xlink:href="#DejaVuSans-50"/>
      <use x="512.011719" xlink:href="#DejaVuSans-68"/>
      <use x="589.013672" xlink:href="#DejaVuSans-32"/>
      <use x="620.800781" xlink:href="#DejaVuSans-40"/>
      <use x="659.814453" xlink:href="#DejaVuSans-67"/>
      <use x="729.638672" xlink:href="#DejaVuSans-104"/>
      <use x="793.017578" xlink:href="#DejaVuSans-97"/>
      <use x="854.296875" xlink:href="#DejaVuSans-110"/>
      <use x="917.675781" xlink:href="#DejaVuSans-110"/>
      <use x="981.054688" xlink:href="#DejaVuSans-101"/>
      <use x="1042.578125" xlink:href="#DejaVuSans-108"/>
      <use x="1070.361328" xlink:href="#DejaVuSans-32"/>
      <use x="1102.148438" xlink:href="#DejaVuSans-76"/>
      <use x="1157.861328" xlink:href="#DejaVuSans-97"/>
      <use x="1219.140625" xlink:href="#DejaVuSans-115"/>
      <use x="1271.240234" xlink:href="#DejaVuSans-116"/>
      <use x="1310.449219" xlink:href="#DejaVuSans-41"/>
     </g>
    </g>
   </g>
  </g>
 </g>
 <defs>
  <clipPath id="p58d519ac1b">
   <rect height="498.96" width="1339.2" x="66.160625" y="28.396875"/>
  </clipPath>
 </defs>
</svg>
