<?xml version="1.0" encoding="utf-8" standalone="no"?>
<!DOCTYPE svg PUBLIC "-//W3C//DTD SVG 1.1//EN"
  "http://www.w3.org/Graphics/SVG/1.1/DTD/svg11.dtd">
<!-- Created with matplotlib (https://matplotlib.org/) -->
<svg height="574.59125pt" version="1.1" viewBox="0 0 1402.380625 574.59125" width="1402.380625pt" xmlns="http://www.w3.org/2000/svg" xmlns:xlink="http://www.w3.org/1999/xlink">
 <defs>
  <style type="text/css">
*{stroke-linecap:butt;stroke-linejoin:round;}
  </style>
 </defs>
 <g id="figure_1">
  <g id="patch_1">
   <path d="M 0 574.59125 
L 1402.380625 574.59125 
L 1402.380625 0 
L 0 0 
z
" style="fill:#ffffff;"/>
  </g>
  <g id="axes_1">
   <g id="patch_2">
    <path d="M 55.980625 527.356875 
L 1395.180625 527.356875 
L 1395.180625 28.396875 
L 55.980625 28.396875 
z
" style="fill:#ffffff;"/>
   </g>
   <g id="matplotlib.axis_1">
    <g id="xtick_1">
     <g id="line2d_1">
      <defs>
       <path d="M 0 0 
L 0 3.5 
" id="mb1b6723b62" style="stroke:#000000;stroke-width:0.8;"/>
      </defs>
      <g>
       <use style="stroke:#000000;stroke-width:0.8;" x="85.636569" xlink:href="#mb1b6723b62" y="527.356875"/>
      </g>
     </g>
     <g id="text_1">
      <!-- 0 -->
      <defs>
       <path d="M 31.78125 66.40625 
Q 24.171875 66.40625 20.328125 58.90625 
Q 16.5 51.421875 16.5 36.375 
Q 16.5 21.390625 20.328125 13.890625 
Q 24.171875 6.390625 31.78125 6.390625 
Q 39.453125 6.390625 43.28125 13.890625 
Q 47.125 21.390625 47.125 36.375 
Q 47.125 51.421875 43.28125 58.90625 
Q 39.453125 66.40625 31.78125 66.40625 
z
M 31.78125 74.21875 
Q 44.046875 74.21875 50.515625 64.515625 
Q 56.984375 54.828125 56.984375 36.375 
Q 56.984375 17.96875 50.515625 8.265625 
Q 44.046875 -1.421875 31.78125 -1.421875 
Q 19.53125 -1.421875 13.0625 8.265625 
Q 6.59375 17.96875 6.59375 36.375 
Q 6.59375 54.828125 13.0625 64.515625 
Q 19.53125 74.21875 31.78125 74.21875 
z
" id="DejaVuSans-48"/>
      </defs>
      <g transform="translate(81.819069 543.475)scale(0.12 -0.12)">
       <use xlink:href="#DejaVuSans-48"/>
      </g>
     </g>
    </g>
    <g id="xtick_2">
     <g id="line2d_2">
      <g>
       <use style="stroke:#000000;stroke-width:0.8;" x="241.720485" xlink:href="#mb1b6723b62" y="527.356875"/>
      </g>
     </g>
     <g id="text_2">
      <!-- 250 -->
      <defs>
       <path d="M 19.1875 8.296875 
L 53.609375 8.296875 
L 53.609375 0 
L 7.328125 0 
L 7.328125 8.296875 
Q 12.9375 14.109375 22.625 23.890625 
Q 32.328125 33.6875 34.8125 36.53125 
Q 39.546875 41.84375 41.421875 45.53125 
Q 43.3125 49.21875 43.3125 52.78125 
Q 43.3125 58.59375 39.234375 62.25 
Q 35.15625 65.921875 28.609375 65.921875 
Q 23.96875 65.921875 18.8125 64.3125 
Q 13.671875 62.703125 7.8125 59.421875 
L 7.8125 69.390625 
Q 13.765625 71.78125 18.9375 73 
Q 24.125 74.21875 28.421875 74.21875 
Q 39.75 74.21875 46.484375 68.546875 
Q 53.21875 62.890625 53.21875 53.421875 
Q 53.21875 48.921875 51.53125 44.890625 
Q 49.859375 40.875 45.40625 35.40625 
Q 44.1875 33.984375 37.640625 27.21875 
Q 31.109375 20.453125 19.1875 8.296875 
z
" id="DejaVuSans-50"/>
       <path d="M 10.796875 72.90625 
L 49.515625 72.90625 
L 49.515625 64.59375 
L 19.828125 64.59375 
L 19.828125 46.734375 
Q 21.96875 47.46875 24.109375 47.828125 
Q 26.265625 48.1875 28.421875 48.1875 
Q 40.625 48.1875 47.75 41.5 
Q 54.890625 34.8125 54.890625 23.390625 
Q 54.890625 11.625 47.5625 5.09375 
Q 40.234375 -1.421875 26.90625 -1.421875 
Q 22.3125 -1.421875 17.546875 -0.640625 
Q 12.796875 0.140625 7.71875 1.703125 
L 7.71875 11.625 
Q 12.109375 9.234375 16.796875 8.0625 
Q 21.484375 6.890625 26.703125 6.890625 
Q 35.15625 6.890625 40.078125 11.328125 
Q 45.015625 15.765625 45.015625 23.390625 
Q 45.015625 31 40.078125 35.4375 
Q 35.15625 39.890625 26.703125 39.890625 
Q 22.75 39.890625 18.8125 39.015625 
Q 14.890625 38.140625 10.796875 36.28125 
z
" id="DejaVuSans-53"/>
      </defs>
      <g transform="translate(230.267985 543.475)scale(0.12 -0.12)">
       <use xlink:href="#DejaVuSans-50"/>
       <use x="63.623047" xlink:href="#DejaVuSans-53"/>
       <use x="127.246094" xlink:href="#DejaVuSans-48"/>
      </g>
     </g>
    </g>
    <g id="xtick_3">
     <g id="line2d_3">
      <g>
       <use style="stroke:#000000;stroke-width:0.8;" x="397.804401" xlink:href="#mb1b6723b62" y="527.356875"/>
      </g>
     </g>
     <g id="text_3">
      <!-- 500 -->
      <g transform="translate(386.351901 543.475)scale(0.12 -0.12)">
       <use xlink:href="#DejaVuSans-53"/>
       <use x="63.623047" xlink:href="#DejaVuSans-48"/>
       <use x="127.246094" xlink:href="#DejaVuSans-48"/>
      </g>
     </g>
    </g>
    <g id="xtick_4">
     <g id="line2d_4">
      <g>
       <use style="stroke:#000000;stroke-width:0.8;" x="553.888317" xlink:href="#mb1b6723b62" y="527.356875"/>
      </g>
     </g>
     <g id="text_4">
      <!-- 750 -->
      <defs>
       <path d="M 8.203125 72.90625 
L 55.078125 72.90625 
L 55.078125 68.703125 
L 28.609375 0 
L 18.3125 0 
L 43.21875 64.59375 
L 8.203125 64.59375 
z
" id="DejaVuSans-55"/>
      </defs>
      <g transform="translate(542.435817 543.475)scale(0.12 -0.12)">
       <use xlink:href="#DejaVuSans-55"/>
       <use x="63.623047" xlink:href="#DejaVuSans-53"/>
       <use x="127.246094" xlink:href="#DejaVuSans-48"/>
      </g>
     </g>
    </g>
    <g id="xtick_5">
     <g id="line2d_5">
      <g>
       <use style="stroke:#000000;stroke-width:0.8;" x="709.972233" xlink:href="#mb1b6723b62" y="527.356875"/>
      </g>
     </g>
     <g id="text_5">
      <!-- 1000 -->
      <defs>
       <path d="M 12.40625 8.296875 
L 28.515625 8.296875 
L 28.515625 63.921875 
L 10.984375 60.40625 
L 10.984375 69.390625 
L 28.421875 72.90625 
L 38.28125 72.90625 
L 38.28125 8.296875 
L 54.390625 8.296875 
L 54.390625 0 
L 12.40625 0 
z
" id="DejaVuSans-49"/>
      </defs>
      <g transform="translate(694.702233 543.475)scale(0.12 -0.12)">
       <use xlink:href="#DejaVuSans-49"/>
       <use x="63.623047" xlink:href="#DejaVuSans-48"/>
       <use x="127.246094" xlink:href="#DejaVuSans-48"/>
       <use x="190.869141" xlink:href="#DejaVuSans-48"/>
      </g>
     </g>
    </g>
    <g id="xtick_6">
     <g id="line2d_6">
      <g>
       <use style="stroke:#000000;stroke-width:0.8;" x="866.056149" xlink:href="#mb1b6723b62" y="527.356875"/>
      </g>
     </g>
     <g id="text_6">
      <!-- 1250 -->
      <g transform="translate(850.786149 543.475)scale(0.12 -0.12)">
       <use xlink:href="#DejaVuSans-49"/>
       <use x="63.623047" xlink:href="#DejaVuSans-50"/>
       <use x="127.246094" xlink:href="#DejaVuSans-53"/>
       <use x="190.869141" xlink:href="#DejaVuSans-48"/>
      </g>
     </g>
    </g>
    <g id="xtick_7">
     <g id="line2d_7">
      <g>
       <use style="stroke:#000000;stroke-width:0.8;" x="1022.140066" xlink:href="#mb1b6723b62" y="527.356875"/>
      </g>
     </g>
     <g id="text_7">
      <!-- 1500 -->
      <g transform="translate(1006.870066 543.475)scale(0.12 -0.12)">
       <use xlink:href="#DejaVuSans-49"/>
       <use x="63.623047" xlink:href="#DejaVuSans-53"/>
       <use x="127.246094" xlink:href="#DejaVuSans-48"/>
       <use x="190.869141" xlink:href="#DejaVuSans-48"/>
      </g>
     </g>
    </g>
    <g id="xtick_8">
     <g id="line2d_8">
      <g>
       <use style="stroke:#000000;stroke-width:0.8;" x="1178.223982" xlink:href="#mb1b6723b62" y="527.356875"/>
      </g>
     </g>
     <g id="text_8">
      <!-- 1750 -->
      <g transform="translate(1162.953982 543.475)scale(0.12 -0.12)">
       <use xlink:href="#DejaVuSans-49"/>
       <use x="63.623047" xlink:href="#DejaVuSans-55"/>
       <use x="127.246094" xlink:href="#DejaVuSans-53"/>
       <use x="190.869141" xlink:href="#DejaVuSans-48"/>
      </g>
     </g>
    </g>
    <g id="xtick_9">
     <g id="line2d_9">
      <g>
       <use style="stroke:#000000;stroke-width:0.8;" x="1334.307898" xlink:href="#mb1b6723b62" y="527.356875"/>
      </g>
     </g>
     <g id="text_9">
      <!-- 2000 -->
      <g transform="translate(1319.037898 543.475)scale(0.12 -0.12)">
       <use xlink:href="#DejaVuSans-50"/>
       <use x="63.623047" xlink:href="#DejaVuSans-48"/>
       <use x="127.246094" xlink:href="#DejaVuSans-48"/>
       <use x="190.869141" xlink:href="#DejaVuSans-48"/>
      </g>
     </g>
    </g>
    <g id="text_10">
     <!-- Size S -->
     <defs>
      <path d="M 53.515625 70.515625 
L 53.515625 60.890625 
Q 47.90625 63.578125 42.921875 64.890625 
Q 37.9375 66.21875 33.296875 66.21875 
Q 25.25 66.21875 20.875 63.09375 
Q 16.5 59.96875 16.5 54.203125 
Q 16.5 49.359375 19.40625 46.890625 
Q 22.3125 44.4375 30.421875 42.921875 
L 36.375 41.703125 
Q 47.40625 39.59375 52.65625 34.296875 
Q 57.90625 29 57.90625 20.125 
Q 57.90625 9.515625 50.796875 4.046875 
Q 43.703125 -1.421875 29.984375 -1.421875 
Q 24.8125 -1.421875 18.96875 -0.25 
Q 13.140625 0.921875 6.890625 3.21875 
L 6.890625 13.375 
Q 12.890625 10.015625 18.65625 8.296875 
Q 24.421875 6.59375 29.984375 6.59375 
Q 38.421875 6.59375 43.015625 9.90625 
Q 47.609375 13.234375 47.609375 19.390625 
Q 47.609375 24.75 44.3125 27.78125 
Q 41.015625 30.8125 33.5 32.328125 
L 27.484375 33.5 
Q 16.453125 35.6875 11.515625 40.375 
Q 6.59375 45.0625 6.59375 53.421875 
Q 6.59375 63.09375 13.40625 68.65625 
Q 20.21875 74.21875 32.171875 74.21875 
Q 37.3125 74.21875 42.625 73.28125 
Q 47.953125 72.359375 53.515625 70.515625 
z
" id="DejaVuSans-83"/>
      <path d="M 9.421875 54.6875 
L 18.40625 54.6875 
L 18.40625 0 
L 9.421875 0 
z
M 9.421875 75.984375 
L 18.40625 75.984375 
L 18.40625 64.59375 
L 9.421875 64.59375 
z
" id="DejaVuSans-105"/>
      <path d="M 5.515625 54.6875 
L 48.1875 54.6875 
L 48.1875 46.484375 
L 14.40625 7.171875 
L 48.1875 7.171875 
L 48.1875 0 
L 4.296875 0 
L 4.296875 8.203125 
L 38.09375 47.515625 
L 5.515625 47.515625 
z
" id="DejaVuSans-122"/>
      <path d="M 56.203125 29.59375 
L 56.203125 25.203125 
L 14.890625 25.203125 
Q 15.484375 15.921875 20.484375 11.0625 
Q 25.484375 6.203125 34.421875 6.203125 
Q 39.59375 6.203125 44.453125 7.46875 
Q 49.3125 8.734375 54.109375 11.28125 
L 54.109375 2.78125 
Q 49.265625 0.734375 44.1875 -0.34375 
Q 39.109375 -1.421875 33.890625 -1.421875 
Q 20.796875 -1.421875 13.15625 6.1875 
Q 5.515625 13.8125 5.515625 26.8125 
Q 5.515625 40.234375 12.765625 48.109375 
Q 20.015625 56 32.328125 56 
Q 43.359375 56 49.78125 48.890625 
Q 56.203125 41.796875 56.203125 29.59375 
z
M 47.21875 32.234375 
Q 47.125 39.59375 43.09375 43.984375 
Q 39.0625 48.390625 32.421875 48.390625 
Q 24.90625 48.390625 20.390625 44.140625 
Q 15.875 39.890625 15.1875 32.171875 
z
" id="DejaVuSans-101"/>
      <path id="DejaVuSans-32"/>
     </defs>
     <g transform="translate(698.531406 563.647812)scale(0.18 -0.18)">
      <use xlink:href="#DejaVuSans-83"/>
      <use x="63.476562" xlink:href="#DejaVuSans-105"/>
      <use x="91.259766" xlink:href="#DejaVuSans-122"/>
      <use x="143.75" xlink:href="#DejaVuSans-101"/>
      <use x="205.273438" xlink:href="#DejaVuSans-32"/>
      <use x="237.060547" xlink:href="#DejaVuSans-83"/>
     </g>
    </g>
   </g>
   <g id="matplotlib.axis_2">
    <g id="ytick_1">
     <g id="line2d_10">
      <path clip-path="url(#p38c780b8fc)" d="M 55.980625 525.715648 
L 1395.180625 525.715648 
" style="fill:none;stroke:#b0b0b0;stroke-linecap:square;stroke-width:0.8;"/>
     </g>
     <g id="line2d_11">
      <defs>
       <path d="M 0 0 
L -3.5 0 
" id="ma98869bb2e" style="stroke:#000000;stroke-width:0.8;"/>
      </defs>
      <g>
       <use style="stroke:#000000;stroke-width:0.8;" x="55.980625" xlink:href="#ma98869bb2e" y="525.715648"/>
      </g>
     </g>
     <g id="text_11">
      <!-- 0 -->
      <g transform="translate(38.800625 531.794398)scale(0.16 -0.16)">
       <use xlink:href="#DejaVuSans-48"/>
      </g>
     </g>
    </g>
    <g id="ytick_2">
     <g id="line2d_12">
      <path clip-path="url(#p38c780b8fc)" d="M 55.980625 445.499731 
L 1395.180625 445.499731 
" style="fill:none;stroke:#b0b0b0;stroke-linecap:square;stroke-width:0.8;"/>
     </g>
     <g id="line2d_13">
      <g>
       <use style="stroke:#000000;stroke-width:0.8;" x="55.980625" xlink:href="#ma98869bb2e" y="445.499731"/>
      </g>
     </g>
     <g id="text_12">
      <!-- 10 -->
      <g transform="translate(28.620625 451.578481)scale(0.16 -0.16)">
       <use xlink:href="#DejaVuSans-49"/>
       <use x="63.623047" xlink:href="#DejaVuSans-48"/>
      </g>
     </g>
    </g>
    <g id="ytick_3">
     <g id="line2d_14">
      <path clip-path="url(#p38c780b8fc)" d="M 55.980625 365.283815 
L 1395.180625 365.283815 
" style="fill:none;stroke:#b0b0b0;stroke-linecap:square;stroke-width:0.8;"/>
     </g>
     <g id="line2d_15">
      <g>
       <use style="stroke:#000000;stroke-width:0.8;" x="55.980625" xlink:href="#ma98869bb2e" y="365.283815"/>
      </g>
     </g>
     <g id="text_13">
      <!-- 20 -->
      <g transform="translate(28.620625 371.362565)scale(0.16 -0.16)">
       <use xlink:href="#DejaVuSans-50"/>
       <use x="63.623047" xlink:href="#DejaVuSans-48"/>
      </g>
     </g>
    </g>
    <g id="ytick_4">
     <g id="line2d_16">
      <path clip-path="url(#p38c780b8fc)" d="M 55.980625 285.067898 
L 1395.180625 285.067898 
" style="fill:none;stroke:#b0b0b0;stroke-linecap:square;stroke-width:0.8;"/>
     </g>
     <g id="line2d_17">
      <g>
       <use style="stroke:#000000;stroke-width:0.8;" x="55.980625" xlink:href="#ma98869bb2e" y="285.067898"/>
      </g>
     </g>
     <g id="text_14">
      <!-- 30 -->
      <defs>
       <path d="M 40.578125 39.3125 
Q 47.65625 37.796875 51.625 33 
Q 55.609375 28.21875 55.609375 21.1875 
Q 55.609375 10.40625 48.1875 4.484375 
Q 40.765625 -1.421875 27.09375 -1.421875 
Q 22.515625 -1.421875 17.65625 -0.515625 
Q 12.796875 0.390625 7.625 2.203125 
L 7.625 11.71875 
Q 11.71875 9.328125 16.59375 8.109375 
Q 21.484375 6.890625 26.8125 6.890625 
Q 36.078125 6.890625 40.9375 10.546875 
Q 45.796875 14.203125 45.796875 21.1875 
Q 45.796875 27.640625 41.28125 31.265625 
Q 36.765625 34.90625 28.71875 34.90625 
L 20.21875 34.90625 
L 20.21875 43.015625 
L 29.109375 43.015625 
Q 36.375 43.015625 40.234375 45.921875 
Q 44.09375 48.828125 44.09375 54.296875 
Q 44.09375 59.90625 40.109375 62.90625 
Q 36.140625 65.921875 28.71875 65.921875 
Q 24.65625 65.921875 20.015625 65.03125 
Q 15.375 64.15625 9.8125 62.3125 
L 9.8125 71.09375 
Q 15.4375 72.65625 20.34375 73.4375 
Q 25.25 74.21875 29.59375 74.21875 
Q 40.828125 74.21875 47.359375 69.109375 
Q 53.90625 64.015625 53.90625 55.328125 
Q 53.90625 49.265625 50.4375 45.09375 
Q 46.96875 40.921875 40.578125 39.3125 
z
" id="DejaVuSans-51"/>
      </defs>
      <g transform="translate(28.620625 291.146648)scale(0.16 -0.16)">
       <use xlink:href="#DejaVuSans-51"/>
       <use x="63.623047" xlink:href="#DejaVuSans-48"/>
      </g>
     </g>
    </g>
    <g id="ytick_5">
     <g id="line2d_18">
      <path clip-path="url(#p38c780b8fc)" d="M 55.980625 204.851981 
L 1395.180625 204.851981 
" style="fill:none;stroke:#b0b0b0;stroke-linecap:square;stroke-width:0.8;"/>
     </g>
     <g id="line2d_19">
      <g>
       <use style="stroke:#000000;stroke-width:0.8;" x="55.980625" xlink:href="#ma98869bb2e" y="204.851981"/>
      </g>
     </g>
     <g id="text_15">
      <!-- 40 -->
      <defs>
       <path d="M 37.796875 64.3125 
L 12.890625 25.390625 
L 37.796875 25.390625 
z
M 35.203125 72.90625 
L 47.609375 72.90625 
L 47.609375 25.390625 
L 58.015625 25.390625 
L 58.015625 17.1875 
L 47.609375 17.1875 
L 47.609375 0 
L 37.796875 0 
L 37.796875 17.1875 
L 4.890625 17.1875 
L 4.890625 26.703125 
z
" id="DejaVuSans-52"/>
      </defs>
      <g transform="translate(28.620625 210.930731)scale(0.16 -0.16)">
       <use xlink:href="#DejaVuSans-52"/>
       <use x="63.623047" xlink:href="#DejaVuSans-48"/>
      </g>
     </g>
    </g>
    <g id="ytick_6">
     <g id="line2d_20">
      <path clip-path="url(#p38c780b8fc)" d="M 55.980625 124.636065 
L 1395.180625 124.636065 
" style="fill:none;stroke:#b0b0b0;stroke-linecap:square;stroke-width:0.8;"/>
     </g>
     <g id="line2d_21">
      <g>
       <use style="stroke:#000000;stroke-width:0.8;" x="55.980625" xlink:href="#ma98869bb2e" y="124.636065"/>
      </g>
     </g>
     <g id="text_16">
      <!-- 50 -->
      <g transform="translate(28.620625 130.714815)scale(0.16 -0.16)">
       <use xlink:href="#DejaVuSans-53"/>
       <use x="63.623047" xlink:href="#DejaVuSans-48"/>
      </g>
     </g>
    </g>
    <g id="ytick_7">
     <g id="line2d_22">
      <path clip-path="url(#p38c780b8fc)" d="M 55.980625 44.420148 
L 1395.180625 44.420148 
" style="fill:none;stroke:#b0b0b0;stroke-linecap:square;stroke-width:0.8;"/>
     </g>
     <g id="line2d_23">
      <g>
       <use style="stroke:#000000;stroke-width:0.8;" x="55.980625" xlink:href="#ma98869bb2e" y="44.420148"/>
      </g>
     </g>
     <g id="text_17">
      <!-- 60 -->
      <defs>
       <path d="M 33.015625 40.375 
Q 26.375 40.375 22.484375 35.828125 
Q 18.609375 31.296875 18.609375 23.390625 
Q 18.609375 15.53125 22.484375 10.953125 
Q 26.375 6.390625 33.015625 6.390625 
Q 39.65625 6.390625 43.53125 10.953125 
Q 47.40625 15.53125 47.40625 23.390625 
Q 47.40625 31.296875 43.53125 35.828125 
Q 39.65625 40.375 33.015625 40.375 
z
M 52.59375 71.296875 
L 52.59375 62.3125 
Q 48.875 64.0625 45.09375 64.984375 
Q 41.3125 65.921875 37.59375 65.921875 
Q 27.828125 65.921875 22.671875 59.328125 
Q 17.53125 52.734375 16.796875 39.40625 
Q 19.671875 43.65625 24.015625 45.921875 
Q 28.375 48.1875 33.59375 48.1875 
Q 44.578125 48.1875 50.953125 41.515625 
Q 57.328125 34.859375 57.328125 23.390625 
Q 57.328125 12.15625 50.6875 5.359375 
Q 44.046875 -1.421875 33.015625 -1.421875 
Q 20.359375 -1.421875 13.671875 8.265625 
Q 6.984375 17.96875 6.984375 36.375 
Q 6.984375 53.65625 15.1875 63.9375 
Q 23.390625 74.21875 37.203125 74.21875 
Q 40.921875 74.21875 44.703125 73.484375 
Q 48.484375 72.75 52.59375 71.296875 
z
" id="DejaVuSans-54"/>
      </defs>
      <g transform="translate(28.620625 50.498898)scale(0.16 -0.16)">
       <use xlink:href="#DejaVuSans-54"/>
       <use x="63.623047" xlink:href="#DejaVuSans-48"/>
      </g>
     </g>
    </g>
    <g id="text_18">
     <!-- Minimum Time (µs) -->
     <defs>
      <path d="M 9.8125 72.90625 
L 24.515625 72.90625 
L 43.109375 23.296875 
L 61.8125 72.90625 
L 76.515625 72.90625 
L 76.515625 0 
L 66.890625 0 
L 66.890625 64.015625 
L 48.09375 14.015625 
L 38.1875 14.015625 
L 19.390625 64.015625 
L 19.390625 0 
L 9.8125 0 
z
" id="DejaVuSans-77"/>
      <path d="M 54.890625 33.015625 
L 54.890625 0 
L 45.90625 0 
L 45.90625 32.71875 
Q 45.90625 40.484375 42.875 44.328125 
Q 39.84375 48.1875 33.796875 48.1875 
Q 26.515625 48.1875 22.3125 43.546875 
Q 18.109375 38.921875 18.109375 30.90625 
L 18.109375 0 
L 9.078125 0 
L 9.078125 54.6875 
L 18.109375 54.6875 
L 18.109375 46.1875 
Q 21.34375 51.125 25.703125 53.5625 
Q 30.078125 56 35.796875 56 
Q 45.21875 56 50.046875 50.171875 
Q 54.890625 44.34375 54.890625 33.015625 
z
" id="DejaVuSans-110"/>
      <path d="M 52 44.1875 
Q 55.375 50.25 60.0625 53.125 
Q 64.75 56 71.09375 56 
Q 79.640625 56 84.28125 50.015625 
Q 88.921875 44.046875 88.921875 33.015625 
L 88.921875 0 
L 79.890625 0 
L 79.890625 32.71875 
Q 79.890625 40.578125 77.09375 44.375 
Q 74.3125 48.1875 68.609375 48.1875 
Q 61.625 48.1875 57.5625 43.546875 
Q 53.515625 38.921875 53.515625 30.90625 
L 53.515625 0 
L 44.484375 0 
L 44.484375 32.71875 
Q 44.484375 40.625 41.703125 44.40625 
Q 38.921875 48.1875 33.109375 48.1875 
Q 26.21875 48.1875 22.15625 43.53125 
Q 18.109375 38.875 18.109375 30.90625 
L 18.109375 0 
L 9.078125 0 
L 9.078125 54.6875 
L 18.109375 54.6875 
L 18.109375 46.1875 
Q 21.1875 51.21875 25.484375 53.609375 
Q 29.78125 56 35.6875 56 
Q 41.65625 56 45.828125 52.96875 
Q 50 49.953125 52 44.1875 
z
" id="DejaVuSans-109"/>
      <path d="M 8.5 21.578125 
L 8.5 54.6875 
L 17.484375 54.6875 
L 17.484375 21.921875 
Q 17.484375 14.15625 20.5 10.265625 
Q 23.53125 6.390625 29.59375 6.390625 
Q 36.859375 6.390625 41.078125 11.03125 
Q 45.3125 15.671875 45.3125 23.6875 
L 45.3125 54.6875 
L 54.296875 54.6875 
L 54.296875 0 
L 45.3125 0 
L 45.3125 8.40625 
Q 42.046875 3.421875 37.71875 1 
Q 33.40625 -1.421875 27.6875 -1.421875 
Q 18.265625 -1.421875 13.375 4.4375 
Q 8.5 10.296875 8.5 21.578125 
z
M 31.109375 56 
z
" id="DejaVuSans-117"/>
      <path d="M -0.296875 72.90625 
L 61.375 72.90625 
L 61.375 64.59375 
L 35.5 64.59375 
L 35.5 0 
L 25.59375 0 
L 25.59375 64.59375 
L -0.296875 64.59375 
z
" id="DejaVuSans-84"/>
      <path d="M 31 75.875 
Q 24.46875 64.65625 21.28125 53.65625 
Q 18.109375 42.671875 18.109375 31.390625 
Q 18.109375 20.125 21.3125 9.0625 
Q 24.515625 -2 31 -13.1875 
L 23.1875 -13.1875 
Q 15.875 -1.703125 12.234375 9.375 
Q 8.59375 20.453125 8.59375 31.390625 
Q 8.59375 42.28125 12.203125 53.3125 
Q 15.828125 64.359375 23.1875 75.875 
z
" id="DejaVuSans-40"/>
      <path d="M 8.5 -20.796875 
L 8.5 54.6875 
L 17.484375 54.6875 
L 17.484375 20.703125 
Q 17.484375 13.625 20.84375 10 
Q 24.21875 6.390625 30.8125 6.390625 
Q 38.03125 6.390625 41.671875 10.484375 
Q 45.3125 14.59375 45.3125 22.796875 
L 45.3125 54.6875 
L 54.296875 54.6875 
L 54.296875 12.59375 
Q 54.296875 9.671875 55.140625 8.28125 
Q 56 6.890625 57.8125 6.890625 
Q 58.25 6.890625 59.03125 7.15625 
Q 59.8125 7.421875 61.1875 8.015625 
L 61.1875 0.78125 
Q 59.1875 -0.34375 57.390625 -0.875 
Q 55.609375 -1.421875 53.90625 -1.421875 
Q 50.53125 -1.421875 48.53125 0.484375 
Q 46.53125 2.390625 45.796875 6.296875 
Q 43.359375 2.4375 39.8125 0.5 
Q 36.28125 -1.421875 31.5 -1.421875 
Q 26.515625 -1.421875 23.015625 0.484375 
Q 19.53125 2.390625 17.484375 6.203125 
L 17.484375 -20.796875 
z
" id="DejaVuSans-181"/>
      <path d="M 44.28125 53.078125 
L 44.28125 44.578125 
Q 40.484375 46.53125 36.375 47.5 
Q 32.28125 48.484375 27.875 48.484375 
Q 21.1875 48.484375 17.84375 46.4375 
Q 14.5 44.390625 14.5 40.28125 
Q 14.5 37.15625 16.890625 35.375 
Q 19.28125 33.59375 26.515625 31.984375 
L 29.59375 31.296875 
Q 39.15625 29.25 43.1875 25.515625 
Q 47.21875 21.78125 47.21875 15.09375 
Q 47.21875 7.46875 41.1875 3.015625 
Q 35.15625 -1.421875 24.609375 -1.421875 
Q 20.21875 -1.421875 15.453125 -0.5625 
Q 10.6875 0.296875 5.421875 2 
L 5.421875 11.28125 
Q 10.40625 8.6875 15.234375 7.390625 
Q 20.0625 6.109375 24.8125 6.109375 
Q 31.15625 6.109375 34.5625 8.28125 
Q 37.984375 10.453125 37.984375 14.40625 
Q 37.984375 18.0625 35.515625 20.015625 
Q 33.0625 21.96875 24.703125 23.78125 
L 21.578125 24.515625 
Q 13.234375 26.265625 9.515625 29.90625 
Q 5.8125 33.546875 5.8125 39.890625 
Q 5.8125 47.609375 11.28125 51.796875 
Q 16.75 56 26.8125 56 
Q 31.78125 56 36.171875 55.265625 
Q 40.578125 54.546875 44.28125 53.078125 
z
" id="DejaVuSans-115"/>
      <path d="M 8.015625 75.875 
L 15.828125 75.875 
Q 23.140625 64.359375 26.78125 53.3125 
Q 30.421875 42.28125 30.421875 31.390625 
Q 30.421875 20.453125 26.78125 9.375 
Q 23.140625 -1.703125 15.828125 -13.1875 
L 8.015625 -13.1875 
Q 14.5 -2 17.703125 9.0625 
Q 20.90625 20.125 20.90625 31.390625 
Q 20.90625 42.671875 17.703125 53.65625 
Q 14.5 64.65625 8.015625 75.875 
z
" id="DejaVuSans-41"/>
     </defs>
     <g transform="translate(20.877188 365.039062)rotate(-90)scale(0.18 -0.18)">
      <use xlink:href="#DejaVuSans-77"/>
      <use x="86.279297" xlink:href="#DejaVuSans-105"/>
      <use x="114.0625" xlink:href="#DejaVuSans-110"/>
      <use x="177.441406" xlink:href="#DejaVuSans-105"/>
      <use x="205.224609" xlink:href="#DejaVuSans-109"/>
      <use x="302.636719" xlink:href="#DejaVuSans-117"/>
      <use x="366.015625" xlink:href="#DejaVuSans-109"/>
      <use x="463.427734" xlink:href="#DejaVuSans-32"/>
      <use x="495.214844" xlink:href="#DejaVuSans-84"/>
      <use x="556.251953" xlink:href="#DejaVuSans-105"/>
      <use x="584.035156" xlink:href="#DejaVuSans-109"/>
      <use x="681.447266" xlink:href="#DejaVuSans-101"/>
      <use x="742.970703" xlink:href="#DejaVuSans-32"/>
      <use x="774.757812" xlink:href="#DejaVuSans-40"/>
      <use x="813.771484" xlink:href="#DejaVuSans-181"/>
      <use x="877.394531" xlink:href="#DejaVuSans-115"/>
      <use x="929.494141" xlink:href="#DejaVuSans-41"/>
     </g>
    </g>
   </g>
   <g id="line2d_24">
    <path clip-path="url(#p38c780b8fc)" d="M 116.853352 502.06102 
L 148.070135 493.98964 
L 179.286919 486.323903 
L 210.503702 477.161492 
L 241.720485 469.173858 
L 272.937268 460.976774 
L 304.154052 453.086924 
L 335.370835 445.421395 
L 366.587618 438.567008 
L 397.804401 430.593537 
L 429.021184 423.739605 
L 460.237968 413.667897 
L 491.454751 407.373079 
L 522.671534 397.021027 
L 553.888317 390.307281 
L 585.105101 382.613624 
L 616.321884 372.960558 
L 647.538667 362.04948 
L 678.75545 360.230967 
L 709.972233 353.376764 
L 741.189017 343.584782 
L 772.4058 336.869227 
L 803.622583 330.995091 
L 834.839366 322.042422 
L 866.056149 311.691376 
L 897.272933 304.138073 
L 928.489716 297.143321 
L 959.706499 287.91037 
L 990.923282 279.517243 
L 1022.140066 273.921825 
L 1053.356849 264.271771 
L 1084.573632 254.895589 
L 1115.790415 248.740588 
L 1147.007198 242.590958 
L 1178.223982 232.93898 
L 1209.440765 221.464778 
L 1240.657548 214.470505 
L 1271.874331 213.355954 
L 1303.091115 202.025035 
L 1334.307898 193.345947 
" style="fill:none;stroke:#55868c;stroke-linecap:square;stroke-width:1.5;"/>
   </g>
   <g id="line2d_25">
    <path clip-path="url(#p38c780b8fc)" d="M 116.853352 500.256495 
L 148.070135 490.464513 
L 179.286919 481.651729 
L 210.503702 472.251342 
L 241.720485 464.026113 
L 272.937268 455.129556 
L 304.154052 447.379792 
L 335.370835 436.608611 
L 366.587618 428.35537 
L 397.804401 420.521784 
L 429.021184 412.408933 
L 460.237968 402.616445 
L 491.454751 394.223318 
L 522.671534 386.390354 
L 553.888317 377.997264 
L 585.105101 367.505019 
L 616.321884 359.251954 
L 647.538667 347.360694 
L 678.75545 341.065814 
L 709.972233 330.574346 
L 741.189017 322.042422 
L 772.4058 313.089753 
L 803.622583 306.656 
L 834.839366 291.548438 
L 866.056149 285.112661 
L 897.272933 279.517243 
L 928.489716 267.209342 
L 959.706499 257.97309 
L 990.923282 248.740588 
L 1022.140066 245.808284 
L 1053.356849 233.632205 
L 1084.573632 223.560362 
L 1115.790415 214.470505 
L 1147.007198 205.662008 
L 1178.223982 198.388062 
L 1209.440765 193.345947 
L 1240.657548 185.79209 
L 1271.874331 173.204295 
L 1303.091115 164.676521 
L 1334.307898 156.563282 
" style="fill:none;stroke:#55868c;stroke-dasharray:1.5,2.475;stroke-dashoffset:0;stroke-width:1.5;"/>
   </g>
   <g id="line2d_26">
    <path clip-path="url(#p38c780b8fc)" d="M 116.853352 493.709819 
L 148.070135 482.630927 
L 179.286919 468.446657 
L 210.503702 460.473223 
L 241.720485 452.261597 
L 272.937268 441.504602 
L 304.154052 432.691819 
L 335.370835 422.480641 
L 366.587618 412.408933 
L 397.804401 402.616445 
L 429.021184 391.846012 
L 460.237968 383.033118 
L 491.454751 372.960558 
L 522.671534 363.168746 
L 553.888317 353.376764 
L 585.105101 338.96752 
L 616.321884 328.756924 
L 647.538667 318.825518 
L 678.75545 311.691854 
L 709.972233 301.620146 
L 741.189017 291.827685 
L 772.4058 285.112661 
L 803.622583 273.921825 
L 834.839366 258.396627 
L 866.056149 251.818088 
L 897.272933 236.156306 
L 928.489716 230.274924 
L 959.706499 214.470505 
L 990.923282 209.298981 
L 1022.140066 197.122875 
L 1053.356849 189.569018 
L 1084.573632 177.121088 
L 1115.790415 164.676521 
L 1147.007198 160.619901 
L 1178.223982 148.441622 
L 1209.440765 139.768656 
L 1240.657548 128.727809 
L 1271.874331 119.495534 
L 1303.091115 110.263258 
L 1334.307898 97.667104 
" style="fill:none;stroke:#eec584;stroke-linecap:square;stroke-width:1.5;"/>
   </g>
   <g id="line2d_27">
    <path clip-path="url(#p38c780b8fc)" d="M 116.853352 491.63955 
L 148.070135 479.469423 
L 179.286919 463.466619 
L 210.503702 456.472308 
L 241.720485 445.499731 
L 272.937268 434.650215 
L 304.154052 423.879035 
L 335.370835 412.408933 
L 366.587618 401.217591 
L 397.804401 390.307281 
L 429.021184 379.675882 
L 460.237968 362.04948 
L 491.454751 357.293557 
L 522.671534 345.262401 
L 553.888317 334.770933 
L 585.105101 321.203566 
L 616.321884 309.313328 
L 647.538667 299.102219 
L 678.75545 289.169868 
L 709.972233 276.719534 
L 741.189017 264.271771 
L 772.4058 255.459056 
L 803.622583 242.590958 
L 834.839366 226.917643 
L 866.056149 220.203081 
L 897.272933 202.025035 
L 928.489716 197.122875 
L 959.706499 180.902998 
L 990.923282 168.73314 
L 1022.140066 160.618679 
L 1053.356849 148.441622 
L 1084.573632 139.768656 
L 1115.790415 127.321865 
L 1147.007198 114.879396 
L 1178.223982 102.423199 
L 1209.440765 94.868439 
L 1240.657548 77.524644 
L 1271.874331 70.244532 
L 1303.091115 57.939723 
L 1334.307898 51.076875 
" style="fill:none;stroke:#eec584;stroke-dasharray:1.5,2.475;stroke-dashoffset:0;stroke-width:1.5;"/>
   </g>
   <g id="line2d_28">
    <path clip-path="url(#p38c780b8fc)" d="M 116.853352 501.263673 
L 148.070135 492.982414 
L 179.286919 485.092888 
L 210.503702 474.671541 
L 241.720485 467.159713 
L 272.937268 459.731832 
L 304.154052 451.855961 
L 335.370835 443.462999 
L 366.587618 436.188955 
L 397.804401 427.236286 
L 429.021184 420.521784 
L 460.237968 412.408933 
L 491.454751 405.414155 
L 522.671534 396.462207 
L 553.888317 387.229818 
L 585.105101 381.3545 
L 616.321884 372.96141 
L 647.538667 362.04948 
L 678.75545 359.251954 
L 709.972233 349.459972 
L 741.189017 341.065814 
L 772.4058 335.471426 
L 803.622583 328.756924 
L 834.839366 318.825518 
L 866.056149 309.173927 
L 897.272933 301.620146 
L 928.489716 291.827685 
L 959.706499 282.314952 
L 990.923282 273.921825 
L 1022.140066 270.146914 
L 1053.356849 261.05059 
L 1084.573632 251.818088 
L 1115.790415 242.585586 
L 1147.007198 233.632205 
L 1178.223982 223.560362 
L 1209.440765 217.967642 
L 1240.657548 214.470505 
L 1271.874331 205.662008 
L 1303.091115 197.122875 
L 1334.307898 189.569018 
" style="fill:none;stroke:#9900ff;stroke-linecap:square;stroke-width:1.5;"/>
   </g>
   <g id="line2d_29">
    <path clip-path="url(#p38c780b8fc)" d="M 116.853352 498.983558 
L 148.070135 489.289442 
L 179.286919 480.896367 
L 210.503702 470.978444 
L 241.720485 462.767192 
L 272.937268 453.506888 
L 304.154052 445.499731 
L 335.370835 435.629413 
L 366.587618 427.236286 
L 397.804401 418.703751 
L 429.021184 409.891006 
L 460.237968 401.217591 
L 491.454751 391.425609 
L 522.671534 383.033118 
L 553.888317 374.640028 
L 585.105101 363.867993 
L 616.321884 355.335161 
L 647.538667 345.543179 
L 678.75545 336.869227 
L 709.972233 328.756924 
L 741.189017 318.825518 
L 772.4058 311.691376 
L 803.622583 301.620146 
L 834.839366 291.827685 
L 866.056149 282.314952 
L 897.272933 276.719534 
L 928.489716 264.271771 
L 959.706499 257.97309 
L 990.923282 245.808284 
L 1022.140066 240.346767 
L 1053.356849 230.274924 
L 1084.573632 220.203081 
L 1115.790415 210.973369 
L 1147.007198 202.025035 
L 1178.223982 194.751088 
L 1209.440765 185.79209 
L 1240.657548 176.846379 
L 1271.874331 169.287503 
L 1303.091115 156.422162 
L 1334.307898 148.029128 
" style="fill:none;stroke:#9900ff;stroke-dasharray:1.5,2.475;stroke-dashoffset:0;stroke-width:1.5;"/>
   </g>
   <g id="line2d_30">
    <path clip-path="url(#p38c780b8fc)" d="M 116.853352 504.676875 
L 148.070135 496.507538 
L 179.286919 488.799933 
L 210.503702 479.133759 
L 241.720485 472.782967 
L 272.937268 464.026113 
L 304.154052 456.780094 
L 335.370835 448.35899 
L 366.587618 440.525404 
L 397.804401 432.691819 
L 429.021184 426.257532 
L 460.237968 417.444787 
L 491.454751 409.891006 
L 522.671534 402.616445 
L 553.888317 394.923475 
L 585.105101 385.691086 
L 616.321884 377.997264 
L 647.538667 367.925556 
L 678.75545 365.686506 
L 709.972233 355.335161 
L 741.189017 349.459972 
L 772.4058 341.065814 
L 803.622583 332.672639 
L 834.839366 328.756924 
L 866.056149 317.566087 
L 897.272933 311.691376 
L 928.489716 304.138073 
L 959.706499 297.143321 
L 990.923282 287.91037 
L 1022.140066 279.517243 
L 1053.356849 273.921825 
L 1084.573632 267.209342 
L 1115.790415 258.396627 
L 1147.007198 248.740588 
L 1178.223982 245.808284 
L 1209.440765 236.156306 
L 1240.657548 230.274924 
L 1271.874331 217.967642 
L 1303.091115 214.470505 
L 1334.307898 205.662008 
" style="fill:none;stroke:#ce4257;stroke-linecap:square;stroke-width:1.5;"/>
   </g>
   <g id="line2d_31">
    <path clip-path="url(#p38c780b8fc)" d="M 116.853352 502.019067 
L 148.070135 492.856569 
L 179.286919 484.813076 
L 210.503702 474.797341 
L 241.720485 466.628136 
L 272.937268 457.563453 
L 304.154052 449.771706 
L 335.370835 439.546206 
L 366.587618 431.71262 
L 397.804401 422.759951 
L 429.021184 414.92686 
L 460.237968 406.114116 
L 491.454751 397.021027 
L 522.671534 388.768549 
L 553.888317 379.675882 
L 585.105101 369.323532 
L 616.321884 360.230967 
L 647.538667 351.418368 
L 678.75545 343.164107 
L 709.972233 334.770933 
L 741.189017 325.959661 
L 772.4058 318.825518 
L 803.622583 309.173927 
L 834.839366 301.620146 
L 866.056149 291.548438 
L 897.272933 282.314952 
L 928.489716 273.921825 
L 959.706499 264.128091 
L 990.923282 254.895589 
L 1022.140066 248.740588 
L 1053.356849 239.373632 
L 1084.573632 233.632205 
L 1115.790415 224.961915 
L 1147.007198 214.470505 
L 1178.223982 207.476232 
L 1209.440765 198.388062 
L 1240.657548 189.569018 
L 1271.874331 182.015161 
L 1303.091115 173.204295 
L 1334.307898 160.618679 
" style="fill:none;stroke:#ce4257;stroke-dasharray:1.5,2.475;stroke-dashoffset:0;stroke-width:1.5;"/>
   </g>
   <g id="patch_3">
    <path d="M 55.980625 527.356875 
L 55.980625 28.396875 
" style="fill:none;stroke:#000000;stroke-linecap:square;stroke-linejoin:miter;stroke-width:0.8;"/>
   </g>
   <g id="patch_4">
    <path d="M 1395.180625 527.356875 
L 1395.180625 28.396875 
" style="fill:none;stroke:#000000;stroke-linecap:square;stroke-linejoin:miter;stroke-width:0.8;"/>
   </g>
   <g id="patch_5">
    <path d="M 55.980625 527.356875 
L 1395.180625 527.356875 
" style="fill:none;stroke:#000000;stroke-linecap:square;stroke-linejoin:miter;stroke-width:0.8;"/>
   </g>
   <g id="patch_6">
    <path d="M 55.980625 28.396875 
L 1395.180625 28.396875 
" style="fill:none;stroke:#000000;stroke-linecap:square;stroke-linejoin:miter;stroke-width:0.8;"/>
   </g>
   <g id="text_19">
    <!-- SeparableConvolve Implementations vs Explicit Implementation -->
    <defs>
     <path d="M 18.109375 8.203125 
L 18.109375 -20.796875 
L 9.078125 -20.796875 
L 9.078125 54.6875 
L 18.109375 54.6875 
L 18.109375 46.390625 
Q 20.953125 51.265625 25.265625 53.625 
Q 29.59375 56 35.59375 56 
Q 45.5625 56 51.78125 48.09375 
Q 58.015625 40.1875 58.015625 27.296875 
Q 58.015625 14.40625 51.78125 6.484375 
Q 45.5625 -1.421875 35.59375 -1.421875 
Q 29.59375 -1.421875 25.265625 0.953125 
Q 20.953125 3.328125 18.109375 8.203125 
z
M 48.6875 27.296875 
Q 48.6875 37.203125 44.609375 42.84375 
Q 40.53125 48.484375 33.40625 48.484375 
Q 26.265625 48.484375 22.1875 42.84375 
Q 18.109375 37.203125 18.109375 27.296875 
Q 18.109375 17.390625 22.1875 11.75 
Q 26.265625 6.109375 33.40625 6.109375 
Q 40.53125 6.109375 44.609375 11.75 
Q 48.6875 17.390625 48.6875 27.296875 
z
" id="DejaVuSans-112"/>
     <path d="M 34.28125 27.484375 
Q 23.390625 27.484375 19.1875 25 
Q 14.984375 22.515625 14.984375 16.5 
Q 14.984375 11.71875 18.140625 8.90625 
Q 21.296875 6.109375 26.703125 6.109375 
Q 34.1875 6.109375 38.703125 11.40625 
Q 43.21875 16.703125 43.21875 25.484375 
L 43.21875 27.484375 
z
M 52.203125 31.203125 
L 52.203125 0 
L 43.21875 0 
L 43.21875 8.296875 
Q 40.140625 3.328125 35.546875 0.953125 
Q 30.953125 -1.421875 24.3125 -1.421875 
Q 15.921875 -1.421875 10.953125 3.296875 
Q 6 8.015625 6 15.921875 
Q 6 25.140625 12.171875 29.828125 
Q 18.359375 34.515625 30.609375 34.515625 
L 43.21875 34.515625 
L 43.21875 35.40625 
Q 43.21875 41.609375 39.140625 45 
Q 35.0625 48.390625 27.6875 48.390625 
Q 23 48.390625 18.546875 47.265625 
Q 14.109375 46.140625 10.015625 43.890625 
L 10.015625 52.203125 
Q 14.9375 54.109375 19.578125 55.046875 
Q 24.21875 56 28.609375 56 
Q 40.484375 56 46.34375 49.84375 
Q 52.203125 43.703125 52.203125 31.203125 
z
" id="DejaVuSans-97"/>
     <path d="M 41.109375 46.296875 
Q 39.59375 47.171875 37.8125 47.578125 
Q 36.03125 48 33.890625 48 
Q 26.265625 48 22.1875 43.046875 
Q 18.109375 38.09375 18.109375 28.8125 
L 18.109375 0 
L 9.078125 0 
L 9.078125 54.6875 
L 18.109375 54.6875 
L 18.109375 46.1875 
Q 20.953125 51.171875 25.484375 53.578125 
Q 30.03125 56 36.53125 56 
Q 37.453125 56 38.578125 55.875 
Q 39.703125 55.765625 41.0625 55.515625 
z
" id="DejaVuSans-114"/>
     <path d="M 48.6875 27.296875 
Q 48.6875 37.203125 44.609375 42.84375 
Q 40.53125 48.484375 33.40625 48.484375 
Q 26.265625 48.484375 22.1875 42.84375 
Q 18.109375 37.203125 18.109375 27.296875 
Q 18.109375 17.390625 22.1875 11.75 
Q 26.265625 6.109375 33.40625 6.109375 
Q 40.53125 6.109375 44.609375 11.75 
Q 48.6875 17.390625 48.6875 27.296875 
z
M 18.109375 46.390625 
Q 20.953125 51.265625 25.265625 53.625 
Q 29.59375 56 35.59375 56 
Q 45.5625 56 51.78125 48.09375 
Q 58.015625 40.1875 58.015625 27.296875 
Q 58.015625 14.40625 51.78125 6.484375 
Q 45.5625 -1.421875 35.59375 -1.421875 
Q 29.59375 -1.421875 25.265625 0.953125 
Q 20.953125 3.328125 18.109375 8.203125 
L 18.109375 0 
L 9.078125 0 
L 9.078125 75.984375 
L 18.109375 75.984375 
z
" id="DejaVuSans-98"/>
     <path d="M 9.421875 75.984375 
L 18.40625 75.984375 
L 18.40625 0 
L 9.421875 0 
z
" id="DejaVuSans-108"/>
     <path d="M 64.40625 67.28125 
L 64.40625 56.890625 
Q 59.421875 61.53125 53.78125 63.8125 
Q 48.140625 66.109375 41.796875 66.109375 
Q 29.296875 66.109375 22.65625 58.46875 
Q 16.015625 50.828125 16.015625 36.375 
Q 16.015625 21.96875 22.65625 14.328125 
Q 29.296875 6.6875 41.796875 6.6875 
Q 48.140625 6.6875 53.78125 8.984375 
Q 59.421875 11.28125 64.40625 15.921875 
L 64.40625 5.609375 
Q 59.234375 2.09375 53.4375 0.328125 
Q 47.65625 -1.421875 41.21875 -1.421875 
Q 24.65625 -1.421875 15.125 8.703125 
Q 5.609375 18.84375 5.609375 36.375 
Q 5.609375 53.953125 15.125 64.078125 
Q 24.65625 74.21875 41.21875 74.21875 
Q 47.75 74.21875 53.53125 72.484375 
Q 59.328125 70.75 64.40625 67.28125 
z
" id="DejaVuSans-67"/>
     <path d="M 30.609375 48.390625 
Q 23.390625 48.390625 19.1875 42.75 
Q 14.984375 37.109375 14.984375 27.296875 
Q 14.984375 17.484375 19.15625 11.84375 
Q 23.34375 6.203125 30.609375 6.203125 
Q 37.796875 6.203125 41.984375 11.859375 
Q 46.1875 17.53125 46.1875 27.296875 
Q 46.1875 37.015625 41.984375 42.703125 
Q 37.796875 48.390625 30.609375 48.390625 
z
M 30.609375 56 
Q 42.328125 56 49.015625 48.375 
Q 55.71875 40.765625 55.71875 27.296875 
Q 55.71875 13.875 49.015625 6.21875 
Q 42.328125 -1.421875 30.609375 -1.421875 
Q 18.84375 -1.421875 12.171875 6.21875 
Q 5.515625 13.875 5.515625 27.296875 
Q 5.515625 40.765625 12.171875 48.375 
Q 18.84375 56 30.609375 56 
z
" id="DejaVuSans-111"/>
     <path d="M 2.984375 54.6875 
L 12.5 54.6875 
L 29.59375 8.796875 
L 46.6875 54.6875 
L 56.203125 54.6875 
L 35.6875 0 
L 23.484375 0 
z
" id="DejaVuSans-118"/>
     <path d="M 9.8125 72.90625 
L 19.671875 72.90625 
L 19.671875 0 
L 9.8125 0 
z
" id="DejaVuSans-73"/>
     <path d="M 18.3125 70.21875 
L 18.3125 54.6875 
L 36.8125 54.6875 
L 36.8125 47.703125 
L 18.3125 47.703125 
L 18.3125 18.015625 
Q 18.3125 11.328125 20.140625 9.421875 
Q 21.96875 7.515625 27.59375 7.515625 
L 36.8125 7.515625 
L 36.8125 0 
L 27.59375 0 
Q 17.1875 0 13.234375 3.875 
Q 9.28125 7.765625 9.28125 18.015625 
L 9.28125 47.703125 
L 2.6875 47.703125 
L 2.6875 54.6875 
L 9.28125 54.6875 
L 9.28125 70.21875 
z
" id="DejaVuSans-116"/>
     <path d="M 9.8125 72.90625 
L 55.90625 72.90625 
L 55.90625 64.59375 
L 19.671875 64.59375 
L 19.671875 43.015625 
L 54.390625 43.015625 
L 54.390625 34.71875 
L 19.671875 34.71875 
L 19.671875 8.296875 
L 56.78125 8.296875 
L 56.78125 0 
L 9.8125 0 
z
" id="DejaVuSans-69"/>
     <path d="M 54.890625 54.6875 
L 35.109375 28.078125 
L 55.90625 0 
L 45.3125 0 
L 29.390625 21.484375 
L 13.484375 0 
L 2.875 0 
L 24.125 28.609375 
L 4.6875 54.6875 
L 15.28125 54.6875 
L 29.78125 35.203125 
L 44.28125 54.6875 
z
" id="DejaVuSans-120"/>
     <path d="M 48.78125 52.59375 
L 48.78125 44.1875 
Q 44.96875 46.296875 41.140625 47.34375 
Q 37.3125 48.390625 33.40625 48.390625 
Q 24.65625 48.390625 19.8125 42.84375 
Q 14.984375 37.3125 14.984375 27.296875 
Q 14.984375 17.28125 19.8125 11.734375 
Q 24.65625 6.203125 33.40625 6.203125 
Q 37.3125 6.203125 41.140625 7.25 
Q 44.96875 8.296875 48.78125 10.40625 
L 48.78125 2.09375 
Q 45.015625 0.34375 40.984375 -0.53125 
Q 36.96875 -1.421875 32.421875 -1.421875 
Q 20.0625 -1.421875 12.78125 6.34375 
Q 5.515625 14.109375 5.515625 27.296875 
Q 5.515625 40.671875 12.859375 48.328125 
Q 20.21875 56 33.015625 56 
Q 37.15625 56 41.109375 55.140625 
Q 45.0625 54.296875 48.78125 52.59375 
z
" id="DejaVuSans-99"/>
    </defs>
    <g transform="translate(404.55875 22.396875)scale(0.2 -0.2)">
     <use xlink:href="#DejaVuSans-83"/>
     <use x="63.476562" xlink:href="#DejaVuSans-101"/>
     <use x="125" xlink:href="#DejaVuSans-112"/>
     <use x="188.476562" xlink:href="#DejaVuSans-97"/>
     <use x="249.755859" xlink:href="#DejaVuSans-114"/>
     <use x="290.869141" xlink:href="#DejaVuSans-97"/>
     <use x="352.148438" xlink:href="#DejaVuSans-98"/>
     <use x="415.625" xlink:href="#DejaVuSans-108"/>
     <use x="443.408203" xlink:href="#DejaVuSans-101"/>
     <use x="504.931641" xlink:href="#DejaVuSans-67"/>
     <use x="574.755859" xlink:href="#DejaVuSans-111"/>
     <use x="635.9375" xlink:href="#DejaVuSans-110"/>
     <use x="699.316406" xlink:href="#DejaVuSans-118"/>
     <use x="758.496094" xlink:href="#DejaVuSans-111"/>
     <use x="819.677734" xlink:href="#DejaVuSans-108"/>
     <use x="847.460938" xlink:href="#DejaVuSans-118"/>
     <use x="906.640625" xlink:href="#DejaVuSans-101"/>
     <use x="968.164062" xlink:href="#DejaVuSans-32"/>
     <use x="999.951172" xlink:href="#DejaVuSans-73"/>
     <use x="1029.443359" xlink:href="#DejaVuSans-109"/>
     <use x="1126.855469" xlink:href="#DejaVuSans-112"/>
     <use x="1190.332031" xlink:href="#DejaVuSans-108"/>
     <use x="1218.115234" xlink:href="#DejaVuSans-101"/>
     <use x="1279.638672" xlink:href="#DejaVuSans-109"/>
     <use x="1377.050781" xlink:href="#DejaVuSans-101"/>
     <use x="1438.574219" xlink:href="#DejaVuSans-110"/>
     <use x="1501.953125" xlink:href="#DejaVuSans-116"/>
     <use x="1541.162109" xlink:href="#DejaVuSans-97"/>
     <use x="1602.441406" xlink:href="#DejaVuSans-116"/>
     <use x="1641.650391" xlink:href="#DejaVuSans-105"/>
     <use x="1669.433594" xlink:href="#DejaVuSans-111"/>
     <use x="1730.615234" xlink:href="#DejaVuSans-110"/>
     <use x="1793.994141" xlink:href="#DejaVuSans-115"/>
     <use x="1846.09375" xlink:href="#DejaVuSans-32"/>
     <use x="1877.880859" xlink:href="#DejaVuSans-118"/>
     <use x="1937.060547" xlink:href="#DejaVuSans-115"/>
     <use x="1989.160156" xlink:href="#DejaVuSans-32"/>
     <use x="2020.947266" xlink:href="#DejaVuSans-69"/>
     <use x="2084.130859" xlink:href="#DejaVuSans-120"/>
     <use x="2143.310547" xlink:href="#DejaVuSans-112"/>
     <use x="2206.787109" xlink:href="#DejaVuSans-108"/>
     <use x="2234.570312" xlink:href="#DejaVuSans-105"/>
     <use x="2262.353516" xlink:href="#DejaVuSans-99"/>
     <use x="2317.333984" xlink:href="#DejaVuSans-105"/>
     <use x="2345.117188" xlink:href="#DejaVuSans-116"/>
     <use x="2384.326172" xlink:href="#DejaVuSans-32"/>
     <use x="2416.113281" xlink:href="#DejaVuSans-73"/>
     <use x="2445.605469" xlink:href="#DejaVuSans-109"/>
     <use x="2543.017578" xlink:href="#DejaVuSans-112"/>
     <use x="2606.494141" xlink:href="#DejaVuSans-108"/>
     <use x="2634.277344" xlink:href="#DejaVuSans-101"/>
     <use x="2695.800781" xlink:href="#DejaVuSans-109"/>
     <use x="2793.212891" xlink:href="#DejaVuSans-101"/>
     <use x="2854.736328" xlink:href="#DejaVuSans-110"/>
     <use x="2918.115234" xlink:href="#DejaVuSans-116"/>
     <use x="2957.324219" xlink:href="#DejaVuSans-97"/>
     <use x="3018.603516" xlink:href="#DejaVuSans-116"/>
     <use x="3057.8125" xlink:href="#DejaVuSans-105"/>
     <use x="3085.595703" xlink:href="#DejaVuSans-111"/>
     <use x="3146.777344" xlink:href="#DejaVuSans-110"/>
    </g>
   </g>
   <g id="legend_1">
    <g id="patch_7">
     <path d="M 64.380625 178.906875 
L 368.033125 178.906875 
Q 370.433125 178.906875 370.433125 176.506875 
L 370.433125 36.796875 
Q 370.433125 34.396875 368.033125 34.396875 
L 64.380625 34.396875 
Q 61.980625 34.396875 61.980625 36.796875 
L 61.980625 176.506875 
Q 61.980625 178.906875 64.380625 178.906875 
z
" style="fill:#ffffff;opacity:0.8;stroke:#cccccc;stroke-linejoin:miter;"/>
    </g>
    <g id="line2d_32">
     <path d="M 66.780625 44.115 
L 90.780625 44.115 
" style="fill:none;stroke:#55868c;stroke-linecap:square;stroke-width:1.5;"/>
    </g>
    <g id="line2d_33"/>
    <g id="text_20">
     <!-- separableConvolve1D (Channel First) -->
     <defs>
      <path d="M 19.671875 64.796875 
L 19.671875 8.109375 
L 31.59375 8.109375 
Q 46.6875 8.109375 53.6875 14.9375 
Q 60.6875 21.78125 60.6875 36.53125 
Q 60.6875 51.171875 53.6875 57.984375 
Q 46.6875 64.796875 31.59375 64.796875 
z
M 9.8125 72.90625 
L 30.078125 72.90625 
Q 51.265625 72.90625 61.171875 64.09375 
Q 71.09375 55.28125 71.09375 36.53125 
Q 71.09375 17.671875 61.125 8.828125 
Q 51.171875 0 30.078125 0 
L 9.8125 0 
z
" id="DejaVuSans-68"/>
      <path d="M 54.890625 33.015625 
L 54.890625 0 
L 45.90625 0 
L 45.90625 32.71875 
Q 45.90625 40.484375 42.875 44.328125 
Q 39.84375 48.1875 33.796875 48.1875 
Q 26.515625 48.1875 22.3125 43.546875 
Q 18.109375 38.921875 18.109375 30.90625 
L 18.109375 0 
L 9.078125 0 
L 9.078125 75.984375 
L 18.109375 75.984375 
L 18.109375 46.1875 
Q 21.34375 51.125 25.703125 53.5625 
Q 30.078125 56 35.796875 56 
Q 45.21875 56 50.046875 50.171875 
Q 54.890625 44.34375 54.890625 33.015625 
z
" id="DejaVuSans-104"/>
      <path d="M 9.8125 72.90625 
L 51.703125 72.90625 
L 51.703125 64.59375 
L 19.671875 64.59375 
L 19.671875 43.109375 
L 48.578125 43.109375 
L 48.578125 34.8125 
L 19.671875 34.8125 
L 19.671875 0 
L 9.8125 0 
z
" id="DejaVuSans-70"/>
     </defs>
     <g transform="translate(100.380625 48.315)scale(0.12 -0.12)">
      <use xlink:href="#DejaVuSans-115"/>
      <use x="52.099609" xlink:href="#DejaVuSans-101"/>
      <use x="113.623047" xlink:href="#DejaVuSans-112"/>
      <use x="177.099609" xlink:href="#DejaVuSans-97"/>
      <use x="238.378906" xlink:href="#DejaVuSans-114"/>
      <use x="279.492188" xlink:href="#DejaVuSans-97"/>
      <use x="340.771484" xlink:href="#DejaVuSans-98"/>
      <use x="404.248047" xlink:href="#DejaVuSans-108"/>
      <use x="432.03125" xlink:href="#DejaVuSans-101"/>
      <use x="493.554688" xlink:href="#DejaVuSans-67"/>
      <use x="563.378906" xlink:href="#DejaVuSans-111"/>
      <use x="624.560547" xlink:href="#DejaVuSans-110"/>
      <use x="687.939453" xlink:href="#DejaVuSans-118"/>
      <use x="747.119141" xlink:href="#DejaVuSans-111"/>
      <use x="808.300781" xlink:href="#DejaVuSans-108"/>
      <use x="836.083984" xlink:href="#DejaVuSans-118"/>
      <use x="895.263672" xlink:href="#DejaVuSans-101"/>
      <use x="956.787109" xlink:href="#DejaVuSans-49"/>
      <use x="1020.410156" xlink:href="#DejaVuSans-68"/>
      <use x="1097.412109" xlink:href="#DejaVuSans-32"/>
      <use x="1129.199219" xlink:href="#DejaVuSans-40"/>
      <use x="1168.212891" xlink:href="#DejaVuSans-67"/>
      <use x="1238.037109" xlink:href="#DejaVuSans-104"/>
      <use x="1301.416016" xlink:href="#DejaVuSans-97"/>
      <use x="1362.695312" xlink:href="#DejaVuSans-110"/>
      <use x="1426.074219" xlink:href="#DejaVuSans-110"/>
      <use x="1489.453125" xlink:href="#DejaVuSans-101"/>
      <use x="1550.976562" xlink:href="#DejaVuSans-108"/>
      <use x="1578.759766" xlink:href="#DejaVuSans-32"/>
      <use x="1610.546875" xlink:href="#DejaVuSans-70"/>
      <use x="1667.957031" xlink:href="#DejaVuSans-105"/>
      <use x="1695.740234" xlink:href="#DejaVuSans-114"/>
      <use x="1736.853516" xlink:href="#DejaVuSans-115"/>
      <use x="1788.953125" xlink:href="#DejaVuSans-116"/>
      <use x="1828.162109" xlink:href="#DejaVuSans-41"/>
     </g>
    </g>
    <g id="line2d_34">
     <path d="M 66.780625 61.72875 
L 90.780625 61.72875 
" style="fill:none;stroke:#55868c;stroke-dasharray:1.5,2.475;stroke-dashoffset:0;stroke-width:1.5;"/>
    </g>
    <g id="line2d_35"/>
    <g id="text_21">
     <!-- separableConvolve1D (Channel Last) -->
     <defs>
      <path d="M 9.8125 72.90625 
L 19.671875 72.90625 
L 19.671875 8.296875 
L 55.171875 8.296875 
L 55.171875 0 
L 9.8125 0 
z
" id="DejaVuSans-76"/>
     </defs>
     <g transform="translate(100.380625 65.92875)scale(0.12 -0.12)">
      <use xlink:href="#DejaVuSans-115"/>
      <use x="52.099609" xlink:href="#DejaVuSans-101"/>
      <use x="113.623047" xlink:href="#DejaVuSans-112"/>
      <use x="177.099609" xlink:href="#DejaVuSans-97"/>
      <use x="238.378906" xlink:href="#DejaVuSans-114"/>
      <use x="279.492188" xlink:href="#DejaVuSans-97"/>
      <use x="340.771484" xlink:href="#DejaVuSans-98"/>
      <use x="404.248047" xlink:href="#DejaVuSans-108"/>
      <use x="432.03125" xlink:href="#DejaVuSans-101"/>
      <use x="493.554688" xlink:href="#DejaVuSans-67"/>
      <use x="563.378906" xlink:href="#DejaVuSans-111"/>
      <use x="624.560547" xlink:href="#DejaVuSans-110"/>
      <use x="687.939453" xlink:href="#DejaVuSans-118"/>
      <use x="747.119141" xlink:href="#DejaVuSans-111"/>
      <use x="808.300781" xlink:href="#DejaVuSans-108"/>
      <use x="836.083984" xlink:href="#DejaVuSans-118"/>
      <use x="895.263672" xlink:href="#DejaVuSans-101"/>
      <use x="956.787109" xlink:href="#DejaVuSans-49"/>
      <use x="1020.410156" xlink:href="#DejaVuSans-68"/>
      <use x="1097.412109" xlink:href="#DejaVuSans-32"/>
      <use x="1129.199219" xlink:href="#DejaVuSans-40"/>
      <use x="1168.212891" xlink:href="#DejaVuSans-67"/>
      <use x="1238.037109" xlink:href="#DejaVuSans-104"/>
      <use x="1301.416016" xlink:href="#DejaVuSans-97"/>
      <use x="1362.695312" xlink:href="#DejaVuSans-110"/>
      <use x="1426.074219" xlink:href="#DejaVuSans-110"/>
      <use x="1489.453125" xlink:href="#DejaVuSans-101"/>
      <use x="1550.976562" xlink:href="#DejaVuSans-108"/>
      <use x="1578.759766" xlink:href="#DejaVuSans-32"/>
      <use x="1610.546875" xlink:href="#DejaVuSans-76"/>
      <use x="1666.259766" xlink:href="#DejaVuSans-97"/>
      <use x="1727.539062" xlink:href="#DejaVuSans-115"/>
      <use x="1779.638672" xlink:href="#DejaVuSans-116"/>
      <use x="1818.847656" xlink:href="#DejaVuSans-41"/>
     </g>
    </g>
    <g id="line2d_36">
     <path d="M 66.780625 79.3425 
L 90.780625 79.3425 
" style="fill:none;stroke:#eec584;stroke-linecap:square;stroke-width:1.5;"/>
    </g>
    <g id="line2d_37"/>
    <g id="text_22">
     <!-- separableConvolveND [N=1] (Channel First) -->
     <defs>
      <path d="M 9.8125 72.90625 
L 23.09375 72.90625 
L 55.421875 11.921875 
L 55.421875 72.90625 
L 64.984375 72.90625 
L 64.984375 0 
L 51.703125 0 
L 19.390625 60.984375 
L 19.390625 0 
L 9.8125 0 
z
" id="DejaVuSans-78"/>
      <path d="M 8.59375 75.984375 
L 29.296875 75.984375 
L 29.296875 69 
L 17.578125 69 
L 17.578125 -6.203125 
L 29.296875 -6.203125 
L 29.296875 -13.1875 
L 8.59375 -13.1875 
z
" id="DejaVuSans-91"/>
      <path d="M 10.59375 45.40625 
L 73.1875 45.40625 
L 73.1875 37.203125 
L 10.59375 37.203125 
z
M 10.59375 25.484375 
L 73.1875 25.484375 
L 73.1875 17.1875 
L 10.59375 17.1875 
z
" id="DejaVuSans-61"/>
      <path d="M 30.421875 75.984375 
L 30.421875 -13.1875 
L 9.71875 -13.1875 
L 9.71875 -6.203125 
L 21.390625 -6.203125 
L 21.390625 69 
L 9.71875 69 
L 9.71875 75.984375 
z
" id="DejaVuSans-93"/>
     </defs>
     <g transform="translate(100.380625 83.5425)scale(0.12 -0.12)">
      <use xlink:href="#DejaVuSans-115"/>
      <use x="52.099609" xlink:href="#DejaVuSans-101"/>
      <use x="113.623047" xlink:href="#DejaVuSans-112"/>
      <use x="177.099609" xlink:href="#DejaVuSans-97"/>
      <use x="238.378906" xlink:href="#DejaVuSans-114"/>
      <use x="279.492188" xlink:href="#DejaVuSans-97"/>
      <use x="340.771484" xlink:href="#DejaVuSans-98"/>
      <use x="404.248047" xlink:href="#DejaVuSans-108"/>
      <use x="432.03125" xlink:href="#DejaVuSans-101"/>
      <use x="493.554688" xlink:href="#DejaVuSans-67"/>
      <use x="563.378906" xlink:href="#DejaVuSans-111"/>
      <use x="624.560547" xlink:href="#DejaVuSans-110"/>
      <use x="687.939453" xlink:href="#DejaVuSans-118"/>
      <use x="747.119141" xlink:href="#DejaVuSans-111"/>
      <use x="808.300781" xlink:href="#DejaVuSans-108"/>
      <use x="836.083984" xlink:href="#DejaVuSans-118"/>
      <use x="895.263672" xlink:href="#DejaVuSans-101"/>
      <use x="956.787109" xlink:href="#DejaVuSans-78"/>
      <use x="1031.591797" xlink:href="#DejaVuSans-68"/>
      <use x="1108.59375" xlink:href="#DejaVuSans-32"/>
      <use x="1140.380859" xlink:href="#DejaVuSans-91"/>
      <use x="1179.394531" xlink:href="#DejaVuSans-78"/>
      <use x="1254.199219" xlink:href="#DejaVuSans-61"/>
      <use x="1337.988281" xlink:href="#DejaVuSans-49"/>
      <use x="1401.611328" xlink:href="#DejaVuSans-93"/>
      <use x="1440.625" xlink:href="#DejaVuSans-32"/>
      <use x="1472.412109" xlink:href="#DejaVuSans-40"/>
      <use x="1511.425781" xlink:href="#DejaVuSans-67"/>
      <use x="1581.25" xlink:href="#DejaVuSans-104"/>
      <use x="1644.628906" xlink:href="#DejaVuSans-97"/>
      <use x="1705.908203" xlink:href="#DejaVuSans-110"/>
      <use x="1769.287109" xlink:href="#DejaVuSans-110"/>
      <use x="1832.666016" xlink:href="#DejaVuSans-101"/>
      <use x="1894.189453" xlink:href="#DejaVuSans-108"/>
      <use x="1921.972656" xlink:href="#DejaVuSans-32"/>
      <use x="1953.759766" xlink:href="#DejaVuSans-70"/>
      <use x="2011.169922" xlink:href="#DejaVuSans-105"/>
      <use x="2038.953125" xlink:href="#DejaVuSans-114"/>
      <use x="2080.066406" xlink:href="#DejaVuSans-115"/>
      <use x="2132.166016" xlink:href="#DejaVuSans-116"/>
      <use x="2171.375" xlink:href="#DejaVuSans-41"/>
     </g>
    </g>
    <g id="line2d_38">
     <path d="M 66.780625 96.95625 
L 90.780625 96.95625 
" style="fill:none;stroke:#eec584;stroke-dasharray:1.5,2.475;stroke-dashoffset:0;stroke-width:1.5;"/>
    </g>
    <g id="line2d_39"/>
    <g id="text_23">
     <!-- separableConvolveND [N=1] (Channel Last) -->
     <g transform="translate(100.380625 101.15625)scale(0.12 -0.12)">
      <use xlink:href="#DejaVuSans-115"/>
      <use x="52.099609" xlink:href="#DejaVuSans-101"/>
      <use x="113.623047" xlink:href="#DejaVuSans-112"/>
      <use x="177.099609" xlink:href="#DejaVuSans-97"/>
      <use x="238.378906" xlink:href="#DejaVuSans-114"/>
      <use x="279.492188" xlink:href="#DejaVuSans-97"/>
      <use x="340.771484" xlink:href="#DejaVuSans-98"/>
      <use x="404.248047" xlink:href="#DejaVuSans-108"/>
      <use x="432.03125" xlink:href="#DejaVuSans-101"/>
      <use x="493.554688" xlink:href="#DejaVuSans-67"/>
      <use x="563.378906" xlink:href="#DejaVuSans-111"/>
      <use x="624.560547" xlink:href="#DejaVuSans-110"/>
      <use x="687.939453" xlink:href="#DejaVuSans-118"/>
      <use x="747.119141" xlink:href="#DejaVuSans-111"/>
      <use x="808.300781" xlink:href="#DejaVuSans-108"/>
      <use x="836.083984" xlink:href="#DejaVuSans-118"/>
      <use x="895.263672" xlink:href="#DejaVuSans-101"/>
      <use x="956.787109" xlink:href="#DejaVuSans-78"/>
      <use x="1031.591797" xlink:href="#DejaVuSans-68"/>
      <use x="1108.59375" xlink:href="#DejaVuSans-32"/>
      <use x="1140.380859" xlink:href="#DejaVuSans-91"/>
      <use x="1179.394531" xlink:href="#DejaVuSans-78"/>
      <use x="1254.199219" xlink:href="#DejaVuSans-61"/>
      <use x="1337.988281" xlink:href="#DejaVuSans-49"/>
      <use x="1401.611328" xlink:href="#DejaVuSans-93"/>
      <use x="1440.625" xlink:href="#DejaVuSans-32"/>
      <use x="1472.412109" xlink:href="#DejaVuSans-40"/>
      <use x="1511.425781" xlink:href="#DejaVuSans-67"/>
      <use x="1581.25" xlink:href="#DejaVuSans-104"/>
      <use x="1644.628906" xlink:href="#DejaVuSans-97"/>
      <use x="1705.908203" xlink:href="#DejaVuSans-110"/>
      <use x="1769.287109" xlink:href="#DejaVuSans-110"/>
      <use x="1832.666016" xlink:href="#DejaVuSans-101"/>
      <use x="1894.189453" xlink:href="#DejaVuSans-108"/>
      <use x="1921.972656" xlink:href="#DejaVuSans-32"/>
      <use x="1953.759766" xlink:href="#DejaVuSans-76"/>
      <use x="2009.472656" xlink:href="#DejaVuSans-97"/>
      <use x="2070.751953" xlink:href="#DejaVuSans-115"/>
      <use x="2122.851562" xlink:href="#DejaVuSans-116"/>
      <use x="2162.060547" xlink:href="#DejaVuSans-41"/>
     </g>
    </g>
    <g id="line2d_40">
     <path d="M 66.780625 114.57 
L 90.780625 114.57 
" style="fill:none;stroke:#9900ff;stroke-linecap:square;stroke-width:1.5;"/>
    </g>
    <g id="line2d_41"/>
    <g id="text_24">
     <!-- separableConvolve [N=1] (Channel First) -->
     <g transform="translate(100.380625 118.77)scale(0.12 -0.12)">
      <use xlink:href="#DejaVuSans-115"/>
      <use x="52.099609" xlink:href="#DejaVuSans-101"/>
      <use x="113.623047" xlink:href="#DejaVuSans-112"/>
      <use x="177.099609" xlink:href="#DejaVuSans-97"/>
      <use x="238.378906" xlink:href="#DejaVuSans-114"/>
      <use x="279.492188" xlink:href="#DejaVuSans-97"/>
      <use x="340.771484" xlink:href="#DejaVuSans-98"/>
      <use x="404.248047" xlink:href="#DejaVuSans-108"/>
      <use x="432.03125" xlink:href="#DejaVuSans-101"/>
      <use x="493.554688" xlink:href="#DejaVuSans-67"/>
      <use x="563.378906" xlink:href="#DejaVuSans-111"/>
      <use x="624.560547" xlink:href="#DejaVuSans-110"/>
      <use x="687.939453" xlink:href="#DejaVuSans-118"/>
      <use x="747.119141" xlink:href="#DejaVuSans-111"/>
      <use x="808.300781" xlink:href="#DejaVuSans-108"/>
      <use x="836.083984" xlink:href="#DejaVuSans-118"/>
      <use x="895.263672" xlink:href="#DejaVuSans-101"/>
      <use x="956.787109" xlink:href="#DejaVuSans-32"/>
      <use x="988.574219" xlink:href="#DejaVuSans-91"/>
      <use x="1027.587891" xlink:href="#DejaVuSans-78"/>
      <use x="1102.392578" xlink:href="#DejaVuSans-61"/>
      <use x="1186.181641" xlink:href="#DejaVuSans-49"/>
      <use x="1249.804688" xlink:href="#DejaVuSans-93"/>
      <use x="1288.818359" xlink:href="#DejaVuSans-32"/>
      <use x="1320.605469" xlink:href="#DejaVuSans-40"/>
      <use x="1359.619141" xlink:href="#DejaVuSans-67"/>
      <use x="1429.443359" xlink:href="#DejaVuSans-104"/>
      <use x="1492.822266" xlink:href="#DejaVuSans-97"/>
      <use x="1554.101562" xlink:href="#DejaVuSans-110"/>
      <use x="1617.480469" xlink:href="#DejaVuSans-110"/>
      <use x="1680.859375" xlink:href="#DejaVuSans-101"/>
      <use x="1742.382812" xlink:href="#DejaVuSans-108"/>
      <use x="1770.166016" xlink:href="#DejaVuSans-32"/>
      <use x="1801.953125" xlink:href="#DejaVuSans-70"/>
      <use x="1859.363281" xlink:href="#DejaVuSans-105"/>
      <use x="1887.146484" xlink:href="#DejaVuSans-114"/>
      <use x="1928.259766" xlink:href="#DejaVuSans-115"/>
      <use x="1980.359375" xlink:href="#DejaVuSans-116"/>
      <use x="2019.568359" xlink:href="#DejaVuSans-41"/>
     </g>
    </g>
    <g id="line2d_42">
     <path d="M 66.780625 132.18375 
L 90.780625 132.18375 
" style="fill:none;stroke:#9900ff;stroke-dasharray:1.5,2.475;stroke-dashoffset:0;stroke-width:1.5;"/>
    </g>
    <g id="line2d_43"/>
    <g id="text_25">
     <!-- separableConvolve [N=1] (Channel Last) -->
     <g transform="translate(100.380625 136.38375)scale(0.12 -0.12)">
      <use xlink:href="#DejaVuSans-115"/>
      <use x="52.099609" xlink:href="#DejaVuSans-101"/>
      <use x="113.623047" xlink:href="#DejaVuSans-112"/>
      <use x="177.099609" xlink:href="#DejaVuSans-97"/>
      <use x="238.378906" xlink:href="#DejaVuSans-114"/>
      <use x="279.492188" xlink:href="#DejaVuSans-97"/>
      <use x="340.771484" xlink:href="#DejaVuSans-98"/>
      <use x="404.248047" xlink:href="#DejaVuSans-108"/>
      <use x="432.03125" xlink:href="#DejaVuSans-101"/>
      <use x="493.554688" xlink:href="#DejaVuSans-67"/>
      <use x="563.378906" xlink:href="#DejaVuSans-111"/>
      <use x="624.560547" xlink:href="#DejaVuSans-110"/>
      <use x="687.939453" xlink:href="#DejaVuSans-118"/>
      <use x="747.119141" xlink:href="#DejaVuSans-111"/>
      <use x="808.300781" xlink:href="#DejaVuSans-108"/>
      <use x="836.083984" xlink:href="#DejaVuSans-118"/>
      <use x="895.263672" xlink:href="#DejaVuSans-101"/>
      <use x="956.787109" xlink:href="#DejaVuSans-32"/>
      <use x="988.574219" xlink:href="#DejaVuSans-91"/>
      <use x="1027.587891" xlink:href="#DejaVuSans-78"/>
      <use x="1102.392578" xlink:href="#DejaVuSans-61"/>
      <use x="1186.181641" xlink:href="#DejaVuSans-49"/>
      <use x="1249.804688" xlink:href="#DejaVuSans-93"/>
      <use x="1288.818359" xlink:href="#DejaVuSans-32"/>
      <use x="1320.605469" xlink:href="#DejaVuSans-40"/>
      <use x="1359.619141" xlink:href="#DejaVuSans-67"/>
      <use x="1429.443359" xlink:href="#DejaVuSans-104"/>
      <use x="1492.822266" xlink:href="#DejaVuSans-97"/>
      <use x="1554.101562" xlink:href="#DejaVuSans-110"/>
      <use x="1617.480469" xlink:href="#DejaVuSans-110"/>
      <use x="1680.859375" xlink:href="#DejaVuSans-101"/>
      <use x="1742.382812" xlink:href="#DejaVuSans-108"/>
      <use x="1770.166016" xlink:href="#DejaVuSans-32"/>
      <use x="1801.953125" xlink:href="#DejaVuSans-76"/>
      <use x="1857.666016" xlink:href="#DejaVuSans-97"/>
      <use x="1918.945312" xlink:href="#DejaVuSans-115"/>
      <use x="1971.044922" xlink:href="#DejaVuSans-116"/>
      <use x="2010.253906" xlink:href="#DejaVuSans-41"/>
     </g>
    </g>
    <g id="line2d_44">
     <path d="M 66.780625 149.7975 
L 90.780625 149.7975 
" style="fill:none;stroke:#ce4257;stroke-linecap:square;stroke-width:1.5;"/>
    </g>
    <g id="line2d_45"/>
    <g id="text_26">
     <!-- convolve1D (Channel First) -->
     <g transform="translate(100.380625 153.9975)scale(0.12 -0.12)">
      <use xlink:href="#DejaVuSans-99"/>
      <use x="54.980469" xlink:href="#DejaVuSans-111"/>
      <use x="116.162109" xlink:href="#DejaVuSans-110"/>
      <use x="179.541016" xlink:href="#DejaVuSans-118"/>
      <use x="238.720703" xlink:href="#DejaVuSans-111"/>
      <use x="299.902344" xlink:href="#DejaVuSans-108"/>
      <use x="327.685547" xlink:href="#DejaVuSans-118"/>
      <use x="386.865234" xlink:href="#DejaVuSans-101"/>
      <use x="448.388672" xlink:href="#DejaVuSans-49"/>
      <use x="512.011719" xlink:href="#DejaVuSans-68"/>
      <use x="589.013672" xlink:href="#DejaVuSans-32"/>
      <use x="620.800781" xlink:href="#DejaVuSans-40"/>
      <use x="659.814453" xlink:href="#DejaVuSans-67"/>
      <use x="729.638672" xlink:href="#DejaVuSans-104"/>
      <use x="793.017578" xlink:href="#DejaVuSans-97"/>
      <use x="854.296875" xlink:href="#DejaVuSans-110"/>
      <use x="917.675781" xlink:href="#DejaVuSans-110"/>
      <use x="981.054688" xlink:href="#DejaVuSans-101"/>
      <use x="1042.578125" xlink:href="#DejaVuSans-108"/>
      <use x="1070.361328" xlink:href="#DejaVuSans-32"/>
      <use x="1102.148438" xlink:href="#DejaVuSans-70"/>
      <use x="1159.558594" xlink:href="#DejaVuSans-105"/>
      <use x="1187.341797" xlink:href="#DejaVuSans-114"/>
      <use x="1228.455078" xlink:href="#DejaVuSans-115"/>
      <use x="1280.554688" xlink:href="#DejaVuSans-116"/>
      <use x="1319.763672" xlink:href="#DejaVuSans-41"/>
     </g>
    </g>
    <g id="line2d_46">
     <path d="M 66.780625 167.41125 
L 90.780625 167.41125 
" style="fill:none;stroke:#ce4257;stroke-dasharray:1.5,2.475;stroke-dashoffset:0;stroke-width:1.5;"/>
    </g>
    <g id="line2d_47"/>
    <g id="text_27">
     <!-- convolve1D (Channel Last) -->
     <g transform="translate(100.380625 171.61125)scale(0.12 -0.12)">
      <use xlink:href="#DejaVuSans-99"/>
      <use x="54.980469" xlink:href="#DejaVuSans-111"/>
      <use x="116.162109" xlink:href="#DejaVuSans-110"/>
      <use x="179.541016" xlink:href="#DejaVuSans-118"/>
      <use x="238.720703" xlink:href="#DejaVuSans-111"/>
      <use x="299.902344" xlink:href="#DejaVuSans-108"/>
      <use x="327.685547" xlink:href="#DejaVuSans-118"/>
      <use x="386.865234" xlink:href="#DejaVuSans-101"/>
      <use x="448.388672" xlink:href="#DejaVuSans-49"/>
      <use x="512.011719" xlink:href="#DejaVuSans-68"/>
      <use x="589.013672" xlink:href="#DejaVuSans-32"/>
      <use x="620.800781" xlink:href="#DejaVuSans-40"/>
      <use x="659.814453" xlink:href="#DejaVuSans-67"/>
      <use x="729.638672" xlink:href="#DejaVuSans-104"/>
      <use x="793.017578" xlink:href="#DejaVuSans-97"/>
      <use x="854.296875" xlink:href="#DejaVuSans-110"/>
      <use x="917.675781" xlink:href="#DejaVuSans-110"/>
      <use x="981.054688" xlink:href="#DejaVuSans-101"/>
      <use x="1042.578125" xlink:href="#DejaVuSans-108"/>
      <use x="1070.361328" xlink:href="#DejaVuSans-32"/>
      <use x="1102.148438" xlink:href="#DejaVuSans-76"/>
      <use x="1157.861328" xlink:href="#DejaVuSans-97"/>
      <use x="1219.140625" xlink:href="#DejaVuSans-115"/>
      <use x="1271.240234" xlink:href="#DejaVuSans-116"/>
      <use x="1310.449219" xlink:href="#DejaVuSans-41"/>
     </g>
    </g>
   </g>
  </g>
 </g>
 <defs>
  <clipPath id="p38c780b8fc">
   <rect height="498.96" width="1339.2" x="55.980625" y="28.396875"/>
  </clipPath>
 </defs>
</svg>
